            <svg xmlns="http://www.w3.org/2000/svg" viewBox="0 0 571.62 181.86">
              <defs>
                <style>
                  .cls-1 {
                    fill: #fff;
                  }

                  .cls-2 {
                    fill: #fbb040;
                  }

                  .cls-3 {
                    fill: #003b7b;
                  }

                  .cls-4 {
                    fill: #000;
                  }
                </style>
              </defs>
              <title>Asset 1</title>
              <g id="Layer_2" data-name="Layer 2">
                <g id="Layer_1-2" data-name="Layer 1">
                  <rect class="cls-1" x="7.22" y="6.89" width="169.54" height="135.51" />
                  <path class="cls-2" d="M569,0H.33V149.28H569ZM176.76,142.4H7.22V6.89H176.76Z" />
                  <path class="cls-3"
                    d="M222.08,70.15a54.3,54.3,0,0,1-9.6-.75,19.43,19.43,0,0,1-7.15-2.69,12.75,12.75,0,0,1-4.69-5.56A22,22,0,0,1,199,52v-14A22,22,0,0,1,200.64,29a12.72,12.72,0,0,1,4.67-5.56,19.54,19.54,0,0,1,7.16-2.71,53.34,53.34,0,0,1,9.61-.77,54,54,0,0,1,9.66.77,19.47,19.47,0,0,1,7.16,2.71,12.85,12.85,0,0,1,4.65,5.51,21.92,21.92,0,0,1,1.66,9.17V52a22,22,0,0,1-1.66,9.18,12.88,12.88,0,0,1-4.67,5.51,19.35,19.35,0,0,1-7.16,2.69A54.7,54.7,0,0,1,222.08,70.15Zm0-11.47a31.41,31.41,0,0,0,4.51-.27,6.1,6.1,0,0,0,2.84-1.07A4.67,4.67,0,0,0,231,54.92a15,15,0,0,0,.51-4.34V39.42a12.11,12.11,0,0,0-.88-5.33,4.23,4.23,0,0,0-2.76-2.2,23.9,23.9,0,0,0-5.76-.51,23.17,23.17,0,0,0-5.7.51,4.21,4.21,0,0,0-2.71,2.2,13,13,0,0,0-1,5.33V50.58a13.12,13.12,0,0,0,1,5.36,4.25,4.25,0,0,0,2.78,2.23A23.09,23.09,0,0,0,222.09,58.68Z" />
                  <path class="cls-3" d="M261.69,31.16v9.72h20.38V51.64H261.69V69.77H248.36V20.33h35.43V31.16Z" />
                  <path class="cls-3" d="M299.78,31.16v9.72h20.38V51.64H299.78V69.77H286.45V20.33h35.43V31.16Z" />
                  <path class="cls-3"
                    d="M342.73,39.31l5.53.39a72.15,72.15,0,0,1,9.39,1.13A14.23,14.23,0,0,1,363.09,43a7.68,7.68,0,0,1,2.82,4,24,24,0,0,1,.81,6.95,37.08,37.08,0,0,1-.49,6.69,9.54,9.54,0,0,1-2.49,4.79c-1.33,1.46-3.51,2.6-6.54,3.44a47,47,0,0,1-12.15,1.26,92,92,0,0,1-9.3-.38,16.24,16.24,0,0,1-6.26-1.91A9.89,9.89,0,0,1,325.32,63a24.05,24.05,0,0,1-1.44-9.27h12.8a9.3,9.3,0,0,0,.41,3,3,3,0,0,0,1.33,1.69,6.18,6.18,0,0,0,2.44.71,37.8,37.8,0,0,0,4.21.18,33.33,33.33,0,0,0,5.18-.29,3.73,3.73,0,0,0,2.39-1.22,4.78,4.78,0,0,0,.75-3,7.19,7.19,0,0,0-.44-3.08,2.26,2.26,0,0,0-1.64-1.06,41.69,41.69,0,0,0-4.91-.48L343.48,50q-6.84-.51-9.48-.86a14.3,14.3,0,0,1-5.08-1.72,8.79,8.79,0,0,1-3.71-4.32,20.7,20.7,0,0,1-1.27-8,19.76,19.76,0,0,1,1.45-8.24,9.56,9.56,0,0,1,4.05-4.57,17.13,17.13,0,0,1,6.26-1.88,79.28,79.28,0,0,1,9.35-.45,66.1,66.1,0,0,1,11,.72,11,11,0,0,1,6.69,3.78q2.59,3,2.6,9.43v2H352.51a6.59,6.59,0,0,0-.71-3.57A3.08,3.08,0,0,0,349.67,31a31.2,31.2,0,0,0-4.6-.23,21,21,0,0,0-5.14.46,3.44,3.44,0,0,0-2.17,1.3,5,5,0,0,0-.49,2.47,5,5,0,0,0,.58,2.73,2.72,2.72,0,0,0,1.61,1.14A20.45,20.45,0,0,0,342.73,39.31Z" />
                  <path class="cls-3"
                    d="M413.9,20.33V69.77H400.57V50.37H383.21v19.4H369.89V20.33h13.32V38.9h17.36V20.33Z" />
                  <path class="cls-3"
                    d="M440.37,70.15a54.38,54.38,0,0,1-9.6-.75,19.5,19.5,0,0,1-7.15-2.69,12.67,12.67,0,0,1-4.68-5.56A21.85,21.85,0,0,1,417.28,52v-14A21.83,21.83,0,0,1,418.94,29a12.7,12.7,0,0,1,4.66-5.56,19.54,19.54,0,0,1,7.16-2.71,60.67,60.67,0,0,1,19.27,0,19.4,19.4,0,0,1,7.16,2.71,12.85,12.85,0,0,1,4.65,5.51,21.76,21.76,0,0,1,1.66,9.17V52a21.81,21.81,0,0,1-1.66,9.18,12.81,12.81,0,0,1-4.67,5.51A19.3,19.3,0,0,1,450,69.4,54.82,54.82,0,0,1,440.37,70.15Zm0-11.47a31.16,31.16,0,0,0,4.5-.27,6.1,6.1,0,0,0,2.84-1.07,4.68,4.68,0,0,0,1.55-2.42,15.38,15.38,0,0,0,.5-4.34V39.42a12.11,12.11,0,0,0-.88-5.33,4.21,4.21,0,0,0-2.76-2.2,23.81,23.81,0,0,0-5.75-.51,23.26,23.26,0,0,0-5.71.51,4.21,4.21,0,0,0-2.71,2.2,13,13,0,0,0-1,5.33V50.58a13.12,13.12,0,0,0,1,5.36,4.27,4.27,0,0,0,2.78,2.23A23.19,23.19,0,0,0,440.39,58.68Z" />
                  <path class="cls-3"
                    d="M466.72,69.77V20.33h25.7a34.77,34.77,0,0,1,9.87,1.37,9.66,9.66,0,0,1,5.48,4.41c1.24,2.13,1.85,5.21,1.85,9.22,0,2.59-.06,4.61-.19,6a11.85,11.85,0,0,1-1,3.93,7.77,7.77,0,0,1-2.78,3.11,16.22,16.22,0,0,1-5.46,2.12V51a9.73,9.73,0,0,1,6.58,2.42,8.32,8.32,0,0,1,2.39,6.34v10h-13.3V62.86q0-6.22-5.46-6.22H480V69.77ZM480,45.18h10.34a7.74,7.74,0,0,0,3.79-.69,3.07,3.07,0,0,0,1.44-2.2,27.45,27.45,0,0,0,.3-4.82q0-3.31-1.14-4.5c-.76-.78-2.22-1.17-4.39-1.17H480Z" />
                  <path class="cls-3" d="M526.68,31.16v9.05H548v9.14H526.68v9.59h23.14V69.77H513.35V20.33h36V31.16Z" />
                  <path class="cls-3" d="M214,89.13V98h20.87v9H214v9.4h22.68V127H201V78.51h35.3V89.13Z" />
                  <path class="cls-3"
                    d="M255.87,89.75l.79,37.21H243.6V78.51h22l14,37.22h.55l-.8-37.22h13.06V127H270.23L256.38,89.75Z" />
                  <path class="cls-3"
                    d="M342,93.59H328.76a4.69,4.69,0,0,0-1.31-3.32A5.21,5.21,0,0,0,324.63,89a32.63,32.63,0,0,0-4.29-.23q-4.57,0-6.62,1a4.57,4.57,0,0,0-2.55,3,34.47,34.47,0,0,0-.64,6.62v7.86a14.61,14.61,0,0,0,1,6.23,4.84,4.84,0,0,0,3,2.63,21.45,21.45,0,0,0,5.78.6,15.74,15.74,0,0,0,5.23-.65,4.14,4.14,0,0,0,2.47-2.39,14,14,0,0,0,.72-5.14h-9v-9H342v8.47a41.61,41.61,0,0,1-1,10,10.89,10.89,0,0,1-3.33,5.71,13.51,13.51,0,0,1-6.44,2.78,78.69,78.69,0,0,1-21.46,0,18,18,0,0,1-7-2.64,11.43,11.43,0,0,1-4.29-5.49,25.85,25.85,0,0,1-1.42-9.41V96.53A24.26,24.26,0,0,1,298.67,87a12.28,12.28,0,0,1,4.52-5.64,18,18,0,0,1,7.11-2.6,63.91,63.91,0,0,1,10-.67c4.08,0,7.28.1,9.61.32a17,17,0,0,1,6.25,1.75,9.65,9.65,0,0,1,4.29,4.64A20.73,20.73,0,0,1,342,93.59Z" />
                  <path class="cls-3" d="M360.13,78.51V127H347.07V78.51Z" />
                  <path class="cls-3"
                    d="M379,89.75l.8,37.21H366.73V78.51h22l14,37.22h.54l-.8-37.22h13.06V127H393.36L379.5,89.75Z" />
                  <path class="cls-3" d="M435.38,89.13V98h20.86v9H435.38v9.4h22.68V127H422.31V78.51h35.3V89.13Z" />
                  <path class="cls-3" d="M478.19,89.13V98h20.87v9H478.19v9.4h22.68V127H465.13V78.51h35.3V89.13Z" />
                  <path class="cls-3"
                    d="M507.47,127V78.51h25.18a34.7,34.7,0,0,1,9.68,1.34,9.44,9.44,0,0,1,5.37,4.33q1.81,3.13,1.82,9c0,2.54-.07,4.51-.19,5.91a11.68,11.68,0,0,1-1,3.86,7.58,7.58,0,0,1-2.72,3,15.82,15.82,0,0,1-5.35,2.08v.5A9.52,9.52,0,0,1,546.7,111a8.15,8.15,0,0,1,2.34,6.21V127H536v-6.77q0-6.09-5.35-6.09H520.53V127Zm13.06-24.1h10.13a7.62,7.62,0,0,0,3.71-.67,3,3,0,0,0,1.42-2.15,28,28,0,0,0,.28-4.73c0-2.17-.37-3.63-1.11-4.4s-2.18-1.16-4.3-1.16H520.53Z" />
                  <path class="cls-3"
                    d="M122.11,101.18V84.81h28V66.18h-28V51.84H161.3V32H98.22V43c5.71,7.27,10.29,20.11,10.29,33.19S103.93,102,98.22,109.26v11.15h65.11V101.18Z" />
                  <path class="cls-3"
                    d="M95.77,45.9c-8.41-10.72-21.34-15.56-34-15.56-21.38,0-43.48,13.49-43.48,45.87s22.1,45.87,43.48,45.87c12.67,0,25.6-4.84,34-15.56,5.71-7.27,9.35-17.22,9.35-30.31S101.48,53.17,95.77,45.9ZM61.76,103c-12.54,0-19.59-10.51-19.59-26.76s7-26.16,19.59-26.16S81.23,60,81.23,76.21,74.18,103,61.76,103Z" />
                  <path class="cls-1" d="M4.2,166.78H0v-3.47H13.1v3.47H8.9v14.73H4.2Z" />
                  <path class="cls-1" d="M14.46,163.31h4.7v6.81h3.76v-6.81h4.7v18.2h-4.7v-7.78H19.16v7.78h-4.7Z" />
                  <path class="cls-1" d="M30,163.31H41.58v3.47H34.72v3.64h6.44v3.47H34.72V178h7.17v3.47H30Z" />
                  <path class="cls-1" d="M50.62,163.31H62.19v3.47H55.33v3.64h6.44v3.47H55.33v7.62H50.62Z" />
                  <path class="cls-1"
                    d="M76.72,175.49c0,3.57-1.12,6.37-6.58,6.37s-6.58-2.8-6.58-6.37V163.31h4.7v13.43c0,1.43.62,2.27,1.88,2.27s1.87-.84,1.87-2.27V163.31h4.71Z" />
                  <path class="cls-1" d="M82.15,166.78H78v-3.47h13.1v3.47h-4.2v14.73h-4.7Z" />
                  <path class="cls-1"
                    d="M105.45,175.49c0,3.57-1.12,6.37-6.58,6.37s-6.58-2.8-6.58-6.37V163.31H97v13.43c0,1.43.62,2.27,1.88,2.27s1.88-.84,1.88-2.27V163.31h4.7Z" />
                  <path class="cls-1"
                    d="M107.7,163.31h7.9c4,0,5.38,2.25,5.38,4.74,0,2.65-1.18,3.95-3.36,4.44v0c3,.38,3.16,2.09,3.21,4.53.09,3.6.23,4,.9,4.21v.23h-5.07c-.36-.62-.5-1.63-.5-3.7,0-3.16-.48-3.82-2-3.82h-1.79v7.52H107.7Zm4.71,7.67h1.45a2.18,2.18,0,0,0,2.41-2.37c0-1.37-.56-2.29-2.44-2.29h-1.42Z" />
                  <path class="cls-1" d="M123.29,163.31h11.56v3.47H128v3.64h6.44v3.47H128V178h7.17v3.47H123.29Z" />
                  <path class="cls-1"
                    d="M150.48,181.86c-6.19,0-7-3.67-7-9.45s.84-9.45,7-9.45c6.66,0,7,4.4,7,9.45S157.14,181.86,150.48,181.86Zm0-2.85c1.9,0,2.18-1.61,2.18-6.6s-.28-6.6-2.18-6.6-2.13,1.6-2.13,6.6S148.6,179,150.45,179Z" />
                  <path class="cls-1" d="M159.51,163.31h11.57v3.47h-6.86v3.64h6.44v3.47h-6.44v7.62h-4.71Z" />
                  <path class="cls-1"
                    d="M186.17,181.86c-6.19,0-7-3.67-7-9.45s.84-9.45,7-9.45c6.66,0,7,4.4,7,9.45S192.83,181.86,186.17,181.86Zm0-2.85c1.9,0,2.18-1.61,2.18-6.6s-.28-6.6-2.18-6.6-2.13,1.6-2.13,6.6S184.29,179,186.14,179Z" />
                  <path class="cls-1" d="M195.2,163.31h11.56v3.47H199.9v3.64h6.44v3.47H199.9v7.62h-4.7Z" />
                  <path class="cls-1" d="M208.25,163.31h11.57v3.47H213v3.64h6.44v3.47H213v7.62h-4.71Z" />
                  <path class="cls-1"
                    d="M225.42,176v.64c0,1.37.42,2.42,2,2.42a2,2,0,0,0,2.13-2.17c0-3.92-8.6-1.73-8.6-8.53,0-2.91,1.71-5.35,6.56-5.35,4.7,0,6.38,2.16,6.38,5v.44h-4.54a3.43,3.43,0,0,0-.39-1.91,1.52,1.52,0,0,0-1.43-.64,1.72,1.72,0,0,0-1.87,2c0,3.8,8.59,1.89,8.59,8.31,0,4.13-2.52,5.78-6.83,5.78-3.41,0-6.58-.94-6.58-4.74V176Z" />
                  <path class="cls-1" d="M236,163.31h4.7v6.81h3.76v-6.81h4.7v18.2h-4.7v-7.78h-3.76v7.78H236Z" />
                  <path class="cls-1"
                    d="M258.17,181.86c-6.19,0-7-3.67-7-9.45s.84-9.45,7-9.45c6.66,0,7,4.4,7,9.45S264.83,181.86,258.17,181.86Zm0-2.85c1.9,0,2.18-1.61,2.18-6.6s-.28-6.6-2.18-6.6-2.13,1.6-2.13,6.6S256.29,179,258.14,179Z" />
                  <path class="cls-1"
                    d="M267.2,163.31h7.9c4,0,5.37,2.25,5.37,4.74,0,2.65-1.17,3.95-3.36,4.44v0c3,.38,3.17,2.09,3.22,4.53.09,3.6.23,4,.9,4.21v.23h-5.07c-.36-.62-.5-1.63-.5-3.7,0-3.16-.48-3.82-2-3.82h-1.79v7.52H267.2Zm4.71,7.67h1.45a2.18,2.18,0,0,0,2.41-2.37c0-1.37-.56-2.29-2.44-2.29h-1.42Z" />
                  <path class="cls-1" d="M282.79,163.31h11.56v3.47h-6.86v3.64h6.44v3.47h-6.44V178h7.17v3.47H282.79Z" />
                  <path class="cls-1" d="M303.4,163.31H315v3.47H308.1v3.64h6.44v3.47H308.1V178h7.17v3.47H303.4Z" />
                  <path class="cls-1"
                    d="M317,163.31h5.41l3.86,11.83h.06V163.31h4.36v18.2h-5.31L321.26,169h-.06v12.54H317Z" />
                  <path class="cls-1" d="M333.09,163.31h11.56v3.47H337.8v3.64h6.43v3.47H337.8V178H345v3.47H333.09Z" />
                  <path class="cls-1"
                    d="M346.7,163.31h7.9c4,0,5.37,2.25,5.37,4.74,0,2.65-1.17,3.95-3.36,4.44v0c3,.38,3.17,2.09,3.22,4.53.09,3.6.23,4,.9,4.21v.23h-5.07c-.36-.62-.5-1.63-.5-3.7,0-3.16-.48-3.82-2-3.82h-1.8v7.52h-4.7Zm4.7,7.67h1.46a2.19,2.19,0,0,0,2.41-2.37c0-1.37-.56-2.29-2.44-2.29H351.4Z" />
                  <path class="cls-1"
                    d="M370.56,168.84c0-1.17-.14-3-1.88-3-1.93,0-2.15,1.78-2.15,6.62s.28,6.58,2.15,6.58c1.6,0,2.16-1.33,2.16-3.82v-.59h-2.21v-2.85h6.58v9.76H372l-.11-1.74h-.06c-.73,1.63-2.49,2.09-4.31,2.09-5,0-5.85-3.39-5.85-9.07,0-6,.44-9.83,7.11-9.83,6.07,0,6.33,3.82,6.33,5.88Z" />
                  <path class="cls-1" d="M380.6,174.35l-5.07-11h5.21l2.24,6.76h0l2.3-6.76h5l-5.07,11v7.16h-4.7Z" />
                  <path class="cls-1"
                    d="M409.38,175.14a4.51,4.51,0,0,0,.78-2.42h4a7.68,7.68,0,0,1-2.32,5.42l2.74,3.37h-5l-.89-1.12a8.76,8.76,0,0,1-5,1.47c-4.59,0-6.13-2.77-6.13-5.07,0-2.65,1.57-3.87,3.86-5.4-.81-1-2-2.65-2-4,0-2.85,2.47-4.25,5.46-4.25s5.33,1.32,5.33,4.08c0,2.24-1.66,3.46-3.5,4.76Zm-5.74-1.07a2.87,2.87,0,0,0-1.65,2.39,2.43,2.43,0,0,0,2.52,2.24,3,3,0,0,0,2.13-.91Zm1.12-4.64c.9-.69,1.74-1.38,1.74-2.5a1.49,1.49,0,0,0-1.63-1.43,1.46,1.46,0,0,0-1.54,1.41A4.47,4.47,0,0,0,404.76,169.43Z" />
                  <path class="cls-1" d="M425.68,166.78h-4.2v-3.47h13.1v3.47h-4.2v14.73h-4.7Z" />
                  <path class="cls-1" d="M435.93,163.31H447.5v3.47h-6.86v3.64h6.44v3.47h-6.44V178h7.17v3.47H435.93Z" />
                  <path class="cls-1"
                    d="M457.78,169.63c0-2.65-.34-3.82-1.9-3.82-1.88,0-2.05,1.63-2.05,6.4,0,5.4.2,6.8,2.16,6.8,1.73,0,1.93-1.81,2-4.64h4.53V175c0,3.92-1.2,6.85-7,6.85-6,0-6.5-4.1-6.5-9.58,0-4.66.28-9.32,6.94-9.32,4.15,0,6.42,1.63,6.42,5.91v.76Z" />
                  <path class="cls-1" d="M464.14,163.31h4.7v6.81h3.75v-6.81h4.71v18.2h-4.71v-7.78h-3.75v7.78h-4.7Z" />
                  <path class="cls-1"
                    d="M479.69,163.31h5.41L489,175.14H489V163.31h4.37v18.2h-5.32L484,169h-.06v12.54h-4.2Z" />
                  <path class="cls-1"
                    d="M502.39,181.86c-6.19,0-7-3.67-7-9.45s.84-9.45,7-9.45c6.66,0,7,4.4,7,9.45S509.05,181.86,502.39,181.86Zm0-2.85c1.9,0,2.18-1.61,2.18-6.6s-.28-6.6-2.18-6.6-2.13,1.6-2.13,6.6S500.51,179,502.36,179Z" />
                  <path class="cls-1" d="M511.42,163.31h4.7V178h6.8v3.47h-11.5Z" />
                  <path class="cls-1"
                    d="M530.73,181.86c-6.18,0-7-3.67-7-9.45s.84-9.45,7-9.45c6.67,0,7,4.4,7,9.45S537.4,181.86,530.73,181.86Zm0-2.85c1.9,0,2.18-1.61,2.18-6.6s-.28-6.6-2.18-6.6-2.13,1.6-2.13,6.6S528.86,179,530.71,179Z" />
                  <path class="cls-1"
                    d="M548.26,168.84c0-1.17-.14-3-1.87-3-1.94,0-2.16,1.78-2.16,6.62s.28,6.58,2.16,6.58c1.59,0,2.15-1.33,2.15-3.82v-.59h-2.21v-2.85h6.58v9.76h-3.22l-.11-1.74h-.06c-.73,1.63-2.49,2.09-4.31,2.09-5,0-5.85-3.39-5.85-9.07,0-6,.45-9.83,7.11-9.83,6.08,0,6.33,3.82,6.33,5.88Z" />
                  <path class="cls-1" d="M558.3,174.35l-5.07-11h5.21l2.24,6.76h.05l2.3-6.76h5l-5.07,11v7.16h-4.7Z" />
                </g>
              </g>
            </svg>
