<?xml version="1.0" ?><!DOCTYPE svg  PUBLIC '-//W3C//DTD SVG 1.1//EN'  'http://www.w3.org/Graphics/SVG/1.1/DTD/svg11.dtd'><svg viewBox="0 0 512 512" xmlns="http://www.w3.org/2000/svg" xmlns:xlink="http://www.w3.org/1999/xlink"><style>:root>svg{display:none}:root>svg:target{display:block}</style><svg viewBox="0 0 512 512" id="email" xmlns="http://www.w3.org/2000/svg"><path d="M256 352c-16.53 0-33.06-5.422-47.16-16.41L0 173.2V400c0 26.5 21.49 48 48 48h416c26.51 0 48-21.49 48-48V173.2L303.2 335.7C289.1 346.6 272.5 352 256 352zM16.29 145.3l212.2 165.1c16.19 12.6 38.87 12.6 55.06 0l212.2-165.1C505.1 137.3 512 125 512 112c0-26.51-21.5-48-48-48H48C21.49 64 0 85.49 0 112c0 13 6.01 25.3 16.29 33.3z"/></svg><svg style="fill-rule:evenodd;clip-rule:evenodd;stroke-linejoin:round;stroke-miterlimit:2" viewBox="0 0 512 512" xml:space="preserve" id="facebook" xmlns="http://www.w3.org/2000/svg"><path d="M449.446 0C483.971 0 512 28.03 512 62.554v386.892C512 483.97 483.97 512 449.446 512H342.978V319.085h66.6l12.672-82.621h-79.272v-53.617c0-22.603 11.073-44.636 46.58-44.636H425.6v-70.34s-32.71-5.582-63.982-5.582c-65.288 0-107.96 39.569-107.96 111.204v62.971h-72.573v82.621h72.573V512H62.554C28.03 512 0 483.97 0 449.446V62.554C0 28.03 28.029 0 62.554 0h386.892Z"/></svg><svg viewBox="0 0 32 32" xml:space="preserve" id="home" xmlns="http://www.w3.org/2000/svg"><path d="M30.854 16.548A2.216 2.216 0 0 1 28.764 18H28v11a1 1 0 0 1-1 1h-6v-7c0-2.757-2.243-5-5-5s-5 2.243-5 5v7H5a1 1 0 0 1-1-1V18h-.765a2.215 2.215 0 0 1-2.09-1.451 2.218 2.218 0 0 1 .62-2.47l11.679-11.06a3.718 3.718 0 0 1 5.112 0l11.707 11.086c.678.591.922 1.561.591 2.443z"/></svg><svg viewBox="0 0 48 48" id="language" xmlns="http://www.w3.org/2000/svg"><path d="M0 0h48v48H0z" fill="none"/><path d="M23.99 4C12.94 4 4 12.95 4 24s8.94 20 19.99 20C35.04 44 44 35.05 44 24S35.04 4 23.99 4zm13.85 12h-5.9c-.65-2.5-1.56-4.9-2.76-7.12 3.68 1.26 6.74 3.81 8.66 7.12zM24 8.07c1.67 2.4 2.97 5.07 3.82 7.93h-7.64c.85-2.86 2.15-5.53 3.82-7.93zM8.52 28C8.19 26.72 8 25.38 8 24s.19-2.72.52-4h6.75c-.16 1.31-.27 2.64-.27 4 0 1.36.11 2.69.28 4H8.52zm1.63 4h5.9c.65 2.5 1.56 4.9 2.76 7.13A16.034 16.034 0 0 1 10.15 32zm5.9-16h-5.9c1.92-3.31 4.98-5.87 8.66-7.13-1.2 2.23-2.11 4.63-2.76 7.13zM24 39.93c-1.66-2.4-2.96-5.07-3.82-7.93h7.64c-.86 2.86-2.16 5.53-3.82 7.93zM28.68 28h-9.36c-.19-1.31-.32-2.64-.32-4 0-1.36.13-2.69.32-4h9.36c.19 1.31.32 2.64.32 4 0 1.36-.13 2.69-.32 4zm.51 11.12c1.2-2.23 2.11-4.62 2.76-7.12h5.9a16.087 16.087 0 0 1-8.66 7.12zM32.72 28c.16-1.31.28-2.64.28-4 0-1.36-.11-2.69-.28-4h6.75c.33 1.28.53 2.62.53 4s-.19 2.72-.53 4h-6.75z"/></svg><svg xml:space="preserve" viewBox="0 0 56.693 56.693" id="linkedin" xmlns="http://www.w3.org/2000/svg"><path d="M30.071 27.101v-.077a2.031 2.031 0 0 1-.05.077h.05z"/><path d="M49.265 4.667H7.145c-2.016 0-3.651 1.596-3.651 3.563v42.613c0 1.966 1.635 3.562 3.651 3.562h42.12c2.019 0 3.654-1.597 3.654-3.562V8.23c0-1.968-1.636-3.563-3.654-3.563zm-30.79 41.637H11.01V23.845h7.465v22.459zm-3.732-25.527h-.05c-2.504 0-4.124-1.725-4.124-3.88 0-2.203 1.67-3.88 4.223-3.88 2.554 0 4.125 1.677 4.175 3.88 0 2.155-1.622 3.88-4.224 3.88zm30.651 25.527h-7.465V34.286c0-3.018-1.08-5.078-3.781-5.078-2.062 0-3.29 1.389-3.831 2.731-.197.479-.245 1.149-.245 1.821v12.543h-7.465s.098-20.354 0-22.459h7.465v3.179c.992-1.53 2.766-3.709 6.729-3.709 4.911 0 8.594 3.211 8.594 10.11v12.88z"/></svg><svg xml:space="preserve" viewBox="0 0 32 32" id="news" xmlns="http://www.w3.org/2000/svg"><path fill="none" d="M0 0h32v32H0z"/><path d="M4 14h20v-2H4v2zm11 12h7v-2h-7v2zm0-4h9v-2h-9v2zm0-4h9v-2h-9v2zM4 26h9V16H4v10zm24-16V6H0v22s0 4 4 4h25s3-.062 3-4V10h-4zM4 30c-2 0-2-2-2-2V8h24v20c0 .921.284 1.558.676 2H4z"/></svg><svg style="enable-background:new 0 0 32 32" xml:space="preserve" viewBox="0 0 32 32" id="owners" xmlns="http://www.w3.org/2000/svg"><path d="M25.961 13.322A7.961 7.961 0 0 0 28 8a8 8 0 0 0-16 0 8 8 0 0 0-8 8c0 2.046.775 3.907 2.039 5.322C2.381 23.076 0 26.378 0 30c0 1.078.844 2 2 2h20c1.156 0 2-.922 2-2 0-2.215-.898-4.306-2.427-6H30c1.156 0 2-.922 2-2 0-3.622-2.381-6.924-6.039-8.678zM20 4a4 4 0 0 1 0 8c-.422 0-.821-.083-1.203-.205a8.034 8.034 0 0 0-2.592-2.592A3.932 3.932 0 0 1 16 8a4 4 0 0 1 4-4zm-8 8a4 4 0 1 1 0 8 4 4 0 0 1 0-8zM4.494 28C5.569 25.835 8.32 24 12 24s6.431 1.835 7.506 4H4.494zm14.42-8A7.914 7.914 0 0 0 20 16c3.68 0 6.431 1.835 7.506 4h-8.592z"/></svg><svg viewBox="0 0 512 512" id="phone" xmlns="http://www.w3.org/2000/svg"><path d="m18.92 351.2 108.5-46.52c12.78-5.531 27.77-1.801 36.45 8.98l44.09 53.82c69.25-34 125.5-90.31 159.5-159.5l-53.81-44.04c-10.75-8.781-14.41-23.69-8.974-36.47l46.51-108.5c6.094-13.91 21.1-21.52 35.79-18.11l100.8 23.25c14.25 3.25 24.22 15.8 24.22 30.46 0 252.3-205.2 457.5-457.5 457.5-14.67 0-27.18-9.968-30.45-24.22L.796 387.05C-2.571 372.4 5.018 357.2 18.92 351.2z"/></svg><svg viewBox="0 0 500 500" xml:space="preserve" id="projects" xmlns="http://www.w3.org/2000/svg"><path d="M427.9 402.1H72.1V128.4H428v273.7zM99.4 374.8h301.1v-219H99.4v219z"/><path d="M373.2 292.6H126.8C96.6 292.6 72 268 72 237.8v-41.1h27.4v41.1c0 15.1 12.3 27.4 27.4 27.4h246.4c15.1 0 27.4-12.3 27.4-27.4v-41.1H428v41.1c-.1 30.3-24.6 54.8-54.8 54.8zM304.8 155.8H195.2v-41.1c0-15.1 12.3-27.4 27.4-27.4h54.8c15.1 0 27.4 12.3 27.4 27.4v41.1zm-82.2-27.4h54.8v-13.7h-54.8v13.7z"/><path d="M318.4 210.5h27.4v41.1h-27.4zM154.2 210.5h27.4v41.1h-27.4z"/></svg><svg style="fill-rule:evenodd;clip-rule:evenodd;stroke-linejoin:round;stroke-miterlimit:2" viewBox="0 0 512 512" xml:space="preserve" id="twitter" xmlns="http://www.w3.org/2000/svg"><path d="M449.446 0C483.971 0 512 28.03 512 62.554v386.892C512 483.97 483.97 512 449.446 512H62.554C28.03 512 0 483.97 0 449.446V62.554C0 28.03 28.029 0 62.554 0h386.892ZM195.519 424.544c135.939 0 210.268-112.643 210.268-210.268 0-3.218 0-6.437-.153-9.502 14.406-10.421 26.973-23.448 36.935-38.314-13.18 5.824-27.433 9.809-42.452 11.648 15.326-9.196 26.973-23.602 32.49-40.92-14.252 8.429-30.038 14.56-46.896 17.931-13.487-14.406-32.644-23.295-53.946-23.295-40.767 0-73.87 33.104-73.87 73.87 0 5.824.613 11.494 1.992 16.858-61.456-3.065-115.862-32.49-152.337-77.241-6.284 10.881-9.962 23.601-9.962 37.088a73.57 73.57 0 0 0 32.95 61.456c-12.107-.307-23.448-3.678-33.41-9.196v.92c0 35.862 25.441 65.594 59.311 72.49a73.66 73.66 0 0 1-19.464 2.606c-4.751 0-9.348-.46-13.946-1.38 9.349 29.426 36.628 50.728 68.965 51.341-25.287 19.771-57.164 31.571-91.8 31.571-5.977 0-11.801-.306-17.625-1.073 32.337 21.15 71.264 33.41 112.95 33.41Z"/></svg><svg style="enable-background:new 0 0 24 24" viewBox="0 0 24 24" xml:space="preserve" id="user" xmlns="http://www.w3.org/2000/svg"><path d="M12 0C5.4 0 0 5.4 0 12s5.4 12 12 12 12-5.4 12-12S18.6 0 12 0zm0 4c2.2 0 4 2.2 4 5s-1.8 5-4 5-4-2.2-4-5 1.8-5 4-5zm6.6 15.5C16.9 21 14.5 22 12 22s-4.9-1-6.6-2.5c-.4-.4-.5-1-.1-1.4 1.1-1.3 2.6-2.2 4.2-2.7.8.4 1.6.6 2.5.6s1.7-.2 2.5-.6c1.7.5 3.1 1.4 4.2 2.7.4.4.4 1-.1 1.4z"/></svg></svg>