<?xml version="1.0" encoding="utf-8"?><svg viewBox="0 0 800 800" xmlns="http://www.w3.org/2000/svg" xmlns:xlink="http://www.w3.org/1999/xlink"><style>:root>svg{display:none}:root>svg:target{display:block}</style><svg viewBox="0 0 96 96" id="arrow" xmlns="http://www.w3.org/2000/svg"><path d="M69.844 43.388 33.842 13.386a6.003 6.003 0 0 0-7.688 9.223L56.624 48l-30.47 25.39a6.003 6.003 0 0 0 7.688 9.223l36.002-30.001a6.01 6.01 0 0 0 0-9.223Z"/></svg><svg stroke-width="2" stroke-linecap="round" stroke-linejoin="round" class="ablucide ablucide-award abw-5 abh-5" viewBox="0 0 24 24" id="award" xmlns="http://www.w3.org/2000/svg"><circle cx="12" cy="8" r="6"/><path d="M15.477 12.89 17 22l-5-3-5 3 1.523-9.11"/></svg><svg viewBox="0 0 32 32" id="book" xmlns="http://www.w3.org/2000/svg"><path d="M29.753.049 16.533 3.63c-.336.09-1.066.089-1.4-.005L2.253.056C1.104-.261-.01.568-.01 1.752v24.316c0 1.003.76 1.962 1.728 2.232l12.88 3.57c.345.096.788.149 1.248.149.315 0 .781-.024 1.21-.142l13.22-3.581c.971-.262 1.734-1.22 1.734-2.227V1.752C32.011.569 30.897-.262 29.752.049zM15 29.904 2.221 26.371c-.096-.026-.232-.203-.232-.303V2.067l12.608 3.486c.122.034.259.061.402.083v24.269zm15.01-3.836c0 .099-.162.27-.258.297l-12.753 3.454V5.572c.018-.005.038-.007.056-.012l12.954-3.504v24.012zm-9.948-14.621a.98.98 0 0 0 .272-.037l6.998-1.97a1 1 0 1 0-.542-1.926l-6.998 1.97a1 1 0 0 0 .27 1.963zm.001 6c.09 0 .182-.012.272-.037l6.998-1.97a1 1 0 1 0-.542-1.927l-6.998 1.97a1 1 0 0 0 .27 1.963zm0 6c.09 0 .182-.012.272-.037l6.998-1.97a1 1 0 0 0-.542-1.926l-6.998 1.97a1 1 0 0 0 .27 1.964zM12.332 9.484l-6.998-1.97a1.001 1.001 0 0 0-.542 1.926l6.998 1.97a1 1 0 1 0 .54-1.926zm0 6-6.998-1.97a1 1 0 0 0-.542 1.927l6.998 1.97a1 1 0 1 0 .54-1.927zm0 6-6.998-1.97a1.001 1.001 0 0 0-.542 1.926l6.998 1.97a1 1 0 1 0 .54-1.927z"/></svg><svg stroke-width="2" stroke-linecap="round" stroke-linejoin="round" class="adlucide adlucide-target adw-12 adh-12 adtext-blue-600" viewBox="0 0 24 24" id="brand" xmlns="http://www.w3.org/2000/svg"><circle cx="12" cy="12" r="10"/><circle cx="12" cy="12" r="6"/><circle cx="12" cy="12" r="2"/></svg><svg stroke-width="2" stroke-linecap="round" stroke-linejoin="round" class="aelucide aelucide-calendar aew-5 aeh-5" viewBox="0 0 24 24" id="calendar" xmlns="http://www.w3.org/2000/svg"><path d="M8 2v4m8-4v4"/><rect width="18" height="18" x="3" y="4" rx="2"/><path d="M3 10h18"/></svg><svg viewBox="0 0 24 24" data-name="Layer 1" id="channels" xmlns="http://www.w3.org/2000/svg"><path d="M18 7h1v1a1 1 0 0 0 2 0V7h1a1 1 0 0 0 0-2h-1V4a1 1 0 0 0-2 0v1h-1a1 1 0 0 0 0 2Zm2 9a3 3 0 0 0-1.73.56l-2.45-1.45A3.74 3.74 0 0 0 16 14a4 4 0 0 0-3-3.86V7.82a3 3 0 1 0-2 0v2.32A4 4 0 0 0 8 14a3.74 3.74 0 0 0 .18 1.11l-2.45 1.45A3 3 0 0 0 4 16a3 3 0 1 0 3 3 3 3 0 0 0-.12-.8l2.3-1.37a4 4 0 0 0 5.64 0l2.3 1.37A3 3 0 1 0 20 16ZM4 20a1 1 0 1 1 1-1 1 1 0 0 1-1 1Zm8-16a1 1 0 1 1-1 1 1 1 0 0 1 1-1Zm0 12a2 2 0 1 1 2-2 2 2 0 0 1-2 2Zm8 4a1 1 0 1 1 1-1 1 1 0 0 1-1 1Z"/></svg><svg stroke-width="2" stroke-linecap="round" stroke-linejoin="round" class="aglucide aglucide-award agw-16 agh-16 agtext-blue-700 agmx-auto agmb-4" viewBox="0 0 24 24" id="check" xmlns="http://www.w3.org/2000/svg"><circle cx="12" cy="8" r="6"/><path d="M15.477 12.89 17 22l-5-3-5 3 1.523-9.11"/></svg><svg stroke-linecap="round" stroke-linejoin="round" class="ailucide ailucide-mail aiw-12 aih-12 aitext-blue-700 aimb-4 aimx-auto" viewBox="0 0 24 24" id="email" xmlns="http://www.w3.org/2000/svg"><rect width="20" height="16" x="2" y="4" rx="2"/><path d="m22 7-8.97 5.7a1.94 1.94 0 0 1-2.06 0L2 7"/></svg><svg version="1.0" viewBox="0 0 24 24" xml:space="preserve" id="email-marketing" xmlns="http://www.w3.org/2000/svg"><path d="M23.1 8.1c-.2-.1-.4-.1-.6-.1h-2.9l-1.2-6.8c-.1-.4-.3-.7-.6-1-.3-.2-.7-.2-1.1-.2l-1 .2c-.1 0-.1 0-.2.1L7.3 4.7l-1.9.4c-.3 0-.5.3-.4.5l.1.5-1.5.3c-.1 0-.2.1-.3.2-.1.1-.1.2-.1.4l.2 1H1.5c-.2 0-.4 0-.6.1-.6.3-.9.8-.9 1.4v13c0 .2.1.5.1.6.3.6.8.9 1.4.9h21c.6 0 1.1-.3 1.3-.8.1-.2.2-.4.2-.7v-13c0-.6-.3-1.1-.9-1.4zm-1.3.9-1.9 1.9c.1-.2.1-.5.1-.8L19.8 9h2zm-11 6.7-1.7-5 8.6 1.3h.2l1-.2c.1 0 .2-.1.3-.1l-6.7 6.6c-.2.2-.5.2-.6 0L10 16.4l.7-.1c.1 0 .3-.1.3-.2-.2-.1-.1-.3-.2-.4zM16.9 1c.1 0 .3 0 .4.1.1.1.2.2.2.3l1.6 8.9c0 .1 0 .3-.1.4s-.2.2-.3.2l-.5.1-1.7-9.8.4-.2zm-1.5.5 1.7 9.5-8.4-1.3L8 5.5l7.4-4zm-5.7 14-2.6-4.6.9-.2 1.7 4.8zM7 5.8l.7 3.9-1 .2L6 6l1-.2zM5.2 7.1l.3 2-1 .2-.3-2 1-.2zM3.5 9l.2.9c0 .2.3.4.5.4h.1l1.5-.3.1.5c0 .1 0 .1.1.2l2.3 4.2L2.2 9h1.3zM1 9.5c0-.1 0-.2.1-.2l7.2 7.1L1 22V9.5zM22.5 23H1.4L9 17.1l2 2c.3.2.6.4 1 .4s.7-.1 1-.4l2-2 7.6 5.8c0 .1-.1.1-.1.1zm.5-1-7.3-5.6 7.2-7.1c.1 0 .1.1.1.2V22z"/></svg><svg stroke-width="2" stroke-linecap="round" stroke-linejoin="round" class="ajlucide ajlucide-eye ajw-4 ajh-4 ajtext-gray-400" viewBox="0 0 24 24" id="eye" xmlns="http://www.w3.org/2000/svg"><path d="M2 12s3-7 10-7 10 7 10 7-3 7-10 7-10-7-10-7Z"/><circle cx="12" cy="12" r="3"/></svg><svg viewBox="0 0 512 512" xml:space="preserve" id="facebook" xmlns="http://www.w3.org/2000/svg"><path d="M449.446 0C483.971 0 512 28.03 512 62.554v386.892C512 483.97 483.97 512 449.446 512H342.978V319.085h66.6l12.672-82.621h-79.272v-53.617c0-22.603 11.073-44.636 46.58-44.636H425.6v-70.34s-32.71-5.582-63.982-5.582c-65.288 0-107.96 39.569-107.96 111.204v62.971h-72.573v82.621h72.573V512H62.554C28.03 512 0 483.97 0 449.446V62.554C0 28.03 28.029 0 62.554 0h386.892Z"/></svg><svg viewBox="0 0 502.664 502.664" xml:space="preserve" id="icon" xmlns="http://www.w3.org/2000/svg"><path d="M153.821 358.226 0 274.337v-46.463l153.821-83.414v54.574L46.636 250.523l107.185 53.431v54.272zm26.273 29.358L282.103 115.08h32.227L212.084 387.584h-31.99zm168.749-29.358v-54.272l107.164-52.999-107.164-52.59v-53.927l153.821 83.522v46.183l-153.821 84.083z"/></svg><svg viewBox="0 0 76.161 76.161" xml:space="preserve" id="jobs" xmlns="http://www.w3.org/2000/svg"><path d="M62.943 20.161H13.216v-7.393h49.728v7.393zM13.216 46.369h19.712V26.657H13.216v19.712zm0 11.423h26.88a9.877 9.877 0 0 1-1.792-2.464H13.216v2.464zm0-5.823h23.52c-.224-.896-.672-1.566-.896-2.465H13.216v2.465zm28.448-22.848a16.889 16.889 0 0 1 3.137-2.464h-6.497v2.464h3.36zM13.216 63.393h34.72c-1.567-.672-2.912-1.567-4.479-2.465h-30.24v2.465zm62.72-13.889c-.672 2.912-2.016 5.377-3.584 7.616l3.81 6.72V48.833c-.002.224-.002.448-.226.671zM63.393 72.801l-.449-1.121H8.96a4.493 4.493 0 0 1-4.48-4.479V8.96a4.492 4.492 0 0 1 4.48-4.479H67.2a4.493 4.493 0 0 1 4.479 4.479v21.728c.896.896 1.566 2.019 2.238 3.139 1.12 1.792 1.792 3.584 2.24 5.603V8.96C76.16 4.033 72.128 0 67.2 0H8.96C4.032 0 0 4.033 0 8.96V67.2c0 4.928 4.032 8.96 8.96 8.96h56.448l-.225-.448-1.79-2.911zM40.768 52.865c-4.705-8.288-1.791-19.04 6.496-23.744 8.289-4.704 19.041-1.792 23.743 6.496 4.929 8.288 2.017 19.04-6.271 23.743-8.511 4.929-19.041 2.016-23.968-6.495zm22.4 4.032c6.943-4.033 9.409-12.994 5.376-19.938-4.032-6.942-12.991-9.405-19.937-5.376-6.943 4.034-9.407 12.994-5.375 19.938 4.032 6.944 12.993 9.407 19.936 5.376zm5.825 1.182-7.565 4.367 5.822 10.088 7.566-4.366-5.823-10.089zm-.897 15.841c1.121 2.016 3.811 2.688 5.824 1.568 2.016-1.12 2.688-3.809 1.568-5.824l-7.392 4.256z"/></svg><svg viewBox="0 0 512 512" xml:space="preserve" id="linkedin" xmlns="http://www.w3.org/2000/svg"><path d="M449.446 0C483.971 0 512 28.03 512 62.554v386.892C512 483.97 483.97 512 449.446 512H62.554C28.03 512 0 483.97 0 449.446V62.554C0 28.03 28.029 0 62.554 0h386.892ZM160.461 423.278V197.561h-75.04v225.717h75.04Zm270.539 0V293.839c0-69.333-37.018-101.586-86.381-101.586-39.804 0-57.634 21.891-67.617 37.266v-31.958h-75.021c.995 21.181 0 225.717 0 225.717h75.02V297.222c0-6.748.486-13.492 2.474-18.315 5.414-13.475 17.767-27.434 38.494-27.434 27.135 0 38.007 20.707 38.007 51.037v120.768H431ZM123.448 88.722C97.774 88.722 81 105.601 81 127.724c0 21.658 16.264 39.002 41.455 39.002h.484c26.165 0 42.452-17.344 42.452-39.002-.485-22.092-16.241-38.954-41.943-39.002Z"/></svg><svg stroke-width="2" stroke-linecap="round" stroke-linejoin="round" class="aolucide aolucide-check-circle aow-6 aoh-6 aotext-blue-600 aoflex-shrink-0 aomt-1" viewBox="0 0 24 24" id="list" xmlns="http://www.w3.org/2000/svg"><path d="M22 11.08V12a10 10 0 1 1-5.93-9.14"/><path d="m9 11 3 3L22 4"/></svg><svg version="1.0" viewBox="0 0 24 24" xml:space="preserve" id="marketing" xmlns="http://www.w3.org/2000/svg"><path d="M8.5 5h-4c-.3 0-.5-.2-.5-.5s.2-.5.5-.5h4c.3 0 .5.2.5.5s-.2.5-.5.5zm-2 2h-2c-.3 0-.5-.2-.5-.5s.2-.5.5-.5h2c.3 0 .5.2.5.5s-.2.5-.5.5zm2 12h-4c-.3 0-.5-.2-.5-.5s.2-.5.5-.5h4c.3 0 .5.2.5.5s-.2.5-.5.5zm7 0h-2c-.3 0-.5-.2-.5-.5s.2-.5.5-.5h2c.3 0 .5.2.5.5s-.2.5-.5.5zm-2-14h-3c-.3 0-.5-.2-.5-.5s.2-.5.5-.5h3c.3 0 .5.2.5.5s-.2.5-.5.5z"/><path d="M20.5 4h-1.2l-1.3.5v-3c0-.8-.7-1.5-1.5-1.5h-13C2.7 0 2 .7 2 1.5v21c0 .8.7 1.5 1.5 1.5h13c.8 0 1.5-.7 1.5-1.5v-7l1.3.4h1.2c.8 0 1.5-.7 1.5-1.5v-9c0-.7-.7-1.4-1.5-1.4zM8 1h4v.5c0 .3-.2.5-.5.5h-3c-.3 0-.5-.2-.5-.5V1zM3.5 1H7v.5C7 2.3 7.7 3 8.5 3h3c.8 0 1.5-.7 1.5-1.5V1h3.5c.3 0 .5.2.5.5v3.3L10.4 7H8.5c-.3 0-.5.2-.5.5V8H6.5c-.3 0-.5.2-.5.5V9h-.5C4.7 9 4 9.7 4 10.5v5c0 .8.7 1.5 1.5 1.5h4l.6 1.7c.1.2.3.3.5.3h1c.1 0 .3-.1.4-.2.1-.1.1-.3.1-.4l-.3-1.4h2.7c.8 0 1.5-.7 1.5-1.5v-.6l1 .3V20H3V1.5c0-.3.2-.5.5-.5zm3 11H8v.7L9.1 16H5.5c-.3 0-.5-.2-.5-.5v-5c0-.3.2-.5.5-.5H6v1.5c0 .3.2.5.5.5zm.5-1V9h1v2H7zm2 1V8h1v4H9zm1.1 1 .8 5-1.7-5h.9zm1 .2 3.9 1.3v1c0 .3-.2.5-.5.5h-2.9l-.5-2.8zm5.4 9.8h-13c-.3 0-.5-.2-.5-.5V21h14v1.5c0 .3-.2.5-.5.5zm2.5-8.2-8-2.7V7.9l8-2.7v9.6zm2-.3c0 .3-.2.5-.5.5H20V5h.5c.3 0 .5.2.5.5v9z"/></svg><svg stroke-width="2" stroke-linecap="round" stroke-linejoin="round" class="aqlucide aqlucide-compass aqw-12 aqh-12 aqtext-blue-700 aqmx-auto aqmb-4" viewBox="0 0 24 24" id="naval" xmlns="http://www.w3.org/2000/svg"><circle cx="12" cy="12" r="10"/><path d="m16.24 7.76-2.12 6.36-6.36 2.12 2.12-6.36 6.36-2.12z"/></svg><svg viewBox="0 0 166.781 166.781" xml:space="preserve" id="newsletter" xmlns="http://www.w3.org/2000/svg"><path d="m163.451 70.046-32.35-20.847c-.253-.161-.532-.222-.804-.312v-7.19a3.473 3.473 0 0 0-3.475-3.475H113.92L86.97 21.378a3.47 3.47 0 0 0-3.685 0l-26.95 16.844H39.958a3.473 3.473 0 0 0-3.475 3.475v7.188c-.272.09-.552.152-.804.314L3.329 70.046a3.482 3.482 0 0 0-1.592 2.921v90.339a3.473 3.473 0 0 0 3.475 3.475h156.356a3.473 3.473 0 0 0 3.475-3.475V72.968c0-1.181-.601-2.28-1.592-2.922zM85.128 28.423l15.681 9.799H69.447l15.681-9.799zM43.433 45.171h79.915v78.178c0 .01.006.018.006.029l-11.754 7.137-28.284-15.427a3.483 3.483 0 0 0-3.386.034l-25.81 14.749-10.692-6.492c0-.01.006-.018.006-.028l-.001-78.18zM8.687 74.861l27.796-17.91v62.212L8.687 102.285V74.861zm0 35.551 38.537 23.397-38.537 22.022v-45.419zm7.002 49.421 66.005-37.715 69.145 37.715H15.689zm142.405-3.959L118.65 134.36l39.444-23.949v45.463zm0-53.589-27.797 16.877V56.951l27.797 17.911v27.423z"/><path d="M57.331 79.917h41.695a3.473 3.473 0 0 0 3.475-3.475V55.595a3.473 3.473 0 0 0-3.475-3.475H57.331a3.473 3.473 0 0 0-3.475 3.475v20.847a3.473 3.473 0 0 0 3.475 3.475zm3.474-20.848h34.746v13.898H60.805V59.069zm-6.949 27.797h55.593v6.949H53.856zm0 13.899h55.593v6.949H53.856zm93.814-59.068c.889 0 1.778-.339 2.457-1.018l12.283-12.283a3.473 3.473 0 1 0-4.913-4.913l-12.283 12.283a3.473 3.473 0 0 0 2.456 5.931zM16.654 40.679a3.463 3.463 0 0 0 2.457 1.018 3.473 3.473 0 0 0 2.457-5.931L9.284 23.483a3.473 3.473 0 1 0-4.913 4.913l12.283 12.283zm101.93-16.603a3.474 3.474 0 0 0 4.516-1.938l6.949-17.373a3.475 3.475 0 0 0-6.453-2.579l-6.949 17.373a3.475 3.475 0 0 0 1.937 4.517zm-71.429-1.937a3.472 3.472 0 0 0 4.516 1.937 3.475 3.475 0 0 0 1.937-4.516L46.659 2.187a3.475 3.475 0 0 0-6.453 2.579l6.949 17.373z"/></svg><svg stroke-width="2" stroke-linecap="round" stroke-linejoin="round" class="aslucide aslucide-building asw-12 ash-12 astext-blue-700 asmx-auto asmb-4" viewBox="0 0 24 24" id="office" xmlns="http://www.w3.org/2000/svg"><rect width="16" height="20" x="4" y="2" rx="2" ry="2"/><path d="M9 22v-4h6v4M8 6h.01M16 6h.01M12 6h.01M12 10h.01M12 14h.01M16 10h.01M16 14h.01M8 10h.01M8 14h.01"/></svg><svg stroke-width="2" stroke-linecap="round" stroke-linejoin="round" class="atlucide atlucide-smartphone atw-12 ath-12 attext-blue-700 atmb-4 atmx-auto" viewBox="0 0 24 24" id="phone" xmlns="http://www.w3.org/2000/svg"><rect width="14" height="20" x="5" y="2" rx="2" ry="2"/><path d="M12 18h.01"/></svg><svg stroke-width="2" stroke-linecap="round" stroke-linejoin="round" class="aulucide aulucide-map-pin auw-8 auh-8 autext-blue-600 aumb-3" viewBox="0 0 24 24" id="pin" xmlns="http://www.w3.org/2000/svg"><path d="M20 10c0 6-8 12-8 12s-8-6-8-12a8 8 0 0 1 16 0Z"/><circle cx="12" cy="10" r="3"/></svg><svg viewBox="0 0 24 24" id="podcast" xmlns="http://www.w3.org/2000/svg"><path fill-rule="evenodd" clip-rule="evenodd" d="M3 12a9 9 0 0 1 18 0 8.97 8.97 0 0 1-2.636 6.364 1 1 0 1 0 1.414 1.414A10.969 10.969 0 0 0 23 12c0-6.075-4.925-11-11-11S1 5.925 1 12c0 3.037 1.232 5.789 3.222 7.778a1 1 0 0 0 1.414-1.414A8.969 8.969 0 0 1 3 12Zm4 0a5 5 0 1 1 8.536 3.536 1 1 0 0 0 1.414 1.414 7 7 0 1 0-9.9 0 1 1 0 1 0 1.414-1.414A4.981 4.981 0 0 1 7 12Zm7.5 0a2.5 2.5 0 1 1-5 0 2.5 2.5 0 0 1 5 0Zm-4.827 5.494a2.332 2.332 0 1 1 4.654 0l-.322 4.636a2.01 2.01 0 0 1-4.01 0l-.322-4.636Z"/></svg><svg stroke-width="2" stroke-linecap="round" stroke-linejoin="round" class="awlucide awlucide-rocket aww-5 awh-5" viewBox="0 0 24 24" id="rocket" xmlns="http://www.w3.org/2000/svg"><path d="M4.5 16.5c-1.5 1.26-2 5-2 5s3.74-.5 5-2c.71-.84.7-2.13-.09-2.91a2.18 2.18 0 0 0-2.91-.09zM12 15l-3-3a22 22 0 0 1 2-3.95A12.88 12.88 0 0 1 22 2c0 2.72-.78 7.5-6 11a22.35 22.35 0 0 1-4 2z"/><path d="M9 12H4s.55-3.03 2-4c1.62-1.08 5 0 5 0m1 7v5s3.03-.55 4-2c1.08-1.62 0-5 0-5"/></svg><svg viewBox="0 0 512 512" id="roi" xmlns="http://www.w3.org/2000/svg"><path d="M149.858 313.349 133.082 296.6 56 373.564l33.55 33.499 77.083-76.964-16.775-16.75Zm0 0 40.766-40.578m0 0c23.161 22.671 54.888 36.65 89.885 36.65 70.918 0 128.408-57.402 128.408-128.21C408.917 110.402 351.427 53 280.509 53c-70.918 0-128.408 57.402-128.408 128.211 0 35.865 14.75 68.291 38.523 91.56ZM406.777 459H456V307.284h-49.223V459Zm0 0h-51.363m0 0V358.568h-49.223V459m49.223 0h-49.223m0 0h-49.223m0 0h-51.364v-51.284h51.364V459Zm5.923-263.5c0 6.904 5.614 12.5 12.54 12.5h5.016m15.049-37.5c0-6.904-5.615-12.5-12.54-12.5h-3.763m0 0h-3.762c-6.926 0-12.54 5.596-12.54 12.5s5.614 12.5 12.54 12.5h10.033c6.926 0 12.54 5.596 12.54 12.5s-5.614 12.5-12.54 12.5h-5.017m-1.254-50v-15m1.254 65v15m60.195-40c0 33.137-26.95 60-60.195 60-33.244 0-60.194-26.863-60.194-60s26.95-60 60.194-60c33.245 0 60.195 26.863 60.195 60Z"/></svg><svg stroke-width="2" stroke-linecap="round" stroke-linejoin="round" class="aylucide aylucide-anchor ayw-12 ayh-12 aytext-blue-700 aymx-auto aymb-4" viewBox="0 0 24 24" id="ship" xmlns="http://www.w3.org/2000/svg"><path d="M12 22V8m-7 4H2a10 10 0 0 0 20 0h-3"/><circle cx="12" cy="5" r="3"/></svg><svg stroke-width="2" stroke-linecap="round" stroke-linejoin="round" class="azlucide azlucide-wrench azw-12 azh-12 aztext-blue-700 azmx-auto azmb-4" viewBox="0 0 24 24" id="shipbuilding" xmlns="http://www.w3.org/2000/svg"><path d="M14.7 6.3a1 1 0 0 0 0 1.4l1.6 1.6a1 1 0 0 0 1.4 0l3.77-3.77a6 6 0 0 1-7.94 7.94l-6.91 6.91a2.12 2.12 0 0 1-3-3l6.91-6.91a6 6 0 0 1 7.94-7.94l-3.76 3.76z"/></svg><svg viewBox="0 0 76.609 76.609" xml:space="preserve" id="social-media" xmlns="http://www.w3.org/2000/svg"><path d="M57.455 16.575c0 1.12 1.121 2.24 2.688 2.24 2.239 0 2.911-.896 2.911-2.24v-.447c-.223-.672-.896-1.12-1.566-1.568-.225 0-.672-.224-1.119-.224-1.57.001-2.914.896-2.914 2.239zm4.705-7.392c-.226-1.344-1.121-2.464-2.24-2.464-1.121 0-1.793 1.12-1.567 2.464.226 1.344 1.119 2.464 2.239 2.464.896 0 1.791-1.12 1.568-2.464z"/><path d="m52.08 25.983 3.808-3.808c2.239 1.792 4.93 2.912 7.841 2.912a12.525 12.525 0 0 0 12.544-12.544A12.525 12.525 0 0 0 63.728 0c-6.942 0-12.544 5.6-12.544 12.544 0 3.136 1.119 5.823 2.912 7.84l-3.809 3.809c.672.671 1.344 1.344 1.793 1.79zM65.744 8.511h2.463V6.048h.896v2.464h2.465v.896h-2.465v2.465h-.896V9.407h-2.463v-.896zm-5.6 4.256c0-.224 0-.448.226-.672h-.447c-1.793 0-3.137-1.344-3.137-2.912s1.791-2.912 3.584-2.912h4.03l-.896.672H62.16c.896.225 1.344 1.345 1.344 2.464 0 .896-.448 1.568-1.121 2.24-.672.448-.896.672-.896 1.12 0 .448.673 1.12 1.12 1.344 1.119.672 1.344 1.568 1.344 2.688 0 1.567-1.344 2.912-4.031 2.912-2.239 0-4.256-.896-4.256-2.464s1.791-2.912 4.031-2.912h.672c0-.671-.223-1.119-.223-1.568zm3.584 38.753c-2.911 0-5.823 1.119-7.841 2.912l-3.807-3.809c-.449.672-1.121 1.118-1.568 1.566l3.809 3.809c-1.792 2.238-2.912 4.929-2.912 7.841a12.526 12.526 0 0 0 12.545 12.544 12.526 12.526 0 0 0 12.545-12.544c-.228-6.944-5.827-12.319-12.771-12.319zm-3.584 18.144H57.68v-7.841h2.464v7.841zm-1.12-8.959c-.896 0-1.567-.673-1.567-1.346 0-.672.672-1.344 1.567-1.344s1.567.672 1.567 1.344c-.224.897-.671 1.346-1.567 1.346zm11.2 8.959h-2.912v-4.031c0-1.119-.447-1.792-1.345-1.792-.672 0-1.119.448-1.344.896v4.93h-2.688v-7.841h2.688v1.12c.225-.447 1.121-1.344 2.465-1.344 1.791 0 3.136 1.119 3.136 3.584v4.478zm-45.92-19.039-3.808 3.809c-2.24-1.793-4.928-2.912-7.84-2.912A12.524 12.524 0 0 0 .112 64.065c0 6.944 5.6 12.545 12.544 12.545A12.525 12.525 0 0 0 25.2 64.065c0-2.912-1.12-5.823-2.912-7.84l3.808-3.809a726.787 726.787 0 0 0-1.792-1.791zm-6.271 11.423c0 3.808-2.912 8.063-8.064 8.063-1.567 0-3.136-.448-4.256-1.346h.672c1.344 0 2.464-.447 3.584-1.119-1.12 0-2.24-.896-2.688-2.017h1.12c-1.345-.226-2.24-1.344-2.24-2.688.448.225.896.447 1.344.447-.672-.447-1.344-1.344-1.344-2.24 0-.446.224-.896.448-1.344 1.344 1.793 3.359 2.912 5.823 2.912v-.672c0-1.568 1.345-2.912 2.912-2.912.896 0 1.568.447 2.017.896.672-.225 1.344-.448 1.792-.672-.225.672-.673 1.119-1.345 1.566.672 0 1.12-.225 1.568-.447-.448.672-.896 1.119-1.344 1.344l.001.229zm-5.377-36.96c2.912 0 5.823-1.12 7.84-2.912l3.808 3.808c.448-.672 1.12-1.119 1.568-1.567l-3.809-3.808c1.792-2.24 2.912-4.928 2.912-7.84 0-6.944-5.6-12.544-12.544-12.544C5.488.225.112 5.825.112 12.769c0 6.718 5.6 12.319 12.544 12.319zM9.744 10.527h1.344V9.183c0-1.792.672-2.912 2.912-2.912h1.792v2.24h-1.12c-.896 0-.896.224-.896.896v1.12h2.016l-.224 2.24H13.55v6.272h-2.688v-6.272H9.519v-2.24h.225zm39.873 34.048c-.226-.446-.673-.673-.896-.673-2.016-.672-3.807-1.118-5.823-1.791-.224 0-.672-.447-.672-1.344 0-.449 0-.673-.447-.673-.226 0 0 0-.226-.224-.223-.896-.223-1.345-.223-1.568 0-.223.223-.225.223-.448.673-.896.896-2.239.896-2.688 0 0 .225 0 .225-.225.224-.448.224-.448.224-1.121.226-.446.226-1.118-.224-1.118-.225.224-.225 0-.225-.448v-2.688c0-.896-.673-1.567-1.119-1.791-.674-.449-.896-.673-1.121-.673-.225-.224-.225-.448 0-.672.224-.223.447-.223.447-.448h-.225c-.225 0-1.567.226-2.239.448-1.12.224-2.24.672-3.137 1.345-.672.447-1.12 1.119-1.12 2.017v2.688c0 .226 0 .448-.224.226-.672 0-.224.896-.224 1.118 0 .448.224.673.447 1.121 0 .225.225.225.225.225.224.672.448 2.016.896 2.688 0 0 .225.225.225.448 0 .448 0 1.12-.225 1.568 0 0 0 .225-.224.225-.448 0-.448.224-.448.672 0 .672-.448 1.345-.672 1.345-1.12.446-4.479 1.567-5.6 1.791-.672.226-.896.448-1.12.672l-1.12 2.688c4.479 0 6.72 2.688 11.424 3.584h2.24c4.704-.672 8.063-3.584 11.2-3.584l-1.118-2.692z"/></svg><svg stroke-width="2" stroke-linecap="round" stroke-linejoin="round" class="bblucide bblucide-trending-up bbw-8 bbh-8 bbtext-emerald-600 bbmb-3" viewBox="0 0 24 24" id="static" xmlns="http://www.w3.org/2000/svg"><path d="m22 7-8.5 8.5-5-5L2 17"/><path d="M16 7h6v6"/></svg><svg viewBox="0 0 512 512" xml:space="preserve" id="tablet" xmlns="http://www.w3.org/2000/svg"><path d="M405.553 0H106.447C85.266 0 68.035 17.232 68.035 38.412v435.175c0 21.18 17.231 38.412 38.412 38.412h299.106c21.181 0 38.412-17.232 38.412-38.412V38.412C443.965 17.232 426.734 0 405.553 0zm19.995 473.588c0 11.025-8.97 19.995-19.995 19.995H106.447c-11.025 0-19.995-8.97-19.995-19.995V38.412c0-11.025 8.969-19.995 19.995-19.995h299.106c11.025 0 19.995 8.97 19.995 19.995v435.176z"/><path d="M401.407 33.35H110.593a9.208 9.208 0 0 0-9.209 9.209v426.883a9.208 9.208 0 0 0 9.209 9.209h290.814a9.208 9.208 0 0 0 9.209-9.209V42.559a9.209 9.209 0 0 0-9.209-9.209zM246.791 460.233h-126.99v-52.285h126.99v52.285zm145.407 0h-126.99v-52.285h126.99v52.285zm0-70.703H119.802V51.767h272.396V389.53z"/><path d="M353.383 103.386H158.618a9.208 9.208 0 0 0-9.209 9.209 9.208 9.208 0 0 0 9.209 9.209h194.765a9.208 9.208 0 0 0 9.209-9.209 9.208 9.208 0 0 0-9.209-9.209zm0 53.36H158.618a9.208 9.208 0 0 0-9.209 9.209 9.208 9.208 0 0 0 9.209 9.209h194.765a9.208 9.208 0 0 0 9.209-9.209 9.208 9.208 0 0 0-9.209-9.209zm0 53.361H158.618c-5.087 0-9.209 4.123-9.209 9.209s4.122 9.209 9.209 9.209h194.765c5.087 0 9.209-4.123 9.209-9.209s-4.122-9.209-9.209-9.209zm0 106.72H158.618c-5.087 0-9.209 4.123-9.209 9.209s4.122 9.209 9.209 9.209h194.765c5.087 0 9.209-4.123 9.209-9.209s-4.122-9.209-9.209-9.209zm0-53.361H158.618c-5.087 0-9.209 4.123-9.209 9.209s4.122 9.209 9.209 9.209h194.765c5.087 0 9.209-4.123 9.209-9.209s-4.122-9.209-9.209-9.209zM195.575 424.881h-24.556a9.208 9.208 0 0 0-9.209 9.209 9.208 9.208 0 0 0 9.209 9.209h24.556a9.208 9.208 0 0 0 9.209-9.209 9.209 9.209 0 0 0-9.209-9.209zm145.406 0h-24.556a9.208 9.208 0 0 0-9.209 9.209 9.208 9.208 0 0 0 9.209 9.209h24.556a9.208 9.208 0 0 0 9.209-9.209 9.208 9.208 0 0 0-9.209-9.209z"/></svg><svg stroke-width="2" stroke-linecap="round" stroke-linejoin="round" class="bdlucide bdlucide-clock bdw-4 bdh-4 bdtext-gray-400" viewBox="0 0 24 24" id="time" xmlns="http://www.w3.org/2000/svg"><circle cx="12" cy="12" r="10"/><path d="M12 6v6l4 2"/></svg><svg viewBox="0 0 512 512" xml:space="preserve" id="tv" xmlns="http://www.w3.org/2000/svg"><path d="M504.374 20.104H69.654a7.626 7.626 0 0 0-7.626 7.626 7.625 7.625 0 0 0 7.626 7.626h427.094v275.298H15.252V27.73a7.625 7.625 0 0 0-7.626-7.626A7.626 7.626 0 0 0 0 27.73v332.492a7.625 7.625 0 0 0 7.626 7.626h189.781l-3.586 20.3a7.626 7.626 0 0 0 6.183 8.836 7.624 7.624 0 0 0 8.836-6.183l3.921-22.191h84.382l14.132 79.983H198.628l2.875-16.274a7.626 7.626 0 0 0-6.183-8.836 7.626 7.626 0 0 0-8.837 6.183l-3.344 18.926h-35.194a7.626 7.626 0 0 0-7.626 7.626v28.051a7.625 7.625 0 0 0 7.626 7.626h217.592a7.625 7.625 0 0 0 7.626-7.626v-28.051a7.625 7.625 0 0 0-7.626-7.626h-38.775l-14.267-80.745h191.879a7.626 7.626 0 0 0 7.626-7.626V27.73a7.626 7.626 0 0 0-7.626-7.626zM320.365 463.845h37.546v12.799h-202.34v-12.799h164.794zm176.383-111.248H15.252v-26.692h481.496v26.692z"/><path d="m305.894 166.792-69.897-49.724a7.626 7.626 0 0 0-12.047 6.214v99.448a7.624 7.624 0 0 0 12.047 6.213l69.897-49.723a7.626 7.626 0 0 0 0-12.428zm-66.691 41.153v-69.88l49.116 34.94-49.116 34.94z"/><path d="M254.709 73.099a7.626 7.626 0 0 0-7.626 7.626 7.625 7.625 0 0 0 7.626 7.626c46.679 0 84.654 37.976 84.654 84.654s-37.976 84.654-84.654 84.654c-46.679 0-84.654-37.976-84.654-84.654 0-31.154 17.044-59.715 44.483-74.536a7.627 7.627 0 0 0-7.249-13.419c-32.374 17.488-52.486 51.191-52.486 87.955 0 55.088 44.818 99.906 99.906 99.906s99.906-44.818 99.906-99.906-44.818-99.906-99.906-99.906z"/></svg><svg xml:space="preserve" viewBox="0 0 24 24" id="twitter" xmlns="http://www.w3.org/2000/svg"><path d="M12.154 10.73 8.089 5.04H5.92l5.036 7.046.634.886 4.31 6.037h2.169l-5.284-7.394z"/><path d="M21.16 1H2.84A1.84 1.84 0 0 0 1 2.84v18.32A1.84 1.84 0 0 0 2.84 23h18.32A1.84 1.84 0 0 0 23 21.16V2.84A1.84 1.84 0 0 0 21.16 1zm-5.925 19-4.362-6.213L5.41 20H4l6.247-7.105L4 4h4.765l4.13 5.882L18.07 4h1.411l-5.957 6.776L20 20h-4.765z"/></svg><svg viewBox="0 0 24 24" id="users" xmlns="http://www.w3.org/2000/svg"><path d="M15.8 21a.7.7 0 1 0 1.4 0h-1.4Zm-11 0a.7.7 0 1 0 1.4 0H4.8Zm1.4-3a.7.7 0 1 0-1.4 0h1.4Zm6.1 3a.7.7 0 1 0 1.4 0h-1.4Zm1.4-3a.7.7 0 1 0-1.4 0h1.4Zm-1.957-6.688-.393-.579.393.58Zm4.5 0-.393-.579.393.58ZM3.2 21v-1.5H1.8V21h1.4ZM8 14.7h3v-1.4H8v1.4Zm7.8 4.8V21h1.4v-1.5h-1.4ZM11 14.7a4.8 4.8 0 0 1 4.8 4.8h1.4a6.2 6.2 0 0 0-6.2-6.2v1.4Zm-7.8 4.8A4.8 4.8 0 0 1 8 14.7v-1.4a6.2 6.2 0 0 0-6.2 6.2h1.4Zm7.8-4.8h4.5v-1.4H11v1.4Zm9.3 4.8V21h1.4v-1.5h-1.4Zm-4.8-4.8a4.8 4.8 0 0 1 4.8 4.8h1.4a6.2 6.2 0 0 0-6.2-6.2v1.4ZM6.2 21v-3H4.8v3h1.4Zm7.5 0v-3h-1.4v3h1.4Zm-4.2-9.7A3.3 3.3 0 0 1 6.2 8H4.8a4.7 4.7 0 0 0 4.7 4.7v-1.4ZM6.2 8a3.3 3.3 0 0 1 3.3-3.3V3.3A4.7 4.7 0 0 0 4.8 8h1.4Zm3.3-3.3A3.3 3.3 0 0 1 12.8 8h1.4a4.7 4.7 0 0 0-4.7-4.7v1.4ZM12.8 8a3.296 3.296 0 0 1-1.45 2.733l.786 1.159A4.696 4.696 0 0 0 14.2 8h-1.4Zm-1.45 2.733a3.282 3.282 0 0 1-1.85.567v1.4c.976 0 1.884-.298 2.636-.808l-.786-1.159ZM14 4.7A3.3 3.3 0 0 1 17.3 8h1.4A4.7 4.7 0 0 0 14 3.3v1.4ZM17.3 8a3.296 3.296 0 0 1-1.45 2.733l.786 1.159A4.696 4.696 0 0 0 18.7 8h-1.4Zm-1.45 2.733A3.282 3.282 0 0 1 14 11.3v1.4c.976 0 1.884-.298 2.636-.808l-.786-1.159Zm-3.912-5.31A3.283 3.283 0 0 1 14 4.7V3.3c-1.11 0-2.133.386-2.938 1.031l.876 1.092ZM14 11.3a3.282 3.282 0 0 1-1.85-.567l-.786 1.159c.752.51 1.66.808 2.636.808v-1.4Z"/></svg><svg data-name="Layer 1" viewBox="0 0 32 32" id="website" xmlns="http://www.w3.org/2000/svg"><path d="M16 30a14 14 0 1 1 14-14 14 14 0 0 1-14 14Zm0-26a12 12 0 1 0 12 12A12 12 0 0 0 16 4Z"/><path d="M16 30a1 1 0 0 1-1-1V3a1 1 0 0 1 2 0v26a1 1 0 0 1-1 1Z"/><path d="M23 17a1 1 0 0 1-1-1c0-6.5-2.75-12-6-12a1 1 0 0 1 0-2c4.49 0 8 6.15 8 14a1 1 0 0 1-1 1Z"/><path d="M16 30a1 1 0 0 1 0-2c3.25 0 6-5.5 6-12a1 1 0 0 1 2 0c0 7.85-3.51 14-8 14ZM9 17a1 1 0 0 1-1-1c0-7.85 3.51-14 8-14a1 1 0 0 1 0 2c-3.25 0-6 5.5-6 12a1 1 0 0 1-1 1Z"/><path d="M16 30c-4.49 0-8-6.15-8-14a1 1 0 0 1 2 0c0 6.5 2.75 12 6 12a1 1 0 0 1 0 2Z"/><path d="M29 17H3a1 1 0 0 1 0-2h26a1 1 0 0 1 0 2Zm-2-6H5a1 1 0 0 1 0-2h22a1 1 0 0 1 0 2Zm0 12H5a1 1 0 0 1 0-2h22a1 1 0 0 1 0 2Z"/></svg><svg viewBox="0 0 512 512" xml:space="preserve" id="youtube" xmlns="http://www.w3.org/2000/svg"><path d="M449.446 0C483.971 0 512 28.03 512 62.554v386.892C512 483.97 483.97 512 449.446 512H62.554C28.03 512 0 483.97 0 449.446V62.554C0 28.03 28.029 0 62.554 0h386.892Zm-20.967 175.63c-4.139-15.489-16.337-27.687-31.826-31.826C368.575 136.28 256 136.28 256 136.28s-112.575 0-140.653 7.524c-15.486 4.139-27.686 16.337-31.826 31.826C76 203.705 76 262.282 76 262.282s0 58.576 7.521 86.648c4.14 15.489 16.34 27.69 31.826 31.829C143.425 388.28 256 388.28 256 388.28s112.575 0 140.653-7.521c15.489-4.139 27.687-16.34 31.826-31.829C436 320.858 436 262.282 436 262.282s0-58.577-7.521-86.652ZM219.998 316.283V208.281l93.53 54.001-93.53 54.001Z"/></svg></svg>