<?xml version="1.0" encoding="utf-8"?>
<!-- Generator: Adobe Illustrator 26.0.2, SVG Export Plug-In . SVG Version: 6.00 Build 0)  -->
<svg version="1.1" id="Layer_1" xmlns="http://www.w3.org/2000/svg" xmlns:xlink="http://www.w3.org/1999/xlink" x="0px" y="0px"
	 viewBox="0 0 1920 529.77" style="enable-background:new 0 0 1920 529.77;" xml:space="preserve">
<style type="text/css">
	.st0{fill:url(#SVGID_1_);}
	.st1{fill:url(#SVGID_00000013913155696761124860000006558845601464219009_);}
	.st2{fill:#6DA6EF;}
</style>
<g>
	<linearGradient id="SVGID_1_" gradientUnits="userSpaceOnUse" x1="510.0898" y1="625.9208" x2="105.4735" y2="-15.609">
		<stop  offset="0" style="stop-color:#4062F2"/>
		<stop  offset="0.1441" style="stop-color:#436AF2"/>
		<stop  offset="0.3731" style="stop-color:#4D81F3"/>
		<stop  offset="0.6585" style="stop-color:#5CA7F5"/>
		<stop  offset="0.9864" style="stop-color:#71DBF7"/>
		<stop  offset="1" style="stop-color:#72DDF7"/>
	</linearGradient>
	<path class="st0" d="M285.65,0L60.58,230.83h47.21v188.01c5.52,3.89,11.33,7.46,17.39,10.67c29.75,15.88,65.56,23.92,106.46,23.92
		c4.87,0,9.84-0.12,14.75-0.36c16.62-0.76,33.92-2.9,51.39-6.32c55.58-10.94,109.27-34.19,151.2-65.46
		c4.62-3.44,9.13-7.01,13.39-10.61c0.39-0.33,0.76-0.66,1.14-0.99V230.83h47.21L285.65,0z M267.74,395.72h-81.57v-81.57h81.57
		V395.72z M267.74,282.71h-81.57v-81.56h81.57V282.71z M385.13,395.72h-81.56v-81.57h81.56V395.72z M385.13,282.71h-81.56v-81.56
		h81.56V282.71z M510.23,437.57c-9.28,8.51-18.84,16.2-28.52,23.2c-4.93,3.59-9.9,6.97-14.89,10.16c-1.11,0.7-2.2,1.41-3.3,2.09
		c-8.76,5.5-17.58,10.46-26.4,14.93c-11.14,5.68-22.27,10.6-33.2,14.83c-9.87,3.86-19.58,7.15-29.03,9.96
		c-1.91,0.6-3.8,1.15-5.7,1.66c-13.44,3.81-26.31,6.7-38.22,8.86c-2.91,0.52-5.76,1.02-8.54,1.45c-2.81,0.46-5.56,0.87-8.22,1.26
		c-1.79,0.24-3.54,0.45-5.26,0.69c-20.64,2.63-36.89,3.11-46.16,3.11c-3.41,0-5.86-0.06-7.27-0.12
		c-24.02-0.81-77.16-2.6-129.83-26.86c-4.87-2.23-9.75-4.66-14.59-7.32c-1.11-0.6-2.21-1.23-3.32-1.85
		c-3.15-1.78-6.28-3.66-9.4-5.65c-9.87-6.23-19.51-13.45-28.75-21.78c-2.71-2.42-5.37-4.95-7.98-7.56
		C-18.91,378.03,4.65,270.91,7.96,256.98c-0.9,26.31-0.3,110.26,61.68,169.19c3.72,3.51,7.65,6.97,11.82,10.3
		c8.31,6.64,17.1,12.51,26.32,17.62c1.09,0.61,2.21,1.23,3.32,1.81c35.64,19.01,77.31,27.43,120.53,27.43
		c5.4,0,10.76-0.13,16.14-0.39c18.52-0.85,37.24-3.23,55.77-6.86c58.6-11.54,115.55-36.1,159.96-68.37c1.11-0.79,2.21-1.61,3.3-2.42
		c5.16-3.84,10.12-7.77,14.89-11.81c3.27-2.77,6.46-5.59,9.54-8.46c17.62-16.31,98.35-91.04,79.14-179.47
		c-9.94-45.73-42.36-75.39-60.66-89.5c18.01,11.05,80.24,52.3,92.96,125.66C619.36,337.78,537.77,412.37,510.23,437.57z"/>
	<g>
		
			<linearGradient id="SVGID_00000103235281640449512290000008422183027588791206_" gradientUnits="userSpaceOnUse" x1="712.9597" y1="357.013" x2="2224.2661" y2="7.2892">
			<stop  offset="0" style="stop-color:#4768F4"/>
			<stop  offset="0.1488" style="stop-color:#4A70F4"/>
			<stop  offset="0.3854" style="stop-color:#5387F5"/>
			<stop  offset="0.6801" style="stop-color:#60ADF6"/>
			<stop  offset="0.9962" style="stop-color:#72DDF7"/>
		</linearGradient>
		<path style="fill:url(#SVGID_00000103235281640449512290000008422183027588791206_);" d="M699.03,238.52h39.93
			c0.63,3.91,2.46,7.32,5.49,10.22c3.03,2.9,7.1,5.14,12.21,6.72c5.11,1.58,11.13,2.37,18.07,2.37c9.59,0,17.16-1.23,22.71-3.69
			c5.55-2.46,8.33-6.09,8.33-10.88c0-3.66-1.58-6.5-4.73-8.52c-3.16-2.02-9.21-3.47-18.17-4.35l-26.5-2.46
			c-19.56-1.77-33.75-6.21-42.58-13.34c-8.83-7.13-13.25-16.75-13.25-28.86c0-9.84,2.87-18.17,8.61-24.98
			c5.74-6.81,13.82-11.95,24.23-15.42c10.41-3.47,22.55-5.2,36.43-5.2c13.62,0,25.74,1.93,36.34,5.77
			c10.6,3.85,19.02,9.31,25.27,16.37c6.25,7.07,9.62,15.27,10.13,24.6H801.8c-0.51-3.41-2.11-6.34-4.83-8.8
			c-2.71-2.46-6.4-4.35-11.07-5.68c-4.67-1.33-10.28-1.99-16.84-1.99c-8.83,0-15.84,1.17-21.01,3.5c-5.17,2.34-7.76,5.77-7.76,10.31
			c0,3.28,1.54,5.93,4.64,7.95c3.09,2.02,8.67,3.41,16.75,4.17l28.2,2.84c13.5,1.26,24.29,3.44,32.36,6.53
			c8.07,3.09,13.94,7.35,17.6,12.77c3.66,5.43,5.49,12.18,5.49,20.25c0,9.97-2.97,18.64-8.9,26.03
			c-5.93,7.38-14.26,13.12-24.98,17.22c-10.73,4.1-23.22,6.15-37.47,6.15c-14.64,0-27.54-2.05-38.7-6.15
			c-11.17-4.1-19.91-9.9-26.21-17.41C702.75,257.04,699.41,248.36,699.03,238.52z M865.01,285.08V143.13H904v110.72l-10.41-8.14
			l80.44-102.58h41.45L900.4,285.08H865.01z M932.77,217.32l28.77-23.85l55.83,91.6h-44.48L932.77,217.32z M1017.55,143.13h43.53
			l51.48,65.49h-17.6l51.29-65.49h43.53l-73.43,93.31l-25.17,0.38L1017.55,143.13z M1084.18,285.08v-69.08h39.37v69.08H1084.18z
			 M1199.3,238.52h39.94c0.63,3.91,2.46,7.32,5.49,10.22c3.03,2.9,7.1,5.14,12.21,6.72c5.11,1.58,11.13,2.37,18.07,2.37
			c9.59,0,17.16-1.23,22.71-3.69c5.55-2.46,8.33-6.09,8.33-10.88c0-3.66-1.58-6.5-4.73-8.52c-3.16-2.02-9.21-3.47-18.17-4.35
			l-26.5-2.46c-19.56-1.77-33.75-6.21-42.58-13.34c-8.83-7.13-13.25-16.75-13.25-28.86c0-9.84,2.87-18.17,8.61-24.98
			c5.74-6.81,13.82-11.95,24.23-15.42c10.41-3.47,22.55-5.2,36.43-5.2c13.63,0,25.74,1.93,36.34,5.77
			c10.6,3.85,19.02,9.31,25.27,16.37c6.24,7.07,9.62,15.27,10.13,24.6h-39.75c-0.51-3.41-2.11-6.34-4.83-8.8
			c-2.71-2.46-6.41-4.35-11.07-5.68c-4.67-1.33-10.28-1.99-16.85-1.99c-8.83,0-15.84,1.17-21.01,3.5
			c-5.17,2.34-7.76,5.77-7.76,10.31c0,3.28,1.55,5.93,4.64,7.95c3.09,2.02,8.67,3.41,16.75,4.17l28.2,2.84
			c13.5,1.26,24.29,3.44,32.36,6.53c8.07,3.09,13.94,7.35,17.6,12.77c3.66,5.43,5.49,12.18,5.49,20.25c0,9.97-2.97,18.64-8.89,26.03
			c-5.93,7.38-14.26,13.12-24.98,17.22c-10.73,4.1-23.22,6.15-37.47,6.15c-14.64,0-27.54-2.05-38.7-6.15
			c-11.16-4.1-19.9-9.9-26.21-17.41C1203.02,257.04,1199.67,248.36,1199.3,238.52z M1365.28,143.13h39.18v141.95h-39.18V143.13z
			 M1387.23,195.55h105.99v34.83h-105.99V195.55z M1476.94,143.13h39.37v141.95h-39.37V143.13z M1542.8,143.13h39.18v141.95h-39.18
			V143.13z M1740.01,257.63l-12.11,2.46V143.13h38.04v141.95h-49.4L1634.6,168.3l11.92-2.46v119.24h-38.04V143.13h50.72
			L1740.01,257.63z M1836.54,214.1l-9.27,56.97l-15.9-17.79H1920v31.8h-131.92l10.79-70.97l-10.79-70.97h130.97v31.8h-107.69
			l15.9-17.79L1836.54,214.1z M1913.76,199.91v28.39h-103.9v-28.39H1913.76z"/>
		<g>
			<path class="st2" d="M795.6,409.62h-4.98l22.9-69.69h13.74l-25.29,74.67h-16.73l-25.19-68.4h6.17l-25.19,68.4h-16.73
				l-25.29-74.67h13.84l22.8,69.69l-4.78-0.1l25.19-69.59h14.24L795.6,409.62z"/>
			<path class="st2" d="M837.02,339.93h13.14v74.67h-13.14V339.93z"/>
			<path class="st2" d="M936.08,406.63l-5.38,0.6v-67.3h12.75v74.67h-16.73l-52.37-67.3l5.28-0.6v67.9h-12.74v-74.67h17.12
				L936.08,406.63z"/>
			<path class="st2" d="M993.92,339.93c8.49,0,15.94,1.56,22.35,4.68c6.4,3.12,11.4,7.48,14.98,13.09
				c3.58,5.61,5.38,12.13,5.38,19.56s-1.79,13.96-5.38,19.56c-3.58,5.61-8.58,9.97-14.98,13.09c-6.4,3.12-13.86,4.68-22.35,4.68
				h-33.75v-74.67H993.92z M973.31,410.01l-7.27-6.97h28.77c5.71,0,10.7-1.08,14.98-3.23c4.28-2.16,7.6-5.18,9.96-9.06
				c2.36-3.88,3.53-8.38,3.53-13.49c0-5.18-1.18-9.69-3.53-13.54c-2.36-3.85-5.67-6.85-9.96-9.01c-4.28-2.16-9.27-3.24-14.98-3.24
				h-28.77l7.27-6.97V410.01z"/>
			<path class="st2" d="M1088.2,415.99c-8.5,0-15.96-1.62-22.4-4.88c-6.44-3.25-11.45-7.78-15.03-13.59
				c-3.58-5.81-5.38-12.56-5.38-20.26c0-7.7,1.79-14.45,5.38-20.26c3.58-5.81,8.6-10.34,15.03-13.59c6.44-3.25,13.9-4.88,22.4-4.88
				c8.5,0,15.96,1.63,22.4,4.88c6.44,3.25,11.45,7.78,15.03,13.59c3.58,5.81,5.38,12.56,5.38,20.26c0,7.7-1.79,14.45-5.38,20.26
				c-3.58,5.81-8.6,10.34-15.03,13.59C1104.16,414.36,1096.69,415.99,1088.2,415.99z M1088.2,404.24c6.04,0,11.25-1.1,15.63-3.28
				c4.38-2.19,7.78-5.31,10.21-9.36c2.42-4.05,3.63-8.83,3.63-14.34s-1.21-10.29-3.63-14.34c-2.43-4.05-5.82-7.17-10.21-9.36
				c-4.38-2.19-9.59-3.28-15.63-3.28c-5.97,0-11.17,1.09-15.58,3.28c-4.42,2.19-7.83,5.31-10.25,9.36
				c-2.43,4.05-3.63,8.83-3.63,14.34s1.21,10.29,3.63,14.34c2.42,4.05,5.84,7.17,10.25,9.36
				C1077.03,403.15,1082.22,404.24,1088.2,404.24z"/>
			<path class="st2" d="M1230.97,409.62h-4.98l22.9-69.69h13.74l-25.29,74.67h-16.73l-25.19-68.4h6.17l-25.19,68.4h-16.73
				l-25.29-74.67h13.84l22.8,69.69l-4.78-0.1l25.19-69.59h14.24L1230.97,409.62z"/>
			<path class="st2" d="M1374.33,385.03c-0.66,6.11-2.8,11.5-6.42,16.18c-3.62,4.68-8.35,8.31-14.19,10.9
				c-5.84,2.59-12.51,3.88-20.01,3.88c-8.36,0-15.7-1.62-22-4.88c-6.3-3.25-11.22-7.78-14.73-13.59
				c-3.52-5.81-5.28-12.56-5.28-20.26c0-7.7,1.76-14.45,5.28-20.26c3.52-5.81,8.43-10.34,14.73-13.59c6.3-3.25,13.64-4.88,22-4.88
				c7.5,0,14.17,1.3,20.01,3.89c5.84,2.59,10.57,6.2,14.19,10.85c3.62,4.65,5.76,10.06,6.42,16.23h-13.24
				c-0.73-3.98-2.31-7.4-4.73-10.26c-2.43-2.85-5.56-5.06-9.41-6.62c-3.85-1.56-8.3-2.34-13.34-2.34c-5.84,0-10.9,1.09-15.18,3.28
				c-4.28,2.19-7.58,5.31-9.91,9.36c-2.33,4.05-3.48,8.83-3.48,14.34s1.16,10.29,3.48,14.34c2.32,4.05,5.62,7.17,9.91,9.36
				c4.28,2.19,9.34,3.28,15.18,3.28c5.04,0,9.49-0.76,13.34-2.29c3.85-1.53,6.98-3.74,9.41-6.62c2.42-2.89,4-6.32,4.73-10.3H1374.33
				z"/>
			<path class="st2" d="M1399.52,339.93v68.79l-5.87-5.68h56.25v11.55h-63.52v-74.67H1399.52z"/>
			<polygon class="st2" points="1522.37,403.25 1522.37,414.59 1457.25,414.59 1457.25,339.93 1521.87,339.93 1521.87,351.27 
				1470.4,351.27 1470.4,371.78 1519.48,371.78 1519.48,382.74 1470.4,382.74 1470.4,403.25 			"/>
			<path class="st2" d="M1579.21,339.93l35.84,74.67h-14.04l-32.56-69.69h5.08l-32.56,69.69h-14.04l35.84-74.67H1579.21z
				 M1544.57,397.47v-10.85h52.17v10.85H1544.57z"/>
			<path class="st2" d="M1693.31,406.63l-5.38,0.6v-67.3h12.75v74.67h-16.73l-52.37-67.3l5.28-0.6v67.9h-12.74v-74.67h17.12
				L1693.31,406.63z"/>
			<path class="st2" d="M1717.4,339.93h13.14v74.67h-13.14V339.93z"/>
			<path class="st2" d="M1816.46,406.63l-5.38,0.6v-67.3h12.75v74.67h-16.73l-52.37-67.3l5.28-0.6v67.9h-12.74v-74.67h17.12
				L1816.46,406.63z"/>
			<path class="st2" d="M1915.32,382.14c-0.07,4.65-0.96,9.01-2.69,13.09c-1.73,4.08-4.18,7.68-7.37,10.8
				c-3.19,3.12-7.05,5.56-11.6,7.32c-4.55,1.76-9.74,2.64-15.58,2.64c-5.91,0-11.38-0.9-16.43-2.69c-5.04-1.79-9.44-4.36-13.19-7.72
				c-3.75-3.35-6.66-7.42-8.71-12.2c-2.06-4.78-3.09-10.15-3.09-16.13s1.05-11.35,3.14-16.13c2.09-4.78,5.03-8.84,8.81-12.2
				c3.78-3.35,8.23-5.92,13.34-7.71c5.11-1.79,10.72-2.69,16.82-2.69c7.63,0,14.32,1.25,20.06,3.74c5.74,2.49,10.37,5.89,13.89,10.2
				c3.52,4.32,5.68,9.26,6.47,14.83h-13.34c-0.73-3.52-2.31-6.57-4.73-9.16c-2.42-2.59-5.53-4.58-9.31-5.97s-8.16-2.09-13.14-2.09
				c-5.84,0-10.9,1.08-15.18,3.23c-4.28,2.16-7.6,5.26-9.95,9.31c-2.36,4.05-3.53,8.93-3.53,14.64c0,5.71,1.21,10.62,3.63,14.73
				c2.42,4.12,5.86,7.27,10.31,9.46c4.44,2.19,9.69,3.28,15.73,3.28c5.84,0,10.95-1,15.33-2.99c4.38-1.99,7.83-4.76,10.35-8.31
				c2.52-3.55,3.89-7.68,4.08-12.4L1915.32,382.14z M1882.27,387.81v-9.95H1920v36.74h-9.76l-1.59-30.96l3.09,4.18H1882.27z"/>
		</g>
	</g>
</g>
</svg>
