<svg xmlns="http://www.w3.org/2000/svg" width="40" height="41" viewBox="0 0 40 41" fill="none">
  <g clip-path="url(#clip0_17_19954)">
    <path d="M20 1C16.0444 1 12.1776 2.17298 8.8886 4.37061C5.59962 6.56824 3.03617 9.69181 1.52242 13.3463C0.00866564 17.0009 -0.387401 21.0222 0.384303 24.9018C1.15601 28.7814 3.06082 32.3451 5.85787 35.1421C8.65492 37.9392 12.2186 39.844 16.0982 40.6157C19.9778 41.3874 23.9992 40.9913 27.6537 39.4776C31.3082 37.9638 34.4318 35.4004 36.6294 32.1114C38.827 28.8224 40 24.9556 40 21C40 15.6957 37.8929 10.6086 34.1421 6.85786C30.3914 3.10714 25.3043 1 20 1ZM25.0684 19.1053L24.7369 21.8921C24.7225 22.0214 24.6608 22.1409 24.5636 22.2274C24.4664 22.3139 24.3406 22.3613 24.2105 22.3605H21.3158V30.6237C21.3165 30.7223 21.2782 30.8173 21.2091 30.8878C21.1401 30.9583 21.046 30.9986 20.9474 31H18C17.9509 30.9993 17.9025 30.989 17.8574 30.9696C17.8123 30.9501 17.7715 30.922 17.7373 30.8868C17.7031 30.8517 17.6761 30.8101 17.658 30.7645C17.6399 30.7189 17.6309 30.6701 17.6316 30.6211L17.6474 22.3605H15.4553C15.3157 22.3605 15.1818 22.3051 15.0831 22.2064C14.9844 22.1077 14.929 21.9738 14.929 21.8342V19.05C14.929 18.9104 14.9844 18.7765 15.0831 18.6778C15.1818 18.5791 15.3157 18.5237 15.4553 18.5237H17.6316V15.8237C17.6316 12.7 19.4921 11 22.2105 11H24.4395C24.5791 11 24.7129 11.0555 24.8116 11.1542C24.9103 11.2529 24.9658 11.3867 24.9658 11.5263V13.8711C24.9658 14.0106 24.9103 14.1445 24.8116 14.2432C24.7129 14.3419 24.5791 14.3974 24.4395 14.3974H23.0737C21.5947 14.4211 21.3158 15.1289 21.3158 16.1868V18.5158H24.5579C24.6313 18.5175 24.7036 18.5345 24.7701 18.5658C24.8365 18.597 24.8957 18.6419 24.9438 18.6974C24.9919 18.7529 25.0278 18.8179 25.0493 18.8881C25.0707 18.9584 25.0773 19.0323 25.0684 19.1053Z" fill="#A3DB21"/>
  </g>
  <defs>
    <clipPath id="clip0_17_19954">
      <rect width="40" height="40" fill="white" transform="translate(0 0.808594)"/>
    </clipPath>
  </defs>
</svg>