<svg xmlns="http://www.w3.org/2000/svg" width="40" height="41" viewBox="0 0 40 41" fill="none">
  <g clip-path="url(#clip0_17_19944)">
    <path d="M20 1C16.0444 1 12.1776 2.17298 8.8886 4.37061C5.59962 6.56824 3.03617 9.69181 1.52242 13.3463C0.00866564 17.0009 -0.387401 21.0222 0.384303 24.9018C1.15601 28.7814 3.06082 32.3451 5.85787 35.1421C8.65492 37.9392 12.2186 39.844 16.0982 40.6157C19.9778 41.3874 23.9992 40.9913 27.6537 39.4776C31.3082 37.9638 34.4318 35.4004 36.6294 32.1114C38.827 28.8224 40 24.9556 40 21C40 15.6957 37.8929 10.6086 34.1421 6.85786C30.3914 3.10714 25.3043 1 20 1ZM29.9605 14.9474C29.4878 15.6575 28.9102 16.2919 28.2474 16.8289C28.1638 16.8986 28.0968 16.986 28.0513 17.0848C28.0058 17.1835 27.9829 17.2912 27.9842 17.4V17.4658C27.9765 18.892 27.7145 20.3053 27.2105 21.6395C26.6912 23.0398 25.9197 24.3331 24.9342 25.4553C23.6099 26.9629 21.9062 28.0887 20 28.7158C18.7475 29.1223 17.4379 29.3258 16.1211 29.3184C14.0319 29.3182 11.9801 28.7652 10.1737 27.7158C10.109 27.679 10.058 27.6221 10.0286 27.5537C9.99911 27.4853 9.99279 27.4092 10.0105 27.3368C10.0288 27.2657 10.0703 27.2027 10.1284 27.1578C10.1866 27.113 10.2581 27.0889 10.3316 27.0895H10.8316C12.419 27.0923 13.9712 26.6213 15.2895 25.7368C14.5042 25.6086 13.7694 25.2664 13.1659 24.7479C12.5624 24.2293 12.1134 23.5544 11.8684 22.7974C11.8559 22.7595 11.8536 22.7189 11.8618 22.6798C11.8701 22.6408 11.8885 22.6046 11.9152 22.5749C11.9419 22.5452 11.976 22.5232 12.014 22.5109C12.052 22.4987 12.0926 22.4967 12.1316 22.5053C12.3711 22.5503 12.6142 22.5732 12.8579 22.5737H12.95C12.1908 22.2253 11.5489 21.6642 11.1019 20.9585C10.6549 20.2528 10.4221 19.4327 10.4316 18.5974C10.4319 18.5583 10.4422 18.5199 10.4617 18.4861C10.4812 18.4522 10.5092 18.4239 10.5428 18.4041C10.5765 18.3842 10.6147 18.3734 10.6538 18.3727C10.6928 18.3719 10.7314 18.3814 10.7658 18.4C11.0745 18.5724 11.4058 18.7008 11.75 18.7816C11.0702 18.1086 10.633 17.2291 10.5068 16.2809C10.3806 15.3327 10.5726 14.3695 11.0526 13.5421C11.0711 13.5105 11.0969 13.4838 11.1279 13.4644C11.1589 13.4449 11.1941 13.4333 11.2306 13.4304C11.2671 13.4276 11.3037 13.4336 11.3373 13.448C11.371 13.4624 11.4006 13.4848 11.4237 13.5132C12.3751 14.6887 13.5525 15.6617 14.8864 16.3745C16.2202 17.0873 17.6834 17.5255 19.1895 17.6632H19.2105C19.2327 17.6625 19.2544 17.6574 19.2745 17.6481C19.2946 17.6387 19.3126 17.6254 19.3274 17.6089C19.3421 17.5924 19.3534 17.5731 19.3604 17.5521C19.3675 17.5311 19.3702 17.5089 19.3684 17.4868C19.3098 16.9587 19.3437 16.4244 19.4684 15.9079C19.6382 15.2058 19.9868 14.5596 20.4802 14.0321C20.9736 13.5046 21.5951 13.1137 22.2842 12.8974C22.7264 12.7592 23.1868 12.6883 23.65 12.6868C24.7003 12.6856 25.7149 13.0684 26.5026 13.7632C26.6047 13.8545 26.7368 13.905 26.8737 13.9053C26.9181 13.9043 26.9623 13.8981 27.0053 13.8868C27.745 13.6996 28.4539 13.4071 29.1105 13.0184C29.1498 12.9942 29.1956 12.9827 29.2416 12.9855C29.2876 12.9883 29.3317 13.0053 29.3677 13.0341C29.4037 13.0629 29.4299 13.1022 29.4428 13.1465C29.4556 13.1908 29.4545 13.238 29.4395 13.2816C29.2205 13.9705 28.8302 14.5925 28.3053 15.0895C28.7785 14.9779 29.2402 14.822 29.6842 14.6237C29.7278 14.6073 29.7753 14.6048 29.8203 14.6164C29.8653 14.628 29.9057 14.6532 29.9359 14.6886C29.9661 14.724 29.9847 14.7678 29.9891 14.8141C29.9935 14.8604 29.9835 14.9069 29.9605 14.9474Z" fill="#A3DB21"/>
  </g>
  <defs>
    <clipPath id="clip0_17_19944">
      <rect width="40" height="40" fill="white" transform="translate(0 0.808594)"/>
    </clipPath>
  </defs>
</svg>