<svg xmlns="http://www.w3.org/2000/svg" width="30" height="30" viewBox="0 0 30 30" fill="none">
  <path d="M8.0004 10V9C8.0004 7.67392 8.52719 6.40215 9.46487 5.46447C10.4026 4.52678 11.6743 4 13.0004 4C14.3265 4 15.5983 4.52678 16.5359 5.46447C17.4736 6.40215 18.0004 7.67392 18.0004 9V20.586L22.7304 15.856L22.0364 13.266L22.0344 13.254H22.0324C21.9757 13.0411 21.9908 12.8154 22.0755 12.612C22.1603 12.4086 22.3098 12.2389 22.5009 12.1292C22.692 12.0195 22.9139 11.976 23.1323 12.0054C23.3507 12.0349 23.5532 12.1356 23.7084 12.292L27.7084 16.292C27.864 16.4471 27.9642 16.6491 27.9935 16.8668C28.0229 17.0845 27.9797 17.3058 27.8707 17.4965C27.7616 17.6873 27.5929 17.8368 27.3904 17.922C27.1879 18.0072 26.963 18.0234 26.7504 17.968L26.7304 17.962L24.1444 17.27L18.0004 23.414V24C18.0004 24.5304 17.7897 25.0391 17.4146 25.4142C17.0395 25.7893 16.5308 26 16.0004 26H10.0004C9.46997 26 8.96126 25.7893 8.58619 25.4142C8.21112 25.0391 8.0004 24.5304 8.0004 24V23.072L3.4644 18.536C2.52791 17.5975 2.00195 16.3258 2.00195 15C2.00195 13.6742 2.52791 12.4025 3.4644 11.464C3.92833 10.9991 4.47953 10.6305 5.08635 10.3792C5.69316 10.128 6.34364 9.99911 7.0004 10H8.0004ZM8.0004 12H7.0004C6.40686 11.9997 5.82658 12.1755 5.33298 12.5052C4.83938 12.8348 4.45466 13.3034 4.22748 13.8518C4.00031 14.4001 3.94089 15.0035 4.05676 15.5856C4.17263 16.1678 4.45857 16.7024 4.8784 17.122L8.0004 20.242V12ZM16.0004 10V9C16.0004 8.20435 15.6843 7.44129 15.1217 6.87868C14.5591 6.31607 13.7961 6 13.0004 6C12.2048 6 11.4417 6.31607 10.8791 6.87868C10.3165 7.44129 10.0004 8.20435 10.0004 9V10H16.0004Z" fill="white"/>
</svg>
