<svg xmlns="http://www.w3.org/2000/svg" width="30" height="30" viewBox="0 0 30 30" fill="none">
  <path d="M16.2847 2.5C17.691 2.50375 18.4047 2.51125 19.021 2.52875L19.2635 2.5375C19.5435 2.5475 19.8197 2.56 20.1535 2.575C21.4835 2.6375 22.391 2.8475 23.1872 3.15625C24.0122 3.47375 24.7072 3.90375 25.4022 4.5975C26.0379 5.22237 26.5297 5.97824 26.8435 6.8125C27.1522 7.60875 27.3622 8.51625 27.4247 9.8475C27.4397 10.18 27.4522 10.4563 27.4622 10.7375L27.4697 10.98C27.4885 11.595 27.496 12.3088 27.4985 13.715L27.4997 14.6475V16.285C27.5028 17.1968 27.4932 18.1085 27.471 19.02L27.4635 19.2625C27.4535 19.5438 27.441 19.82 27.426 20.1525C27.3635 21.4838 27.151 22.39 26.8435 23.1875C26.5306 24.0222 26.0386 24.7783 25.4022 25.4025C24.7772 26.0379 24.0214 26.5297 23.1872 26.8438C22.391 27.1525 21.4835 27.3625 20.1535 27.425C19.8569 27.439 19.5602 27.4515 19.2635 27.4625L19.021 27.47C18.4047 27.4875 17.691 27.4963 16.2847 27.4988L15.3522 27.5H13.716C12.8038 27.5031 11.8917 27.4936 10.9797 27.4713L10.7372 27.4638C10.4405 27.4525 10.1438 27.4396 9.84725 27.425C8.51724 27.3625 7.60974 27.1525 6.81224 26.8438C5.97808 26.5305 5.22252 26.0386 4.59849 25.4025C3.9623 24.7779 3.47003 24.022 3.15599 23.1875C2.84724 22.3913 2.63724 21.4838 2.57474 20.1525C2.56082 19.8559 2.54832 19.5592 2.53724 19.2625L2.53099 19.02C2.50796 18.1085 2.49754 17.1968 2.49974 16.285V13.715C2.49626 12.8033 2.50542 11.8915 2.52724 10.98L2.53599 10.7375C2.54599 10.4563 2.55849 10.18 2.57349 9.8475C2.63599 8.51625 2.84599 7.61 3.15474 6.8125C3.46864 5.97738 3.9619 5.22128 4.59974 4.5975C5.22361 3.96184 5.97867 3.46998 6.81224 3.15625C7.60974 2.8475 8.51599 2.6375 9.84725 2.575C10.1797 2.56 10.4572 2.5475 10.7372 2.5375L10.9797 2.53C11.8912 2.50779 12.803 2.49821 13.7147 2.50125L16.2847 2.5ZM14.9997 8.75C13.3421 8.75 11.7524 9.40848 10.5803 10.5806C9.40823 11.7527 8.74975 13.3424 8.74975 15C8.74975 16.6576 9.40823 18.2473 10.5803 19.4194C11.7524 20.5915 13.3421 21.25 14.9997 21.25C16.6573 21.25 18.2471 20.5915 19.4192 19.4194C20.5913 18.2473 21.2497 16.6576 21.2497 15C21.2497 13.3424 20.5913 11.7527 19.4192 10.5806C18.2471 9.40848 16.6573 8.75 14.9997 8.75ZM14.9997 11.25C15.4922 11.2499 15.9799 11.3468 16.4349 11.5352C16.8899 11.7236 17.3033 11.9997 17.6516 12.3479C17.9999 12.6961 18.2761 13.1094 18.4647 13.5644C18.6532 14.0193 18.7503 14.5069 18.7504 14.9994C18.7505 15.4918 18.6535 15.9795 18.4652 16.4345C18.2768 16.8895 18.0006 17.3029 17.6525 17.6512C17.3043 17.9995 16.891 18.2758 16.436 18.4643C15.9811 18.6528 15.4935 18.7499 15.001 18.75C14.0064 18.75 13.0526 18.3549 12.3493 17.6517C11.6461 16.9484 11.251 15.9946 11.251 15C11.251 14.0054 11.6461 13.0516 12.3493 12.3484C13.0526 11.6451 14.0064 11.25 15.001 11.25M21.5635 6.875C21.1491 6.875 20.7517 7.03962 20.4586 7.33265C20.1656 7.62567 20.001 8.0231 20.001 8.4375C20.001 8.8519 20.1656 9.24933 20.4586 9.54236C20.7517 9.83538 21.1491 10 21.5635 10C21.9779 10 22.3753 9.83538 22.6684 9.54236C22.9614 9.24933 23.126 8.8519 23.126 8.4375C23.126 8.0231 22.9614 7.62567 22.6684 7.33265C22.3753 7.03962 21.9779 6.875 21.5635 6.875Z" fill="#FDFDFD"/>
</svg>
