<svg xmlns="http://www.w3.org/2000/svg" width="30" height="30" viewBox="0 0 30 30" fill="none">
  <path d="M28.5371 8.1915C24.8398 9.13486 22.693 10.6642 21.7086 11.5431L21.6324 11.6134L21.5797 11.7071C21.1109 12.6681 20.1324 13.2774 19.0602 13.2774C17.5016 13.2774 16.2477 12.0235 16.2477 10.4591C16.2477 8.90049 17.5016 7.64658 19.0602 7.64658C19.5641 7.64658 20.0504 7.78135 20.4898 8.0333L20.7828 8.20322L21.0699 8.01572C22.6578 6.95518 24.0816 6.86143 25.5664 7.16025C26.5391 7.35361 27.5352 7.75791 28.5371 8.1915ZM21.8199 15.2813C21.8141 15.7267 21.7437 16.1544 21.5855 16.506C21.1109 16.7403 20.4898 16.8692 19.8805 17.127C19.5523 17.2735 19.2125 17.4728 18.9664 17.8067C18.732 18.1231 18.609 18.5392 18.6148 19.002C18.0113 22.3126 17.068 24.4103 15.9547 25.8165C14.8473 27.2345 13.5582 27.9845 12.1578 28.5645L12.152 28.5645C11.9234 28.6642 11.777 28.6407 11.6129 28.5587C11.4371 28.4708 11.2613 28.2892 11.1383 28.0665C11.0152 27.838 10.9566 27.5685 10.9625 27.3575C10.9742 27.1524 11.0387 27.0177 11.1441 26.9239C12.0172 26.2091 13.2125 25.3419 14.1734 24.2579C15.1344 23.1681 15.8785 21.8028 15.691 20.1856C15.5504 18.9435 16.066 18.2462 16.6754 17.2325C17.15 16.4415 17.648 15.4688 17.7066 14.1329C18.1285 14.2911 18.5855 14.379 19.0602 14.379C20.0152 14.379 20.9117 14.0274 21.609 13.4298C21.6676 13.7579 21.7437 14.1153 21.7848 14.4903C21.8023 14.6896 21.8199 14.8888 21.8199 15.088L21.8199 15.2813ZM20.8121 1.37061C20.2789 2.98193 19.8043 4.68701 19.9449 6.65049C19.6578 6.58603 19.359 6.54502 19.0602 6.54502C18.1578 6.54502 17.3199 6.86143 16.652 7.37705C16.6637 5.68896 17.2613 4.52295 18.1871 3.50342C18.902 2.72412 19.8395 2.04443 20.8121 1.37061ZM20.5895 10.4591C20.5895 9.62119 19.898 8.92978 19.0602 8.92978C18.2223 8.92978 17.5309 9.62119 17.5309 10.4591C17.5309 11.297 18.2223 11.9884 19.0602 11.9884C19.898 11.9884 20.5895 11.297 20.5895 10.4591ZM19.4879 10.4591C19.4879 10.7052 19.3062 10.8927 19.0602 10.8927C18.8199 10.8927 18.6324 10.7052 18.6324 10.4591C18.6324 10.2188 18.8199 10.0313 19.0602 10.0313C19.3062 10.0313 19.4879 10.2188 19.4879 10.4591ZM15.4449 11.9708C12.3629 12.3399 10.3297 13.547 8.77695 14.9708C7.06601 16.5411 5.86484 18.3165 4.24765 19.5821C4.05429 19.6524 3.65586 19.6993 3.23398 19.6524C2.78281 19.5938 2.29648 19.4474 1.95664 19.2481C1.62851 19.0489 1.48203 18.8438 1.46445 18.6563C1.44687 18.4806 1.54062 18.1524 2.07968 17.6603C4.03086 16.6056 7.04843 14.5138 8.37265 11.7481C8.9 10.6524 9.64414 10.131 10.5406 9.85557C11.4312 9.58603 12.4859 9.59189 13.4762 9.68564C14.2906 9.75596 14.8707 9.59775 15.2926 9.41025C15.193 9.74424 15.1461 10.0958 15.1461 10.4591C15.1461 10.9923 15.2574 11.5079 15.4449 11.9708Z" fill="white"/>
</svg>
