<svg xmlns="http://www.w3.org/2000/svg" width="31" height="30" viewBox="0 0 31 30" fill="none">
  <g clip-path="url(#clip0_242_17551)">
    <path d="M10.5 8.75C10.5 10.0761 11.0268 11.3479 11.9645 12.2855C12.9021 13.2232 14.1739 13.75 15.5 13.75C16.8261 13.75 18.0979 13.2232 19.0355 12.2855C19.9732 11.3479 20.5 10.0761 20.5 8.75C20.5 7.42392 19.9732 6.15215 19.0355 5.21447C18.0979 4.27678 16.8261 3.75 15.5 3.75C14.1739 3.75 12.9021 4.27678 11.9645 5.21447C11.0268 6.15215 10.5 7.42392 10.5 8.75Z" stroke="#1BB129" stroke-width="1.5" stroke-linecap="round" stroke-linejoin="round"/>
    <path d="M8 26.25V23.75C8 22.4239 8.52678 21.1521 9.46447 20.2145C10.4021 19.2768 11.6739 18.75 13 18.75H18C19.3261 18.75 20.5979 19.2768 21.5355 20.2145C22.4732 21.1521 23 22.4239 23 23.75V26.25" stroke="#1BB129" stroke-width="1.5" stroke-linecap="round" stroke-linejoin="round"/>
  </g>
  <defs>
    <clipPath id="clip0_242_17551">
      <rect width="30" height="30" fill="white" transform="translate(0.5)"/>
    </clipPath>
  </defs>
</svg>
