<?xml version="1.0" encoding="utf-8"?><svg viewBox="0 0 800 800" xmlns="http://www.w3.org/2000/svg" xmlns:xlink="http://www.w3.org/1999/xlink"><style>:root>svg{display:none}:root>svg:target{display:block}</style><svg viewBox="0 0 256 256" xml:space="preserve" id="analytics" xmlns="http://www.w3.org/2000/svg"><path d="M127.9 186.4c-32.1 0-58.3-26.2-58.3-58.3 0-28.4 20-52.2 47.4-57.3V60.5c-33.1 5.2-57.6 33.6-57.6 67.6 0 37.7 30.7 68.5 68.5 68.5 34 0 62.4-24.5 67.6-57.6h-10.3c-5.2 27.3-28.9 47.4-57.3 47.4z"/><path d="m134.9 60-5.6-.6v67.3h67.3l-.6-5.6C192.8 89 167 63.2 134.9 60zm4.5 56.6V71c22.9 4.6 41 22.7 45.6 45.6h-45.6z"/><path d="m237.7 204.9-.1-8.6c0-32.8.1-126.7 0-167.7 0-14.8-11.5-26-26.5-26H46.4c-7.2 0-14.4 3.1-19.8 8.6-5.3 5.3-8.2 12.3-8.2 19.6.2 58.1.2 95.3.1 142.4v50.9c0 7.9 3 15.3 8.5 20.8s12.9 8.5 20.8 8.5h84.6c26.1 0 52.8 0 79.2-.1 2.9 0 5.8-.5 8.3-1.3 10.5-3.6 17.7-13.7 17.9-25-.1-7.4-.1-14.9-.1-22.1zm-10.3 21.9c-.1 7-4.5 13.3-11 15.5-1.4.5-3.1.8-5 .8-26.3.1-53 .1-79.2.1H47.6c-5.2 0-10.1-1.9-13.6-5.5-3.5-3.5-5.5-8.3-5.5-13.5v-50.9c0-47.1.1-84.3-.1-142.4 0-4.6 1.8-9 5.2-12.4C37.1 15 41.7 13 46.2 13h164.7c9.6 0 16.3 6.5 16.3 15.8.1 40.9 0 134.9 0 167.7l.1 8.6c.2 7 .2 14.4.1 21.7z"/></svg><svg viewBox="0 0 502.664 502.664" xml:space="preserve" id="icon" xmlns="http://www.w3.org/2000/svg"><path d="M153.821 358.226 0 274.337v-46.463l153.821-83.414v54.574L46.636 250.523l107.185 53.431v54.272zm26.273 29.358L282.103 115.08h32.227L212.084 387.584h-31.99zm168.749-29.358v-54.272l107.164-52.999-107.164-52.59v-53.927l153.821 83.522v46.183l-153.821 84.083z"/></svg><svg version="1.0" viewBox="0 0 24 24" xml:space="preserve" id="marketing" xmlns="http://www.w3.org/2000/svg"><path d="M8.5 5h-4c-.3 0-.5-.2-.5-.5s.2-.5.5-.5h4c.3 0 .5.2.5.5s-.2.5-.5.5zm-2 2h-2c-.3 0-.5-.2-.5-.5s.2-.5.5-.5h2c.3 0 .5.2.5.5s-.2.5-.5.5zm2 12h-4c-.3 0-.5-.2-.5-.5s.2-.5.5-.5h4c.3 0 .5.2.5.5s-.2.5-.5.5zm7 0h-2c-.3 0-.5-.2-.5-.5s.2-.5.5-.5h2c.3 0 .5.2.5.5s-.2.5-.5.5zm-2-14h-3c-.3 0-.5-.2-.5-.5s.2-.5.5-.5h3c.3 0 .5.2.5.5s-.2.5-.5.5z"/><path d="M20.5 4h-1.2l-1.3.5v-3c0-.8-.7-1.5-1.5-1.5h-13C2.7 0 2 .7 2 1.5v21c0 .8.7 1.5 1.5 1.5h13c.8 0 1.5-.7 1.5-1.5v-7l1.3.4h1.2c.8 0 1.5-.7 1.5-1.5v-9c0-.7-.7-1.4-1.5-1.4zM8 1h4v.5c0 .3-.2.5-.5.5h-3c-.3 0-.5-.2-.5-.5V1zM3.5 1H7v.5C7 2.3 7.7 3 8.5 3h3c.8 0 1.5-.7 1.5-1.5V1h3.5c.3 0 .5.2.5.5v3.3L10.4 7H8.5c-.3 0-.5.2-.5.5V8H6.5c-.3 0-.5.2-.5.5V9h-.5C4.7 9 4 9.7 4 10.5v5c0 .8.7 1.5 1.5 1.5h4l.6 1.7c.1.2.3.3.5.3h1c.1 0 .3-.1.4-.2.1-.1.1-.3.1-.4l-.3-1.4h2.7c.8 0 1.5-.7 1.5-1.5v-.6l1 .3V20H3V1.5c0-.3.2-.5.5-.5zm3 11H8v.7L9.1 16H5.5c-.3 0-.5-.2-.5-.5v-5c0-.3.2-.5.5-.5H6v1.5c0 .3.2.5.5.5zm.5-1V9h1v2H7zm2 1V8h1v4H9zm1.1 1 .8 5-1.7-5h.9zm1 .2 3.9 1.3v1c0 .3-.2.5-.5.5h-2.9l-.5-2.8zm5.4 9.8h-13c-.3 0-.5-.2-.5-.5V21h14v1.5c0 .3-.2.5-.5.5zm2.5-8.2-8-2.7V7.9l8-2.7v9.6zm2-.3c0 .3-.2.5-.5.5H20V5h.5c.3 0 .5.2.5.5v9z"/></svg><svg viewBox="0 0 512 512" xml:space="preserve" id="ppc" xmlns="http://www.w3.org/2000/svg"><path d="M392.533 119.467c-65.877 0-119.467 53.589-119.467 119.467S326.656 358.4 392.533 358.4 512 304.811 512 238.933s-53.589-119.466-119.467-119.466zm0 221.866c-56.465 0-102.4-45.935-102.4-102.4s45.935-102.4 102.4-102.4 102.4 45.935 102.4 102.4-45.935 102.4-102.4 102.4z"/><path d="M392.533 196.267c9.412 0 17.067 7.654 17.067 17.067 0 4.71 3.823 8.533 8.533 8.533s8.533-3.823 8.533-8.533c0-15.855-10.923-29.107-25.6-32.922V179.2a8.536 8.536 0 0 0-8.533-8.533A8.536 8.536 0 0 0 384 179.2v1.212c-14.677 3.814-25.6 17.067-25.6 32.922 0 18.825 15.309 34.133 34.133 34.133 9.412 0 17.067 7.654 17.067 17.067 0 9.412-7.654 17.067-17.067 17.067-9.412 0-17.067-7.654-17.067-17.067 0-4.71-3.823-8.533-8.533-8.533s-8.533 3.823-8.533 8.533c0 15.855 10.923 29.107 25.6 32.922v1.212a8.536 8.536 0 0 0 8.533 8.533 8.536 8.536 0 0 0 8.533-8.533v-1.212c14.677-3.814 25.6-17.067 25.6-32.922 0-18.825-15.309-34.133-34.133-34.133-9.412 0-17.067-7.654-17.067-17.067.001-9.413 7.655-17.067 17.067-17.067zM119.467 102.4A8.536 8.536 0 0 0 128 93.867V59.733c0-23.526 19.14-42.667 42.667-42.667h170.667c23.526 0 42.667 19.14 42.667 42.667v34.133a8.536 8.536 0 0 0 8.533 8.533 8.536 8.536 0 0 0 8.533-8.533V59.733C401.067 26.795 374.272 0 341.333 0H170.667c-32.939 0-59.733 26.795-59.733 59.733v34.133c-.001 4.711 3.822 8.534 8.533 8.534zm0 17.067C53.589 119.467 0 173.056 0 238.933v153.6C0 458.411 53.589 512 119.467 512s119.467-53.589 119.467-119.467v-76.8c0-4.71-3.823-8.533-8.533-8.533s-8.533 3.823-8.533 8.533v76.8c0 56.465-45.935 102.4-102.4 102.4s-102.4-45.935-102.4-102.4v-153.6c0-53.581 41.395-97.604 93.867-101.965v136.098H42.667c-4.71 0-8.533 3.823-8.533 8.533s3.823 8.533 8.533 8.533H230.4a8.536 8.536 0 0 0 8.533-8.533v-42.667c0-65.876-53.589-119.465-119.466-119.465zm102.4 153.6H128V136.969c52.471 4.361 93.867 48.384 93.867 101.965v34.133z"/></svg><svg viewBox="0 0 512 512" id="seo" xmlns="http://www.w3.org/2000/svg"><path d="M437.5 239.9c1-7.3 2.1-13.5 2.1-20.8 0-70.6-57.2-127.7-128-127.7-37.5 0-71.8 15.6-95.7 42.6-13.5-7.3-29.1-11.4-44.7-11.4-48.9 0-89.5 35.3-96.8 83.1C36 224.3 11 263.8 11 307.4c0 62.3 51 113.2 113.4 113.2h281.9c52 0 93.6-41.5 94.7-92.4 0-40.5-26-75.8-63.5-88.3zm-31.2 159.9H124.4c-51 0-92.6-41.5-92.6-92.4 0-37.4 21.8-70.6 56.2-85.1 3.1-1 6.2-4.2 6.2-8.3 3.1-40.5 35.4-70.6 75.9-70.6 15.6 0 29.1 4.2 43.7 10.4 4.2 3.1 10.4 2.1 13.5-2.1 19.8-26 51-41.5 84.3-41.5 59.3 0 107.2 47.8 107.2 106.9 0 8.3-1 17.6-3.1 26-2.8 9.2 4.2 12.5 7.3 13.5 33.3 7.3 56.2 36.3 56.2 70.6 0 40.4-32.3 72.6-72.9 72.6z"/><path d="M161.1 232.3c11.5 0 20.9 9.3 20.9 20.8 0 3.9 3.1 7 7 7s7-3.1 7-7c0-19.2-15.7-34.8-34.9-34.8-19.3 0-34.9 15.6-34.9 34.8s15.7 34.8 34.9 34.8c11.5 0 20.9 9.3 20.9 20.8s-9.4 20.8-20.9 20.8-20.9-9.3-20.9-20.8c0-3.9-3.1-7-7-7s-7 3.1-7 7c0 19.2 15.7 34.8 34.9 34.8 19.3 0 34.9-15.6 34.9-34.8S180.3 274 161.1 274c-11.5 0-20.9-9.3-20.9-20.8s9.4-20.9 20.9-20.9zm114.9 0c3.9 0 7-3.1 7-7s-3.1-7-7-7h-56.6c-3.9 0-7 3.1-7 7v111.4c0 3.9 3.1 7 7 7H276c3.9 0 7-3.1 7-7s-3.1-7-7-7h-49.6V288H276c3.9 0 7-3.1 7-7s-3.1-7-7-7h-49.6v-41.7H276zm62.7-14c-13 0-25.1 6.8-34.1 19.2-8.4 11.7-13.1 27.1-13.1 43.5s4.6 31.8 13.1 43.5c8.9 12.4 21 19.2 34.1 19.2s25.1-6.8 34.1-19.2c8.4-11.7 13.1-27.1 13.1-43.5s-4.6-31.8-13.1-43.5c-9-12.4-21.1-19.2-34.1-19.2zm0 111.3c-18.3 0-33.1-21.8-33.1-48.7 0-26.8 14.9-48.7 33.1-48.7 18.3 0 33.1 21.8 33.1 48.7 0 26.9-14.8 48.7-33.1 48.7z"/></svg><svg viewBox="0 0 100 100" xml:space="preserve" id="strategy" xmlns="http://www.w3.org/2000/svg"><path d="M76.1 40.8H66c-2.2 0-4 1.8-4 4v2.5h-9.4V27.6c0-.6-.6-1.3-1.3-1.3H38v-2.4c0-2.2-1.8-4-4-4H23.9c-2.2 0-4 1.8-4 4V34c0 2.2 1.8 4 4 4H34c2.2 0 4-1.8 4-4v-2.4h9.3v15.7H38V45c0-2.2-1.8-4-4-4H23.9c-2.2 0-4 1.8-4 4v10c0 2.2 1.8 4 4 4H34c2.2 0 4-1.8 4-4v-2.4h9.3v15.7H38V66c0-2.2-1.8-4-4-4H23.9c-2.2 0-4 1.8-4 4v10.1c0 2.2 1.8 4 4 4H34c2.2 0 4-1.8 4-4v-2.4h13.3c.7 0 1.3-.7 1.3-1.3V52.7H62v2.2c0 2.2 1.8 4 4 4h10.1c2.2 0 4-1.8 4-4V44.8c0-2.2-1.8-4-4-4zM34 34H23.9V23.9H34V34zm0 2v-2 2zm0 19H23.9V45H34v10zm0 2v-2 2zm0 19.1H23.9V66H34v10.1zm0 2v-2 2zm42.1-23.2H66V44.8h10.1v10.1zm0 2v-2 2z"/></svg></svg>