<?xml version="1.0" ?><!DOCTYPE svg  PUBLIC '-//W3C//DTD SVG 1.1//EN'  'http://www.w3.org/Graphics/SVG/1.1/DTD/svg11.dtd'><svg viewBox="0 0 512 512" xmlns="http://www.w3.org/2000/svg" xmlns:xlink="http://www.w3.org/1999/xlink"><style>:root>svg{display:none}:root>svg:target{display:block}</style><svg style="fill-rule:evenodd;clip-rule:evenodd;stroke-linejoin:round;stroke-miterlimit:2" viewBox="0 0 512 512" xml:space="preserve" id="facebook" xmlns="http://www.w3.org/2000/svg"><path d="M449.446 0C483.971 0 512 28.03 512 62.554v386.892C512 483.97 483.97 512 449.446 512H342.978V319.085h66.6l12.672-82.621h-79.272v-53.617c0-22.603 11.073-44.636 46.58-44.636H425.6v-70.34s-32.71-5.582-63.982-5.582c-65.288 0-107.96 39.569-107.96 111.204v62.971h-72.573v82.621h72.573V512H62.554C28.03 512 0 483.97 0 449.446V62.554C0 28.03 28.029 0 62.554 0h386.892Z" style="fill:#1777f2"/></svg><svg xml:space="preserve" viewBox="0 0 48 48" id="home" xmlns="http://www.w3.org/2000/svg"><path d="M42 48H28V35h-8v13H6V27a1 1 0 1 1 2 0v19h10V33h12v13h10V28a1 1 0 1 1 2 0v20z"/><path d="M47 27a.997.997 0 0 1-.691-.277L24 5.384 1.691 26.723a1 1 0 0 1-1.383-1.445L24 2.616l23.691 22.661A1 1 0 0 1 47 27zM39 15a1 1 0 0 1-1-1V8h-6a1 1 0 1 1 0-2h8v8a1 1 0 0 1-1 1z"/></svg><svg xml:space="preserve" viewBox="0 0 128 128" id="instagram" xmlns="http://www.w3.org/2000/svg"><linearGradient gradientTransform="matrix(1 0 0 -1 594 633)" gradientUnits="userSpaceOnUse" id="ca" x1="-577.512" x2="-482.488" y1="501.146" y2="636.854"><stop offset="0" style="stop-color:#ffb900"/><stop offset="1" style="stop-color:#9100eb"/></linearGradient><path d="M128 112c0 8.8-7.2 16-16 16H16c-8.8 0-16-7.2-16-16V16C0 7.2 7.2 0 16 0h96c8.8 0 16 7.2 16 16v96z" fill="url(#ca)"/><path d="M86 112H42c-14.336 0-26-11.663-26-26V42c0-14.336 11.664-26 26-26h44c14.337 0 26 11.664 26 26v44c0 14.337-11.663 26-26 26zM42 24c-9.925 0-18 8.075-18 18v44c0 9.925 8.075 18 18 18h44c9.925 0 18-8.075 18-18V42c0-9.925-8.075-18-18-18H42z" fill="#FFF"/><path d="M64 88c-13.234 0-24-10.767-24-24 0-13.234 10.766-24 24-24 13.233 0 24 10.766 24 24 0 13.233-10.767 24-24 24zm0-40c-8.822 0-16 7.178-16 16s7.178 16 16 16 16-7.178 16-16-7.178-16-16-16z" fill="#FFF"/><circle cx="89.5" cy="38.5" fill="#FFF" r="5.5"/></svg><svg style="fill-rule:evenodd;clip-rule:evenodd;stroke-linejoin:round;stroke-miterlimit:2" viewBox="0 0 512 512" xml:space="preserve" id="linkedin" xmlns="http://www.w3.org/2000/svg"><path d="M512 64c0-35.323-28.677-64-64-64H64C28.677 0 0 28.677 0 64v384c0 35.323 28.677 64 64 64h384c35.323 0 64-28.677 64-64V64Z" style="fill:#2867b2"/><path style="fill:#fff" d="M61.053 178.667h85.76v257.962h-85.76z"/><path d="M104.512 54.28C75.171 54.28 56 73.57 56 98.853c0 24.752 18.588 44.574 47.377 44.574h.554c29.903 0 48.516-19.822 48.516-44.574-.555-25.283-18.611-44.573-47.935-44.573ZM357.278 172.601c-45.49 0-65.866 25.017-77.276 42.589v-36.523h-85.738c1.137 24.197 0 257.961 0 257.961h85.737V292.564c0-7.711.554-15.42 2.827-20.931 6.188-15.4 20.305-31.352 43.993-31.352 31.012 0 43.436 23.664 43.436 58.327v138.02h85.741v-147.93c0-79.237-42.305-116.097-98.72-116.097Z" style="fill:#fff;fill-rule:nonzero"/></svg><svg style="fill-rule:evenodd;clip-rule:evenodd;stroke-linejoin:round;stroke-miterlimit:2" viewBox="0 0 512 512" xml:space="preserve" id="twitter" xmlns="http://www.w3.org/2000/svg"><path style="fill:none" d="M56 56h400v400H56z"/><path d="M161.014 464.013c193.208 0 298.885-160.071 298.885-298.885 0-4.546 0-9.072-.307-13.578A213.737 213.737 0 0 0 512 97.176a209.705 209.705 0 0 1-60.334 16.527 105.426 105.426 0 0 0 46.182-58.102 210.548 210.548 0 0 1-66.703 25.498 105.184 105.184 0 0 0-76.593-33.112c-57.682 0-105.145 47.464-105.145 105.144 0 8.002.914 15.979 2.722 23.773-84.418-4.231-163.18-44.161-216.494-109.752-27.724 47.726-13.379 109.576 32.522 140.226A104.258 104.258 0 0 1 20.48 194.23v1.331c.014 49.814 35.447 93.111 84.275 102.974a104.898 104.898 0 0 1-47.431 1.802c13.727 42.685 53.311 72.108 98.14 72.95a210.83 210.83 0 0 1-130.458 45.056A213.688 213.688 0 0 1 0 416.827a297.42 297.42 0 0 0 161.014 47.104" style="fill:#1da1f2;fill-rule:nonzero"/></svg></svg>