<?xml version="1.0" encoding="utf-8"?><svg viewBox="0 0 600 600" xmlns="http://www.w3.org/2000/svg" xmlns:xlink="http://www.w3.org/1999/xlink"><style>:root>svg{display:none}:root>svg:target{display:block}</style><svg viewBox="0 0 15 8" id="arrow" xmlns="http://www.w3.org/2000/svg"><path d="M14.354 4.354a.5.5 0 000-.708L11.172.464a.5.5 0 10-.708.708L13.293 4l-2.829 2.828a.5.5 0 10.708.708l3.182-3.182zM0 4.5h14v-1H0v1z"/></svg><svg viewBox="0 0 30 31" id="email" xmlns="http://www.w3.org/2000/svg"><path d="M3.75 24.25V6.75h22.5v17.5H3.75zM15 15.644l10-6.538V8l-10 6.25L5 8v1.106l10 6.538z"/></svg><svg viewBox="0 0 600 600" id="instagram" xmlns="http://www.w3.org/2000/svg"><path d="M300 44c-69.526 0-78.244.294-105.549 1.54-27.248 1.244-45.858 5.57-62.142 11.9-16.834 6.542-31.11 15.295-45.342 29.527C72.735 101.2 63.98 115.475 57.439 132.31c-6.329 16.283-10.656 34.892-11.9 62.14C44.295 221.757 44 230.474 44 300c0 69.524.294 78.242 1.54 105.547 1.243 27.248 5.57 45.857 11.9 62.14 6.541 16.835 15.295 31.111 29.527 45.344 14.231 14.232 28.508 22.985 45.342 29.528 16.284 6.327 34.894 10.655 62.142 11.898 27.305 1.246 36.023 1.54 105.549 1.54 69.524 0 78.242-.294 105.547-1.54 27.248-1.243 45.858-5.57 62.141-11.898 16.834-6.543 31.11-15.296 45.344-29.528 14.231-14.233 22.985-28.509 29.527-45.343 6.328-16.284 10.656-34.893 11.899-62.141 1.245-27.305 1.54-36.023 1.54-105.548 0-69.526-.295-78.243-1.54-105.548-1.243-27.249-5.571-45.858-11.899-62.141-6.542-16.835-15.296-31.111-29.527-45.343-14.233-14.232-28.51-22.985-45.344-29.527-16.283-6.33-34.893-10.656-62.14-11.9C378.241 44.294 369.523 44 300 44zm0 46.126c68.354 0 76.45.26 103.445 1.492 24.96 1.14 38.514 5.31 47.535 8.815 11.95 4.644 20.477 10.192 29.435 19.15 8.959 8.957 14.506 17.486 19.15 29.435 3.506 9.02 7.676 22.575 8.815 47.535 1.231 26.994 1.492 35.091 1.492 103.446 0 68.354-.26 76.451-1.492 103.445-1.139 24.96-5.31 38.515-8.815 47.536-4.644 11.949-10.191 20.477-19.15 29.435-8.958 8.958-17.486 14.506-29.435 19.15-9.02 3.506-22.576 7.676-47.535 8.814-26.99 1.232-35.086 1.493-103.445 1.493-68.36 0-76.455-.261-103.447-1.493-24.96-1.138-38.514-5.308-47.535-8.814-11.95-4.644-20.477-10.192-29.436-19.15-8.958-8.958-14.506-17.486-19.149-29.435-3.506-9.021-7.676-22.576-8.815-47.536-1.232-26.994-1.492-35.09-1.492-103.445 0-68.355.26-76.452 1.492-103.446 1.139-24.96 5.31-38.515 8.815-47.535 4.643-11.949 10.191-20.478 19.15-29.435 8.958-8.958 17.486-14.506 29.435-19.15 9.02-3.505 22.576-7.676 47.535-8.815 26.995-1.231 35.092-1.492 103.447-1.492z"/><path d="M300 385.332c-47.13 0-85.334-38.205-85.334-85.333 0-47.129 38.205-85.333 85.334-85.333 47.127 0 85.332 38.204 85.332 85.333 0 47.128-38.205 85.333-85.332 85.333zm0-216.792c-72.604 0-131.46 58.855-131.46 131.46 0 72.602 58.856 131.458 131.46 131.458 72.602 0 131.458-58.856 131.458-131.459 0-72.604-58.856-131.46-131.458-131.46zm167.372-5.194c0 16.966-13.754 30.72-30.72 30.72s-30.72-13.754-30.72-30.72 13.754-30.72 30.72-30.72 30.72 13.754 30.72 30.72z"/></svg><svg viewBox="0 0 30 31" id="phone" xmlns="http://www.w3.org/2000/svg"><path d="M26.25 21.025v4.42a1.25 1.25 0 01-1.163 1.247 20.15 20.15 0 01-1.337.058c-11.046 0-20-8.954-20-20 0-.345.019-.791.058-1.338A1.25 1.25 0 015.054 4.25h4.42a.625.625 0 01.623.563c.028.287.054.516.08.69.248 1.733.757 3.42 1.51 5a.57.57 0 01-.184.71L8.806 13.14a16.309 16.309 0 008.555 8.555l1.925-2.692a.577.577 0 01.716-.187 17.37 17.37 0 005 1.507c.174.024.403.05.688.08a.625.625 0 01.56.622z"/></svg><svg viewBox="0 0 30 31" id="pin" xmlns="http://www.w3.org/2000/svg"><path d="M15 14.875a3.125 3.125 0 110-6.25 3.125 3.125 0 010 6.25zM15 3a8.75 8.75 0 00-8.75 8.75C6.25 18.313 15 28 15 28s8.75-9.688 8.75-16.25A8.75 8.75 0 0015 3z"/></svg></svg>