<?xml version="1.0" ?><!DOCTYPE svg  PUBLIC '-//W3C//DTD SVG 1.1//EN'  'http://www.w3.org/Graphics/SVG/1.1/DTD/svg11.dtd'><svg viewBox="0 0 512 512" xmlns="http://www.w3.org/2000/svg" xmlns:xlink="http://www.w3.org/1999/xlink"><style>:root>svg{display:none}:root>svg:target{display:block}</style><svg viewBox="0 0 32 32" id="arrow-right" xmlns="http://www.w3.org/2000/svg"><path d="M22 9a1 1 0 0 0 0 1.42l4.6 4.6H3.06a1 1 0 1 0 0 2h23.52L22 21.59A1 1 0 0 0 22 23a1 1 0 0 0 1.41 0l6.36-6.36a.88.88 0 0 0 0-1.27L23.42 9A1 1 0 0 0 22 9Z" data-name="Layer 2"/></svg><svg data-name="Layer 3" id="delivery" viewBox="0 0 32 32" xmlns="http://www.w3.org/2000/svg"><defs><style>.bcls-1{fill:none;stroke:#3c4044;stroke-linecap:round;stroke-linejoin:round}</style></defs><path class="bcls-1" d="M22.94 9v13.6h-9.66a2.42 2.42 0 0 0-4.83 0H6V9ZM31 17.8v4.8h-1.61a2.42 2.42 0 0 0-4.83 0h-1.62V13h3.37Z"/><path class="bcls-1" d="M31 17.8v4.8h-1.61a2.42 2.42 0 0 0-4.83 0h-1.62v-4.8Z"/><ellipse class="bcls-1" cx="10.86" cy="22.6" rx="2.42" ry="2.4"/><ellipse class="bcls-1" cx="26.97" cy="22.6" rx="2.42" ry="2.4"/><path class="bcls-1" d="M1 10.6h2.61M1 13.8h2.61M1 17h2.61"/></svg><svg style="fill-rule:evenodd;clip-rule:evenodd;stroke-linejoin:round;stroke-miterlimit:2" viewBox="0 0 512 512" xml:space="preserve" id="facebook" xmlns="http://www.w3.org/2000/svg"><path d="m255.022 511.998.229.001h-.079l-.15-.001Zm1.806.001h-.079l.229-.001-.15.001Zm-2.588-.005.247.001h-.142l-.105-.001Zm3.415.001h-.142l.247-.001-.105.001Zm-4.169-.007.165.001-.132-.001h-.033Zm4.995 0-.132.001.165-.001h-.033Zm.826-.009-.058.001.223-.003-.165.002Zm-6.779-.002.223.003-.058-.001-.165-.002Zm7.604-.01-.135.002.275-.004-.14.002Zm-8.404-.002.275.004-.135-.002-.14-.002Zm9.228-.012-.182.003.254-.005-.072.002Zm-9.984-.002.254.005-.182-.003-.072-.002Zm-.937-.019.225.005-.04-.001-.185-.004Zm11.745.004-.04.001.225-.005-.185.004Zm-12.567-.025.309.008-.125-.003-.184-.005Zm13.39.005-.125.003.309-.008-.184.005Zm.823-.022-.201.006.316-.009-.115.003Zm-14.967-.003.316.009-.201-.006-.115-.003Zm-.72-.022.225.007-.212-.007-.194-.006.181.006Zm16.509 0-.212.007.225-.007.181-.006-.194.006Zm.821-.027-.112.004.345-.012-.233.008Zm-18.371-.008.345.012-.112-.004-.233-.008Zm-.749-.028.362.013-.201-.007-.161-.006Zm19.941.006-.201.007.362-.013-.161.006Zm-20.676-.036.354.015-.277-.011-.077-.004Zm21.495.004-.277.011.354-.015-.077.004Zm-22.525-.049.38.017-.093-.003-.287-.014Zm23.345.014-.093.003.38-.017-.287.014Zm-24.084-.048.394.018-.186-.008-.208-.01Zm24.902.01-.186.008.394-.018-.208.01Zm-25.63-.047.397.02-.279-.013-.118-.007Zm26.448.007-.279.013.397-.02-.118.007Zm.818-.043-.362.019.321-.017.378-.021-.337.019Zm-27.925.002.321.017-.362-.019-.337-.019.378.021Zm28.741-.048-.16.009.406-.023-.246.014Zm-29.844-.014.406.023-.16-.009-.246-.014Zm-.722-.043.405.024-.253-.014-.152-.01Zm31.382.01-.253.014.405-.024-.152.01Zm-32.071-.053.365.023-.34-.021-.342-.022.317.02Zm32.887.002-.34.021.365-.023.317-.02-.342.022Zm.814-.053-.122.008.387-.026-.265.018Zm-34.755-.018.387.026-.122-.008-.265-.018Zm-.721-.05.38.027-.208-.014-.172-.013Zm36.29.013-.208.014.38-.027-.172.013Zm-37.009-.064.349.025-.271-.019-.078-.006Zm37.822.006-.271.019.349-.025-.078.006Zm-38.789-.079.306.023-.074-.005-.232-.018Zm39.602.018-.074.005.306-.023-.232.018Zm.811-.063-.146.011.311-.025-.165.014Zm-41.157-.014.311.025-.146-.011-.165-.014Zm-.725-.059.264.022-.186-.015-.078-.007Zm42.694.007-.186.015.264-.022-.078.007Zm-43.492-.074.079.007-.013-.001-.066-.006Zm44.302.006-.013.001.079-.007-.066.006Zm.81-.071-.072.006.181-.016-.109.01Zm-45.965-.01.181.016-.072-.006-.109-.01Zm-.75-.068.135.013-.084-.008-.051-.005Zm47.523.005-.084.008.135-.013-.051.005ZM216 508.887C93.681 489.661 0 383.684 0 256 0 114.71 114.71 0 256 0c141.29 0 256 114.71 256 256 0 127.684-93.681 233.661-216 252.887V330h59.65L367 256h-71v-48.021c0-20.245 9.918-39.979 41.719-39.979H370v-63s-29.296-5-57.305-5C254.219 100 216 135.44 216 199.6V256h-65v74h65v178.887Z"/></svg><svg style="enable-background:new 0 0 56.7 56.7" xml:space="preserve" viewBox="0 0 56.7 56.7" id="instagram" xmlns="http://www.w3.org/2000/svg"><circle cx="28.1" cy="30" r="4.4"/><path d="M33.6 19.2h-11c-1.6 0-3 .5-3.9 1.4-.9.9-1.4 2.3-1.4 3.9v11c0 1.6.5 3 1.5 4 1 .9 2.3 1.4 3.9 1.4h10.9c1.6 0 3-.5 3.9-1.4 1-.9 1.5-2.3 1.5-3.9v-11c0-1.6-.5-2.9-1.4-3.9-1-1-2.3-1.5-4-1.5zm-5.5 17.6c-3.8 0-6.8-3.1-6.8-6.8 0-3.8 3.1-6.8 6.8-6.8s6.9 3 6.9 6.8-3.1 6.8-6.9 6.8zm7.1-12.3c-.9 0-1.6-.7-1.6-1.6s.7-1.6 1.6-1.6 1.6.7 1.6 1.6-.7 1.6-1.6 1.6z"/><path d="M28.3 5.2c-13.6 0-24.6 11-24.6 24.6 0 13.6 11 24.6 24.6 24.6 13.6 0 24.6-11 24.6-24.6.1-13.6-11-24.6-24.6-24.6zm13.1 30.4c0 2.3-.8 4.3-2.2 5.7-1.4 1.4-3.4 2.1-5.6 2.1H22.7c-2.2 0-4.2-.7-5.6-2.1-1.5-1.4-2.2-3.4-2.2-5.7v-11c0-4.6 3.1-7.8 7.8-7.8h11c2.3 0 4.2.8 5.6 2.2 1.4 1.4 2.1 3.3 2.1 5.6v11z"/></svg><svg style="enable-background:new 0 0 100 100" viewBox="0 0 100 100" xml:space="preserve" id="linkedin" xmlns="http://www.w3.org/2000/svg"><path d="M90 4H10c-3.3 0-6 2.7-6 6v80c0 3.3 2.7 6 6 6h80c3.3 0 6-2.7 6-6V10c0-3.3-2.7-6-6-6zM16.5 21.5c1.6-1.6 3.8-2.5 6-2.5s4.4.9 6 2.5c1.6 1.6 2.5 3.7 2.5 6s-.9 4.5-2.6 6.1c-1.6 1.5-3.7 2.4-5.8 2.4h-.2c-2.1.1-4.3-.8-5.9-2.4-1.6-1.6-2.5-3.8-2.5-6.1s.9-4.4 2.5-6zM31 83.1c0 1.6-1.4 2.9-3 2.9H17c-1.6 0-3-1.4-3-3V47c0-1.7 1.3-3 2.9-3H28c1.6 0 3 1.4 3 3v36.1zm55 .9c0 1-1 2-2 2H71c-1 0-2-1-2-2V61.6c0-1.8-.4-3.2-1.4-4.1-1.1-1.1-2.6-1.8-4.2-1.7-3.3 0-7.5 2.8-7.5 5.9v22.6c0 1.1-1.1 1.8-2 1.8h-13c-.9 0-2-.7-2-1.8V45.9c0-1.1 1.1-1.9 2-1.9h12c1 0 2 1 2 2v1.5c2.7-2.8 8.1-4.5 12-4.5H69c7.9 0 17 6.2 17 14.2V84z"/></svg><svg style="enable-background:new 0 0 24 24" viewBox="0 0 24 24" xml:space="preserve" id="star" xmlns="http://www.w3.org/2000/svg"><path d="m12.9 2.6 2.3 5c.1.3.4.5.7.6l5.2.8c.9 0 1.2 1 .6 1.6l-3.8 3.9c-.2.2-.3.6-.3.9l.9 5.4c.1.8-.7 1.5-1.4 1.1l-4.7-2.6c-.3-.2-.6-.2-.9 0l-4.7 2.6c-.7.4-1.6-.2-1.4-1.1l.9-5.4c.1-.3-.1-.7-.3-.9l-3.8-3.9C1.7 10 2 9 2.8 8.9L8 8.1c.3 0 .6-.3.7-.6l2.3-5c.5-.7 1.5-.7 1.9.1z"/></svg><svg style="enable-background:new 0 0 64 64" viewBox="0 0 64 64" xml:space="preserve" id="support" xmlns="http://www.w3.org/2000/svg"><path d="M46 22h-6.671l5.557-6.352A4.498 4.498 0 0 0 46 12.685V12.5c0-2.481-2.019-4.5-4.5-4.5S37 10.019 37 12.5V14h2v-1.5c0-1.379 1.121-2.5 2.5-2.5s2.5 1.121 2.5 2.5v.185c0 .606-.22 1.19-.619 1.646L37 21.624V24h9v-2zM54 24h2v-3h2v-2h-2V8h-2.618L48 18.764V21h6v3zm-3.882-5L54 11.236V19h-3.882z"/><path d="M50.405 32.627C57.596 31.061 63 24.653 63 17c0-8.822-7.178-16-16-16-7.653 0-14.061 5.404-15.627 12.595A25.033 25.033 0 0 0 26 13C12.215 13 1 24.215 1 38s11.215 25 25 25 25-11.215 25-25c0-1.807-.207-3.608-.595-5.373zM47 3c7.72 0 14 6.28 14 14s-6.28 14-14 14-14-6.28-14-14S39.28 3 47 3zm-2.039 34H43v2h1.949a18.897 18.897 0 0 1-4.847 11.688l-1.375-1.375-1.414 1.414 1.375 1.375A18.892 18.892 0 0 1 27 56.949V55h-2v1.949a18.897 18.897 0 0 1-11.688-4.847l1.375-1.375-1.414-1.414-1.375 1.375A18.892 18.892 0 0 1 7.051 39H9v-2H7.051a18.897 18.897 0 0 1 4.847-11.688l1.375 1.375 1.414-1.414-1.375-1.375A18.892 18.892 0 0 1 25 19.051V21h2v-1.961c1.438.076 2.862.318 4.255.72 1.156 6.611 6.374 11.829 12.986 12.986.401 1.393.643 2.817.72 4.255zM26 61C13.317 61 3 50.683 3 38s10.317-23 23-23c1.706 0 3.407.201 5.072.577-.042.47-.072.943-.072 1.423 0 .209.023.413.031.621A20.896 20.896 0 0 0 26 17C14.421 17 5 26.421 5 38s9.421 21 21 21 21-9.421 21-21c0-1.695-.212-3.381-.621-5.031.208.008.412.031.621.031.48 0 .953-.03 1.423-.072.376 1.665.577 3.366.577 5.072 0 12.683-10.317 23-23 23z"/><path d="M29 38a2.996 2.996 0 0 0-2-2.816V23h-2v12.184A2.996 2.996 0 0 0 23 38c0 1.654 1.346 3 3 3a2.95 2.95 0 0 0 1.285-.301l7.008 7.008 1.414-1.414-7.008-7.008A2.95 2.95 0 0 0 29 38zm-4 0a1 1 0 1 1 2 0 1 1 0 0 1-2 0zM56 35c-1.654 0-3 1.346-3 3 0 1.251.771 2.324 1.862 2.773A28.973 28.973 0 0 1 46.71 58.3l1.428 1.4a30.975 30.975 0 0 0 8.725-18.842A2.993 2.993 0 0 0 59 38c0-1.654-1.346-3-3-3zm0 4a1 1 0 1 1 0-2 1 1 0 0 1 0 2zM6.283 16.733c4.658-4.321 10.651-6.978 16.949-7.579A3.005 3.005 0 0 0 26 11c1.654 0 3-1.346 3-3s-1.346-3-3-3a2.993 2.993 0 0 0-2.858 2.137 31.053 31.053 0 0 0-18.218 8.13l1.359 1.466zM26 7a1 1 0 1 1 0 2 1 1 0 0 1 0-2z"/></svg><svg style="enable-background:new 0 0 100 100" viewBox="0 0 100 100" xml:space="preserve" id="twitter" xmlns="http://www.w3.org/2000/svg"><path d="M95.8 23.2c-.3-.3-.8-.4-1.2-.3-2.1.9-4.2 1.7-6.4 2.2 2.4-2.3 4.2-5.2 5.2-8.5.1-.4 0-.8-.3-1.1-.3-.3-.8-.3-1.1-.1-3.4 2.1-7 3.5-10.9 4.4-3.6-3.8-8.6-5.9-13.8-5.9-6 0-11.5 2.8-15.3 7.6-3.4 4.4-4.9 10.1-4 15.6-13.9-1-27-8-36-19.3-.2-.3-.5-.4-.9-.4-.3 0-.6.2-.8.5C8.7 21 7.8 24.5 7.8 28c0 5.5 2.2 10.6 5.9 14.3-1.6-.4-3.1-1-4.6-1.8-.3-.2-.7-.2-1 0-.3.2-.5.5-.5.9v.2c0 8 4.7 15.1 11.6 18.2-1.3 0-2.6-.1-3.9-.3-.3-.1-.7.1-.9.3-.2.3-.3.6-.2 1 2.3 7.2 8.3 12.4 15.5 13.6-5.9 4.1-13 6.3-20.2 6.3-1.4 0-2.9-.1-4.4-.3-.5-.1-.9.2-1.1.7-.2.4 0 .9.4 1.2C13.1 88 23 91 33.2 91h.1c33.5 0 53.5-27.9 53.5-54.9v-2c3.5-2.7 6.6-6 9-9.7.3-.4.3-.8 0-1.2z"/></svg><svg viewBox="0 0 32 32" id="user" xmlns="http://www.w3.org/2000/svg"><g data-name="user people person users man"><path d="M23.74 16.18a1 1 0 1 0-1.41 1.42A9 9 0 0 1 25 24c0 1.22-3.51 3-9 3s-9-1.78-9-3a9 9 0 0 1 2.63-6.37 1 1 0 0 0 0-1.41 1 1 0 0 0-1.41 0A10.92 10.92 0 0 0 5 24c0 3.25 5.67 5 11 5s11-1.75 11-5a10.94 10.94 0 0 0-3.26-7.82Z"/><path d="M16 17a7 7 0 1 0-7-7 7 7 0 0 0 7 7Zm0-12a5 5 0 1 1-5 5 5 5 0 0 1 5-5Z"/></g></svg></svg>