<svg id="Layer_1" style="fill:#ffffff;" height="512" viewBox="0 0 512 512"  xmlns="http://www.w3.org/2000/svg"><path d="m336 400c-8.836 0-16 7.164-16 16v32c0 8.836 7.164 16 16 16s16-7.164 16-16v-32c0-8.836-7.164-16-16-16z"/><path d="m288 400c-8.836 0-16 7.164-16 16v32c0 8.836 7.164 16 16 16s16-7.164 16-16v-32c0-8.836-7.164-16-16-16z"/><path d="m240 400c-8.836 0-16 7.164-16 16v32c0 8.836 7.164 16 16 16s16-7.164 16-16v-32c0-8.836-7.164-16-16-16z"/><circle cx="400" cy="432" r="16"/><circle cx="400" cy="80" r="16"/><circle cx="112" cy="80" r="16"/><path d="m432 0h-352c-26.467 0-48 21.533-48 48v416c0 26.467 21.533 48 48 48h352c26.467 0 48-21.533 48-48v-416c0-26.467-21.533-48-48-48zm-352 480c-8.822 0-16-7.178-16-16v-64h27.568l68.432 41.059v38.941zm368-16c0 8.822-7.178 16-16 16h-240v-48c0-5.62-2.949-10.828-7.768-13.72l-32.428-19.457 32.043-32.043c105.642 53.604 232.153-23.424 232.153-142.78 0-88.224-71.776-160-160-160s-160 71.776-160 160c0 50.562 23.581 95.714 60.317 125.056l-32.797 32.797c-20.17-12.102-21.652-13.853-27.52-13.853h-32v-320c0-8.822 7.178-16 16-16h352c8.822 0 16 7.178 16 16zm-228.687-155.313c-6.248-6.249-16.379-6.249-22.627 0l-17.578 17.578c-31.017-23.38-51.108-60.519-51.108-102.265 0-70.58 57.42-128 128-128s128 57.42 128 128c0 90.958-92.478 152.577-176.018 118.645l11.331-11.331c6.249-6.249 6.249-16.379 0-22.627z"/><path d="m272 144c0-8.836-7.164-16-16-16-52.935 0-96 43.065-96 96 0 8.836 7.164 16 16 16s16-7.164 16-16c0-35.29 28.71-64 64-64 8.836 0 16-7.164 16-16z"/><path d="m240 304c0 8.836 7.164 16 16 16 52.935 0 96-43.065 96-96 0-8.836-7.164-16-16-16s-16 7.164-16 16c0 35.29-28.71 64-64 64-8.836 0-16 7.164-16 16z"/><path d="m224 224c0 17.645 14.355 32 32 32s32-14.355 32-32-14.355-32-32-32-32 14.355-32 32z"/></svg>