<svg height="512pt" style="fill:#ffffff;" viewBox="0 -61 512 512" width="512pt" xmlns="http://www.w3.org/2000/svg"><path d="m279 100h-244c-19.300781 0-35 15.699219-35 35v160c0 19.300781 15.699219 35 35 35h77v30h-15c-8.285156 0-15 6.714844-15 15s6.714844 15 15 15h120c8.285156 0 15-6.714844 15-15s-6.714844-15-15-15h-15v-30h77c19.300781 0 35-15.699219 35-35v-160c0-19.300781-15.699219-35-35-35zm-107 260h-30v-30h30zm112-65c0 2.757812-2.242188 5-5 5h-244c-2.757812 0-5-2.242188-5-5v-160c0-2.757812 2.242188-5 5-5h244c2.757812 0 5 2.242188 5 5zm0 0"/><path d="m497 0h-138c-8.285156 0-15 6.714844-15 15v360c0 8.285156 6.714844 15 15 15h138c8.285156 0 15-6.714844 15-15v-360c0-8.285156-6.714844-15-15-15zm-123 30h108v30h-108zm0 330v-270h108v270zm0 0"/><path d="m443 315c0 8.285156-6.714844 15-15 15s-15-6.714844-15-15 6.714844-15 15-15 15 6.714844 15 15zm0 0"/></svg>