<?xml version="1.0" encoding="iso-8859-1"?>
<!-- Generator: Adobe Illustrator 19.0.0, SVG Export Plug-In . SVG Version: 6.00 Build 0)  -->
<svg version="1.1" id="Layer_1" xmlns="http://www.w3.org/2000/svg" xmlns:xlink="http://www.w3.org/1999/xlink" x="0px" y="0px"
	 viewBox="0 0 512 512" style="fill:#ffffff;" xml:space="preserve">
<g>
	<g>
		<path d="M505.752,6.248C501.75,2.247,496.324,0,490.667,0L21.332,0.03C9.55,0.03,0,9.581,0,21.363v469.303
			C0,502.448,9.552,512,21.333,512h469.333c11.782,0,21.333-9.552,21.333-21.333V21.333C512,15.676,509.753,10.249,505.752,6.248z
			 M469.333,469.333H42.667V42.695l426.667-0.027V469.333z"/>
	</g>
</g>
<g>
	<g>
		<path d="M179.52,274.645c-9.055,0-15.606,5.552-16.687,14.157c-1.041,8.357-1.67,13.4-14.562,13.4
			c-12.487,0-16.701-4.449-16.701-17.628v-57.331c0-14.591,5.852-17.445,15.963-17.445c10.419,0,14.831,3.534,15.231,12.201
			c0.004,0.098,0.01,0.198,0.018,0.296c0.533,7.219,5.918,14.502,16.741,14.502c5.043,0,16.772-1.761,16.772-18.064
			c0-20.649-16.75-41.553-48.761-41.553c-30.538,0-49.509,19.183-49.509,50.061v57.331c-0.003,31.462,18.297,50.244,48.947,50.244
			c32.378,0,49.32-21.089,49.32-41.921C196.292,276.423,184.563,274.645,179.52,274.645z"/>
	</g>
</g>
<g>
	<g>
		<path d="M290.495,239.972H277.12v-13.373c0-8.535-7.192-15.477-16.03-15.477c-8.69,0-16.031,7.087-16.031,15.477v13.373h-13.744
			c-8.472,0-15.108,7.121-15.108,16.211c0,9.035,6.494,15.849,15.108,15.849h13.744v13.746c0,8.469,7.041,15.103,16.031,15.103
			c8.988,0,16.03-6.635,16.03-15.103v-13.746h13.375c8.533,0,15.475-7.11,15.475-15.849
			C305.97,247.243,299.028,239.972,290.495,239.972z"/>
	</g>
</g>
<g>
	<g>
		<path d="M398.505,239.972h-13.375v-13.373c0-8.535-7.192-15.477-16.031-15.477c-8.688,0-16.03,7.087-16.03,15.477v13.373h-13.747
			c-8.472,0-15.108,7.121-15.108,16.211c0,9.035,6.497,15.849,15.108,15.849h13.747v13.746c0,8.469,7.041,15.103,16.03,15.103
			c8.988,0,16.031-6.635,16.031-15.103v-13.746h13.375c8.532,0,15.472-7.11,15.472-15.849
			C413.978,247.243,407.037,239.972,398.505,239.972z"/>
	</g>
</g>
<g>
</g>
<g>
</g>
<g>
</g>
<g>
</g>
<g>
</g>
<g>
</g>
<g>
</g>
<g>
</g>
<g>
</g>
<g>
</g>
<g>
</g>
<g>
</g>
<g>
</g>
<g>
</g>
<g>
</g>
</svg>
