<?xml version="1.0" encoding="utf-8"?><svg viewBox="0 0 1000 502.66" xmlns="http://www.w3.org/2000/svg" xmlns:xlink="http://www.w3.org/1999/xlink"><style>:root>svg{display:none}:root>svg:target{display:block}</style><svg viewBox="0 0 20 20" id="arrow" xmlns="http://www.w3.org/2000/svg"><g clip-path="url(#aa)"><path d="m5 7.5 5 5 5-5"/></g><defs><clipPath id="aa"><path d="M0 0h20v20H0z"/></clipPath></defs></svg><svg viewBox="0 0 90 90" id="benefits-star" xmlns="http://www.w3.org/2000/svg"><path d="m45 0 12.154 32.846L90 45 57.154 57.154 45 90 32.846 57.154 0 45l32.846-12.154L45 0Z"/></svg><svg viewBox="0 0 71 71" id="clients" xmlns="http://www.w3.org/2000/svg"><path d="m17.003 35.41 2.13-.017c.634 0 1.343-.062 1.961.073 2.022.443 2.477 2.224 2.474 3.986l-.014 1.592-2.75-.514c-.256-.099-.521-.165-.776-.268l-.603-.272c-.391-.199-.588-.08-1.01.005l-1.354.256c-.867.14-1.764.171-2.621.343-.204-2.206-.07-4.722 2.563-5.184Zm33.293-.03 2.146.009c1.132.001 2.055-.083 2.985.664l.222.197c.954.974.992 1.93.964 3.203l-.015 1.636c-.24-.073-.49-.075-.736-.115l-2.338-.54c-.717-.263-.877-.612-1.684-.444l-4.432.688c-.13-1.929-.131-4.617 2.221-5.207l.056-.014c.206-.054.4-.065.611-.076Zm1.014 6.667c1.66-.075 3.297 1.012 5.353.803.035 2.478-1.295 5.46-3.955 5.973-1.267.31-2.681-.4-3.54-1.291-1.278-1.33-1.771-3.239-1.745-5.038.138-.058.35-.042.502-.057l3.386-.39Zm-33.11-.039c.74-.06 1.487.226 2.2.394 1.022.239 2.07.464 3.122.458.102 2.561-1.225 5.273-3.851 5.93-2.697.523-4.723-1.97-5.185-4.403-.117-.617-.14-1.301-.142-1.93l3.856-.449Zm14.813-12.026h3.036c1.502.003 2.339-.115 3.62.877l.302.27c1.213 1.216 1.27 2.5 1.27 4.076v1.852l-3.562-.524-2.675-.814c-.566-.208-1.02-.03-1.577.126l-2.912.59c-.232.04-.47.032-.7.092l-.032-2.183c.001-1.103.041-2.24.813-3.125.64-.734 1.441-1.17 2.417-1.237Zm1.322 7.719c.545.02 1.096.258 1.619.407a20.03 20.03 0 0 0 3.87.692l.907.05c.16.008.346-.003.5.038-.047 2.965-1.54 6.64-4.732 7.354l-.658.089c-.443.013-.925.039-1.364-.027-2.736-.41-4.396-3.734-4.674-6.187-.06-.53-.033-1.095-.047-1.63.265-.085.546-.098.822-.13l.898-.139c.948-.16 1.906-.406 2.86-.517ZM15.253 50c.676-.043.866.622 1.205 1.098 1.375 1.931 3.401 1.988 4.873-.006.125-.169.556-.945.723-.986.524-.13 1.97.588 2.452.907-.392 1.438-.564 2.96-.618 4.45l-.012 4.21c-.122.037-.255.023-.382.024l-.77.003c-1.305 0-10.928.08-11.202-.056-.573-.285-.661-.752-.663-1.32l-.004-3.05c.002-2.657.68-3.785 3.186-4.816.4-.165.795-.34 1.212-.458Zm40.213.044c.632-.186 2.927.968 3.357 1.379.99.945 1.355 2.065 1.383 3.415l.007 2.753c0 2.106-.24 2.11-2.109 2.11L48.71 59.7h-1.63l-.011-2.625-.182-3.357c-.087-1.17-.187-1.588-.452-2.74l1.162-.513c1.242-.534 1.25-.643 2.035.531 1.358 2.03 3.485 2.081 4.98.075.232-.311.508-.859.855-1.027ZM17.881 14.149c1.022-.014 1.282.94 1.648 1.723l.916 1.891c.149.276.145.442.464.482l2.456.3c.833.112 2.125.055 2.129 1.232.001.602-.726 1.108-1.116 1.473l-2.117 1.979c.07.282.085.581.12.87l.157.942c.122.7.334 1.414.406 2.119.082.805-.604 1.362-1.425 1.086-.61-.205-1.185-.55-1.75-.856l-1.787-.928c-.21-.026-.656.279-.855.387l-1.698.89c-.443.222-1.184.738-1.697.598l-.04-.011c-1.396-.396-.742-1.842-.523-2.813l.335-1.81c.027-.157.188-.391.06-.513l-1.462-1.382c-.637-.583-1.33-1.067-1.606-1.916.332-1.353 1.33-1.18 2.495-1.346l2.078-.314c.34-.365.557-.893.776-1.339l.713-1.444c.317-.65.518-1.184 1.323-1.3Zm35.097.004c1.024-.059 1.29.887 1.663 1.66l.95 1.92c.4.716.234.436 1.207.573l1.486.25c.78.122 1.863.047 2.194.931.294.782-.451 1.294-.935 1.765-.485.472-.953.944-1.472 1.38-.47.395-.648.358-.546.99l.285 1.533c.123.592.58 2.028.327 2.564-.598 1.265-2.159.21-2.972-.229l-2.005-1.06c-.79.343-3.135 1.749-3.768 1.86l-.05.008c-1.345.222-1.369-.99-1.163-1.923l.611-3.113-1.746-1.623c-.376-.338-.816-.66-1.133-1.052l-.035-.043c-.48-.598-.547-1.437.33-1.74.541-.187 1.178-.208 1.746-.28l2.29-.29c.315-.337.512-.81.717-1.218l.803-1.541c.318-.618.446-1.151 1.216-1.322ZM35.289 6.489c1.204-.016 1.306.742 1.793 1.691l1.49 2.896c.338.6.257.51.926.636l3.355.501c.62.09 1.4.01 1.727.665l.117.274c.276.828-.519 1.375-1.06 1.846l-2.187 2.046c-.142.144-.402.34-.5.51-.068.114.403 3.03.462 3.402.172 1.074.715 2.585-.72 3.01-.501.148-1.526-.575-1.946-.798l-3.08-1.676-.081-.046c-.136-.056-.333.101-.45.16l-4.022 2.138c-.314.169-.561.283-.912.166-1.625-.54-.654-2.9-.444-4.168l.236-1.458c.043-.249.063-.49.144-.732L27.31 14.92c-.286-.28-.686-.596-.864-.96-.258-.53-.087-1.309.484-1.559l.047-.02c.479-.207 1.142-.186 1.662-.248l2.525-.36c.817-.147.797.049 1.223-.678l1.456-2.743c.35-.698.586-1.67 1.445-1.863ZM30.662 47.57c.617-.08.875.4 1.217.832 1.922 2.416 4.776 2.81 6.872.306.266-.319.804-1.289 1.346-1.147 2.839.742 4.559 3.5 4.855 6.286.113 1.068.07 2.178.07 3.25v1.523c0 .482.119 1.175-.334 1.49l-.036.025c-.205.14-.435.108-.672.11h-.841l-16.232-.005c-.272-.003-.666.015-.839-.25l-.044-.07c-.25-.398-.093-1.957-.093-2.479l.001-2.22c.005-3.337 1.268-6.518 4.73-7.652Z"/></svg><svg viewBox="0 0 71 71" id="expirence" xmlns="http://www.w3.org/2000/svg"><path d="M53.882 43.728c.477.423 1.012 1.276 1.564 1.818-.422.175-.85.528-1.237.782l-3.2 2.155-.705.43-.585-1.84c.254-.39.646-.68 1.005-.97l1.536-1.197c.536-.41 1.019-.864 1.622-1.178Zm-11.455-13.79c.232.459.57.87.871 1.286l8.308 11.596c.303.398.646.796.868 1.246-.25.276-.817.914-1.2 1.003l-.075-.05L41.08 31.105c.411-.438.942-.701 1.347-1.168Zm-25.489 9.229c1.085-.027.868.899.871 1.648.005 1.119-.058 2.278.055 3.39.328.016.86-.027.994.361l.014.042c.087.26.074.548.104.818.028.261.676.473.965.71l.207.181c.61.623.625 1.424.62 2.241l-3.468-.003-3.831-.013.045-.663c.043-.306.082-.648.203-.934.382-.91 1.405-1.011 1.425-1.724.035-1.265.203-.907 1.23-.988l.014-4.308c.002-.411.135-.622.552-.758Zm11.71-32.156c5.148-.128 5.957 7.765.06 8.217-5.417-.27-5.56-7.922-.06-8.217ZM17.474 50.23c.313-.05.721-.001 1.043 0l2.208.002c.253 0 .765-.054.984.048.97.449.206 1.162.021 1.798-.153.53-.235 1.088-.337 1.629l-.486 2.3c-.287 1.402-.64 1.09-1.854 1.09l-2.736-.001-2.038-.003c-.296-.001-.79.062-1.049-.08l-.185-.113c-.182-.14-.231-.374-.27-.588l-.78-4.226c-.23-.993-1.137-1.844.834-1.853l4.645-.003Zm38.595-4.185c.199-.052.328.035.507.118l1.805.782c.836.307 1.797.544 2.69.597.18.01.438-.078.494.113.708 2.44 2.21 4.375 4.084 6.04.287.255.598.483.873.75l-4.568 1.986c-.559-1.344-2.639-3.617-3.696-4.589-.135-.124-.405-.409-.575-.445-.267.24-.054.426.11.677.883 1.36 1.732 2.791 2.183 4.36.046.16.067.337.13.489l-1.816.058-2.243.004c-.238-1.539-.729-2.907-1.605-4.19-.138-.2-.358-.535-.626-.29.304 1.01.61 2.037.803 3.076.085.455.093.92.178 1.371l-8.96.022c.244-.066.867-.503 1.074-.657 1.56-1.166 2.82-2.975 3.186-4.906.105-.554.097-1.122.176-1.678l5.796-3.688Z"/><path d="M27.56 16.715c2.513-.066 4.78.265 6.966 1.654.65.413.816 1.106 1.024 1.802L36.08 22c.33 1.066.728 2.142.97 3.231 1.014.098 1.962.017 2.918.455 1.964.901 3.907 3.357.822 4.279-.814.243-1.765-.033-2.591-.049l-1.49-.005c-1.598-.006-1.935-.424-2.22-1.85l-.382-1.826-.861-2.812c-.074-.228-.173-.443-.24-.673 0 .952-.031 1.92.033 2.87l.371 4.224.012 3.342c-.002.585-.075 1.152-.11 1.734l-.263 3.554-.046 2.292-.354 6.477-.055 1.828c-.013.226-.067.441-.078.666l-.054 1.8c-.014.29-.074.576-.084.865l-.127 3.487c-.078.962-.987 1.705-1.93 1.703-1.872-.002-1.986-1.358-2.034-2.73l-.065-2.79c-.009-.312-.071-.61-.086-.917l-.053-2.136c-.019-.422-.088-.835-.095-1.258l.005-3.737c.008-.251.057-.492.075-.74l.059-1.981c-.084-.27.021-.611-.087-.875-.023.504-.125 1-.183 1.5l-.233 2.87-.012 10.112c0 .411.031.851-.019 1.257-.193 1.58-3.085 2.193-3.709.15-.117-.385-.136-.77-.183-1.166l-.262-2.992c-.056-.747-.157-1.51-.21-2.286l-.058-1.128c-.028-.325-.083-.636-.093-.965l.07-6.528c.024-.427.007-.863.006-1.291l-.078-3.814c0-.94.024-1.551.105-2.464l.32-3.07c.156-1.198.49-2.541.148-3.73-.373 1.523-.43 2.768-1.224 4.248-.606 1.13-2.938 4.165-4.204 4.533l-.052.015c-.28.083-.561.097-.844.012l-.061-.02c-.997-.302-1.54-1.478-.973-2.413.255-.42.709-.773 1.043-1.139 1.953-2.132 2.707-3.615 3.191-6.377l.84-5.324c.228-1.218.028-1.584 1.19-2.275 1.512-.9 3.258-1.326 5.004-1.428Z"/></svg><svg xml:space="preserve" viewBox="0 0 48 48" id="home" xmlns="http://www.w3.org/2000/svg"><path d="M42 48H28V35h-8v13H6V27a1 1 0 1 1 2 0v19h10V33h12v13h10V28a1 1 0 1 1 2 0v20z"/><path d="M47 27a.997.997 0 0 1-.691-.277L24 5.384 1.691 26.723a1 1 0 0 1-1.383-1.445L24 2.616l23.691 22.661A1 1 0 0 1 47 27zm-8-12a1 1 0 0 1-1-1V8h-6a1 1 0 1 1 0-2h8v8a1 1 0 0 1-1 1z"/></svg><svg viewBox="0 0 502.664 502.664" xml:space="preserve" id="icon" xmlns="http://www.w3.org/2000/svg"><path d="M153.821 358.226 0 274.337v-46.463l153.821-83.414v54.574L46.636 250.523l107.185 53.431v54.272zm26.273 29.358L282.103 115.08h32.227L212.084 387.584h-31.99zm168.749-29.358v-54.272l107.164-52.999-107.164-52.59v-53.927l153.821 83.522v46.183l-153.821 84.083z"/></svg><svg viewBox="0 0 24 24" id="input-email" xmlns="http://www.w3.org/2000/svg"><g clip-path="url(#ga)" stroke-width="1.5" stroke-linecap="round" stroke-linejoin="round"><path d="M3 7a2 2 0 0 1 2-2h14a2 2 0 0 1 2 2v10a2 2 0 0 1-2 2H5a2 2 0 0 1-2-2V7Z"/><path d="m3 7 9 6 9-6"/></g><defs><clipPath id="ga"><path d="M0 0h24v24H0z"/></clipPath></defs></svg><svg viewBox="0 0 25 24" id="input-phone" xmlns="http://www.w3.org/2000/svg"><g clip-path="url(#ha)"><path d="M5.5 4h4l2 5L9 10.5a11 11 0 0 0 5 5l1.5-2.5 5 2v4a2 2 0 0 1-2 2 16 16 0 0 1-15-15 2 2 0 0 1 2-2Z"/></g><defs><clipPath id="ha"><path transform="translate(.5)" d="M0 0h24v24H0z"/></clipPath></defs></svg><svg viewBox="0 0 24 25" id="phone" xmlns="http://www.w3.org/2000/svg"><g clip-path="url(#ia)"><path d="M5 4.5h4l2 5L8.5 11a11 11 0 0 0 5 5l1.5-2.5 5 2v4a2 2 0 0 1-2 2 16 16 0 0 1-15-15 2 2 0 0 1 2-2Z"/></g><defs><clipPath id="ia"><path transform="translate(0 .5)" d="M0 0h24v24H0z"/></clipPath></defs></svg><svg viewBox="0 0 30 30" id="pin" xmlns="http://www.w3.org/2000/svg"><path d="M15 1.875A10.325 10.325 0 0 0 4.688 12.188a10.208 10.208 0 0 0 2.077 6.187s.281.37.327.424L15 28.125l7.912-9.33c.04-.05.323-.42.323-.42v-.003a10.205 10.205 0 0 0 2.078-6.184A10.324 10.324 0 0 0 15 1.874Zm0 14.063a3.75 3.75 0 1 1 0-7.5 3.75 3.75 0 0 1 0 7.5Z"/></svg><svg viewBox="0 0 20 20" id="reviews-star" xmlns="http://www.w3.org/2000/svg"><path d="M9.524 1.464a.5.5 0 0 1 .952 0l1.657 5.1a.5.5 0 0 0 .475.346h5.364a.5.5 0 0 1 .294.904l-4.34 3.153a.5.5 0 0 0-.181.559l1.657 5.1a.5.5 0 0 1-.77.56l-4.338-3.153a.5.5 0 0 0-.588 0l-4.339 3.153a.5.5 0 0 1-.77-.56l1.658-5.1a.5.5 0 0 0-.182-.56L1.734 7.815a.5.5 0 0 1 .294-.904h5.364a.5.5 0 0 0 .475-.346l1.657-5.1Z"/></svg><svg viewBox="0 0 24 24" id="services-arrow" xmlns="http://www.w3.org/2000/svg"><g clip-path="url(#la)" stroke-width="2" stroke-linecap="round" stroke-linejoin="round"><path d="M19 12H5m14 0-6 6m6-6-6-6"/></g><defs><clipPath id="la"><path transform="matrix(-1 0 0 1 24 0)" d="M0 0h24v24H0z"/></clipPath></defs></svg><svg viewBox="0 0 30 30" id="slider-arrow" xmlns="http://www.w3.org/2000/svg"><g clip-path="url(#ma)" stroke-width="2" stroke-linecap="round" stroke-linejoin="round"><path d="M23.75 15H6.25m7.5 7.5L6.25 15m7.5-7.5L6.25 15"/></g><defs><clipPath id="ma"><path transform="matrix(-1 0 0 1 30 0)" d="M0 0h30v30H0z"/></clipPath></defs></svg><svg viewBox="0 0 28 28" id="star1" xmlns="http://www.w3.org/2000/svg"><path opacity=".2" d="m14.5.069 3.596 9.872 9.835 3.696-9.872 3.596-3.696 9.835-3.596-9.872L.93 13.5l9.873-3.596L14.5.069Z"/></svg><svg viewBox="0 0 30 30" id="telegram" xmlns="http://www.w3.org/2000/svg"><g clip-path="url(#oa)"><path fill-rule="evenodd" clip-rule="evenodd" d="M24.721 5.537A1.875 1.875 0 0 1 27.3 7.57l-2.835 17.196c-.275 1.659-2.095 2.61-3.616 1.784-1.273-.691-3.163-1.756-4.863-2.867-.85-.557-3.454-2.338-3.134-3.605.275-1.084 4.65-5.157 7.15-7.578.982-.951.534-1.5-.625-.625-2.877 2.172-7.497 5.476-9.025 6.406-1.347.82-2.05.96-2.89.82-1.532-.255-2.954-.65-4.114-1.131-1.567-.65-1.49-2.805 0-3.432l21.374-9Z"/></g><defs><clipPath id="oa"><path d="M0 0h30v30H0z"/></clipPath></defs></svg><svg viewBox="0 0 24 24" id="user" xmlns="http://www.w3.org/2000/svg"><g clip-path="url(#pa)" stroke-width="1.5" stroke-linecap="round" stroke-linejoin="round"><path d="M8 7a4 4 0 1 0 8 0 4 4 0 0 0-8 0ZM6 21v-2a4 4 0 0 1 4-4h4a4 4 0 0 1 4 4v2"/></g><defs><clipPath id="pa"><path d="M0 0h24v24H0z"/></clipPath></defs></svg><svg viewBox="0 0 30 30" id="viber" xmlns="http://www.w3.org/2000/svg"><path fill-rule="evenodd" clip-rule="evenodd" d="M20.845 3.285a27.375 27.375 0 0 0-11.944 0l-.423.094a6.131 6.131 0 0 0-4.605 4.475 24.334 24.334 0 0 0 0 11.971 6.131 6.131 0 0 0 4.305 4.4l.58 3.47a.625.625 0 0 0 1.033.363l3.414-3.054a27.372 27.372 0 0 0 7.64-.609l.425-.094a6.132 6.132 0 0 0 4.605-4.475 24.336 24.336 0 0 0 0-11.97 6.131 6.131 0 0 0-4.606-4.476l-.424-.095ZM9.956 7.753a1.027 1.027 0 0 0-.671.132h-.017a5.135 5.135 0 0 0-1.252 1.029c-.3.346-.462.696-.505 1.034-.025.2-.007.402.052.593l.022.013c.338.991.778 1.945 1.315 2.842a16.718 16.718 0 0 0 2.537 3.47l.03.042.048.035.029.033.035.03a16.951 16.951 0 0 0 3.477 2.55c1.444.787 2.32 1.158 2.847 1.313v.007c.153.048.293.07.434.07a2.013 2.013 0 0 0 1.206-.518c.406-.36.75-.784 1.017-1.255v-.01c.251-.474.166-.922-.196-1.225a15.153 15.153 0 0 0-2.352-1.688c-.56-.304-1.128-.12-1.358.188l-.491.62c-.253.307-.71.265-.71.265l-.013.007c-3.414-.871-4.325-4.327-4.325-4.327s-.043-.47.274-.71l.615-.495c.295-.24.5-.808.184-1.368a14.757 14.757 0 0 0-1.684-2.35.935.935 0 0 0-.55-.329l.002.002Zm5.768-1.503a.625.625 0 1 0 0 1.25c1.581 0 2.893.516 3.932 1.506a5.54 5.54 0 0 1 1.223 1.885c.273.704.398 1.455.366 2.208a.627.627 0 0 0 1.048.487.626.626 0 0 0 .202-.435 6.7 6.7 0 0 0-.451-2.712 6.804 6.804 0 0 0-1.505-2.318l-.013-.012c-1.288-1.231-2.92-1.859-4.802-1.859Zm-.043 2.055a.625.625 0 1 0 0 1.25h.022c1.14.081 1.97.461 2.55 1.085.597.643.906 1.441.882 2.429a.625.625 0 0 0 1.25.029c.03-1.297-.388-2.415-1.215-3.308v-.002c-.846-.908-2.008-1.388-3.405-1.482l-.021-.002-.063.001Zm-.023 2.094a.625.625 0 1 0-.066 1.247c.523.028.857.185 1.067.397.211.212.369.553.397 1.087a.624.624 0 0 0 1.22.181.626.626 0 0 0 .028-.247c-.04-.75-.275-1.413-.756-1.9-.484-.488-1.143-.725-1.89-.765Z"/></svg><svg viewBox="0 0 414 233" id="wave" xmlns="http://www.w3.org/2000/svg"><path d="M.667 233V21c16.586-2.833 62.626-14.52 119.919-3.5C227.167 38 207.664 46 279.317 46c57.323 0 113.451-30.667 134.35-46v233h-413Z" fill-opacity=".2"/></svg><svg viewBox="0 0 190 150" id="work-star" xmlns="http://www.w3.org/2000/svg"><path opacity=".2" d="m129.533 53.657 17.568 30.298 34.435 6.386-30.298 17.567-6.386 34.436-17.567-30.298-34.436-6.386 30.298-17.568 6.386-34.435Zm-97.583-.061 1.523 16.664 13.64 9.69-16.663 1.523-9.691 13.64-1.522-16.663-13.641-9.69 16.663-1.522 9.692-13.641ZM78.692.069l3.596 9.872 9.835 3.696-9.872 3.596-3.697 9.835-3.596-9.872-9.835-3.696 9.872-3.596L78.692.069Z"/></svg><svg viewBox="0 0 71 71" id="workers" xmlns="http://www.w3.org/2000/svg"><path d="M51.483 41.39c.3.368.232.485-.2.57.126-.206.185-.326.2-.57ZM12.785 29.604c.18-.024.627.99-.202.908l-.036-.014c-.524-.209-.15-.79.238-.894Zm45.35.001c.502-.095.85.436.389.81l-.193.024c-.541.024-.536-.537-.197-.834Zm-32.974-.035c.704-.028.753.54.193.844-.17.043-.388.11-.522-.041l.008-.303c.026-.188.18-.385.321-.5Zm20.333.102c.282-.08.645.603.68.752a1.976 1.976 0 0 1-.348.144c-.622-.025-1.01-.58-.332-.896Zm-2.308-5.332c.517-.144 1.015.539.257.883l-.03.005c-1.037.15-.705-.6-.227-.888Zm-15.626 0c.321-.06.494.225.58.503l.063.375c-.133.052-.265.062-.406.077l-.054-.002c-.787-.033-.765-.627-.182-.953Z"/><path d="M51.283 41.96c-.218.307-.193 1.038-.232 1.4l-.432 4.34-1.222-7.173c-.04-.15-.094-.355-.047-.507.866-.327 1.783.645 2.112 1.326l.021.045c-.015.244-.074.364-.2.569Zm-30.081-1.938c.16-.02.33-.005.492-.003.01.503-.13.972-.234 1.459l-.793 4.946c-.135.792-.27 1.867-.308.756-.045-.794-.13-1.574-.198-2.367l-.213-1.59c-.102-.682-.082-.905-.55-1.418.21-.871.937-1.592 1.804-1.783Zm18.465-2.901.278.012c.897.135.387 1.169.216 1.747l-2.221 7.236-.605 2.273c-.072-.089-.118-.41-.149-.531.012-.098-.037-.302-.046-.412l-.112-1.173c-.03-.467-.11-.914-.15-1.374l-.297-3.753c-.036-.796-.052-.668-.642-.82.049-.161.09-.333.189-.472l.126-.167c.78-.957 2.157-2.434 3.413-2.566ZM18.628 22.395c.419-.033.867-.048 1.281.037.176.23.245.765.447.825 2.094.622 3.99 2.49 4.442 4.647l.012.059c.075.356.076.711.058 1.074l-5.612.01-3.933.002c-.686 0-1.421-.05-2.1.034l-.059.007c.087-2.598 1.984-4.906 4.364-5.81.809-.306-.117-.795 1.1-.885Zm33.102-.001.029-.002c2.18-.11.943.623 1.826.971 1.941.765 3.803 2.585 4.16 4.694.055.328.056.672.073 1.003l-5.758-.013-6.05.044c.132-2.684 1.887-4.88 4.413-5.816.938-.348-.09-.823 1.307-.881Zm.023 7.823 3.318-.001c.813 0 1.685-.066 2.483.102-.026.212-.047.438-.132.636-.543 1.266.207.093.219 1.484.003.45.046.994-.148 1.413l-.02.042c-.214.447-.845.652-.956.922-.775 1.881-2.112 3.578-4.253 3.905-1.811.18-3.516-1.343-4.25-2.88-.173-.36-.312-.807-.563-1.118-.258-.32-.69-.346-.902-.741-.224-.42-.251-.92-.252-1.387-.001-.73.066-.615.516-.991l-.002-.24c-.202-.318-.206-.68-.295-1.035.29-.12.666-.101.977-.103l4.26-.008Zm-37.573.003 8.376-.001c.662 0 1.295-.004 1.95.118.036.456-.282.871-.256 1.3.193.32.433.277.373.742-.094.722.154 1.311-.474 1.848-.128.11-.422.204-.503.333-.147.234-.245.551-.369.804a8.424 8.424 0 0 1-1.32 1.958c-.356.434-.95.82-1.452 1.062-2.187 1.05-4.321-.407-5.434-2.312-.28-.479-.48-.996-.715-1.496-.784-.358-1.035-.835-1.03-1.708.007-1.283-.078-.808.627-1.504l-.648-1.032.876-.111Zm20.449-14.64c.518-.05 1.394-.1 1.883.08l.123.05c.467.219.216.808.76.993 3.021 1.023 4.892 3.764 5.22 6.908l-6.21-.019h-7.98c.073-.283.097-.581.154-.87.614-3.11 2.547-5.143 5.438-6.158.016-.506.131-.796.612-.984Zm21.883 23.985 3.605.867c2.827.863 2.454 1.818 2.617 4.222l.283 3.409c.09.909.454 2.249-.515 2.78l-.047.024a.857.857 0 0 1-.395.11h-8.497c-.776-.007-.912-.056-.756-.906a23.03 23.03 0 0 0 .39-3.765c.085-1.387.007-2.775-.112-4.155-1.158-.414.948-2.61 2.335-2.528l.12.243c.248.492-.332 1.943-.468 2.464l-1.726 6.342c1.47-2.836 2.635-5.952 3.166-9.107Zm-42.211.045c.085-.01.153-.023.237-.002.046.96.404 1.937.724 2.837l2.118 5.419c.123.264.235.537.377.791-.1-.974-.468-2.004-.751-2.934l-1.34-4.673c-.706-3.076 2.255-.64 2.807.524l-.503.433c-.2.834-.124 3.24-.008 4.082.018.703.133 1.377.244 2.068l.153 1.058c.202 1.139.725 1.752-.7 1.763h-8.58a.96.96 0 0 1-.434-.107l-.182-.098c-.837-.531-.58-1.624-.486-2.454l.415-4.118c.095-1.059-.096-2.461.947-3.143 1.087-.712 3.649-1.229 4.962-1.445Zm20.061-14.58h4.553c1.176.002 2.29-.048 3.452.145-.191.255-.24.523-.336.822l-.308.955.216.129c.34.23.594.554.668.966l.009.053c.157.922-.361 2.642-1.384 2.933l-.715 1.496c-.9 1.703-2.104 2.93-3.95 3.494-2.776.817-5.194-1.702-6.264-3.975-.192-.407-.235-1.003-.617-1.062-1.15-.175-1.409-1.794-1.272-2.738l.01-.062c.085-.581.406-1 .833-1.381-.012-.15-.103-.322-.157-.463l-.407-1.059c.76-.363 1.604-.248 2.422-.25l3.247-.004Zm7.434 12.4.08-.01c1.052-.113 4.121 1.007 5.096 1.385.578.224 1.214.327 1.418.978.255.814.385 1.698.542 2.535l1.077 6.583c.225 1.772-.265 2.148-2.114 2.15h-2.04l-8.333-.012.016-1.473c.006-.437.017-.67.18-1.066l1.401-3.575 1.539-4.674c.165-.513.637-2.622 1.138-2.82Zm-8.175 11.166c-.028-.37-.11-.69-.185-1.05l-.304-1.303-2.256-7.637c-.187-.776-.502-1.427.586-1.49.618-.036 1.07.331 1.505.721l1.098 1.044c.327.315.705.634.939 1.027l.112.183c-.487.56-.653.301-.696 1.146l-.392 4.892c-.078 1.05-.117 1.496-.326 2.532-.142.794-.23 1.56-.265 2.365l-.051.018c-.136.024-.314.002-.453.002l-9.89.014c-2.491.059-2.112-1.514-1.796-3.29l.41-2.342c.252-1.489.416-3.004.754-4.477.353-1.543.334-1.695 1.81-2.248 1.287-.482 3.843-1.316 5.241-1.289l3.7 10.727c.072.163.26.542.422.603l.037-.148Z"/></svg><svg viewBox="0 0 71 71" id="works" xmlns="http://www.w3.org/2000/svg"><path d="M42.853 46.044c1.826-.07 3.197 1.006 3.57 2.804.133.644.066 1.39.065 2.05l.014 4.28-3.26-.012-3.616-.082c-.02-.284 0-.583 0-.868l.004-3.711c0-.624-.015-1.23.11-1.845.308-1.5 1.615-2.496 3.113-2.616ZM17.456 6.487c.598-.064 1.252.241 1.29.926l.018 41.7c.724.03 5.84-.063 6.046.09.372.276 1.493 2.782 1.776 3.336l.556 1.06c.89 1.626.579 1.564-.898 1.565l-7.783.002-9.467-.011c-.323-.024-.497-.205-.7-.436.037-.173.143-.35.221-.507l1.738-3.49c.552-1.103.447-1.617 1.723-1.599l4.83.008-.015-41.107c.001-.7-.074-1.206.665-1.537Z"/><path d="m43.097 21.526.326-.01c.457.024.992.69 1.305.979l4.735 4.252c.447.401.94.77 1.346 1.213l.038.04c.045-.088-.01-.575-.01-.703l-.006-3.315c-.004-.718-.21-1.77.831-1.838.657-.043 1.342-.006 2.002-.005 1.11.002 1.814-.265 1.816 1.195l-.003 8.371c0 1-.01.701.743 1.394l4.555 4.167c.218.192.46.38.473.695.049 1.243-.88 1.113-1.672.432-.391-.336-.58-.29-1.098-.293l-1.656-.009c-.029.256-.01.527-.01.786l-.006 11.416c-.002 1.931-.158 3.46-2.12 4.45a3.89 3.89 0 0 1-1.797.426l-4.427.01c-.04-.407-.01-.845-.01-1.255l-.003-2.845c-.001-1.844.026-3.479-1.198-5-2.467-2.876-7.118-2.556-8.902.858-.275.526-.433 1.078-.564 1.654l-.03.119c-.075.3-.066.615-.067.923l-.01 5.54-3.538-.008c-.525 0-1.13.055-1.646-.024-1.525-.231-2.57-1.522-2.97-2.944-.122-.438-.077-.938-.077-1.39l-.002-8.786c0-1.265.067-2.577-.04-3.836l-2.169.01c-.11.005-.18.05-.253.13-1.206 1.328-2.213.301-1.85-.563.122-.288.54-.568.77-.783l6.77-6.206 9.94-8.957c.147-.126.303-.22.484-.29Zm.247 4.441-.376.179c-.385.2-.745.517-1.077.795l-8.136 7.211c-.155.15-.239.346-.39.478l9.945.081 8.587-.002c.432 0 .877.017 1.306-.039l.109-.014c-.294-.325-.545-.63-.876-.931l-6.518-5.693c-.835-.727-1.562-1.586-2.574-2.065Z"/></svg></svg>