<svg xmlns="http://www.w3.org/2000/svg" width="71" height="71" viewBox="0 0 71 71" fill="none">
  <path d="M17.0031 35.4104L19.1326 35.3929C19.7666 35.3932 20.4758 35.331 21.0944 35.4664C23.1163 35.9086 23.571 37.6904 23.5682 39.4517L23.5536 41.0435L20.8031 40.5301C20.5477 40.4315 20.2829 40.3651 20.0277 40.2617L19.4246 39.9896C19.034 39.7912 18.8366 39.9092 18.4159 39.9954L17.0612 40.251C16.1942 40.3918 15.2973 40.4223 14.4398 40.5937C14.2357 38.3882 14.3708 35.8722 17.0031 35.4104Z" fill="#1E0F3A"/>
  <path d="M50.296 35.3809L52.4419 35.3888C53.5744 35.3904 54.497 35.3059 55.4273 36.0528L55.6492 36.2503C56.6026 37.2236 56.6407 38.1801 56.6131 39.4526L56.5981 41.089C56.3581 41.0162 56.1086 41.0137 55.8623 40.974L53.5244 40.4334C52.8072 40.1713 52.6468 39.8215 51.8403 39.9904L47.4084 40.6784C47.278 38.749 47.2767 36.0605 49.629 35.4709L49.6851 35.4571C49.8906 35.4034 50.0848 35.3916 50.296 35.3809Z" fill="#1E0F3A"/>
  <path d="M51.3106 42.0466C52.9701 41.9721 54.6071 43.0589 56.6633 42.8495C56.6984 45.3284 55.3684 48.3094 52.7084 48.8229C51.4413 49.1339 50.0266 48.4233 49.1689 47.5316C47.89 46.2018 47.3968 44.2931 47.4228 42.4941C47.5612 42.4358 47.7736 42.4519 47.9251 42.4368L51.3106 42.0466Z" fill="#1E0F3A"/>
  <path d="M18.1999 42.0081C18.9407 41.9483 19.6868 42.2344 20.4009 42.4016C21.4223 42.6408 22.47 42.8661 23.5222 42.8597C23.6237 45.4212 22.297 48.1328 19.6707 48.7898C16.9737 49.3129 14.9483 46.8191 14.4863 44.3874C14.3689 43.7695 14.3467 43.0855 14.3438 42.4573L18.1999 42.0081Z" fill="#1E0F3A"/>
  <path d="M33.013 29.9821L36.0488 29.9811C37.5511 29.9849 38.3877 29.8668 39.6692 30.8585L39.9708 31.1297C41.1838 32.3447 41.2403 33.6293 41.2414 35.2051L41.2403 37.0569L37.6791 36.5328L35.004 35.7187C34.4378 35.5107 33.9833 35.6886 33.4274 35.8448L30.5155 36.4347C30.2826 36.4742 30.0447 36.4666 29.8151 36.5271L29.7832 34.3439C29.7843 33.2408 29.8241 32.1038 30.5961 31.2191C31.2368 30.4849 32.037 30.0487 33.013 29.9821Z" fill="#1E0F3A"/>
  <path d="M34.3353 37.7012C34.8804 37.7217 35.4306 37.9587 35.9537 38.1085C37.2063 38.467 38.5257 38.6953 39.8233 38.8L40.7313 38.85C40.891 38.8577 41.0768 38.8474 41.2314 38.8883C41.1837 41.8533 39.6908 45.5282 36.4986 46.242L35.8414 46.3306C35.3984 46.3442 34.9161 46.3699 34.4773 46.3041C31.7409 45.8937 30.0811 42.5696 29.803 40.1168C29.7428 39.5865 29.77 39.0223 29.7559 38.4876C30.0213 38.4016 30.3025 38.389 30.5781 38.3567L31.4761 38.2181C32.4243 38.0574 33.382 37.8117 34.3353 37.7012Z" fill="#1E0F3A"/>
  <path d="M15.2528 50C15.9294 49.9571 16.119 50.6218 16.4581 51.0983C17.8325 53.0295 19.859 53.0861 21.3313 51.0923C21.4562 50.9233 21.8875 50.147 22.0537 50.106C22.5782 49.9767 24.0234 50.6941 24.5058 51.0132C24.1139 52.4507 23.9422 53.9729 23.8877 55.4628L23.8759 59.6734C23.7545 59.7099 23.6209 59.696 23.4942 59.6967L22.7248 59.6999C21.4191 59.7003 11.7958 59.7793 11.5224 59.6435C10.9488 59.3586 10.8608 58.8923 10.8591 58.3244L10.8555 55.2738C10.8567 52.6171 11.5354 51.4893 14.0409 50.4579C14.4409 50.2931 14.8359 50.1178 15.2528 50Z" fill="#1E0F3A"/>
  <path d="M55.4658 50.0435C56.0983 49.8576 58.3928 51.0119 58.8226 51.4227C59.8126 52.3683 60.1784 53.4877 60.2063 54.8376L60.2129 57.5909C60.2128 59.6967 59.9729 59.7014 58.1042 59.7009L48.7093 59.6999L47.0781 59.6994L47.0675 57.0754L46.8862 53.7178C46.7993 52.5485 46.6992 52.1302 46.4336 50.9772L47.5959 50.4649C48.8377 49.9311 48.8451 49.8222 49.6306 50.9963C50.9887 53.0264 53.1164 53.0774 54.6115 51.0707C54.8431 50.7597 55.1191 50.2123 55.4658 50.0435Z" fill="#1E0F3A"/>
  <path d="M17.8811 14.1486C18.9029 14.135 19.1632 15.0896 19.5292 15.8719L20.4445 17.7633C20.5936 18.0393 20.5901 18.2054 20.909 18.2447L23.3649 18.5458C24.1982 18.6569 25.4904 18.5997 25.4936 19.7772C25.4952 20.3788 24.7679 20.8854 24.378 21.2505L22.2605 23.2288C22.3315 23.5108 22.3458 23.8104 22.3809 24.0989L22.5375 25.0405C22.6603 25.7407 22.8725 26.4546 22.9441 27.1598C23.0259 27.9654 22.3398 28.5219 21.519 28.2459C20.9088 28.0407 20.3337 27.6953 19.7696 27.3895L17.9817 26.4625C17.7718 26.4355 17.3258 26.7405 17.1266 26.849L15.4291 27.7381C14.9856 27.9607 14.2455 28.4766 13.732 28.3374L13.6921 28.3258C12.2963 27.9298 12.9501 26.4844 13.1691 25.5134L13.5036 23.7028C13.531 23.5456 13.6922 23.312 13.5648 23.1896L12.1023 21.808C11.4646 21.2251 10.7716 20.7409 10.4961 19.8915C10.8284 18.5389 11.8265 18.7129 12.9915 18.5462L15.0694 18.2317C15.4089 17.8668 15.6261 17.339 15.8449 16.8931L16.5581 15.4495C16.8751 14.7985 17.0759 14.2646 17.8811 14.1486Z" fill="#1E0F3A"/>
  <path d="M52.9779 14.153C54.0021 14.094 54.2682 15.0396 54.6414 15.813L55.5914 17.7324C55.9916 18.4492 55.8255 18.1694 56.798 18.3061L58.2845 18.5557C59.0636 18.6783 60.1465 18.6034 60.4782 19.4874C60.7716 20.2689 60.0267 20.7805 59.5427 21.2518C59.0576 21.7241 58.5902 22.1958 58.0712 22.632C57.6008 23.0273 57.4233 22.9905 57.5246 23.6228L57.8095 25.1552C57.9335 25.7467 58.3903 27.1827 58.1368 27.7189C57.5387 28.9844 55.9784 27.9297 55.1648 27.4904L53.1601 26.4299C52.3691 26.7725 50.0253 28.1786 49.3918 28.2903L49.3424 28.2982C47.9973 28.5197 47.9732 27.3089 48.1789 26.3745L48.7903 23.2617L47.0435 21.6394C46.6683 21.3014 46.2283 20.9793 45.9106 20.5873L45.8761 20.544C45.3961 19.9459 45.3291 19.1071 46.2057 18.8039C46.7471 18.6166 47.3845 18.5955 47.9523 18.5242L50.2421 18.2338C50.5573 17.8968 50.7536 17.4245 50.959 17.0165L51.7622 15.4746C52.0802 14.8573 52.2077 14.3238 52.9779 14.153Z" fill="#1E0F3A"/>
  <path d="M35.2887 6.48851C36.4928 6.47333 36.5947 7.2313 37.0823 8.18043L38.5727 11.0761C38.9105 11.6767 38.8291 11.5864 39.4984 11.7118L42.8533 12.2132C43.4739 12.3038 44.2526 12.2234 44.5802 12.8777L44.6972 13.1523C44.9729 13.9801 44.1785 14.5272 43.6376 14.9983L41.4501 17.0438C41.3083 17.1884 41.0484 17.3848 40.9492 17.5538C40.8825 17.6675 41.353 20.5849 41.4122 20.9556C41.5837 22.0304 42.1274 23.5411 40.6925 23.9653C40.1906 24.1136 39.1661 23.3915 38.7465 23.1681L35.6659 21.4922L35.5848 21.4459C35.4486 21.3895 35.2525 21.5472 35.1346 21.606L31.1126 23.7445C30.7987 23.9127 30.5517 24.0266 30.2015 23.9101C28.5758 23.3694 29.5465 21.0095 29.757 19.7423L29.9926 18.2843C30.0358 18.0352 30.0555 17.7935 30.1367 17.5521L27.3114 14.9198C27.0246 14.6398 26.6248 14.3236 26.4472 13.9594C26.1894 13.4306 26.3601 12.651 26.9309 12.4014L26.9785 12.3815C27.4566 12.174 28.1198 12.1953 28.6401 12.1327L31.1647 11.7721C31.9823 11.6262 31.9622 11.8218 32.3883 11.0948L33.8441 8.35188C34.1948 7.65447 34.4297 6.68269 35.2887 6.48851Z" fill="#1E0F3A"/>
  <path d="M30.6623 47.5691C31.2785 47.4896 31.5366 47.9708 31.8793 48.4016C33.8015 50.8184 36.6548 51.2117 38.7505 48.7078C39.0168 48.3895 39.5553 47.4194 40.0968 47.5609C42.9359 48.3029 44.656 51.0604 44.9518 53.8469C45.0651 54.9148 45.0216 56.0251 45.0225 57.0978L45.0226 58.6201C45.0221 59.1021 45.1409 59.7954 44.6878 60.1106L44.652 60.1347C44.4472 60.2759 44.217 60.2431 43.9795 60.2443L43.139 60.2453L26.9069 60.2399C26.6354 60.237 26.2405 60.2546 26.0684 59.9897L26.0238 59.9196C25.7748 59.5215 25.9315 57.9627 25.9313 57.4411L25.9323 55.2216C25.9369 51.8835 27.2001 48.7025 30.6623 47.5691Z" fill="#1E0F3A"/>
</svg>
