<svg xmlns="http://www.w3.org/2000/svg" width="71" height="71" viewBox="0 0 71 71" fill="none">
  <path d="M53.8823 43.7285C54.3592 44.1508 54.8935 45.0036 55.446 45.546C55.0241 45.721 54.596 46.0743 54.2094 46.3278L51.0097 48.4834L50.3038 48.9123L49.7188 47.0733C49.9727 46.6824 50.3654 46.3929 50.7243 46.1027L52.2602 44.9062C52.7956 44.4953 53.2786 44.0421 53.8823 43.7285Z" fill="#1E0F3A"/>
  <path d="M42.4267 29.9375C42.6591 30.3967 42.9976 30.8087 43.2984 31.224L51.6056 42.8198C51.9086 43.2184 52.2524 43.6162 52.4744 44.0662C52.2235 44.342 51.6573 44.9805 51.2745 45.0691L51.1993 45.0185L41.0801 31.1052C41.4914 30.6672 42.0223 30.4038 42.4267 29.9375Z" fill="#1E0F3A"/>
  <path d="M16.9379 39.1666C18.023 39.14 17.8059 40.0659 17.8093 40.8147C17.8143 41.9335 17.7513 43.0928 17.8644 44.2043C18.1918 44.221 18.7242 44.1779 18.8582 44.566L18.8718 44.6082C18.9585 44.8683 18.9457 45.1555 18.9755 45.4263C19.004 45.6873 19.6517 45.8986 19.9408 46.1353L20.1475 46.3172C20.7589 46.9402 20.7734 47.7409 20.7688 48.558L17.3 48.5553L13.4688 48.542L13.5141 47.8786C13.5575 47.5728 13.5962 47.231 13.7167 46.9447C14.0992 46.0358 15.1218 45.9335 15.1419 45.2205C15.1772 43.9558 15.3454 44.3138 16.3727 44.2334L16.3857 39.9245C16.3883 39.514 16.5206 39.3032 16.9379 39.1666Z" fill="#1E0F3A"/>
  <path d="M28.6483 7.01132C33.7964 6.88279 34.6049 14.7762 28.7084 15.2277C23.2914 14.9576 23.148 7.30646 28.6483 7.01132Z" fill="#1E0F3A"/>
  <path d="M17.4738 50.2297C17.7872 50.1792 18.1955 50.2289 18.5174 50.2291L20.7254 50.2317C20.9778 50.2321 21.4897 50.1782 21.7093 50.2799C22.6788 50.7288 21.9147 51.4416 21.7302 52.0783C21.5771 52.6071 21.4947 53.1659 21.3934 53.7069L20.9075 56.0072C20.6203 57.4087 20.2676 57.0972 19.0527 57.0978L16.3174 57.0959L14.2791 57.0927C13.9829 57.0919 13.4898 57.1549 13.2304 57.0139L13.0453 56.8995C12.8628 56.7596 12.8136 56.5257 12.7748 56.3122L11.9944 52.0857C11.7642 51.0934 10.858 50.2419 12.8285 50.2333L17.4738 50.2297Z" fill="#1E0F3A"/>
  <path d="M56.0688 46.0448C56.2677 45.9933 56.3973 46.0795 56.5764 46.1632L58.3808 46.9445C59.2169 47.2522 60.1778 47.4895 61.0719 47.5416C61.2509 47.552 61.5091 47.4644 61.5646 47.655C62.2732 50.0942 63.7759 52.0299 65.6489 53.695C65.9357 53.9499 66.2466 54.178 66.522 54.4446L61.9543 56.4312C61.3951 55.087 59.315 52.8135 58.258 51.842C58.1234 51.7183 57.8527 51.4334 57.6828 51.3974C57.4164 51.6376 57.6292 51.8231 57.7924 52.0741C58.6759 53.4337 59.5251 54.8653 59.976 56.4346C60.0219 56.5941 60.0426 56.7707 60.1056 56.9225L58.2897 56.9808L56.0468 56.9851C55.809 55.4463 55.3181 54.0781 54.442 52.7959C54.3042 52.5942 54.0837 52.2597 53.8156 52.5048C54.1204 53.5159 54.4261 54.542 54.6192 55.581C54.7036 56.0359 54.7124 56.5017 54.7966 56.9524L45.8379 56.9741C46.0811 56.9085 46.7037 56.4712 46.9109 56.3165C48.4701 55.1512 49.7308 53.3418 50.0973 51.4111C50.2024 50.8574 50.1942 50.2887 50.2727 49.7326L56.0688 46.0448Z" fill="#1E0F3A"/>
  <path d="M27.5602 16.7149C30.0729 16.649 32.3395 16.98 34.526 18.3692C35.1752 18.7817 35.3422 19.4747 35.5498 20.171L36.0814 21.9996C36.4118 23.066 36.8094 24.1416 37.0512 25.231C38.0655 25.3294 39.0132 25.2479 39.9693 25.6865C41.9329 26.5873 43.8765 29.0428 40.7915 29.9645C39.9771 30.2077 39.0263 29.9319 38.1997 29.9163L36.7109 29.9112C35.1125 29.9055 34.7748 29.4875 34.4908 28.0605L34.1077 26.2353L33.2468 23.4229C33.1733 23.1945 33.0739 22.9796 33.0074 22.7502C33.0063 23.7019 32.9756 24.6708 33.0398 25.6202L33.4112 29.8438L33.4227 33.1864C33.4208 33.7707 33.348 34.3379 33.3127 34.9196L33.05 38.4743L33.0041 40.7657L32.6503 47.243L32.5949 49.071C32.5824 49.2967 32.5283 49.5121 32.517 49.7373L32.4632 51.5377C32.4487 51.8273 32.3887 52.1129 32.3788 52.4024L32.2525 55.8887C32.1745 56.8511 31.2647 57.5938 30.3212 57.5924C28.45 57.5895 28.3355 56.2337 28.2876 54.8611L28.2228 52.0711C28.2144 51.7605 28.1518 51.4621 28.137 51.1549L28.0839 49.0187C28.065 48.5971 27.9959 48.1841 27.9892 47.7613L27.9936 44.0241C28.0022 43.7729 28.0513 43.532 28.0694 43.2833L28.1278 41.3026C28.0445 41.0326 28.1493 40.6917 28.0405 40.4275C28.0184 40.9315 27.9162 41.4278 27.8577 41.9282L27.6253 44.7975L27.6131 54.9104C27.6135 55.321 27.6442 55.761 27.5944 56.1672C27.401 57.7474 24.5091 58.3602 23.8852 56.3164C23.7678 55.9319 23.7491 55.5476 23.702 55.1509L23.4397 52.1588C23.384 51.4117 23.2827 50.6484 23.2295 49.8731L23.1721 48.7452C23.1436 48.42 23.0892 48.1085 23.0794 47.7797L23.1495 41.2523C23.1729 40.8254 23.1562 40.3886 23.1555 39.9609L23.0775 36.1473C23.077 35.2067 23.1014 34.5955 23.1819 33.6827L23.5024 30.6128C23.6576 29.4153 23.9913 28.0716 23.6501 26.8823C23.2772 28.4055 23.2202 29.651 22.4261 31.1309C21.8203 32.2601 19.4885 35.2964 18.2222 35.6642L18.1703 35.6788C17.8898 35.7623 17.6088 35.7759 17.3261 35.6911L17.2646 35.6718C16.2681 35.3686 15.7256 34.1928 16.2916 33.2584C16.5465 32.8376 17.0006 32.4847 17.3352 32.1193C19.2876 29.9872 20.0423 28.5042 20.5263 25.7423L21.3652 20.4182C21.5944 19.1999 21.3943 18.8336 22.5553 18.1427C24.0682 17.2422 25.8142 16.8166 27.5602 16.7149Z" fill="#1E0F3A"/>
</svg>
