<svg xmlns="http://www.w3.org/2000/svg" width="30" height="30" viewBox="0 0 30 30" fill="none">
  <g clip-path="url(#clip0_428_2740)">
    <path fill-rule="evenodd" clip-rule="evenodd" d="M24.7213 5.53746C25.0302 5.40745 25.3683 5.36261 25.7004 5.4076C26.0325 5.4526 26.3464 5.58579 26.6096 5.79331C26.8728 6.00083 27.0755 6.2751 27.1967 6.58756C27.3179 6.90002 27.3531 7.23926 27.2988 7.56996L24.4637 24.7662C24.1887 26.425 22.3688 27.3762 20.8475 26.55C19.575 25.8587 17.685 24.7937 15.985 23.6825C15.135 23.1262 12.5313 21.345 12.8513 20.0775C13.1263 18.9937 17.5013 14.9212 20.0013 12.5C20.9825 11.5487 20.535 11 19.3763 11.875C16.4988 14.0475 11.8788 17.3512 10.3513 18.2812C9.00375 19.1012 8.30125 19.2412 7.46125 19.1012C5.92875 18.8462 4.5075 18.4512 3.3475 17.97C1.78 17.32 1.85625 15.165 3.34625 14.5375L24.7213 5.53746Z" fill="#1E0F3A"/>
  </g>
  <defs>
    <clipPath id="clip0_428_2740">
      <rect width="30" height="30" fill="white"/>
    </clipPath>
  </defs>
</svg>
