<svg xmlns="http://www.w3.org/2000/svg" width="30" height="30" viewBox="0 0 30 30" fill="none">
  <path fill-rule="evenodd" clip-rule="evenodd" d="M20.845 3.28506C16.9123 2.40596 12.834 2.40596 8.90126 3.28506L8.47751 3.37881C7.37128 3.62613 6.35527 4.17529 5.54234 4.96526C4.72942 5.75524 4.1514 6.75511 3.87251 7.85381C2.87563 11.782 2.87563 15.8969 3.87251 19.8251C4.13848 20.8729 4.67676 21.8318 5.4328 22.6045C6.18883 23.3772 7.13573 23.9363 8.17751 24.2251L8.75876 27.6951C8.77731 27.8052 8.82507 27.9084 8.89705 27.9939C8.96903 28.0794 9.06261 28.144 9.16804 28.181C9.27347 28.218 9.38689 28.2261 9.4965 28.2044C9.60611 28.1827 9.70789 28.132 9.79126 28.0576L13.205 25.0038C15.7676 25.1602 18.3395 24.9553 20.845 24.3951L21.27 24.3013C22.3762 24.054 23.3922 23.5048 24.2052 22.7149C25.0181 21.9249 25.5961 20.925 25.875 19.8263C26.8718 15.8981 26.8718 11.7832 25.875 7.85506C25.596 6.7562 25.0178 5.75622 24.2046 4.96623C23.3915 4.17624 22.3752 3.62718 21.2688 3.38006L20.845 3.28506ZM9.95626 7.75256C9.72394 7.71874 9.48705 7.7655 9.28501 7.88506H9.26751C8.79876 8.16006 8.37626 8.50631 8.01626 8.91381C7.71626 9.26006 7.55376 9.61006 7.51126 9.94756C7.48626 10.1476 7.50376 10.3501 7.56251 10.5413L7.58501 10.5538C7.92251 11.5451 8.36251 12.4988 8.90001 13.3963C9.59307 14.6569 10.4459 15.8228 11.4375 16.8651L11.4675 16.9076L11.515 16.9426L11.5438 16.9763L11.5788 17.0063C12.6247 18.0009 13.7933 18.8578 15.0563 19.5563C16.5 20.3426 17.3763 20.7138 17.9025 20.8688V20.8763C18.0563 20.9238 18.1963 20.9451 18.3375 20.9451C18.7857 20.9119 19.2099 20.7298 19.5425 20.4276C19.9488 20.0676 20.2925 19.6438 20.56 19.1726V19.1638C20.8113 18.6888 20.7263 18.2413 20.3638 17.9376C19.6356 17.3013 18.8483 16.7363 18.0125 16.2501C17.4525 15.9463 16.8838 16.1301 16.6538 16.4376L16.1625 17.0576C15.91 17.3651 15.4525 17.3226 15.4525 17.3226L15.44 17.3301C12.0263 16.4588 11.115 13.0026 11.115 13.0026C11.115 13.0026 11.0725 12.5326 11.3888 12.2926L12.0038 11.7976C12.2988 11.5576 12.5038 10.9901 12.1875 10.4301C11.7045 9.59351 11.1406 8.8064 10.5038 8.08006C10.3649 7.90911 10.1701 7.79269 9.95376 7.75131L9.95626 7.75256ZM15.7238 6.25006C15.558 6.25006 15.399 6.3159 15.2818 6.43312C15.1646 6.55033 15.0988 6.7093 15.0988 6.87506C15.0988 7.04082 15.1646 7.19979 15.2818 7.317C15.399 7.43421 15.558 7.50006 15.7238 7.50006C17.305 7.50006 18.6175 8.01631 19.6563 9.00631C20.19 9.54756 20.6063 10.1888 20.8788 10.8913C21.1525 11.5951 21.2775 12.3463 21.245 13.0988C21.2416 13.1809 21.2543 13.2628 21.2825 13.34C21.3108 13.4171 21.3539 13.488 21.4095 13.5484C21.5218 13.6706 21.678 13.7431 21.8438 13.7501C22.0095 13.757 22.1713 13.6978 22.2934 13.5856C22.4155 13.4733 22.488 13.3171 22.495 13.1513C22.5338 12.2257 22.3801 11.302 22.0438 10.4388C21.7059 9.57148 21.1937 8.7827 20.5388 8.12131L20.5263 8.10881C19.2375 6.87756 17.6063 6.25006 15.7238 6.25006ZM15.6813 8.30506C15.5155 8.30506 15.3565 8.3709 15.2393 8.48812C15.1221 8.60533 15.0563 8.7643 15.0563 8.93006C15.0563 9.09582 15.1221 9.25479 15.2393 9.372C15.3565 9.48921 15.5155 9.55506 15.6813 9.55506H15.7025C16.8425 9.63631 17.6725 10.0163 18.2538 10.6401C18.85 11.2826 19.1588 12.0813 19.135 13.0688C19.1312 13.2346 19.1934 13.3951 19.3079 13.515C19.4224 13.6349 19.5799 13.7044 19.7456 13.7082C19.9114 13.712 20.0719 13.6498 20.1918 13.5353C20.3117 13.4208 20.3812 13.2633 20.385 13.0976C20.415 11.8013 19.9975 10.6826 19.17 9.79006V9.78756C18.3238 8.88006 17.1625 8.40006 15.765 8.30631L15.7438 8.30381L15.6813 8.30506ZM15.6575 10.3988C15.5739 10.3914 15.4896 10.401 15.4097 10.4269C15.3299 10.4528 15.256 10.4945 15.1926 10.5496C15.1293 10.6047 15.0776 10.672 15.0408 10.7474C15.004 10.8229 14.9828 10.905 14.9784 10.9889C14.974 11.0727 14.9866 11.1566 15.0154 11.2355C15.0441 11.3144 15.0885 11.3867 15.1458 11.448C15.2031 11.5094 15.2722 11.5586 15.349 11.5926C15.4257 11.6267 15.5085 11.645 15.5925 11.6463C16.115 11.6738 16.4488 11.8313 16.6588 12.0426C16.87 12.2551 17.0275 12.5963 17.0563 13.1301C17.0578 13.2139 17.0762 13.2966 17.1104 13.3732C17.1446 13.4498 17.1939 13.5188 17.2553 13.5759C17.3167 13.6331 17.389 13.6773 17.4679 13.7059C17.5467 13.7345 17.6305 13.747 17.7143 13.7426C17.7981 13.7381 17.8801 13.7168 17.9555 13.68C18.0308 13.6432 18.098 13.5916 18.153 13.5282C18.208 13.4649 18.2497 13.3911 18.2756 13.3114C18.3015 13.2316 18.3111 13.1474 18.3038 13.0638C18.2638 12.3138 18.0288 11.6513 17.5475 11.1638C17.0638 10.6763 16.405 10.4388 15.6575 10.3988Z" fill="#1E0F3A"/>
</svg>
