<svg xmlns="http://www.w3.org/2000/svg" width="71" height="71" viewBox="0 0 71 71" fill="none">
  <path d="M42.8527 46.0443C44.6787 45.9735 46.0502 47.0499 46.4227 48.8476C46.5562 49.4916 46.4888 50.2385 46.4879 50.8984L46.502 55.1785L43.2412 55.1656L39.6257 55.0838C39.6068 54.8004 39.6252 54.5011 39.6254 54.2159L39.6295 50.5047C39.6305 49.8808 39.6146 49.2747 39.7408 48.6596C40.0485 47.1608 41.3548 46.1636 42.8527 46.0443Z" fill="#1E0F3A"/>
  <path d="M17.4562 6.48672C18.0536 6.42318 18.7076 6.72838 18.7461 7.41284L18.7636 49.1135C19.4884 49.1425 24.6041 49.0502 24.8096 49.203C25.1816 49.4795 26.3026 51.9854 26.5861 52.5389L27.1416 53.5986C28.0323 55.2254 27.7209 55.1629 26.2443 55.1638L18.4613 55.1656L8.99398 55.1547C8.67106 55.1311 8.49721 54.95 8.29492 54.7186C8.3311 54.5461 8.43657 54.3696 8.51513 54.2125L10.2528 50.7218C10.8053 49.6187 10.7005 49.1053 11.9757 49.1231L16.8059 49.1306L16.7912 8.02386C16.792 7.32402 16.7167 6.81778 17.4562 6.48672Z" fill="#1E0F3A"/>
  <path d="M43.0969 21.5263L43.4228 21.5156C43.8801 21.5403 44.415 22.2063 44.7276 22.4945L49.4634 26.7473C49.9104 27.148 50.4027 27.5171 50.8095 27.9599L50.8468 28.0008C50.8921 27.9119 50.8368 27.4255 50.8364 27.297L50.8314 23.9817C50.8271 23.2643 50.6218 22.2121 51.6622 22.144C52.3186 22.1009 53.0043 22.1382 53.6636 22.1393C54.7744 22.141 55.4785 21.8736 55.48 23.3338L55.4766 31.705C55.4766 32.7055 55.4678 32.4064 56.22 33.0989L60.7754 37.2661C60.9934 37.4581 61.2355 37.6468 61.2479 37.9608C61.2969 39.2043 60.3685 39.074 59.5758 38.3928C59.1849 38.0568 58.9965 38.1037 58.4777 38.1L56.8221 38.091C56.7933 38.3473 56.8116 38.6183 56.8112 38.8772L56.8055 50.293C56.8037 52.2241 56.6484 53.7534 54.6856 54.7429C54.1007 55.0379 53.5423 55.1621 52.8891 55.1688L48.4622 55.1788C48.4218 54.7715 48.4528 54.334 48.4522 53.9239L48.4493 51.0787C48.4476 49.2351 48.4751 47.6001 47.2508 46.0794C44.7841 43.2028 40.133 43.5228 38.349 46.9372C38.0742 47.4634 37.9155 48.015 37.785 48.5908L37.7557 48.7098C37.6802 49.0095 37.6894 49.3255 37.6884 49.6332L37.6787 55.1721L34.14 55.165C33.6149 55.1641 33.0108 55.2199 32.4943 55.1414C30.9692 54.9097 29.9244 53.6194 29.5249 52.1966C29.402 51.7591 29.4473 51.2595 29.447 50.8071L29.4453 42.0206C29.4445 40.7564 29.5118 39.4442 29.4047 38.185L27.2362 38.1959C27.1253 38.1997 27.0556 38.2448 26.9831 38.3246C25.7773 39.6531 24.7704 38.626 25.1339 37.7618C25.2549 37.4741 25.6722 37.1945 25.9037 36.9794L32.6736 30.773L42.6122 21.8164C42.7601 21.6902 42.9161 21.5967 43.0969 21.5263ZM43.344 25.9673L42.9681 26.1456C42.5832 26.3461 42.2233 26.6635 41.8906 26.9414L33.7555 34.1522C33.5998 34.3021 33.5164 34.4981 33.3641 34.6298L43.3103 34.711L51.8971 34.7091C52.329 34.7088 52.7741 34.7265 53.2027 34.6702L53.312 34.6559C53.0182 34.3305 52.767 34.0264 52.4361 33.7247L45.9177 28.0318C45.0828 27.3053 44.3561 26.4459 43.344 25.9673Z" fill="#1E0F3A"/>
</svg>
