<svg xmlns="http://www.w3.org/2000/svg" width="71" height="71" viewBox="0 0 71 71" fill="none">
  <path d="M51.483 41.3906C51.7836 41.7579 51.7145 41.8746 51.2832 41.9597C51.4091 41.7545 51.4677 41.6344 51.483 41.3906Z" fill="#1E0F3A"/>
  <path d="M12.7849 29.6039C12.9651 29.5802 13.4117 30.5937 12.5829 30.5115L12.5472 30.498C12.023 30.2891 12.3976 29.7075 12.7849 29.6039Z" fill="#1E0F3A"/>
  <path d="M58.1345 29.605C58.6374 29.5096 58.9848 30.0415 58.5235 30.4142L58.331 30.4393C57.7897 30.4629 57.7948 29.9025 58.1345 29.605Z" fill="#1E0F3A"/>
  <path d="M25.1612 29.5693C25.8654 29.5418 25.9144 30.1108 25.3538 30.4139C25.1847 30.457 24.9656 30.5242 24.832 30.3726L24.8395 30.0696C24.8655 29.8822 25.0205 29.685 25.1612 29.5693Z" fill="#1E0F3A"/>
  <path d="M45.494 29.6725C45.7759 29.5927 46.1387 30.2746 46.1748 30.4244C46.061 30.486 45.9494 30.5281 45.8262 30.5676C45.2042 30.5433 44.8151 29.9871 45.494 29.6725Z" fill="#1E0F3A"/>
  <path d="M43.1857 24.3399C43.7028 24.1962 44.2014 24.8789 43.4425 25.2226L43.4122 25.2276C42.3756 25.3779 42.7081 24.6281 43.1857 24.3399Z" fill="#1E0F3A"/>
  <path d="M27.5608 24.3404C27.8813 24.2792 28.0544 24.565 28.1392 24.8431L28.2035 25.2178C28.0702 25.2698 27.9375 25.2802 27.7966 25.2948L27.7427 25.2928C26.9564 25.2603 26.9784 24.6659 27.5608 24.3404Z" fill="#1E0F3A"/>
  <path d="M51.2831 41.9599C51.0645 42.2674 51.0901 42.9979 51.0514 43.3608L50.6188 47.7009L49.397 40.5267C49.3578 40.3763 49.3032 40.1723 49.3501 40.0204C50.2161 39.6934 51.1331 40.6652 51.4616 41.346L51.483 41.3908C51.4676 41.6346 51.409 41.7547 51.2831 41.9599Z" fill="#1E0F3A"/>
  <path d="M21.2018 40.0223C21.3613 40.0022 21.5326 40.0166 21.6936 40.0187C21.7032 40.5221 21.5647 40.9906 21.4602 41.478L20.6667 46.4241C20.5316 47.2161 20.3977 48.2905 20.3587 47.1802C20.3142 46.3862 20.2294 45.6062 20.1613 44.8132L19.9476 43.2239C19.846 42.541 19.8662 42.3182 19.3984 41.8048C19.6087 40.9336 20.3353 40.2133 21.2018 40.0223Z" fill="#1E0F3A"/>
  <path d="M39.6667 37.1211L39.9449 37.133C40.8416 37.2683 40.3322 38.3018 40.1607 38.8803L37.94 46.1162L37.3353 48.3886C37.2635 48.3001 37.217 47.9798 37.186 47.8576C37.1984 47.76 37.1494 47.5557 37.1404 47.4455L37.0282 46.2726C36.998 45.8059 36.9184 45.3587 36.8773 44.8994L36.581 41.1463C36.5451 40.3503 36.5293 40.4779 35.9395 40.3261C35.9878 40.1648 36.0292 39.9932 36.128 39.8543L36.2538 39.6874C37.0348 38.7302 38.4113 37.2528 39.6667 37.1211Z" fill="#1E0F3A"/>
  <path d="M18.6281 22.3946C19.047 22.3624 19.4953 22.3474 19.909 22.4324C20.0853 22.6618 20.1536 23.1966 20.3559 23.2568C22.4502 23.8791 24.3462 25.7463 24.7983 27.9041L24.8102 27.9626C24.8852 28.3191 24.886 28.6743 24.868 29.037L19.2558 29.047L15.3229 29.0487C14.6372 29.0493 13.9019 28.9997 13.2222 29.083L13.1641 29.0904C13.2508 26.4918 15.1482 24.1838 17.5275 23.2808C18.3367 22.9737 17.4109 22.4851 18.6281 22.3946Z" fill="#1E0F3A"/>
  <path d="M51.7297 22.3937L51.7585 22.392C53.9396 22.2819 52.7018 23.0152 53.5847 23.3633C55.526 24.1285 57.3876 25.9483 57.7444 28.0574C57.7997 28.3845 57.8006 28.7288 57.8176 29.06L52.0604 29.047L46.0098 29.091C46.1421 26.4065 47.8974 24.2118 50.4234 23.2748C51.3606 22.9271 50.3335 22.4517 51.7297 22.3937Z" fill="#1E0F3A"/>
  <path d="M51.7534 30.2172L55.071 30.2159C55.8843 30.2159 56.7562 30.1499 57.5544 30.3177C57.5282 30.5305 57.5071 30.7557 57.4221 30.9536C56.8787 32.2199 57.6285 31.0469 57.6405 32.4383C57.6444 32.8887 57.6871 33.4316 57.4934 33.851L57.4729 33.893C57.2588 34.3399 56.6282 34.5453 56.5173 34.8147C55.7421 36.6962 54.4053 38.3928 52.2637 38.7198C50.453 38.9007 48.7479 37.377 48.0132 35.8399C47.8409 35.4797 47.7016 35.0328 47.451 34.7219C47.193 34.4019 46.7606 34.3755 46.5493 33.9806C46.3245 33.5605 46.2977 33.0611 46.2969 32.5944C46.2957 31.864 46.3628 31.9787 46.813 31.603L46.8112 31.3638C46.6093 31.0454 46.6051 30.6826 46.5156 30.3278C46.8069 30.2077 47.1816 30.2267 47.4928 30.2254L51.7534 30.2172Z" fill="#1E0F3A"/>
  <path d="M14.1808 30.2207L22.5558 30.2188C23.2184 30.2193 23.8514 30.2149 24.5061 30.3368C24.5423 30.7925 24.224 31.2082 24.25 31.6379C24.4433 31.9572 24.6831 31.9136 24.6228 32.3793C24.5293 33.1013 24.7775 33.6902 24.1487 34.2272C24.0211 34.3361 23.7274 34.431 23.646 34.5604C23.4989 34.7943 23.4008 35.1113 23.2771 35.3644C22.9244 36.0856 22.494 36.7244 21.9576 37.3217C21.6009 37.7562 21.0076 38.1421 20.5046 38.3836C18.3178 39.4337 16.1839 37.9768 15.0711 36.072C14.7914 35.5931 14.5919 35.0762 14.3557 34.5759C13.572 34.2176 13.3208 33.7406 13.3256 32.8684C13.3326 31.5851 13.248 32.0602 13.953 31.3639L13.3047 30.3316L14.1808 30.2207Z" fill="#1E0F3A"/>
  <path d="M34.6287 15.58C35.1472 15.5291 36.0227 15.4803 36.5115 15.6608L36.6349 15.7095C37.1015 15.9287 36.8506 16.5185 37.3943 16.7026C40.4164 17.7257 42.2866 20.4673 42.6146 23.6112L36.4043 23.5924L28.4258 23.592C28.4985 23.3086 28.5221 23.0106 28.5789 22.7228C29.1926 19.6114 31.1265 17.5792 34.0173 16.5638C34.0327 16.058 34.148 15.7685 34.6287 15.58Z" fill="#1E0F3A"/>
  <path d="M56.5119 39.5645L60.117 40.432C62.9438 41.2955 62.5708 42.2498 62.7342 44.654L63.0168 48.0626C63.1079 48.9719 63.4706 50.3116 62.5017 50.8423L62.4547 50.8675C62.3242 50.9386 62.2091 50.9695 62.0595 50.977L53.5635 50.9763C52.787 50.9701 52.6513 50.9213 52.8072 50.0706C53.0372 48.8155 53.1738 47.5872 53.1977 46.3057C53.2825 44.9193 53.2037 43.5305 53.0853 42.1505C51.9266 41.737 54.0335 39.5406 55.4197 39.623L55.5392 39.8661C55.7883 40.3575 55.2075 41.8087 55.0718 42.3301L53.3463 48.6721C54.8152 45.8357 55.9812 42.7198 56.5119 39.5645Z" fill="#1E0F3A"/>
  <path d="M14.3014 39.6109C14.3862 39.6009 14.4541 39.587 14.5382 39.6077C14.5841 40.5688 14.9422 41.5452 15.2619 42.4452L17.3799 47.8637C17.5033 48.1278 17.6146 48.4009 17.7574 48.655C17.6564 47.6814 17.2888 46.6511 17.0056 45.721L15.6663 41.0481C14.96 37.9724 17.9213 40.4083 18.4733 41.5722L17.9699 42.0051C17.7703 42.8386 17.8461 45.2449 17.9616 46.0872C17.9798 46.7898 18.0951 47.4638 18.2063 48.1549L18.3589 49.2127C18.5607 50.3516 19.084 50.9645 17.659 50.9759L9.07815 50.9751C8.91292 50.9668 8.79268 50.9449 8.64545 50.869L8.46342 50.7706C7.62575 50.2397 7.8831 49.1466 7.9769 48.3173L8.39217 44.1989C8.48739 43.1404 8.29583 41.7378 9.339 41.0555C10.4264 40.3442 12.9876 39.827 14.3014 39.6109Z" fill="#1E0F3A"/>
  <path d="M34.3621 25.0293L38.9147 25.0295C40.0912 25.0316 41.2042 24.9821 42.3668 25.1747C42.1759 25.4305 42.1263 25.6981 42.0305 25.9973L41.7234 26.9519L41.9392 27.0808C42.2789 27.311 42.5332 27.6348 42.6068 28.0469L42.6156 28.1005C42.7726 29.0221 42.2548 30.7422 41.2317 31.0328L40.5171 32.5294C39.6174 34.2316 38.4133 35.4583 36.5673 36.023C33.7911 36.8401 31.3726 34.3206 30.3032 32.0482C30.1115 31.6406 30.0679 31.045 29.6861 30.9865C28.5364 30.8105 28.2771 29.1925 28.4142 28.2483L28.4236 28.1859C28.5085 27.6047 28.8297 27.1855 29.2574 26.805C29.2454 26.6552 29.1541 26.4827 29.1005 26.3419L28.6933 25.2831C29.4537 24.9204 30.2972 25.0352 31.1153 25.0336L34.3621 25.0293Z" fill="#1E0F3A"/>
  <path d="M41.7956 37.4307L41.876 37.4201C42.9284 37.3071 45.9971 38.4267 46.9721 38.8051C47.5499 39.0293 48.1861 39.1318 48.3904 39.7833C48.6455 40.5968 48.7754 41.4807 48.9319 42.3184L50.0092 48.9006C50.2343 50.6726 49.7438 51.0489 47.8945 51.0515L45.8544 51.0503L37.5215 51.0388L37.5381 49.566C37.5441 49.1291 37.5553 48.8959 37.7178 48.5004L39.119 44.9254L40.6577 40.2506C40.8231 39.7381 41.295 37.6285 41.7956 37.4307Z" fill="#1E0F3A"/>
  <path d="M33.6214 48.5957C33.5935 48.2259 33.5108 47.9058 33.4358 47.5468L33.1322 46.2429L30.8755 38.6063C30.6888 37.8305 30.3736 37.1788 31.4624 37.1157C32.0803 37.0798 32.5329 37.4474 32.9672 37.8373L34.0651 38.8809C34.3923 39.1959 34.77 39.5146 35.004 39.9083L35.1163 40.0913C34.6285 40.6518 34.4629 40.3921 34.4197 41.2372L34.0275 46.1292C33.9499 47.1781 33.911 47.625 33.7018 48.6608C33.5598 49.455 33.4712 50.2211 33.4368 51.0265L33.3856 51.0439C33.2502 51.0675 33.0717 51.0461 32.9328 51.0463L23.0424 51.0603C20.5519 51.1189 20.9309 49.5465 21.2465 47.7698L21.6566 45.4284C21.909 43.9391 22.0732 42.424 22.4108 40.9509C22.7642 39.4083 22.7451 39.2562 24.2203 38.7035C25.5077 38.2212 28.0644 37.3872 29.4623 37.4141L33.1622 48.141C33.2345 48.3035 33.4223 48.6826 33.5836 48.7439L33.6214 48.5957Z" fill="#1E0F3A"/>
</svg>
