<svg xmlns="http://www.w3.org/2000/svg" width="30" height="30" viewBox="0 0 30 30" fill="none">
  <path d="M26.468 12.0492C26.0262 11.5875 25.5691 11.1117 25.3969 10.6934C25.2375 10.3102 25.2281 9.675 25.2187 9.05977C25.2012 7.91602 25.1824 6.61992 24.2812 5.71875C23.3801 4.81758 22.084 4.79883 20.9402 4.78125C20.325 4.77187 19.6898 4.7625 19.3066 4.60312C18.8895 4.43086 18.4125 3.97383 17.9508 3.53203C17.1422 2.75508 16.2234 1.875 15 1.875C13.7766 1.875 12.859 2.75508 12.0492 3.53203C11.5875 3.97383 11.1117 4.43086 10.6934 4.60312C10.3125 4.7625 9.675 4.77187 9.05977 4.78125C7.91602 4.79883 6.61992 4.81758 5.71875 5.71875C4.81758 6.61992 4.80469 7.91602 4.78125 9.05977C4.77187 9.675 4.7625 10.3102 4.60312 10.6934C4.43086 11.1105 3.97383 11.5875 3.53203 12.0492C2.75508 12.8578 1.875 13.7766 1.875 15C1.875 16.2234 2.75508 17.141 3.53203 17.9508C3.97383 18.4125 4.43086 18.8883 4.60312 19.3066C4.7625 19.6898 4.77187 20.325 4.78125 20.9402C4.79883 22.084 4.81758 23.3801 5.71875 24.2812C6.61992 25.1824 7.91602 25.2012 9.05977 25.2187C9.675 25.2281 10.3102 25.2375 10.6934 25.3969C11.1105 25.5691 11.5875 26.0262 12.0492 26.468C12.8578 27.2449 13.7766 28.125 15 28.125C16.2234 28.125 17.141 27.2449 17.9508 26.468C18.4125 26.0262 18.8883 25.5691 19.3066 25.3969C19.6898 25.2375 20.325 25.2281 20.9402 25.2187C22.084 25.2012 23.3801 25.1824 24.2812 24.2812C25.1824 23.3801 25.2012 22.084 25.2187 20.9402C25.2281 20.325 25.2375 19.6898 25.3969 19.3066C25.5691 18.8895 26.0262 18.4125 26.468 17.9508C27.2449 17.1422 28.125 16.2234 28.125 15C28.125 13.7766 27.2449 12.859 26.468 12.0492ZM20.3508 12.8508L13.7883 19.4133C13.7012 19.5004 13.5978 19.5696 13.484 19.6168C13.3702 19.664 13.2482 19.6882 13.125 19.6882C13.0018 19.6882 12.8798 19.664 12.766 19.6168C12.6522 19.5696 12.5488 19.5004 12.4617 19.4133L9.64922 16.6008C9.56211 16.5137 9.49302 16.4103 9.44588 16.2965C9.39874 16.1827 9.37448 16.0607 9.37448 15.9375C9.37448 15.8143 9.39874 15.6923 9.44588 15.5785C9.49302 15.4647 9.56211 15.3613 9.64922 15.2742C9.82513 15.0983 10.0637 14.9995 10.3125 14.9995C10.4357 14.9995 10.5577 15.0237 10.6715 15.0709C10.7853 15.118 10.8887 15.1871 10.9758 15.2742L13.125 17.4246L19.0242 11.5242C19.1113 11.4371 19.2147 11.368 19.3285 11.3209C19.4423 11.2737 19.5643 11.2495 19.6875 11.2495C19.8107 11.2495 19.9327 11.2737 20.0465 11.3209C20.1603 11.368 20.2637 11.4371 20.3508 11.5242C20.4379 11.6113 20.507 11.7147 20.5541 11.8285C20.6013 11.9423 20.6255 12.0643 20.6255 12.1875C20.6255 12.3107 20.6013 12.4327 20.5541 12.5465C20.507 12.6603 20.4379 12.7637 20.3508 12.8508Z" fill="white"/>
</svg>
