<svg xmlns="http://www.w3.org/2000/svg" width="41" height="40" viewBox="0 0 41 40" fill="none">
  <path d="M8.13833 28.8683C6.42167 27.045 5.5 25 5.5 21.685C5.5 15.8517 9.595 10.6233 15.55 8.03833L17.0383 10.335C11.48 13.3417 10.3933 17.2433 9.96 19.7033C10.855 19.24 12.0267 19.0783 13.175 19.185C16.1817 19.4633 18.5517 21.9317 18.5517 25C18.5517 26.5471 17.9371 28.0308 16.8431 29.1248C15.7492 30.2187 14.2654 30.8333 12.7183 30.8333C11.8628 30.8259 11.0172 30.6483 10.2309 30.3109C9.44465 29.9736 8.73331 29.4832 8.13833 28.8683ZM24.805 28.8683C23.0883 27.045 22.1667 25 22.1667 21.685C22.1667 15.8517 26.2617 10.6233 32.2167 8.03833L33.705 10.335C28.1467 13.3417 27.06 17.2433 26.6267 19.7033C27.5217 19.24 28.6933 19.0783 29.8417 19.185C32.8483 19.4633 35.2183 21.9317 35.2183 25C35.2183 26.5471 34.6038 28.0308 33.5098 29.1248C32.4158 30.2187 30.9321 30.8333 29.385 30.8333C28.5294 30.8259 27.6839 30.6483 26.8976 30.3109C26.1113 29.9736 25.4 29.4832 24.805 28.8683Z" />
</svg>
