<svg xmlns="http://www.w3.org/2000/svg" width="30" height="31" viewBox="0 0 30 31" fill="none">
  <path d="M16.285 3C17.6913 3.00375 18.405 3.01125 19.0213 3.02875L19.2638 3.0375C19.5438 3.0475 19.82 3.06 20.1538 3.075C21.4838 3.1375 22.3913 3.3475 23.1875 3.65625C24.0125 3.97375 24.7075 4.40375 25.4025 5.0975C26.0381 5.72237 26.5299 6.47824 26.8438 7.3125C27.1525 8.10875 27.3625 9.01625 27.425 10.3475C27.44 10.68 27.4525 10.9563 27.4625 11.2375L27.47 11.48C27.4888 12.095 27.4963 12.8088 27.4988 14.215L27.5 15.1475V16.785C27.5031 17.6968 27.4935 18.6085 27.4713 19.52L27.4638 19.7625C27.4538 20.0438 27.4413 20.32 27.4263 20.6525C27.3638 21.9838 27.1513 22.89 26.8438 23.6875C26.5309 24.5222 26.0389 25.2783 25.4025 25.9025C24.7775 26.5379 24.0216 27.0297 23.1875 27.3438C22.3913 27.6525 21.4838 27.8625 20.1538 27.925C19.8572 27.939 19.5605 27.9515 19.2638 27.9625L19.0213 27.97C18.405 27.9875 17.6913 27.9963 16.285 27.9988L15.3525 28H13.7163C12.8041 28.0031 11.8919 27.9936 10.98 27.9713L10.7375 27.9638C10.4408 27.9525 10.1441 27.9396 9.8475 27.925C8.5175 27.8625 7.61 27.6525 6.8125 27.3438C5.97834 27.0305 5.22278 26.5386 4.59875 25.9025C3.96256 25.2779 3.47028 24.522 3.15625 23.6875C2.8475 22.8913 2.6375 21.9838 2.575 20.6525C2.56108 20.3559 2.54858 20.0592 2.5375 19.7625L2.53125 19.52C2.50822 18.6085 2.4978 17.6968 2.5 16.785V14.215C2.49652 13.3033 2.50568 12.3915 2.5275 11.48L2.53625 11.2375C2.54625 10.9563 2.55875 10.68 2.57375 10.3475C2.63625 9.01625 2.84625 8.11 3.155 7.3125C3.4689 6.47738 3.96215 5.72128 4.6 5.0975C5.22387 4.46184 5.97893 3.96998 6.8125 3.65625C7.61 3.3475 8.51625 3.1375 9.8475 3.075C10.18 3.06 10.4575 3.0475 10.7375 3.0375L10.98 3.03C11.8915 3.00779 12.8032 2.99821 13.715 3.00125L16.285 3ZM15 9.25C13.3424 9.25 11.7527 9.90848 10.5806 11.0806C9.40848 12.2527 8.75 13.8424 8.75 15.5C8.75 17.1576 9.40848 18.7473 10.5806 19.9194C11.7527 21.0915 13.3424 21.75 15 21.75C16.6576 21.75 18.2473 21.0915 19.4194 19.9194C20.5915 18.7473 21.25 17.1576 21.25 15.5C21.25 13.8424 20.5915 12.2527 19.4194 11.0806C18.2473 9.90848 16.6576 9.25 15 9.25ZM15 11.75C15.4925 11.7499 15.9801 11.8468 16.4351 12.0352C16.8901 12.2236 17.3036 12.4997 17.6518 12.8479C18.0001 13.1961 18.2764 13.6094 18.4649 14.0644C18.6535 14.5193 18.7505 15.0069 18.7506 15.4994C18.7507 15.9918 18.6538 16.4795 18.4654 16.9345C18.277 17.3895 18.0009 17.8029 17.6527 18.1512C17.3046 18.4995 16.8912 18.7758 16.4363 18.9643C15.9813 19.1528 15.4937 19.2499 15.0013 19.25C14.0067 19.25 13.0529 18.8549 12.3496 18.1517C11.6463 17.4484 11.2513 16.4946 11.2513 15.5C11.2513 14.5054 11.6463 13.5516 12.3496 12.8483C13.0529 12.1451 14.0067 11.75 15.0013 11.75M21.5638 7.375C21.1494 7.375 20.7519 7.53962 20.4589 7.83265C20.1659 8.12567 20.0013 8.5231 20.0013 8.9375C20.0013 9.3519 20.1659 9.74933 20.4589 10.0424C20.7519 10.3354 21.1494 10.5 21.5638 10.5C21.9782 10.5 22.3756 10.3354 22.6686 10.0424C22.9616 9.74933 23.1263 9.3519 23.1263 8.9375C23.1263 8.5231 22.9616 8.12567 22.6686 7.83265C22.3756 7.53962 21.9782 7.375 21.5638 7.375Z" fill="white"/>
</svg>
