<?xml version="1.0" encoding="utf-8"?><svg viewBox="0 0 502.66 502.66" xmlns="http://www.w3.org/2000/svg" xmlns:xlink="http://www.w3.org/1999/xlink"><style>:root>svg{display:none}:root>svg:target{display:block}</style><svg viewBox="0 0 50 50" id="arrow" xmlns="http://www.w3.org/2000/svg"><path d="M35.417 14.583L14.583 35.417M33.333 35.417h-18.75v-18.75"/></svg><svg viewBox="0 0 70 70" id="clients" xmlns="http://www.w3.org/2000/svg"><path d="M26.159 17.031c.4-.016.622.205.896.468l1.666 1.603c.764.766.928 1.635-.218 2.053h-.039c-.811.035-1.38-.765-1.91-1.283-.79-.77-2.286-2.238-.395-2.84zm17.421.001c.505-.019.904.129 1.105.63.28.7-.228 1.174-.684 1.628l-1.066 1.039c-.343.323-.626.683-1.073.856-.602-.035-1.025-.312-1.153-.931l-.01-.054c-.094-.462.144-.68.446-.981l.763-.756c.504-.497.992-1.17 1.671-1.431zm-8.774-2.637c1.264-.07 1.15.88 1.152 1.69.001.385.072 2.732-.057 2.93-.154.234-.48.411-.738.49-.922.195-1.178-.62-1.18-1.333l.002-2.29c0-.3-.067-.676.101-.942l.025-.038c.17-.27.4-.402.695-.507zm-.06 7.769c2.52-.09 4.854 1.55 5.585 3.971 1.014 3.36-1.368 6.865-4.92 7.116-7.756.167-7.698-10.684-.665-11.087zm-.306 13.978l.073-.014c5.008-.225 9.19 3.798 9.632 8.741.044.497.017 1.01.017 1.51l.031 3.404c-.183.05-.444.02-.636.02l-7.822.001-9.879-.067c-.025-.279-.008-.573-.008-.853l-.002-1.612c0-.875-.036-1.767.046-2.639.42-4.494 4.043-8.087 8.548-8.492z"/><path d="M19.907 25.109c2.36-.294 4.584 1.24 5.517 3.363.138.313.211.63.324.948l.023.068c.317 1.111-.048 2.968-.595 3.92 1.51.455 2.978 1.387 4.085 2.504-.152.207-.51.418-.719.581l-.893.758c-2.83 2.63-3.68 5.43-3.672 9.13l.008 3.414-6.605.01h-7.33c-1.152 0-1.46-.066-1.463-1.383l-.002-1.343c-.001-1.027-.051-2.084.016-3.107.274-4.14 3.444-8.723 7.563-9.748l.045-.01c-2.68-3.343-.74-8.648 3.7-9.105zm29.506-.006c4.654-.289 7.358 5.365 4.475 9.027 3.542 1.358 5.979 3.765 7.121 7.498.276.9.43 1.889.43 2.83l.039 4.35c.035 1.004-.669 1.003-1.353 1.002l-6.72-.005-7.33-.004c-.065-.066-.02-1.092-.02-1.247.008-1.812.11-3.636-.253-5.42-.675-3.306-2.426-5.39-5.134-7.175.788-.993 3.083-2.3 4.233-2.515-2.003-3.624.326-8.076 4.512-8.341z"/></svg><svg viewBox="0 0 24 24" id="contact-phone" xmlns="http://www.w3.org/2000/svg"><g clip-path="url(#ca)"><path d="M5 4h4l2 5-2.5 1.5a11 11 0 005 5L15 13l5 2v4a2 2 0 01-2 2A16 16 0 013 6a2 2 0 012-2z"/></g><defs><clipPath id="ca"><path d="M0 0h24v24H0z"/></clipPath></defs></svg><svg viewBox="0 0 24 24" id="contact-user" xmlns="http://www.w3.org/2000/svg"><g clip-path="url(#da)" stroke-width="1.5" stroke-linecap="round" stroke-linejoin="round"><path d="M8 7a4 4 0 108 0 4 4 0 00-8 0zM6 21v-2a4 4 0 014-4h4a4 4 0 014 4v2"/></g><defs><clipPath id="da"><path d="M0 0h24v24H0z"/></clipPath></defs></svg><svg viewBox="0 0 21 20" id="email" xmlns="http://www.w3.org/2000/svg"><g clip-path="url(#ea)" stroke-width="1.5" stroke-linecap="round" stroke-linejoin="round"><path d="M3 5.833a1.667 1.667 0 011.667-1.666h11.666A1.666 1.666 0 0118 5.833v8.334a1.667 1.667 0 01-1.667 1.666H4.667A1.667 1.667 0 013 14.167V5.833z"/><path d="M3 5.833l7.5 5 7.5-5"/></g><defs><clipPath id="ea"><path transform="translate(.5)" d="M0 0h20v20H0z"/></clipPath></defs></svg><svg viewBox="0 0 30 30" id="facebook" xmlns="http://www.w3.org/2000/svg"><path d="M27.5 15c0-6.9-5.6-12.5-12.5-12.5S2.5 8.1 2.5 15c0 6.05 4.3 11.087 10 12.25v-8.5H10V15h2.5v-3.125A4.38 4.38 0 0116.875 7.5H20v3.75h-2.5c-.688 0-1.25.563-1.25 1.25V15H20v3.75h-3.75v8.688C22.563 26.813 27.5 21.488 27.5 15z"/></svg><svg viewBox="0 0 502.664 502.664" id="icon" xmlns="http://www.w3.org/2000/svg"><path d="M153.821 358.226L0 274.337v-46.463l153.821-83.414v54.574L46.636 250.523l107.185 53.431v54.272zm26.273 29.358L282.103 115.08h32.227L212.084 387.584h-31.99zm168.749-29.358v-54.272l107.164-52.999-107.164-52.59v-53.927l153.821 83.522v46.183l-153.821 84.083z"/></svg><svg viewBox="0 0 70 70" id="individual" xmlns="http://www.w3.org/2000/svg"><path d="M34.476 6.883c3.442-.502 6.68 3.228 5.638 6.467l-.57 1.438c.692.216 1.39.368 2.076.614 1.694.605 3.206 1.463 4.77 2.33.588-3.665 4.925-5.625 8.032-3.378 3.652 2.642 2.477 8.486-2.173 9.178a23.699 23.699 0 012.31 4.743l.696 2.074c1.176-.475 2.417-.704 3.675-.42 3.232.727 5.09 4.277 3.67 7.314-1.047 2.236-3.59 3.604-6.024 3.004-.503-.124-.959-.337-1.423-.558-.17.995-1.21 3.473-1.656 4.322l-1.323 2.306c.06.068.31.117.404.148l1.002.374c2.91 1.242 3.834 4.981 2.052 7.525-2.788 3.976-8.513 2.532-9.328-2.36-2.007 1.252-4.402 2.288-6.726 2.737 1.656 3.51.109 7.528-3.886 8.109-4.423.59-7.265-4.148-5.235-8.032-2.295-.642-4.652-1.568-6.694-2.823-.676 5.696-8.76 6.311-10.091.644-.523-2.225.61-4.838 2.746-5.784.461-.204.96-.316 1.45-.427-.492-1.059-1.136-2.04-1.636-3.096-.54-1.14-.914-2.373-1.329-3.563a5.855 5.855 0 01-3.248.564c-5.485-.578-6.321-8.284-1.192-10.197 1.445-.539 3.02-.381 4.403.25.08-.21.116-.447.174-.665l.349-1.16c.542-1.619 1.43-3.54 2.415-4.96l-.413-.066c-3.627-.843-5.077-5.366-2.697-8.231 2.832-3.41 8.548-1.923 8.928 2.579 1.35-1.102 3.507-2.026 5.12-2.581.567-.196 1.174-.316 1.73-.535.03-.058-.016-.112-.041-.171-.256-.598-.524-1.196-.601-1.85-.337-2.853 1.759-5.564 4.646-5.863zm-.27 9.947c-9.392.465-17.24 8.781-17.226 18.153l.011 1.355c.021.425.095.823.162 1.241 1.166 7.34 7.419 13.684 14.771 14.81 1.136.174 2.275.177 3.421.166.08-.001.497-.023.501-.017 5.36-.223 9.05-2.096 12.607-5.967 3.197-3.478 4.813-7.89 4.61-12.645-.412-9.58-9.297-17.456-18.777-17.105l-.08.01z"/><path d="M34.973 42.91l1.198.032c-.013.99-.14.82-1.055.837-.257.003-.932.078-1.137-.057-.136-.089-.137-.64-.078-.745.35-.069.715-.06 1.072-.067zm-.656-5.094c.522-.029 1.253-.076 1.747.097.53.184.295.754-.413.83-.421-.012-.893.004-1.304-.09l-.386-.096c-.421-.137-.463-.589.026-.69l.33-.05zm.453 1.427c1.43-.042.946 1.164 1.223 2.253l.182.877c-.28.064-.587.045-.873.049l-1.393-.018c-.068-.589.165-.976.257-1.513.098-.568-.077-1.428.605-1.648zm-3.162-1.526l.069-.003c.17.14 1.086 3.346 1.18 3.746.179.76.248 1.527.382 2.292l1.056 5.051c.155.677.347 1.349.418 2.041-.446-.437-.94-.82-1.377-1.267-1.18-1.206-3.004-3.742-3.565-5.417-.155-.46.519-1.308.65-1.813-.181-.367-.536-.698-.836-.972-.523-.477-1.014.19-.884.666.08.294.479.494.726.641-.24.583-.666 1.028-.446 1.679.198.584.544 1.163.852 1.698a25.307 25.307 0 002.196 3.245l1.246 1.506c-.6-.027-1.218-.19-1.804-.325l-1.53-.365c-1.571-.451-3.186-1.134-4.566-2.017-.782-.5-1.46-1.192-2.254-1.656l-.06-.034c-.177-.76-.174-1.596-.172-2.372.007-3.959 2.326-4.296 5.547-5.314l3.172-1.01zm6.666.039c.433.059.855.206 1.268.341l4.635 1.431c2.434.806 3.136 2.58 3.093 4.962-.01.585.003 1.182-.182 1.742-.589.465-1.115.983-1.731 1.416-2.55 1.795-5.486 2.787-8.554 3.168 1.257-1.315 2.433-3.043 3.364-4.587l.94-1.797c.401-.885-.132-.957-.434-1.767.303-.212.582-.403.841-.67-.14-.376-.313-.6-.632-.842-.242.131-.443.33-.643.515l-.669.649c.256.57.63 1.044.858 1.64-.928 2.038-2.48 4.417-4.072 6.042-.58.591-1.026 1.24-.797 0l1.679-8.577.535-2c.155-.559.296-1.123.501-1.666zm-4.177-16.723c1.873-.02 5.695.243 5.726 2.806 2.119.103 1.115 3.523.583 4.65l.503.27c.293.759.056 1.874-.448 2.476-.176.21-.457.398-.593.63-.16.275-.217.667-.353.967-.75 1.66-1.96 3.363-3.718 4.028-2.47.69-4.274-1.762-5.217-3.734l-.452-1.031c-.124-.306-.117-.384-.375-.585-.692-.543-1.038-1.531-.919-2.394l.008-.046c.096-.62.305-.387.501-.545-.182-.573-.41-1.143-.48-1.745-.38-3.28 2.133-5.428 5.234-5.747zm-1.68 4.785c-1.76.13-1.224 1.913-1.552 3.322-.103.441-.242.412-.693.446l-.21.015c.017.276.012.85.234 1.044l.194.157c.28.21.427.79.56 1.12l.383.859c.494 1.02 1.153 1.998 2.03 2.73 1.42 1.185 2.594.57 3.779-.608a9.613 9.613 0 001.733-2.664c.134-.307.195-.667.357-.957.341-.613.781-.735.845-1.53-.21-.156-.747-.386-.873-.548-.07-.09-.115-1.868-.29-2.34-.105-.281-.272-.542-.423-.8-2.838 1.834-3.384-.251-6.073-.246z"/></svg><svg viewBox="0 0 30 30" id="instagram" xmlns="http://www.w3.org/2000/svg"><path d="M16.285 2.5c1.406.004 2.12.011 2.736.029l.243.009c.28.01.556.022.89.037 1.33.063 2.237.272 3.034.581a6.1 6.1 0 012.215 1.442 6.135 6.135 0 011.44 2.215c.31.796.52 1.703.582 3.035.015.332.027.608.037.89l.008.242c.019.615.026 1.329.029 2.735l.001.933v1.637c.003.912-.006 1.823-.029 2.735l-.007.242c-.01.282-.023.558-.038.89-.062 1.332-.275 2.238-.582 3.035a6.104 6.104 0 01-1.442 2.215 6.145 6.145 0 01-2.215 1.442c-.796.308-1.703.518-3.033.581a88.24 88.24 0 01-.89.037l-.243.008c-.616.018-1.33.026-2.736.029l-.933.001h-1.636a98.265 98.265 0 01-2.736-.029l-.242-.007a80.145 80.145 0 01-.89-.039c-1.33-.063-2.238-.273-3.036-.581A6.111 6.111 0 014.6 25.402a6.13 6.13 0 01-1.443-2.215c-.309-.796-.519-1.703-.581-3.035a92.43 92.43 0 01-.038-.89l-.006-.242a98.799 98.799 0 01-.031-2.735v-2.57c-.003-.912.006-1.823.027-2.735l.01-.242c.01-.282.022-.558.037-.89.062-1.332.272-2.238.581-3.036A6.1 6.1 0 014.6 4.598a6.121 6.121 0 012.212-1.44c.798-.31 1.704-.52 3.035-.582.333-.015.61-.028.89-.038l.243-.007a98.758 98.758 0 012.735-.029l2.57-.001zM15 8.75a6.25 6.25 0 100 12.5 6.25 6.25 0 000-12.5zm0 2.5a3.75 3.75 0 110 7.499 3.75 3.75 0 010-7.499m6.563-4.375a1.562 1.562 0 100 3.125 1.562 1.562 0 000-3.125z"/></svg><svg viewBox="0 0 21 20" id="phone" xmlns="http://www.w3.org/2000/svg"><g clip-path="url(#ja)"><path d="M4.667 3.333H8L9.667 7.5 7.583 8.75a9.167 9.167 0 004.167 4.167L13 10.833l4.167 1.667v3.333A1.667 1.667 0 0115.5 17.5 13.333 13.333 0 013 5a1.667 1.667 0 011.667-1.667z"/></g><defs><clipPath id="ja"><path transform="translate(.5)" d="M0 0h20v20H0z"/></clipPath></defs></svg><svg viewBox="0 0 21 20" id="pin" xmlns="http://www.w3.org/2000/svg"><g clip-path="url(#ka)" stroke-width="1.5" stroke-linecap="round" stroke-linejoin="round"><path d="M8 9.167a2.5 2.5 0 105 0 2.5 2.5 0 00-5 0z"/><path d="M15.214 13.88l-3.536 3.537a1.667 1.667 0 01-2.355 0L5.786 13.88a6.666 6.666 0 119.428 0z"/></g><defs><clipPath id="ka"><path transform="translate(.5)" d="M0 0h20v20H0z"/></clipPath></defs></svg><svg viewBox="0 0 70 70" id="provide" xmlns="http://www.w3.org/2000/svg"><path d="M31.948 24.967c3.644-.088 9.726 4.274 10.35 7.842.317 1.81-.138 4.267-1.227 5.807l.038.03c.467.377.889.872 1.3 1.309l15.7 15.426c.87.857 1.964 1.799 2.08 3.098.215 2.427-2.214 4.606-4.513 3.759-1.036-.382-1.734-1.323-2.456-2.108l-9.89-10.45-4.28-4.523c-.803-.861-1.56-1.794-2.484-2.53a7.025 7.025 0 01-1.008.42l-.055.017c-1.642.52-3.566.339-5.092-.451-3.204-1.66-5.986-7.483-5.99-10.939-.002-.98.422-2.005 1.487-1.257.468.329.896.86 1.295 1.271l3.094 3.211c.29.293 1.017 1.265 1.516 1.114l.042-.014c1.722-.53-.414-2.178-.989-2.761l-2.737-2.815c-.322-.344-.775-.752-.98-1.173l-.023-.048c-.345-.726.468-1.302 1.077-.893.447.3.863.747 1.258 1.115l3.416 3.335c.483.47 1.141 1.308 1.756.563.073-.089.335-.546.313-.669-.034-.185-1.324-1.412-1.516-1.605l-3.73-3.83c-1.745-1.989.59-2.131 2.248-2.25z"/><path d="M33.37 9.652h2.293c1.562.009 1.47-.073 1.597 1.544l.163 1.485c.263 2.235.635 2.153 2.701 2.846 1.147.384 1.64.714 2.748-.047 1.092-.75 2.16-2.046 3.223-2.636.663.347 1.82 1.292 2.399 1.81.368.328.164.534-.017.924L47.6 17.44c-.246.564-.487 1.186-.444 1.813.072 1.051 1.813 2.536 2.836 2.704.814.133 3.209-.861 4.421-.955.48.685.832 1.399 1.223 2.135-.823.703-3.766 2.532-3.725 3.761.023.663.461 2.108.912 2.584 1.026 1.082 4.016.85 4.443 1.289.208.214.12 2.564.119 3.02-.132.118-.459.145-.64.177l-1.87.288c-2.076.33-2.68.803-3.332 2.788-.935 2.845.416 3.046 2.168 5.004.505.564-.375.916-.885 1.33l-1.746 1.383c-.309.234-.62.484-.954.682l-4.505-4.385c.114-.2.3-.367.453-.539 1.507-1.697 2.352-3.734 2.811-5.95 1.56-7.52-3.81-15.276-11.332-16.687-.346-.065-.71-.094-1.052-.168l-.11-.024c-.76-.145-2.78-.085-3.566.004-6.116.696-11.95 5.74-12.907 11.905-.174 1.126-.34 3.119-.127 4.255l.272 1.607c.186.878.505 1.73.855 2.554.463 1.095 1.108 2.104 1.818 3.053 2.79 3.728 6.558 5.657 11.16 5.69.544.003 1.172.032 1.708-.083l2.38-.597c.238.149.425.378.61.587l.816.943c.428.497.912.992 1.28 1.534-2.392 1.156-3.48.465-4.036 3.75l-.25 1.494c-.172.997-.423.778-1.5.782l-1.529.002c-.551 0-1.408.242-1.537-.335-.665-2.978.083-4.904-3.552-5.51-1.134-.189-1.945.452-2.758 1.167l-1.905 1.767c-.315.296-.63.627-.98.879-.36-.025-2.663-2.134-2.933-2.42.119-.327.318-.639.492-.939l1.073-1.876c.247-.475.494-1.005.569-1.54l.007-.05a1.06 1.06 0 00.006-.365l-.026-.134c-.143-.608-.854-1.256-1.29-1.677-.883-.854-1.037-.799-2.142-.369l-1.633.685c-.492.218-.989.448-1.513.574l-.025-.015c-.101-.076-.167-.21-.23-.317l-.405-.73c-.325-.581-.773-1.16-.915-1.822.887-.89 2.325-1.194 3.288-2.476.753-1.002.362-1.667.094-2.74-.135-.538-.185-1.25-.488-1.724-.561-.876-2.972-.906-3.952-1.007-.966-.1-1.308.003-1.266-1.075.011-.288.13-2.292.31-2.475.164-.168 1.307-.32 1.584-.376 2.323-.478 3.905-.985 3.965-3.782.017-.745-.68-1.208-1.206-1.618l-1.476-1.09c-.416-.288-.928-.562-1.282-.923.369-.785.9-1.506 1.4-2.212.73-1.032.666-.748 1.883-.392.868.253 1.777.523 2.673.648 1.406.197 2.903-.813 3.084-2.26l.005-.048c.154-1.19-1.227-3.03-1.634-4.31.335-.327.785-.6 1.162-.879l1.246-.93c.994-.692 1.024-.267 1.725.485 1.093 1.171 2.465 3.034 4.216 2.516 2.841-.84 2.946-1.322 3.782-4.195.16-.55.302-1.124.578-1.629z"/></svg><svg viewBox="0 0 30 30" id="slider-arrow" xmlns="http://www.w3.org/2000/svg"><g clip-path="url(#ma)"><path d="M23.75 15H6.25m7.5 7.5L6.25 15m7.5-7.5L6.25 15"/></g><defs><clipPath id="ma"><path transform="matrix(-1 0 0 1 30 0)" d="M0 0h30v30H0z"/></clipPath></defs></svg><svg viewBox="0 0 24 24" id="star" xmlns="http://www.w3.org/2000/svg"><path d="M12 0l2.694 8.292h8.719l-7.054 5.124 2.694 8.292L12 16.584l-7.053 5.124 2.694-8.292L.587 8.292h8.719L12 0z"/></svg><svg viewBox="0 0 24 25" id="user" xmlns="http://www.w3.org/2000/svg"><g clip-path="url(#oa)" stroke-width="1.5" stroke-linecap="round" stroke-linejoin="round"><path d="M8 7.5a4 4 0 108 0 4 4 0 00-8 0zm-2 14v-2a4 4 0 014-4h4a4 4 0 014 4v2"/></g><defs><clipPath id="oa"><path transform="translate(0 .5)" d="M0 0h24v24H0z"/></clipPath></defs></svg></svg>