<svg xmlns="http://www.w3.org/2000/svg" width="44" height="44" viewBox="0 0 44 44" fill="none">
  <path d="M21.5245 1.46352C21.6741 1.00287 22.3259 1.00287 22.4755 1.46353L26.8271 14.8561C26.894 15.0621 27.086 15.2016 27.3026 15.2016H41.3844C41.8688 15.2016 42.0701 15.8214 41.6783 16.1061L30.2859 24.3832C30.1106 24.5105 30.0373 24.7362 30.1042 24.9422L34.4557 38.3349C34.6054 38.7955 34.0782 39.1786 33.6863 38.8939L22.2939 30.6168C22.1186 30.4895 21.8814 30.4895 21.7061 30.6168L10.3137 38.8939C9.92182 39.1786 9.39458 38.7955 9.54425 38.3348L13.8958 24.9422C13.9627 24.7362 13.8894 24.5105 13.7141 24.3832L2.3217 16.1061C1.92985 15.8214 2.13124 15.2016 2.6156 15.2016H16.6974C16.914 15.2016 17.106 15.0621 17.1729 14.8561L21.5245 1.46352Z" fill="#ECC705"/>
</svg>
