<svg xmlns="http://www.w3.org/2000/svg" width="50" height="50" viewBox="0 0 50 50" fill="none">
  <g clip-path="url(#clip0_507_6428)">
    <path d="M43.75 16.4938V24.8979C39.971 24.523 36.3676 23.117 33.3333 20.8333V30.2083C33.3328 32.7524 32.6156 35.2448 31.2639 37.4C29.9123 39.5553 27.9809 41.2862 25.691 42.3945C23.401 43.5027 20.8452 43.9436 18.3164 43.6664C15.7875 43.3892 13.3878 42.4053 11.3923 40.8273C9.39679 39.2494 7.88612 37.1412 7.03339 34.7444C6.18065 32.3475 6.02034 29.759 6.57081 27.2752C7.12128 24.7914 8.36027 22.513 10.1458 20.7009C11.9314 18.8887 14.1913 17.6162 16.6667 17.0292V26.0417C15.9564 26.5743 15.3941 27.2797 15.0332 28.0908C14.6723 28.902 14.5247 29.7919 14.6044 30.6761C14.6841 31.5603 14.9885 32.4094 15.4887 33.1429C15.989 33.8764 16.6684 34.4698 17.4624 34.8668C18.2565 35.2638 19.1389 35.4513 20.0258 35.4114C20.9127 35.3715 21.7746 35.1055 22.5299 34.6388C23.2851 34.1721 23.9084 33.52 24.3407 32.7446C24.7731 31.9692 25 31.0961 25 30.2083V6.25H33.5063C33.94 8.80917 35.1591 11.1701 36.9945 13.0055C38.8299 14.8409 41.1908 16.06 43.75 16.4938Z" stroke="#B029FF" stroke-width="2" stroke-linecap="round" stroke-linejoin="round"/>
  </g>
  <defs>
    <clipPath id="clip0_507_6428">
      <rect width="50" height="50" fill="white"/>
    </clipPath>
  </defs>
</svg>
