<svg xmlns="http://www.w3.org/2000/svg" width="40" height="41" viewBox="0 0 40 41" fill="none">
  <g clip-path="url(#clip0_17_19948)">
    <path d="M20 24.1604C21.7455 24.1604 23.1605 22.7454 23.1605 20.9999C23.1605 19.2544 21.7455 17.8394 20 17.8394C18.2545 17.8394 16.8395 19.2544 16.8395 20.9999C16.8395 22.7454 18.2545 24.1604 20 24.1604Z" fill="#A3DB21"/>
    <path d="M24.0421 13.0132H15.9579C14.911 13.0132 13.9069 13.4291 13.1667 14.1693C12.4264 14.9096 12.0105 15.9136 12.0105 16.9606V25.0421C12.0105 26.089 12.4264 27.0931 13.1667 27.8333C13.9069 28.5736 14.911 28.9895 15.9579 28.9895H24.0421C25.089 28.9895 26.093 28.5736 26.8333 27.8333C27.5736 27.0931 27.9894 26.089 27.9894 25.0421V16.9579C27.9887 15.9115 27.5726 14.9081 26.8324 14.1684C26.0922 13.4287 25.0885 13.0132 24.0421 13.0132ZM20 26.1737C18.9766 26.1742 17.9761 25.8712 17.1249 25.3031C16.2738 24.7349 15.6102 23.9271 15.2182 22.9817C14.8262 22.0364 14.7234 20.9961 14.9227 19.9923C15.1221 18.9885 15.6146 18.0664 16.3381 17.3426C17.0615 16.6188 17.9834 16.1258 18.987 15.9259C19.9907 15.7261 21.0311 15.8284 21.9766 16.2199C22.9221 16.6114 23.7303 17.2745 24.2989 18.1254C24.8675 18.9763 25.171 19.9767 25.171 21C25.1696 22.3713 24.6245 23.686 23.6551 24.6559C22.6857 25.6258 21.3712 26.1716 20 26.1737ZM25.2026 17.1053C24.9494 17.1058 24.7018 17.0312 24.4911 16.8908C24.2803 16.7505 24.116 16.5508 24.0189 16.317C23.9218 16.0832 23.8962 15.8258 23.9455 15.5775C23.9947 15.3291 24.1166 15.101 24.2956 14.922C24.4746 14.743 24.7028 14.6211 24.9511 14.5718C25.1994 14.5226 25.4568 14.5481 25.6906 14.6453C25.9244 14.7424 26.1241 14.9067 26.2645 15.1174C26.4048 15.3282 26.4794 15.5758 26.4789 15.829C26.4782 16.1673 26.3435 16.4915 26.1043 16.7307C25.8651 16.9699 25.5409 17.1046 25.2026 17.1053Z" fill="#A3DB21"/>
    <path d="M20 1C16.0444 1 12.1776 2.17298 8.8886 4.37061C5.59962 6.56824 3.03617 9.69181 1.52242 13.3463C0.00866564 17.0009 -0.387401 21.0222 0.384303 24.9018C1.15601 28.7814 3.06082 32.3451 5.85787 35.1421C8.65492 37.9392 12.2186 39.844 16.0982 40.6157C19.9778 41.3874 23.9992 40.9913 27.6537 39.4776C31.3082 37.9638 34.4318 35.4004 36.6294 32.1114C38.827 28.8224 40 24.9556 40 21C40 15.6957 37.8929 10.6086 34.1421 6.85786C30.3914 3.10714 25.3043 1 20 1ZM30 25.0421C29.9986 26.6218 29.3705 28.1364 28.2534 29.2534C27.1364 30.3705 25.6218 30.9986 24.0421 31H15.9579C14.3784 30.9979 12.8642 30.3695 11.7473 29.2527C10.6305 28.1358 10.0021 26.6216 10 25.0421V16.9579C10.0021 15.3784 10.6305 13.8642 11.7473 12.7473C12.8642 11.6305 14.3784 11.0021 15.9579 11H24.0421C25.6216 11.0021 27.1358 11.6305 28.2527 12.7473C29.3695 13.8642 29.9979 15.3784 30 16.9579V25.0421Z" fill="#A3DB21"/>
  </g>
  <defs>
    <clipPath id="clip0_17_19948">
      <rect width="40" height="40" fill="white" transform="translate(0 0.808594)"/>
    </clipPath>
  </defs>
</svg>