<?xml version="1.0" encoding="utf-8"?><svg viewBox="0 0 30 31" xmlns="http://www.w3.org/2000/svg" xmlns:xlink="http://www.w3.org/1999/xlink"><style>:root>svg{display:none}:root>svg:target{display:block}</style><svg viewBox="0 0 15 8" id="arrow" xmlns="http://www.w3.org/2000/svg"><path d="M14.354 4.354a.5.5 0 000-.708L11.172.464a.5.5 0 10-.708.708L13.293 4l-2.829 2.828a.5.5 0 10.708.708l3.182-3.182zM0 4.5h14v-1H0v1z"/></svg><svg viewBox="0 0 30 31" id="email" xmlns="http://www.w3.org/2000/svg"><path d="M3.75 24.25V6.75h22.5v17.5H3.75zM15 15.644l10-6.538V8l-10 6.25L5 8v1.106l10 6.538z"/></svg><svg viewBox="0 0 30 31" id="phone" xmlns="http://www.w3.org/2000/svg"><path d="M26.25 21.025v4.42a1.25 1.25 0 01-1.163 1.247 20.15 20.15 0 01-1.337.058c-11.046 0-20-8.954-20-20 0-.345.019-.791.058-1.338A1.25 1.25 0 015.054 4.25h4.42a.625.625 0 01.623.563c.028.287.054.516.08.69.248 1.733.757 3.42 1.51 5a.57.57 0 01-.184.71L8.806 13.14a16.309 16.309 0 008.555 8.555l1.925-2.692a.577.577 0 01.716-.187 17.37 17.37 0 005 1.507c.174.024.403.05.688.08a.625.625 0 01.56.622z"/></svg><svg viewBox="0 0 30 31" id="pin" xmlns="http://www.w3.org/2000/svg"><path d="M15 14.875a3.125 3.125 0 110-6.25 3.125 3.125 0 010 6.25zM15 3a8.75 8.75 0 00-8.75 8.75C6.25 18.313 15 28 15 28s8.75-9.688 8.75-16.25A8.75 8.75 0 0015 3z"/></svg></svg>