<?xml version="1.0" encoding="utf-8"?><svg viewBox="0 0 502.66 502.66" xmlns="http://www.w3.org/2000/svg" xmlns:xlink="http://www.w3.org/1999/xlink"><style>:root>svg{display:none}:root>svg:target{display:block}</style><svg viewBox="0 0 75 83" id="ambiance" xmlns="http://www.w3.org/2000/svg"><path d="M25.835 29.05v-.767l-.765-.065c-8.013-.678-16.557-1.973-24.06-3.915l1.678-6.681c10.78 2.775 23.264 3.963 34.812 3.963 11.548 0 24.032-1.188 34.812-3.963l1.677 6.68c-7.502 1.943-16.046 3.238-24.06 3.916l-.764.065v53.882h-6.663v-24.9H32.498v24.9h-6.664V29.05zM44.998 8.3c0 4.1-3.373 7.465-7.498 7.465s-7.498-3.364-7.498-7.465c0-4.1 3.373-7.465 7.498-7.465s7.498 3.364 7.498 7.465z"/></svg><svg viewBox="0 0 48 48" id="arrow" xmlns="http://www.w3.org/2000/svg"><path d="M42 22H13.66l7.16-7.18L18 12 6 24l12 12 2.82-2.82L13.66 26H42v-4z"/></svg><svg viewBox="0 0 32 32" id="button" xmlns="http://www.w3.org/2000/svg"><path d="M12.625 9.25l6.75 6.75-6.75 6.75"/></svg><svg viewBox="0 0 20 20" id="fb" xmlns="http://www.w3.org/2000/svg"><path fill-rule="evenodd" clip-rule="evenodd" d="M10 16.667a6.667 6.667 0 100-13.334 6.667 6.667 0 000 13.334zm0 1.666a8.333 8.333 0 100-16.666 8.333 8.333 0 000 16.666z"/><path d="M10 8.333c0-.46.373-.833.833-.833h.834a.833.833 0 000-1.667h-.834a2.5 2.5 0 00-2.5 2.5V10H7.5a.833.833 0 000 1.667h.833v5a.833.833 0 001.667 0v-5h1.667a.833.833 0 000-1.667H10V8.333z"/></svg><svg viewBox="0 0 502.664 502.664" id="icon" xmlns="http://www.w3.org/2000/svg"><path d="M153.821 358.226L0 274.337v-46.463l153.821-83.414v54.574L46.636 250.523l107.185 53.431v54.272zm26.273 29.358L282.103 115.08h32.227L212.084 387.584h-31.99zm168.749-29.358v-54.272l107.164-52.999-107.164-52.59v-53.927l153.821 83.522v46.183l-153.821 84.083z"/></svg><svg viewBox="0 0 20 20" id="instagram" xmlns="http://www.w3.org/2000/svg"><path fill-rule="evenodd" clip-rule="evenodd" d="M13.333 3.333H6.667a3.333 3.333 0 00-3.334 3.334v6.666a3.333 3.333 0 003.334 3.334h6.666a3.333 3.333 0 003.334-3.334V6.667a3.333 3.333 0 00-3.334-3.334zM6.667 1.667a5 5 0 00-5 5v6.666a5 5 0 005 5h6.666a5 5 0 005-5V6.667a5 5 0 00-5-5H6.667z"/><path d="M14.167 6.667a.833.833 0 100-1.667.833.833 0 000 1.667z"/><path fill-rule="evenodd" clip-rule="evenodd" d="M14.167 10a4.167 4.167 0 11-8.334 0 4.167 4.167 0 018.334 0zM12.5 10a2.5 2.5 0 11-5 0 2.5 2.5 0 015 0z"/></svg><svg viewBox="0 0 59 87" id="location" xmlns="http://www.w3.org/2000/svg"><path d="M41.539 25.615c0 6.77-5.437 12.254-12.147 12.254-6.706 0-12.145-5.486-12.145-12.254 0-6.765 5.437-12.253 12.145-12.253 6.71.002 12.147 5.488 12.147 12.253z"/><path d="M29.013 2.006c.055 0 .106-.002.16-.006.05.002.102.006.157.006 12.711.202 23.052 10.8 23.052 23.628 0 15.681-16.611 31.561-23.21 37.252a102.842 102.842 0 01-1.478-1.304C20.39 55.035 5.963 40.25 5.963 25.634 5.96 12.809 16.305 2.208 29.013 2.006z"/><path d="M29.5 85c-13.913 0-28-4.026-28-11.72 0-5.399 6.936-8.99 15.878-10.65 1.732 1.753 3.367 3.3 4.804 4.59-9.74 1.097-15.463 4.207-15.463 6.06 0 2.274 8.646 6.455 22.781 6.455 14.133 0 22.783-4.18 22.783-6.456 0-1.89-5.965-5.079-16.058-6.117 1.45-1.304 3.1-2.864 4.844-4.638C50.279 64.142 57.5 67.769 57.5 73.28 57.498 80.975 43.415 85 29.5 85z"/></svg><svg viewBox="0 0 83 83" id="parking" xmlns="http://www.w3.org/2000/svg"><path d="M34.757 38.204V25.216c1.24-.05 3.115-.084 4.175-.084 2.938 0 4.956.588 6.221 1.579 1.217.953 1.895 2.403 1.895 4.542 0 2.448-.75 4.124-2.096 5.22-1.388 1.13-3.584 1.789-6.76 1.789-.77 0-2.342-.02-3.435-.058z"/><path d="M9.473 1.085h64.053c4.633 0 8.388 3.757 8.389 8.392v64.046a8.39 8.39 0 01-8.39 8.392H9.474a8.39 8.39 0 01-8.388-8.392V9.477a8.389 8.389 0 018.388-8.392zM38.046 50.73c7.41 0 13.793-2.281 17.858-6.588 3.255-3.372 4.867-7.842 4.867-13.184 0-5.295-1.954-9.989-5.582-13.15-3.828-3.422-9.403-5.069-16.404-5.069-3.276 0-8.313.19-11.5.571a5.736 5.736 0 00-5.057 5.697v45.517a5.738 5.738 0 005.738 5.737h1.056a5.737 5.737 0 005.736-5.737V50.698c1.172.025 2.705.031 3.288.031z"/></svg></svg>