<?xml version="1.0" encoding="utf-8"?><svg viewBox="0 0 502.66 502.66" xmlns="http://www.w3.org/2000/svg" xmlns:xlink="http://www.w3.org/1999/xlink"><style>:root>svg{display:none}:root>svg:target{display:block}</style><svg viewBox="0 0 20 20" id="accordion" xmlns="http://www.w3.org/2000/svg"><g clip-path="url(#aa)" stroke-width="2" stroke-linecap="round" stroke-linejoin="round"><path d="M4.167 10h11.666m-5 5 5-5m-5-5 5 5"/></g><defs><clipPath id="aa"><path d="M0 0h20v20H0z"/></clipPath></defs></svg><svg viewBox="0 0 50 50" id="email" xmlns="http://www.w3.org/2000/svg"><g clip-path="url(#ba)" stroke-width="1.5" stroke-linecap="round" stroke-linejoin="round"><path d="M6.25 14.583a4.167 4.167 0 0 1 4.167-4.167h29.166a4.167 4.167 0 0 1 4.167 4.167v20.833a4.167 4.167 0 0 1-4.167 4.167H10.417a4.167 4.167 0 0 1-4.167-4.167V14.583Z"/><path d="M6.25 14.584 25 27.084l18.75-12.5"/></g><defs><clipPath id="ba"><path d="M0 0h50v50H0z"/></clipPath></defs></svg><svg viewBox="0 0 502.664 502.664" xml:space="preserve" id="icon" xmlns="http://www.w3.org/2000/svg"><path d="M153.821 358.226 0 274.337v-46.463l153.821-83.414v54.574L46.636 250.523l107.185 53.431v54.272zm26.273 29.358L282.103 115.08h32.227L212.084 387.584h-31.99zm168.749-29.358v-54.272l107.164-52.999-107.164-52.59v-53.927l153.821 83.522v46.183l-153.821 84.083z"/></svg><svg viewBox="0 0 24 25" id="input-email" xmlns="http://www.w3.org/2000/svg"><g clip-path="url(#da)" stroke-width="1.5" stroke-linecap="round" stroke-linejoin="round"><path d="M3 7.5a2 2 0 0 1 2-2h14a2 2 0 0 1 2 2v10a2 2 0 0 1-2 2H5a2 2 0 0 1-2-2v-10Z"/><path d="m3 7.5 9 6 9-6"/></g><defs><clipPath id="da"><path transform="translate(0 .5)" d="M0 0h24v24H0z"/></clipPath></defs></svg><svg viewBox="0 0 25 25" id="input-phone" xmlns="http://www.w3.org/2000/svg"><g clip-path="url(#ea)"><path d="M5.5 4.5h4l2 5L9 11a11 11 0 0 0 5 5l1.5-2.5 5 2v4a2 2 0 0 1-2 2 16 16 0 0 1-15-15 2 2 0 0 1 2-2Z"/></g><defs><clipPath id="ea"><path transform="translate(.5 .5)" d="M0 0h24v24H0z"/></clipPath></defs></svg><svg viewBox="0 0 336 6" id="line" xmlns="http://www.w3.org/2000/svg"><path d="M.113 3 3 5.887 5.887 3 3 .113.113 3Zm335.774 0L333 .113 330.113 3 333 5.887 335.887 3ZM3 3.5h330v-1H3v1Z"/></svg><svg viewBox="0 0 24 25" id="mobile-phone" xmlns="http://www.w3.org/2000/svg"><g clip-path="url(#ga)"><path d="M5 4.5h4l2 5L8.5 11a11 11 0 0 0 5 5l1.5-2.5 5 2v4a2 2 0 0 1-2 2 16 16 0 0 1-15-15 2 2 0 0 1 2-2Z"/></g><defs><clipPath id="ga"><path transform="translate(0 .5)" d="M0 0h24v24H0z"/></clipPath></defs></svg><svg viewBox="0 0 50 50" id="phone" xmlns="http://www.w3.org/2000/svg"><g clip-path="url(#ha)"><path d="M10.417 8.334h8.333l4.167 10.417-5.209 3.125a22.917 22.917 0 0 0 10.417 10.416l3.125-5.208 10.417 4.167v8.333a4.167 4.167 0 0 1-4.167 4.167A33.334 33.334 0 0 1 6.25 12.5a4.167 4.167 0 0 1 4.167-4.167Z"/></g><defs><clipPath id="ha"><path d="M0 0h50v50H0z"/></clipPath></defs></svg><svg viewBox="0 0 25 24" id="pin" xmlns="http://www.w3.org/2000/svg"><path d="M12.5 1.5a8.26 8.26 0 0 0-8.25 8.25 8.167 8.167 0 0 0 1.662 4.95s.225.296.262.339L12.5 22.5l6.33-7.465.258-.335v-.002A8.164 8.164 0 0 0 20.75 9.75 8.26 8.26 0 0 0 12.5 1.5Zm0 11.25a3 3 0 1 1 0-5.999 3 3 0 0 1 0 5.999Z"/></svg><svg viewBox="0 0 120 120" id="play" xmlns="http://www.w3.org/2000/svg"><g filter="url(#ja)"><rect width="120" height="120" rx="60" fill-opacity=".2"/><rect x=".5" y=".5" width="119" height="119" rx="59.5"/><circle cx="60" cy="60" r="45"/><path d="M75 60 52.5 72.99V47.01L75 60Z"/></g><defs><filter id="ja" x="-4" y="-4" width="128" height="128" filterUnits="userSpaceOnUse" color-interpolation-filters="sRGB"><feFlood flood-opacity="0" result="BackgroundImageFix"/><feGaussianBlur in="BackgroundImageFix" stdDeviation="2"/><feComposite in2="SourceAlpha" operator="in" result="effect1_backgroundBlur_507_6292"/><feBlend in="SourceGraphic" in2="effect1_backgroundBlur_507_6292" result="shape"/></filter></defs></svg><svg viewBox="0 0 44 44" id="reviews-star" xmlns="http://www.w3.org/2000/svg"><path d="M21.524 1.464a.5.5 0 0 1 .951 0l4.352 13.392a.5.5 0 0 0 .476.346h14.081a.5.5 0 0 1 .294.904l-11.392 8.277a.5.5 0 0 0-.182.56l4.352 13.392a.5.5 0 0 1-.77.559l-11.392-8.277a.5.5 0 0 0-.588 0l-11.392 8.277a.5.5 0 0 1-.77-.56l4.352-13.392a.5.5 0 0 0-.182-.559L2.322 16.106a.5.5 0 0 1 .294-.904h14.081a.5.5 0 0 0 .476-.346l4.352-13.392Z"/></svg><svg viewBox="0 0 30 30" id="slider-arrow" xmlns="http://www.w3.org/2000/svg"><g clip-path="url(#la)" stroke-width="2" stroke-linecap="round" stroke-linejoin="round"><path d="M6.25 15h17.5m-7.5 7.5 7.5-7.5m-7.5-7.5 7.5 7.5"/></g><defs><clipPath id="la"><path d="M0 0h30v30H0z"/></clipPath></defs></svg><svg viewBox="0 0 50 50" id="tiktok" xmlns="http://www.w3.org/2000/svg"><g clip-path="url(#ma)"><path d="M43.75 16.494v8.404a20.725 20.725 0 0 1-10.417-4.065v9.375a13.54 13.54 0 0 1-21.94 10.62 13.541 13.541 0 0 1 5.274-23.799v9.013a5.207 5.207 0 0 0 3.359 9.37A5.21 5.21 0 0 0 25 30.207V6.25h8.506A12.51 12.51 0 0 0 43.75 16.494Z"/></g><defs><clipPath id="ma"><path d="M0 0h50v50H0z"/></clipPath></defs></svg><svg viewBox="0 0 24 25" id="user" xmlns="http://www.w3.org/2000/svg"><g clip-path="url(#na)" stroke-width="1.5" stroke-linecap="round" stroke-linejoin="round"><path d="M8 7.5a4 4 0 1 0 8 0 4 4 0 0 0-8 0Zm-2 14v-2a4 4 0 0 1 4-4h4a4 4 0 0 1 4 4v2"/></g><defs><clipPath id="na"><path transform="translate(0 .5)" d="M0 0h24v24H0z"/></clipPath></defs></svg></svg>