<?xml version="1.0" encoding="utf-8"?><svg viewBox="0 0 502.66 502.66" xmlns="http://www.w3.org/2000/svg" xmlns:xlink="http://www.w3.org/1999/xlink"><style>:root>svg{display:none}:root>svg:target{display:block}</style><svg viewBox="0 0 30 30" id="email" xmlns="http://www.w3.org/2000/svg"><g clip-path="url(#aa)" stroke-width="1.5" stroke-linecap="round" stroke-linejoin="round"><path d="M3.75 8.75a2.5 2.5 0 012.5-2.5h17.5a2.5 2.5 0 012.5 2.5v12.5a2.5 2.5 0 01-2.5 2.5H6.25a2.5 2.5 0 01-2.5-2.5V8.75z"/><path d="M3.75 8.75L15 16.25l11.25-7.5"/></g><defs><clipPath id="aa"><path d="M0 0h30v30H0z"/></clipPath></defs></svg><svg viewBox="0 0 30 30" id="facebook" xmlns="http://www.w3.org/2000/svg"><path d="M27.5 15c0-6.9-5.6-12.5-12.5-12.5S2.5 8.1 2.5 15c0 6.05 4.3 11.087 10 12.25v-8.5H10V15h2.5v-3.125A4.38 4.38 0 0116.875 7.5H20v3.75h-2.5c-.688 0-1.25.563-1.25 1.25V15H20v3.75h-3.75v8.688C22.563 26.813 27.5 21.488 27.5 15z"/></svg><svg viewBox="0 0 502.664 502.664" id="icon" xmlns="http://www.w3.org/2000/svg"><path d="M153.821 358.226L0 274.337v-46.463l153.821-83.414v54.574L46.636 250.523l107.185 53.431v54.272zm26.273 29.358L282.103 115.08h32.227L212.084 387.584h-31.99zm168.749-29.358v-54.272l107.164-52.999-107.164-52.59v-53.927l153.821 83.522v46.183l-153.821 84.083z"/></svg><svg viewBox="0 0 30 30" id="instagram" xmlns="http://www.w3.org/2000/svg"><path d="M16.285 2.5c1.406.004 2.12.011 2.736.029l.242.009c.28.01.557.022.89.037 1.33.063 2.238.272 3.034.581a6.1 6.1 0 012.215 1.442 6.134 6.134 0 011.441 2.215c.31.796.52 1.703.582 3.035.015.332.027.608.037.89l.008.242c.018.615.026 1.329.029 2.735v2.57a95.92 95.92 0 01-.028 2.735l-.008.242c-.01.282-.022.558-.037.89-.063 1.332-.275 2.238-.582 3.035a6.104 6.104 0 01-1.442 2.215 6.143 6.143 0 01-2.215 1.442c-.796.308-1.704.518-3.034.581-.296.014-.593.026-.89.037l-.242.008c-.616.018-1.33.026-2.736.029l-.933.001h-1.636a98.272 98.272 0 01-2.736-.029l-.243-.007a80.071 80.071 0 01-.89-.039c-1.33-.063-2.237-.273-3.035-.581a6.111 6.111 0 01-2.214-1.442 6.13 6.13 0 01-1.442-2.215c-.309-.796-.519-1.703-.581-3.035a93.08 93.08 0 01-.038-.89l-.006-.242a98.838 98.838 0 01-.031-2.735v-2.57a95.92 95.92 0 01.027-2.735l.009-.242c.01-.282.022-.558.037-.89.063-1.332.273-2.238.582-3.036A6.1 6.1 0 014.6 4.598a6.121 6.121 0 012.212-1.44c.798-.31 1.704-.52 3.035-.582.333-.015.61-.028.89-.038l.243-.007a98.762 98.762 0 012.735-.029l2.57-.001zM15 8.75a6.25 6.25 0 100 12.5 6.25 6.25 0 000-12.5zm0 2.5a3.75 3.75 0 11-.001 7.5 3.75 3.75 0 01.002-7.5m6.563-4.375a1.563 1.563 0 100 3.125 1.563 1.563 0 000-3.125z"/></svg><svg viewBox="0 0 24 24" id="phone" xmlns="http://www.w3.org/2000/svg"><g clip-path="url(#ea)"><path d="M5 4h4l2 5-2.5 1.5a11 11 0 005 5L15 13l5 2v4a2 2 0 01-2 2A16 16 0 013 6a2 2 0 012-2z"/></g><defs><clipPath id="ea"><path d="M0 0h24v24H0z"/></clipPath></defs></svg><svg viewBox="0 0 30 30" id="slider-arrow" xmlns="http://www.w3.org/2000/svg"><g clip-path="url(#fa)" stroke-width="2" stroke-linecap="round" stroke-linejoin="round"><path d="M23.75 15H6.25m7.5 7.5L6.25 15m7.5-7.5L6.25 15"/></g><defs><clipPath id="fa"><path transform="matrix(-1 0 0 1 30 0)" d="M0 0h30v30H0z"/></clipPath></defs></svg><svg viewBox="0 0 20 18" id="star" xmlns="http://www.w3.org/2000/svg"><mask id="ga" maskUnits="userSpaceOnUse" x="0" y="0" width="20" height="18"><path d="M.5 0h19v18H.5V0z"/></mask><g mask="url(#ga)"><mask id="gb" maskUnits="userSpaceOnUse" x="0" y="0" width="20" height="18"><path d="M9.985 0l2.24 6.875h7.247l-5.862 4.25L15.848 18l-5.863-4.25L4.125 18l2.237-6.876L.5 6.875h7.247L9.985 0z"/></mask><g mask="url(#gb)"><path d="M.5 0h19v18H.5V0z"/></g></g></svg></svg>