<?xml version="1.0" encoding="utf-8"?><svg viewBox="0 0 512 512" xmlns="http://www.w3.org/2000/svg" xmlns:xlink="http://www.w3.org/1999/xlink"><style>:root>svg{display:none}:root>svg:target{display:block}</style><svg viewBox="0 0 96 96" id="arrow" xmlns="http://www.w3.org/2000/svg"><path d="M69.844 43.388 33.842 13.386a6.003 6.003 0 0 0-7.688 9.223L56.624 48l-30.47 25.39a6.003 6.003 0 0 0 7.688 9.223l36.002-30.001a6.01 6.01 0 0 0 0-9.223Z"/></svg><svg viewBox="0 0 512 512" xml:space="preserve" id="facebook" xmlns="http://www.w3.org/2000/svg"><path d="M449.446 0C483.971 0 512 28.03 512 62.554v386.892C512 483.97 483.97 512 449.446 512H342.978V319.085h66.6l12.672-82.621h-79.272v-53.617c0-22.603 11.073-44.636 46.58-44.636H425.6v-70.34s-32.71-5.582-63.982-5.582c-65.288 0-107.96 39.569-107.96 111.204v62.971h-72.573v82.621h72.573V512H62.554C28.03 512 0 483.97 0 449.446V62.554C0 28.03 28.029 0 62.554 0h386.892Z"/></svg><svg viewBox="0 0 502.664 502.664" xml:space="preserve" id="icon" xmlns="http://www.w3.org/2000/svg"><path d="M153.821 358.226 0 274.337v-46.463l153.821-83.414v54.574L46.636 250.523l107.185 53.431v54.272zm26.273 29.358L282.103 115.08h32.227L212.084 387.584h-31.99zm168.749-29.358v-54.272l107.164-52.999-107.164-52.59v-53.927l153.821 83.522v46.183l-153.821 84.083z"/></svg><svg viewBox="0 0 512 512" xml:space="preserve" id="linkedin" xmlns="http://www.w3.org/2000/svg"><path d="M449.446 0C483.971 0 512 28.03 512 62.554v386.892C512 483.97 483.97 512 449.446 512H62.554C28.03 512 0 483.97 0 449.446V62.554C0 28.03 28.029 0 62.554 0h386.892ZM160.461 423.278V197.561h-75.04v225.717h75.04Zm270.539 0V293.839c0-69.333-37.018-101.586-86.381-101.586-39.804 0-57.634 21.891-67.617 37.266v-31.958h-75.021c.995 21.181 0 225.717 0 225.717h75.02V297.222c0-6.748.486-13.492 2.474-18.315 5.414-13.475 17.767-27.434 38.494-27.434 27.135 0 38.007 20.707 38.007 51.037v120.768H431ZM123.448 88.722C97.774 88.722 81 105.601 81 127.724c0 21.658 16.264 39.002 41.455 39.002h.484c26.165 0 42.452-17.344 42.452-39.002-.485-22.092-16.241-38.954-41.943-39.002Z"/></svg><svg xml:space="preserve" viewBox="0 0 24 24" id="twitter" xmlns="http://www.w3.org/2000/svg"><path d="M12.154 10.73 8.089 5.04H5.92l5.036 7.046.634.886 4.31 6.037h2.169l-5.284-7.394z"/><path d="M21.16 1H2.84A1.84 1.84 0 0 0 1 2.84v18.32A1.84 1.84 0 0 0 2.84 23h18.32A1.84 1.84 0 0 0 23 21.16V2.84A1.84 1.84 0 0 0 21.16 1zm-5.925 19-4.362-6.213L5.41 20H4l6.247-7.105L4 4h4.765l4.13 5.882L18.07 4h1.411l-5.957 6.776L20 20h-4.765z"/></svg><svg viewBox="0 0 512 512" xml:space="preserve" id="youtube" xmlns="http://www.w3.org/2000/svg"><path d="M449.446 0C483.971 0 512 28.03 512 62.554v386.892C512 483.97 483.97 512 449.446 512H62.554C28.03 512 0 483.97 0 449.446V62.554C0 28.03 28.029 0 62.554 0h386.892Zm-20.967 175.63c-4.139-15.489-16.337-27.687-31.826-31.826C368.575 136.28 256 136.28 256 136.28s-112.575 0-140.653 7.524c-15.486 4.139-27.686 16.337-31.826 31.826C76 203.705 76 262.282 76 262.282s0 58.576 7.521 86.648c4.14 15.489 16.34 27.69 31.826 31.829C143.425 388.28 256 388.28 256 388.28s112.575 0 140.653-7.521c15.489-4.139 27.687-16.34 31.826-31.829C436 320.858 436 262.282 436 262.282s0-58.577-7.521-86.652ZM219.998 316.283V208.281l93.53 54.001-93.53 54.001Z"/></svg></svg>