<svg width="30" height="31" viewBox="0 0 30 31" fill="none" xmlns="http://www.w3.org/2000/svg">
<path d="M26.25 21.025V25.445C26.2501 25.7615 26.1302 26.0662 25.9145 26.2977C25.6987 26.5293 25.4032 26.6703 25.0875 26.6925C24.5412 26.73 24.095 26.75 23.75 26.75C12.7037 26.75 3.75 17.7962 3.75 6.75C3.75 6.405 3.76875 5.95875 3.8075 5.4125C3.82965 5.0968 3.97073 4.80126 4.20225 4.58551C4.43378 4.36976 4.73853 4.24986 5.055 4.25H9.475C9.63005 4.24984 9.77962 4.30732 9.89466 4.41128C10.0097 4.51523 10.082 4.65823 10.0975 4.8125C10.1262 5.1 10.1525 5.32875 10.1775 5.5025C10.4259 7.23615 10.935 8.92229 11.6875 10.5038C11.8062 10.7538 11.7287 11.0525 11.5037 11.2125L8.80625 13.14C10.4556 16.9831 13.5182 20.0457 17.3612 21.695L19.2862 19.0025C19.3649 18.8925 19.4797 18.8136 19.6106 18.7796C19.7415 18.7455 19.8802 18.7585 20.0025 18.8162C21.5837 19.5674 23.2695 20.0752 25.0025 20.3225C25.1762 20.3475 25.405 20.3738 25.69 20.4025C25.844 20.4183 25.9867 20.4907 26.0904 20.6057C26.1941 20.7207 26.2502 20.8701 26.25 21.025Z" fill="white"/>
</svg>
