<?xml version="1.0" encoding="iso-8859-1"?>
<!-- Uploaded to: SVG Repo, www.svgrepo.com, Generator: SVG Repo Mixer Tools -->
<svg fill="#000000" height="800px" width="800px" version="1.1" id="Layer_1" xmlns="http://www.w3.org/2000/svg" xmlns:xlink="http://www.w3.org/1999/xlink" 
	 viewBox="0 0 512 512" xml:space="preserve">
<g>
	<g>
		<g>
			<path d="M392.533,119.467c-65.877,0-119.467,53.589-119.467,119.467S326.656,358.4,392.533,358.4S512,304.811,512,238.933
				S458.411,119.467,392.533,119.467z M392.533,341.333c-56.465,0-102.4-45.935-102.4-102.4s45.935-102.4,102.4-102.4
				c56.465,0,102.4,45.935,102.4,102.4S448.998,341.333,392.533,341.333z"/>
			<path d="M392.533,196.267c9.412,0,17.067,7.654,17.067,17.067c0,4.71,3.823,8.533,8.533,8.533s8.533-3.823,8.533-8.533
				c0-15.855-10.923-29.107-25.6-32.922V179.2c0-4.71-3.823-8.533-8.533-8.533c-4.71,0-8.533,3.823-8.533,8.533v1.212
				c-14.677,3.814-25.6,17.067-25.6,32.922c0,18.825,15.309,34.133,34.133,34.133c9.412,0,17.067,7.654,17.067,17.067
				c0,9.412-7.654,17.067-17.067,17.067c-9.412,0-17.067-7.654-17.067-17.067c0-4.71-3.823-8.533-8.533-8.533
				s-8.533,3.823-8.533,8.533c0,15.855,10.923,29.107,25.6,32.922v1.212c0,4.71,3.823,8.533,8.533,8.533
				c4.71,0,8.533-3.823,8.533-8.533v-1.212c14.677-3.814,25.6-17.067,25.6-32.922c0-18.825-15.309-34.133-34.133-34.133
				c-9.412,0-17.067-7.654-17.067-17.067C375.467,203.921,383.121,196.267,392.533,196.267z"/>
			<path d="M119.467,102.4c4.71,0,8.533-3.823,8.533-8.533V59.733c0-23.526,19.14-42.667,42.667-42.667h170.667
				c23.526,0,42.667,19.14,42.667,42.667v34.133c0,4.71,3.823,8.533,8.533,8.533c4.71,0,8.533-3.823,8.533-8.533V59.733
				C401.067,26.795,374.272,0,341.333,0H170.667c-32.939,0-59.733,26.795-59.733,59.733v34.133
				C110.933,98.577,114.756,102.4,119.467,102.4z"/>
			<path d="M119.467,119.467C53.589,119.467,0,173.056,0,238.933v153.6C0,458.411,53.589,512,119.467,512
				s119.467-53.589,119.467-119.467v-76.8c0-4.71-3.823-8.533-8.533-8.533s-8.533,3.823-8.533,8.533v76.8
				c0,56.465-45.935,102.4-102.4,102.4s-102.4-45.935-102.4-102.4v-153.6c0-53.581,41.395-97.604,93.867-101.965v136.098H42.667
				c-4.71,0-8.533,3.823-8.533,8.533s3.823,8.533,8.533,8.533H230.4c4.71,0,8.533-3.823,8.533-8.533v-42.667
				C238.933,173.056,185.344,119.467,119.467,119.467z M221.867,273.067H128V136.969c52.471,4.361,93.867,48.384,93.867,101.965
				V273.067z"/>
		</g>
	</g>
</g>
</svg>