<?xml version="1.0" encoding="UTF-8"?>
<svg id="Layer_1" data-name="Layer 1" xmlns="http://www.w3.org/2000/svg" viewBox="0 0 293.73 27.44">
  <defs>
    <style>
      .cls-1 {
        fill: #fff;
      }
    </style>
  </defs>
  <path class="cls-1" d="m74.62,16.32l-2.21-2.61,2.2-2.6,5.05,2.6-5.05,2.6Zm1.4,6.22l-5.29-1.69c.13-.42.24-.83.31-1.22.16-.85.22-1.59.19-2.26l3.05-.25,1.74,5.42Zm-6.27-3.01c-.04.2-.08.4-.13.61l-2.08-1.76.88-1.72,1.4.45c.14.65.1,1.43-.08,2.42m-2.54,6.66l-2.6-5.05,2.61-2.22,2.24,1.89c-.76,2.65-2.24,5.38-2.24,5.38m-3.07-8.93l1.85-.59.88,1.72-2.46,2.09-.27-3.22Zm-.47-.48l-3.23-.27,2.09-2.46,1.73.89-.59,1.84Zm-5.28,5.76l1.74-5.42,3.4.28.28,3.41-5.42,1.73Zm-3.65-8.82l5.06-2.6,2.2,2.6-2.21,2.61-5.05-2.6Zm3.65-8.82l5.29,1.69c-.13.42-.24.83-.31,1.22-.16.85-.22,1.59-.19,2.25-.38.03-3.05.25-3.05.25l-1.73-5.42Zm6.27,3.01c.04-.21.08-.41.13-.62l2.08,1.76-.89,1.72-1.4-.45c-.14-.65-.1-1.43.08-2.42m2.54-6.66h0l2.6,5.05-2.6,2.21-2.24-1.9c.78-2.79,2.24-5.37,2.24-5.37m3.07,8.93l-1.85.59-.89-1.72,2.47-2.09.27,3.22Zm-2.77,2.81c-1.48-.61-2.34-1.23-2.74-2.12l1.27.4c.11.04.23-.01.28-.12l.89-1.73.89,1.73c.05.1.17.15.28.12l1.86-.59-.59,1.86c-.04.11.01.23.12.28l1.73.89-1.49.77c-.59-.57-1.41-1.05-2.5-1.49m-3.43-.4l-1.54.79-2.09-2.47,2.79-.23c.12.74.39,1.36.84,1.91m.58,2.02l-1.73-.89,1.49-.77c.59.57,1.41,1.05,2.5,1.49,1.48.61,2.34,1.23,2.74,2.12l-1.27-.4c-.11-.04-.23.01-.28.12l-.89,1.73-.89-1.73c-.04-.08-.12-.13-.21-.13-.02,0-.05,0-.07.01l-1.86.59.59-1.86c.03-.11-.01-.23-.12-.28m5.68.23l1.54-.8,2.09,2.46-2.79.23c-.12-.73-.39-1.35-.84-1.9m.41-4.19l3.22.27-2.09,2.47-1.72-.89.59-1.85Zm5.28-5.75l-1.73,5.42-3.4-.28-.28-3.4,5.42-1.73Zm4.69,8.47l-5.64-2.91,1.93-6.05c.04-.14,0-.29-.1-.4-.1-.1-.26-.14-.4-.1l-6.05,1.92-2.9-5.63c-.07-.13-.2-.21-.35-.21s-.27.08-.35.21c0,0-1.89,2.84-2.93,5.64l-6.03-1.93c-.14-.04-.29,0-.4.1-.1.1-.14.26-.1.4l1.93,6.05-5.64,2.91c-.13.07-.21.2-.21.35s.08.28.21.35l5.64,2.91-1.93,6.05c-.04.14,0,.29.1.4.1.1.26.16.4.12l6.05-1.91h0l2.91,5.62c.07.13.2.2.35.2s.27-.09.35-.22c0,0,1.89-2.84,2.93-5.64l6.03,1.93c.14.04.29,0,.4-.1.1-.1.14-.26.1-.4l-1.93-6.05,5.64-2.91c.13-.07.21-.2.21-.35s-.08-.28-.21-.35"/>
  <g>
    <polygon class="cls-1" points="0 6.98 0 8.96 3.91 8.96 3.91 20.46 6.11 20.46 6.11 8.96 10.02 8.96 10.02 6.98 0 6.98"/>
    <polygon class="cls-1" points="26.24 20.46 26.24 14.45 20.08 14.45 20.08 20.46 17.84 20.46 17.84 6.98 20.08 6.98 20.08 12.39 26.24 12.39 26.24 6.98 28.5 6.98 28.5 20.46 26.24 20.46"/>
    <polygon class="cls-1" points="45.84 8.94 39.89 8.94 39.89 12.51 45.51 12.51 45.51 14.49 39.89 14.49 39.89 18.42 45.96 18.42 45.96 20.46 37.63 20.46 37.63 6.98 45.84 6.98 45.84 8.94"/>
    <path class="cls-1" d="m89.71,16.63c.1,1.52,1.75,2.08,3.22,2.08s3.12-.42,3.12-2.1c0-1.77-1.83-1.95-3.39-2.1-2.47-.21-4.91-1-4.91-3.7s2.45-4.09,5.07-4.09,4.99,1.16,5.05,3.91h-2.12c-.1-1.45-1.62-1.91-2.95-1.91-1.23,0-2.83.5-2.83,2.02s1.52,1.71,3.08,1.93c2.74.31,5.24.85,5.24,3.95s-2.79,4.09-5.32,4.09c-2.64.06-5.4-1.25-5.45-4.09h2.2Z"/>
    <polygon class="cls-1" points="105.26 8.96 105.26 6.98 115.28 6.98 115.28 8.96 111.37 8.96 111.37 20.46 109.17 20.46 109.17 8.96 105.26 8.96"/>
    <path class="cls-1" d="m124.49,15.78h4.72l-2.35-5.4-2.37,5.4Zm-.73,1.89l-1.31,2.79h-2.35v-.29l6.24-13.3h1.04l6.2,13.3v.29h-2.33l-1.33-2.79h-6.17Z"/>
    <path class="cls-1" d="m146.63,13.91c1.46,0,2.52-1.06,2.52-2.52s-1.04-2.47-2.52-2.47h-3.33v4.99h3.33Zm5.3,6.22v.33h-2.27l-3.35-4.7h-2.97v4.7h-2.25V6.98h5.57c2.93,0,4.68,1.98,4.68,4.39,0,1.87-1.12,3.43-2.83,4.05l3.43,4.72Z"/>
  </g>
  <g>
    <path class="cls-1" d="m176,16.66c0,2.11-1.87,3.52-4.74,3.52h-5.6V7.24h5.46c2.59,0,4.19,1.28,4.19,3.25,0,1.45-.8,2.57-2.27,2.99,1.96.32,2.95,1.54,2.95,3.18Zm-8.98-3.64h3.77c2.07,0,3.24-.89,3.24-2.38,0-1.35-1.14-2.21-3.03-2.21h-3.98v4.59Zm4.19,5.96c2.15,0,3.45-1.03,3.45-2.47s-1.26-2.28-3.41-2.28h-4.23v4.76h4.19Z"/>
    <path class="cls-1" d="m185.06,15.48v4.7h-1.35V7.24h4.82c2.89,0,4.93,1.58,4.93,4.13,0,2.11-1.43,3.58-3.6,4l4.15,4.82h-1.69l-4.04-4.7h-3.22Zm3.43-1.24c2.11,0,3.62-1.08,3.62-2.87s-1.5-2.89-3.62-2.89h-3.43v5.77h3.43Z"/>
    <path class="cls-1" d="m203.15,20.18h-1.35V7.24h1.35v12.94Z"/>
    <path class="cls-1" d="m221.54,10.74h-1.33c-.3-1.58-1.45-2.61-3.64-2.61-1.96,0-3.25.95-3.25,2.46,0,1.18.95,1.9,2.66,2.21l1.96.38c2.28.44,3.6,1.52,3.6,3.37,0,2.36-1.92,3.92-4.82,3.92-3.1,0-5.08-1.62-5.39-4.42h1.33c.32,2.02,1.73,3.2,4.11,3.2,2.06,0,3.37-1.01,3.37-2.55,0-1.09-.74-1.9-2.44-2.21l-2.25-.44c-2.38-.44-3.58-1.64-3.58-3.39,0-2.23,1.85-3.71,4.61-3.71,2.61,0,4.72,1.24,5.04,3.79Z"/>
    <path class="cls-1" d="m239.69,16.66c0,2.11-1.87,3.52-4.74,3.52h-5.6V7.24h5.46c2.59,0,4.19,1.28,4.19,3.25,0,1.45-.8,2.57-2.27,2.99,1.96.32,2.95,1.54,2.95,3.18Zm-8.98-3.64h3.77c2.07,0,3.24-.89,3.24-2.38,0-1.35-1.14-2.21-3.03-2.21h-3.98v4.59Zm4.19,5.96c2.15,0,3.45-1.03,3.45-2.47s-1.26-2.28-3.41-2.28h-4.23v4.76h4.19Z"/>
    <path class="cls-1" d="m248.79,16.42l-1.68,3.77h-1.45l5.86-13.04h1.29l5.86,13.04h-1.45l-1.68-3.77h-6.78Zm3.39-7.63l-2.84,6.4h5.67l-2.84-6.4Z"/>
    <path class="cls-1" d="m276.33,20.18h-1.16l-8.45-10.49v10.49h-1.35V7.24h1.1l8.51,10.62V7.24h1.35v12.94Z"/>
    <path class="cls-1" d="m286.1,13.12h6.87v1.26h-6.87v4.57h7.63v1.24h-8.98V7.24h8.98v1.24h-7.63v4.64Z"/>
  </g>
</svg>