<?xml version="1.0" encoding="utf-8"?>
<!-- Generator: Adobe Illustrator 21.0.0, SVG Export Plug-In . SVG Version: 6.00 Build 0)  -->
<svg version="1.1" id="Layer_1" xmlns="http://www.w3.org/2000/svg" xmlns:xlink="http://www.w3.org/1999/xlink" x="0px" y="0px"
	 viewBox="0 0 244 20" style="enable-background:new 0 0 244 20;" xml:space="preserve">
<style type="text/css">
	.st0{fill:#FFFFFF;}
</style>
<g>
	<path class="st0" d="M58.8,9.8l-4.1-2.1l1.4-4.4c0-0.1,0-0.2-0.1-0.3c-0.1-0.1-0.2-0.1-0.3-0.1l-4.4,1.4l-2.1-4.1
		C49.1,0.1,49,0,48.9,0c-0.1,0-0.2,0.1-0.3,0.2c0,0-1.4,2.1-2.1,4.1l-4.4-1.4c-0.1,0-0.2,0-0.3,0.1c-0.1,0.1-0.1,0.2-0.1,0.3
		l1.4,4.4l-4.1,2.1c-0.1,0-0.2,0.1-0.2,0.3c0,0.1,0.1,0.2,0.2,0.3l4.1,2.1l-1.4,4.4c0,0.1,0,0.2,0.1,0.3c0.1,0.1,0.2,0.1,0.3,0.1
		l4.4-1.4h0l2.1,4.1c0,0.1,0.1,0.1,0.3,0.1c0.1,0,0.2-0.1,0.3-0.2c0,0,1.4-2.1,2.1-4.1l4.4,1.4c0.1,0,0.2,0,0.3-0.1
		c0.1-0.1,0.1-0.2,0.1-0.3l-1.4-4.4l4.1-2.1c0.1,0,0.2-0.1,0.2-0.3S58.8,9.8,58.8,9.8z M55.3,3.6l-1.3,3.9l-2.5-0.2l-0.2-2.5
		L55.3,3.6z M51.5,7.8L53.8,8l-1.5,1.8l-1.3-0.6L51.5,7.8z M51.2,10.8l1.1-0.6l1.5,1.8l-2,0.2C51.7,11.7,51.5,11.2,51.2,10.8z
		 M47.1,10.7L45.8,10l1.1-0.6c0.4,0.4,1,0.8,1.8,1.1c1.1,0.4,1.7,0.9,2,1.5l-0.9-0.3c-0.1,0-0.2,0-0.2,0.1l-0.6,1.3l-0.6-1.3
		c0-0.1-0.1-0.1-0.2-0.1c0,0,0,0-0.1,0l-1.4,0.4l0.4-1.3C47.2,10.8,47.1,10.7,47.1,10.7z M46.6,9.2l-1.1,0.6L44,8l2-0.2
		C46.1,8.3,46.3,8.8,46.6,9.2z M49.1,9.5c-1.1-0.4-1.7-0.9-2-1.5l0.9,0.3c0.1,0,0.2,0,0.2-0.1l0.6-1.3l0.6,1.3
		c0,0.1,0.1,0.1,0.2,0.1l1.4-0.4l-0.4,1.4c0,0.1,0,0.2,0.1,0.2L52,10L51,10.6C50.5,10.2,49.9,9.8,49.1,9.5z M51.2,7.4l-1.3,0.4
		l-0.6-1.3L51,5.1L51.2,7.4z M48.9,0.9l1.9,3.7l-1.9,1.6l-1.6-1.4C47.9,2.8,48.9,0.9,48.9,0.9z M47.1,5.8c0-0.2,0.1-0.3,0.1-0.5
		l1.5,1.3L48,7.9l-1-0.3C46.9,7.1,46.9,6.5,47.1,5.8z M42.5,3.6l3.8,1.2c-0.1,0.3-0.2,0.6-0.2,0.9C46,6.3,46,6.9,46,7.4
		c-0.3,0-2.2,0.2-2.2,0.2L42.5,3.6z M39.8,10l3.7-1.9l1.6,1.9l-1.6,1.9L39.8,10z M42.5,16.4l1.3-3.9l2.5,0.2l0.2,2.5L42.5,16.4z
		 M46.4,12.2L44,12l1.5-1.8l1.3,0.6L46.4,12.2z M46.7,12.6l1.3-0.4l0.6,1.2l-1.8,1.5L46.7,12.6z M48.9,19.1L47,15.4l1.9-1.6l1.6,1.4
		C50,17.1,48.9,19.1,48.9,19.1z M50.8,14.2c0,0.1-0.1,0.3-0.1,0.4l-1.5-1.3l0.6-1.2l1,0.3C50.9,13,50.9,13.5,50.8,14.2z M55.3,16.4
		l-3.9-1.2c0.1-0.3,0.2-0.6,0.2-0.9c0.1-0.6,0.2-1.2,0.1-1.6l2.2-0.2L55.3,16.4z M54.3,11.9L52.7,10l1.6-1.9L58,10L54.3,11.9z"/>
	<polygon class="st0" points="0,5.1 0,6.6 2.8,6.6 2.8,14.9 4.4,14.9 4.4,6.6 7.3,6.6 7.3,5.1 	"/>
	<polygon class="st0" points="19.1,14.9 19.1,10.6 14.6,10.6 14.6,14.9 13,14.9 13,5.1 14.6,5.1 14.6,9.1 19.1,9.1 19.1,5.1 
		20.7,5.1 20.7,14.9 	"/>
	<polygon class="st0" points="33.4,6.5 29,6.5 29,9.1 33.1,9.1 33.1,10.6 29,10.6 29,13.4 33.5,13.4 33.5,14.9 27.4,14.9 27.4,5.1 
		33.4,5.1 	"/>
	<path class="st0" d="M65.3,12.1c0.1,1.1,1.3,1.5,2.3,1.5c1,0,2.3-0.3,2.3-1.5c0-1.3-1.3-1.4-2.5-1.5c-1.8-0.2-3.6-0.7-3.6-2.7
		c0-2,1.8-3,3.7-3c1.9,0,3.6,0.8,3.7,2.8h-1.5c-0.1-1.1-1.2-1.4-2.1-1.4c-0.9,0-2.1,0.4-2.1,1.5c0,1.1,1.1,1.2,2.2,1.4
		c2,0.2,3.8,0.6,3.8,2.9c0,2.2-2,3-3.9,3c-1.9,0-3.9-0.9-4-3H65.3z"/>
	<polygon class="st0" points="76.6,6.6 76.6,5.1 83.9,5.1 83.9,6.6 81.1,6.6 81.1,14.9 79.5,14.9 79.5,6.6 	"/>
	<path class="st0" d="M90.1,12.9l-1,2h-1.7v-0.2L92,5h0.8l4.5,9.7v0.2h-1.7l-1-2H90.1z M90.6,11.5h3.4l-1.7-3.9L90.6,11.5z
		 M110.6,14.7v0.2H109l-2.4-3.4h-2.2v3.4h-1.6V5.1h4.1c2.1,0,3.4,1.4,3.4,3.2c0,1.4-0.8,2.5-2.1,2.9L110.6,14.7z M106.7,10.2
		c1.1,0,1.8-0.8,1.8-1.8c0-1-0.8-1.8-1.8-1.8h-2.4v3.6H106.7z M129.9,10v4.7h-0.8l-0.1-2c-0.7,1.3-1.9,2.2-3.6,2.2
		c-2.8,0-4.9-2.2-4.9-4.8c0-2.8,2.2-4.9,4.9-4.9c2,0,3.9,1.2,4.5,3.3h-1.1c-0.5-1.5-1.9-2.3-3.4-2.3c-2.2,0-4,1.7-4,4
		c0,2.1,1.6,3.9,3.9,3.9c2,0,3.3-1.4,3.5-3.3h-3.6V9.8h4.6V10L129.9,10z M145.3,10c0,2.7-2.2,4.9-4.9,4.9c-2.7,0-4.9-2.2-4.9-4.9
		s2.2-4.9,4.9-4.9C143.1,5.1,145.3,7.3,145.3,10 M144.3,10c0-2.2-1.7-4-3.9-4c-2.2,0-3.9,1.8-3.9,4c0,2.2,1.7,4,3.9,4
		C142.6,14,144.3,12.2,144.3,10"/>
	<polygon class="st0" points="157.2,14.7 151,14.7 151,5.3 151.9,5.3 151.9,13.8 157.2,13.8 	"/>
	<path class="st0" d="M166,5.3c2.9,0,4.9,1.9,4.9,4.6c0,2.8-2,4.8-4.9,4.8h-3.3V5.3H166z M166,13.8c2.3,0,3.9-1.6,3.9-3.9
		c0-2.2-1.6-3.7-3.9-3.7h-2.3v7.6H166z M188.8,11.4h1c-0.4,2.1-2.2,3.5-4.5,3.5c-2.7,0-4.9-2.1-4.9-4.9c0-2.8,2.2-4.9,4.9-4.9
		c2.3,0,4,1.4,4.5,3.5h-1c-0.4-1.5-1.7-2.6-3.5-2.6c-2.2,0-3.9,1.7-3.9,4c0,2.3,1.7,3.9,3.9,3.9C187.1,14,188.4,13,188.8,11.4
		 M204.5,10c0,2.7-2.2,4.9-4.9,4.9c-2.7,0-4.9-2.2-4.9-4.9s2.2-4.9,4.9-4.9C202.4,5.1,204.5,7.3,204.5,10 M203.5,10
		c0-2.2-1.7-4-3.9-4c-2.2,0-3.9,1.8-3.9,4c0,2.2,1.7,4,3.9,4C201.8,14,203.5,12.2,203.5,10 M211.2,12l-1.2,2.7H209l4.3-9.5h0.9
		l4.3,9.5h-1.1l-1.2-2.7H211.2z M213.7,6.4l-2.1,4.6h4.1L213.7,6.4z M230.9,7.9h-1c-0.2-1.1-1.1-1.9-2.6-1.9c-1.4,0-2.4,0.7-2.4,1.8
		c0,0.9,0.7,1.4,1.9,1.6l1.4,0.3c1.7,0.3,2.6,1.1,2.6,2.4c0,1.7-1.4,2.8-3.5,2.8c-2.3,0-3.7-1.2-3.9-3.2h1c0.2,1.5,1.3,2.3,3,2.3
		c1.5,0,2.4-0.7,2.4-1.9c0-0.8-0.5-1.4-1.8-1.6l-1.6-0.3c-1.7-0.3-2.6-1.2-2.6-2.5c0-1.6,1.3-2.7,3.3-2.7
		C229.1,5.1,230.7,6,230.9,7.9"/>
	<polygon class="st0" points="236,5.3 236,6.2 239.5,6.2 239.5,14.7 240.5,14.7 240.5,6.2 244,6.2 244,5.3 	"/>
</g>
</svg>
