<?xml version="1.0" encoding="utf-8"?>
<!-- Generator: Adobe Illustrator 21.0.0, SVG Export Plug-In . SVG Version: 6.00 Build 0)  -->
<svg version="1.1" id="Layer_1" xmlns="http://www.w3.org/2000/svg" xmlns:xlink="http://www.w3.org/1999/xlink" x="0px" y="0px"
	 viewBox="0 0 192 20" style="enable-background:new 0 0 192 20;" xml:space="preserve">
<style type="text/css">
	.st0{fill:#FFFFFF;}
</style>
<g>
	<path class="st0" d="M54.2,11.9L52.6,10l1.6-1.9l3.7,1.9L54.2,11.9L54.2,11.9z M55.2,16.4l-3.8-1.2c0.1-0.3,0.2-0.6,0.2-0.9
		c0.1-0.5,0.2-1.1,0.1-1.6l2.2-0.2C53.9,12.4,55.2,16.4,55.2,16.4z M50.6,14.2c0,0.1-0.1,0.3-0.1,0.4L49,13.3l0.6-1.2l1,0.3
		C50.8,13,50.8,13.6,50.6,14.2C50.7,14.2,50.6,14.2,50.6,14.2z M48.8,19l-1.9-3.7l1.9-1.6l1.6,1.4C50,16.5,49.5,17.8,48.8,19z
		 M46.6,12.5l1.3-0.4l0.6,1.2l-1.8,1.5L46.6,12.5L46.6,12.5z M46.2,12.2L43.9,12l1.5-1.8l1.3,0.6C46.7,10.9,46.2,12.2,46.2,12.2z
		 M42.4,16.4l1.3-3.9l2.5,0.2l0.2,2.5L42.4,16.4z M39.7,10l3.7-1.9L45,10l-1.6,1.9C43.4,11.8,39.7,10,39.7,10z M42.4,3.6l3.8,1.2
		c-0.1,0.3-0.2,0.6-0.2,0.9c-0.1,0.5-0.2,1.1-0.1,1.6l-2.2,0.2L42.4,3.6z M47,5.7C47,5.6,47,5.4,47,5.3l1.5,1.3l-0.6,1.3l-1-0.3
		C46.8,6.9,46.8,6.3,47,5.7C47,5.7,47,5.7,47,5.7z M48.8,0.9l1.9,3.7l-1.9,1.6l-1.6-1.4C47.6,3.4,48.1,2.1,48.8,0.9L48.8,0.9z
		 M51,7.4l-1.3,0.4L49,6.6L50.8,5L51,7.4L51,7.4z M49,9.4c-1.1-0.4-1.7-0.9-2-1.5L48,8.2c0.1,0,0.2,0,0.2-0.1l0.7-1.3l0.6,1.3
		c0,0.1,0.1,0.1,0.2,0.1L51,7.8l-0.4,1.3c0,0.1,0,0.2,0.1,0.2l1.3,0.6l-1.1,0.6C50.3,10.1,49.7,9.7,49,9.4C49,9.4,49,9.4,49,9.4z
		 M46.5,9.2l-1.1,0.6l-1.5-1.8l2-0.2C46,8.3,46.2,8.8,46.5,9.2C46.5,9.2,46.5,9.2,46.5,9.2z M47,10.6L45.7,10l1.1-0.6
		c0.5,0.5,1.1,0.8,1.8,1.1c1.1,0.4,1.7,0.9,2,1.5l-0.9-0.3c-0.1,0-0.2,0-0.2,0.1l-0.7,1.3l-0.6-1.3c0-0.1-0.1-0.1-0.2-0.1
		c0,0,0,0-0.1,0l-1.3,0.4l0.4-1.3C47.1,10.7,47,10.6,47,10.6C46.9,10.6,47,10.6,47,10.6z M51.1,10.8l1.1-0.6l1.5,1.8l-2,0.2
		C51.6,11.6,51.4,11.2,51.1,10.8z M51.4,7.7l2.3,0.2l-1.5,1.8L51,9.1L51.4,7.7L51.4,7.7z M55.2,3.5L54,7.5l-2.5-0.2l-0.2-2.5
		C51.3,4.8,55.2,3.5,55.2,3.5z M58.6,9.7l-4.1-2.1l1.4-4.4c0-0.1,0-0.3-0.2-0.4c-0.1,0-0.1,0-0.2,0l-4.4,1.4l-2.1-4.1
		C49,0.1,48.9,0,48.8,0c-0.1,0-0.2,0.1-0.3,0.2c-0.8,1.3-1.6,2.7-2.1,4.1L42,2.8c-0.1,0-0.3,0-0.4,0.2c0,0.1,0,0.1,0,0.2l1.4,4.4
		L39,9.7c-0.1,0.1-0.2,0.2-0.1,0.4c0,0.1,0.1,0.1,0.1,0.1l4.1,2.1l-1.4,4.4c0,0.1,0,0.2,0.1,0.3c0.1,0.1,0.2,0.1,0.3,0.1l4.4-1.4
		l2.1,4.1c0,0.1,0.1,0.1,0.3,0.1c0.1,0,0.2-0.1,0.3-0.2c0.8-1.3,1.6-2.7,2.1-4.1l4.4,1.4c0.2,0,0.3,0,0.4-0.2c0-0.1,0-0.1,0-0.2
		l-1.4-4.4l4.1-2.1c0.1-0.1,0.2-0.2,0.1-0.4C58.7,9.8,58.7,9.7,58.6,9.7C58.6,9.7,58.6,9.7,58.6,9.7z"/>
	<path class="st0" d="M0,5.1v1.4h2.8v8.4h1.6V6.5h2.8V5.1H0z M19.1,14.9v-4.4h-4.5v4.4H13V5.1h1.6V9h4.5V5.1h1.6v9.8L19.1,14.9z
		 M33.3,6.5H29v2.6h4.1v1.4H29v2.9h4.4v1.5h-6V5.1h6L33.3,6.5z M65.1,12.1c0.1,1.1,1.3,1.5,2.3,1.5c1.1,0,2.3-0.3,2.3-1.5
		c0-1.3-1.3-1.4-2.5-1.5c-1.8-0.2-3.6-0.7-3.6-2.7c0-2,1.8-3,3.7-3s3.6,0.9,3.7,2.9h-1.5c-0.1-1.1-1.2-1.4-2.2-1.4
		c-0.9,0-2.1,0.4-2.1,1.5c0,1.1,1.1,1.2,2.2,1.4c2,0.2,3.8,0.6,3.8,2.9c0,2.2-2,3-3.9,3c-1.9,0-3.9-0.9-4-3H65.1z M76.4,6.5V5.1h7.3
		v1.4h-2.8v8.4h-1.6V6.5H76.4z M90.4,11.5h3.4l-1.7-3.9L90.4,11.5z M89.9,12.8l-0.9,2h-1.7v-0.2L91.8,5h0.8l4.5,9.7v0.2h-1.7l-1-2
		L89.9,12.8C89.9,12.8,89.9,12.8,89.9,12.8z M106.5,10.1c1,0,1.8-0.7,1.8-1.7c0-0.1,0-0.1,0-0.2c0-1-0.7-1.8-1.7-1.8
		c0,0-0.1,0-0.1,0h-2.4v3.6H106.5z M110.3,14.6v0.2h-1.7l-2.4-3.4h-2.2v3.4h-1.6V5.1h4c2.1,0,3.4,1.4,3.4,3.2c0,1.3-0.8,2.5-2.1,2.9
		L110.3,14.6L110.3,14.6z M127.3,7.8h-1c-0.2-1.2-1.1-1.9-2.7-1.9c-1.4,0-2.4,0.7-2.4,1.8c0,0.9,0.7,1.4,1.9,1.6l1.4,0.3
		c1.7,0.3,2.6,1.1,2.6,2.5c0,1.7-1.4,2.9-3.5,2.9c-2.3,0-3.7-1.2-3.9-3.2h1c0.2,1.5,1.3,2.3,3,2.3c1.5,0,2.5-0.7,2.5-1.8
		c0-0.8-0.5-1.4-1.8-1.6l-1.6-0.3c-1.7-0.3-2.6-1.2-2.6-2.5c0-1.6,1.3-2.7,3.4-2.7C125.5,5,127.1,5.9,127.3,7.8z M136.1,11.3v3.4h-1
		v-3.4l-3.9-6.1h1.1l3.3,5.1l3.3-5.1h1.1L136.1,11.3z M147.9,5.2c2.9,0,5,1.9,5,4.6c0,2.8-2.1,4.8-5,4.8h-3.3V5.2L147.9,5.2
		L147.9,5.2z M147.9,13.8c2.3,0,4-1.6,4-3.9c0-2.2-1.6-3.7-4-3.7h-2.3v7.6L147.9,13.8L147.9,13.8L147.9,13.8z M166.2,14.7h-0.8
		L159.2,7v7.7h-1V5.2h0.8l6.2,7.7V5.2h1L166.2,14.7L166.2,14.7z M173,9.5h5v0.9h-5v3.3h5.6v0.9H172V5.2h6.6v0.9H173L173,9.5L173,9.5
		z M188,11.3v3.4h-1v-3.4l-3.9-6.1h1.1l3.3,5.1l3.3-5.1h1.1L188,11.3z"/>
</g>
</svg>
