<?xml version="1.0" encoding="utf-8"?>
<!-- Generator: Adobe Illustrator 21.0.0, SVG Export Plug-In . SVG Version: 6.00 Build 0)  -->
<svg version="1.1" id="Layer_1" xmlns="http://www.w3.org/2000/svg" xmlns:xlink="http://www.w3.org/1999/xlink" x="0px" y="0px"
	 viewBox="0 0 82 26" style="enable-background:new 0 0 82 26;" xml:space="preserve">
<style type="text/css">
	.st0{fill:#FFFFFF;}
</style>
<g>
	<path class="st0" d="M6.3,9.7c0,1.6,0,3,0.1,3.8c-0.1,0.4,0.2,0.9,0.7,1c0.3,0,0.5,0.1,0.8,0.1c0,0,0.1,0,0.1,0c0,0,0,0.1,0,0.1
		c0,0.1-0.1,0.1-0.3,0.1c-0.9,0-2-0.1-2.1-0.1s-1.2,0.1-1.7,0.1c-0.1,0-0.2,0-0.3-0.1c0-0.1,0.1-0.1,0.1-0.1c0.2,0,0.3-0.1,0.5-0.1
		c0.4-0.2,0.6-0.6,0.6-1c0.1-0.7,0.1-2.1,0.1-3.8V1.1L2.3,1.1c-1,0-1.4,0.1-1.7,0.6C0.4,2,0.3,2.1,0.3,2.2c0,0.1-0.1,0.1-0.2,0.2
		c0,0-0.1,0-0.1-0.1c0,0,0-0.1,0-0.1C0,2,0.3,0.5,0.4,0.3c0-0.1,0.1-0.2,0.2-0.3C0.8,0.1,1,0.2,1.3,0.2c0.5,0,0.9,0.1,1.4,0.1H9
		c0.6,0,0.9-0.1,1.2-0.1c0.2,0,0.3-0.1,0.5-0.1c0.1,0,0.1,0.1,0.1,0.2c0,0.5-0.1,1.8-0.1,2c0,0.2-0.1,0.2-0.1,0.2
		c-0.1,0-0.1-0.1-0.1-0.3V2.1c-0.1-0.5-0.4-0.9-2-1l-2-0.1C6.4,1.1,6.3,9.7,6.3,9.7z M12.3,7c0-1,0-2-0.1-3c0-0.2,0-0.4-0.1-0.5
		c-0.1-0.1-0.3-0.2-0.5-0.2c-0.1,0-0.4-0.1-0.5-0.1c-0.1,0-0.1-0.1-0.1-0.1c0-0.1,0.1-0.1,0.2-0.1c0.7,0,1.7,0.1,1.8,0.1
		c0.1,0,1.4-0.1,1.8-0.1c1-0.1,1.9,0.1,2.8,0.6c0.6,0.4,1,1.1,1,1.9c0,1-0.4,2-1.8,3.1c1,1.3,2,2.5,3.1,3.6c0.4,0.5,1,0.9,1.7,1
		c0.2,0,0.3,0.1,0.5,0.1c0,0,0.1,0,0.1,0c0,0,0,0.1,0,0.1c0,0.1-0.1,0.1-0.3,0.1h-1c-0.5,0.1-1.1,0-1.5-0.3c-0.8-0.5-1.5-1.2-2-2
		c-0.6-0.7-1.3-1.6-1.6-2c-0.1-0.1-0.1-0.1-0.2-0.1l-1.9-0.1c-0.1,0-0.1,0.1-0.1,0.1v0.3c0,1.3,0,2.4,0.1,3c0,0.2,0,0.4,0.2,0.5
		c0.1,0.1,0.3,0.2,0.5,0.2c0.2,0,0.4,0.1,0.7,0.1c0,0,0.1,0,0.1,0c0,0,0,0.1,0,0.1c0,0.1-0.1,0.1-0.2,0.1c-0.8,0-1.8-0.1-1.8-0.1
		s-1,0.1-1.4,0.1c-0.2,0-0.2-0.1-0.2-0.1c0-0.1,0.1-0.1,0.1-0.1c0.1,0,0.3-0.1,0.4-0.1c0.3-0.1,0.4-0.4,0.4-0.7c0.1-1,0.1-2,0.1-3
		C12.3,9.5,12.3,7,12.3,7z M13.6,8.2c0,0.1,0.1,0.1,0.1,0.2c0.5,0.2,1.1,0.2,1.6,0.2c0.4,0,0.8,0,1.1-0.2c0.6-0.5,1-1.3,0.9-2.1
		c0.1-0.7-0.2-1.4-0.7-2c-0.5-0.5-1.2-0.8-1.9-0.7c-0.4,0-0.9,0.1-1.1,0.1c-0.1,0-0.1,0.1-0.1,0.2L13.6,8.2
		C13.6,8.2,13.6,8.2,13.6,8.2z"/>
	<path class="st0" d="M23.1,7c0-1,0-2-0.1-3c0-0.2,0-0.4-0.1-0.5c-0.1-0.1-0.3-0.2-0.5-0.2c-0.1,0-0.4-0.1-0.5-0.1
		c-0.1,0-0.1-0.1-0.1-0.1c0-0.1,0.1-0.1,0.2-0.1c0.7,0,1.6,0.1,1.7,0.1h4.6C28.7,3.1,29,3,29.1,3c0.1,0,0.1,0,0.2-0.1
		c0.1,0,0.1,0.1,0.1,0.1c-0.1,0.2-0.1,0.4-0.1,0.6c0,0.3-0.1,0.6-0.1,0.9c0,0.1,0,0.1-0.1,0.2c-0.1,0-0.1-0.1-0.1-0.2
		c0-0.2,0-0.3-0.1-0.5c-0.1-0.2-0.3-0.3-1-0.4c-0.3-0.1-3.1-0.1-3.3-0.1c0,0-0.1,0-0.1,0.1c0,0,0,0.1,0,0.1v3.8c0,0.1,0,0.1,0.1,0.1
		s3.3,0,3.6-0.1c0.2,0,0.5-0.1,0.7-0.2C28.9,7.4,29,7.4,29,7.3c0.1,0,0.1,0.1,0.1,0.1C29.1,7.7,29,7.9,29,8.2C29,8.5,29,8.8,29,9.1
		c0,0.1,0,0.2-0.1,0.3c-0.1,0-0.1-0.1-0.1-0.1c0-0.2,0-0.3-0.1-0.5c-0.1-0.2-0.2-0.3-0.8-0.4c-0.4-0.1-3.1-0.1-3.4-0.1
		c0,0-0.1,0-0.1,0c0,0,0,0.1,0,0.1V12c0.1,0.9,0.4,1.1,2,1.1c0.8,0,1.6,0,2.4-0.2c0.4-0.2,0.7-0.5,0.7-1c0.1-0.2,0.1-0.2,0.2-0.2
		s0.1,0.1,0.1,0.2c-0.1,0.4-0.1,0.9-0.3,1.3c-0.1,0.3-0.3,0.3-0.8,0.3c-1.1,0-3.1-0.1-3.7-0.1c-0.4-0.1-0.8-0.1-1.2-0.1h-0.7
		c-0.3,0-0.6,0.1-0.8,0.1c-0.2,0-0.2-0.1-0.2-0.1c0-0.1,0.1-0.1,0.1-0.1c0.1,0,0.3-0.1,0.4-0.1c0.3-0.1,0.4-0.4,0.4-0.7
		c0.1-1,0.1-2,0.1-3L23.1,7L23.1,7z M35.3,3.3c0.2-0.5,0.3-0.5,0.3-0.5c0.2,0,0.2,0.2,0.3,0.5c0.3,0.6,2.7,6.3,3.5,8.4
		c0.6,1.3,1,1.4,1.3,1.5c0.2,0,0.4,0.1,0.6,0.1c0,0,0.1,0,0.1,0c0,0,0.1,0.1,0.1,0.1c-0.1,0.1-0.2,0.1-0.3,0.1c-0.2,0-1.3,0-2.3-0.1
		c-0.3,0-0.5,0-0.5-0.1c0-0.1,0.1-0.1,0.1-0.1c0.1-0.1,0.2-0.3,0.1-0.4l-1.3-3.2c0,0-0.1,0-0.1,0h-3.4c-0.1,0-0.1,0.1-0.2,0.1
		l-0.8,2.2c-0.1,0.3-0.2,0.6-0.2,0.9c0,0.1,0.1,0.2,0.2,0.3c0.1,0.1,0.2,0.1,0.3,0.1h0.2c0,0,0.1,0,0.1,0c0,0,0.1,0.1,0.1,0.1
		c0,0.1-0.1,0.1-0.2,0.1c-0.3,0-1.2-0.1-1.3-0.1c-0.2,0-0.9,0.1-1.5,0.1c-0.1,0-0.2,0-0.3-0.1c0-0.1,0.1-0.1,0.1-0.1
		c0.1,0,0.3,0,0.4-0.1c0.7-0.1,0.9-0.6,1.2-1.3L35.3,3.3L35.3,3.3z M37,9.1c0.1,0,0.1-0.1,0.1-0.1l-1.4-3.8c-0.1-0.2-0.2-0.2-0.3,0
		L34,8.9C34,9,34,9.1,34,9.1L37,9.1L37,9.1L37,9.1z M42.2,13.3C42,13.2,42,13.1,42,12.8c0-0.5,0-1,0.1-1.5c0-0.2,0.1-0.2,0.1-0.2
		c0,0,0.1,0,0.1,0c0,0,0,0.1,0,0.1c0,0.2,0,0.3,0.1,0.5c0.3,1,1.5,1.4,2.6,1.4c1.6,0,2.4-0.8,2.4-1.8c0-1-0.6-1.5-2.1-2.4l-0.7-0.5
		c-1.8-1.1-2.3-2-2.3-3c0-1.6,1.4-2.6,3.6-2.6c0.6,0,1.1,0.1,1.7,0.2C47.9,3,48,3,48.2,3c0.1,0,0.2,0,0.2,0.1s-0.1,0.5-0.1,1.5
		c0,0.2,0,0.3-0.1,0.3s-0.1-0.1-0.2-0.2c0-0.2-0.1-0.5-0.2-0.7c-0.1-0.2-0.7-0.7-2.1-0.7c-1.2,0-2.2,0.5-2.2,1.5
		c0,0.9,0.5,1.4,2.1,2.3l0.4,0.3c2,1.2,2.7,2.2,2.7,3.3c0,1-0.6,1.9-1.5,2.3c-0.8,0.4-1.7,0.6-2.6,0.5C43.8,13.6,43,13.5,42.2,13.3
		C42.2,13.3,42.2,13.3,42.2,13.3z M51.2,7c0-1,0-2,0-3c-0.1-0.5-0.1-0.7-0.6-0.7c-0.1,0-0.3-0.1-0.5-0.1C50,3.2,50,3.2,50,3.1
		C50,3.1,50,3,50.2,3c0.7,0,1.5,0.1,1.6,0.1s1-0.1,1.4-0.1c0.2,0,0.2,0.1,0.2,0.1c0,0.1-0.1,0.1-0.1,0.1c-0.1,0-0.2,0-0.3,0.1
		c-0.4,0.1-0.4,0.3-0.5,0.7c-0.1,1-0.1,2-0.1,3v1.9c0,2,0.4,2.8,1,3.4c0.5,0.5,1.3,0.8,2,0.7c0.8,0,1.6-0.3,2.1-1
		c0.7-0.8,0.8-1.9,0.8-3.4V7c0-1,0-2-0.1-3c0-0.2,0-0.4-0.1-0.5c-0.1-0.1-0.3-0.2-0.5-0.2c-0.1,0-0.3-0.1-0.5-0.1
		c-0.1,0-0.1-0.1-0.1-0.1c0-0.1,0.1-0.1,0.2-0.1c0.6,0,1.4,0.1,1.5,0.1S59.7,3,60,3c0.2,0,0.2,0.1,0.2,0.1c0,0.1-0.1,0.1-0.1,0.1
		c-0.1,0-0.2,0-0.3,0.1c-0.4,0.1-0.4,0.3-0.5,0.7c-0.1,0.5,0,0.9,0,3v1.5c0,1.5-0.2,3.2-1.3,4.2c-0.8,0.7-1.8,1.1-2.9,1
		c-1,0-2.1-0.3-2.9-1C51.6,12,51,11.1,51,9.1L51.2,7C51.1,7,51.2,7,51.2,7z M62.9,7c0-1,0-2-0.1-3c0-0.2,0-0.4-0.1-0.5
		c-0.1-0.1-0.3-0.2-0.5-0.2c-0.1,0-0.4-0.1-0.5-0.1c-0.1,0-0.1-0.1-0.1-0.1c0-0.1,0.1-0.1,0.2-0.1c0.7,0,1.7,0.1,1.8,0.1
		C63.7,3.1,65,3,65.4,3c1-0.1,1.9,0.1,2.8,0.6c0.6,0.4,1,1.1,1,1.9c0,1-0.4,2-1.8,3.1c1,1.3,2,2.5,3.1,3.6c0.4,0.5,1,0.9,1.7,1
		c0.2,0,0.3,0.1,0.5,0.1c0.1,0,0.1,0.1,0.1,0.1c0,0.1-0.1,0.1-0.3,0.1h-0.9c-0.5,0.1-1.1,0-1.5-0.3c-0.7-0.3-1.2-1-2-2
		c-0.6-0.7-1.3-1.6-1.6-2c-0.1-0.1-0.1-0.1-0.2-0.1l-1.9-0.1c-0.1,0-0.1,0.1-0.1,0.1v0.3c0,1.3,0,2.4,0.1,3c0,0.2,0,0.4,0.2,0.5
		c0.1,0.1,0.3,0.2,0.5,0.2c0.2,0,0.4,0.1,0.7,0.1c0,0,0.1,0,0.1,0c0,0,0,0.1,0,0.1c0,0.1-0.1,0.1-0.2,0.1c-0.8,0-1.8-0.1-1.8-0.1
		c-0.1,0-1,0.1-1.4,0.1c-0.2,0-0.2-0.1-0.2-0.1c0-0.1,0.1-0.1,0.1-0.1c0.1,0,0.3-0.1,0.4-0.1c0.3-0.1,0.4-0.4,0.4-0.7
		c0.1-1,0.1-2,0.1-3C62.9,9.5,62.9,7,62.9,7z M64.2,8.2c0,0.1,0.1,0.1,0.1,0.2c0.5,0.2,1.1,0.2,1.6,0.2c0.4,0,0.8,0,1.1-0.2
		c0.6-0.5,1-1.3,0.9-2.1c0.1-0.7-0.2-1.4-0.7-2c-0.5-0.5-1.2-0.8-1.9-0.7c-0.4,0-0.9,0.1-1.1,0.1c-0.1,0-0.1,0.1-0.1,0.2L64.2,8.2
		C64.2,8.2,64.2,8.2,64.2,8.2z M75.4,10.2c0-0.6-0.1-1.3-0.4-1.8c-0.1-0.3-2.4-4-2.9-5C71.8,3,71.4,2.5,71,2.2
		c-0.2-0.2-0.5-0.2-0.7-0.3c0,0-0.1,0-0.1,0c0,0-0.1-0.1-0.1-0.1c0-0.1,0.1-0.1,0.2-0.1c0.3,0,1.5,0.1,1.7,0.1
		c0.1,0,0.7-0.1,1.3-0.1c0.2,0,0.2,0.1,0.2,0.1c-0.1,0.1-0.2,0.1-0.3,0.2C73.1,2,73,2.1,73,2.3c0,0.2,0.1,0.5,0.2,0.7
		c0.3,0.5,2.8,5,3.1,5.5c0.3-0.7,2.4-4.5,2.8-5.1c0.2-0.3,0.3-0.5,0.3-0.9c0-0.2-0.1-0.5-0.3-0.5c-0.1,0-0.2-0.1-0.3-0.2
		c0.1-0.1,0.2-0.1,0.3-0.1c0.4,0,1,0.1,1.1,0.1s1.3-0.1,1.5-0.1c0.1,0,0.2,0,0.2,0.1C82,1.9,81.9,2,81.7,2C81.5,2,81.2,2,81,2.2
		c-0.3,0.2-0.6,0.5-0.9,0.9c-1.2,1.8-2.2,3.6-3.2,5.5c-0.2,0.5-0.3,1.1-0.3,1.7v1.5c0,0.3,0,1,0.1,1.7c-0.1,0.4,0.2,0.9,0.7,1
		c0.3,0,0.5,0.1,0.8,0.1c0,0,0.1,0,0.1,0c0,0,0,0.1,0,0.1c0,0.1-0.1,0.1-0.3,0.1c-0.9,0-1.9-0.1-1.9-0.1c-0.1,0-1.2,0.1-1.7,0.1
		c-0.1,0-0.2,0-0.3-0.1c0-0.1,0.1-0.1,0.1-0.1c0.2,0,0.3-0.1,0.5-0.1c0.4-0.2,0.6-0.6,0.5-1c0.1-0.7,0.1-1.4,0.1-1.7L75.4,10.2z
		 M22.3,23.6c0,0.8-0.7,1.4-1.8,1.4h-2.2v-5h2.2c1,0,1.6,0.5,1.6,1.3c0,0.5-0.3,1-0.8,1.1C21.9,22.5,22.4,23,22.3,23.6L22.3,23.6z
		 M19,22.2h1.4c0.7,0,1.1-0.3,1.1-0.8s-0.4-0.7-1-0.7H19C19,20.6,19,22.2,19,22.2z M20.5,24.4c0.7,0,1.1-0.4,1.1-0.8
		c0-0.5-0.4-0.7-1.1-0.7H19v1.6C19,24.4,20.5,24.4,20.5,24.4z M25,23.3V25h-0.7v-5h1.9c1.1,0,1.9,0.6,1.9,1.6c0,0.7-0.5,1.4-1.1,1.5
		l1.4,1.8h-0.8l-1.3-1.7L25,23.3C25,23.3,25,23.3,25,23.3z M26.2,22.6c0.4,0.1,0.8-0.1,1-0.4c0.2-0.3,0.2-0.8,0-1.1
		c-0.2-0.3-0.6-0.5-1-0.4H25v2C25,22.6,26.2,22.6,26.2,22.6z M31.3,25h-1v-5h1V25L31.3,25z M37.3,21.8h-0.7
		c-0.1-0.7-0.6-1.2-1.2-1.1c-0.7,0-1.1,0.4-1.1,1c0,0.5,0.3,0.8,0.9,0.9l0.7,0.2c0.9,0.2,1.4,0.7,1.4,1.5c0,1.1-0.8,1.8-1.9,1.8
		c-1.1,0-2-0.7-2.1-2H34c0.1,0.8,0.8,1.4,1.5,1.3c0.7,0,1.1-0.4,1.1-0.9c0-0.4-0.2-0.7-0.8-0.9l-0.9-0.2c-0.9-0.2-1.4-0.8-1.4-1.6
		c0-1,0.7-1.7,1.8-1.7C36.3,20,37.2,20.5,37.3,21.8z M43.3,23.6c0,0.8-0.7,1.4-1.8,1.4h-2.2v-5h2.2c1,0,1.6,0.5,1.6,1.3
		c0,0.5-0.3,1-0.8,1.1C42.9,22.5,43.4,23,43.3,23.6z M40,22.2h1.4c0.7,0,1.1-0.3,1.1-0.8s-0.4-0.7-1-0.7H40C40,20.6,40,22.2,40,22.2
		z M41.5,24.4c0.7,0,1.1-0.4,1.1-0.8c0-0.5-0.4-0.7-1.1-0.7H40v1.6C40,24.4,41.5,24.4,41.5,24.4z M46.9,23.7L46.2,25h-0.9l2.6-5h0.8
		l2.6,5h-0.9l-0.7-1.3C49.8,23.7,46.9,23.7,46.9,23.7z M48.3,20.8l-1.1,2.2h2.3L48.3,20.8z M57.3,25h-0.7l-3.5-3.7V25h-0.8v-5H53
		l3.5,3.8V20h0.8L57.3,25L57.3,25z M60.1,22.2H63v0.6h-2.9v1.5h3.2V25h-4v-5h4v0.6h-3.2L60.1,22.2L60.1,22.2z"/>
</g>
</svg>
