<svg version="1.1"
    id="svg-spinner"
    xmlns="http://www.w3.org/2000/svg"
    xmlns:xlink="http://www.w3.org/1999/xlink"
    x="0px"
    y="0px"
    viewBox="0 0 60 60"
    xml:space="preserve">
  <style type="text/css">
    .st0{fill:#C4A44B;}
  </style>
  <path class="st0" d="M58.4,29.3l-11.9-6.1l4.1-12.8c0.1-0.3,0-0.6-0.2-0.8c-0.2-0.2-0.5-0.3-0.8-0.2l-12.8,4.1L30.7,1.6l0,0  c-0.1-0.3-0.4-0.4-0.7-0.4c0,0,0,0,0,0l0,0c-0.3,0-0.6,0.2-0.7,0.4l0,0c-0.6,0.9-4.3,7.7-4.9,9.1c-0.4,0.7-1.1,2.6-1.2,2.8L10.3,9.4  c-0.3-0.1-0.6,0-0.8,0.2c-0.2,0.2-0.3,0.5-0.2,0.8l4.1,12.8L1.5,29.3C1.2,29.5,1,29.8,1,30.1c0,0.3,0.2,0.6,0.4,0.7l11.9,6.1  L9.3,49.7c-0.1,0.3,0,0.6,0.2,0.8c0.2,0.2,0.5,0.3,0.8,0.2l12.8-4.1l6.1,11.9c0.1,0.3,0.4,0.4,0.7,0.4l0,0c0,0,0,0,0,0  c0.3,0,0.6-0.2,0.7-0.4c0.3-0.4,4.3-7.7,5-9.1c0.4-0.7,0.7-1.5,1-2.3c0.1-0.2,0.1-0.3,0.2-0.5l12.7,4.1c0.3,0.1,0.6,0,0.8-0.2  c0.2-0.2,0.3-0.5,0.2-0.8l-4.1-12.8l11.9-6.1c0.3-0.1,0.4-0.4,0.4-0.7C58.9,29.8,58.7,29.5,58.4,29.3z M44.9,22.9l-7.2-0.6l-0.6-7.2  l11.4-3.7L44.9,22.9z M30,56.4l-5.5-10.7L30,41l4.8,4.1c-1.1,3-4.2,10-4.8,11.1L30,56.4z M35.3,28.2l3.7,1.9l-3.2,1.6  c-1.5-1.5-3.5-2.5-5.2-3.1c-1-0.4-1.8-0.8-2.6-1.2c-0.8-0.5-1.5-1-2-1.6c-0.5-0.5-0.8-1.1-1.1-1.7l2.6,0.8c0.2,0.1,0.5,0,0.6-0.2  L30,21l1.9,3.7c0.1,0.2,0.4,0.3,0.6,0.2l3.9-1.3l-1.3,3.9C35,27.8,35.1,28.1,35.3,28.2z M30.7,39.9l1.9-3.6l2.9,0.9  c0.1,0.6,0.2,1.6,0.2,1.6c0.1,1.7-0.1,3.3-0.4,4.9L30.7,39.9z M24.1,44.3l-0.6-6.8l3.9-1.2l1.9,3.6L24.1,44.3z M24.6,32l-3.7-1.9  l3.2-1.6c1.5,1.5,3.5,2.5,5.2,3.2c1,0.4,1.8,0.8,2.6,1.2c0.8,0.5,1.5,1,2,1.6c0.5,0.5,0.8,1.1,1.1,1.7l-2.6-0.8  c-0.2-0.1-0.5,0-0.6,0.2L30,39.1l-1.9-3.7c-0.1-0.2-0.3-0.3-0.4-0.3c-0.1,0-0.1,0-0.2,0l-3.9,1.3l1.3-3.9  C24.9,32.3,24.8,32.1,24.6,32z M29.3,20.2l-1.9,3.6L24.5,23c-0.4-2.1-0.1-5.4,0.2-6.6L29.3,20.2z M32.5,23.9l-1.9-3.6l5.2-4.4  l0.6,6.8L32.5,23.9z M35.5,14.4L30,19.1L25.1,15c1-3.2,4.5-10.5,4.8-11.2L35.5,14.4z M21.6,23.7c0,0.1,0,0.1,0,0.2  c0.1,0.3,0.1,0.6,0.2,0.9c0.3,1.1,0.9,2.1,1.6,3l-3.3,1.7l-4.4-5.2L21.6,23.7z M20.1,30.8l3.6,1.9l-1.2,3.9L15.7,36L20.1,30.8z   M38.3,36.4c0,0-0.1-0.7-0.2-1c-0.3-1.1-0.9-2.1-1.6-3l3.3-1.7l4.4,5.2L38.3,36.4z M39.8,29.4l-3.6-1.9l1.2-3.9l6.8,0.6L39.8,29.4z   M11.4,11.5L22.5,15c-0.2,0.4-0.7,2.5-0.9,4c-0.2,1.5-0.2,3.3-0.2,3.3c-0.1,0-6.4,0.5-6.4,0.5L11.4,11.5z M3.6,30.1l10.7-5.5  l4.7,5.5l-4.7,5.5L3.6,30.1z M15,37.2l7.2,0.6l0.6,7.2l-11.4,3.7L15,37.2z M48.6,48.7l-11.2-3.6c0.2-0.5,0.8-2.8,0.9-4  c0.2-1.4,0.2-2.8,0.2-3.4l6.4-0.5L48.6,48.7z M45.6,35.6L41,30.1l4.6-5.5l10.7,5.5L45.6,35.6z">

   <animate attributeName="opacity"
             values="0.3;1;0.3" dur="1.4s"
             repeatCount="indefinite"/>
  </path>

</svg>

