<svg width="75" height="83" viewBox="0 0 75 83" fill="none" xmlns="http://www.w3.org/2000/svg">
<path d="M25.8348 29.05V28.2829L25.0704 28.2181C17.0567 27.5397 8.51344 26.2453 1.01063 24.3028L2.68765 17.6215C13.4683 20.3967 25.9523 21.5848 37.5 21.5848C49.0477 21.5848 61.5317 20.3967 72.3123 17.6215L73.9894 24.3028C66.4866 26.2453 57.9433 27.5397 49.9296 28.2181L49.1652 28.2829V29.05V82.1652H42.5015V58.1V57.2652H41.6667H33.3333H32.4985V58.1V82.1652H25.8348V29.05ZM44.9985 8.3C44.9985 12.4008 41.6254 15.7652 37.5 15.7652C33.3746 15.7652 30.0015 12.4008 30.0015 8.3C30.0015 4.19922 33.3746 0.834832 37.5 0.834832C41.6254 0.834832 44.9985 4.19922 44.9985 8.3Z"  stroke-width="1.66966"/>
</svg>
