<svg width="59" height="87" viewBox="0 0 59 87" fill="none" xmlns="http://www.w3.org/2000/svg">
<path d="M41.5386 25.6153C41.5386 32.3844 36.102 37.8689 29.3919 37.8689C22.6856 37.8689 17.2471 32.3825 17.2471 25.6153C17.2471 18.8499 22.6837 13.3616 29.3919 13.3616C36.102 13.3635 41.5386 18.8499 41.5386 25.6153Z"  stroke-width="2.33057" stroke-miterlimit="10"/>
<path d="M29.0132 2.00575C29.0681 2.00575 29.1193 2.00382 29.1723 2C29.2235 2.00191 29.2747 2.00575 29.3296 2.00575C42.041 2.20838 52.3819 12.8066 52.3819 25.6338C52.3819 41.315 35.7706 57.1951 29.1723 62.8861C28.7308 62.5038 28.2419 62.0756 27.7189 61.6053C27.7094 61.5976 27.7018 61.59 27.6943 61.5823C20.3892 55.0349 5.96283 40.2502 5.96283 25.6338C5.96093 12.8085 16.3055 2.20838 29.0132 2.00575Z"  stroke-width="2.33057" stroke-miterlimit="10"/>
<path d="M29.5 84.9998C15.5872 84.9998 1.5 80.9739 1.5 73.2795C1.5 67.881 8.43557 64.2909 17.3779 62.6297C19.1099 64.3826 20.7453 65.9292 22.1816 67.2195C12.4415 68.3168 6.71873 71.4271 6.71873 73.2795C6.71873 75.5543 15.3655 79.7351 29.5 79.7351C43.6326 79.7351 52.2832 75.5543 52.2832 73.2795C52.2832 71.3888 46.3178 68.2002 36.2253 67.1622C37.6749 65.8584 39.3254 64.2985 41.0688 62.5245C50.2783 64.1418 57.5 67.7682 57.5 73.2795C57.4981 80.9739 43.4147 84.9998 29.5 84.9998Z"  stroke-width="2.33057" stroke-miterlimit="10"/>
</svg>
