<svg width="83" height="83" viewBox="0 0 83 83" fill="none" xmlns="http://www.w3.org/2000/svg">
<path d="M34.7571 38.2036V25.2157C35.9967 25.1656 37.8723 25.1316 38.932 25.1316C41.8697 25.1316 43.8876 25.7197 45.1532 26.7109C46.3696 27.6636 47.0481 29.1142 47.0481 31.253C47.0481 33.7013 46.2972 35.377 44.9515 36.4727C43.5642 37.6023 41.3683 38.2618 38.1926 38.2618C37.4221 38.2618 35.8498 38.2414 34.7571 38.2036Z"  stroke-width="2.17051"/>
<path d="M9.47306 1.08526H73.5258C78.1586 1.08526 81.9137 4.84244 81.9147 9.4769C81.9147 9.47698 81.9147 9.47705 81.9147 9.47713V73.5231C81.9147 78.1583 78.1589 81.9147 73.5258 81.9147H9.47306C4.84115 81.9147 1.08526 78.1584 1.08526 73.5231V9.4769C1.08526 4.84154 4.84014 1.08526 9.47306 1.08526ZM38.0456 50.7292C45.4552 50.7292 51.8385 48.4479 55.9038 44.1409C59.1595 40.7686 60.7706 36.299 60.7706 30.9574C60.7706 25.6616 58.8173 20.9685 55.1894 17.807C51.3611 14.3852 45.7856 12.7384 38.785 12.7384C35.5093 12.7384 30.4722 12.9284 27.2849 13.3092C24.4 13.6528 22.2283 16.1004 22.2283 19.0064V64.5228C22.2283 67.6916 24.7976 70.2605 27.9657 70.2605H29.0217C32.1901 70.2605 34.758 67.6913 34.758 64.5228V50.6979C35.9297 50.7228 37.4629 50.7292 38.0456 50.7292Z"  stroke-width="2.17051"/>
</svg>
