<?xml version="1.0" encoding="utf-8"?><svg viewBox="0 0 41 40" xmlns="http://www.w3.org/2000/svg" xmlns:xlink="http://www.w3.org/1999/xlink"><style>:root>svg{display:none}:root>svg:target{display:block}</style><svg viewBox="0 0 24 24" id="arrow" xmlns="http://www.w3.org/2000/svg"><g clip-path="url(#aa)" stroke-width="2" stroke-linecap="round" stroke-linejoin="round"><path d="M5 12h14m-6 6l6-6m-6-6l6 6"/></g><defs><clipPath id="aa"><path d="M0 0h24v24H0z"/></clipPath></defs></svg><svg viewBox="0 0 30 30" id="check" xmlns="http://www.w3.org/2000/svg"><path d="M26.468 12.05c-.442-.463-.899-.938-1.071-1.357-.16-.383-.169-1.018-.178-1.633-.018-1.144-.037-2.44-.938-3.341-.9-.901-2.197-.92-3.34-.938-.616-.01-1.251-.018-1.634-.178-.417-.172-.894-.63-1.356-1.071-.809-.777-1.728-1.657-2.951-1.657s-2.141.88-2.95 1.657c-.463.442-.938.899-1.357 1.071-.38.16-1.018.169-1.633.178-1.144.018-2.44.037-3.341.938-.901.9-.914 2.197-.938 3.34-.01.616-.018 1.251-.178 1.634-.172.418-.63.895-1.071 1.356-.777.809-1.657 1.728-1.657 2.951s.88 2.141 1.657 2.95c.442.463.899.938 1.071 1.357.16.383.169 1.018.178 1.633.018 1.144.037 2.44.938 3.341.9.901 2.197.92 3.34.938.616.01 1.251.018 1.634.178.418.172.895.63 1.356 1.071.809.777 1.728 1.657 2.951 1.657s2.141-.88 2.95-1.657c.463-.442.938-.899 1.357-1.071.383-.16 1.018-.169 1.633-.178 1.144-.018 2.44-.037 3.341-.938.901-.9.92-2.197.938-3.34.01-.616.018-1.251.178-1.634.172-.417.63-.894 1.071-1.356.777-.809 1.657-1.728 1.657-2.951s-.88-2.141-1.657-2.95zm-6.117.8l-6.563 6.563a.94.94 0 01-1.326 0l-2.813-2.812a.938.938 0 111.327-1.327l2.149 2.15 5.9-5.9a.937.937 0 111.326 1.327z"/></svg><svg viewBox="0 0 30 30" id="email" xmlns="http://www.w3.org/2000/svg"><g clip-path="url(#ca)" stroke-width="1.5" stroke-linecap="round" stroke-linejoin="round"><path d="M3.75 8.75a2.5 2.5 0 012.5-2.5h17.5a2.5 2.5 0 012.5 2.5v12.5a2.5 2.5 0 01-2.5 2.5H6.25a2.5 2.5 0 01-2.5-2.5V8.75z"/><path d="M3.75 8.75L15 16.25l11.25-7.5"/></g><defs><clipPath id="ca"><path d="M0 0h30v30H0z"/></clipPath></defs></svg><svg viewBox="0 0 30 30" id="facebook" xmlns="http://www.w3.org/2000/svg"><path d="M27.5 15c0-6.9-5.6-12.5-12.5-12.5S2.5 8.1 2.5 15c0 6.05 4.3 11.087 10 12.25v-8.5H10V15h2.5v-3.125A4.38 4.38 0 0116.875 7.5H20v3.75h-2.5c-.688 0-1.25.563-1.25 1.25V15H20v3.75h-3.75v8.688C22.563 26.813 27.5 21.488 27.5 15z"/></svg><svg viewBox="0 0 30 30" id="garden" xmlns="http://www.w3.org/2000/svg"><path d="M8 10V9a5 5 0 0110 0v11.586l4.73-4.73-.694-2.59-.002-.012h-.002a1 1 0 011.676-.962l4 4a1 1 0 01-.958 1.676l-.02-.006-2.586-.692L18 23.414V24a2 2 0 01-2 2h-6a2 2 0 01-2-2v-.928l-4.536-4.536a5.006 5.006 0 011.622-8.157A4.987 4.987 0 017 10h1zm0 2H7a3 3 0 00-2.122 5.122L8 20.242V12zm8-2V9a3 3 0 00-6 0v1h6z"/></svg><svg viewBox="0 0 30 30" id="instagram" xmlns="http://www.w3.org/2000/svg"><path d="M16.285 2.5c1.406.004 2.12.011 2.736.029l.242.009c.28.01.557.022.89.037 1.33.063 2.238.272 3.034.581a6.1 6.1 0 012.215 1.442 6.134 6.134 0 011.441 2.215c.31.796.52 1.703.582 3.035.015.332.027.608.037.89l.008.242c.018.615.026 1.329.029 2.735v2.57a95.92 95.92 0 01-.028 2.735l-.008.242c-.01.282-.022.558-.037.89-.063 1.332-.275 2.238-.582 3.035a6.104 6.104 0 01-1.442 2.215 6.143 6.143 0 01-2.215 1.442c-.796.308-1.704.518-3.034.581-.296.014-.593.026-.89.037l-.242.008c-.616.018-1.33.026-2.736.029l-.933.001h-1.636a98.272 98.272 0 01-2.736-.029l-.243-.007a80.071 80.071 0 01-.89-.039c-1.33-.063-2.237-.273-3.035-.581a6.111 6.111 0 01-2.214-1.442 6.13 6.13 0 01-1.442-2.215c-.309-.796-.519-1.703-.581-3.035a93.08 93.08 0 01-.038-.89l-.006-.242a98.838 98.838 0 01-.031-2.735v-2.57a95.92 95.92 0 01.027-2.735l.009-.242c.01-.282.022-.558.037-.89.063-1.332.273-2.238.582-3.036A6.1 6.1 0 014.6 4.598a6.121 6.121 0 012.212-1.44c.798-.31 1.704-.52 3.035-.582.333-.015.61-.028.89-.038l.243-.007a98.762 98.762 0 012.735-.029l2.57-.001zM15 8.75a6.25 6.25 0 100 12.5 6.25 6.25 0 000-12.5zm0 2.5a3.75 3.75 0 11-.001 7.5 3.75 3.75 0 01.002-7.5m6.563-4.375a1.563 1.563 0 100 3.125 1.563 1.563 0 000-3.125z"/></svg><svg viewBox="0 0 24 24" id="phone" xmlns="http://www.w3.org/2000/svg"><g clip-path="url(#ga)"><path d="M5 4h4l2 5-2.5 1.5a11 11 0 005 5L15 13l5 2v4a2 2 0 01-2 2A16 16 0 013 6a2 2 0 012-2z"/></g><defs><clipPath id="ga"><path d="M0 0h24v24H0z"/></clipPath></defs></svg><svg viewBox="0 0 30 30" id="pin" xmlns="http://www.w3.org/2000/svg"><g clip-path="url(#ha)" stroke-width="1.5" stroke-linecap="round" stroke-linejoin="round"><path d="M11.25 13.75a3.75 3.75 0 107.5 0 3.75 3.75 0 00-7.5 0z"/><path d="M22.071 20.821l-5.304 5.304a2.5 2.5 0 01-3.533 0l-5.305-5.304a10 10 0 1114.142 0z"/></g><defs><clipPath id="ha"><path d="M0 0h30v30H0z"/></clipPath></defs></svg><svg viewBox="0 0 41 40" id="quote" xmlns="http://www.w3.org/2000/svg"><path d="M8.138 28.868C6.422 27.045 5.5 25 5.5 21.685c0-5.833 4.095-11.062 10.05-13.647l1.488 2.297c-5.558 3.007-6.645 6.908-7.078 9.368.895-.463 2.067-.625 3.215-.518 3.007.278 5.377 2.747 5.377 5.815a5.833 5.833 0 01-5.834 5.833 6.45 6.45 0 01-4.58-1.965zm16.667 0c-1.717-1.823-2.638-3.868-2.638-7.183 0-5.833 4.095-11.062 10.05-13.647l1.488 2.297c-5.558 3.007-6.645 6.908-7.078 9.368.895-.463 2.066-.625 3.215-.518 3.006.278 5.376 2.747 5.376 5.815a5.833 5.833 0 01-5.833 5.833 6.45 6.45 0 01-4.58-1.965z"/></svg><svg viewBox="0 0 30 30" id="shears" xmlns="http://www.w3.org/2000/svg"><path d="M28.537 8.191c-3.697.944-5.844 2.473-6.828 3.352l-.077.07-.052.094a2.802 2.802 0 01-2.52 1.57 2.807 2.807 0 01-2.812-2.818 2.806 2.806 0 012.812-2.812c.504 0 .99.134 1.43.386l.293.17.287-.187c1.588-1.06 3.012-1.155 4.496-.856.973.194 1.97.598 2.971 1.031zm-6.717 7.09c-.006.446-.076.873-.235 1.225-.474.234-1.095.363-1.704.621-.329.146-.669.346-.915.68-.234.316-.357.732-.351 1.195-.604 3.31-1.547 5.408-2.66 6.815-1.108 1.418-2.397 2.168-3.797 2.747h-.006c-.229.1-.375.077-.54-.005-.175-.088-.35-.27-.474-.492a1.49 1.49 0 01-.175-.71c.011-.205.076-.34.181-.433.873-.715 2.069-1.582 3.03-2.666.96-1.09 1.705-2.455 1.517-4.072-.14-1.242.375-1.94.984-2.953.475-.791.973-1.764 1.032-3.1.421.158.878.246 1.353.246.955 0 1.852-.352 2.549-.95.059.329.135.686.176 1.061.017.2.035.399.035.598v.193zm-1.008-13.91c-.533 1.61-1.008 3.316-.867 5.28a4.059 4.059 0 00-.885-.106 3.94 3.94 0 00-2.408.832c.012-1.688.61-2.854 1.535-3.874.715-.779 1.652-1.459 2.625-2.132zm-.223 9.088c0-.838-.691-1.53-1.529-1.53s-1.53.692-1.53 1.53c0 .838.692 1.53 1.53 1.53.838 0 1.53-.692 1.53-1.53zm-1.101 0a.42.42 0 01-.428.434.424.424 0 01-.428-.434c0-.24.188-.428.428-.428a.42.42 0 01.428.428zm-4.043 1.512c-3.082.369-5.115 1.576-6.668 3-1.711 1.57-2.912 3.346-4.53 4.611-.193.07-.591.117-1.013.07-.451-.058-.938-.205-1.277-.404-.328-.2-.475-.404-.493-.592-.017-.175.077-.504.616-.996 1.95-1.054 4.968-3.146 6.293-5.912.527-1.096 1.271-1.617 2.168-1.892.89-.27 1.945-.264 2.935-.17.815.07 1.395-.088 1.817-.276a3.66 3.66 0 00-.147 1.05c0 .532.111 1.048.299 1.51z"/></svg><svg viewBox="0 0 20 20" id="star" xmlns="http://www.w3.org/2000/svg"><path d="M10 0l2.245 6.91h7.266l-5.878 4.27 2.245 6.91L10 13.82l-5.878 4.27 2.245-6.91L.49 6.91h7.266L10 0z"/></svg><svg viewBox="0 0 31 30" id="user" xmlns="http://www.w3.org/2000/svg"><g clip-path="url(#la)" stroke-width="1.5" stroke-linecap="round" stroke-linejoin="round"><path d="M10.5 8.75a5 5 0 1010 0 5 5 0 00-10 0zM8 26.25v-2.5a5 5 0 015-5h5a5 5 0 015 5v2.5"/></g><defs><clipPath id="la"><path transform="translate(.5)" d="M0 0h30v30H0z"/></clipPath></defs></svg></svg>