<svg xmlns="http://www.w3.org/2000/svg" width="38" height="42"><path fill="#2d2d4b" d="M12.67 4.122h12.653c0-.687-.02-1.313.004-1.938C25.38.882 26.235.004 27.423 0c1.16-.003 2.006.811 2.115 2.05.059.664-.141 1.539.21 1.937.354.401 1.253.31 1.904.468 3.53.859 6.272 4.121 6.301 7.738.06 7.235.075 14.47-.001 21.704-.048 4.524-3.766 8.028-8.458 8.073-5.346.05-10.692.014-16.039.014-1.694 0-3.39.027-5.083-.011-4.73-.107-8.33-3.723-8.35-8.43a2626.53 2626.53 0 01-.004-20.805c.018-4.497 2.987-7.855 7.458-8.457.764-.103 1.065-.375.981-1.127-.04-.37-.022-.751.013-1.123C8.588.776 9.426-.014 10.595 0c1.154.015 2.005.858 2.069 2.09.032.63.005 1.265.005 2.03zm21.075 16.935H4.312c-.028.321-.07.576-.07.83-.004 3.822-.024 7.643.005 11.464.022 2.715 1.718 4.4 4.483 4.41 6.849.024 13.698.019 20.546-.011 2.83-.013 4.442-1.677 4.462-4.524.02-2.847.006-5.694.007-8.541v-3.628zM25.328 8.475H12.676c0 .683.02 1.28-.005 1.877-.053 1.315-.876 2.185-2.07 2.22-1.19.036-2.055-.809-2.136-2.134-.04-.66-.007-1.322-.007-1.989-2.39.11-4.034 1.632-4.181 3.796-.076 1.12.027 2.251-.056 3.37-.072.973.327 1.178 1.23 1.173 5.458-.033 10.915-.009 16.373-.008 3.613 0 7.226-.005 10.84-.013.507-.001 1.104.138 1.083-.716-.032-1.31.052-2.628-.048-3.932-.161-2.095-1.858-3.591-4.175-3.654 0 .74.06 1.483-.014 2.212-.119 1.175-1.011 1.93-2.13 1.902-1.094-.028-1.964-.856-2.043-2.01-.046-.669-.009-1.343-.009-2.094z"/></svg>