<svg xmlns="http://www.w3.org/2000/svg" width="31" height="29"><defs><filter id="a" width="51.9" height="51.9" x="-10" y="-12" filterUnits="userSpaceOnUse"><feOffset dx=".9" dy="2.9" in="SourceGraphic" result="FeOffset1183Out"/><feGaussianBlur in="FeOffset1183Out" result="FeGaussianBlur1184Out" stdDeviation="1.52 1.52"/></filter><mask id="b" width="2.02" height="2.02" x="-1.01" y="-1.01"><path fill="#fff" d="M3.8 1.8h23.4v21.4H3.8z"/><path d="M26.286 5.52L14.318 22.71c-.335.337-1.889.337-2.222 0L4.51 14.977a.877.877 0 010-1.227l1.812-1.834a.847.847 0 011.21 0l5.175 5.278 10.05-14.231a.849.849 0 011.21 0l2.319 1.33a.872.872 0 010 1.227z"/></mask></defs><g filter="url(#a)"><path fill="none" stroke="#413d3d" stroke-opacity=".31" stroke-width=".4" d="M26.286 5.52L14.318 22.71c-.335.337-1.889.337-2.222 0L4.51 14.977a.877.877 0 010-1.227l1.812-1.834a.847.847 0 011.21 0l5.175 5.278v0l10.05-14.231a.849.849 0 011.21 0l2.319 1.33a.872.872 0 010 1.227z" mask="url(&quot;#b&quot;)"/><path fill="#413d3d" fill-opacity=".31" d="M26.286 5.52L14.318 22.71c-.335.337-1.889.337-2.222 0L4.51 14.977a.877.877 0 010-1.227l1.812-1.834a.847.847 0 011.21 0l5.175 5.278 10.05-14.231a.849.849 0 011.21 0l2.319 1.33a.872.872 0 010 1.227z"/></g><path fill="#fff" d="M26.286 5.52L14.318 22.71c-.335.337-1.889.337-2.222 0L4.51 14.977a.877.877 0 010-1.227l1.812-1.834a.847.847 0 011.21 0l5.175 5.278 10.05-14.231a.849.849 0 011.21 0l2.319 1.33a.872.872 0 010 1.227z"/></svg>