<svg xmlns="http://www.w3.org/2000/svg" viewBox="0 0 135.63 85.78"><script xmlns="" id="eppiocemhmnlbhjplcgkofciiegomcon"/><div xmlns="" id="in-page-channel-node-id" data-channel-name="in_page_channel_Htruaj" bis_skin_checked="1"/><script xmlns=""/><script xmlns=""/><defs><style>.cls-1{fill:#003b7b;}</style></defs><title>Asset 1</title><g id="Layer_2" data-name="Layer 2"><g id="Layer_1-2" data-name="Layer 1"><path class="cls-1" d="M97.09,66.24V50.94h26.14V33.51H97.09V20.11h36.64V1.57h-59V11.86c5.34,6.8,9.62,18.8,9.62,31S80.09,67,74.75,73.79V84.22h60.87v-18Z"/><path class="cls-1" d="M72.46,14.55C64.59,4.53,52.5,0,40.66,0,20.67,0,0,12.62,0,42.89S20.67,85.78,40.66,85.78c11.84,0,23.93-4.52,31.8-14.54,5.33-6.81,8.74-16.11,8.74-28.35S77.79,21.35,72.46,14.55ZM40.66,67.91c-11.73,0-18.32-9.83-18.32-25s6.59-24.46,18.32-24.46S58.87,27.7,58.87,42.89,52.28,67.91,40.66,67.91Z"/></g></g></svg>
