<svg xmlns="http://www.w3.org/2000/svg" width="50" height="50" viewBox="0 0 50 50" fill="none">
  <path d="M24.16 21.5147L26.3079 21.5062L26.3073 24.754L28.2023 24.763C28.106 24.9285 27.9643 25.0743 27.8387 25.2188L25.4017 28.0119L25.0205 28.4244C24.7664 28.1908 24.5366 27.9217 24.303 27.6674L22.1369 25.195C22.0176 25.0697 21.9307 24.9358 21.8203 24.8102L23.7007 24.7558L23.7112 21.52L24.16 21.5147Z" fill="#324EF1"/>
  <path d="M33.2535 21.5039L35.8757 21.5049L35.8678 24.7462C35.9802 24.7933 36.2185 24.7609 36.3444 24.761L37.7629 24.7659C37.6277 24.8812 37.5272 25.0748 37.4065 25.214L35.2232 27.7733L34.6355 28.4305C34.361 28.2345 34.1167 27.9087 33.8878 27.6581L31.4965 24.9744C31.4342 24.9027 31.4102 24.8397 31.3286 24.7805L33.2542 24.7654L33.2535 21.5039Z" fill="#324EF1"/>
  <path d="M14.1606 21.5051L16.7899 21.507C16.8384 21.8269 16.8038 22.2039 16.8046 22.5304L16.8052 24.7593L18.7094 24.77C18.5504 24.9638 18.4144 25.169 18.2492 25.362L16.2631 27.6536C16.0346 27.915 15.8045 28.206 15.5381 28.4285C15.4789 28.4015 15.4281 28.3374 15.3828 28.2904L12.7567 25.2999C12.5754 25.1038 12.5188 24.9573 12.395 24.813L14.1609 24.7608L14.1606 21.5051Z" fill="#324EF1"/>
  <path d="M24.9888 6.4054C25.5998 6.4664 25.8409 6.77229 26.3192 7.11688L39.0234 16.2916C39.5851 16.6834 40.752 17.3472 39.8924 18.1877C39.547 18.5254 39.2799 18.5063 38.8314 18.5063L23.4748 18.5048L12.0937 18.5045C11.3102 18.5049 10.1252 18.7277 9.9347 17.6581L9.91595 17.529C9.8936 17.0905 10.2889 16.8501 10.6015 16.6347L15.9181 12.7947C16.1086 12.662 16.2149 12.6695 16.215 12.4222L16.2151 8.56977C16.2138 7.91422 16.258 7.74465 17.0188 7.74268L20.0762 7.7425C20.6563 7.75425 20.7316 8.14094 20.7285 8.63282L20.7038 9.37235L23.4061 7.36461C23.8609 7.03277 24.3966 6.44856 24.9888 6.4054Z" fill="#324EF1"/>
  <path d="M8.56458 29.1607C9.07083 29.1244 9.5899 29.1474 10.0975 29.1478C10.4638 29.1481 10.588 29.05 10.8404 29.3279L13.793 32.5771C14.8635 33.7411 15.0929 34.6341 16.4336 33.2292L19.3265 30.0546C20.0099 29.3192 19.9526 28.9933 20.6518 29.7839L23.7026 33.1653C24.0476 33.5353 24.7318 34.615 25.3335 34.2785L25.3674 34.2588C25.5539 34.1513 25.7054 33.9829 25.8504 33.8262L28.6633 30.7303C29.0561 30.2939 29.4329 29.7974 29.8634 29.3994C30.0459 29.2306 30.1711 29.2596 30.3475 29.4244C30.7794 29.8279 31.1647 30.3164 31.5626 30.7557L34.0949 33.4677C34.9433 34.3224 35.8104 32.9034 36.3079 32.341L38.8344 29.5656C39.1351 29.257 39.2382 29.1683 39.6674 29.1506L41.0781 29.1474C42.0787 29.1485 42.2172 29.4758 42.2175 30.3551L42.2129 39.3677C42.1694 40.3879 41.0662 40.2532 40.3633 40.2538L8.86849 40.251C8.46661 40.2349 8.09263 39.989 7.94779 39.6049L7.93841 39.5785C7.8945 39.4576 7.89654 39.3265 7.89341 39.1992L7.88716 30.7174C7.88419 30.0588 7.77836 29.4139 8.56458 29.1607Z" fill="#324EF1"/>
</svg>
