<svg xmlns="http://www.w3.org/2000/svg" width="50" height="50" viewBox="0 0 50 50" fill="none">
  <path d="M29.6555 17.4561L32.8668 17.4632L32.8538 20.993C32.7692 21.0035 32.7002 21.0103 32.6356 21.0111L30.7659 21.0157C29.5168 21.0178 29.6605 21.0824 29.6602 19.7074L29.6555 17.4561Z" fill="#324EF1"/>
  <path d="M34.0156 35.7036L35.7998 35.7608C35.6815 35.9099 35.7016 36.2703 35.7268 36.4516L35.7321 36.4866C36.007 38.4063 38.6051 38.4477 39.0424 36.6697C39.1036 36.421 39.1266 35.9877 39.0194 35.7484L41.2395 35.7116C41.2316 36.5276 41.2278 37.0785 40.9181 37.856C39.8546 40.2561 36.7258 41.0871 34.8212 39.2138C33.7736 38.1835 33.5455 37.0981 33.5312 35.7119L34.0156 35.7036Z" fill="#324EF1"/>
  <path d="M16.4146 35.2079L16.4563 35.2059C16.7784 35.1891 16.9201 35.4227 17.1729 35.5741C17.5205 35.7824 17.9812 35.7086 18.3653 35.705L19.9369 35.6986C20.4212 35.6972 20.8095 35.5427 21.0575 35.9381C21.9999 37.4406 21.3019 39.2641 19.863 40.1625L19.6807 40.2552C17.0056 41.4606 14.3433 38.9585 15.3747 36.387C15.5715 35.8964 15.9165 35.4196 16.4146 35.2079ZM18.1694 36.1429C16.8237 36.4238 16.999 38.6065 18.4737 38.3648C19.9931 37.8457 19.4642 35.9946 18.1694 36.1429Z" fill="#324EF1"/>
  <path d="M8.4087 8.68172L8.41026 8.68875C9.1544 8.58227 9.22862 8.76453 9.7658 9.21656L13.3256 12.3163C14.0574 12.9628 14.3018 13.0022 14.593 13.9885L18.0745 27.4783L19.2781 32.3491C19.2827 32.3666 19.3153 32.4966 19.3254 32.5034C19.3534 32.5219 21.1581 32.4992 21.3469 32.499L40 32.497C40.5246 32.4972 42.3676 32.3696 42.7488 32.5969L42.8927 32.687C43.5018 33.133 43.4814 34.6563 42.6046 34.7348L38.5429 34.738L19.0301 34.7332C18.7543 34.7321 18.4527 34.7438 18.1845 34.6763L18.0887 34.6538C17.6393 34.5741 17.4618 34.2872 17.3308 33.8677L12.3308 14.3907C12.1003 14.1788 11.8384 14.001 11.6006 13.7964L8.57229 11.1469C8.39096 10.9781 8.41815 10.9285 8.16706 10.9303L5.53077 10.9375C4.77902 10.9369 3.8447 11.0769 3.63356 10.0502L3.62677 10.0148C3.5244 9.49524 3.79813 8.95633 4.29572 8.76164L4.32959 8.74891C4.39249 8.72445 4.44973 8.71071 4.51716 8.70539L8.4087 8.68172Z" fill="#324EF1"/>
  <path d="M33.8912 17.4297C34.0319 17.4221 34.2482 17.4612 34.4 17.4632L40.0333 17.4688C41.663 17.4787 42.1868 18.526 42.1854 20.0473C42.1853 20.2448 42.2029 20.4702 42.1478 20.6606L42.1384 20.6911C41.9835 21.2234 41.6222 21.339 41.1326 21.3264L36.0233 21.3083C35.6825 21.308 35.3337 21.248 35.1557 21.6161C35.0289 21.8782 35.2029 22.1974 35.4545 22.3139L35.484 22.3269C35.6376 22.3979 35.8697 22.3658 36.0395 22.3659L40.4282 22.3602C40.4467 22.7099 40.4179 23.0814 40.4177 23.4337L40.4193 30.7025C40.4153 30.7947 40.4039 30.8735 40.3561 30.9543L40.3372 30.9843C40.0289 31.4807 39.5833 31.4601 39.0746 31.4591L24.0497 31.459C23.4477 31.4641 22.6743 31.5974 22.3217 30.9703L22.3044 30.9388C22.1196 30.6207 22.2144 30.1108 22.2142 29.7573L22.2121 22.3641L26.765 22.3727C26.8805 22.374 27.0754 22.3977 27.1793 22.3441C27.7789 22.0351 27.7271 21.3019 26.7876 21.308L21.9761 21.3176C20.8679 21.3404 20.5068 21.1878 20.5068 20.0674C20.5068 18.7532 20.9088 17.5231 22.4057 17.4692L28.5932 17.4716L28.5831 20.7451C28.5809 21.4362 28.9228 22.0666 29.6991 22.0865L32.6099 22.085C33.98 22.0739 33.9246 21.1616 33.9256 20.1244L33.8912 17.4297Z" fill="#324EF1"/>
</svg>
