<svg xmlns="http://www.w3.org/2000/svg" width="50" height="50" viewBox="0 0 50 50" fill="none">
  <path d="M17.7915 35.4335C18.5744 35.3621 19.3429 35.5723 19.9699 36.0507C22.2219 37.769 21.3286 41.4289 18.4317 41.7728L18.3811 41.7796C15.6154 42.1034 13.9118 38.7785 15.6243 36.6496C16.1822 35.9562 16.9036 35.526 17.7915 35.4335Z" fill="#324EF1"/>
  <path d="M35.2895 35.4111C39.3367 35.5367 39.5858 41.5029 35.3281 41.7964C31.3195 41.8296 30.8672 35.7007 35.2895 35.4111Z" fill="#324EF1"/>
  <path d="M5.33528 7.25574L5.36597 7.25384C5.78363 7.23186 6.17608 7.47348 6.54363 7.64022L8.12055 8.37726C10.3749 9.42827 11.5859 9.59171 12.3859 12.1028L13.0455 14.5188C13.0481 14.5279 13.0455 14.5408 13.0534 14.5459C13.1024 14.5778 29.8588 14.5482 31.7681 14.5487L34.512 14.5499C35.2594 14.5504 36.5633 14.3088 36.5891 15.4644C36.6435 17.9087 36.2929 20.4433 35.3648 22.7169C33.3234 27.7173 28.617 31.1044 23.2642 31.4798C22.6276 31.5245 21.9672 31.4907 21.3284 31.4912L16.7432 31.5063C16.9763 31.7572 17.0566 32.6527 17.0501 32.9693L36.7709 32.9588C36.838 32.8742 36.8356 32.7119 36.8575 32.6052L39.4097 22.5891L40.0577 20.0441C40.1753 19.592 40.2679 19.0799 40.469 18.6582C40.8497 17.8596 41.9611 18.3719 41.816 19.153C41.7674 19.4151 41.6808 19.6769 41.6138 19.9352L38.2885 32.9591L43.8413 32.9561C44.0779 32.9536 44.3154 32.932 44.5518 32.9484C45.7024 33.0285 45.8235 34.6809 44.6632 35.046C44.344 35.1464 43.9321 35.1024 43.5978 35.103L14.1681 35.1017C11.3828 35.0327 11.2588 30.6722 14.1098 30.371C14.8989 30.2876 14.875 30.6359 14.692 29.9083L10.4121 13.3373C9.88399 11.4024 9.57462 11.3919 7.85001 10.626L5.93566 9.77726C5.21486 9.45733 4.15501 9.06296 4.45005 8.04577L4.46174 8.00804C4.58987 7.58465 4.89944 7.33883 5.33528 7.25574ZM14.4616 15.4591C14.2103 15.5301 14.1281 15.6211 14.0089 15.8572L13.9929 15.8882C13.8643 16.1522 14.0865 16.5146 14.3298 16.6228C14.4499 16.6762 14.6372 16.6469 14.7681 16.6452L20.7401 16.6568C21.5368 16.411 21.317 15.4617 20.5301 15.4543L14.4616 15.4591ZM14.3688 32.2519C13.8464 32.38 13.8816 33.082 14.4566 33.0042C15.0485 32.8974 14.9117 32.3281 14.3688 32.2519Z" fill="#324EF1"/>
</svg>
