<svg xmlns="http://www.w3.org/2000/svg" width="51" height="50" viewBox="0 0 51 50" fill="none">
  <path d="M8.41359 32.98C9.23805 32.9664 10.848 32.7093 11.4905 33.0581C10.8968 33.9362 10.7241 34.6011 10.582 35.6107C10.3708 35.7287 9.56922 35.6694 9.31469 35.6391C7.84713 35.4646 7.40691 33.7161 8.41359 32.98Z" fill="#324EF1"/>
  <path d="M14.659 32.0912C16.2046 32.0171 17.8028 33.2022 18.0724 34.7491C18.4356 36.8334 17.007 38.7655 14.8538 38.8723C10.3807 38.8517 10.2073 32.4312 14.659 32.0912ZM14.6793 33.1879C13.69 33.2919 12.8325 33.8379 12.5379 34.8146L12.5269 34.8496C12.0689 36.3421 13.272 37.8481 14.8797 37.7777C15.5447 37.6895 16.1879 37.374 16.6021 36.8309L16.7215 36.6577C17.6682 35.2275 16.4251 33.0237 14.6793 33.1879Z" fill="#324EF1"/>
  <path d="M14.6157 34.2595C16.2938 34.1676 16.447 36.4452 14.8744 36.804C14.7808 36.8114 14.6931 36.8177 14.6001 36.801L14.5673 36.7948C13.1033 36.5292 13.1968 34.4395 14.6157 34.2595Z" fill="#324EF1"/>
  <path d="M36.218 32.1394C36.4481 32.1099 36.7042 32.1354 36.9327 32.1707C39.2711 32.5333 40.4611 35.2782 39.241 37.2798C39.1363 37.4516 38.9838 37.7136 38.8221 37.8345L41.2562 37.8429L41.2581 37.0049C41.423 36.7754 41.9741 36.8467 42.1759 36.9697C42.413 37.1144 42.6106 37.3745 42.8192 37.5597C43.8262 38.454 43.9551 38.2819 42.8777 39.1747L42.2155 39.7397C41.6777 40.1172 41.6014 39.2567 41.5796 38.9237C41.0193 38.8555 40.4389 38.8819 39.8752 38.8817L37.2102 38.8809C36.7677 38.8803 36.2487 38.9282 35.8144 38.844C32.0095 38.1066 32.0323 32.4743 36.218 32.1394ZM36.1381 33.2347C33.0078 33.7118 33.6925 38.0918 36.6926 37.7875C39.7164 37.2733 38.9549 32.9397 36.1747 33.2304L36.1381 33.2347Z" fill="#324EF1"/>
  <path d="M36.2387 34.2841C36.3464 34.2787 36.4525 34.2703 36.5591 34.2914L36.5896 34.2977C37.9829 34.5585 37.8805 36.4883 36.5082 36.8144C35.8883 36.8843 35.3162 36.5128 35.1522 35.902L35.1225 35.7866C34.95 34.9928 35.481 34.4082 36.2387 34.2841Z" fill="#324EF1"/>
  <path d="M16.5974 5.80225C16.7689 6.05714 17.0114 6.29115 17.2126 6.52493L17.952 7.45305C20.2159 10.4083 22.8033 14.8922 20.6251 18.5646C19.7887 19.9749 18.248 21.0408 16.5964 21.1736C16.5758 21.6489 16.6347 24.6089 16.5369 24.753C16.3343 25.0517 15.9552 24.9647 15.7147 24.7757C15.5875 24.5201 15.6308 24.1466 15.6296 23.8651L15.6265 22.6684L15.6218 21.2313C15.3887 21.1795 15.1394 21.175 14.9021 21.132C11.7659 20.5639 10.1575 18.5276 9.48271 15.5693L9.31443 14.6932C9.16271 13.6872 9.02139 12.5874 9.22295 11.5843C10.1903 11.7183 11.4698 12.0159 12.3583 12.3632C13.2989 10.277 14.9331 7.4363 16.5974 5.80225ZM16.6555 9.31396C16.6318 9.53357 16.6433 9.75982 16.6431 9.9806L16.6452 17.8948C16.6263 18.6553 16.5501 19.413 16.5726 20.1764C17.1106 20.0546 17.9858 19.3301 18.2665 18.8464L18.2769 18.8184C18.1533 18.6825 18.0351 18.5622 17.8878 18.4521L17.8015 18.3876C17.5104 18.6009 17.2697 18.8868 16.9653 19.0715C17.0264 18.188 18.0399 16.9586 18.5508 16.2583C18.7736 15.9574 19.0037 15.6558 19.1574 15.3125L18.8831 15.1479C18.2206 15.319 17.8914 16.0953 17.3194 16.4469C17.3501 15.4073 17.7121 14.7891 18.27 13.9179C18.3732 13.7568 18.5181 13.568 18.5623 13.3816C18.2815 13.1826 17.4712 13.869 17.2743 14.0393L18.1039 12.259C18.2303 12.0186 18.3921 11.7992 18.5201 11.5598C18.3053 11.3747 18.2473 11.3406 17.9962 11.511C17.6822 11.7241 17.3922 12.0453 17.1201 12.3116L17.1142 9.33482C16.9667 9.31193 16.8215 9.29396 16.6555 9.31396ZM15.7989 12.0239C15.728 12.1813 15.47 12.8848 15.4762 13.0493C15.5869 13.1579 15.6626 13.0623 15.7544 13.2484L15.7363 13.2701C15.5167 13.5893 15.4321 15.5923 15.4223 16.0622C15.4088 16.7152 15.4407 17.3536 15.3 17.9969C14.8558 17.7152 14.5001 17.1968 14.1747 16.7851L13.2972 15.6712C13.0806 15.3904 12.8615 15.0601 12.5773 14.8456C12.1193 14.9974 13.1926 16.5619 13.2942 16.7847L13.2731 16.8172C13.0945 16.7952 12.8099 17.0036 12.7618 17.1753C12.8945 17.3654 13.3451 17.378 13.5514 17.5013C13.7004 17.5903 13.8369 17.7349 13.9628 17.8537L14.6286 18.4906C14.8076 18.685 15.2937 19.0902 15.2751 19.3626L15.2705 19.4092C14.8725 19.6868 12.7394 18.7376 12.1122 18.5376C11.7577 18.4245 11.7237 18.794 12.4899 19.2482C13.5118 19.8539 14.6427 20.0554 15.8083 20.1718C15.8562 19.7362 15.8303 19.2812 15.8306 18.8427L15.837 13.5304C15.8383 13.0322 15.8674 12.5221 15.8384 12.0256L15.7989 12.0239Z" fill="#324EF1"/>
  <path d="M8.37362 32.9386C8.19315 32.8763 8.25347 32.3681 8.25276 32.2117L8.25097 31.2725C8.25011 30.5361 8.21479 29.7806 8.26589 29.0464H28.4875L28.4889 21.2465C28.4885 20.7904 28.4047 20.1917 28.5738 19.757L28.585 19.7288C29.0404 18.5675 29.8892 18.6414 30.871 18.6418L35.1839 18.6429C35.6702 18.6431 36.2968 18.5456 36.7619 18.7156L36.9527 18.7851C37.7646 19.0922 38.195 19.765 38.6057 20.4777L39.4465 21.9929C40.7299 24.3272 40.8896 24.2725 40.891 26.8403L40.8846 32.715C40.8812 32.8093 40.8878 32.9346 40.8492 33.0217L42.7272 33.1015C42.9579 33.102 43.3139 33.0579 43.5282 33.1295C45.0379 33.6339 44.3207 35.4303 43.3505 35.5238C42.731 35.5836 42.0675 35.5393 41.4435 35.5393C41.1068 35.5394 40.657 35.6964 40.5867 35.3542C40.4201 34.5433 40.0717 33.6433 39.5215 33.0161C37.98 31.2586 35.5265 30.9382 33.618 32.3126C33.2848 32.5525 33.1388 32.9023 32.7067 32.9005L31.9543 32.8759C31.911 33.1022 31.9014 33.3359 31.8578 33.5646C31.5496 35.1839 30.6942 35.8146 29.1658 35.8168L20.3221 35.8252C18.8745 35.8604 18.9444 34.9019 18.4393 33.788C18.2922 33.4634 18.0957 33.1792 17.8824 32.8961L17.7853 32.7718C15.8942 30.9261 13.4788 31.0075 11.6489 32.8832L11.5367 33.0061L11.49 33.0579C10.8475 32.709 9.23753 32.9661 8.41308 32.9798L8.37362 32.9386ZM31.1701 32.7816L31.1392 32.8397L31.8347 32.8391L31.82 21.7458L33.3435 21.7525L33.3525 24.6529L37.8393 24.661C37.801 24.4877 37.691 24.3021 37.607 24.1465L36.3321 22.0017C36.2006 21.7742 36.0384 21.3826 35.9189 21.2116C35.4143 21.1579 34.8612 21.2011 34.3519 21.2006L31.1668 21.1979L31.1701 32.7816ZM32.0219 27.1274L32.0217 27.6374L33.4627 27.6448L33.462 27.1273L32.0219 27.1274Z" fill="#324EF1"/>
  <path d="M8.37305 32.939C8.90922 32.7756 11.0434 32.796 11.5362 33.0065L11.4895 33.0582C10.8469 32.7094 9.23695 32.9665 8.4125 32.9802L8.37305 32.939Z" fill="#667DD1"/>
  <path d="M27.1205 32.7756L31.1707 32.7782L31.1398 32.84L28.1116 32.8601L26.4687 32.8557C26.1371 32.8558 25.7959 32.8746 25.4688 32.8151C25.9917 32.7204 26.5867 32.7833 27.1205 32.7756Z" fill="#879CE4"/>
  <path d="M17.7852 32.772L21.1347 32.778L27.1197 32.7761C26.5859 32.7833 25.9909 32.7204 25.468 32.8151C25.7952 32.8745 26.1363 32.8558 26.4679 32.8557L28.1108 32.8587L19.882 32.8594L18.6152 32.8587C18.3768 32.8587 18.1182 32.8423 17.8822 32.8754L17.7852 32.772Z" fill="#667DD1"/>
</svg>
