<svg xmlns="http://www.w3.org/2000/svg" width="70" height="70" viewBox="0 0 70 70" fill="none">
  <path d="M26.1589 17.0314C26.5595 17.0149 26.7811 17.2359 27.0554 17.499L28.7214 19.1017C29.4855 19.8678 29.649 20.7366 28.5035 21.1548L28.464 21.1558C27.653 21.1896 27.0835 20.3897 26.5534 19.8723C25.7642 19.102 24.2684 17.6337 26.1589 17.0314Z" fill="#324EF1"/>
  <path d="M43.5792 17.0315C44.0846 17.0134 44.4842 17.1609 44.685 17.6618C44.9653 18.3614 44.4574 18.8357 44.0013 19.2897L42.9346 20.3286C42.5923 20.652 42.3092 21.0116 41.8618 21.185C41.26 21.15 40.8375 20.8734 40.7088 20.2538L40.6983 20.2002C40.6049 19.7383 40.8432 19.5197 41.1448 19.2187L41.9081 18.4634C42.4122 17.9663 42.9003 17.2924 43.5792 17.0315Z" fill="#324EF1"/>
  <path d="M34.8061 14.3945C36.0696 14.3243 35.9568 15.2742 35.9584 16.0845C35.9591 16.4703 36.0298 18.8172 35.9005 19.0145C35.7467 19.2489 35.4207 19.4261 35.163 19.5053C34.2406 19.6996 33.9846 18.8849 33.9834 18.1716L33.9849 15.8818C33.9856 15.5819 33.9183 15.2061 34.0864 14.9402L34.111 14.9024C34.2818 14.6316 34.5108 14.5 34.8061 14.3945Z" fill="#324EF1"/>
  <path d="M34.7464 22.1641C37.2652 22.0748 39.5996 23.7138 40.3307 26.1351C41.3449 29.4947 38.9631 32.9999 35.4103 33.2505C27.6549 33.4177 27.7135 22.5667 34.7464 22.1641Z" fill="#324EF1"/>
  <path d="M34.4401 36.1415L34.5132 36.1282C39.5213 35.9027 43.7035 39.9262 44.1451 44.8694C44.1895 45.3657 44.1622 45.8797 44.1619 46.3788L44.1934 49.7827C44.0095 49.8329 43.749 49.8025 43.5571 49.8029L35.7349 49.804L25.8563 49.737C25.8313 49.4582 25.8484 49.1642 25.848 48.8838L25.8465 47.2718C25.8463 46.397 25.8102 45.5049 25.8917 44.6331C26.3115 40.1391 29.9354 36.5461 34.4401 36.1415Z" fill="#324EF1"/>
  <path d="M19.9073 25.1086C22.2667 24.8147 24.4914 26.3494 25.4237 28.4716C25.5616 28.7855 25.6351 29.1011 25.7483 29.4205L25.7715 29.4883C26.0877 30.5991 25.7226 32.4559 25.1758 33.4077C26.6858 33.8628 28.1541 34.7948 29.2614 35.9122C29.1088 36.1187 28.7512 36.3298 28.5421 36.4932L27.6489 37.2508C24.819 39.8808 23.9698 42.6803 23.977 46.3819L23.985 49.7947L17.3803 49.8041L10.0488 49.8044C8.89686 49.8059 8.58947 49.7385 8.58595 48.4221L8.58364 47.079C8.58265 46.0519 8.53252 44.995 8.60007 43.9722C8.87361 39.8315 12.0437 35.2493 16.1629 34.2244L16.2081 34.2133C13.5271 30.8708 15.4682 25.5662 19.9073 25.1086Z" fill="#324EF1"/>
  <path d="M49.4135 25.1029C54.0674 24.8142 56.7705 30.4678 53.8879 34.1298C57.4301 35.4878 59.867 37.8948 61.0094 41.6283C61.2849 42.5287 61.4385 43.5169 61.4392 44.4579L61.4778 48.8087C61.5128 49.812 60.8095 49.8108 60.1252 49.81L53.4058 49.8046L46.0758 49.8011C46.0098 49.7351 46.0548 48.7086 46.0554 48.5536C46.063 46.7419 46.1659 44.9185 45.8018 43.1348C45.1267 39.8279 43.376 37.7442 40.6678 35.9593C41.4557 34.9663 43.7509 33.6581 44.9009 33.4444C42.8983 29.8205 45.2268 25.3677 49.4135 25.1029Z" fill="#324EF1"/>
</svg>
