<svg xmlns="http://www.w3.org/2000/svg" width="50" height="50" viewBox="0 0 50 50" fill="none">
  <path d="M3.8785 35.892C4.43562 35.8265 4.65944 36.2981 4.15344 36.546C3.65013 36.619 3.39791 36.1183 3.8785 35.892Z" fill="#324EF1"/>
  <path d="M44.1779 35.875C44.3456 35.8645 44.5545 35.8657 44.7154 35.9171C45.0329 36.295 44.7293 36.578 44.3068 36.6193C43.3157 36.617 43.3015 35.9081 44.1779 35.875Z" fill="#324EF1"/>
  <path d="M9.13247 20.6079C9.74372 20.5848 9.67012 20.9471 9.67833 21.455C10.1045 21.4576 10.6741 21.4048 10.4321 22.1204C10.2722 22.2835 9.93356 22.26 9.71856 22.2757C9.67215 22.6686 9.82762 23.004 9.377 23.0985C8.76122 23.0429 8.89278 22.8381 8.80661 22.2978C8.56028 22.2907 8.33333 22.2604 8.09864 22.1839C7.87903 21.4879 8.21684 21.4616 8.812 21.4473C8.83044 21.1132 8.81004 20.7849 9.13247 20.6079Z" fill="#324EF1"/>
  <path d="M21.1073 10.0184C21.7036 10.0631 21.5935 10.402 21.6055 10.9097C21.776 10.9093 22.1948 10.8684 22.3286 10.9666C22.4387 11.0474 22.454 11.5409 22.3636 11.6174C22.219 11.7398 21.7797 11.7137 21.5835 11.7182C21.5826 12.0912 21.6624 12.5412 21.1803 12.5691C20.7526 12.4598 20.792 12.0949 20.7783 11.7273C20.4204 11.7202 19.4629 11.5887 19.9801 11.0394C20.1447 10.8645 20.539 10.9028 20.7638 10.8941C20.7591 10.4847 20.6272 10.1117 21.1073 10.0184Z" fill="#324EF1"/>
  <path d="M14.8042 15.2895C15.4488 15.2558 15.3454 15.6173 15.5622 16.2195L18.2208 23.4394C18.3537 23.8476 18.438 23.9681 18.0262 24.1558C17.8193 24.2187 17.699 24.2672 17.5976 24.0356C17.463 23.7282 17.3697 23.3995 17.2554 23.0838L14.6961 16.1556C14.554 15.7503 14.3276 15.4241 14.8042 15.2895Z" fill="#324EF1"/>
  <path d="M32.6501 23.3054L40.0157 23.3131L40.0178 24.0385C39.7227 24.0768 39.4322 24.0593 39.1359 24.0589L32.8015 24.0582L26.2864 24.0571C25.9887 24.0566 25.6804 24.072 25.3843 24.0402L25.393 23.329C25.634 23.2855 25.9155 23.3077 26.1614 23.3075L32.6501 23.3054Z" fill="#324EF1"/>
  <path d="M27.799 30.8442C28.7482 30.8645 29.7939 31.69 29.8725 32.6686C29.9796 34.0013 29.1426 35.0219 27.7919 35.1076C26.7756 35.1216 25.878 34.504 25.6846 33.4653L25.6448 33.2153C25.5376 31.8876 26.5089 30.9432 27.799 30.8442Z" fill="#324EF1"/>
  <path d="M35.9889 29.4298C37.3788 29.457 38.5036 30.3305 38.7792 31.7261L38.8137 31.9336C38.9786 33.7141 37.7644 35.0658 36.0094 35.2057C32.4104 35.2297 32.0533 29.6338 35.9889 29.4298Z" fill="#324EF1"/>
  <path d="M12.6744 30.7899L14.1448 30.7919C14.3838 30.7923 14.6471 30.7711 14.8829 30.8025C15.2198 30.8471 15.0365 31.2225 15.3071 31.2514C15.5754 31.28 15.8332 31.313 16.0907 31.3982C17.1307 31.7425 18.3701 33.0091 18.384 34.1341C18.3978 35.2459 17.4994 35.2407 16.6968 35.2441L15.1558 35.2473L10.9662 35.2494C9.18685 35.2493 9.27864 33.7843 10.0794 32.6579C10.6136 31.9066 11.4229 31.3393 12.3411 31.191C12.5544 31.1565 12.1483 30.9349 12.6744 30.7899Z" fill="#324EF1"/>
  <path d="M11.2565 8.4808C11.4087 8.45955 11.589 8.46432 11.7409 8.48838L11.7807 8.4951C12.6449 8.63025 13.1893 9.31471 13.5431 10.0629C13.595 10.0572 13.5742 10.0617 13.6232 10.0476C14.4976 9.79565 15.3585 10.0393 16.0143 10.6762C17.3626 11.9855 16.7182 14.4528 14.7725 14.7302C14.4341 14.7785 14.0529 14.7462 13.7101 14.7463L12.147 14.7446L9.62213 14.7442C8.28565 14.743 7.12587 14.8546 6.60496 13.3236L6.56709 13.2021C6.30788 12.1521 7.04957 10.9913 8.10409 10.7667L8.1501 10.7571C8.46237 10.6882 8.79854 10.7075 9.11471 10.7426C9.19401 9.56268 10.0661 8.59018 11.2565 8.4808Z" fill="#324EF1"/>
  <path d="M24.6232 21.5455C24.7723 21.5254 24.9464 21.5423 25.0983 21.5417C25.1275 21.8187 25.1061 22.1088 25.1018 22.3873C23.8522 22.3817 22.9224 22.4795 21.8717 23.293L20.9879 24.0349C20.3555 24.531 19.6786 24.9476 18.9762 25.3361C19.0837 25.5954 19.1522 25.8693 19.2414 26.1352L22.7146 35.5175C22.8442 35.851 22.7333 35.8622 23.1056 35.8626L41.6051 35.8597C42.0047 35.8591 42.4388 35.825 42.8353 35.8639C43.3101 35.9105 43.323 36.6059 42.8045 36.6365C42.4866 36.6552 42.1597 36.6404 41.8411 36.6406L16.4498 36.6397L5.31447 36.6404C5.16615 36.6404 4.97429 36.6607 4.83606 36.6007C4.59942 36.3581 4.65351 35.8655 5.06491 35.8632L22.0019 35.8474C21.9282 35.7243 21.9101 35.5932 21.8611 35.4579L18.5357 26.5659C18.4322 26.2655 18.3003 25.979 18.2108 25.6732C17.6665 25.901 17.0952 26.0711 16.5626 26.325C15.3412 26.9072 14.5054 28.1672 14.2104 29.4668C14.057 30.1423 14.2744 30.1842 13.3512 30.0326C13.3394 28.8047 14.0224 27.5446 14.8185 26.6464C15.9626 25.3558 17.8127 25.1608 19.2343 24.29C21.2772 23.0385 21.8322 21.7168 24.6232 21.5455Z" fill="#324EF1"/>
  <path d="M32.2456 15.1077C32.2875 15.0967 32.3736 15.1076 32.4193 15.1076L34.9296 15.109C38.0431 15.1161 37.0963 19.0465 37.2548 19.1939C37.2682 19.2064 37.5253 19.2026 37.5562 19.2031C37.8177 19.2073 38.1001 19.1919 38.3555 19.2567C39.453 19.5354 39.947 20.4118 39.955 21.4631L39.9503 22.5036L33.2895 22.5066L26.3678 22.5037C26.0894 22.5029 25.7881 22.5245 25.5148 22.4731L25.5137 21.4785C25.5158 19.6895 26.5895 19.2188 28.2038 19.2025C28.2385 19.144 28.2182 18.9749 28.2183 18.898L28.2199 17.8216C28.2252 15.847 29.0463 15.1119 31.0516 15.1083L32.2456 15.1077ZM30.9867 15.8766L30.463 15.8857C29.1464 15.9205 28.9896 17.0531 28.9866 18.0574L28.9864 19.2069L34.5102 19.2172L36.4645 19.217L36.4559 18.0383C36.452 16.6577 36.2388 15.8775 34.6901 15.8759L30.9867 15.8766Z" fill="#324EF1"/>
  <path d="M25.4222 24.972L39.6828 24.9753C39.7636 24.9751 39.8787 24.959 39.9534 24.9891L39.9191 31.6428C39.8744 31.6568 39.23 31.6381 39.1911 31.6108C39.1369 31.573 39.0636 31.3131 39.039 31.25C38.7892 30.6079 38.4032 30.1023 37.8632 29.6694C35.8311 28.1253 33.0548 29.4537 32.6089 31.9271L30.8102 31.9324C30.6077 31.9324 30.1202 32.042 30.0139 31.814L29.9643 31.7083C29.4871 30.9074 28.344 30.3277 27.4348 30.4827L27.3936 30.4899C26.7048 30.6067 26.2121 30.9464 25.7415 31.4333C25.2505 31.9413 25.4275 31.37 25.4301 30.9445L25.4222 24.972Z" fill="#324EF1"/>
</svg>
