<svg xmlns="http://www.w3.org/2000/svg" width="50" height="50" viewBox="0 0 50 50" fill="none">
  <path d="M27.9415 42.2188L28.1395 42.2C28.4007 44.8403 24.6244 45.6549 22.8589 44.2609C22.2251 43.696 21.9876 43.0653 21.8921 42.2408L27.9415 42.2188Z" fill="#324EF1"/>
  <path d="M19.8833 39.3555C20.5058 39.6045 21.0331 39.5808 21.6956 39.5799L29.004 39.5758C29.1771 39.5726 29.3528 39.5585 29.5241 39.533C29.9712 39.4662 30.1562 39.2155 30.0398 39.827C29.9713 40.1873 29.8638 40.5103 29.6648 40.8201C29.0713 41.6013 28.0642 41.3876 27.2042 41.3877L21.5838 41.3924C21.455 41.3926 21.3057 41.4032 21.1811 41.3677L21.1545 41.3595C20.3243 41.1166 19.9564 40.1402 19.8833 39.3555Z" fill="#324EF1"/>
  <path d="M19.8982 33.8945L31.8121 33.8933L31.8093 35.5386C31.807 35.82 31.8351 36.1613 31.7648 36.4343L31.6275 36.944C31.334 37.7524 30.8118 38.2202 30.0482 38.5761C29.3709 38.7774 28.7154 38.735 28.0131 38.7349L20.7623 38.726C20.6105 38.7203 20.3829 38.7229 20.2445 38.6614L19.6543 38.4093C18.4072 37.7527 18.2432 36.5336 18.2405 35.3046L18.2275 33.9047L19.8982 33.8945Z" fill="#324EF1"/>
  <path d="M24.176 6.21501C28.224 6.0741 31.8015 7.26503 34.8671 9.99545C42.1506 16.4829 41.0746 27.9122 33.0286 33.1119C32.9232 33.1801 31.8206 33.0642 31.5865 33.0639L25.7993 33.0634L18.6618 33.0633C18.3056 33.0634 17.8515 33.0201 17.5127 33.1221C17.0251 33.2688 16.6311 32.8465 16.2465 32.5552C12.5132 29.7275 10.31 25.5418 10.3077 20.8134C10.3075 20.3761 10.2711 19.8799 10.3473 19.4516L10.6637 17.5647C12.1082 11.3397 17.7464 6.50629 24.176 6.21501ZM24.2908 9.04388C17.3803 9.49138 12.1932 15.8348 13.3485 22.7783C13.7573 25.2355 15.0632 27.7939 16.9609 29.4551C17.6487 30.0572 19.3656 31.2401 20.3282 31.2694L25.8305 31.277L29.5948 31.2719C30.8642 31.2569 32.6599 29.9085 33.5033 29.0664C35.6203 26.9527 36.8688 23.8358 36.8647 20.8489C36.8564 14.733 31.9564 9.53146 25.8543 9.04615C25.341 9.00537 24.806 9.02943 24.2908 9.04388Z" fill="#324EF1"/>
  <path d="M23.7322 27.2729L26.2453 27.3089L26.2436 30.4694L23.7412 30.4429C23.699 30.1248 23.7321 29.7673 23.732 29.4432L23.7322 27.2729Z" fill="#324EF1"/>
  <path d="M27.7913 19.2458C28.2743 19.3198 29.1979 20.783 29.483 21.1577L30.2271 22.0998C30.3326 22.2427 30.4588 22.3955 30.505 22.5694L30.4683 22.6045C29.8632 22.6076 29.293 22.3604 28.6784 22.4182C28.1084 22.4718 27.5672 22.7225 27.0147 22.8583C25.4372 23.2462 23.832 23.0935 22.2843 22.6517L21.5125 22.4739C20.8387 22.3376 20.1747 22.5248 19.4995 22.5376C19.7 22.1233 19.994 21.7546 20.2739 21.3909L21.1533 20.262C21.3968 19.9576 21.8124 19.1738 22.2925 19.2996L23.3881 19.6259C24.4608 19.9003 25.6619 19.8643 26.7209 19.5556C27.0747 19.4525 27.4258 19.2993 27.7913 19.2458Z" fill="#324EF1"/>
  <path d="M24.9053 11.5112C25.3069 11.4347 25.4542 12.1116 25.591 12.3877L28.9973 18.1205C29.4622 18.8798 29.8505 19.3369 28.5974 18.8184C27.6013 18.4062 26.3076 19.1489 25.1335 19.1757C24.4985 19.1737 23.9544 19.1082 23.3371 18.9463C22.9467 18.8439 22.5255 18.6715 22.1201 18.6563C21.574 18.6359 21.1624 19.0673 20.5728 19.0426C20.6914 18.7059 20.8829 18.3956 21.0667 18.0908L23.6265 13.8552L24.6039 12.0074C24.6883 11.8391 24.7699 11.6446 24.9053 11.5112Z" fill="#324EF1"/>
  <path d="M21.0905 23.0103C21.4031 22.9574 21.7402 23.1587 22.0263 23.2583C23.4827 23.7653 26.3568 23.9276 27.807 23.3361C28.3817 23.1016 28.687 22.7805 29.1913 23.2982C29.8395 23.9637 30.393 24.75 30.9684 25.4785L31.5002 26.1544C31.6257 26.3166 31.7312 26.494 31.8584 26.6515L29.4548 26.6572L27.7634 26.6554C27.3878 26.6552 26.9174 26.6019 26.5556 26.7049L26.5198 26.7153C25.9195 26.8692 24.5423 26.8662 23.9007 26.8001C23.5193 26.7607 23.1688 26.6691 22.7797 26.6599L18.1562 26.6627L18.2317 26.5337C18.3606 26.2718 18.5927 26.0147 18.768 25.7785L20.1033 24.0556C20.3724 23.7225 20.6852 23.1917 21.0905 23.0103Z" fill="#324EF1"/>
</svg>
