<svg xmlns="http://www.w3.org/2000/svg" width="50" height="50" viewBox="0 0 50 50" fill="none">
  <path d="M14.3915 31.7002L14.4191 31.6986C17.3552 31.6061 18.8345 35.2157 16.8145 37.3875C16.2491 37.9954 15.374 38.3579 14.5505 38.387C14.3928 38.3847 14.2324 38.3883 14.0762 38.3638L13.8427 38.3283C10.139 37.6101 10.3169 31.9915 14.3915 31.7002Z" fill="#324EF1"/>
  <path d="M23.9268 11.1915C25.8377 10.9932 26.8087 12.34 27.8747 13.6358C28.0813 13.887 28.4312 14.2268 28.5347 14.5314C27.9317 14.9079 27.1909 15.1073 26.5249 15.3501L15.1381 19.4834L13.7706 19.9679C13.4309 20.0959 13.0981 20.2633 12.742 20.34L12.6905 20.1171C12.3515 17.9241 13.7194 15.8794 15.9795 15.5436C15.4754 14.4949 16.0026 12.9722 16.7806 12.2102C18.1928 10.827 20.1883 11.1531 21.4909 12.4964C22.1854 11.7336 22.9031 11.3213 23.9268 11.1915Z" fill="#324EF1"/>
  <path d="M34.2987 27.5724C35.2826 27.3726 36.6267 28.3155 37.0966 29.1477C37.5624 29.9728 37.5528 30.9435 37.3594 31.8521C37.8157 31.8558 38.2871 31.8665 38.731 31.9837C40.8214 32.5355 42.1141 34.3685 41.831 36.5172C41.8151 36.6383 41.8135 36.771 41.7778 36.8876L42.7758 36.9265C42.9604 36.9254 43.1956 36.9008 43.3737 36.948C44.0731 37.1335 44.0816 38.2679 43.3724 38.3757C43.0577 38.4236 42.6931 38.3905 42.3732 38.3907L33.1419 38.3927L25.3721 38.394C25.0711 38.3956 24.7542 38.4189 24.4546 38.3979C23.9036 38.3592 23.5484 37.6186 23.912 37.1851C24.1989 36.8433 24.6089 36.9205 25.0003 36.8772C23.8386 34.1913 25.1587 31.8204 28.0438 31.5152L28.1494 31.1104C28.6903 29.5494 30.561 28.2747 32.1886 28.8549C32.2625 28.8812 32.3723 28.711 32.4218 28.6555C32.9526 28.0608 33.4867 27.6659 34.2987 27.5724Z" fill="#324EF1"/>
  <path d="M42.0893 12.0159C42.7695 11.9841 43.2538 12.6178 42.961 13.1586C42.7847 13.4844 42.0742 13.6642 41.7475 13.7821L40.3211 14.2794L37.984 24.4728C37.7787 25.3737 37.5832 26.2777 37.2653 27.1474L36.8552 26.7997C35.4326 25.7746 33.4835 25.729 32.15 26.9197C31.5148 27.4867 31.7007 27.1527 30.9315 27.2804C29.3741 27.5388 28.1724 28.394 27.2647 29.6609C26.6939 30.4574 27.2558 30.1405 26.3027 30.4261C25.2109 30.7533 23.8404 31.903 23.5488 33.0711L19.3819 34.4356L19.3452 34.235C18.5436 29.8362 12.9498 28.5287 10.3676 32.3802C9.93551 33.0875 9.63254 33.8327 9.5391 34.6605C9.37684 34.3297 9.28254 33.962 9.14723 33.6184L6.71987 26.6664C6.53995 26.1541 6.29578 25.6033 6.20898 25.0677C6.4093 24.9465 6.63554 24.8733 6.85394 24.7913L25.4599 18.128L41.4158 12.2552C41.6375 12.1705 41.8572 12.0676 42.0893 12.0159Z" fill="#324EF1"/>
</svg>
