<svg xmlns="http://www.w3.org/2000/svg" width="50" height="50" viewBox="0 0 50 50" fill="none">
  <g clip-path="url(#clip0_304_2216)">
    <mask id="mask0_304_2216" style="mask-type:luminance" maskUnits="userSpaceOnUse" x="0" y="0" width="50" height="50">
      <path d="M50 0H0V50H50V0Z" fill="white"/>
    </mask>
    <g mask="url(#mask0_304_2216)">
      <path d="M12.4279 24.4427C12.5162 24.22 12.5597 23.9941 12.6358 23.7695C13.1325 22.3016 14.4798 22.5019 15.7133 22.5037C16.6276 22.5049 16.8692 22.2877 16.5005 23.2591C15.9009 24.8387 15.425 25.1043 13.7271 25.0991L12.5696 25.0958L12.5224 27.9656C12.522 28.0209 12.5133 28.028 12.5486 28.0744C12.7113 27.9859 12.7976 27.4966 12.8786 27.3155C13.4173 26.1095 14.9347 26.2159 16.05 26.1598C16.3417 26.1452 16.629 26.103 16.9189 26.1591C16.3602 27.7829 15.6567 28.6209 13.9136 28.6289L12.7245 28.6347L12.722 29.8698L23.4246 29.8794C23.7815 29.8796 24.1939 29.9196 24.5434 29.8693C24.5729 29.4559 24.6147 29.0016 24.5633 28.5899L23.3693 28.6354C21.7832 28.6739 21.1381 28.3375 20.4552 26.7841C20.3914 26.639 20.294 26.4516 20.2837 26.2938L20.284 26.2087C20.4892 26.0812 22.7351 26.2816 23.0833 26.3612C23.5941 26.4781 24.012 26.7939 24.2859 27.2409L24.5041 27.6163C24.552 27.6914 24.5665 27.7589 24.5818 27.8459L24.5775 25.988C24.5769 25.749 24.6186 25.4054 24.5626 25.1803L23.2939 25.1934C21.5552 25.2091 20.7383 24.9318 20.1649 23.0513C19.9526 22.3549 20.1811 22.5109 20.8975 22.5076L22.0362 22.5071C22.9042 22.5102 23.6865 22.6287 24.2112 23.4255L24.3155 23.6155C24.4875 23.962 24.4599 24.35 24.6101 24.6838C24.5267 23.6577 24.5826 22.597 24.5823 21.5666L24.5822 20.8802C24.5822 20.768 24.5937 20.6419 24.5733 20.532C23.3398 20.5098 21.8892 21.0226 20.8958 20.0054C20.3368 19.4329 20.1005 18.5982 19.9627 17.8302L21.3108 17.8361C23.3706 17.8477 24.1437 18.0851 24.6255 20.1647C24.6358 19.4687 24.5287 18.7784 24.516 18.0838L24.5084 17.155C24.502 16.5579 24.0805 16.581 23.5844 16.2377C21.3694 14.7051 22.3504 11.7258 23.9882 10.1044C24.9492 9.15288 25.0316 9.44101 25.8994 10.3409C27.6194 12.1248 28.4935 15.1712 25.7839 16.4737C25.6411 16.5424 25.4594 16.6033 25.3396 16.7063C25.1927 16.8327 25.187 18.1023 25.1659 18.3443C25.1345 18.705 24.9401 19.7137 25.0459 20.0422C25.2087 19.7547 25.2698 19.4961 25.3857 19.1896C25.9383 17.7265 27.6595 17.8364 28.9465 17.8303C29.8783 17.8259 29.8548 17.6452 29.5272 18.5643C29.0793 19.8206 28.5976 20.5987 27.1508 20.6187C26.6102 20.6263 25.651 20.4748 25.1962 20.6452C25.1287 20.7715 25.1335 20.9219 25.1317 21.0619L25.117 23.3414C25.099 23.7632 25.0254 24.1725 25.0283 24.5973L25.07 24.6269C25.414 24.3309 25.2254 23.0025 26.7477 22.6398C27.2766 22.5137 28.7569 22.5164 29.336 22.5644C29.809 22.6037 29.3954 23.3486 29.3039 23.6005C28.7519 25.1188 27.9594 25.2092 26.4386 25.1969L25.1404 25.1854L25.0344 28.2422C25.3073 27.9894 25.2915 27.967 25.3988 27.6168C25.8533 26.1326 28.1166 26.1824 29.4158 26.2002C28.5565 28.6966 27.4989 28.6419 25.1252 28.6261L25.1267 29.8638C25.5535 29.9177 26.0267 29.8807 26.4584 29.8809L37.5558 29.8729L37.5303 28.5619C36.0255 28.4784 34.8006 29.2011 33.5537 27.8242C33.1917 27.4246 32.8277 26.6776 32.7695 26.123L34.3227 26.1998C35.2237 26.2513 36.1972 26.1714 36.8904 26.8623C37.2189 27.1898 37.2625 27.5256 37.4223 27.9256L37.5112 28.1583C37.553 27.8407 37.5442 27.5121 37.5447 27.1922L37.5467 25.7509C37.548 25.5579 37.5936 25.3053 37.5603 25.1191C35.2848 25.1277 34.0392 25.5573 33.3061 22.9791C33.2812 22.8918 33.1458 22.6037 33.2542 22.5369C33.3648 22.4687 35.6271 22.483 35.8783 22.5014C36.7069 22.5617 37.3731 23.3002 37.5166 24.089C37.5581 24.3172 37.5497 24.5479 37.5983 24.7782L37.6134 20.922C37.6179 20.7893 37.6405 20.6355 37.624 20.5044C36.7956 20.5647 35.9354 20.7351 35.1061 20.5917L35.0798 20.5873C33.8275 20.3654 33.3669 18.9676 33.2423 17.8659C33.8915 17.8221 35.1019 17.8084 35.7542 17.9598L35.7978 17.9694C36.4137 18.1096 36.9711 18.5973 37.2984 19.1238L37.4719 19.4608C37.5719 19.6808 37.6007 19.9555 37.6681 20.1892C37.6799 19.8422 37.6158 19.5098 37.6026 19.1652C37.579 18.5527 37.6245 17.9346 37.6947 17.326C36.9856 16.6022 36.2609 16.4024 36.27 15.1171C36.2783 13.9372 37.1472 12.1277 38.2376 11.5293C38.4593 11.6534 38.6384 11.8425 38.8096 12.0275C39.721 13.0123 40.6231 14.6524 39.8719 15.9739C39.5054 16.6183 38.952 16.9182 38.3726 17.3337C38.1422 17.4989 38.1648 17.4518 38.1541 17.7363C38.1423 18.0491 38.1469 18.3651 38.1085 18.6762C38.0454 19.1872 37.9004 19.6284 37.9676 20.1534C38.4173 19.2034 38.4514 18.4537 39.6458 18.0345L40.0085 17.9271C40.3403 17.8195 41.8251 17.7638 42.2221 17.8659C42.0815 18.7684 41.8854 19.6483 41.1079 20.219C40.2472 20.8507 39.0659 20.508 38.078 20.5634L38.0026 23.6994C37.9776 24.103 37.9038 24.4894 37.993 24.8918C38.4929 23.7788 38.0569 22.7359 39.9551 22.5246C40.2157 22.4956 41.9476 22.4538 42.0961 22.5352C42.333 22.6652 41.6546 24.1903 41.4825 24.3871C41.0479 24.8841 40.322 25.0614 39.6894 25.0909L38.0027 25.0978L37.9385 27.5259C37.9336 27.7204 37.9149 27.9191 37.9831 28.1051L38.2422 27.4091C38.6704 26.4505 39.4564 26.3244 40.3888 26.2373C40.9665 26.1833 41.594 26.135 42.1719 26.1837C41.6672 27.7509 41.0043 28.5695 39.3245 28.5812L38.1664 28.5789L38.0426 28.5844C37.9831 28.6498 38.0109 28.858 38.0101 28.9569L37.9912 29.8525C41.0355 29.9132 43.8534 32.2794 43.89 35.4473C43.9029 36.5673 43.1329 36.2822 42.3249 36.2822L6.73154 36.2764C6.30727 36.2647 6.15317 35.9812 6.13955 35.5796C6.04763 32.8699 8.20717 30.43 10.8324 29.9709C11.2644 29.8953 11.7007 29.8765 12.1379 29.8607L12.1478 28.5408C11.1278 28.5489 9.99771 28.874 9.05748 28.3429C8.2842 27.9062 7.85193 27.0244 7.61893 26.1974C8.05959 26.1795 8.47732 26.21 8.91537 26.225C10.5954 26.2826 11.6188 26.211 12.1465 28.0921C12.1826 27.7609 12.0961 27.4181 12.0861 27.0876L12.0677 25.1022L10.7298 25.1627C9.78623 25.2641 8.61131 24.8139 8.14748 23.9627C8.0131 23.7161 7.65056 22.7698 7.72454 22.5162C7.8481 22.4795 7.98529 22.4947 8.11326 22.4964L9.86342 22.5036C10.8529 22.5067 11.6852 22.7327 12.0334 23.8361C12.0963 24.0352 12.1115 24.2448 12.1838 24.4418L12.1865 24.4131C12.2001 24.1341 12.094 23.8712 12.0857 23.5975L12.0994 20.4777C11.2095 20.4831 10.3053 20.7544 9.42615 20.5219C8.20818 20.1998 7.83834 18.8717 7.70129 17.7712L7.70954 17.7519C8.88006 17.7548 10.6519 17.6479 11.5339 18.5235C11.9538 18.9405 11.9379 19.5655 12.1433 20.0848C12.1867 19.5987 12.0612 19.3528 12.0126 18.9211L12.0072 18.8751C11.9662 18.5063 12.1406 17.4093 11.9937 17.1505C11.2372 16.7748 10.5906 16.3462 10.4709 15.4542L10.4653 15.414C10.3409 14.4323 11.3221 12.8627 12.1517 12.2762C12.7826 13.2088 14.1508 14.4535 13.9011 15.6967C13.69 16.7477 12.7362 16.8916 12.5774 17.1529C12.5645 17.6098 12.5815 18.0702 12.5377 18.5252C12.4964 18.9534 12.3154 19.3635 12.3796 19.8L12.4187 19.8366C12.7266 19.7914 12.7107 19.4315 12.807 19.1773C13.3138 17.8398 14.9426 17.8272 16.1576 17.8471C16.9626 17.8602 16.7948 17.9337 16.5897 18.585C16.1563 19.9604 15.7964 20.5791 14.2764 20.5776L13.2689 20.5639C13.0427 20.5534 12.7994 20.5141 12.5745 20.5482L12.5528 23.0055C12.5408 23.2264 12.3184 24.3651 12.4279 24.4427ZM24.9341 12.6588C24.4125 13.349 24.3399 15.7766 24.9265 16.3265C24.9772 16.2932 24.9561 16.3122 24.9917 16.2717C25.8066 15.1541 25.473 13.8727 24.963 12.6732L24.9341 12.6588ZM38.1623 13.7534C37.7581 14.3234 37.5015 15.2641 37.6111 15.96L37.6371 16.0768C37.7169 16.4031 37.8479 16.6879 38.0279 16.9716C38.7474 16.1919 38.6469 14.608 38.1623 13.7534ZM12.4501 14.4291C12.1872 14.9837 11.3874 16.3909 12.1947 16.8409C12.4978 16.9128 12.6307 16.5287 12.6676 16.2874L12.677 16.2111C12.759 15.6079 12.6779 14.9938 12.4501 14.4291Z" fill="#324EF1"/>
    </g>
  </g>
  <defs>
    <clipPath id="clip0_304_2216">
      <rect width="50" height="50" fill="white"/>
    </clipPath>
  </defs>
</svg>
