<svg xmlns="http://www.w3.org/2000/svg" width="50" height="50" viewBox="0 0 50 50" fill="none">
  <path d="M42.62 14.8011L42.6797 14.7981C43.6021 14.7993 43.577 15.5658 43.5738 16.2693L42.9776 16.2779L42.0128 16.2543C41.9075 15.7402 41.9806 14.9109 42.62 14.8011Z" fill="#324EF1"/>
  <path d="M37.2291 22.88L38.571 22.9029L38.5934 23.043C38.6206 23.2848 38.6095 23.5367 38.6101 23.7802L38.6109 25.9414C38.6097 26.8382 38.5784 26.8339 37.7614 26.8304L36.6 26.8275L36.5488 25.8661L37.6882 25.8521C37.7314 25.7057 37.7016 25.4591 37.702 25.3013L37.6991 23.8477L36.3983 23.8088C36.3545 23.517 36.3767 23.201 36.3594 22.9048L37.2291 22.88Z" fill="#324EF1"/>
  <path d="M42.6813 17.0931L44.6647 17.0905C44.8964 17.0904 45.2198 17.0457 45.4393 17.094C46.0438 17.2269 46.0854 18.3751 45.431 18.5631C45.311 18.5976 45.1486 18.5807 45.0225 18.5813L44.2046 18.5818L40.9517 18.5635L41.5274 17.7911C41.7161 17.5472 41.8488 17.2793 41.9981 17.0924L42.6813 17.0931Z" fill="#324EF1"/>
  <path d="M27.7607 10.0071C29.3165 10.3867 30.9119 11.4175 31.2924 13.0636C31.3207 13.1863 31.378 13.3914 31.3116 13.4985L29.745 13.5272C29.3636 13.5276 28.8603 13.5874 28.5021 13.4707L28.3087 13.3975C28.0639 13.2754 27.9039 12.997 27.8246 12.7447L27.8131 12.7066C27.7185 12.4097 27.7613 11.9982 27.76 11.6839L27.7607 10.0071Z" fill="#324EF1"/>
  <path d="M30.0818 14.4718C30.554 14.5473 31.0498 14.5223 31.5254 14.5223L41.4892 14.5362C41.1644 14.869 41.1892 15.5634 41.1683 15.9885L41.1633 16.2865L30.0937 16.2717C30.0567 16.1183 30.0825 15.9034 30.0822 15.7415L30.0818 14.4718Z" fill="#324EF1"/>
  <path d="M35.5848 23.4056L35.6696 23.4009L35.8829 27.1606C35.8874 27.3541 35.9247 27.5451 35.9286 27.7372L36.0675 32.8531C36.1151 33.8487 36.1954 34.8723 36.1712 35.8678C36.1484 36.8047 35.3129 37.4266 34.3997 37.0127C33.9649 36.7637 33.7192 36.2809 33.6968 35.7877L33.7045 33.777C33.7119 33.6103 33.7523 33.4491 33.7565 33.2824L33.769 30.0958L33.8712 26.0564C33.8764 25.7949 33.9252 25.5416 33.9283 25.2808L33.9384 24.0871C33.9406 23.8596 33.9179 23.6023 33.9797 23.3827C34.4851 23.4323 35.1661 23.3427 35.5848 23.4056Z" fill="#324EF1"/>
  <path d="M40.1427 17.0922L41.0611 17.0902C40.7172 17.5963 40.3137 18.0683 39.9361 18.55L38.6262 20.1727C37.8014 21.161 36.9006 22.1526 35.5822 22.4308C34.279 22.7058 32.8617 22.5718 31.7255 21.836C30.4319 20.9861 30.0848 19.9211 30.0822 18.4878L30.0771 17.1056C30.3964 17.0666 30.755 17.0966 31.0778 17.0962L40.1427 17.0922Z" fill="#324EF1"/>
  <path d="M12.5895 9.91518L26.9329 9.91064C26.9321 10.394 26.8587 13.0485 27.0596 13.3042L27.4143 13.7477C27.9537 14.3111 28.5264 14.3078 29.2385 14.3255C29.2558 14.4778 29.2433 14.6403 29.2431 14.7942L29.2444 18.6024L13.0101 18.6012L13.0035 15.7219L14.7757 15.726C15.0724 15.7278 15.3889 15.7621 15.6824 15.7191C16.1185 15.6552 16.133 14.9654 15.6508 14.9121C15.4712 14.8924 15.2798 14.9056 15.0983 14.9056L13.1062 14.9086C12.2381 14.9114 12.1636 14.911 12.1651 15.7088L12.1637 35.642C12.1533 36.6055 12.0249 36.7799 13.1721 36.776L30.2802 36.7738L31.0802 36.7728C31.7597 36.7692 31.7214 36.4938 31.6881 35.8824L31.6702 22.7088C31.8523 22.8852 32.8494 23.1117 33.0941 23.1525C33.113 23.2403 33.0894 23.3527 33.0821 23.4425L32.9782 28.7476C32.9678 28.899 32.9434 29.0472 32.9411 29.1995L32.9294 32.0306C32.9254 32.2353 32.87 32.4262 32.8606 32.627L32.8482 34.6289C32.8412 36.0426 32.6341 36.9779 34.1525 37.7503L34.1318 37.8113C33.8163 38.7042 33.2521 39.4182 32.2394 39.4335L11.6757 39.437C10.7043 39.4406 9.68334 39.1349 9.64608 37.9431L9.63936 13.1567C9.63952 12.8205 9.6071 12.4421 9.69694 12.1172C10.1108 10.6199 11.0341 9.97174 12.5895 9.91518ZM21.2087 12.7153L19.9322 12.7163C19.6332 12.7172 19.317 12.6943 19.0251 12.7665C17.4341 13.1599 17.375 15.5124 19.007 15.8843C19.2757 15.9455 19.6338 15.9158 19.9104 15.9171L21.0578 15.9183L22.4351 15.9182C22.6519 15.9178 22.9084 15.9424 23.1201 15.9042C24.7325 15.6135 24.9198 13.1545 23.2216 12.7566C22.9612 12.6956 22.6752 12.7167 22.409 12.716L21.2087 12.7153Z" fill="#324EF1"/>
  <path d="M13.0057 19.3922C13.1884 19.4049 13.3781 19.4202 13.555 19.4204L29.2451 19.4271L29.3008 19.8072C29.465 20.5338 29.9017 21.2243 30.3962 21.7689C30.52 21.9053 30.7736 22.083 30.852 22.2195L30.8609 35.6516C30.8608 35.7471 30.8763 35.8738 30.8414 35.9624L13.0152 35.958C12.985 35.7805 13.0008 35.5812 13 35.401L13.0057 19.3922ZM21.2199 20.8842C17.7909 21.1341 14.554 23.6846 13.9759 27.158C13.7643 28.4296 14.0039 28.2471 15.0868 28.2479L21.1861 28.2485L21.1919 32.44C21.1918 32.6452 21.2363 33.851 21.1514 33.9594C20.8843 33.8887 20.3965 33.7503 20.1633 33.6682C18.5254 33.091 17.3987 31.9758 16.7049 30.4157L16.4681 29.8296C16.2888 29.3857 15.8264 29.4331 15.6743 29.6996C15.446 30.0999 16.4951 31.8678 16.7284 32.1811C17.4706 33.178 18.5201 33.8794 19.6592 34.3474L20.545 34.6372C20.5519 34.8042 20.5481 34.911 20.6181 35.0787C20.9943 35.0892 21.3559 35.0944 21.7251 35.0084C21.9427 34.9271 22.0916 34.7708 22.2965 34.6861L23.4912 34.2503C25.2836 33.5161 27.0259 32.0323 27.3293 30.0234C27.4254 29.3878 26.8406 29.1867 26.6347 29.7222C26.5264 30.0042 26.4581 30.2973 26.3394 30.5767C25.6493 32.2016 24.199 33.3474 22.4893 33.722C22.3338 33.7561 22.133 33.7653 21.9891 33.8257L21.9738 28.2351L28.123 28.2488C28.565 28.2485 29.4697 28.4255 29.3299 27.6843L29.3229 27.646C28.6494 24.0845 25.959 21.2141 22.2736 20.8924C21.9254 20.8621 21.5694 20.8754 21.2199 20.8842ZM27.7102 34.1392C27.3703 34.2456 27.437 34.7639 27.7294 34.8993C28.0346 35.0407 28.9879 34.9706 29.3113 34.9055C29.6278 34.8024 29.5524 34.5165 29.5144 34.1931C28.9591 34.0747 28.2784 34.0965 27.7102 34.1392ZM29.0332 31.1645C28.3948 31.4072 28.4006 32.9385 28.9923 32.617C29.4563 32.3035 29.7716 31.1382 29.0801 31.1559L29.0332 31.1645Z" fill="#324EF1"/>
  <path d="M21.4996 24.2118C23.6394 24.2496 25.1491 25.4284 25.8677 27.3907L21.8082 27.395L17.3174 27.3939C17.4029 27.2532 17.4137 27.0599 17.4846 26.9043C18.1879 25.3625 19.7802 24.204 21.4996 24.2118Z" fill="#324EF1"/>
  <path d="M21.0581 21.7383C21.2276 21.7063 21.4254 21.723 21.5977 21.7218C24.2328 21.7029 26.7936 23.3066 27.8691 25.7285C28.1117 26.2747 28.2677 26.8333 28.4129 27.4111L26.7329 27.3932C26.6812 27.3391 26.6705 27.2245 26.6471 27.1501C26.0406 25.2229 24.2457 23.639 22.2203 23.4182C19.8392 23.0582 17.2982 24.8178 16.5507 27.0389C16.5108 27.1574 16.4945 27.2779 16.4404 27.3919L14.7842 27.3901C15.4105 24.1601 17.8024 22.1016 21.0581 21.7383Z" fill="#324EF1"/>
</svg>
