<svg xmlns="http://www.w3.org/2000/svg" width="50" height="50" viewBox="0 0 50 50" fill="none">
  <path d="M14.2278 6.60195L31.6115 6.58789C32.593 6.58715 32.6855 6.46885 33.4135 7.15002L37.0048 10.3815C37.4176 10.7674 37.8578 11.1265 38.2512 11.5328C38.8907 12.1934 38.7651 12.421 38.7664 13.2872L38.7704 39.1119C38.7705 39.7869 38.8098 40.4887 38.7641 41.1603C38.6901 42.2471 37.6316 43.1664 36.6069 43.3346C36.5601 43.3303 36.4743 43.3482 36.4216 43.3498L15.0619 43.3511C14.7771 43.3509 14.4321 43.3772 14.1602 43.29C11.8612 42.5533 12.206 40.7549 12.2056 38.8826L12.2023 9.80863C12.2009 9.4087 12.1583 8.95003 12.2193 8.55574L12.225 8.52066C12.3691 7.54513 13.2469 6.69763 14.2278 6.60195Z" fill="#324EF1"/>
  <path d="M14.4089 8.11469L31.7858 8.11328L31.7853 11.758C31.7867 12.75 32.2682 13.3741 33.3407 13.3758L37.3167 13.3791C37.3555 13.593 37.3266 13.8594 37.3265 14.0808L37.324 40.4351C37.3238 40.6442 37.3352 40.8733 37.2925 41.0781L37.2845 41.1132C37.2179 41.4235 36.8775 41.6982 36.6013 41.8187L36.5767 41.8259C36.2924 41.9002 35.969 41.8745 35.6761 41.8751L14.8457 41.8724C13.7646 41.8341 13.7122 41.1506 13.7086 40.3535L13.7012 9.6768C13.7004 9.03117 13.5087 8.23 14.4089 8.11469Z" fill="#E2E4EC"/>
  <path d="M24.2323 19.7872L25.8974 19.7948C26.8678 19.7961 27.3097 19.6112 26.6785 20.7013L25.8454 22.0222L25.3754 22.7079C25.0105 22.2322 23.747 20.5945 23.7258 20.036C23.7157 19.7676 24.0524 19.7946 24.2323 19.7872Z" fill="#324EF1"/>
  <path d="M16.951 36.0462L33.6943 36.0449C33.9097 36.0448 34.1316 36.0331 34.3459 36.051C35.4816 36.1457 35.4551 37.8452 34.2815 37.9876L16.7807 37.9896C15.7295 37.9136 15.5761 36.134 16.951 36.0462Z" fill="#324EF1"/>
  <path d="M18.718 31.3359L33.8761 31.332C34.0385 31.3314 34.2174 31.3164 34.3774 31.3395C35.4476 31.494 35.4285 33.0614 34.4343 33.2993C34.2359 33.3468 34.0025 33.3255 33.7989 33.3263L32.5761 33.3279L16.8687 33.3256C16.7923 33.3223 16.7115 33.3136 16.64 33.2849L16.612 33.273C15.7916 32.9317 15.7487 31.5696 16.6895 31.3618C16.9051 31.3141 17.1626 31.3386 17.3843 31.3379L18.718 31.3359Z" fill="#324EF1"/>
  <path d="M25.0421 11.119C26.3135 11.0419 27.6176 11.6819 28.2248 12.8259C28.6739 13.6722 28.7594 15.2286 28.5178 16.083C28.0935 17.5837 27.0571 18.803 25.4049 18.9026C23.99 18.9267 22.8203 18.0806 22.1897 16.8299C21.7737 16.005 21.6565 14.5184 21.8937 13.6971C22.3561 12.0963 23.305 11.219 25.0421 11.119Z" fill="#324EF1"/>
  <path d="M21.5833 19.8335L21.8794 19.8198C22.7872 19.8179 23.1207 20.7543 23.5692 21.4691L24.6275 23.1762C24.8502 23.5467 25.0099 23.935 25.3202 24.2428C25.5886 24.003 25.7714 23.6844 25.9567 23.3795L27.9286 20.1295C28.2031 19.6957 28.8092 19.8111 29.2701 19.9006C31.8772 20.4072 33.677 22.8841 33.8342 25.452C33.8667 25.9819 33.84 26.5291 33.8407 27.0609L33.853 27.7559C33.8634 28.2246 33.7745 28.4919 33.348 28.7623C33.1245 28.8574 32.9452 28.8509 32.7041 28.8512L17.7253 28.8449C16.8996 28.8084 16.8153 28.2859 16.8153 27.6421L16.8169 26.7502C16.8181 26.2779 16.7993 25.799 16.8314 25.3277C17.0063 22.76 18.9328 20.1947 21.5833 19.8335Z" fill="#324EF1"/>
  <path d="M29.0204 24.7161L30.4382 24.7091C30.6024 24.709 30.9086 24.6695 31.0455 24.7679C31.4474 25.0573 31.1813 25.5766 30.7174 25.6355L29.5886 25.6366C29.2819 25.6362 28.7994 25.6984 28.5362 25.5399C28.1891 25.0709 28.5642 24.7638 29.0204 24.7161Z" fill="#E2E4EC"/>
</svg>
