<svg width="21" height="20" viewBox="0 0 21 20" fill="none" xmlns="http://www.w3.org/2000/svg">
<g clip-path="url(#clip0_164_103)">
<path d="M3 5.83341C3 5.39139 3.17559 4.96746 3.48816 4.6549C3.80072 4.34234 4.22464 4.16675 4.66667 4.16675H16.3333C16.7754 4.16675 17.1993 4.34234 17.5118 4.6549C17.8244 4.96746 18 5.39139 18 5.83341V14.1667C18 14.6088 17.8244 15.0327 17.5118 15.3453C17.1993 15.6578 16.7754 15.8334 16.3333 15.8334H4.66667C4.22464 15.8334 3.80072 15.6578 3.48816 15.3453C3.17559 15.0327 3 14.6088 3 14.1667V5.83341Z" stroke="white" stroke-width="1.5" stroke-linecap="round" stroke-linejoin="round"/>
<path d="M3 5.83325L10.5 10.8333L18 5.83325" stroke="white" stroke-width="1.5" stroke-linecap="round" stroke-linejoin="round"/>
</g>
<defs>
<clipPath id="clip0_164_103">
<rect width="20" height="20" fill="white" transform="translate(0.5)"/>
</clipPath>
</defs>
</svg>
