<svg xmlns="http://www.w3.org/2000/svg" width="50" height="50" viewBox="0 0 50 50" fill="none">
  <path d="M24.746 4.33164L24.7569 4.33186C28.8246 4.13706 32.849 7.46863 33.2029 11.5327C33.0651 11.5588 32.3658 11.2031 32.1778 11.1209L29.9974 10.2066C28.5407 9.66345 26.9936 9.22649 25.4397 9.10743C22.9715 9.02438 20.6079 9.88985 18.3561 10.8103L16.8394 11.4544C16.8608 11.0359 16.9734 10.612 17.0994 10.2141C18.1948 6.75262 21.174 4.51723 24.746 4.33164Z" fill="#324EF1"/>
  <path d="M17.3728 26.1823C17.4211 26.1792 17.4272 26.1794 17.4687 26.1969L20.2475 32.3187C21.097 34.2047 21.5866 35.4651 22.1308 37.4483L23.0506 40.9407C23.0818 41.0751 23.0899 41.2211 23.1359 41.3509L17.1191 41.3946L13.9472 41.394C13.5061 41.3937 11.8313 41.4984 11.5229 41.3283L11.4344 41.277C11.1512 41.0711 11.2823 40.1901 11.282 39.8677L11.2795 33.6182C11.2784 32.7921 11.2072 31.9 11.3612 31.0877C11.966 27.8969 14.4308 26.5223 17.3728 26.1823Z" fill="#324EF1"/>
  <path d="M32.5026 26.1694C35.0688 26.2438 37.5953 27.7216 38.4557 30.2177C38.8422 31.3388 38.7577 32.4511 38.7579 33.6185L38.7558 39.799C38.755 41.0429 39.0964 41.3955 37.7374 41.3955L33.2034 41.3945L26.8379 41.393C27.0035 40.3851 27.3089 39.387 27.5849 38.4033C27.9733 37.0192 28.346 35.6076 28.8526 34.2616L31.8898 27.488C32.0888 27.0466 32.2638 26.5909 32.5026 26.1694ZM31.3134 34.5314C30.4966 34.6176 30.4948 35.5943 31.1611 35.6662C31.373 35.689 31.6044 35.6706 31.8183 35.6701L34.2923 35.6641C34.4777 35.6638 34.6822 35.6803 34.865 35.6543C35.7337 35.6123 35.7565 34.7697 35.1932 34.5702L35.1691 34.561C35.0155 34.5062 34.8029 34.5245 34.6404 34.5241L31.3134 34.5314Z" fill="#324EF1"/>
  <path d="M21.9521 22.9506L21.9489 22.9016C19.4877 21.0657 19.0475 19.7126 19.0437 16.8625L19.0325 13.7284C18.7497 13.7058 18.4632 13.725 18.1797 13.7279L16.8534 13.7323C16.6063 13.7325 16.2443 13.7828 16.0214 13.6841C15.2644 13.3491 15.1861 12.3421 16.0243 12.017C18.1172 11.2053 21.5805 10.4531 23.8737 10.2952C26.3175 10.127 29.121 10.6354 31.4872 11.2817L33.0558 11.7251C33.6985 11.9038 35.0349 12.2224 34.5177 13.2431C34.1965 13.8771 33.4168 13.7293 32.8343 13.7299L30.9751 13.7299L30.9669 16.6131C30.9656 18.816 30.8983 20.3457 29.1348 22.0494C28.8341 22.3399 28.502 22.5521 28.1787 22.8088C26.6851 23.9953 24.1909 23.951 22.5158 23.1709C22.3671 23.1016 22.1405 22.9046 21.9961 23.0239C22.2412 23.5915 23.4176 24.5605 23.8968 25.0667L24.688 25.9246C24.7896 26.0405 24.8801 26.1945 24.9945 26.2946C25.2682 25.8733 25.6481 25.533 25.9956 25.1728L27.0506 24.0928C27.417 23.7474 27.8527 23.4745 28.03 22.9862C28.4328 23.2964 28.7727 23.7521 29.1329 24.1145L31.0601 25.9931C30.4069 27.0834 29.6312 28.1152 28.894 29.1499L28.4722 29.743C27.8151 30.661 27.3181 29.6211 26.939 29.0877C26.663 28.6992 26.3715 28.3178 26.1203 27.9128C26.0521 28.4399 25.84 28.9608 25.8071 29.4862C25.7484 30.4238 25.9219 31.3968 26.0476 32.3242L26.6094 36.4298C26.6682 36.7756 26.8022 37.0599 26.6662 37.3981L25.389 40.4824C25.3247 40.6613 25.157 41.0253 24.8951 40.8333C24.6959 40.6872 23.3322 37.5586 23.3252 37.2437C23.3204 37.0245 23.3746 36.7892 23.4076 36.5729L24.0208 31.9541C24.1018 31.3044 24.2279 30.6155 24.2269 29.962C24.2258 29.2429 23.9783 28.5854 23.8955 27.8792L22.9983 29.1717C22.3273 30.1119 22.148 30.5949 21.2811 29.3782L19.6163 26.9998C19.3721 26.6467 19.1088 26.293 18.9008 25.9173C19.1391 25.6244 19.455 25.3688 19.7226 25.1003L21.1222 23.7094C21.38 23.4565 21.6477 23.1451 21.9521 22.9506ZM20.0983 13.7203L20.0995 17.7116C20.1056 22.0965 25.3025 24.4244 28.455 21.2391C29.9861 19.7011 29.9402 18.5005 29.9411 16.5436L29.9416 13.7387L20.0983 13.7203Z" fill="#324EF1"/>
</svg>
