<svg xmlns="http://www.w3.org/2000/svg" width="50" height="50" viewBox="0 0 50 50" fill="none">
  <path d="M25.0461 4.47998L25.0687 4.48343C25.1294 4.53102 25.1531 4.62932 25.1821 4.70151L25.7032 5.87684C26.0243 6.50245 27.0992 6.34143 27.6841 6.5738C27.573 6.74162 27.3908 6.86704 27.2413 6.99925C26.5298 7.62824 26.3213 7.7533 26.4638 8.75242L26.5473 9.28953C26.6074 9.69086 26.4495 9.51437 26.1869 9.36187L25.4823 8.95742C25.3372 8.88304 25.1855 8.83273 25.0306 8.78304C24.4718 8.92218 24.0396 9.3675 23.4845 9.53023C23.4721 9.06984 23.7155 8.19289 23.6374 7.8339C23.59 7.61565 22.6328 6.96701 22.3867 6.55524C23.1813 6.29603 23.9196 6.50304 24.3366 5.76309L24.7199 5.02579C24.8132 4.83842 24.8963 4.62987 25.0461 4.47998Z" fill="#324EF1"/>
  <path d="M20.1926 41.9008L28.7759 41.8925C29.1179 41.8921 29.4864 41.8618 29.825 41.8967C30.6827 41.985 30.7287 43.3996 29.8617 43.5511L21.1736 43.553C20.8037 43.553 20.4251 43.5707 20.0563 43.5483C19.4078 43.5089 19.2218 42.0971 20.1926 41.9008Z" fill="#324EF1"/>
  <path d="M26.7026 34.059L26.9856 34.0394C27.0196 34.2579 26.9992 34.5061 27 34.7286L26.9966 40.7204L23.4313 40.7179L23.0517 40.6972L23.0376 34.0636L26.7026 34.059Z" fill="#324EF1"/>
  <path d="M24.989 9.63147C25.4382 9.87444 25.7929 10.3464 26.1082 10.7326L30.0259 15.7318C30.167 15.9145 30.3312 16.0882 30.4587 16.2801C31.0254 17.1327 30.149 17.3177 29.4573 17.3199L25.0655 17.3215L20.2286 17.3219C19.6794 17.3131 19.1816 16.9083 19.5471 16.3402C19.6991 16.1039 19.8884 15.8826 20.0627 15.6619L24.1235 10.4827C24.3905 10.1751 24.6723 9.88819 24.989 9.63147Z" fill="#324EF1"/>
  <path d="M26.1366 18.4976C26.5246 18.4941 29.2262 18.4533 29.3997 18.5213C29.4384 18.5365 29.5663 18.7746 29.6014 18.8239L32.71 23.0601C33.0312 23.4969 33.5293 24.2011 32.7916 24.5335L32.7575 24.5483C32.4262 24.7 31.8911 24.6086 31.5339 24.6087L23.938 24.6083L18.1868 24.6081C17.8231 24.6079 17.4776 24.6723 17.1632 24.46C16.5544 24.049 17.1181 23.3784 17.4101 22.9736L20.333 18.9503C20.4239 18.8203 20.4904 18.6772 20.5805 18.548C20.8796 18.4935 21.1732 18.4996 21.4756 18.4993L26.1366 18.4976Z" fill="#324EF1"/>
  <path d="M18.4606 25.8138L31.3881 25.8105C31.9268 25.8191 31.7832 25.8645 32.0879 26.2925L35.3941 30.9499C35.5418 31.1493 35.702 31.3457 35.8334 31.556C36.3958 32.4563 35.7322 32.8723 34.899 32.8731L31.6245 32.8725L16.5386 32.8738C15.9465 32.874 15.3329 32.9088 14.7437 32.872C14.0805 32.8305 13.8192 32.1642 14.1281 31.6329C14.2091 31.4938 14.3233 31.3702 14.4231 31.2444L17.8038 26.4761C18.0217 26.1641 18.0546 25.8593 18.4606 25.8138Z" fill="#324EF1"/>
</svg>
