<svg xmlns="http://www.w3.org/2000/svg" width="50" height="50" viewBox="0 0 50 50" fill="none">
  <path d="M8.66856 23.2985C9.23036 23.3253 11.7395 23.6422 12.0411 24.1941C12.2625 24.5989 11.9968 25.0216 11.6275 25.2047L11.5357 25.2236C11.0497 25.3265 8.91927 24.6267 8.52169 24.4013C8.03513 24.1255 8.1456 23.4331 8.66856 23.2985Z" fill="#324EF1"/>
  <path d="M40.0892 34.5767C42.2538 34.3555 42.936 37.3618 40.6552 37.8859C38.5358 38.2374 37.8268 34.984 40.0892 34.5767Z" fill="#324EF1"/>
  <path d="M30.792 33.9195L30.8027 33.9176C33.6782 33.7227 34.1123 37.7447 31.3275 38.2042C28.4223 38.5409 27.788 34.2432 30.792 33.9195Z" fill="#324EF1"/>
  <path d="M17.03 14.6824C17.4671 14.6061 17.8738 14.7831 18.294 14.8546C17.3455 14.8738 16.4199 15.3843 15.8975 16.1841C15.6478 16.5665 15.5548 17.0295 15.4293 17.4617L14.0842 22.1765C13.9262 22.6758 13.7862 22.8967 13.227 23.0188L13.1834 23.028C13.0257 23.0618 12.9061 23.0621 12.746 23.0415C11.1548 22.6959 11.5158 21.4244 11.7892 20.314L12.551 17.4583C12.9349 15.9892 13.399 15.7206 14.72 15.271C15.4959 15.007 16.2079 14.7573 17.03 14.6824Z" fill="#324EF1"/>
  <path d="M21.0209 9.72688C24.3945 9.25227 25.4751 14.7989 21.5136 15.4529C21.1472 15.4702 20.7701 15.4811 20.4147 15.3798C17.4949 14.5474 17.8297 10.0126 21.0209 9.72688Z" fill="#324EF1"/>
  <path d="M18.2893 15.6582C18.5156 15.6282 18.7681 15.6489 18.9942 15.6735C20.8989 15.8808 21.7864 16.554 22.7573 18.085L23.374 19.0465C23.7058 19.5655 24.0841 20.0741 24.3687 20.619L28.2323 20.629C29.2604 20.6315 29.5251 21.0846 30.1099 21.8815L32.7117 25.454C32.9134 25.7313 33.1262 26.0393 33.3365 26.3061L40.6191 26.3232C41.1295 26.3612 40.9972 26.9751 40.9552 27.299L40.2804 32.0894C40.1895 32.6809 40.0433 33.2712 39.9836 33.8664C38.8366 34.0615 38.1367 34.7966 37.8769 35.9423C37.4917 36.0043 37.0568 35.9695 36.6667 35.9697L34.1193 35.9822C34.0552 35.8716 34.0603 35.6729 34.0288 35.5425C33.7051 34.2065 32.5926 33.1649 31.1921 33.0884C30.92 33.0735 30.6463 33.0977 30.3734 33.0952C30.2982 32.6915 30.284 32.2698 30.2483 31.8609L29.6788 26.7719C29.6732 26.709 29.6673 26.6558 29.6994 26.5983L29.7138 26.5747C29.94 26.1803 30.2916 26.303 30.6774 26.3122L31.682 26.3137C31.5034 26.1064 31.3477 25.8717 31.1791 25.6537L29.7816 23.8351C28.557 22.2741 29.2677 23.1783 28.1681 23.5365L28.1359 23.5465C27.7625 23.669 27.3244 23.6103 26.9374 23.6107L24.1033 23.6098C22.48 23.6069 22.4502 23.0802 21.5417 21.8447L21.0597 21.2222C20.907 21.436 20.7952 21.7467 20.6753 21.9863L19.8375 23.7822L23.2436 26.731C23.5007 26.9629 23.7685 27.1987 23.9601 27.4901L23.9851 27.5289C24.3465 28.0835 24.3908 28.6825 24.4482 29.3212L24.8739 34.2885C24.8998 34.7001 24.9646 35.1459 24.9091 35.5559L24.9034 35.5958C24.6854 37.2167 22.1127 37.3237 21.6832 35.683C21.5906 35.3292 21.6003 34.9332 21.5815 34.5691L21.1403 29.2793C21.0361 29.1244 20.8741 29.0387 20.7336 28.9153L17.7256 26.3205C17.6423 26.8636 17.6581 27.437 17.6352 27.9858L17.5441 29.1812C17.488 30.1355 17.4724 30.5468 16.9416 31.3583L14.2172 35.2461C13.865 35.7495 13.4913 36.4183 12.8336 36.5486L12.6616 36.5805C11.3764 36.7706 10.352 35.4858 10.8302 34.3081C10.9929 33.9072 11.3236 33.5669 11.5708 33.2145L14.0259 29.734C14.1531 29.5483 14.1684 29.5095 14.1769 29.2835L14.4416 25.5323C14.472 25.2159 14.4991 24.8945 14.5531 24.5815L14.884 22.8214L15.6705 19.7107C16.1002 18.0456 16.21 15.8999 18.2893 15.6582Z" fill="#324EF1"/>
</svg>
