<svg xmlns="http://www.w3.org/2000/svg" width="50" height="50" viewBox="0 0 50 50" fill="none">
  <path d="M38.6344 29.7476L39.0266 29.7416C38.9305 29.9399 38.78 30.1286 38.6558 30.3117L33.4176 37.6408C32.7767 38.5447 33.1959 38.3622 31.9561 38.3847L31.5874 38.3375L37.1716 30.6602C37.4049 30.352 37.6595 29.8091 38.0809 29.7735L38.6344 29.7476Z" fill="#324EF1"/>
  <path d="M42.3563 29.7459L43.101 29.7378C42.6481 30.5802 42.106 31.3592 41.5524 32.1367L37.6714 37.5357C37.0344 38.407 37.403 38.3379 36.3465 38.3838C36.3056 38.3736 36.2299 38.3829 36.186 38.3825L35.7433 38.3779C35.7088 38.3776 35.6503 38.3865 35.6216 38.367C35.7515 38.2738 35.8275 38.0694 35.9363 37.9387L41.6924 30.1178C41.9087 29.837 42.0098 29.7909 42.3563 29.7459Z" fill="#324EF1"/>
  <path d="M12.9542 6.43029L15.6852 6.42593C16.3979 6.42675 17.1597 6.36739 17.8586 6.51908C19.684 6.91521 20.8359 8.32417 20.9189 10.1557L21.2771 10.1771C22.1879 10.2486 22.9753 10.6209 23.5693 11.3299C23.851 11.6661 24.5011 13.0858 24.1091 13.4083C23.763 13.451 23.3863 13.4232 23.036 13.4233L15.2391 13.4171C15.0593 13.4122 14.8972 13.4453 14.8725 13.2324C14.7957 12.5718 15.0897 11.7475 15.5089 11.2427C16.2552 10.3438 17.2556 10.1592 18.3526 10.0536C17.9589 9.49276 17.7184 9.15472 16.9677 9.14339L13.4214 9.13878C12.0673 9.13995 11.5878 9.64612 11.5881 10.917L11.5919 14.9292L11.5949 29.4334C11.5949 29.7583 11.6929 30.6483 11.5364 30.9077L11.5206 30.9327C11.4463 31.0531 11.3544 31.1312 11.2268 31.1929L11.194 31.2082C10.977 31.3128 10.6547 31.2715 10.417 31.2718C9.86254 31.2725 8.92387 31.3717 8.88067 30.5703L8.87192 11.0035C8.87208 10.6899 8.85395 10.3593 8.89145 10.0481L8.89637 10.0098C9.14301 7.95901 10.9677 6.57161 12.9542 6.43029Z" fill="#324EF1"/>
  <path d="M13.2258 24.912L44.7952 24.9344C45.6947 24.9685 45.4281 26.5146 45.4281 27.0861L45.4273 27.8587C45.426 28.4858 45.2971 28.8314 44.6109 28.8572L13.1595 28.8617C13.0786 28.8582 13.0105 28.8493 12.9408 28.8065L12.915 28.7903C12.2727 28.4066 12.4453 27.5237 12.4457 26.8944L12.4477 26.0293C12.4484 25.8634 12.4323 25.6594 12.49 25.5017L12.4998 25.476C12.6317 25.1023 12.8366 24.9522 13.2258 24.912Z" fill="#324EF1"/>
  <path d="M25.1104 29.748L35.0543 29.7462C34.7563 30.0709 34.5075 30.488 34.2538 30.8504L29.8758 37.01C29.5951 37.3926 29.3287 37.8595 28.9908 38.1904C28.7016 38.4737 28.3419 38.3849 27.9653 38.385L21.5907 38.3861L13.0973 38.3867C12.8345 38.3887 12.5251 38.429 12.268 38.3805C11.9941 38.3288 11.6838 37.9814 11.7556 37.6874L11.7633 37.6587C11.8686 37.2501 12.0949 36.8321 12.2626 36.4439L15.2554 29.7911C15.3854 29.7425 15.5314 29.7515 15.6683 29.7508L25.1104 29.748Z" fill="#324EF1"/>
</svg>
