<svg xmlns="http://www.w3.org/2000/svg" width="50" height="50" viewBox="0 0 50 50" fill="none">
  <path d="M30.3562 15.6102C31.7964 15.5149 33.229 16.7056 33.4597 18.1154C33.4009 18.141 33.3286 18.1289 33.265 18.1283L30.6224 18.1267L27.396 18.1254C27.429 17.9736 27.4398 17.8156 27.4818 17.6662C27.8277 16.4329 29.1511 15.6971 30.3562 15.6102Z" fill="#324EF1"/>
  <path d="M23.6069 33.3825C26.2986 32.8756 28.4831 36.2581 26.7048 38.717C26.1323 39.5087 25.2997 39.9583 24.3461 40.1098C24.0463 40.1252 23.7112 40.1338 23.4143 40.0905C19.8017 39.5634 19.3932 34.0042 23.6069 33.3825Z" fill="#324EF1"/>
  <path d="M37.7597 33.3346L37.7701 33.3318C39.5084 33.1718 41.2401 34.4156 41.4361 36.1974L41.447 36.2957C41.6659 38.2564 40.2404 39.9078 38.3124 40.1073C33.6321 40.3097 33.2815 33.7364 37.7597 33.3346Z" fill="#324EF1"/>
  <path d="M21.7852 24.8608L24.1798 24.8693C24.5518 24.8724 24.7229 25.0495 25.0263 25.2501L35.7423 32.3385C34.2077 33.1161 33.3287 34.3978 33.084 36.1275C33.0466 36.7436 33.0121 37.3378 33.1741 37.9396L28.847 37.9308L28.9056 37.1679C29.0683 33.5437 25.4799 30.6769 22.118 32.2399C22.0321 32.2798 21.9228 32.3012 21.8561 32.3694L21.7852 24.8608Z" fill="#324EF1"/>
  <path d="M12.5185 10.3726C13.0107 10.3688 13.5269 10.3425 14.0169 10.3812C16.9592 10.614 19.063 13.098 19.0694 15.9922L19.0818 37.9465C18.6012 37.9171 18.1087 37.938 17.6268 37.9373C16.5676 37.9359 16.1928 37.6401 16.1915 36.6089L16.1921 33.0261L16.1907 16.3169C16.19 16.0372 16.1926 15.7574 16.1676 15.4785C16.0748 14.4424 15.176 13.5177 14.1905 13.2805C13.9623 13.2255 13.6767 13.2493 13.4406 13.2491L6.28505 13.2483C6.09619 13.2473 5.86496 13.2608 5.68241 13.2094C4.91591 12.9933 4.51574 12.0766 4.7851 11.3497C5.14987 10.3653 5.93913 10.3763 6.79237 10.3745L12.5185 10.3726Z" fill="#324EF1"/>
  <path d="M21.1565 19.7125L39.3507 19.7108C40.3781 19.7148 39.6859 20.0378 39.4017 20.5828C39.2366 20.8993 39.2096 21.3389 39.1672 21.6876L38.1508 30.2919C38.0825 30.7689 38.0644 31.3177 37.9121 31.7714C37.4401 31.6403 37.0145 31.3511 36.6053 31.0886L25.3414 23.5386C25.1155 23.3648 25.0092 23.3711 24.7203 23.3689L21.8292 23.3729C21.7896 23.2502 21.812 23.0696 21.8073 22.937L21.7733 22.2136C21.7665 21.7981 21.813 21.271 21.6682 20.88C21.5477 20.555 20.7332 19.9691 20.9117 19.7293L21.1565 19.7125Z" fill="#324EF1"/>
</svg>
