<svg xmlns="http://www.w3.org/2000/svg" width="50" height="50" viewBox="0 0 50 50" fill="none">
  <path d="M17.2676 40.24L42.3118 40.2431C42.845 40.2616 42.6465 40.9374 42.6541 41.3996C42.676 42.7406 42.6282 42.6061 41.4513 42.6062L32.7759 42.606L7.79441 42.6032C7.0773 42.5798 7.43349 40.3548 7.47535 40.2921C7.81658 40.185 8.30384 40.2427 8.66416 40.2425L17.2676 40.24Z" fill="#324EF1"/>
  <path d="M17.0648 7.93315C17.4658 7.91096 17.8804 7.93198 18.2825 7.9319L40.0955 7.93659C40.8392 7.97487 41.3634 8.52565 41.6164 9.19182L41.6315 9.22995C41.6834 9.37557 41.6772 9.55487 41.6776 9.70784L41.6785 10.4335C41.6782 11.333 41.7442 12.716 40.6231 13.0826C40.558 13.1039 40.5084 13.1239 40.4493 13.1587L40.4372 39.4563C40.3105 39.5021 40.0697 39.4707 39.9318 39.4705L33.02 39.4715L9.61075 39.4652C9.53871 39.3185 9.57481 15.7721 9.58512 13.1486C9.54379 13.1199 9.50786 13.0963 9.46059 13.0783C8.74754 12.8072 8.39473 12.0412 8.38465 11.3159L8.37965 10.2839C8.37668 8.58807 8.84473 7.93565 10.584 7.93339L17.0648 7.93315Z" fill="#324EF1"/>
  <path d="M25.7925 13.0403L37.7572 13.0579C37.779 13.2454 37.7635 13.4502 37.7637 13.6393L37.7675 35.8688C37.7674 36.0515 37.8001 36.3165 37.7334 36.4848L37.7224 36.5112C37.6669 36.6483 37.6018 36.7478 37.5124 36.864C37.0799 37.254 36.4234 37.1063 35.8831 37.1068L25.8002 37.1045C25.7649 37.0164 25.7872 36.8677 25.7876 36.7701L25.7925 13.0403Z" fill="#E2E4EC"/>
  <path d="M29.0681 20.5117C29.9189 20.47 30.1832 21.648 29.3103 21.8735C28.4107 21.9167 28.1955 20.7052 29.0681 20.5117Z" fill="#324EF1"/>
  <path d="M31.5397 30.3518C32.4357 30.304 32.5382 31.5161 31.7032 31.7176C30.7018 31.7179 30.6461 30.5271 31.5397 30.3518Z" fill="#324EF1"/>
  <path d="M34.7949 26.0816C36.2866 26.0593 36.4499 28.1329 34.9993 28.3918C33.4275 28.4344 33.2818 26.3039 34.7949 26.0816Z" fill="#324EF1"/>
  <path d="M34.4381 14.9011C35.9798 14.7417 36.2572 16.9306 34.8094 17.2495C33.1634 17.3443 32.9848 15.2067 34.4381 14.9011Z" fill="#324EF1"/>
  <path d="M27.6095 24.9824C28.5437 24.9008 29.475 25.6621 29.2132 26.6685L29.2021 26.709C29.0629 27.2319 28.6604 27.5762 28.1438 27.7242C26.176 27.9592 25.9339 25.3481 27.6095 24.9824Z" fill="#324EF1"/>
  <path d="M18.9091 13.0539C19.0749 13.0367 19.2643 13.0538 19.4325 13.0538L24.2527 13.0544L24.2435 37.1121L17.7125 37.1076L13.0872 37.1203C12.1591 37.1292 12.2572 36.3462 12.2567 35.7088L12.2507 13.055L18.9091 13.0539Z" fill="#E2E4EC"/>
  <path d="M21.7818 27.2998C22.679 27.2052 23.0303 28.28 22.1719 28.6436C21.2916 28.8173 20.9076 27.6527 21.7818 27.2998Z" fill="#324EF1"/>
  <path d="M15.2077 14.8716C16.7498 14.718 17.1226 16.8363 15.6352 17.2318C14.0372 17.4486 13.7123 15.2376 15.2077 14.8716Z" fill="#324EF1"/>
  <path d="M15.307 30.1329C17.0599 29.9711 17.3526 32.314 15.7389 32.7036C13.9101 32.817 13.7171 30.449 15.307 30.1329Z" fill="#324EF1"/>
  <path d="M20.3076 19.5128C22.8133 19.2439 23.3444 23.0426 20.7366 23.4298C18.2997 23.6404 17.6586 20.0737 20.3076 19.5128Z" fill="#324EF1"/>
</svg>
