<svg xmlns="http://www.w3.org/2000/svg" width="70" height="70" viewBox="0 0 70 70" fill="none">
  <path d="M34.4758 6.88312C37.9179 6.38099 41.1552 10.111 40.114 13.3501L39.5443 14.7884C40.2362 15.0044 40.9342 15.1564 41.6203 15.4018C43.3138 16.0074 44.8259 16.8648 46.39 17.7329C46.9782 14.0667 51.315 12.1073 54.422 14.3544C58.0741 16.9957 56.8985 22.8403 52.2489 23.5315C53.201 25.0197 53.9599 26.6138 54.5593 28.2748L55.2547 30.3487C56.4307 29.8741 57.6718 29.6452 58.9302 29.9285C62.1618 30.6559 64.0191 34.2057 62.5991 37.2429C61.5534 39.4794 59.0094 40.847 56.5757 40.2471C56.073 40.1232 55.6175 39.9105 55.1527 39.6886C54.9837 40.6837 53.9437 43.1623 53.4974 44.0112L52.1738 46.3172C52.2333 46.3851 52.4844 46.4343 52.5775 46.4651L53.5802 46.8395C56.4893 48.0815 57.4145 51.8204 55.6315 54.3638C52.8443 58.3398 47.1189 56.8963 46.3036 52.0047C44.2974 53.2558 41.902 54.2918 39.5779 54.7414C41.2336 58.2513 39.687 62.2689 35.6917 62.8496C31.2686 63.4398 28.4272 58.702 30.4575 54.8184C28.1618 54.1756 25.8051 53.2503 23.763 51.9947C23.0868 57.6907 15.0031 58.3063 13.6718 52.6388C13.1491 50.414 14.2821 47.8007 16.4184 46.8548C16.879 46.6509 17.3784 46.5392 17.8677 46.4284C17.3756 45.3691 16.7316 44.3878 16.2317 43.3315C15.6927 42.1923 15.3179 40.9589 14.9032 39.7694C13.8834 40.2716 12.7866 40.4526 11.6553 40.3333C6.17044 39.755 5.33354 32.0494 10.4626 30.1363C11.9079 29.5972 13.4834 29.7546 14.8657 30.3865C14.9451 30.1756 14.982 29.9395 15.0401 29.7209L15.389 28.5605C15.9306 26.9422 16.8196 25.0214 17.804 23.6019L17.391 23.5349C13.7636 22.6918 12.3143 18.1685 14.6937 15.3038C17.5255 11.8944 23.2424 13.3808 23.6221 17.8829C24.9725 16.7812 27.1292 15.8567 28.7418 15.3015C29.3094 15.1061 29.9157 14.9856 30.4714 14.7674C30.5029 14.7094 30.4562 14.655 30.4309 14.596C30.1748 13.9977 29.9068 13.4 29.8297 12.7467C29.4928 9.89259 31.5888 7.1821 34.4758 6.88312ZM34.2052 16.8302C24.8138 17.2945 16.9667 25.6113 16.9803 34.9829L16.9915 36.3381C17.0121 36.7628 17.0863 37.1615 17.1527 37.579C18.3192 44.9181 24.5716 51.263 31.9243 52.3894C33.0603 52.5634 34.199 52.5665 35.3452 52.5547C35.4243 52.5539 35.8418 52.532 35.846 52.5383C41.2057 52.315 44.896 50.4422 48.453 46.5714C51.6495 43.0927 53.2664 38.6802 53.0622 33.9262C52.6509 24.3455 43.7663 16.4696 34.2864 16.8213L34.2052 16.8302Z" fill="#324EF1"/>
  <path d="M34.9727 42.9104L36.1707 42.9416C36.1583 43.9319 36.0313 43.7612 35.1157 43.7793C34.8591 43.7821 34.184 43.8573 33.9791 43.7224C33.8433 43.633 33.8415 43.0822 33.9008 42.9766C34.2516 42.908 34.6164 42.9176 34.9727 42.9104Z" fill="#324EF1"/>
  <path d="M34.3166 37.8164C34.839 37.7873 35.5696 37.7404 36.064 37.9126C36.5945 38.0974 36.3587 38.6667 35.651 38.7424C35.23 38.731 34.7583 38.747 34.3468 38.6538L33.9611 38.5569C33.5396 38.4205 33.4984 37.968 33.9875 37.8672L34.3166 37.8164Z" fill="#324EF1"/>
  <path d="M34.7706 39.243C36.1992 39.2006 35.7159 40.4073 35.9931 41.4965L36.1753 42.3726C35.8959 42.4372 35.5882 42.4182 35.3022 42.4216L33.9086 42.404C33.8407 41.8153 34.0737 41.4277 34.1664 40.8908C34.2644 40.3234 34.0887 39.463 34.7706 39.243Z" fill="#324EF1"/>
  <path d="M31.6076 37.7173L31.677 37.7136C31.8466 37.8541 32.7631 41.0604 32.8573 41.4602C33.036 42.2191 33.1053 42.9873 33.2394 43.7524L34.2946 48.8035C34.4504 49.48 34.6418 50.1516 34.7129 50.8441C34.267 50.4074 33.7735 50.0236 33.3364 49.5772C32.1553 48.3709 30.3322 45.8347 29.7706 44.16C29.6165 43.7005 30.2896 42.8518 30.4216 42.3469C30.2398 41.9799 29.8848 41.649 29.5851 41.3754C29.0622 40.8981 28.571 41.5653 28.7007 42.0408C28.781 42.335 29.1798 42.5348 29.4267 42.6822C29.1867 43.265 28.7613 43.7101 28.9813 44.3606C29.179 44.9448 29.5249 45.5244 29.8333 46.0586C30.4693 47.1879 31.2252 48.2881 32.0291 49.3041L33.2754 50.8101C32.6743 50.7826 32.0571 50.6191 31.4709 50.4851L29.9407 50.1204C28.3699 49.669 26.7546 48.9859 25.3752 48.1031C24.5931 47.6023 23.9151 46.9109 23.1207 46.4467L23.0611 46.4127C22.8843 45.6524 22.8872 44.8167 22.8886 44.0408C22.8958 40.082 25.2151 39.7449 28.4361 38.7274L31.6076 37.7173Z" fill="#324EF1"/>
  <path d="M38.2741 37.7561C38.707 37.8145 39.1286 37.9615 39.5421 38.0975L44.1774 39.5285C46.6114 40.3342 47.3125 42.1084 47.27 44.4899C47.2595 45.0749 47.2731 45.6721 47.0876 46.2322C46.4991 46.6965 45.9728 47.2146 45.3568 47.6483C42.8072 49.4434 39.8709 50.4355 36.8028 50.8156C38.0596 49.5009 39.2363 47.7726 40.1674 46.2291L41.1065 44.4325C41.5084 43.5466 40.9749 43.4755 40.673 42.6651C40.9763 42.4531 41.2549 42.2621 41.5142 41.9955C41.3733 41.6191 41.2015 41.3948 40.8817 41.1529C40.6401 41.284 40.4389 41.4822 40.2388 41.6678L39.5701 42.317C39.8259 42.8878 40.1998 43.361 40.4279 43.9576C39.4997 45.9947 37.9489 48.3743 36.3559 49.999C35.7763 50.5902 35.3302 51.2387 35.5587 49.999L37.238 41.4218L37.7731 39.4219C37.9277 38.863 38.0689 38.299 38.2741 37.7561Z" fill="#324EF1"/>
  <path d="M34.0971 21.033C35.9703 21.0127 39.7916 21.2759 39.8227 23.8388C41.9417 23.9423 40.9383 27.3618 40.4056 28.4899L40.9088 28.7591C41.2024 29.5178 40.9646 30.6334 40.4605 31.2348C40.2849 31.4442 40.0039 31.6329 39.8682 31.865C39.7077 32.1399 39.6511 32.5316 39.5152 32.8322C38.7644 34.4924 37.5542 36.1949 35.7974 36.8597C33.3276 37.5493 31.5225 35.0984 30.5799 33.1263L30.1282 32.0949C30.0037 31.7887 30.0107 31.7113 29.7535 31.5096C29.0611 30.9669 28.7148 29.9787 28.8343 29.1156L28.8416 29.0698C28.9376 28.4506 29.1472 28.6829 29.3433 28.525C29.1608 27.9521 28.9334 27.3816 28.8637 26.7802C28.4835 23.5 30.9956 21.3525 34.0971 21.033ZM32.4179 25.818C30.6566 25.9489 31.1934 27.731 30.8653 29.1396C30.7623 29.5815 30.6228 29.5522 30.1719 29.5861L29.9624 29.601C29.9787 29.8765 29.9742 30.4514 30.1962 30.6446L30.3899 30.8017C30.6693 31.0119 30.8165 31.5912 30.9503 31.9223L31.3328 32.7808C31.827 33.8012 32.4858 34.7794 33.3621 35.5105C34.783 36.6959 35.9569 36.0819 37.142 34.9032C37.8626 34.1184 38.4496 33.2176 38.8753 32.2394C39.0089 31.9324 39.0702 31.5719 39.2318 31.282C39.573 30.6695 40.0134 30.5467 40.0767 29.7526C39.8668 29.5964 39.3296 29.3657 39.2043 29.2041C39.1341 29.1132 39.0891 27.3358 38.9133 26.8639C38.8088 26.583 38.642 26.3219 38.4908 26.0645C35.6528 27.8985 35.1067 25.8129 32.4179 25.818Z" fill="#324EF1"/>
</svg>
