<svg xmlns="http://www.w3.org/2000/svg" width="50" height="50" viewBox="0 0 50 50" fill="none">
  <path d="M38.727 7.00991C39.7862 6.9791 39.3985 7.89238 39.1921 8.53613C39.0713 8.91348 38.9903 9.27902 38.6509 9.51371C38.3847 9.60418 38.0976 9.48621 37.9795 9.22277C37.8606 8.95738 38.1035 8.3341 38.1794 8.05371C38.2847 7.66471 38.3181 7.19784 38.727 7.00991Z" fill="#324EF1"/>
  <path d="M41.4592 8.34988C41.8534 8.2827 42.255 8.67238 42.1296 9.0702C42.04 9.35442 40.7745 10.4583 40.4889 10.6074C40.2366 10.6685 39.9708 10.6012 39.8488 10.3393C39.5952 9.79449 40.4333 9.24778 40.7613 8.94168C40.982 8.73567 41.1825 8.47965 41.4592 8.34988Z" fill="#324EF1"/>
  <path d="M40.4273 11.6297L41.6028 11.6225C41.8529 11.6226 42.4328 11.5262 42.629 11.7045L42.6493 11.7238C42.9626 12.0139 42.9496 12.5804 42.4921 12.7075L42.2885 12.7418L40.9855 12.7511C40.7604 12.7511 40.4459 12.7918 40.2379 12.7151L40.1336 12.6703C39.6845 12.4638 39.7442 11.7929 40.2336 11.664L40.4273 11.6297Z" fill="#324EF1"/>
  <path d="M31.141 9.87231L38.2495 9.86731C38.3467 9.87426 38.4137 9.89247 38.4782 9.97168L38.4987 9.99762C38.7508 10.3113 38.6925 10.593 38.693 10.9738L38.6899 19.7793C38.6899 20.1914 38.6703 20.0974 39.0146 20.292L40.7949 21.3068C41.3264 21.6081 41.8575 21.6825 41.8678 22.3368L41.8682 25.2289C41.8496 25.6036 41.4228 25.8632 41.0834 25.7213C40.7844 25.5963 40.4945 25.4271 40.2083 25.2747L36.5058 23.2547C36.1842 23.0807 35.8346 22.9232 35.5245 22.7325L35.5037 41.752C35.6261 41.7834 35.7861 41.7658 35.9126 41.7669L37.1628 41.7692C37.5364 41.7694 38.0699 41.6979 38.0843 42.2445C38.1035 42.9675 37.0954 42.7961 36.6295 42.7962L13.4631 42.7961L8.58854 42.7965C8.39886 42.7963 8.18675 42.8149 8.00011 42.7857C7.4816 42.7046 7.50268 41.9127 8.00714 41.8133C8.24472 41.7665 8.553 41.8112 8.80058 41.8135L10.2395 41.8109L10.2248 23.2854C10.101 23.376 9.87815 23.4285 9.73448 23.4999L7.76751 24.4707C7.01455 24.8257 5.89302 25.4385 5.91308 23.9865L5.91414 22.0501C5.91446 21.8522 5.83439 21.496 6.03286 21.3659L6.11762 21.3073C6.38765 21.0914 6.71484 20.9279 7.01421 20.7555L22.1688 12.3492C22.6179 12.11 23.0604 11.8504 23.5414 11.6817C23.6896 11.7254 23.8298 11.7725 23.9678 11.8436L30.8949 15.6778C30.9957 15.7322 31.0731 15.7409 31.1545 15.8318L31.1577 10.9403C31.1479 10.8597 31.0538 10.8175 30.9902 10.7736C30.6117 10.5122 30.755 10.0164 31.141 9.87231ZM32.3257 21.0557L30.4597 19.9571L23.5914 16.0797L12.7621 21.9468C12.5664 22.0534 11.349 22.6825 11.285 22.7382L11.2651 41.8121L34.5054 41.8175L34.5135 22.3304C34.416 22.2374 34.2774 22.1924 34.1614 22.1214L32.3257 21.0557ZM32.2046 11.0085L32.2 16.1751C32.2002 16.5925 32.4713 16.6147 32.86 16.8447L37.5957 19.4916L37.5872 11.0343L32.2046 11.0085Z" fill="#324EF1"/>
  <path d="M30.249 23.024C30.3721 22.875 30.2773 22.7808 30.5284 22.568L30.6497 22.4747C30.7406 22.5555 30.8182 22.6307 30.8912 22.7283L30.8865 23.1678L30.5894 23.0475C30.487 23.0773 30.3535 23.0399 30.249 23.024Z" fill="#E2E4EC"/>
  <path d="M30.8865 23.1678C31.2386 23.2814 32.3048 23.8484 32.5917 24.0731C33.0561 24.4367 32.7376 25.1725 32.1918 25.0089L32.1641 25.0003C31.8604 24.9095 31.5826 24.7568 31.3144 24.5906C31.274 24.9314 31.3025 25.3039 31.3023 25.6479L31.317 27.4267C31.821 27.4575 32.0801 27.6585 32.1275 28.2053L32.1618 29.0001C32.2118 29.8596 32.3197 30.8928 32.7173 31.6592C32.927 32.0631 33.2796 32.3701 33.4629 32.7807C33.2338 33.4728 32.4307 33.248 31.863 33.2727C31.8013 34.5236 29.7819 34.5878 29.7334 33.2758L28.8608 33.2762C28.2035 33.2745 27.7935 32.9658 28.288 32.3904C29.1651 31.37 29.2784 29.9189 29.3762 28.6283C29.4367 27.83 29.3374 27.523 30.2282 27.3815L30.2173 25.0475C30.2168 24.7426 30.261 24.3495 30.2037 24.0539C29.5903 23.9803 28.4872 23.3558 27.8813 23.0888L24.2594 21.476C24.1827 21.4402 24.0925 21.4272 24.0313 21.3653L24.0044 27.9233C25.584 27.9714 25.3224 28.9653 25.3942 30.0944C25.5019 31.7894 25.8025 33.5284 26.905 34.8836C27.0275 35.0342 27.1615 35.1846 27.1669 35.3893C27.1843 36.0585 26.6268 35.9808 26.152 35.981L25.0248 35.9888C25.0367 36.2223 25.056 36.5289 24.9886 36.7528L24.9758 36.7921C24.3723 38.7592 21.4057 38.0556 21.8494 36.0401L21.8577 36.0033C21.5347 35.9818 20.1255 36.0765 19.9192 35.9071L19.8961 35.8875C19.2699 35.377 19.9204 34.8199 20.2345 34.3612C21.0693 33.142 21.3637 31.492 21.3889 30.038C21.4129 28.6553 21.2239 28.0561 22.8687 27.9254L22.8375 20.8271C22.38 20.6145 21.8822 20.5379 21.4473 20.2493L16.0868 23.2212L16.1013 27.4782C17.1043 27.5028 17.0065 28.0495 17.0625 28.8739C17.1336 29.9215 17.1792 31.2868 17.8536 32.1525C17.9778 32.312 18.144 32.4642 18.2296 32.6492C18.3373 32.8824 18.1721 33.2162 17.9247 33.2844C17.7762 33.3254 17.576 33.2957 17.4212 33.2896L16.7079 33.2804C16.4774 34.6506 14.3799 34.349 14.6107 33.3097L13.884 33.2826C12.7811 33.287 12.834 32.9643 13.3911 32.1367C14.0323 31.184 14.1918 30.0268 14.24 28.9035C14.2724 28.1477 14.0801 27.6138 15.0305 27.4643C15.0529 27.3539 15.0404 27.2235 15.0403 27.1104L15.0312 23.9222C14.829 23.9407 14.5608 23.9793 14.3654 23.9218C14.0274 23.8222 14.0178 23.2353 14.423 22.9653C14.712 22.7727 15.0211 22.6129 15.32 22.4365L20.5462 19.4578C21.2272 19.0775 21.1385 18.9351 21.8874 19.2575L30.249 23.0239C30.3534 23.0399 30.4869 23.0773 30.5893 23.0475L30.8865 23.1678Z" fill="#324EF1"/>
</svg>
