<svg xmlns="http://www.w3.org/2000/svg" width="50" height="50" viewBox="0 0 50 50" fill="none">
  <path d="M31.9935 5.67578L35.8978 5.68525C37.6064 5.68885 38.0338 6.55504 38.0347 8.19104L38.0335 32.0473C38.3553 32.0919 38.7445 32.0515 39.0733 32.051L41.3712 32.0499C41.6491 32.0504 42.0313 32.0049 42.2899 32.095C44.0824 32.7199 44.0907 35.3184 41.5693 35.483L41.5114 35.9855C41.359 36.8605 40.7892 37.9748 40.033 38.4994L43.1282 38.5183C43.4787 38.5179 43.8602 38.4781 44.2069 38.5074C45.0406 38.5777 45.0431 39.7162 44.4344 39.821C44.1828 39.8643 43.858 39.8258 43.5994 39.8256L6.1236 39.8262C5.73389 39.8265 5.38796 39.7125 5.3182 39.2746L5.31267 39.2366C5.20141 38.5378 5.89585 38.5048 6.35152 38.5114L10.0135 38.5155C9.80784 38.4113 9.53245 38.0665 9.38792 37.888C8.79112 37.1509 8.46698 36.3354 8.40987 35.3876C6.30315 35.2704 6.22623 32.3729 8.16049 32.0846C8.47682 32.0374 8.79823 32.0503 9.11729 32.0499L10.4756 32.0554L10.4754 31.4574L10.4689 31.0985L10.3401 31.0695C10.1537 31.0303 9.96143 30.9663 9.90909 30.7579L9.90128 30.724C9.85557 30.5375 9.8669 30.3421 9.86964 30.1514L9.88565 29.3171C9.17401 28.9678 8.73307 28.8399 8.31417 28.0181C8.15135 27.6987 8.04253 27.3581 8.02471 27.0001L8.01464 14.7871C7.94354 14.725 7.77251 14.7264 7.67895 14.7022C6.94403 14.5128 7.14376 13.7487 7.14496 13.1715L7.14771 12.0483C7.14782 11.7737 7.11865 11.4474 7.20039 11.1836C7.45709 10.355 8.15651 9.46534 9.09651 9.40143C9.40682 9.38026 9.72784 9.39659 10.0395 9.39659L30.99 9.4101C31.2645 9.41885 31.5024 9.45807 31.7688 9.50073L31.9099 9.52549C33.0864 9.79987 33.538 10.7521 33.5407 11.8491L33.5405 13.7138C33.54 13.8693 33.5557 14.0588 33.5133 14.2081L33.5053 14.2334C33.3997 14.5759 32.9105 14.7105 32.8932 14.7967C32.8406 15.058 32.8658 15.3619 32.8651 15.6293L32.8597 25.9291C32.8585 27.1138 32.8554 28.6053 31.4985 29.1485C31.2198 29.2601 31.153 29.1153 31.1532 29.4469C31.1535 29.7505 31.1514 30.0481 31.126 30.3507C31.0784 30.9217 30.9685 30.9799 30.4225 31.0511L30.4246 32.0473L34.4519 32.0439L34.4381 9.17815L32.8304 9.17565C32.4708 9.17424 32.0799 9.19237 31.7253 9.12963L31.6938 9.12377C29.5694 8.7426 29.6889 5.73495 31.9935 5.67578ZM19.1915 35.5817C19.156 36.4867 18.6521 37.8025 17.9754 38.4271L17.9186 38.4756C17.8934 38.4968 17.9005 38.4855 17.8914 38.5094L30.3954 38.5173L31.7569 38.489C31.099 37.9476 30.51 36.8016 30.4249 35.9874L30.4131 35.5725L19.1915 35.5817ZM31.7812 7.01306C31.3494 7.13638 31.2329 7.80105 32.0582 7.8093L34.631 7.81103C35.0422 7.81165 35.7565 7.71234 35.7835 8.3251L35.7937 30.2674C35.7936 30.8609 35.8225 31.4705 35.7855 32.0615L36.4914 32.0746L36.7057 32.0708L36.6974 8.18635C36.6975 7.15031 36.8494 7.01485 35.6086 7.01196L31.7812 7.01306ZM8.49706 33.4571C8.13135 33.5242 7.96737 33.7993 8.26487 34.0835L8.28846 34.1071C8.4587 34.2742 8.73042 34.2243 8.94948 34.226L41.7305 34.1936C42.2775 34.1349 42.3791 33.6767 42.0957 33.5006C41.8635 33.4444 41.5839 33.4771 41.3442 33.4778L8.49706 33.4571ZM11.828 31.0552L11.8235 31.9575C11.8737 31.9844 14.5072 31.9549 14.8239 31.9547L29.1142 31.9593L29.1219 31.0644L11.828 31.0552ZM16.0798 29.2723L11.2389 29.2765C11.1876 29.3467 11.2076 29.6196 11.2112 29.713L25.0374 29.7148L29.8164 29.7135C29.8217 29.569 29.8317 29.4248 29.8149 29.2808L16.0798 29.2723ZM13.6373 35.3138C12.9047 35.3574 12.3999 35.7875 12.4619 36.5653L12.4744 36.6849C12.5575 37.4778 13.1742 37.8541 13.9279 37.8306C15.6102 37.4592 15.5077 35.1726 13.6373 35.3138ZM35.9066 35.31C35.5435 35.3698 35.2859 35.4927 35.0629 35.8011C34.4089 36.7058 35.1046 38.0136 36.4344 37.8294C37.1435 37.6038 37.5725 37.0229 37.4339 36.2671L37.4269 36.227C37.287 35.481 36.5839 35.2478 35.9066 35.31Z" fill="#324EF1"/>
  <path d="M9.32516 10.7222L30.51 10.7225C31.7051 10.7229 32.2483 10.7104 32.2501 12.1808L32.2491 13.4458L31.4272 13.4349L8.44727 13.4419L8.44781 12.335C8.44945 11.5616 8.40187 10.9091 9.32516 10.7222Z" fill="#E2E4EC"/>
  <path d="M9.32973 14.751L31.51 14.7582C31.5637 14.852 31.5297 25.5096 31.5295 26.5046L9.33981 26.5007C9.31997 26.3897 9.33137 26.2668 9.33153 26.1534L9.32973 14.751Z" fill="#E2E4EC"/>
  <path d="M25.1346 17.1997L25.2187 19.8102C24.9102 24.0286 22.5078 26.1513 18.2674 25.8328C17.9324 25.8076 16.6367 25.6653 16.4326 25.4273C16.4634 25.3256 16.5533 25.2496 16.631 25.1815L21.4695 21.1008C21.8483 20.7586 22.0997 20.4084 21.5034 20.171C21.0473 20.3067 20.6725 20.7812 20.3269 21.0861L16.1973 24.5039C16.607 20.859 17.4207 18.4699 21.4707 17.6959C22.6373 17.4729 24.0414 17.4798 25.1346 17.1997Z" fill="#324EF1"/>
</svg>
