<svg xmlns="http://www.w3.org/2000/svg" width="50" height="50" viewBox="0 0 50 50" fill="none">
  <path d="M8.0741 6.93905C8.5555 6.90999 9.0491 6.93102 9.53152 6.93163L41.3048 6.9406C41.8362 6.95116 42.3427 7.18043 42.4814 7.75194L42.489 7.78569C42.6273 8.37426 42.2528 8.91005 41.6731 9.00895C41.3026 9.05051 40.9228 9.03364 40.5507 9.0338L8.55722 9.03114C8.34183 9.03044 8.0762 9.05669 7.87347 8.97622L7.8366 8.96051C6.78343 8.5234 7.11383 7.20265 8.0741 6.93905Z" fill="#324EF1"/>
  <path d="M8.45873 40.7278L8.43108 10.1354L40.2351 10.1305C40.5764 10.1306 40.9302 10.1528 41.2683 10.1095L41.2626 40.7445C41.6578 40.7458 42.0088 40.705 42.3122 41.0145C42.8655 41.5788 42.3839 42.3594 41.6839 42.3951L9.40108 42.4019C8.88092 42.402 8.33334 42.4368 7.81592 42.3993C6.97263 42.3382 6.86085 40.7378 8.09405 40.7686C8.2028 40.7502 8.36522 40.7804 8.45873 40.7278ZM11.4004 24.5881L11.3954 37.7601C11.3946 37.8847 11.3819 38.0202 11.4 38.1427L30.1767 38.134L30.1793 39.5421C30.1823 40.49 30.1255 40.5943 31.1423 40.9354C31.3723 41.0125 31.684 40.9755 31.925 40.973L34.7385 40.9659C35.3772 40.9646 36.6291 41.01 36.8588 40.2054C36.9181 39.9976 36.9008 39.7518 36.9012 39.5366L36.9005 38.4961C36.9004 38.4241 36.8781 38.1847 36.9158 38.1346L38.3401 38.1378L38.34 27.6923L38.3387 25.6039C38.3384 25.2755 38.3648 24.9278 38.331 24.603L26.1308 24.6028C26.0379 24.6028 25.924 24.5894 25.8342 24.614L25.8359 37.6528C25.836 37.7385 25.8479 37.8429 25.8221 37.9241L24.6131 37.9195C24.4358 37.9186 24.2169 37.9418 24.0465 37.904L24.0354 24.6047L11.4004 24.5881ZM11.4041 11.3396L11.4097 15.2906L24.0476 15.3068L24.0473 11.3572L11.4041 11.3396ZM25.7123 11.3507L25.716 15.2891L38.3398 15.3021L38.342 11.3636L25.7123 11.3507ZM11.4005 22.1236L11.4085 23.3875L38.3397 23.3921L38.3357 22.1264L11.4005 22.1236Z" fill="#324EF1"/>
  <path d="M25.7126 16.5354L38.329 16.5491C38.3554 16.6702 38.3393 16.8212 38.3393 16.9467L38.3401 20.9334L25.7104 20.9206L25.7126 16.5354Z" fill="#E2E4EC"/>
  <path d="M11.4006 16.5356L24.048 16.5494L24.0435 20.9021L11.3987 20.9349L11.4006 16.5356Z" fill="#E2E4EC"/>
  <path d="M31.3647 29.6244L33.8382 29.6168C34.5021 29.6167 35.1881 29.5812 35.8497 29.6226C36.1257 29.64 36.584 30.6055 35.6649 30.6134L34.7757 30.6293C35.1946 31.0444 36.0465 33.4085 35.8596 33.7327L35.716 33.7409L31.1485 33.7319C31.2573 32.6651 31.6556 31.9301 32.1352 30.9766C32.1975 30.8526 32.2224 30.736 32.3144 30.6273L32.3288 30.6107C32.0664 30.6018 31.2052 30.67 31.0291 30.5523C30.8302 30.4193 30.6359 29.6586 31.3647 29.6244Z" fill="#324EF1"/>
  <path d="M31.1389 34.7874L35.9208 34.7981L35.9203 39.4364C35.9191 39.6041 35.9429 39.7316 35.8166 39.8559C35.6861 39.9404 35.5802 39.9503 35.429 39.9523L31.8529 39.9517C31.0833 39.9502 31.1439 39.8551 31.1413 39.0572L31.1389 34.7874Z" fill="#324EF1"/>
</svg>
