<svg xmlns="http://www.w3.org/2000/svg" width="50" height="50" viewBox="0 0 50 50" fill="none">
  <path d="M15.4106 7.08854C16.1366 7.0649 16.8606 7.58978 16.9552 8.33417C17.0095 8.7605 16.9693 9.23378 16.9698 9.66729L16.9695 11.0067C16.9691 11.2781 16.998 11.5907 16.9286 11.8548L16.9191 11.8896C16.7531 12.5106 16.1754 12.8359 15.5581 12.8789C14.9052 12.9278 14.4788 12.5845 14.1402 12.0489C13.9458 11.7412 14.0145 11.2808 14.0132 10.935L14.0114 8.64182C14.0134 7.73611 14.4549 7.22397 15.4106 7.08854Z" fill="#324EF1"/>
  <path d="M34.4197 7.0887C35.1764 7.0673 35.9701 7.54449 36.0067 8.37393L36.0078 11.2872C36.0041 12.1765 35.6711 12.8192 34.6406 12.8747C34.0055 12.9189 33.3869 12.6502 33.1313 12.0329L33.09 11.9337C33.0196 11.7349 33.0542 11.4375 33.0539 11.2283L33.0528 9.91963C33.0532 8.70213 32.7578 7.35791 34.4197 7.0887Z" fill="#324EF1"/>
  <path d="M11.0779 9.72903L13.1323 9.72668L13.1273 10.865C13.1282 11.1343 13.1103 11.4227 13.1446 11.6896C13.5007 14.4651 17.458 14.3022 17.8298 11.8277C17.8768 11.515 17.8612 11.1882 17.8617 10.8725L17.8626 9.72551L32.1664 9.73629L32.1644 11.099C32.1653 11.3306 32.1502 11.5799 32.1824 11.8083C32.5382 14.3282 36.8912 14.7586 36.8932 10.9636L36.8921 9.73504C37.0335 9.68684 37.3008 9.72465 37.462 9.72504L38.5465 9.72887C40.225 9.73989 41.523 10.639 42.197 12.2009L42.3743 12.813C42.5182 13.3113 42.4535 13.9271 42.4542 14.4455L42.4551 16.5232L7.55664 16.54L7.56083 13.3639C7.67559 11.5669 9.26917 9.88012 11.0779 9.72903Z" fill="#324EF1"/>
  <path d="M7.636 17.3942L42.4542 17.3989L42.4498 37.9738C42.4239 39.1112 42.0495 40.0033 41.2565 40.8299C40.491 41.5366 39.5473 41.9489 38.5011 41.9654L11.7241 41.9643C10.3639 41.9586 9.30022 41.5723 8.41076 40.4511C7.5303 39.3413 7.54816 38.0701 7.54778 36.7315L7.54712 18.4269C7.54719 18.097 7.52021 17.7387 7.55918 17.4125L7.636 17.3942ZM37.9412 20.1416C37.477 20.3599 37.5709 20.558 37.5704 21.0274L37.5599 27.556L32.2514 27.5501C32.1819 27.2753 32.2112 26.957 32.1697 26.6717C32.0662 25.9612 31.6988 25.3039 31.3412 24.6943L33.2783 21.7118C33.4525 21.4577 33.6279 21.2249 33.738 20.9347C33.4269 20.3879 32.7105 20.453 32.1657 20.5202C30.9951 20.6646 29.7899 21.1335 28.8454 21.8523L28.4964 22.1378C28.4497 22.1769 28.3839 22.2744 28.3208 22.2607L27.483 22.1049C26.6695 21.9928 25.6147 22.0992 24.8719 22.4986L24.8794 21.0114C24.8788 20.832 24.9168 20.5092 24.8146 20.3566L24.8005 20.3342C24.6436 20.0946 24.0936 20.1313 24.0406 20.4383C23.9975 20.6885 24.0232 20.9864 24.0222 21.2409L24.0085 22.7543L16.283 22.7509C16.124 22.7499 15.7695 22.7848 15.6333 22.7066L15.6339 21.326C15.6347 20.3569 15.5344 20.4702 14.6473 20.4653L12.5876 20.46C12.2786 20.4585 11.7089 20.3966 11.6815 20.8389C11.6433 21.4549 11.681 22.0978 11.6817 22.7166L11.6832 24.1184C11.6837 24.367 11.6514 24.6785 11.7176 24.9179L11.7419 24.9952C12.0388 25.1239 12.4732 25.0836 12.7949 25.0851L14.9195 25.0903C15.1405 25.0903 15.3783 25.1074 15.5933 25.0493C15.6464 24.6683 15.5763 23.9257 15.6494 23.6496L23.569 23.6561C23.4226 23.7577 23.2862 23.9345 23.1704 24.0703C21.8686 25.5953 21.6024 27.2215 21.9698 29.1353C20.9988 29.3788 15.6923 29.3207 15.6273 29.2764L15.6296 28.1524C15.6298 27.0671 15.7598 27.1512 14.7926 27.1491L13.689 27.1483C13.2781 27.1485 11.7334 26.9382 11.6915 27.4404C11.6379 28.0835 11.6816 28.764 11.6821 29.4105L11.6836 30.54C11.6853 31.4375 11.5672 31.5072 12.5196 31.5152L15.1629 31.5235L15.5634 31.4792C15.6261 31.3031 15.622 31.1099 15.6251 30.925L15.6274 30.2095L19.0276 30.199C19.7472 30.1984 20.4761 30.2325 21.1891 30.1204C22.4568 29.9211 21.6219 29.5327 22.5329 30.776C22.1214 31.1689 21.7875 31.6531 21.4095 32.0803L18.6572 35.297C18.1372 35.924 17.4209 36.5292 17.3061 37.3779L17.2997 37.4222C17.0439 39.337 19.25 40.4802 20.5413 39.4289C20.9573 39.0901 21.3036 38.5785 21.6426 38.1623L25.093 33.8111C25.7445 33.0131 25.273 33.3408 26.1701 33.3656C26.5405 33.3759 26.4969 33.3868 26.7331 33.6783L30.0069 37.6146C30.4327 38.1254 31.1612 39.287 31.7872 39.5075L31.8224 39.5205C32.9477 39.9025 34.1236 38.442 33.4971 37.3312C33.2579 36.9071 32.9207 36.5346 32.6279 36.1467L30.6022 33.4839C30.3655 33.1601 30.1093 32.842 29.8978 32.501C30.3031 32.2128 30.6699 31.8753 30.9749 31.4819C31.2122 31.1759 31.3426 31.3021 31.7167 31.3023L37.1043 31.3016C37.251 31.3015 37.4155 31.2867 37.5603 31.3057L37.5688 37.7686C37.5686 38.358 37.3497 38.9916 37.9978 39.1161C38.3454 38.9796 38.4289 38.7873 38.433 38.4349L38.4278 21.2566C38.4272 20.8449 38.5736 20.11 37.9412 20.1416Z" fill="#324EF1"/>
  <path d="M11.9737 34.3831L15.2446 34.3823C15.8791 34.399 15.6955 35.0668 15.6961 35.5361L15.7046 37.8347C15.7093 38.1912 15.7146 38.3305 15.3879 38.5383C14.9632 38.6955 14.2784 38.576 13.8234 38.5756L12.7083 38.5741C11.7566 38.5719 11.6908 38.6701 11.6875 37.702L11.6855 36.674C11.6853 36.3001 11.5862 34.8405 11.7538 34.5826L11.771 34.5582C11.8312 34.4678 11.8753 34.4309 11.9737 34.3831Z" fill="white"/>
  <path d="M12.5688 35.0464L12.866 35.0586C12.8703 35.8341 12.866 36.631 12.6519 37.3827C12.627 37.4357 12.611 37.4589 12.563 37.4927L12.5226 37.4504C12.4735 37.2198 12.5016 36.937 12.5021 36.6992L12.5084 35.5554C12.5102 35.4081 12.4888 35.1711 12.5688 35.0464Z" fill="#324EF1"/>
  <path d="M12.6276 23.5396L14.0308 23.5565C14.5879 23.5585 14.5607 23.5195 14.5434 24.0958L14.4899 24.1249L12.612 24.1371C12.5965 23.9375 12.6143 23.7388 12.6276 23.5396Z" fill="#324EF1"/>
  <path d="M14.1353 27.771C14.3696 27.7034 14.1588 28.4753 14.1347 28.6377C14.0562 29.1652 13.9595 30.0504 14.1483 30.5722L12.8854 30.6106L12.6699 30.5786C12.7805 30.3213 13.013 30.0989 13.147 29.8424C13.3772 29.4019 13.8327 28.0362 14.1353 27.771Z" fill="#324EF1"/>
  <path d="M32.3155 28.4507L37.5772 28.4665C37.6125 28.5503 37.5722 28.788 37.5716 28.8921L37.5713 30.4187L36.9274 30.4169L31.6553 30.4179C31.9153 30.1989 32.2428 28.7954 32.3155 28.4507Z" fill="#324EF1"/>
  <path d="M26.6093 25.0264L26.7213 25.0231C27.1508 25.0478 28.9779 26.0918 29.0222 26.4528L29.0262 26.4892C29.0658 26.8152 29.1048 28.6164 29.0122 28.807C28.7556 29.3359 27.3441 30.1425 26.7211 30.3541C26.6197 30.3494 26.5402 30.326 26.4482 30.2852L25.6563 29.8874C24.4897 29.2771 24.3287 29.2349 24.2919 27.9762C24.2778 27.492 24.186 26.8267 24.4181 26.3794C24.6612 25.911 26.0645 25.1873 26.6093 25.0264Z" fill="#324EF1"/>
</svg>
