<svg xmlns="http://www.w3.org/2000/svg" width="50" height="50" viewBox="0 0 50 50" fill="none">
  <path d="M7.94053 41.5561C8.70139 41.5143 8.94935 42.2976 8.26904 42.5958C7.46221 42.6257 7.22993 41.8372 7.94053 41.5561Z" fill="#324EF1"/>
  <path d="M24.7126 6.82926C24.8936 6.81096 25.0972 6.82928 25.28 6.83021C34.2529 6.87572 41.8932 14.0527 43.0153 22.8738C43.1361 23.8235 43.2554 25.9788 43.093 26.9035L42.9908 27.6856C42.7105 29.627 42.1711 31.5101 41.3056 33.2764L40.578 34.5947C39.1504 37.0345 37.1913 39.154 34.7991 40.6775L34.2561 41.0074C33.6178 41.3878 33.4865 41.3764 34.2208 41.3661L41.669 41.3631C41.9266 41.3626 42.5237 41.2856 42.744 41.4176L42.8757 41.5054C43.2816 41.8324 43.0361 42.4597 42.5556 42.5206C42.2616 42.558 41.9327 42.5302 41.6343 42.5304H33.385L30.9071 42.5305C30.745 42.5306 30.5898 42.5206 30.4347 42.576C28.9556 43.1052 27.1432 43.3826 25.5931 43.4565L24.4328 43.4619C22.8025 43.4596 21.1463 43.1927 19.5802 42.7417C11.9489 40.5441 6.48274 33.3963 6.47363 25.4548L6.48845 24.0657C7.00868 14.4602 15.1554 6.83434 24.7126 6.82926ZM24.6868 13.3911C24.1295 13.7618 23.6324 14.252 23.132 14.6945L12.841 23.5575C12.5761 23.7948 12.3108 24.2889 12.8279 24.3786C13.4589 24.4881 14.4993 24.3467 15.2196 24.407L15.2233 36.392C15.2236 36.8588 15.1897 37.3508 15.238 37.8131L15.2407 37.8409C15.2672 38.0337 15.4985 38.1112 15.6601 38.1179L25.1998 38.1164L31.4352 38.1152C32.3459 38.1142 33.2464 38.0377 33.939 37.3569C34.4865 36.8188 34.4535 36.2177 34.4524 35.5038L34.3943 24.4044L36.0649 24.4063C36.4824 24.4163 37.184 24.6235 37.2438 23.9833C37.1632 23.7703 36.9761 23.611 36.8084 23.4643L25.6329 14.016C25.4565 13.8656 24.929 13.3296 24.6868 13.3911Z" fill="#324EF1"/>
  <path d="M24.0346 24.0559C26.3898 23.8309 28.1424 26.0919 27.8104 28.3447C27.6305 29.5657 27.7388 28.634 28.626 29.4233L31.3552 32.0947C31.8138 32.5472 32.3562 32.9652 32.7514 33.4733C33.9523 35.0169 32.717 36.9722 30.8499 36.6783L30.8105 36.6716C30.174 36.5697 29.7764 36.1496 29.3419 35.7034L28.5373 34.8805C27.9291 34.2715 25.6703 32.2451 25.3936 31.5953C25.2522 31.2633 25.4249 31.2453 25.0206 31.2405C24.7283 31.2371 24.4258 31.2506 24.1359 31.2112C22.4849 30.9865 21.1445 29.6551 20.8987 28.0111C20.741 26.9568 21.0795 25.6752 22.2376 26.8558C22.6564 27.2827 23.0484 27.7653 23.5034 28.1517C23.9399 27.9321 24.768 27.071 25.0761 26.686C24.7991 26.2622 22.1649 24.2531 24.0346 24.0559Z" fill="#324EF1"/>
</svg>
