<svg xmlns="http://www.w3.org/2000/svg" width="21" height="20" viewBox="0 0 21 20" fill="none">
  <g clip-path="url(#clip0_164_251)">
    <path d="M8 9.16675C8 9.82979 8.26339 10.4657 8.73223 10.9345C9.20107 11.4034 9.83696 11.6667 10.5 11.6667C11.163 11.6667 11.7989 11.4034 12.2678 10.9345C12.7366 10.4657 13 9.82979 13 9.16675C13 8.50371 12.7366 7.86782 12.2678 7.39898C11.7989 6.93014 11.163 6.66675 10.5 6.66675C9.83696 6.66675 9.20107 6.93014 8.73223 7.39898C8.26339 7.86782 8 8.50371 8 9.16675Z" stroke="white" stroke-width="1.5" stroke-linecap="round" stroke-linejoin="round"/>
    <path d="M15.2142 13.8808L11.6784 17.4167C11.3659 17.7289 10.9422 17.9042 10.5005 17.9042C10.0587 17.9042 9.63506 17.7289 9.32254 17.4167L5.78588 13.8808C4.85356 12.9485 4.21866 11.7606 3.96145 10.4674C3.70424 9.17419 3.83629 7.83376 4.34088 6.61561C4.84547 5.39745 5.69996 4.35628 6.79628 3.62376C7.8926 2.89123 9.18152 2.50024 10.5 2.50024C11.8186 2.50024 13.1075 2.89123 14.2038 3.62376C15.3001 4.35628 16.1546 5.39745 16.6592 6.61561C17.1638 7.83376 17.2958 9.17419 17.0386 10.4674C16.7814 11.7606 16.1465 12.9485 15.2142 13.8808Z" stroke="white" stroke-width="1.5" stroke-linecap="round" stroke-linejoin="round"/>
  </g>
  <defs>
    <clipPath id="clip0_164_251">
      <rect width="20" height="20" fill="white" transform="translate(0.5)"/>
    </clipPath>
  </defs>
</svg>
