<svg xmlns="http://www.w3.org/2000/svg" width="50" height="50" viewBox="0 0 50 50" fill="none">
  <path d="M25.0618 5.91943C26.3034 5.9564 27.5237 6.73896 27.8562 7.97775C27.9205 8.21713 27.9459 8.46182 27.9944 8.70439C28.5874 8.69939 29.3923 8.60229 29.9357 8.86338C30.5101 9.13932 30.5105 9.57916 30.6359 9.66494C30.6659 9.68541 31.6122 9.66439 31.7465 9.66455L39.1637 9.66799C39.3813 9.66768 39.7684 9.60041 39.951 9.74682L39.977 9.76838C40.0695 9.84424 40.142 9.91088 40.2095 10.0115L40.2323 10.0463C40.304 10.1518 40.3051 10.2521 40.3067 10.3759L40.3099 41.1959C40.3121 41.6938 40.5039 42.7745 39.7462 42.857C39.2852 42.9071 38.7747 42.8647 38.3098 42.8646L25.3109 42.8627L12.1627 42.8633C11.1971 42.8636 9.90117 43.2141 9.89258 41.92L9.89281 10.3235C9.93367 9.54674 10.6443 9.66744 11.1834 9.66697L19.3917 9.66791C19.5097 9.53447 19.5483 9.37463 19.6809 9.24064C20.3159 8.59908 21.1975 8.69541 22.028 8.69627C22.0594 8.56064 22.0684 8.42072 22.102 8.28596C22.4636 6.83557 23.583 6.02157 25.0618 5.91943ZM11.3816 11.1651L11.3811 41.3446L38.7959 41.3524L38.8077 38.5375L38.8087 11.1567L30.8337 11.1583L30.8336 12.5618C30.8323 13.0858 30.9019 13.5345 30.3334 13.7941L30.2998 13.8099C30.2034 13.8526 30.1045 13.8603 30.0007 13.8625L20.2757 13.8615C20.1271 13.8613 19.9077 13.8834 19.7702 13.8265L19.6923 13.7889C19.1098 13.5235 19.2293 12.6597 19.2367 12.1506L19.2567 11.1778L11.3816 11.1651ZM24.9137 7.45243C24.1869 7.56385 23.5802 8.07619 23.5452 8.84057L23.5393 9.45338C23.5382 9.65088 23.5661 9.86213 23.4179 10.0153L23.395 10.0393C23.2146 10.2217 22.8983 10.2519 22.6534 10.248L21.2294 10.2059C21.1048 10.2072 20.9055 10.1888 20.8025 10.2585L20.7671 12.3063L25.1576 12.3028L28.888 12.2995C29.0098 12.2992 29.1567 12.3149 29.2743 12.2859L29.2745 10.2265C29.0572 10.1927 28.8293 10.2042 28.6095 10.2038L27.5762 10.2096C26.0323 10.2407 26.6276 9.73275 26.473 8.69135L26.468 8.65471C26.3625 7.90322 25.6596 7.38132 24.9137 7.45243Z" fill="#324EF1"/>
  <path d="M31.1907 14.6587C33.9188 14.5082 34.2891 18.2628 31.6983 18.6836C28.6887 19.0437 28.5912 14.9001 31.1907 14.6587Z" fill="#324EF1"/>
  <path d="M27.685 28.348C27.8046 28.3326 28.0295 28.3639 28.1589 28.3644L36.4781 28.3601C36.5162 28.4766 36.4915 28.6518 36.4919 28.7775L36.4945 29.8979L27.6846 29.8994L27.685 28.348Z" fill="#324EF1"/>
  <path d="M27.6865 35.6426C28.0787 35.7034 28.4661 35.687 28.8414 35.6875L36.4962 35.686L36.4968 36.7918C36.4968 36.918 36.5232 37.1109 36.4798 37.2287L27.6935 37.2385L27.6865 35.6426Z" fill="#324EF1"/>
  <path d="M27.6851 31.9551L36.4828 31.9815L36.4934 33.5452L27.6991 33.5385C27.6621 33.4002 27.6869 33.2138 27.6865 33.068L27.6851 31.9551Z" fill="#324EF1"/>
  <path d="M19.0982 14.5348C21.8693 14.3549 22.3247 18.2888 19.559 18.6767C19.3483 18.6831 19.1288 18.6882 18.9196 18.661L18.8706 18.6544C16.4182 18.3374 16.6608 14.7461 19.0982 14.5348Z" fill="#324EF1"/>
  <path d="M20.2611 18.6699C20.6584 18.6437 21.1249 18.6137 21.5173 18.6706C23.0205 18.8883 24.2453 20.2755 24.3579 21.7751C24.3778 22.0401 24.3485 22.3059 24.3432 22.5708L24.3379 23.2155C24.3362 23.3734 24.3484 23.5426 24.2661 23.6837L24.2445 23.7183C24.0003 24.1136 23.6533 24.0426 23.2481 24.0431L18.3459 24.0435L15.8915 24.0439C14.3895 24.0436 14.3187 24.1623 14.3116 22.7447C14.3098 22.3724 14.2991 22.0002 14.3541 21.6309C14.5647 20.2201 15.6651 18.9212 17.1141 18.7176C18.0298 18.589 19.23 18.748 20.2611 18.6699Z" fill="#324EF1"/>
  <path d="M32.0709 18.7932C32.3696 18.7878 32.6845 18.7595 32.9825 18.7784C34.614 18.8816 36.1266 20.4151 36.1929 22.0458L36.2003 23.5251C36.1999 24.4099 36.1874 24.5875 35.1464 24.5884L30.8007 24.5889L27.5737 24.5877C27.2063 24.5866 26.9555 24.5735 26.7614 24.2047L26.7465 24.1758C26.6096 23.9247 26.6721 22.2834 26.7178 21.9156C26.9099 20.3701 28.1152 18.9864 29.7047 18.8132C30.4786 18.7288 31.2884 18.8408 32.0709 18.7932Z" fill="#324EF1"/>
  <path d="M19.3879 26.1817C21.8235 25.8861 23.4415 28.929 21.6292 30.622C21.5975 30.6516 21.5776 30.6646 21.5597 30.7039L22.0811 30.6681C24.0772 30.644 25.5713 32.4722 25.5886 34.3775L25.5882 36.4817C25.5859 37.521 25.8343 37.9853 24.5675 37.9868L20.1526 37.9875L16.2944 37.9882C15.6627 37.9882 15.0018 38.029 14.3729 37.9819C13.8417 37.9422 13.8092 37.5413 13.8093 37.1324L13.81 36.3524C13.8093 34.9289 13.6664 33.4646 14.529 32.2285C15.3724 31.02 16.4886 30.625 17.8783 30.6736L17.8562 30.658C16.2487 29.4458 17.1617 26.4505 19.3879 26.1817Z" fill="#324EF1"/>
</svg>
