<svg xmlns="http://www.w3.org/2000/svg" width="50" height="50" viewBox="0 0 50 50" fill="none">
  <path d="M40.082 24.2975C41.1868 24.3015 40.7826 25.4536 40.4471 26.0415C40.3361 26.236 40.198 26.2999 39.9933 26.3561C38.5576 26.4288 39.469 24.4098 40.082 24.2975Z" fill="#324EF1"/>
  <path d="M41.3637 17.8762C41.885 17.879 42.3025 18.0872 42.1158 18.7186C41.9704 19.2105 41.8372 19.7963 41.3093 20.001C40.5815 20.1868 40.4135 19.4136 40.6779 18.8125C40.835 18.4557 40.9732 18.0271 41.3637 17.8762Z" fill="#324EF1"/>
  <path d="M42.5802 13.0936C43.7496 13.0182 43.3 14.2308 42.9795 14.8243C42.8563 15.0525 42.7194 15.2067 42.4655 15.2821C42.1407 15.3043 41.7255 15.1018 41.6921 14.7406C41.6569 14.359 42.1792 13.2521 42.5802 13.0936Z" fill="#324EF1"/>
  <path d="M37.3825 31.8602C38.2361 31.8107 38.3696 32.2715 38.1289 32.9304C37.9916 33.3057 37.805 33.8258 37.4185 34.0068C37.0275 34.0754 36.6686 33.9087 36.5381 33.5204C36.6102 33.0559 36.8214 32.511 37.0876 32.1225L37.1151 32.0829C37.1875 31.9776 37.2759 31.9257 37.3825 31.8602Z" fill="#324EF1"/>
  <path d="M31.0531 24.8112C31.8693 24.7781 31.815 25.523 31.5505 26.1007C31.3548 26.528 31.2164 26.9019 30.692 26.9373C29.2251 26.825 30.4968 25.008 31.0531 24.8112Z" fill="#324EF1"/>
  <path d="M39.1024 14.266C40.0203 14.3652 39.7904 15.1041 39.527 15.6553C39.3404 16.0458 39.2115 16.3726 38.7363 16.4519C37.3101 16.3301 38.5494 14.361 39.1024 14.266Z" fill="#324EF1"/>
  <path d="M35.5458 24.3452C37.046 24.1986 36.1477 26.2691 35.5224 26.4632C35.1961 26.5019 34.8925 26.4019 34.7408 26.0876C34.5119 25.6139 35.0887 24.5636 35.5458 24.3452Z" fill="#324EF1"/>
  <path d="M29.3302 29.6219C30.2592 29.6762 30.0041 30.466 29.7529 31.0142C29.5711 31.4112 29.4455 31.7079 28.9725 31.7885C27.9491 31.6841 28.2831 31.0084 28.5575 30.4279C28.7418 30.0377 28.8467 29.6773 29.3302 29.6219Z" fill="#324EF1"/>
  <path d="M38.7014 28.2033C40.0823 28.095 39.2628 30.224 38.5657 30.3972C37.1105 30.4669 38.0773 28.4333 38.7014 28.2033Z" fill="#324EF1"/>
  <path d="M33.1117 32.0352C34.5899 32.0079 33.6257 34.0053 33.0388 34.191C32.7114 34.2019 32.3116 34.1044 32.2245 33.7334L32.2183 33.7036C32.1194 33.2457 32.693 32.1446 33.1117 32.0352Z" fill="#324EF1"/>
  <path d="M37.4692 19.2175C37.8716 19.2307 38.2398 19.5798 38.1237 20.0101L38.1141 20.0439C37.9702 20.5661 37.6381 21.3572 37.067 21.4603C36.7134 21.4072 36.4964 21.1953 36.3848 20.8548C36.4748 20.3774 36.9448 19.3028 37.4692 19.2175Z" fill="#324EF1"/>
  <path d="M33.0604 20.0229C33.4282 19.9732 33.8118 20.1291 33.8807 20.5299C33.9451 20.9051 33.3856 22.1023 32.9023 22.1851L32.7404 22.1846C32.4575 22.1612 32.0463 21.8732 32.093 21.5454L32.1222 21.4031C32.2379 21.0157 32.6952 20.2089 33.0604 20.0229Z" fill="#324EF1"/>
  <path d="M34.133 28.2736C34.476 28.229 34.8288 28.3541 34.9635 28.6999C35.1147 29.0879 34.6519 30.2912 34.1238 30.489C33.1159 30.5321 33.2599 29.8601 33.5324 29.1687C33.6728 28.812 33.7874 28.477 34.133 28.2736Z" fill="#324EF1"/>
  <path d="M17.736 23.831C18.0677 23.8272 18.2956 24.0394 18.5447 24.2276L19.271 24.7732C19.5191 24.9524 19.8044 25.101 20.0352 25.2988C20.0137 25.7462 19.7338 26.2538 19.6565 26.7125L19.4147 26.4929L17.9761 25.4761C17.6125 25.236 17.2497 24.9971 16.8491 24.8225L17.029 24.5061C17.1962 24.2351 17.4093 23.9078 17.736 23.831Z" fill="#324EF1"/>
  <path d="M7.4458 37.6696C8.30164 37.746 9.1743 37.7158 10.0323 37.716L17.8573 37.7149C18.5974 37.7146 19.3509 37.7474 20.0874 37.6739C20.0672 38.3242 20.0852 38.8613 19.6531 39.3881C19.4388 39.6146 19.105 39.8137 18.7877 39.8214L9.8425 39.8242C8.07352 39.8237 7.47155 39.6049 7.4458 37.6696Z" fill="#324EF1"/>
  <path d="M14.0866 25.2519L14.1056 25.2498C15.624 25.1221 16.9061 26.0171 18.072 26.8604L21.4689 29.6039C21.8601 29.986 22.198 30.3265 22.2454 30.8989L22.2552 31.3751C22.2174 32.1986 21.9713 32.8932 21.3513 33.4589C21.1045 33.3604 20.8841 33.1854 20.6665 33.0349L13.4914 28.0378C12.9829 27.6926 12.4523 27.3634 11.9985 26.9472L12.2819 26.4861C12.7362 25.8392 13.2962 25.3869 14.0866 25.2519Z" fill="#324EF1"/>
  <path d="M43.3345 4.67081L43.3625 4.66626C44.3095 4.549 44.4255 5.76661 43.5315 5.95198L38.788 6.74629C38.7023 6.75816 38.5445 6.76235 38.4692 6.79674C38.3654 6.8442 36.9841 8.80951 36.8141 9.04537L23.3859 27.8124C22.9016 28.496 22.5684 29.21 21.7705 28.4324L20.8828 27.5157C21.5229 26.8776 21.3857 26.8152 22.1665 27.2823C22.5098 26.9094 22.7972 26.438 23.0989 26.0284L37.4887 5.91122C37.7585 5.55563 38.1015 5.57678 38.513 5.50443L43.3345 4.67081Z" fill="#324EF1"/>
  <path d="M11.5129 27.9608C11.7937 28.2159 12.1193 28.433 12.429 28.6514L19.8243 33.753C19.9629 33.8481 20.7102 34.2846 20.6243 34.4613C20.195 35.3443 19.9529 35.8489 19.946 36.8242C19.6355 36.8743 19.2714 36.836 18.9524 36.8361L16.7195 36.8362L7.56641 36.8289C7.66752 36.668 7.72432 36.4126 7.80787 36.233L11.5129 27.9608Z" fill="#324EF1"/>
</svg>
