<svg xmlns="http://www.w3.org/2000/svg" width="50" height="50" viewBox="0 0 50 50" fill="none">
  <path d="M29.6584 17.4561L32.8697 17.4632L32.8568 20.993C32.7721 21.0035 32.7032 21.0103 32.6386 21.0111L30.7688 21.0157C29.5197 21.0178 29.6634 21.0824 29.6631 19.7074L29.6584 17.4561Z" fill="#324EF1"/>
  <path d="M34.0176 35.7036L35.8018 35.7608C35.6834 35.9099 35.7035 36.2703 35.7287 36.4516L35.7341 36.4866C36.0089 38.4063 38.607 38.4477 39.0444 36.6697C39.1055 36.421 39.1285 35.9877 39.0213 35.7484L41.2415 35.7116C41.2336 36.5276 41.2298 37.0785 40.9201 37.856C39.8566 40.2561 36.7277 41.0871 34.8231 39.2138C33.7755 38.1835 33.5474 37.0981 33.5332 35.7119L34.0176 35.7036Z" fill="#324EF1"/>
  <path d="M16.4156 35.2079L16.4573 35.2059C16.7794 35.1891 16.921 35.4227 17.1739 35.5741C17.5215 35.7824 17.9822 35.7086 18.3663 35.705L19.9378 35.6986C20.4221 35.6972 20.8105 35.5427 21.0585 35.9381C22.0009 37.4406 21.3029 39.2641 19.8639 40.1625L19.6817 40.2552C17.0066 41.4606 14.3443 38.9585 15.3756 36.387C15.5724 35.8964 15.9174 35.4196 16.4156 35.2079ZM18.1704 36.1429C16.8246 36.4238 17 38.6065 18.4746 38.3648C19.9941 37.8457 19.4652 35.9946 18.1704 36.1429Z" fill="#324EF1"/>
  <path d="M8.41065 8.68172L8.41221 8.68875C9.15635 8.58227 9.23057 8.76453 9.76776 9.21656L13.3275 12.3163C14.0594 12.9628 14.3038 13.0022 14.5949 13.9885L18.0764 27.4783L19.2801 32.3491C19.2846 32.3666 19.3172 32.4966 19.3274 32.5034C19.3553 32.5219 21.16 32.4992 21.3488 32.499L40.002 32.497C40.5265 32.4972 42.3696 32.3696 42.7508 32.5969L42.8946 32.687C43.5038 33.133 43.4834 34.6563 42.6065 34.7348L38.5449 34.738L19.0321 34.7332C18.7563 34.7321 18.4546 34.7438 18.1864 34.6763L18.0906 34.6538C17.6413 34.5741 17.4638 34.2872 17.3328 33.8677L12.3328 14.3907C12.1022 14.1788 11.8403 14.001 11.6026 13.7964L8.57424 11.1469C8.39291 10.9781 8.4201 10.9285 8.16901 10.9303L5.53273 10.9375C4.78097 10.9369 3.84665 11.0769 3.63551 10.0502L3.62872 10.0148C3.52635 9.49524 3.80008 8.95633 4.29767 8.76164L4.33155 8.74891C4.39445 8.72445 4.45168 8.71071 4.51911 8.70539L8.41065 8.68172Z" fill="#324EF1"/>
  <path d="M33.8922 17.4297C34.0329 17.4221 34.2492 17.4612 34.4009 17.4632L40.0343 17.4688C41.664 17.4787 42.1878 18.526 42.1864 20.0473C42.1863 20.2448 42.2038 20.4702 42.1488 20.6606L42.1394 20.6911C41.9845 21.2234 41.6232 21.339 41.1336 21.3264L36.0243 21.3083C35.6834 21.308 35.3347 21.248 35.1567 21.6161C35.0299 21.8782 35.2039 22.1974 35.4555 22.3139L35.485 22.3269C35.6386 22.3979 35.8707 22.3658 36.0405 22.3659L40.4291 22.3602C40.4477 22.7099 40.4188 23.0814 40.4187 23.4337L40.4202 30.7025C40.4163 30.7947 40.4048 30.8735 40.3571 30.9543L40.3382 30.9843C40.0299 31.4807 39.5843 31.4601 39.0756 31.4591L24.0506 31.459C23.4487 31.4641 22.6752 31.5974 22.3227 30.9703L22.3054 30.9388C22.1206 30.6207 22.2154 30.1108 22.2152 29.7573L22.213 22.3641L26.7659 22.3727C26.8815 22.374 27.0763 22.3977 27.1802 22.3441C27.7798 22.0351 27.7281 21.3019 26.7886 21.308L21.9771 21.3176C20.8688 21.3404 20.5078 21.1878 20.5078 20.0674C20.5078 18.7532 20.9098 17.5231 22.4066 17.4692L28.5942 17.4716L28.5841 20.7451C28.5819 21.4362 28.9238 22.0666 29.7001 22.0865L32.6109 22.085C33.981 22.0739 33.9256 21.1616 33.9266 20.1244L33.8922 17.4297Z" fill="#324EF1"/>
</svg>
