<svg xmlns="http://www.w3.org/2000/svg" width="36" height="27" viewBox="0 0 36 27" fill="none">
  <path d="M17.9016 0.692282C18.3337 0.672595 18.5478 0.988532 18.8423 1.26377C21.3941 3.64931 24.0733 7.01392 24.0807 10.6667C24.0813 10.971 24.1076 11.313 24.0473 11.6103L23.9411 12.2528C23.3744 14.9824 21.1883 17.2177 18.4403 17.79L18.4416 20.1764L34.5735 20.1729C34.7638 20.1735 35.003 20.1482 35.1836 20.2107L35.2115 20.2206C35.6014 20.3482 35.9286 20.6745 35.9328 21.1056L35.9283 25.5938C35.9276 26.177 35.804 26.7941 35.0498 26.8638C34.8582 26.8816 34.654 26.8688 34.4611 26.8688L18.2071 26.8667L1.07585 26.8531C0.498477 26.8291 0.0954844 26.4108 0.09375 25.8295L0.126922 21.6946C0.128289 20.5385 0.200641 20.1748 1.54757 20.1725L17.5656 20.1753C17.6267 20.0617 17.5847 19.6929 17.5848 19.5537L17.5857 17.8143C17.4787 17.7457 17.2585 17.7363 17.1316 17.7012C15.2729 17.1863 13.7584 15.9248 12.8159 14.2557C10.3387 9.86916 13.5176 4.90908 16.6326 1.80353L17.3201 1.15166C17.5055 0.982673 17.6813 0.815407 17.9016 0.692282ZM2.09187 21.0126C1.7214 21.0142 1.32241 20.9861 0.95593 21.0309L0.957961 24.3295L1.4721 24.3199C1.44609 23.8828 1.30679 23.136 1.95015 23.1498C2.52359 23.162 2.39866 23.9959 2.39655 24.3734L3.25109 24.3724C3.39835 24.3721 3.56421 24.3881 3.70874 24.3621C3.71663 24.1085 3.66335 23.3489 3.83874 23.1892C4.23382 22.8292 4.60663 23.1185 4.62937 23.605L4.63421 24.3798L5.93687 24.3783C5.93773 24.0973 5.86734 23.4145 6.09773 23.2133C6.30851 23.0294 6.62265 23.0656 6.79788 23.2745L6.82765 23.3088C6.91054 23.4179 6.88335 24.2193 6.88546 24.4062L7.6878 24.3832C7.82991 24.3804 7.97976 24.3934 8.11991 24.3692C8.12382 24.066 8.06046 23.4851 8.29499 23.2567C8.47788 23.0785 8.80921 23.0707 8.97632 23.2761L9.02913 23.3436C9.18054 23.5281 9.11851 24.1221 9.11765 24.3705L10.3573 24.3673C10.3628 24.0399 10.2937 23.437 10.5463 23.2002C10.7189 23.0385 10.9984 23.016 11.1522 23.2135C11.3782 23.5039 11.308 24.0269 11.3087 24.3724L12.616 24.3703C12.6187 24.0397 12.5457 23.4521 12.7872 23.2097C13.2441 22.751 13.5337 23.2497 13.5451 23.7455L13.5552 24.3772L14.8399 24.3713C14.8518 23.9484 14.7462 23.011 15.4063 23.0575C15.9541 23.0961 15.8124 24.0274 15.8062 24.3795L17.1088 24.3795C17.1094 24.0929 17.07 23.7167 17.1492 23.4446L17.1574 23.4142C17.2626 23.0553 18.0906 22.7977 18.0966 23.7772L18.0969 24.3829L19.2951 24.368C19.3056 24.097 19.2651 23.3977 19.4708 23.2231C19.6741 23.0506 20.0114 23.0502 20.1792 23.2699C20.3715 23.5215 20.2988 24.0546 20.2938 24.3624L21.5273 24.3653C21.6291 24.0142 21.3933 23.3806 21.7758 23.1588C22.248 22.8851 22.4838 23.3512 22.4895 23.7474L22.4909 24.3607L23.7616 24.3616C23.7615 24.058 23.7194 23.4401 23.9444 23.2183C24.1016 23.0635 24.4455 23.001 24.6053 23.1892C24.8262 23.4492 24.7441 24.0391 24.7448 24.3656L25.0614 24.3734C25.3633 24.3731 25.733 24.4134 26.0261 24.3589C26.0305 24.1092 25.9909 23.3732 26.1678 23.2027C26.3442 23.0327 26.6959 22.9927 26.8681 23.1929C27.0704 23.4283 26.9935 24.0735 26.9909 24.3802L28.2539 24.3709C28.2546 24.0529 28.172 23.4852 28.4224 23.2474C28.6076 23.0714 28.9411 23.098 29.1021 23.2928C29.3151 23.5505 29.2413 24.0463 29.2332 24.3648C29.6044 24.3696 30.0134 24.4017 30.3812 24.3533C30.3838 24.0562 30.3387 23.662 30.4455 23.3845L30.4541 23.3594C30.6037 22.9477 31.1413 22.9946 31.2653 23.4147C31.3398 23.6674 31.308 24.0398 31.2811 24.302L32.8552 24.3011C33.0673 24.3007 33.377 24.3365 33.5752 24.2769C33.5754 24.015 33.5094 23.5235 33.6983 23.3268C33.8609 23.1576 34.1785 23.0998 34.357 23.2784C34.5576 23.4791 34.5142 23.9087 34.5019 24.1731L34.487 24.3582C34.6951 24.3664 34.9109 24.3636 35.1164 24.3977L35.1253 21.2934C35.1264 21.2058 35.141 21.1069 35.1031 21.0258C34.7892 20.9794 34.4435 21.0093 34.1244 21.0095L2.09187 21.0126ZM18.0198 1.65752C15.4945 4.03291 12.4106 7.64517 12.8144 11.3996C13.0589 13.6725 14.5848 15.8899 16.7691 16.6866L17.5763 16.9413L17.5839 14.5263C17.5836 14.2591 17.4824 14.2921 17.3014 14.1456L15.5312 12.6946C15.1276 12.3629 14.0758 11.7631 15.1179 11.3355C15.7327 11.5215 16.8286 12.736 17.4299 13.1625L17.5814 13.2906L17.5862 10.6978C17.5859 10.4063 17.296 10.3124 17.0892 10.1348L15.6447 8.90267C15.2794 8.59314 14.4155 7.98095 15.3678 7.63595C16.0065 7.85533 16.9505 8.99056 17.5805 9.42986L17.5841 5.34236C17.5843 4.98181 17.5612 4.62744 18.0378 4.57627L18.0694 4.58752C18.4891 4.7408 18.4748 4.97228 18.4573 5.35595L18.4514 9.28377C18.4516 9.33423 18.4412 9.40658 18.4624 9.45275L19.8035 8.33283C20.0129 8.15377 20.2271 7.92986 20.4576 7.78064C20.8238 7.54345 21.4594 8.01431 20.9504 8.49455C20.4824 8.93603 19.1984 10.039 18.6466 10.3717L18.5883 10.403C18.4182 10.4889 18.443 10.567 18.4451 10.7364L18.4612 13.2561C18.529 13.1512 19.0419 12.7785 19.1691 12.6723L20.1719 11.8317C20.35 11.6794 20.5241 11.5 20.7366 11.3958C21.1144 11.2106 21.6603 11.7402 21.2132 12.1561C20.7016 12.6319 20.1037 13.0396 19.5541 13.472C19.418 13.5791 18.4792 14.3119 18.4405 14.379L18.4483 16.6717C18.4482 16.742 18.4358 16.8299 18.4584 16.8952L18.4781 16.8881C18.8745 16.7498 19.2599 16.6634 19.6466 16.4825C22.7408 15.0357 23.8825 11.3972 22.7907 8.28197C21.9037 5.7508 19.9409 3.45619 18.0198 1.65752Z" fill="#324EF1"/>
</svg>
