<svg xmlns="http://www.w3.org/2000/svg" width="70" height="70" viewBox="0 0 70 70" fill="none">
  <path d="M31.9485 24.9666C35.5919 24.8788 41.6741 29.2413 42.2981 32.8092C42.6147 34.6186 42.1599 37.0762 41.0714 38.6158L41.1089 38.6456C41.5757 39.023 41.9977 39.518 42.4095 39.9547L58.1089 55.3814C58.9787 56.2376 60.0732 57.1796 60.1886 58.4792C60.404 60.9062 57.9752 63.0853 55.6762 62.2379C54.6399 61.8559 53.942 60.9154 53.2196 60.1302L43.3294 49.6788L39.0504 45.1559C38.2474 44.2945 37.4903 43.362 36.5661 42.6269C36.2374 42.7896 35.9084 42.9353 35.5583 43.0456L35.503 43.0635C33.8605 43.5833 31.9371 43.4017 30.4111 42.6117C27.2069 40.9528 24.4248 35.1294 24.4207 31.673C24.4195 30.6931 24.8428 29.6678 25.9082 30.4161C26.3762 30.7449 26.8038 31.2766 27.2031 31.6872L30.2973 34.8983C30.5876 35.1911 31.3138 36.1629 31.8126 36.0122L31.8554 35.9981C33.5769 35.4685 31.441 33.8202 30.866 33.2365L28.129 30.4219C27.8072 30.0783 27.3541 29.6703 27.1484 29.2491L27.1258 29.2008C26.7813 28.4747 27.5941 27.8995 28.2026 28.3082C28.6498 28.6084 29.0656 29.0549 29.4609 29.423L32.877 32.7576C33.3601 33.2286 34.0181 34.0658 34.6326 33.3208C34.7056 33.2323 34.968 32.7746 34.9457 32.6524C34.9119 32.4667 33.6218 31.2405 33.4303 31.047L29.6992 27.2178C27.9546 25.2282 30.2901 25.0855 31.9485 24.9666Z" fill="#324EF1"/>
  <path d="M33.3696 9.65196L35.6632 9.65137C37.2252 9.66058 37.1323 9.57863 37.2599 11.1963L37.4233 12.6809C37.6859 14.9161 38.058 14.8339 40.1242 15.5269C41.271 15.9114 41.7639 16.2405 42.8725 15.4795C43.964 14.7302 45.0317 13.4345 46.0954 12.844C46.7581 13.1914 47.9154 14.1363 48.4938 14.6531C48.8616 14.9817 48.6578 15.188 48.4769 15.5779L47.6012 17.4405C47.3554 18.0053 47.1136 18.627 47.1566 19.2544C47.2286 20.3052 48.9701 21.79 49.9929 21.9576C50.8073 22.091 53.202 21.097 54.4143 21.0034C54.8946 21.6876 55.2463 22.4017 55.6367 23.1379C54.8136 23.8409 51.871 25.6697 51.9124 26.8991C51.9349 27.5624 52.3733 29.0075 52.824 29.4828C53.8499 30.5651 56.8399 30.3328 57.2667 30.7717C57.475 30.9859 57.3879 33.3364 57.3858 33.7924C57.2542 33.9098 56.9275 33.9371 56.7469 33.969L54.8766 34.2567C52.7995 34.5873 52.1966 35.0601 51.5442 37.0447C50.6088 39.8904 51.9599 40.0911 53.7123 42.0487C54.2173 42.6128 53.3369 42.9647 52.827 43.3782L51.0811 44.762C50.772 44.9961 50.4605 45.2458 50.1269 45.4441L45.6222 41.0586C45.736 40.8592 45.9223 40.6923 46.075 40.5203C47.5818 38.8231 48.4269 36.7858 48.8864 34.5697C50.4452 27.0504 45.0761 19.2944 37.5542 17.8828C37.2079 17.8178 36.8432 17.7892 36.5018 17.7151L36.3926 17.6914C35.6324 17.5455 33.6119 17.6058 32.8265 17.6951C26.7098 18.3911 20.8755 23.4356 19.9195 29.6002C19.7449 30.7263 19.579 32.7188 19.7918 33.8551L20.0639 35.4617C20.2503 36.3401 20.5689 37.1914 20.9194 38.0158C21.3824 39.1105 22.0268 40.1195 22.737 41.0686C25.5272 44.7973 29.2948 46.7263 33.8961 46.7585C34.4411 46.7623 35.0692 46.7911 35.6048 46.6763L37.9851 46.0786C38.2229 46.2277 38.4095 46.4573 38.5942 46.6661L39.4112 47.609C39.8385 48.106 40.3234 48.6009 40.6911 49.1426C38.2991 50.2986 37.2117 49.6077 36.6546 52.8939L36.4055 54.3868C36.2333 55.3841 35.9823 55.1653 34.9048 55.1691L33.3764 55.1708C32.8248 55.1713 31.9675 55.4133 31.8385 54.8358C31.1739 51.8584 31.9217 49.9315 28.2868 49.3258C27.1534 49.137 26.3415 49.778 25.5293 50.4932L23.6242 52.2603C23.3087 52.5555 22.9948 52.8869 22.6444 53.1388C22.2837 53.1139 19.9805 51.0049 19.7114 50.7181C19.83 50.3917 20.0291 50.0804 20.2025 49.7801L21.2764 47.9039C21.5229 47.429 21.77 46.8994 21.8449 46.3637L21.8516 46.3138C21.8694 46.1857 21.8824 46.0773 21.858 45.949L21.8324 45.8149C21.6893 45.2067 20.9779 44.5593 20.5418 44.1375C19.6592 43.2836 19.5052 43.3394 18.3997 43.7692L16.7668 44.4542C16.2745 44.6715 15.7783 44.902 15.2535 45.0282L15.2292 45.0132C15.1277 44.9371 15.0618 44.8034 14.9998 44.6956L14.5936 43.9658C14.2691 43.3846 13.8208 42.8057 13.6791 42.1441C14.5664 41.2537 16.0036 40.9502 16.9668 39.6682C17.7197 38.666 17.3289 38.0008 17.0609 36.9287C16.9264 36.3903 16.8756 35.6778 16.5725 35.2044C16.0116 34.3279 13.6011 34.2977 12.6214 34.1969C11.6545 34.0972 11.3131 34.2005 11.355 33.1218C11.3661 32.834 11.4846 30.8304 11.6644 30.6471C11.8292 30.4792 12.9723 30.3275 13.2488 30.2706C15.5722 29.7931 17.1541 29.2858 17.2144 26.4895C17.2305 25.7438 16.5336 25.2813 16.0076 24.8709L14.5321 23.7804C14.1155 23.4927 13.6037 23.219 13.2499 22.8584C13.6188 22.0734 14.1493 21.3524 14.6494 20.6465C15.3809 19.6142 15.3162 19.8978 16.5332 20.2536C17.4008 20.5073 18.31 20.7769 19.2057 20.9024C20.6124 21.0995 22.1092 20.0894 22.2898 18.6417L22.2953 18.594C22.4492 17.4046 21.0676 15.5642 20.6606 14.2831C20.9957 13.9567 21.4459 13.6842 21.8231 13.4053L23.069 12.4757C24.0628 11.7827 24.0932 12.208 24.7941 12.9598C25.8865 14.1315 27.2594 15.9936 29.0102 15.4763C31.851 14.6369 31.9561 14.1543 32.7917 11.2809C32.9515 10.7313 33.0936 10.1567 33.3696 9.65196Z" fill="#324EF1"/>
</svg>
