<svg xmlns="http://www.w3.org/2000/svg" width="50" height="50" viewBox="0 0 50 50" fill="none">
  <path d="M42.6312 19.313C42.7237 19.3113 42.8506 19.307 42.9224 19.3726C43.1575 20.1908 44.5969 20.5979 43.6113 20.9788L42.7573 20.1606C42.5742 20.4019 42.2058 20.7666 41.9482 20.9209C41.5582 21.1544 41.2498 20.744 41.8151 20.2912C41.9987 20.1442 42.2026 19.9812 42.3216 19.7736C42.4622 19.5284 42.2915 19.4529 42.6312 19.313Z" fill="#324EF1"/>
  <path d="M6.85954 39.1723L9.11251 39.1543C9.50735 39.1544 9.93595 39.1191 10.3274 39.1581C10.6423 39.1894 10.6249 39.6535 10.3312 39.7369L7.25929 39.7262C7.11413 39.7268 6.96607 39.7365 6.8239 39.7028C6.64656 39.548 6.61785 39.2721 6.85954 39.1723Z" fill="#324EF1"/>
  <path d="M23.9065 34.4117C24.2368 34.3043 24.5611 34.8553 24.7477 35.0598C24.9216 34.8921 25.0253 34.6778 25.1931 34.5093C25.3893 34.3124 25.8026 34.4754 25.7514 34.7559C25.7055 35.0075 25.2746 35.2731 25.0836 35.4257C25.2762 35.6376 25.8444 36.0829 25.6122 36.3892C25.3343 36.6585 24.9053 36.0906 24.7407 35.9193L24.6066 36.0707C24.4652 36.2204 24.2179 36.4554 24.0012 36.4518C23.8542 36.4495 23.7341 36.2864 23.7573 36.145C23.7978 35.8985 24.2125 35.6013 24.3964 35.4561L23.9881 35.0743C23.7766 34.8524 23.6156 34.6456 23.9065 34.4117Z" fill="#324EF1"/>
  <path d="M18.6997 39.1536L42.2452 39.1543C42.3819 39.1545 42.5684 39.1308 42.6958 39.1719C42.9238 39.2455 42.9459 39.6906 42.6964 39.7204C42.4721 39.7473 42.2212 39.727 41.9945 39.7269L35.7787 39.724L11.8043 39.7232C11.408 39.7119 11.4587 39.1908 11.7639 39.1604C12.0062 39.1363 12.2664 39.1542 12.5103 39.154L18.6997 39.1536Z" fill="#324EF1"/>
  <path d="M37.2519 13.7328C37.6222 13.7274 37.505 14.1727 37.5048 14.4218L37.4976 20.6535C38.6846 20.6173 39.1867 20.721 39.0288 22.0687C39.0154 22.1834 38.9145 22.5235 38.9741 22.5993L39.7263 23.4632C39.9688 23.7442 40.2177 24.025 40.4302 24.3299C41.8973 26.4355 41.8292 29.2989 40.4457 31.4371L39.939 32.1934C39.6328 32.6239 39.3966 32.979 39.2467 33.4948C38.9506 34.5141 38.7305 35.1258 37.4591 35.2805L36.9871 35.2479C35.6924 35.0338 35.7596 33.8449 35.3751 33.0497C35.1852 32.6569 34.8313 32.2999 34.577 31.9448C32.5314 29.0901 32.5723 25.9644 34.9316 23.3102C35.3065 22.8885 35.5356 22.8511 35.487 22.3025L35.453 21.6518C35.4446 20.6097 36.0689 20.6355 36.9252 20.6488L36.9342 14.5432C36.937 14.1607 36.8138 13.8347 37.2519 13.7328ZM40.772 27.4224L33.5982 27.4627C33.6721 27.9452 33.6132 28.6007 33.7889 29.0653L40.8123 29.0569C41.0152 28.5684 40.985 27.941 40.9788 27.4269C40.9184 27.3864 40.8438 27.4031 40.772 27.4224ZM36.0391 22.9127L36.007 22.9218C35.7834 22.996 35.2198 23.9052 34.927 24.1035L38.3558 24.0996C38.737 24.0999 39.1382 24.1249 39.5161 24.0757C39.1773 23.6883 38.7524 22.9588 38.2399 22.925L36.0391 22.9127ZM36.139 21.2524C36.0288 21.3504 36.0154 21.4944 36.0067 21.6376L36.0092 22.3867L38.4153 22.3632L38.472 22.3266C38.7128 21.0049 38.2133 21.2414 37.1995 21.2403C36.8672 21.24 36.4969 21.2077 36.1685 21.2455L36.139 21.2524ZM36.4115 32.6528L35.9584 32.6713C35.9559 33.0049 36.0045 33.3199 36.086 33.6428C36.8824 33.7019 37.6323 33.7214 38.4223 33.5872C38.4936 33.5734 38.6313 33.5671 38.6793 33.5167L38.8288 32.9549C38.8503 32.8746 38.8923 32.7705 38.8882 32.6878L36.4115 32.6528ZM38.3685 34.1674C37.6608 34.3685 36.9361 34.3107 36.2233 34.1843C36.3149 34.276 36.4043 34.379 36.513 34.4503C37.2611 34.8553 37.867 34.7611 38.452 34.1674C38.398 34.1582 38.4259 34.1588 38.3685 34.1674Z" fill="#324EF1"/>
  <path d="M8.35048 9.77647L40.6276 9.76905C40.8975 9.76913 41.2923 9.71538 41.5404 9.80522C41.9541 10.2725 41.4759 10.3497 41.1237 10.3491L37.5092 10.348C37.4612 10.4482 37.4959 10.7398 37.4966 10.8604L37.4996 11.9413C37.4994 12.1799 37.5086 12.4219 37.4768 12.6587C37.3409 12.8212 37.0207 12.8372 36.9662 12.5987C36.9109 12.3569 36.9377 12.0602 36.9366 11.8111L36.9317 10.3651C36.4771 10.3176 35.9921 10.3496 35.5338 10.3491L25.2159 10.3487L25.22 15.6729C25.9172 15.6698 26.5285 15.6866 26.9455 16.3708L26.9616 16.398C27.4291 17.1531 26.9998 18.298 27.1614 18.5658C27.3334 18.8507 27.6674 19.0326 27.9262 19.2328C29.2786 20.2786 30.3033 21.4982 30.1538 23.3032C29.9823 25.3738 28.4731 26.7673 27.3684 28.3911C26.7837 29.2506 26.5781 29.6444 26.5208 30.7254C26.5102 30.9253 26.5133 31.1769 26.4504 31.367L26.4402 31.3965C26.2394 32.0131 25.3338 32.915 24.6127 32.7474C24.1227 32.6336 23.6509 32.1611 23.398 31.7425C23.1015 31.2519 23.1737 30.6515 23.0936 30.1025C22.8568 28.4801 21.2981 27.1724 20.4617 25.8332L20.0903 25.1408C19.3816 23.5569 19.4702 21.7908 20.6084 20.433C20.9184 20.0629 21.3094 19.7504 21.6798 19.4426L22.4867 18.808C22.5303 18.7731 22.6402 18.7059 22.6674 18.6617C22.9345 18.2286 22.0931 16.4824 23.6188 15.7837C23.9356 15.6386 24.3243 15.6551 24.6669 15.6525L24.663 10.3526L12.7641 10.3475C12.7353 10.5883 12.7604 10.859 12.7616 11.1026L12.762 16.8181L13.8792 16.7771C14.5687 16.7856 14.6257 17.543 14.6266 18.0358L14.6209 18.8538L15.4379 19.6445C17.64 21.9641 17.2465 25.6331 15.5576 28.1198L14.9978 28.9059C14.7223 29.2845 14.5952 29.5162 14.5081 29.9843C14.0449 32.4723 11.0249 32.4376 10.5723 30.2576C10.4087 29.4697 10.3527 29.4076 9.87204 28.7848L9.30954 27.9969C7.91157 25.9019 7.37133 22.6876 8.77868 20.4823C9.19977 19.8225 9.73618 19.2961 10.3299 18.7954C10.3557 18.688 10.3284 18.5446 10.3227 18.433L10.2943 17.688C10.2901 16.8883 10.7691 16.7898 11.464 16.8016L12.1975 16.8166L12.2 10.3498L9.48884 10.3483C9.04181 10.3482 8.58024 10.3743 8.1354 10.3404C7.83306 10.3173 7.6027 9.80124 8.35048 9.77647ZM9.14462 23.833C8.92501 23.8362 8.69102 23.8229 8.4736 23.8501L8.75829 25.5258L15.8131 25.5369L16.2013 25.5369L16.4624 23.8441L9.14462 23.833ZM10.7328 19.2016C10.2852 19.4835 9.7322 20.0166 9.49251 20.4757C9.46837 20.522 9.48017 20.5029 9.44251 20.5471L14.2138 20.5565C14.6151 20.5529 15.0528 20.5822 15.4474 20.5148C15.1877 20.0834 14.7747 19.7669 14.4208 19.417C14.1885 19.1874 14.2706 19.201 13.9192 19.1986L10.7328 19.2016ZM23.4963 18.4914L23.3641 18.5113C23.1086 18.9072 22.8655 19.2002 22.4852 19.4802C22.3121 19.6076 22.0188 19.7699 21.9311 19.9701L26.3606 19.9805C26.8823 19.98 27.4091 19.9924 27.9268 19.918C27.3983 19.5248 26.8267 19.1201 26.5054 18.5328C26.4833 18.4925 26.4916 18.5061 26.4491 18.4757L23.4963 18.4914ZM10.919 17.395C10.8341 17.5289 10.8513 17.7103 10.8527 17.8626L10.8697 18.6512H14.0635C14.1038 18.5637 14.0861 18.4336 14.0866 18.3382C14.0906 17.4284 14.1751 17.3785 13.2634 17.3762L11.3851 17.3753C11.233 17.3755 11.0687 17.3619 10.919 17.395ZM13.346 29.1983L11.8144 29.2002C11.5137 29.2009 11.1874 29.1786 10.8916 29.2317C10.9227 29.55 11.0122 29.8479 11.1131 30.1501L11.7064 30.1758L12.8888 30.1736C13.2484 30.1719 13.6149 30.1708 13.9682 30.0975L14.1122 29.2041L13.346 29.1983ZM25.1383 30.8777L23.667 30.896C23.7402 31.4845 24.0608 31.9017 24.6284 32.1376C25.072 32.2708 25.7869 31.7218 25.9052 31.3265C25.9482 31.1831 25.9572 31.0246 25.9801 30.8763L25.1383 30.8777ZM23.4789 29.4444C23.5127 29.7283 23.5431 30.0373 23.635 30.3091L26.0096 30.1636L26.1048 29.7136C26.1219 29.6248 26.1237 29.531 26.1539 29.4457L23.4789 29.4444ZM13.4093 30.7234C12.8184 30.8057 11.9484 30.807 11.3502 30.7402C11.4691 30.8833 11.579 31.0179 11.7483 31.1026C12.3993 31.4387 13.1703 31.3834 13.5878 30.7238C13.526 30.7187 13.4708 30.7189 13.4093 30.7234Z" fill="#324EF1"/>
</svg>
