<svg xmlns="http://www.w3.org/2000/svg" width="50" height="50" viewBox="0 0 50 50" fill="none">
  <path d="M24.7795 10.3423L28.7843 10.3535C30.6361 10.5397 30.6204 12.4216 30.4379 13.8306L34.8129 13.8534L34.8126 12.8571C34.8193 11.6414 35.629 11.5325 36.6161 11.5321L37.9736 11.5379C38.823 11.5564 39.0552 12.3214 39.0574 13.0237L39.0406 13.8485L40.3429 13.8473C41.6131 13.849 42.783 14.0867 43.1375 15.5884C43.214 15.9122 43.1831 16.2974 43.1837 16.6304L43.1843 18.2051L28.3158 18.1978L28.3456 18.9857L43.1852 18.9946L43.1847 34.4372C43.1846 35.111 43.2268 35.8177 43.1528 36.4868C43.0467 37.4458 42.0909 38.2267 41.1736 38.3435C40.9298 38.3746 40.6707 38.3574 40.4249 38.3577L19.9525 38.3584L10.0524 38.3574C9.67465 38.3578 9.24903 38.3961 8.87653 38.3375C7.48408 38.1185 6.88212 37.0521 6.88155 35.7589L6.87266 19.008L15.0129 18.9839L15.0135 18.231C14.8223 18.1749 14.5495 18.205 14.3483 18.2045L6.88362 18.1938L6.88046 16.5898C6.88012 16.2836 6.83843 15.9088 6.91723 15.6152L6.92859 15.5762C7.36492 14.0467 8.45309 13.847 9.77825 13.8441L11.0594 13.8433L11.0581 13.0182C11.0586 11.4463 11.9765 11.5308 13.2988 11.5312C14.5912 11.5316 15.2757 11.5585 15.2784 13.0377L15.2774 13.8535L19.2878 13.8466C19.5947 13.8463 19.856 13.7738 20.164 13.777L28.3392 13.8429C28.6182 13.8423 28.9134 13.8559 29.1871 13.7963C29.4016 13.7498 30.1902 13.8232 30.2895 13.7644C30.2351 13.669 30.2006 13.57 30.1636 13.4671C29.885 13.1968 29.535 13.3985 29.2634 13.3038C29.2938 12.1047 29.1031 12.0149 28.1133 12.0152L21.4308 12.02C20.7051 12.0446 20.8172 13.061 20.8033 13.5533C20.5827 13.5205 20.2876 13.5042 20.0684 13.5505C19.8978 13.5866 19.7193 13.7153 19.6659 13.4711L19.6598 13.441C19.5757 13.0474 19.5719 12.306 19.6419 11.91L19.6479 11.8774C19.9262 10.2517 21.544 10.3444 22.7565 10.3431L24.7795 10.3423ZM18.3886 17.2411C17.7124 18.0165 17.9786 18.3069 18.4402 19.0634C19.3422 20.5412 20.1259 20.8525 21.9425 20.7767L22.3822 20.7505C22.6109 20.7373 22.6358 20.7939 22.804 20.9606L23.5127 21.6863C24.0468 22.2399 24.658 22.7678 25.1186 23.3837C24.2811 24.3884 23.1671 25.1553 22.3419 26.1685L21.6672 25.4751C21.4086 25.1841 21.1637 24.8516 20.8563 24.6106C20.6544 24.7316 20.4602 24.8509 20.2374 24.9308C19.9372 24.7018 19.6661 24.455 19.3467 24.2494C17.5902 23.1184 15.0952 23.5471 13.8372 25.222C13.7274 25.3683 13.6318 25.5222 13.5724 25.6958L13.539 25.7908L16.0167 25.39C16.4017 25.3242 16.8076 25.2213 17.1975 25.2121C17.4807 25.8065 17.9819 26.4378 18.1825 26.9531C18.7226 28.3405 18.133 28.3359 17.5507 29.3244C17.4941 29.4204 17.334 29.8503 17.2671 29.8974C17.0717 30.0345 14.1757 30.4281 13.6492 30.5494C14.8163 32.0242 16.8183 32.1623 18.4597 31.5257C19.2349 31.2251 19.1448 30.8067 19.6463 30.2856C20.5761 29.3197 21.5895 28.4242 22.4793 27.4206L25.6674 24.0496C26.2909 24.7657 26.987 25.3989 27.6603 26.066L31.886 30.2881C32.4922 30.897 33.2631 31.9054 34.1309 32.1296L34.1711 32.1403C35.6251 32.5089 37.0618 31.0234 36.5252 29.5777L36.5115 29.5395C36.2747 28.8912 35.7241 28.4213 35.2487 27.9473L28.2662 21.0542C27.9981 20.7849 27.7213 20.5178 27.4785 20.2253C27.2014 20.3506 26.7466 20.808 26.4607 21.0013C25.1721 19.876 24.7957 19.4906 23.8344 18.0686L23.3822 17.5003C23.1472 17.7741 22.8708 18.0149 22.6194 18.2739C22.2272 18.6779 22.052 18.9722 21.4461 19.0124C19.7111 19.1277 19.5422 18.1259 18.3886 17.2411ZM35.6979 12.9517C35.5361 13.1292 35.567 13.6018 35.5641 13.834L38.1818 13.8467L38.2691 13.8341C38.2745 13.561 38.2744 13.2464 38.232 12.9781L35.6979 12.9517ZM11.8788 12.9471C11.8202 13.2339 11.8236 13.5364 11.8092 13.8284L14.4785 13.8456L14.4837 12.9867L11.8788 12.9471Z" fill="#324EF1"/>
</svg>
