<svg xmlns="http://www.w3.org/2000/svg" width="50" height="50" viewBox="0 0 50 50" fill="none">
  <path d="M14.0186 34.3713L14.3508 34.3584C14.2716 34.6404 14.1314 34.9111 14.0168 35.1806C13.371 36.6994 12.7775 37.9508 10.9254 37.8374C10.2415 37.7955 9.79098 37.4683 9.34848 36.9722C8.65449 36.0604 8.5434 35.3818 8.1748 34.4098L14.0186 34.3713Z" fill="#324EF1"/>
  <path d="M35.6738 34.3536L41.9159 34.354C41.5862 35.1689 41.3332 36.0017 40.853 36.7466C40.1494 37.722 38.9531 38.174 37.815 37.6635C36.9393 37.2706 36.5151 36.378 36.1576 35.5444L35.6738 34.3536Z" fill="#324EF1"/>
  <path d="M20.5479 32.2776L29.4875 32.2902C28.92 33.187 28.5639 34.1974 27.9336 35.1093C26.9944 36.3923 25.4632 37.0885 23.8896 36.5427C22.7529 36.1484 22.0875 35.2318 21.5226 34.2184L20.5479 32.2776Z" fill="#324EF1"/>
  <path d="M24.6621 21.519C27.6553 21.4593 30.4659 23.0911 31.4599 25.9858C31.4989 26.0995 31.515 26.2297 31.5661 26.3374L25.3451 26.3639L18.4092 26.3658C18.4804 26.1959 18.5079 25.9983 18.5744 25.8213C19.5673 23.1801 21.9334 21.6837 24.6621 21.519Z" fill="#324EF1"/>
  <path d="M38.5998 27.0616L38.6901 27.0593C39.2077 27.0486 39.7578 27.0903 40.257 27.2326C42.0684 27.7491 43.948 29.6354 43.9752 31.5835C43.9839 32.2136 43.8359 32.7736 43.3792 33.2343C42.8105 33.8081 42.1308 33.6944 41.3941 33.6946L39.0736 33.6941L35.5692 33.6955C34.5813 33.6939 33.7481 33.1397 33.6884 32.0755C33.5364 29.3639 35.9835 27.1957 38.5998 27.0616Z" fill="#324EF1"/>
  <path d="M10.9659 27.0616L11.0341 27.0573C11.5653 27.0373 12.1298 27.07 12.6419 27.2181C14.4197 27.7322 16.3493 29.6793 16.3832 31.5865C16.3942 32.2039 16.266 32.7592 15.8199 33.2123C15.2378 33.8036 14.5404 33.6973 13.786 33.6969L11.559 33.6942L8.23072 33.6954C7.15061 33.6999 6.16901 33.3084 6.08112 32.0483C5.89288 29.3489 8.43915 27.2417 10.9659 27.0616Z" fill="#324EF1"/>
  <path d="M18.2339 26.9897L31.777 27.0299C31.9729 28.3251 31.7931 29.9513 31.2496 31.1226C30.9958 31.5469 30.852 31.6129 30.383 31.6139L19.6848 31.6102C18.6615 31.5722 18.6038 30.9354 18.3789 30.0293C18.2192 29.3862 17.965 27.4333 18.2339 26.9897Z" fill="#324EF1"/>
  <path d="M24.7599 8.74275L24.8401 8.73259C25.6265 8.69134 25.4951 9.43986 25.4953 9.92564L25.4921 16.4956L27.0945 16.5136C27.3314 16.5236 27.5709 16.5631 27.8064 16.5698L30.4807 16.5817L33.1825 16.6857C33.4046 16.6952 33.6264 16.7359 33.8489 16.7404L35.5781 16.7546C35.7669 16.7613 35.9485 16.804 36.1349 16.8126L37.6257 16.8384C38.0518 16.857 38.5642 16.9802 38.9812 16.8585L41.9485 16.0155C42.3751 15.8972 42.8274 15.7305 43.2605 15.6537C43.9258 15.5357 44.2535 16.4396 43.67 16.7359C43.356 16.8952 42.9421 16.9738 42.6013 17.0719L39.9216 17.8281C39.7618 17.8736 39.5765 17.8857 39.4293 17.9594L39.428 24.9304L39.7221 24.9748C40.9486 25.1498 41.0432 25.9396 40.8264 27.0097C39.3438 26.427 38.1537 26.6356 36.7214 27.0302C36.6752 26.6748 36.6444 26.1357 36.7319 25.7863L36.7399 25.7569C36.8999 25.1202 37.7121 24.9992 38.2609 24.9381L38.2535 18.0242C37.8569 17.9661 37.4339 18.0074 37.0325 17.9914L33.7146 17.8893C33.485 17.8813 33.2577 17.8389 33.0281 17.8295L31.4212 17.8142C31.2428 17.8088 31.0718 17.7659 30.8948 17.7581L29.7042 17.7504C29.5178 17.7463 29.335 17.7124 29.1492 17.7074L27.036 17.6981C26.5225 17.6969 26.0082 17.6401 25.4967 17.6644L25.4872 18.6747L26.507 18.7157C26.8767 18.7206 27.4671 18.6163 27.7961 18.8194L27.8308 18.842C28.2153 19.0895 28.0858 19.5347 28.0847 19.9325L28.0783 21.6213C27.7273 21.1367 25.086 20.9877 24.541 21.0165C23.6439 21.0424 22.7265 21.2632 21.891 21.581C21.8435 21.0883 21.8757 20.562 21.8745 20.0659L21.8732 19.4702C21.8682 18.632 22.5958 18.7267 23.2836 18.7237L24.3764 18.7086L24.3587 17.6583C24.2303 17.6043 24.0492 17.6105 23.9103 17.5981L22.7649 17.5027C21.1557 17.3318 20.1427 17.0094 18.5039 17.2293L12.6368 17.9811C12.3242 18.0203 12.0085 18.0236 11.6968 18.0694L11.6764 24.9222L11.9423 24.9475C13.4115 25.1188 13.3585 25.7945 13.2013 27.0073L12.3401 26.7818C11.4428 26.5161 10.0265 26.7541 9.17464 27.0309C8.94214 25.6563 9.23612 25.2204 10.5228 24.9363L10.5243 18.011C10.3139 17.8948 9.97776 17.8477 9.74089 17.7794L7.78352 17.2033C7.36441 17.0817 6.91979 16.9872 6.51733 16.8187C5.74522 16.4955 6.03569 15.5374 6.82251 15.696C7.22265 15.7766 7.62319 15.9192 8.0144 16.0367L10.3575 16.7332C10.9699 16.9067 11.0807 17.006 11.7111 16.9152L18.4057 16.0611C19.0339 15.9796 19.5002 15.9226 20.1403 15.9861L24.3467 16.4458L24.3519 9.89431C24.3464 9.4065 24.2517 8.99978 24.7599 8.74275Z" fill="#324EF1"/>
</svg>
