<svg xmlns="http://www.w3.org/2000/svg" width="50" height="50" viewBox="0 0 50 50" fill="none">
  <path d="M22.412 39.5027L27.2802 39.5079C27.7759 39.5135 27.672 39.5592 28.0278 39.8575L29.6568 41.171C30.0882 41.5524 29.9866 41.574 30.5628 41.5748L31.8898 41.5764C32.0983 41.5767 32.486 41.5241 32.6535 41.6521C33.0431 41.95 32.9715 42.619 32.4489 42.72C32.2925 42.7503 32.1086 42.7333 31.9489 42.7322L27.72 42.7295L17.6059 42.7228C17.0975 42.6698 17.0141 41.8142 17.4435 41.6068C17.5615 41.5498 17.78 41.5773 17.9146 41.5768L19.3073 41.5747C19.7344 41.5739 19.8537 41.6602 20.1679 41.3603L21.726 40.0489C21.95 39.865 22.1696 39.6609 22.412 39.5027Z" fill="#324EF1"/>
  <path d="M10.3223 6.91937L38.2562 6.90873C39.0404 6.90938 39.862 6.83509 40.6207 7.0577C41.8776 7.42647 42.8737 8.56854 42.9637 9.89198C43.0021 10.4564 42.9726 11.0399 42.9721 11.606L42.9684 34.0699C42.9684 34.4636 42.9946 34.8833 42.9457 35.2735C42.7384 36.9283 41.2947 38.0692 39.6701 38.1483L11.3844 38.16C10.958 38.1598 10.5159 38.1824 10.0917 38.1432C8.55968 38.0017 7.40222 36.8149 7.11646 35.3261L7.08547 35.1301C7.04343 34.5932 7.07601 34.0303 7.07588 33.4914L7.07402 10.9914C7.06651 9.81205 7.02378 9.04354 7.87866 8.07604C8.51679 7.35377 9.3671 6.97465 10.3223 6.91937ZM18.7233 11.9864L10.1668 11.987L10.1656 32.0852L31.3352 32.088L39.8894 32.1073L39.885 11.987L18.7233 11.9864ZM26.5901 8.84682C25.6233 8.96448 25.5907 10.3028 26.6371 10.3446L37.1163 10.3501C37.5328 10.3501 38.0034 10.3936 38.4128 10.3371C39.2901 10.0617 39.349 8.83369 38.1144 8.84885L26.5901 8.84682ZM24.885 33.9917C23.2129 34.2535 23.4484 36.668 25.1572 36.5631C25.723 36.4774 26.2098 36.135 26.2973 35.5469L26.3036 35.5068C26.421 34.6954 25.7491 33.8211 24.885 33.9917ZM17.1683 8.65065C16.1312 8.92971 16.225 10.4231 17.447 10.3671C17.7953 10.2602 18.0715 10.0064 18.1441 9.64362L18.1505 9.61346C18.2716 9.00073 17.7177 8.61268 17.1683 8.65065ZM14.4773 8.66869C13.2765 9.00119 13.8532 10.6797 14.817 10.3763C15.8498 9.97823 15.6286 8.57612 14.4773 8.66869ZM19.9053 8.67088C18.7648 8.92229 18.9435 10.4452 20.1233 10.3552C21.2131 10.0937 21.0443 8.62409 19.9053 8.67088ZM11.883 8.69784C10.6961 9.02666 10.9998 10.385 12.1223 10.375C12.6043 10.2704 12.8721 9.80409 12.795 9.32619L12.7901 9.29229C12.7176 8.84073 12.2879 8.67862 11.883 8.69784Z" fill="#324EF1"/>
  <path d="M24.1065 15.4386C25.832 15.3899 26.0003 17.9079 24.2957 18.1636C22.5189 18.2003 22.3031 15.6333 24.1065 15.4386Z" fill="#324EF1"/>
  <path d="M19.7055 16.6074C21.8264 16.381 22.1523 19.1749 20.1908 19.6491C19.3905 19.7557 18.6522 19.2988 18.4504 18.5058L18.429 18.4196C18.2515 17.5664 18.8757 16.7609 19.7055 16.6074Z" fill="#324EF1"/>
  <path d="M26.8274 19.5903C28.8951 19.364 30.8916 20.8505 31.3042 22.8788C31.8728 22.8343 32.4966 22.774 32.9921 23.1114C33.3469 23.3531 33.2405 23.3852 33.6643 23.3175C35.0565 23.0953 36.065 23.8028 36.3609 25.1959L22.5523 25.2151L13.7151 25.2105C13.7298 25.1439 13.7673 25.0813 13.7908 25.0171C14.3941 23.3694 15.8205 22.7385 17.5188 22.923C17.6682 22.5789 17.7921 22.2382 17.9962 21.9184C19.4411 19.6545 22.1161 19.1768 24.3409 20.6113C25.0317 19.9741 25.904 19.6649 26.8274 19.5903Z" fill="#324EF1"/>
  <path d="M12.5325 26.5767L37.5489 26.6006C37.2127 27.7054 37.5696 28.882 36.8358 29.9467C36.5654 30.3456 36.01 30.6599 35.5225 30.6802L14.7041 30.6821C14.519 30.6753 14.3175 30.6521 14.145 30.5813L14.1111 30.567C12.9321 30.0819 12.8436 28.9674 12.7159 27.8371L12.5325 26.5767Z" fill="#324EF1"/>
</svg>
