<svg xmlns="http://www.w3.org/2000/svg" width="50" height="50" viewBox="0 0 50 50" fill="none">
  <g clip-path="url(#clip0_304_2178)">
    <mask id="mask0_304_2178" style="mask-type:luminance" maskUnits="userSpaceOnUse" x="0" y="0" width="50" height="50">
      <path d="M50 0H0V50H50V0Z" fill="white"/>
    </mask>
    <g mask="url(#mask0_304_2178)">
      <path d="M25.904 5.12029L25.9887 5.11133C26.9145 5.12304 26.8789 5.59797 26.8764 6.40441L26.8767 7.66588C26.8798 8.16594 26.8301 7.96852 27.2187 8.15985C28.9759 9.02485 29.4171 10.7487 28.9917 12.5085L26.0516 23.7546C25.9162 24.2608 25.8354 24.7945 25.6827 25.2927C25.4948 25.906 24.8197 25.9532 24.4398 25.5113C24.2344 25.1479 24.1819 24.6988 24.0835 24.2984L21.107 12.7317C20.6847 10.9879 20.8105 9.43571 22.5008 8.33399C22.7247 8.18805 22.9705 8.12477 23.1872 7.99016L23.1756 5.9176C23.164 5.10927 23.7487 5.1232 24.3814 5.12183L25.904 5.12029Z" fill="#324EF1"/>
      <path d="M13.2972 18.1934L19.7238 18.1868C20.4732 18.1878 21.2722 18.0827 21.2154 19.0834C21.1917 19.5029 21.1243 19.9198 21.0735 20.3364L20.3889 26.1836C20.352 26.4633 20.3427 26.8002 20.2635 27.069L29.6537 27.0881C29.6716 26.8938 29.6338 26.6783 29.611 26.4845L28.8167 19.3769C28.7546 18.5763 28.8429 18.1877 29.6955 18.1868L36.7931 18.1874C37.3714 18.2076 37.5682 18.9581 37.7828 19.39L41.219 26.2146C41.4864 26.726 41.7715 27.239 41.9806 27.7777C42.1292 28.1604 42.0463 28.6463 42.0453 29.0499L42.0438 37.1211L42.041 41.3878C42.0388 42.2894 41.956 42.5597 40.9474 42.5603L8.82681 42.567C8.70634 42.5676 8.56001 42.581 8.45189 42.5195L8.42345 42.5024C7.96439 42.2288 7.98783 41.8832 7.98642 41.4131L7.98478 28.5603C7.98408 27.9828 7.96861 27.9331 8.22134 27.4215L12.1766 19.6227C12.4095 19.176 12.6096 18.335 13.1794 18.2153L13.2972 18.1934ZM20.1606 28.6108L20.1742 41.0535L29.7295 41.0253L29.7247 28.6492C29.423 28.5777 29.047 28.6148 28.7341 28.6145L20.1606 28.6108ZM31.7454 28.6138L31.2131 28.6266L31.2379 41.0174C31.2956 41.0435 31.3699 41.0326 31.4334 41.0323L40.0702 41.0345L40.5399 41.0487L40.522 28.6534C40.2085 28.5977 39.8686 28.615 39.5507 28.6143L31.7454 28.6138ZM9.49533 28.6113L9.49712 41.026L18.6588 41.0365L18.645 28.6276L9.49533 28.6113ZM30.3545 19.6785L31.1589 27.0889L39.9584 27.0819C39.7738 26.6634 39.5446 26.271 39.3274 25.8695L36.3845 20.0392C36.333 19.924 36.2907 19.7842 36.2066 19.6896L30.3545 19.6785ZM13.8865 19.6765C13.4819 20.2966 13.1528 20.9899 12.827 21.6547L10.6988 25.8846C10.6174 26.0456 10.1484 27.0337 10.1013 27.0888L15.8485 27.0868L18.7432 27.0871C18.803 26.8592 18.8107 26.6111 18.841 26.377L19.6156 19.7092L13.8865 19.6765Z" fill="#324EF1"/>
    </g>
  </g>
  <defs>
    <clipPath id="clip0_304_2178">
      <rect width="50" height="50" fill="white"/>
    </clipPath>
  </defs>
</svg>
