<svg xmlns="http://www.w3.org/2000/svg" width="50" height="50" viewBox="0 0 50 50" fill="none">
  <path d="M23.47 16.7114L23.4812 16.7112C23.664 16.7278 23.9094 16.9215 24.064 17.0182L25.2204 17.7455C25.7011 18.0447 26.319 18.3045 26.6976 18.734C26.5302 18.975 26.3197 19.1414 26.0858 19.3145L25.4972 19.6962C25.1508 19.8925 24.7903 20.0213 24.3926 19.9029C23.5409 19.6493 23.61 18.7243 23.5265 17.9992C23.4833 17.6251 23.3551 17.0813 23.47 16.7114Z" fill="#324EF1"/>
  <path d="M28.689 16.1456C28.9624 16.355 29.1062 16.6484 29.333 16.8979C29.7169 17.3201 29.9758 17.1439 29.1915 17.8653C28.8243 17.5364 28.436 16.9482 28.1416 16.7365L28.1004 16.8214C27.9637 17.1023 28.0665 17.4309 28.0255 17.7336C28.0008 17.9162 27.5576 18.4514 27.3877 18.5647C26.8753 18.3265 26.3839 17.9907 25.9029 17.6943C24.995 17.1346 23.9722 16.5757 23.1813 15.8498C23.4336 15.1896 24.096 14.5614 24.628 14.0957L20.1134 10.5307C19.8812 10.3464 19.5742 10.1421 19.3974 9.90442C19.149 9.57043 19.6071 9.11707 19.96 9.37512C20.2767 9.60668 20.5717 9.88863 20.8829 10.1321L24.979 13.3497C25.3819 13.657 25.6942 13.9491 26.1944 13.6562L26.2176 13.6421C26.6161 13.8511 26.9367 14.3121 27.2664 14.6174C27.6289 14.9531 28.4233 15.4921 28.5851 15.9729L28.5994 16.0195C28.6268 16.0627 28.6512 16.111 28.689 16.1456Z" fill="#324EF1"/>
  <path d="M28.6894 16.1455C28.6424 16.2711 28.6342 16.3042 28.5285 16.4078L28.4867 16.3843C28.4278 16.2191 28.5316 16.1756 28.5998 16.0194C28.6271 16.0626 28.6516 16.1109 28.6894 16.1455Z" fill="#E2E4EC"/>
  <path d="M20.0113 16.2705L20.3197 16.2743C21.4143 16.3805 22.294 17.3187 22.4223 18.3984C22.5376 19.3689 22.128 20.5529 22.027 21.5492C22.2053 21.739 22.5037 21.8822 22.7235 22.0214L27.3428 24.9829C27.7701 25.2732 27.8258 25.4264 27.9169 25.9111C28.1521 26.0468 28.3719 26.2507 28.5896 26.4156L34.8235 30.9252C34.9832 31.0311 34.9702 31.0371 35.15 30.9497C36.1609 30.4586 37.181 30.1692 38.3186 30.4167C40.8591 30.9693 42.2451 33.4916 41.7035 35.935L43.9863 35.9528C44.112 35.9522 44.2537 35.9388 44.3733 35.9814C44.6248 36.2146 44.5676 36.6924 44.1673 36.707L21.361 36.7053C21.3618 36.5627 21.3677 36.4229 21.3912 36.282L22.816 29.6139C22.8625 29.4153 22.8885 29.1671 22.9809 28.9859C23.0801 28.9011 23.6439 28.7311 23.7647 28.8179L22.4718 35.1176C22.4043 35.4013 22.3854 35.6904 22.3618 35.9803L28.6284 35.9583L28.6085 35.7149C28.1291 32.4339 31.107 30.2322 34.0906 31.803L34.285 31.598C34.1116 31.4402 33.9033 31.3095 33.713 31.1725L29.7175 28.2253L27.6886 26.7427C27.1862 27.1845 26.5098 27.617 25.819 27.3314C25.4123 27.1634 25.0733 26.773 24.6939 26.5316L20.073 23.6133C19.143 22.9367 19.2833 22.816 19.0921 21.7407L18.621 19.1847C18.5595 18.8096 18.5058 18.4443 18.3614 18.09C18.2073 18.4167 18.2194 18.5816 18.2623 18.9453L18.7444 21.9907C18.8016 22.3041 18.9241 22.7204 18.8943 23.0346C18.8533 23.4676 17.791 23.6766 18.7108 24.0673L21.5783 25.2478C22.4 25.6286 23.2033 26.0818 23.9881 26.5333L24.5394 26.8521C24.6934 26.945 24.8465 27.0036 24.8055 27.2094C24.6647 27.9175 24.4485 28.1133 23.8395 28.3323C23.1257 28.589 23.0241 28.6651 22.3151 28.4181L19.1129 27.2376C18.4901 27.0095 17.8859 26.7804 17.2366 26.6375C17.2958 26.8838 17.4625 27.1665 17.5768 27.3925L18.5645 29.3047C18.737 29.6537 18.9616 30.0451 19.0201 30.4329L19.0253 30.4687C19.082 30.8289 18.9662 31.2607 18.8949 31.6167L18.3607 33.9003C18.2123 34.5113 18.0958 35.1526 17.8896 35.7463C17.4608 36.9807 15.6051 37.0947 15.0641 35.873C14.7863 35.2458 15.0808 34.3944 15.3184 33.7927C14.6605 34.3058 13.9303 34.7482 13.2983 35.2929C12.9052 35.6316 12.6191 36.0934 12.1915 36.3932C10.2416 37.76 8.22843 35.0326 10.0073 33.5746C10.1553 33.4533 10.3275 33.3563 10.4865 33.2498L13.583 31.0727C14.9071 30.1639 15.3523 30.2092 14.4807 28.7529L13.166 26.5087C12.8409 25.9574 12.3712 25.3686 12.2905 24.7192C12.1413 23.516 12.6237 22.9771 13.3578 22.1979L17.2582 17.8708C18.028 16.9743 18.7865 16.3964 20.0113 16.2705Z" fill="#324EF1"/>
</svg>
