<svg xmlns="http://www.w3.org/2000/svg" width="50" height="50" viewBox="0 0 50 50" fill="none">
  <path d="M37.8514 14.4654L37.9269 14.4554C38.4059 14.8601 38.153 14.9476 37.7916 15.2886C37.6834 15.164 37.5864 15.0515 37.4396 14.9717L37.4082 14.9551C37.4983 14.762 37.6513 14.5515 37.8514 14.4654Z" fill="#324EF1"/>
  <path d="M41.5088 14.5142C41.7541 14.4404 42.3402 14.798 41.8821 15.2731L41.8523 15.2797C41.6865 15.2979 40.966 14.9376 41.5088 14.5142Z" fill="#324EF1"/>
  <path d="M37.5296 7.2876C37.875 7.19014 38.4492 7.68778 37.8308 7.97118C37.5688 8.03556 37.334 7.73824 37.2007 7.54527C37.2569 7.42586 37.4153 7.34194 37.5296 7.2876Z" fill="#324EF1"/>
  <path d="M41.6211 7.23882C41.7286 7.22023 42.0665 7.43186 42.1066 7.51959C42.0314 7.67127 41.7747 7.94498 41.6379 8.03412L41.5542 8.0399C41.43 7.95248 41.1805 7.59118 41.1533 7.45856C41.2235 7.33329 41.4915 7.2808 41.6211 7.23882Z" fill="#324EF1"/>
  <path d="M36.0395 8.72799C36.1733 8.7033 36.5145 8.924 36.6387 9.00221C36.8486 9.13416 36.5834 9.51651 36.4949 9.65236C36.084 9.38463 35.5621 9.15049 36.0395 8.72799Z" fill="#324EF1"/>
  <path d="M36.4716 13.0635C36.6513 13.0258 36.7748 13.245 36.7791 13.4027C36.6936 13.602 36.3548 13.7748 36.1688 13.8799L36.0955 13.8926C35.9765 13.8055 35.8084 13.4351 35.8391 13.3057C36.0366 13.2023 36.2615 13.1379 36.4716 13.0635Z" fill="#324EF1"/>
  <path d="M42.646 13.0738C42.7393 13.0532 42.7782 13.0627 42.8645 13.1019L43.3645 13.3351C43.316 13.5037 43.2676 13.8159 43.1514 13.9413C42.926 13.9048 42.6124 13.6667 42.438 13.515C42.4649 13.3188 42.4999 13.2151 42.646 13.0738Z" fill="#324EF1"/>
  <path d="M43.0719 8.75244H43.1457C43.2764 8.91088 43.3475 9.06127 43.409 9.25393C43.2221 9.374 43.0235 9.529 42.8098 9.59229C42.4546 9.57705 42.1337 9.01268 43.0719 8.75244Z" fill="#324EF1"/>
  <path d="M35.1978 10.7876C35.5118 10.8039 35.8922 10.8404 36.2044 10.7968L36.2288 11.5305L35.2624 11.555L35.1978 10.7876Z" fill="#324EF1"/>
  <path d="M39.4087 14.0614L40.0918 14.0722L40.1103 15.5762L39.635 15.5831C39.5646 15.5824 39.4771 15.5916 39.4116 15.5659L39.4087 14.0614Z" fill="#324EF1"/>
  <path d="M39.6087 5.44797L39.8491 5.44763C40.4718 5.52801 40.4161 6.45476 40.34 6.88894C40.1509 6.93252 39.969 6.95587 39.7761 6.97134C39.6498 6.974 39.1936 7.0273 39.1332 6.8783C38.8981 6.29746 38.9753 5.66823 39.6087 5.44797Z" fill="#324EF1"/>
  <path d="M39.2599 7.35215C39.5124 7.34319 39.7985 7.32394 40.0407 7.36655L40.0539 10.7702L43.8159 10.7681C44.3457 10.7684 44.4219 11.0343 44.2279 11.56C44.1785 11.6141 44.119 11.6146 44.0578 11.616L40.1737 11.6135C39.897 11.6124 39.293 11.7011 39.2597 11.3011C39.2236 10.8686 39.256 10.4028 39.2567 9.96668L39.2599 7.35215Z" fill="#324EF1"/>
  <path d="M9.29642 37.2126L38.5634 37.2158C38.9326 37.2149 39.3163 37.189 39.6839 37.212C40.6403 37.2717 41.0884 39.026 39.7025 39.3748C39.3062 39.4267 38.8909 39.4038 38.4917 39.4039L9.88564 39.4036C9.67798 39.4033 9.44509 39.4257 9.244 39.3686C8.64494 39.1987 8.20501 38.6376 8.40728 38.0017L8.42001 37.9639C8.55548 37.5512 8.8897 37.3211 9.29642 37.2126Z" fill="#324EF1"/>
  <path d="M26.0949 10.9929C26.8953 10.8859 27.3843 11.5656 27.8955 12.0602L34.7123 18.847C35.0844 19.2279 35.5089 19.5943 35.5382 20.1593L35.5499 33.9451C35.5498 34.7881 35.5942 35.6622 35.5316 36.5018L34.5759 36.4999L33.1282 36.4931C33.0676 36.3516 33.1098 36.0383 33.1091 35.8705L33.0992 20.9093C33.0975 20.8475 33.1074 20.75 33.0809 20.696L33.0619 20.6689C32.9862 20.5595 32.5235 20.1902 32.3781 20.0507L26.4648 14.1736C26.1228 13.8347 25.7603 13.5026 25.438 13.1453C24.7002 12.3269 25.0372 11.2225 26.0949 10.9929Z" fill="#324EF1"/>
  <path d="M20.0004 14.0768C20.3553 14.2495 20.6846 14.5047 21.0103 14.7283L30.0971 20.7791C30.1843 20.8355 30.3153 20.8765 30.3823 20.9505C30.4332 21.0068 30.4037 22.4728 30.4034 22.6768C30.1194 22.6019 29.7159 22.646 29.4198 22.6452L19.7202 22.644L9.27529 22.6488L9.24951 21.0751L20.0004 14.0768Z" fill="#324EF1"/>
  <path d="M11.229 23.3132L28.4928 23.3332L28.4915 36.5153L11.2298 36.5013L11.229 23.3132ZM12.6834 29.5745C12.038 29.6425 12.2447 30.3114 12.6183 30.325L27.1303 30.3192C27.7035 30.2147 27.5743 29.5767 27.0623 29.5678L12.6834 29.5745ZM12.7531 26.1336C12.6006 26.1425 12.4289 26.1426 12.2961 26.2273C12.1663 26.7768 12.2899 26.8775 12.8254 26.8782L27.0782 26.8788C27.7361 26.7836 27.5549 26.1326 27.0989 26.126L12.7531 26.1336ZM26.7788 33.0761L12.7595 33.0821C12.6402 33.0821 12.4958 33.0644 12.385 33.1089C12.3014 33.2775 12.2621 33.5479 12.3238 33.7304L12.3406 33.7749C12.5467 33.8383 12.8123 33.8129 13.0281 33.8114L27.1642 33.8069C27.2535 33.8029 27.3417 33.7972 27.4204 33.7526C27.63 33.0962 27.3775 33.0518 26.7788 33.0761Z" fill="#324EF1"/>
</svg>
