<svg xmlns="http://www.w3.org/2000/svg" width="50" height="50" viewBox="0 0 50 50" fill="none">
  <path d="M18.6703 16.8809C18.7249 17.2398 18.66 17.611 18.7256 17.9709C18.9978 19.4658 19.6492 20.7158 21.0898 21.4179C21.3034 21.522 21.5071 21.6198 21.744 21.6568L21.7723 21.6609C21.7146 22.0359 21.5858 22.6536 21.719 23.0241C21.7811 23.197 21.9058 23.3471 21.9734 23.5198C22.2189 24.1477 21.8256 25.1318 21.5787 25.7241C20.8008 27.5902 19.0291 30.0302 16.7167 29.0702C15.9098 28.7579 15.17 28.0855 14.6752 27.3839C14.1512 26.6409 13.1021 24.5 13.291 23.5785C13.3364 23.3573 13.5436 23.2134 13.7184 23.0947L13.5396 22.2455C13.2699 21.1612 13.2725 19.9923 14.0641 19.1036C14.2065 18.9438 14.3978 18.8389 14.5383 18.6786C14.7192 18.4721 14.8155 18.2046 15.0029 17.9961C15.8098 17.0985 17.5602 16.936 18.6703 16.8809Z" fill="#324EF1"/>
  <path d="M13.9333 29.9158C14.0276 29.8966 14.1604 29.8915 14.2567 29.9073C14.6247 29.9681 15.0834 31.6 15.2072 31.9282L16.3538 34.6894C16.4947 34.9996 16.6315 35.3862 16.8259 35.6637L17.0427 33.4377C17.1171 32.834 16.9999 31.7156 17.107 31.2621C17.1835 30.9381 17.6509 30.7634 17.9429 30.8489L17.9679 30.857C18.6963 31.0818 18.4118 32.092 18.4654 32.6825C18.5538 33.6583 18.7295 34.6263 18.7826 35.6057C19.404 34.4104 19.8662 33.1241 20.3451 31.8666L20.7242 30.8592C21.0463 29.9991 21.043 29.8409 21.9466 29.9845C23.0448 30.1591 26.3641 31.1536 26.7598 32.3447C26.7867 32.4255 26.7718 32.5584 26.7714 32.6447L26.7684 33.2948C26.7651 34.0337 26.7202 34.8023 26.8155 35.5349C26.8588 36.0816 26.9413 36.623 27.0479 37.1608L27.2684 38.0905C27.3336 38.3383 27.4416 38.6322 27.4113 38.8911C27.2943 39.8932 25.9435 39.699 25.2424 39.6991L10.2016 39.6988C8.9332 39.6989 8.23617 39.5623 8.2482 38.174L8.44601 33.8331C8.48578 33.3619 8.49968 32.8875 8.69265 32.4477C9.29273 31.0795 12.5234 30.1066 13.9333 29.9158Z" fill="#324EF1"/>
  <path d="M34.8518 27.4705C35.533 27.448 36.1965 27.7334 36.8455 27.9044L38.3087 28.2813C39.0069 28.4571 39.8473 28.5381 40.1271 29.3215C40.2382 29.6326 40.2558 29.9421 40.423 30.2402C40.8176 30.9428 41.8802 31.0706 42.0387 31.914C42.0741 32.1024 42.0545 32.3243 42.0549 32.5165L42.0566 33.685C42.058 35.9484 42.1429 37.516 40.7138 39.5143C39.5144 41.1916 37.2541 42.6196 35.1905 42.9673C34.7925 42.9871 34.4344 42.8919 34.057 42.7771C31.1953 41.9061 28.7845 39.6676 28.1323 36.6823C28.0958 36.515 28.0841 36.3395 28.0405 36.1746L28.0107 36.0421C27.9477 35.6544 27.9646 35.2449 27.9637 34.8529L27.9545 32.5153C27.884 30.6263 29.4027 31.4027 29.836 29.7314C30.0984 28.7192 30.2155 28.6332 31.2865 28.3846L33.64 27.7749C34.0429 27.6614 34.4372 27.5356 34.8518 27.4705ZM34.9554 30.254L32.3391 30.9049C32.0874 31.5147 31.6044 32.4519 30.9532 32.736C30.8602 32.7766 30.8009 32.7935 30.7269 32.8666L30.7168 34.4863C30.7169 34.9038 30.703 35.3281 30.7537 35.7431C30.9991 37.7467 32.5801 39.3635 34.4477 39.9942C34.6232 40.0535 34.8362 40.1319 35.0236 40.1286L35.0472 40.1267C37.0287 39.5476 38.7008 38.4632 39.1818 36.2795C39.3394 35.564 39.3874 33.7412 39.2777 32.9617C38.7454 32.4798 38.2479 32.0542 37.9209 31.4053C37.715 30.9967 37.7172 30.9799 37.2724 30.8663L36.2955 30.6091C35.8877 30.4946 35.3827 30.2392 34.9554 30.254Z" fill="#324EF1"/>
  <path d="M36.9 33.7666L36.9236 33.7652C37.3773 33.7453 37.8145 34.3137 37.528 34.7122C37.4255 34.8548 37.2693 34.9759 37.1404 35.0952L35.0745 37.0338C34.7563 37.3389 34.4935 37.5181 34.1401 37.1837L33.3784 36.3945C33.1159 36.1302 32.677 35.7521 32.6777 35.3535C32.6784 35.0162 32.9755 34.7706 33.3056 34.7924C33.8205 34.8265 34.2341 35.4586 34.5467 35.8214C35.1148 35.37 36.3715 33.9656 36.9 33.7666Z" fill="#324EF1"/>
  <path d="M23.0464 5.94272L31.7284 5.93919C32.0492 5.93943 32.4136 5.90825 32.7286 5.96366C34.2302 6.2278 35.3727 7.57762 35.3904 9.10643L35.3946 16.9724C35.3937 17.3374 35.4201 17.7317 35.358 18.0917C35.1384 19.3654 34.2173 20.4874 32.9137 20.7547C32.4763 20.8444 32.0268 20.8236 31.5831 20.8238L29.9719 20.8225L28.2005 20.8212C27.7873 20.8212 27.5266 20.7299 27.1827 20.9818L24.352 22.9299C23.5886 23.4495 23.0738 23.7147 23.0719 22.4469L23.0721 21.3245C23.0722 20.5953 22.9056 20.7172 22.2406 20.5105C21.1535 20.1726 20.2027 19.156 20.098 17.9896C20.0546 17.5072 20.075 17.0136 20.0758 16.5295L20.0829 8.84635C20.1424 7.30631 21.5458 6.02897 23.0464 5.94272ZM27.6053 9.21447C26.4028 9.30463 25.3685 9.74916 24.5715 10.6736C22.0913 13.5503 24.1312 17.746 27.9342 17.6519C28.1989 17.6286 28.4773 17.6157 28.7347 17.5492C33.7673 16.2485 32.4969 8.93549 27.6053 9.21447Z" fill="#324EF1"/>
  <path d="M27.428 10.4784C31.5255 10.2959 31.8505 16.0559 28.0568 16.3931C24.3012 16.8854 23.3912 11.1273 27.428 10.4784Z" fill="#324EF1"/>
</svg>
