<svg xmlns="http://www.w3.org/2000/svg" width="50" height="50" viewBox="0 0 50 50" fill="none">
  <path d="M26.9925 31.1627C30.5043 30.9591 31.0635 35.9457 27.5854 36.472C23.7629 36.628 23.6915 31.4837 26.9925 31.1627ZM27.0316 32.5011C25.1961 32.8608 25.6033 35.4401 27.4782 35.1728C29.3473 34.7959 28.7561 32.2457 27.0316 32.5011Z" fill="#324EF1"/>
  <path d="M16.1071 31.1376C19.5957 30.8898 20.154 35.9881 16.6319 36.4654C13.0155 36.7645 12.6797 31.3553 16.1071 31.1376ZM16.1246 32.4505C14.2097 32.8404 14.7927 35.4107 16.5829 35.2011C18.257 34.884 18.1413 32.3736 16.1246 32.4505Z" fill="#324EF1"/>
  <path d="M40.4116 8.28198L44.1781 8.2887C45.7292 8.37167 45.4934 10.4163 44.4165 10.5856C44.1916 10.6209 43.9424 10.6014 43.7152 10.6017L40.7909 10.6004C40.5711 10.5998 39.8224 10.6913 39.677 10.5054C39.7292 10.3681 39.7234 10.2271 39.7255 10.0822C39.2066 10.0027 38.2616 9.95456 37.7832 10.0231L37.5609 10.061C36.4814 10.3218 35.9155 11.636 35.3607 12.4789L28.8423 22.1424C28.757 22.2762 28.6946 22.4203 28.6093 22.5564L31.5998 22.5656L31.6075 33.3305L30.7555 33.3219C30.5646 32.625 30.3718 31.9727 29.8884 31.4127C27.9107 29.1221 23.9916 30.3458 23.7989 33.3509L19.9034 33.3553C19.8277 33.171 19.8199 32.9083 19.7656 32.7074C18.6526 29.3147 13.9371 29.3353 12.9676 32.7026C12.9044 32.922 12.8826 33.1402 12.837 33.3621L10.6289 33.3726C10.677 32.7287 10.8128 32.0788 10.913 31.44L11.1966 29.7434C11.2828 29.2626 11.364 28.791 11.5134 28.3242C12.4459 25.4112 15.1562 23.2075 18.1396 22.6825C19.1302 22.5081 20.1504 22.5567 21.152 22.5565L26.4757 22.5555C27.3339 22.5546 27.0465 22.601 27.5048 21.9467L30.4199 17.7001L34.8696 11.0332C36.4955 8.46167 37.1208 8.87683 39.6448 8.75636C39.8148 8.21331 39.7056 8.30597 40.4116 8.28198Z" fill="#324EF1"/>
</svg>
