<svg xmlns="http://www.w3.org/2000/svg" width="51" height="50" viewBox="0 0 51 50" fill="none">
  <path d="M23.4874 17.8335C26.0898 17.7707 30.4343 20.8868 30.88 23.4353C31.1061 24.7277 30.7812 26.4831 30.0037 27.5828L30.0305 27.6042C30.364 27.8737 30.6654 28.2273 30.9595 28.5392L42.1734 39.5583C42.7947 40.1699 43.5765 40.8427 43.6589 41.771C43.8127 43.5046 42.0779 45.061 40.4358 44.4558C39.6955 44.1829 39.197 43.5111 38.681 42.9503L31.6166 35.485L28.5602 32.2543C27.9866 31.6391 27.4458 30.973 26.7857 30.4479C26.5509 30.5642 26.3159 30.6682 26.0658 30.747L26.0263 30.7598C24.8531 31.131 23.4793 31.0014 22.3893 30.4371C20.1005 29.2521 18.1133 25.0926 18.1104 22.6237C18.1095 21.9238 18.4119 21.1914 19.1729 21.726C19.5072 21.9608 19.8126 22.3406 20.0978 22.6338L22.3079 24.9275C22.5153 25.1367 23.034 25.8308 23.3903 25.7231L23.4209 25.7131C24.6505 25.3348 23.1249 24.1574 22.7142 23.7405L20.7592 21.7301C20.5293 21.4846 20.2057 21.1932 20.0587 20.8924L20.0426 20.8578C19.7965 20.3392 20.3771 19.9284 20.8118 20.2203C21.1311 20.4347 21.4282 20.7536 21.7105 21.0166L24.1506 23.3985C24.4957 23.7349 24.9657 24.3328 25.4046 23.8007C25.4568 23.7375 25.6442 23.4106 25.6283 23.3233C25.6041 23.1906 24.6826 22.3148 24.5458 22.1766L21.8807 19.4414C20.6346 18.0202 22.3028 17.9184 23.4874 17.8335Z" fill="#324EF1"/>
  <path d="M24.5026 6.8941L26.1409 6.89368C27.2566 6.90025 27.1902 6.84172 27.2813 7.99718L27.3981 9.05765C27.5856 10.6542 27.8514 10.5955 29.3273 11.0905C30.1464 11.3651 30.4985 11.6002 31.2903 11.0566C32.07 10.5214 32.8326 9.59593 33.5924 9.17413C34.0658 9.42226 34.8924 10.0972 35.3056 10.4663C35.5683 10.7011 35.4227 10.8484 35.2935 11.1269L34.668 12.4573C34.4924 12.8608 34.3197 13.3048 34.3504 13.753C34.4018 14.5036 35.6458 15.5641 36.3764 15.6838C36.9581 15.7791 38.6685 15.0691 39.5345 15.0023C39.8775 15.491 40.1288 16.0011 40.4076 16.5269C39.8197 17.0291 37.7178 18.3353 37.7474 19.2135C37.7635 19.6873 38.0767 20.7195 38.3985 21.059C39.1314 21.832 41.2671 21.6661 41.5719 21.9796C41.7207 22.1327 41.6585 23.8116 41.657 24.1373C41.563 24.2211 41.3296 24.2406 41.2007 24.2634L39.8647 24.4689C38.381 24.7051 37.9504 25.0427 37.4844 26.4603C36.8163 28.493 37.7814 28.6363 39.0331 30.0346C39.3938 30.4376 38.7649 30.6889 38.4007 30.9843L37.1536 31.9727C36.9328 32.1399 36.7103 32.3183 36.4721 32.4599L33.2544 29.3274C33.3357 29.185 33.4688 29.0658 33.5778 28.9429C34.6542 27.7306 35.2578 26.2754 35.586 24.6925C36.6994 19.3216 32.8643 13.7816 27.4916 12.7733C27.2442 12.7269 26.9837 12.7064 26.7399 12.6535L26.6618 12.6366C26.1188 12.5323 24.6756 12.5754 24.1146 12.6392C19.7456 13.1363 15.5782 16.7395 14.8953 21.1428C14.7706 21.9472 14.6521 23.3704 14.8041 24.182L14.9985 25.3296C15.1316 25.957 15.3592 26.5652 15.6095 27.154C15.9402 27.9359 16.4006 28.6566 16.9078 29.3345C18.9009 31.9979 21.592 33.3758 24.8786 33.3988C25.2679 33.4015 25.7166 33.422 26.0992 33.3401L27.7993 32.9131C27.9692 33.0196 28.1025 33.1836 28.2344 33.3327L28.818 34.0063C29.1232 34.3613 29.4696 34.7148 29.7322 35.1017C28.0236 35.9274 27.2469 35.4339 26.849 37.7812L26.671 38.8476C26.5481 39.5599 26.3688 39.4036 25.5992 39.4063L24.5074 39.4076C24.1135 39.4079 23.501 39.5808 23.4089 39.1683C22.9342 37.0416 23.4684 35.6652 20.872 35.2326C20.0624 35.0977 19.4825 35.5556 18.9024 36.0664L17.5416 37.3286C17.3162 37.5395 17.092 37.7762 16.8417 37.9561C16.5841 37.9384 14.9389 36.4319 14.7467 36.227C14.8314 35.9939 14.9736 35.7716 15.0975 35.557L15.8645 34.2169C16.0406 33.8777 16.2171 33.4994 16.2706 33.1168L16.2754 33.0811C16.2881 32.9896 16.2974 32.9122 16.28 32.8206L16.2617 32.7248C16.1595 32.2903 15.6513 31.8279 15.3399 31.5266C14.7094 30.9167 14.5994 30.9566 13.8098 31.2635L12.6434 31.7528C12.2918 31.9081 11.9373 32.0727 11.5625 32.1628L11.5452 32.1521C11.4727 32.0977 11.4256 32.0023 11.3813 31.9252L11.0911 31.404C10.8594 30.9888 10.5391 30.5753 10.4379 30.1027C11.0717 29.4668 12.0983 29.25 12.7863 28.3343C13.3241 27.6184 13.0449 27.1433 12.8535 26.3775C12.7574 25.9929 12.7211 25.484 12.5046 25.1459C12.104 24.5198 10.3822 24.4982 9.68243 24.4262C8.9918 24.355 8.74789 24.4288 8.77782 23.6583C8.78578 23.4527 8.87039 22.0216 8.99883 21.8906C9.11657 21.7707 9.93305 21.6623 10.1306 21.6217C11.7902 21.2806 12.9201 20.9183 12.9631 18.9209C12.9746 18.3883 12.4769 18.0579 12.1011 17.7648L11.0472 16.9859C10.7496 16.7803 10.3841 16.5848 10.1313 16.3273C10.3948 15.7666 10.7738 15.2516 11.131 14.7473C11.6535 14.01 11.6073 14.2126 12.4766 14.4667C13.0963 14.6479 13.7457 14.8405 14.3855 14.9302C15.3902 15.0709 16.4594 14.3494 16.5884 13.3153L16.5924 13.2812C16.7023 12.4317 15.7154 11.1171 15.4247 10.202C15.6641 9.9689 15.9856 9.77429 16.2551 9.57507L17.145 8.91108C17.8549 8.41608 17.8766 8.71983 18.3772 9.25687C19.1575 10.0937 20.1381 11.4238 21.3887 11.0544C23.4178 10.4548 23.4929 10.1101 24.0898 8.05765C24.2039 7.66508 24.3054 7.2546 24.5026 6.8941Z" fill="#324EF1"/>
</svg>
