<svg xmlns="http://www.w3.org/2000/svg" width="50" height="50" viewBox="0 0 50 50" fill="none">
  <path d="M35.3652 8.21378L35.3666 8.21339C39.2027 8.028 40.0523 13.7535 35.8161 14.3989C35.6089 14.4032 35.3967 14.4167 35.1909 14.3887L35.1439 14.382C31.5749 13.8982 31.6072 8.52714 35.3652 8.21378Z" fill="#324EF1"/>
  <path d="M13.4889 13.9954C13.6317 13.9767 13.8188 13.9811 13.9619 13.9989L14.086 14.0147C14.7885 14.108 15.346 14.4802 15.7704 15.0365L15.8636 15.0318C17.0077 14.9929 18.0736 15.4876 18.4566 16.6577C18.5544 16.9566 18.3945 17.1147 18.6781 17.1166C21.5498 17.1356 21.8139 20.9752 19.1802 21.5205C18.8183 21.5954 18.3706 21.5524 18.0012 21.5528L15.7834 21.5533L10.8919 21.5536C10.6465 21.5535 10.3918 21.564 10.1488 21.5274C7.72832 21.1625 7.50519 17.5634 10.0509 16.8846C10.4343 16.7825 10.5438 16.9117 10.7342 16.543L11.1133 15.7309C11.597 14.7471 12.3835 14.1557 13.4889 13.9954Z" fill="#324EF1"/>
  <path d="M39.5018 24.4127C39.4619 24.7725 39.4845 25.1525 39.4844 25.5146L39.4861 29.237C39.4901 30.5007 39.6693 30.682 40.0042 31.8823L41.3903 37.4482C41.455 37.7252 41.5328 38.0073 41.5643 38.2906C41.7213 39.7054 39.6818 40.3153 38.9246 39.0661C38.7657 38.8038 38.6844 38.4704 38.6039 38.1765L36.513 30.6362C36.4234 30.3734 36.3419 30.0935 36.2003 29.8532C35.9213 30.0658 35.6836 30.3983 35.459 30.6686L34.3574 32.0164L34.0103 32.4707C33.9265 32.5729 33.7241 32.7515 33.7069 32.879L33.1229 37.8914C33.0613 38.334 33.0364 38.8092 32.7657 39.1845C32.003 40.2416 30.2824 39.7505 30.1357 38.5505C30.1077 38.3208 30.1397 38.074 30.161 37.8448L30.5819 33.5335C30.7597 31.9482 30.7207 31.96 31.5904 30.6183L33.079 28.0477C33.3503 27.4762 33.2271 27.5329 33.8389 27.2779L35.514 26.6367C36.9343 26.137 38.5163 25.6273 39.5018 24.4127Z" fill="#324EF1"/>
  <path d="M36.1515 15.5863C37.4116 15.3425 38.7693 16.084 39.3116 17.2481C39.5324 17.7221 39.4895 18.174 39.4888 18.6824L39.4894 21.7172C39.4912 22.0119 39.5509 22.4738 39.4469 22.7481L39.4348 22.7783C38.7642 24.5108 36.2882 25.2445 34.7089 25.7782L29.7297 27.4817C29.4132 27.5984 29.1066 27.7457 28.778 27.8258L28.9842 25.4136C29.0168 25.1351 29.0292 25.1939 29.2844 25.1218L32.656 23.8779C33.1984 23.6652 33.9126 23.5152 34.3523 23.1155C33.4674 22.9624 33.5749 23.4638 33.5732 22.1936L33.5719 20.9265C33.5716 20.6458 33.5817 20.3621 33.5541 20.0825C33.4648 20.1943 33.1279 20.4093 32.9926 20.5185L30.4917 22.4986C30.1905 22.7447 29.9398 22.903 29.7205 23.2247C29.4046 23.688 28.9308 23.917 28.3682 23.8828C28.3071 23.9561 28.2809 24.1581 28.252 24.2562L27.3071 28.0278C26.6512 30.3077 25.3244 30.9207 23.0574 31.5499L22.6396 33.5746C23.1749 33.9208 23.6814 34.1629 24.076 34.6943C26.2198 37.5819 22.0645 41.3072 19.487 38.484C19.0466 37.9399 18.726 37.2276 18.7282 36.5197L12.3281 36.5092C12.3046 36.6391 12.3073 36.7723 12.2866 36.9027C11.7592 40.2161 7.10894 40.4262 6.46044 36.9639L6.44462 36.88C6.12007 35.0108 7.51654 33.768 9.22726 33.4893C9.13038 33.0592 9.07484 32.6162 9.00773 32.1804L8.70702 30.2032C8.59983 29.4838 8.03507 27.8554 8.73827 27.3925L8.77663 27.3679C8.91882 27.2752 9.04257 27.2741 9.20734 27.2691L22.2587 27.2661C23.2389 27.2655 23.6294 27.3725 23.4591 28.5889L23.2862 29.6907C24.3445 29.3525 25.2478 29.1598 25.5826 28.0148L26.7118 23.6729C26.919 22.8908 27.2783 20.5777 28.544 20.9549C28.7846 21.0266 28.7365 21.0092 28.9439 20.848L33.6182 17.1038C34.3901 16.49 35.1133 15.6666 36.1515 15.5863ZM10.3359 28.8923L10.2048 28.9099C10.1504 29.0697 10.7245 32.3861 10.7957 32.8443L10.8744 33.4152C10.9512 34.1104 11.2787 33.9536 11.7143 34.5336C11.9734 34.8787 11.6896 34.863 12.2001 34.8635L19.1466 34.8632C19.2655 34.7676 19.3118 34.6291 19.4098 34.5131C19.7309 34.1329 20.1002 33.8833 20.5499 33.684C20.7098 33.6236 20.8672 33.5613 21.034 33.5224C21.0616 33.1518 21.1423 32.7872 21.208 32.4218L21.5275 30.6843C21.6389 30.0983 21.7061 29.4783 21.8616 28.9045L10.3359 28.8923Z" fill="#324EF1"/>
</svg>
