<svg xmlns="http://www.w3.org/2000/svg" width="50" height="50" viewBox="0 0 50 50" fill="none">
  <path d="M8.07863 32.98C8.90309 32.9664 10.513 32.7093 11.1556 33.0581C10.5618 33.9362 10.3892 34.6011 10.2471 35.6107C10.0358 35.7287 9.23426 35.6694 8.97973 35.6391C7.51217 35.4646 7.07195 33.7161 8.07863 32.98Z" fill="#324EF1"/>
  <path d="M14.3241 32.0912C15.8696 32.0171 17.4678 33.2022 17.7374 34.7491C18.1006 36.8334 16.672 38.7655 14.5188 38.8723C10.0458 38.8517 9.87235 32.4312 14.3241 32.0912ZM14.3443 33.1879C13.3551 33.2919 12.4975 33.8379 12.2029 34.8146L12.192 34.8496C11.7339 36.3421 12.937 37.8481 14.5447 37.7777C15.2097 37.6895 15.8529 37.374 16.2671 36.8309L16.3865 36.6577C17.3332 35.2275 16.0902 33.0237 14.3443 33.1879Z" fill="#324EF1"/>
  <path d="M14.2807 34.2595C15.9588 34.1676 16.112 36.4452 14.5394 36.804C14.4458 36.8114 14.3581 36.8177 14.2651 36.801L14.2323 36.7948C12.7683 36.5292 12.8619 34.4395 14.2807 34.2595Z" fill="#324EF1"/>
  <path d="M35.8821 32.1394C36.1121 32.1099 36.3683 32.1354 36.5967 32.1707C38.9352 32.5333 40.1252 35.2782 38.9051 37.2798C38.8003 37.4516 38.6478 37.7136 38.4861 37.8345L40.9203 37.8429L40.9221 37.0049C41.0871 36.7754 41.6381 36.8467 41.8399 36.9697C42.0771 37.1144 42.2746 37.3745 42.4833 37.5597C43.4903 38.454 43.6192 38.2819 42.5417 39.1747L41.8796 39.7397C41.3417 40.1172 41.2655 39.2567 41.2436 38.9237C40.6834 38.8555 40.103 38.8819 39.5392 38.8817L36.8742 38.8809C36.4317 38.8803 35.9128 38.9282 35.4785 38.844C31.6735 38.1066 31.6964 32.4743 35.8821 32.1394ZM35.8022 33.2347C32.6719 33.7118 33.3566 38.0918 36.3567 37.7875C39.3805 37.2733 38.6189 32.9397 35.8388 33.2304L35.8022 33.2347Z" fill="#324EF1"/>
  <path d="M35.9028 34.2841C36.0105 34.2787 36.1165 34.2703 36.2232 34.2914L36.2536 34.2977C37.647 34.5585 37.5446 36.4883 36.1722 36.8144C35.5524 36.8843 34.9803 36.5128 34.8163 35.902L34.7866 35.7866C34.614 34.9928 35.145 34.4082 35.9028 34.2841Z" fill="#324EF1"/>
  <path d="M16.2624 5.80225C16.4339 6.05714 16.6764 6.29115 16.8776 6.52493L17.617 7.45305C19.881 10.4083 22.4683 14.8922 20.2902 18.5646C19.4538 19.9749 17.9131 21.0408 16.2614 21.1736C16.2409 21.6489 16.2997 24.6089 16.202 24.753C15.9993 25.0517 15.6203 24.9647 15.3798 24.7757C15.2525 24.5201 15.2958 24.1466 15.2946 23.8651L15.2916 22.6684L15.2868 21.2313C15.0538 21.1795 14.8045 21.175 14.5671 21.132C11.431 20.5639 9.82252 18.5276 9.14775 15.5693L8.97947 14.6932C8.82775 13.6872 8.68642 12.5874 8.88799 11.5843C9.85533 11.7183 11.1349 12.0159 12.0233 12.3632C12.9639 10.277 14.5981 7.4363 16.2624 5.80225ZM16.3206 9.31396C16.2968 9.53357 16.3083 9.75982 16.3081 9.9806L16.3103 17.8948C16.2913 18.6553 16.2152 19.413 16.2377 20.1764C16.7756 20.0546 17.6508 19.3301 17.9315 18.8464L17.942 18.8184C17.8183 18.6825 17.7001 18.5622 17.5528 18.4521L17.4666 18.3876C17.1755 18.6009 16.9348 18.8868 16.6303 19.0715C16.6914 18.188 17.7049 16.9586 18.2158 16.2583C18.4386 15.9574 18.6688 15.6558 18.8224 15.3125L18.5481 15.1479C17.8856 15.319 17.5564 16.0953 16.9844 16.4469C17.0151 15.4073 17.3771 14.7891 17.935 13.9179C18.0382 13.7568 18.1831 13.568 18.2274 13.3816C17.9466 13.1826 17.1362 13.869 16.9393 14.0393L17.7689 12.259C17.8953 12.0186 18.0571 11.7992 18.1852 11.5598C17.9703 11.3747 17.9124 11.3406 17.6613 11.511C17.3472 11.7241 17.0572 12.0453 16.7851 12.3116L16.7792 9.33482C16.6317 9.31193 16.4865 9.29396 16.3206 9.31396ZM15.4639 12.0239C15.3931 12.1813 15.135 12.8848 15.1413 13.0493C15.2519 13.1579 15.3277 13.0623 15.4194 13.2484L15.4013 13.2701C15.1817 13.5893 15.0971 15.5923 15.0874 16.0622C15.0738 16.7152 15.1057 17.3536 14.965 17.9969C14.5208 17.7152 14.1652 17.1968 13.8398 16.7851L12.9622 15.6712C12.7456 15.3904 12.5265 15.0601 12.2424 14.8456C11.7843 14.9974 12.8576 16.5619 12.9592 16.7847L12.9381 16.8172C12.7595 16.7952 12.4749 17.0036 12.4268 17.1753C12.5596 17.3654 13.0101 17.378 13.2164 17.5013C13.3655 17.5903 13.5019 17.7349 13.6278 17.8537L14.2936 18.4906C14.4727 18.685 14.9587 19.0902 14.9402 19.3626L14.9356 19.4092C14.5375 19.6868 12.4044 18.7376 11.7773 18.5376C11.4228 18.4245 11.3887 18.794 12.1549 19.2482C13.1768 19.8539 14.3078 20.0554 15.4733 20.1718C15.5213 19.7362 15.4953 19.2812 15.4956 18.8427L15.502 13.5304C15.5034 13.0322 15.5324 12.5221 15.5035 12.0256L15.4639 12.0239Z" fill="#324EF1"/>
  <path d="M8.03866 32.9386C7.85819 32.8763 7.91851 32.3681 7.9178 32.2117L7.91601 31.2725C7.91515 30.5361 7.87983 29.7806 7.93093 29.0464H28.1525L28.1539 21.2465C28.1536 20.7904 28.0698 20.1917 28.2388 19.757L28.2501 19.7288C28.7055 18.5675 29.5543 18.6414 30.536 18.6418L34.849 18.6429C35.3352 18.6431 35.9619 18.5456 36.4269 18.7156L36.6177 18.7851C37.4297 19.0922 37.86 19.765 38.2708 20.4777L39.1116 21.9929C40.3949 24.3272 40.5547 24.2725 40.5561 26.8403L40.5496 32.715C40.5462 32.8093 40.5529 32.9346 40.5143 33.0217L42.3923 33.1015C42.623 33.102 42.9789 33.0579 43.1933 33.1295C44.703 33.6339 43.9858 35.4303 43.0155 35.5238C42.3961 35.5836 41.7325 35.5393 41.1085 35.5393C40.7719 35.5394 40.322 35.6964 40.2517 35.3542C40.0851 34.5433 39.7368 33.6433 39.1866 33.0161C37.6451 31.2586 35.1916 30.9382 33.283 32.3126C32.9498 32.5525 32.8038 32.9023 32.3717 32.9005L31.6194 32.8759C31.576 33.1022 31.5664 33.3359 31.5229 33.5646C31.2147 35.1839 30.3592 35.8146 28.8308 35.8168L19.9871 35.8252C18.5395 35.8604 18.6094 34.9019 18.1044 33.788C17.9573 33.4634 17.7607 33.1792 17.5474 32.8961L17.4504 32.7718C15.5593 30.9261 13.1438 31.0075 11.3139 32.8832L11.2018 33.0061L11.1551 33.0579C10.5125 32.709 8.90257 32.9661 8.07811 32.9798L8.03866 32.9386ZM30.8351 32.7816L30.8042 32.8397L31.4998 32.8391L31.485 21.7458L33.0085 21.7525L33.0176 24.6529L37.5044 24.661C37.466 24.4877 37.356 24.3021 37.272 24.1465L35.9972 22.0017C35.8656 21.7742 35.7034 21.3826 35.584 21.2116C35.0794 21.1579 34.5262 21.2011 34.0169 21.2006L30.8319 21.1979L30.8351 32.7816ZM31.6869 27.1274L31.6867 27.6374L33.1277 27.6448L33.127 27.1273L31.6869 27.1274Z" fill="#324EF1"/>
  <path d="M8.03906 32.939C8.57523 32.7756 10.7094 32.796 11.2022 33.0065L11.1555 33.0582C10.5129 32.7094 8.90297 32.9665 8.07852 32.9802L8.03906 32.939Z" fill="#667DD1"/>
  <path d="M26.7855 32.7756L30.8357 32.7782L30.8048 32.84L27.7766 32.8601L26.1337 32.8557C25.8021 32.8558 25.461 32.8746 25.1338 32.8151C25.6568 32.7204 26.2518 32.7833 26.7855 32.7756Z" fill="#879CE4"/>
  <path d="M17.4512 32.772L20.8007 32.778L26.7857 32.7761C26.252 32.7833 25.657 32.7204 25.134 32.8151C25.4612 32.8745 25.8023 32.8558 26.1339 32.8557L27.7768 32.8587L19.548 32.8594L18.2813 32.8587C18.0428 32.8587 17.7842 32.8423 17.5482 32.8754L17.4512 32.772Z" fill="#667DD1"/>
</svg>
