<svg xmlns="http://www.w3.org/2000/svg" width="50" height="50" viewBox="0 0 50 50" fill="none">
  <path d="M22.7673 24.6764L23.563 24.6667C23.5996 24.9271 23.5756 25.2249 23.5607 25.487L20.9747 25.4954L20.3103 25.5007C20.1796 25.3717 20.196 24.9002 20.1299 24.6835L22.7673 24.6764Z" fill="#324EF1"/>
  <path d="M17.1359 23.4009L17.1733 23.4195C17.1665 23.7655 17.0319 24.151 16.9508 24.4874C16.7569 25.2904 15.5869 29.5876 14.9105 29.8979C14.465 29.8478 13.9262 29.5298 13.5404 29.3208C13.3258 29.1958 13.1193 29.0785 12.9292 28.9174C13.2458 28.4324 13.7032 28.0073 14.0901 27.576C14.5637 27.0483 15.0087 26.4959 15.4286 25.9243L16.454 24.3902C16.6327 24.0871 16.8418 23.5889 17.1359 23.4009Z" fill="#324EF1"/>
  <path d="M28.4079 4.94008C32.8037 4.71408 32.8609 10.7004 29.1289 11.1822C25.255 11.7325 24.1219 5.59955 28.4079 4.94008Z" fill="#324EF1"/>
  <path d="M32.6489 8.5719L39.8737 8.57541L39.8785 41.5669L35.1088 41.5802L35.0286 40.0595L38.5753 40.0701L38.5767 35.0153L38.5706 33.0049L34.6304 33.0003L34.5928 32.1629L38.576 32.1651L38.5721 25.5006L34.0281 25.4953C33.9868 25.233 34.0078 24.9468 34.0069 24.6811L38.5835 24.6753L38.5746 18.0368C37.6975 17.9803 36.7947 18.0939 35.9231 17.9956L35.8356 17.1924L38.5762 17.1785L38.5742 9.9412C38.4506 9.86862 33.1031 9.91745 32.4438 9.92159L32.6489 8.5719Z" fill="#324EF1"/>
  <path d="M29.5324 12.0794C29.9048 12.0701 30.357 12.0354 30.721 12.1111C33.2975 12.6469 33.8909 14.3312 34.5207 16.5039C34.8712 17.7129 35.5942 19.8559 33.7592 20.3148C33.2302 20.4471 32.6715 20.4197 32.1341 20.4769L25.7311 21.0447C25.2713 21.0908 24.7543 21.2111 24.2942 21.1529C23.5049 21.0531 23.0391 20.1589 23.1376 19.429L23.1439 19.3847C23.2249 18.7944 23.6445 18.3018 24.1891 18.0753L24.2161 18.0642C24.6084 17.9465 25.0016 17.9269 25.4068 17.8958L31.3824 17.3876L31.1134 16.4457L25.8519 16.9195C24.5769 17.0424 24.0083 16.8845 23.038 17.8705L23.0354 17.8388C23.0377 17.6009 23.0882 17.3373 23.1234 17.1018C23.4698 14.79 24.7475 12.37 27.3113 12.0922C27.5667 12.0646 27.8367 12.0802 28.0939 12.0798L29.5324 12.0794Z" fill="#324EF1"/>
  <path d="M22.4494 20.1018C22.5335 20.0781 22.6735 20.096 22.764 20.0952C23.265 21.1699 24.4848 22.0686 25.7089 22.0178L32.6393 21.4542C32.6939 21.7571 32.6967 22.0771 32.7214 22.3841L33.9047 37.8319L34.0889 41.427C34.1171 44.1268 30.475 44.4014 29.9617 42.049C29.8496 41.5351 29.855 40.9925 29.8107 40.4697L29.0896 30.8205L28.9296 27.9487C28.8539 28.1596 28.866 28.4985 28.8483 28.7222L28.1685 38.4825L28.0007 40.6193C27.948 41.2623 27.9847 41.9193 27.6991 42.5156C26.8883 44.2078 24.3794 43.9451 23.8085 42.1675L23.7941 42.1216C23.606 41.5468 23.757 40.8371 23.7806 40.2465L23.802 39.0547C23.8096 38.9037 23.839 38.7556 23.849 38.6049L24.7164 25.9451C24.785 24.7964 24.6379 23.6126 24.7777 22.4729L18.5196 23.3389C18.958 25.4444 19.3219 28.3598 18.74 30.3803L18.6615 30.6285C18.4952 31.0304 18.3077 30.9674 17.9307 30.8989C17.3505 30.7936 16.804 30.6589 16.2585 30.43C16.4153 30.0503 16.6811 29.6895 16.8765 29.3247C17.6446 27.8911 18.3019 25.5186 17.9739 23.9014C17.7836 22.9629 16.8893 22.8503 17.198 21.6993L17.2307 21.5797C17.3354 21.2356 17.6073 20.8855 17.9275 20.7162L17.9662 20.6965C18.3657 20.4888 18.8453 20.4621 19.2867 20.4174L22.4494 20.1018Z" fill="#324EF1"/>
  <path d="M8.03047 8.57127L24.8424 8.56995C24.9305 9.01979 24.9827 9.44995 25.1147 9.89792C24.8964 9.93502 24.6409 9.91237 24.4172 9.91331L17.657 9.91245L17.6618 17.2057L22.1398 17.2053L22.0414 17.9974C21.8612 18.0284 21.6666 18.0186 21.4836 18.0195L17.6533 18.007L17.6369 20.1046C17.5658 20.2146 17.0807 20.3349 16.94 20.3795C16.8589 20.1975 16.8942 19.8246 16.8935 19.6218L16.9051 18.0403C16.3734 17.9928 9.35211 17.9999 9.27719 18.0462L9.28117 24.6839L14.375 24.6596C14.287 24.9449 14.1953 25.2024 14.1509 25.4996L9.54961 25.4935C9.46961 25.4935 9.3461 25.4742 9.27727 25.5097L9.27774 32.1946L9.66453 32.1768L23.023 32.1637L23.0158 33.0031L17.6552 32.9902L17.6681 40.0517L22.7509 40.0646C22.6036 40.5336 22.756 41.0827 22.6459 41.5595L8.06094 41.5526C7.9982 41.2977 8.03 40.9836 8.03024 40.7201L8.03047 8.57127ZM11.1909 9.91581L9.86149 9.91807C9.68453 9.91846 9.4443 9.89041 9.27602 9.93206L9.28063 17.2003L14.9109 17.1952C15.136 17.1957 16.8315 17.2287 16.8858 17.1828L16.882 9.9251L11.1909 9.91581ZM13.2017 33.0028L9.27617 33.006L9.2775 39.3172C9.27766 39.5585 9.25703 39.8203 9.2875 40.0593L12.9817 40.0598L16.8916 40.048L16.8853 33.0067L13.2017 33.0028Z" fill="#324EF1"/>
</svg>
