<svg xmlns="http://www.w3.org/2000/svg" width="24" height="25" viewBox="0 0 24 25" fill="none">
  <g clip-path="url(#clip0_164_131)">
    <path d="M8 7.5C8 8.56087 8.42143 9.57828 9.17157 10.3284C9.92172 11.0786 10.9391 11.5 12 11.5C13.0609 11.5 14.0783 11.0786 14.8284 10.3284C15.5786 9.57828 16 8.56087 16 7.5C16 6.43913 15.5786 5.42172 14.8284 4.67157C14.0783 3.92143 13.0609 3.5 12 3.5C10.9391 3.5 9.92172 3.92143 9.17157 4.67157C8.42143 5.42172 8 6.43913 8 7.5Z" stroke="#848486" stroke-width="1.5" stroke-linecap="round" stroke-linejoin="round"/>
    <path d="M6 21.5V19.5C6 18.4391 6.42143 17.4217 7.17157 16.6716C7.92172 15.9214 8.93913 15.5 10 15.5H14C15.0609 15.5 16.0783 15.9214 16.8284 16.6716C17.5786 17.4217 18 18.4391 18 19.5V21.5" stroke="#848486" stroke-width="1.5" stroke-linecap="round" stroke-linejoin="round"/>
  </g>
  <defs>
    <clipPath id="clip0_164_131">
      <rect width="24" height="24" fill="white" transform="translate(0 0.5)"/>
    </clipPath>
  </defs>
</svg>
