<?xml version="1.0" encoding="utf-8"?><svg viewBox="0 0 502.66 502.66" xmlns="http://www.w3.org/2000/svg" xmlns:xlink="http://www.w3.org/1999/xlink"><style>:root>svg{display:none}:root>svg:target{display:block}</style><svg viewBox="0 0 57 71" id="advantage-icon" xmlns="http://www.w3.org/2000/svg"><path d="M38.057 51.835a.97.97 0 01-.715-.303l-9.96-9.984a1.016 1.016 0 01-.292-.71 1.01 1.01 0 01.292-.712l14.241-14.259a.997.997 0 01.71-.293.992.992 0 01.71.293l9.969 9.984c.194.195.291.43.292.706a.968.968 0 01-.292.716l-14.24 14.259a.966.966 0 01-.715.303zm-8.539-10.993l8.54 8.552 12.82-12.837-8.58-8.552-12.78 12.837z" fill-opacity=".996"/><path d="M22.93 56.998a.993.993 0 01-.933-.637.998.998 0 01-.014-.705L27.14 40.53a1.018 1.018 0 01.487-.564 1.002 1.002 0 01.742-.075 1.003 1.003 0 01.433.256l9.97 9.984a.991.991 0 01.257.433.986.986 0 01.014.504.981.981 0 01-.233.448.984.984 0 01-.42.278l-15.107 5.164a.995.995 0 01-.352.04zm5.59-14.3l-3.968 11.668 11.702-3.973-7.734-7.694z" fill-opacity=".996"/><path d="M22.93 56.998a.98.98 0 01-.46-.114 1.041 1.041 0 01-.471-.523.998.998 0 01-.014-.705l2.235-6.594a1.002 1.002 0 011.088-.676 5.951 5.951 0 011.891.57 6.075 6.075 0 012.75 2.763c.295.598.486 1.23.575 1.89a1.01 1.01 0 01-.372.924.995.995 0 01-.303.166l-6.586 2.239a1 1 0 01-.332.06zm2.912-6.423l-1.29 3.792 3.787-1.292a4.048 4.048 0 00-1.675-2.108 4.028 4.028 0 00-.822-.392z" fill-opacity=".996"/><mask id="aa" maskUnits="userSpaceOnUse" x="40" y="22" width="17" height="17"><path d="M40.775 22.154H57V38.13H40.775V22.154z"/></mask><g mask="url(#aa)"><path d="M52.297 37.989L40.908 26.573l3.565-3.56a3.103 3.103 0 012.135-.853 3.142 3.142 0 011.149.221 3.04 3.04 0 01.986.632l7.12 7.13a3.043 3.043 0 01.883 2.139 3.018 3.018 0 01-.508 1.679c-.11.164-.236.317-.375.458l-3.566 3.57zm-8.539-11.416l8.54 8.562 2.144-2.138a.995.995 0 00.298-.716.987.987 0 00-.077-.388.98.98 0 00-.22-.328l-7.11-7.13a.99.99 0 00-.326-.217.996.996 0 00-1.093.217l-2.156 2.138z" fill-opacity=".996"/></g><path d="M38.056 51.835a.97.97 0 01-.715-.303L34.5 48.69a1.017 1.017 0 01-.22-1.104.986.986 0 01.22-.328l14.24-14.26a.994.994 0 01.71-.293 1 1 0 01.71.294l2.85 2.853a.97.97 0 01.292.706.967.967 0 01-.292.716l-14.24 14.26a.967.967 0 01-.715.302zm-1.42-3.862l1.42 1.422 12.82-12.838-1.42-1.422-12.82 12.838zm-5.7-3.268a.962.962 0 01-.725-.283l-2.84-2.853a.995.995 0 01-.293-.71.992.992 0 01.294-.712l14.25-14.28a.996.996 0 01.709-.293.993.993 0 01.71.293l2.85 2.854a.972.972 0 01.293.705.974.974 0 01-.293.716l-14.24 14.28a.97.97 0 01-.715.283zm-1.42-3.863l1.42 1.422 12.82-12.838-1.46-1.421-12.78 12.837z" fill-opacity=".996"/><mask id="ab" maskUnits="userSpaceOnUse" x="0" y="32" width="21" height="25"><path d="M0 32.32h20.18v24.4H0v-24.4z"/></mask><g mask="url(#ab)"><path d="M19.134 56.523H1.007a.994.994 0 01-.712-.295A1.002 1.002 0 010 55.515v-6.05a1.002 1.002 0 01.295-.713.995.995 0 01.712-.296h9.064v-4.034H1.007a.992.992 0 01-.712-.295A1.006 1.006 0 010 43.414v-6.05a1.002 1.002 0 01.295-.713.995.995 0 01.712-.297h15.106V33.33a1.012 1.012 0 01.295-.714 1.008 1.008 0 011.72.714v4.033a1.004 1.004 0 01-.296.713.997.997 0 01-.712.296H2.014v4.034h9.063a.992.992 0 01.713.295 1.006 1.006 0 01.295.713v6.05a1.01 1.01 0 01-.622.932.994.994 0 01-.386.077H2.014v4.034h17.12a1.005 1.005 0 011.007 1.009 1 1 0 01-.62.931 1.004 1.004 0 01-.387.076z" fill-opacity=".996"/></g><path d="M21.149 26.27h-8.057a.998.998 0 01-.712-.295 1.002 1.002 0 01-.295-.713v-2.017a.996.996 0 00-.111-.452.993.993 0 00-.301-.355 9.32 9.32 0 01-.434-.353 9.342 9.342 0 01-1.158-1.212 8.934 8.934 0 01-1.163-1.907 8.26 8.26 0 01-.214-.516 8.821 8.821 0 01-.448-1.617 9.063 9.063 0 01-.143-1.672c.002-.186.008-.373.022-.56a9.185 9.185 0 01.426-2.192 9.332 9.332 0 01.665-1.54 9.005 9.005 0 012.552-2.931 9.158 9.158 0 011.431-.871 9.347 9.347 0 011.034-.427 9.702 9.702 0 011.077-.296 9.008 9.008 0 012.223-.185 9.176 9.176 0 011.661.222 8.828 8.828 0 011.59.525 8.858 8.858 0 011.92 1.137 9.194 9.194 0 01.843.738 8.688 8.688 0 01.743.835 8.571 8.571 0 01.91 1.408 9.37 9.37 0 01.455 1.023 9.015 9.015 0 01.519 2.173 9.13 9.13 0 01-.31 3.477 8.947 8.947 0 01-.933 2.14 9 9 0 01-1.444 1.83 9.12 9.12 0 01-.888.76 1.004 1.004 0 00-.403.808v2.017a1.03 1.03 0 01-.078.4.997.997 0 01-.774.607 1.08 1.08 0 01-.205.012zm-7.05-2.017h6.043v-1.008a3.033 3.033 0 011.209-2.41 7.056 7.056 0 002.662-4.181 6.903 6.903 0 00.149-1.679 7.082 7.082 0 00-1.344-3.936 7.203 7.203 0 00-1.146-1.234 7.016 7.016 0 00-3.601-1.614 7.025 7.025 0 00-3.116.27 6.938 6.938 0 00-1.848.892 6.873 6.873 0 00-.807.64 6.994 6.994 0 00-2.229 4.52 7.102 7.102 0 00.585 3.505 7.08 7.08 0 00.926 1.533c.373.472.8.89 1.278 1.253a3.033 3.033 0 011.24 2.44v1.01z" fill-opacity=".996"/><path d="M19.133 30.305h-4.028a3.02 3.02 0 01-2.512-1.345 3.078 3.078 0 01-.451-1.09 3.043 3.043 0 01-.058-.592v-2.016a1.01 1.01 0 01.622-.931.997.997 0 01.385-.078h8.057a.998.998 0 01.711.295 1 1 0 01.296.714v2.016a3.05 3.05 0 01-.23 1.159 3.021 3.021 0 01-1.113 1.357 2.974 2.974 0 01-1.089.452c-.194.04-.39.059-.59.059zM14.1 26.27v1.007a.996.996 0 00.294.714.994.994 0 00.327.218.982.982 0 00.385.077h4.028a1.007 1.007 0 001.007-1.009V26.27H14.1z" fill-opacity=".996"/><mask id="ac" maskUnits="userSpaceOnUse" x="15" y="0" width="4" height="5"><path d="M15.828 0h2.32v4.145h-2.32V0z"/></mask><g mask="url(#ac)"><path d="M17.12 4.085a.998.998 0 01-.712-.296 1.002 1.002 0 01-.295-.713V1.06a1.007 1.007 0 112.015 0v2.016a1.002 1.002 0 01-.296.713.998.998 0 01-.712.296z" fill-opacity=".996"/></g><path d="M8.57 7.624a.973.973 0 01-.706-.292l-1.43-1.423a1.002 1.002 0 01-.295-.715 1.013 1.013 0 011.725-.717l1.42 1.432a1.018 1.018 0 01.294.712 1.02 1.02 0 01-.294.711.966.966 0 01-.715.292zm-3.534 8.562H3.02a.997.997 0 01-.712-.295 1.002 1.002 0 010-1.426 1 1 0 01.712-.296h2.015a1 1 0 01.711.296 1.002 1.002 0 010 1.426.997.997 0 01-.712.295zM7.15 26.17a.973.973 0 01-.715-.293.987.987 0 01-.22-.328.998.998 0 010-.776.988.988 0 01.22-.328l1.43-1.421a.965.965 0 01.521-.322.965.965 0 01.411-.016.998.998 0 01.77.626.97.97 0 01.068.406.98.98 0 01-.209.576.946.946 0 01-.142.151l-1.42 1.432a.972.972 0 01-.714.293zm19.94 0a.971.971 0 01-.714-.293l-1.42-1.431a.944.944 0 01-.143-.151.98.98 0 01-.196-.783 1.004 1.004 0 01.442-.677 1.007 1.007 0 01.795-.134 1.034 1.034 0 01.521.322l1.43 1.422a.989.989 0 01.22.328.994.994 0 010 .776.988.988 0 01-.22.328.974.974 0 01-.714.293zm4.13-9.984h-2.015a.998.998 0 01-.712-.295 1.002 1.002 0 010-1.426 1 1 0 01.712-.296h2.014a1.003 1.003 0 01.93.622 1.002 1.002 0 010 .772 1.016 1.016 0 01-.544.546 1.002 1.002 0 01-.386.077zm-5.55-8.562a.966.966 0 01-.714-.292 1.018 1.018 0 01-.294-.711 1 1 0 01.294-.712l1.42-1.432a1 1 0 01.714-.295.99.99 0 01.387.077 1.016 1.016 0 01.624.935 1.007 1.007 0 01-.296.715l-1.43 1.423a.975.975 0 01-.704.292zm-4.521 8.562a.997.997 0 01-.712-.295.997.997 0 01-.296-.714 3.04 3.04 0 00-.508-1.68 3.042 3.042 0 00-1.356-1.114 2.973 2.973 0 00-1.156-.23 1.007 1.007 0 110-2.017 5.14 5.14 0 011.461.217 4.969 4.969 0 011.336.632 5.1 5.1 0 011.39 1.39 5.214 5.214 0 01.464.873 4.822 4.822 0 01.287.946c.033.162.056.325.072.49.017.163.025.329.025.493a1.002 1.002 0 01-.296.714.998.998 0 01-.712.295z" fill-opacity=".996"/></svg><svg viewBox="0 0 24 24" id="btn-arrow" xmlns="http://www.w3.org/2000/svg"><path d="M8 20.75c.198 0 .39-.078.53-.22l8-8a.75.75 0 000-1.06l-8-8a.75.75 0 00-1.06 1.06L14.94 12l-7.47 7.47A.75.75 0 008 20.75z" fill-opacity=".996"/></svg><svg viewBox="0 0 34 34" id="chevron" xmlns="http://www.w3.org/2000/svg"><path d="M11.333 29.396c.282.001.553-.111.75-.312l11.334-11.333a1.062 1.062 0 000-1.502L12.084 4.916a1.062 1.062 0 00-1.502 1.502L21.165 17 10.582 27.583a1.063 1.063 0 00.751 1.813z" fill-opacity=".996"/></svg><svg viewBox="0 0 57 71" id="clean" xmlns="http://www.w3.org/2000/svg"><path d="M18.297 26.397h3.677c.86 0 1.557-.696 1.557-1.557v-4.78c0-.847-.697-1.544-1.557-1.544h-3.677c-.846 0-1.543.697-1.543 1.544v4.78c0 .86.697 1.557 1.543 1.557zm.356-5.981h2.98v4.082h-2.98v-4.082zm8.007 5.981h3.678c.86 0 1.557-.696 1.557-1.557v-4.78c0-.847-.696-1.544-1.556-1.544H26.66c-.86 0-1.558.697-1.558 1.544v4.78c0 .86.698 1.557 1.558 1.557zm.341-5.981h2.996v4.082h-2.996v-4.082zm-5.027 14.918c.86 0 1.557-.697 1.557-1.558v-4.78c0-.861-.697-1.559-1.557-1.559h-3.677c-.846 0-1.543.698-1.543 1.559v4.78c0 .86.697 1.558 1.543 1.558h3.677zm-3.321-5.998h2.98v4.098h-2.98v-4.097zm8.007 5.998h3.678c.86 0 1.557-.697 1.557-1.558v-4.78c0-.861-.696-1.559-1.556-1.559H26.66c-.86 0-1.558.698-1.558 1.559v4.78c0 .86.698 1.558 1.558 1.558zm.341-5.998h2.996v4.098h-2.996v-4.097zm8.023 5.998h3.678c.845 0 1.542-.697 1.542-1.558v-4.78c0-.861-.697-1.559-1.542-1.559h-3.678c-.86 0-1.557.698-1.557 1.559v4.78c0 .86.697 1.558 1.557 1.558zm.34-5.998h2.981v4.098h-2.98v-4.097zM50.7 36.18h-3.678c-.86 0-1.557.698-1.557 1.559v4.81c0 .86.697 1.558 1.557 1.558H50.7c.86 0 1.557-.698 1.557-1.559V37.74c0-.861-.697-1.559-1.557-1.559zm-.342 1.944v4.038h-2.994v-4.038h2.994zm.342 6.992h-3.678c-.86 0-1.557.697-1.557 1.559v4.764c0 .861.697 1.559 1.557 1.559H50.7c.86 0 1.557-.698 1.557-1.559v-4.764c0-.861-.697-1.56-1.557-1.56zm-.342 5.981h-2.994v-4.082h2.994v4.082zM32.74 46.6a.946.946 0 00-.949.95v.816c0 .52.415.95.95.95.518 0 .948-.43.948-.95v-.816c0-.52-.43-.95-.949-.95z" fill-opacity=".996"/><mask id="da" maskUnits="userSpaceOnUse" x="0" y="0" width="57" height="58"><path d="M0 0h57v58H0V0z"/></mask><g mask="url(#da)"><path d="M55.178 19.689h-.49l.46-2.004 1.498-2.76a2.31 2.31 0 00.207-1.753c-.148-.594-.563-1.113-1.142-1.44l-2.52-1.38 3.202-5.878a2.97 2.97 0 00.282-2.138 3.044 3.044 0 00-1.468-1.9c-1.438-.772-3.247-.238-4.018 1.202l-3.204 5.879-2.52-1.367a2.41 2.41 0 00-1.81-.192 2.35 2.35 0 00-1.364 1.129l-1.512 2.76-.579.594h-3.07a4.014 4.014 0 00-3.32-3.622c-2.181-.356-4.257 1.113-4.613 3.295-.015.104-.015.223-.03.326H13.284a2.366 2.366 0 00-2.357 2.362v2.7c0 1.218.95 2.212 2.136 2.33v1.857H1.822c-.993 0-1.795.8-1.795 1.796V24.6c0 .892.668 1.633 1.528 1.767V57.05c0 .52.416.95.948.95H54.51c.52 0 .95-.43.95-.95V26.368a1.802 1.802 0 001.512-1.767v-3.116c0-.995-.8-1.796-1.794-1.796zm-.104 4.809h-1.498l.667-2.91h.831v2.91zm-7.71 4.69h2.283l.711.387v3.696h-2.995v-4.082zm-11.999-7.777l2.981 1.617v1.47h-2.98v-3.087zm5.932-9.352v-.015l.445-.46 6.97 3.8 4.464 2.435-.608 2.597v.015l-.445 1.87-1.157 5.017a1.589 1.589 0 00-.267-.029h-.578l-2.61-1.425 1.364-3.222a.942.942 0 00-.504-1.246.947.947 0 00-1.246.505l-1.29 3.057-.83-.445-1.38-.772 1.484-2.746c.252-.46.089-1.04-.371-1.277a.949.949 0 00-1.29.371l-1.498 2.747-2.15-1.174c-.015-.014-.03-.03-.045-.03l-.015-.013 3.174-4.677a.94.94 0 00-.252-1.321.954.954 0 00-1.32.252l-3.278 4.84-3.158-1.722-.207-.104 3.544-3.667 3.054-3.16zM52.85 2.53a1.1 1.1 0 011.454-.43c.267.148.46.4.519.698a.959.959 0 01-.09.756L51.53 9.447 50.684 9c-.03-.03-.058-.044-.089-.06l-.948-.519 3.202-5.893zm-8.898 5.46a.435.435 0 01.252-.208c.074-.014.208-.043.341.045l4.939 2.672.207.119 1.764.95v.014l3.338 1.796a.529.529 0 01.221.268.44.44 0 01-.015.341c-.014 0-.014.015-.014.015l-1.112 2.034-5.28-2.88-5.754-3.131 1.113-2.035zm-12.886 2.435a2.13 2.13 0 012.09-1.766c.104 0 .223.015.341.029a2.124 2.124 0 011.736 2.42c0 .03-.016.06-.016.09A2.114 2.114 0 0132.8 12.86c-.845-.134-1.542-.8-1.72-1.691a2.08 2.08 0 01-.014-.743zm-18.24 5.076v-2.7a.46.46 0 01.458-.46h16.18l.133.266c.03.044.045.089.074.149.09.163.193.311.311.46 0 .014.016.03.03.044.104.134.223.252.341.371.03.045.09.074.134.119.09.089.178.163.282.237.06.045.118.09.163.12.104.074.207.133.31.192l.18.09c.118.058.236.103.355.148.06.015.104.044.163.06.178.058.37.103.549.132.222.045.445.06.668.06h.014c.149 0 .281-.03.43-.044.089 0 .163 0 .252-.016.149-.029.297-.074.445-.118 1.112-.34 2.046-1.128 2.521-2.212 0-.014.014-.03.014-.059h1.528l-3.188 3.325-.297.281H13.285a.45.45 0 01-.46-.445zm-10.9 6.086h11.137v2.91H1.926v-2.91zm1.527 4.81h9.61V56.1h-9.61V26.398zm11.507-.95v-7.6h18.092l-.578.608a.94.94 0 00-.267.802c.045.297.222.55.49.698l.77.415v4.469c0 .86.698 1.558 1.558 1.558h3.662a1.54 1.54 0 001.558-1.558v-.772l1.794.98V56.1h-6.154V39.683a.947.947 0 00-.95-.95H22.064a.946.946 0 00-.948.95v16.418H14.96V25.448zM23.013 56.1V40.633h10.973v15.468H23.013zm30.549 0h-9.625V26.398h.564l1.898 1.024a1.555 1.555 0 00-.935 1.425v4.78c0 .846.697 1.544 1.558 1.544H50.7c.86 0 1.557-.698 1.557-1.544v-3.904a.864.864 0 00.177-.371l.697-2.954h.43V56.1z" fill-opacity=".996"/></g><path d="M9.978 27.289H6.3c-.859 0-1.556.697-1.556 1.557v4.78c0 .847.697 1.545 1.556 1.545h3.678c.86 0 1.557-.698 1.557-1.545v-4.78c0-.86-.697-1.557-1.557-1.557zm-.34 5.981H6.642v-4.082h2.996v4.082zm.34 2.91H6.3c-.859 0-1.556.698-1.556 1.559v4.81c0 .86.697 1.558 1.556 1.558h3.678c.86 0 1.557-.698 1.557-1.559V37.74c0-.861-.697-1.559-1.557-1.559zm-.34 1.944v4.038H6.642v-4.038h2.996zm.34 6.992H6.3c-.859 0-1.556.697-1.556 1.559v4.764c0 .861.697 1.559 1.556 1.559h3.678c.86 0 1.557-.698 1.557-1.559v-4.764c0-.861-.697-1.56-1.557-1.56zm-.34 5.981H6.642v-4.082h2.996v4.082zm39.37-30.474c.252 0 .49-.104.668-.297a.91.91 0 00.281-.653.952.952 0 00-.281-.682c-.342-.356-.994-.356-1.335 0a.954.954 0 00-.282.682c0 .237.104.49.282.653a.898.898 0 00.667.297zM28.885 4.651c0-2.004-1.645-3.65-3.662-3.65a3.656 3.656 0 00-3.649 3.65c0 2.02 1.631 3.667 3.649 3.667a3.672 3.672 0 003.662-3.667zm-5.412 0c0-.964.786-1.751 1.75-1.751.963 0 1.765.787 1.765 1.751a1.77 1.77 0 01-1.765 1.767c-.964 0-1.75-.787-1.75-1.767z" fill-opacity=".996"/></svg><svg viewBox="0 0 25 24" id="email" xmlns="http://www.w3.org/2000/svg"><path d="M22.666 6c0-1.1-.9-2-2-2h-16c-1.1 0-2 .9-2 2v12c0 1.1.9 2 2 2h16c1.1 0 2-.9 2-2V6zm-2 0l-8 5-8-5h16zm0 12h-16V8l8 5 8-5v10z"/></svg><svg viewBox="0 0 25 25" id="facebook" xmlns="http://www.w3.org/2000/svg"><path d="M14.19 23.515v-7.732c0-.126.102-.228.228-.228h2.274a.227.227 0 00.228-.227v-2.73a.227.227 0 00-.228-.227h-2.274a.227.227 0 01-.227-.227v-2.047c0-.91 1.137-1.365 1.591-1.365h1.365a.227.227 0 00.228-.227v-2.73a.227.227 0 00-.228-.227h-2.956c-2.184 0-3.64 2.275-3.64 3.64v2.956a.227.227 0 01-.227.227H8.05a.227.227 0 00-.227.228v2.729c0 .125.102.227.227.227h2.274c.126 0 .228.102.228.228v7.732c0 .125-.178-.015-.052-.015l3.69.015zm0 0c0 .125.126 0 0 0zm9.552-11.144c0 6.28-5.09 11.371-11.37 11.371C6.091 23.742 1 18.652 1 12.372 1 6.091 6.091 1 12.371 1s11.371 5.091 11.371 11.371z"/></svg><svg viewBox="0 0 32 32" id="home" xmlns="http://www.w3.org/2000/svg"><path d="M29.707 15.793l-13-13a.999.999 0 00-1.414 0l-13 13a.999.999 0 101.414 1.414L16 4.914l8.014 8.014c-.001.025-.014.047-.014.072v15H8V18a1 1 0 10-2 0v11a1 1 0 001 1h18a1 1 0 001-1V14.914l2.293 2.293a.997.997 0 001.414 0 .999.999 0 000-1.414z"/></svg><svg viewBox="0 0 502.664 502.664" id="icon" xmlns="http://www.w3.org/2000/svg"><path d="M153.821 358.226L0 274.337v-46.463l153.821-83.414v54.574L46.636 250.523l107.185 53.431v54.272zm26.273 29.358L282.103 115.08h32.227L212.084 387.584h-31.99zm168.749-29.358v-54.272l107.164-52.999-107.164-52.59v-53.927l153.821 83.522v46.183l-153.821 84.083z"/></svg><svg viewBox="0 0 25 24" id="instagram" xmlns="http://www.w3.org/2000/svg"><g clip-path="url(#ia)"><path fill-rule="evenodd" clip-rule="evenodd" d="M7.387.072C8.667.013 9.074 0 12.334 0s3.668.014 4.946.072c1.279.058 2.151.262 2.915.557.8.303 1.525.775 2.125 1.386a5.861 5.861 0 011.383 2.124c.297.764.5 1.636.559 2.913.059 1.281.072 1.69.072 4.948 0 3.26-.014 3.668-.072 4.947-.058 1.277-.262 2.15-.559 2.913a5.887 5.887 0 01-1.383 2.126 5.885 5.885 0 01-2.125 1.383c-.764.297-1.636.5-2.913.559-1.28.059-1.688.072-4.948.072-3.26 0-3.668-.014-4.947-.072-1.277-.058-2.15-.262-2.913-.559a5.889 5.889 0 01-2.126-1.383 5.883 5.883 0 01-1.385-2.125c-.295-.764-.498-1.636-.557-2.913C.347 15.666.334 15.258.334 12c0-3.26.014-3.668.072-4.946.058-1.279.262-2.151.557-2.915a5.89 5.89 0 011.386-2.125A5.882 5.882 0 014.473.629C5.237.334 6.109.131 7.386.072zm9.796 2.16c-1.265-.058-1.645-.07-4.849-.07s-3.584.012-4.85.07c-1.17.053-1.805.249-2.228.413-.56.219-.96.477-1.38.897a3.722 3.722 0 00-.897 1.38c-.164.423-.36 1.058-.413 2.229-.058 1.265-.07 1.645-.07 4.849s.012 3.584.07 4.85c.053 1.17.249 1.804.413 2.228.192.52.499.992.897 1.38.387.398.86.705 1.38.897.423.164 1.058.36 2.229.413 1.265.058 1.644.07 4.849.07s3.584-.012 4.85-.07c1.17-.053 1.804-.249 2.228-.413.56-.219.96-.477 1.38-.897.398-.387.704-.86.896-1.38.165-.424.36-1.058.414-2.229.058-1.265.07-1.645.07-4.849s-.012-3.584-.07-4.85c-.053-1.17-.249-1.805-.413-2.228a3.727 3.727 0 00-.897-1.38 3.724 3.724 0 00-1.38-.897c-.424-.164-1.058-.36-2.229-.413zm-6.382 13.467a4.002 4.002 0 004.364-6.53A4.004 4.004 0 1010.8 15.7zM7.973 7.64a6.168 6.168 0 118.723 8.723A6.168 6.168 0 017.973 7.64zm11.897-.89a1.46 1.46 0 10-2.003-2.123A1.46 1.46 0 0019.87 6.75z"/></g><defs><clipPath id="ia"><path transform="translate(.334)" d="M0 0h24v24H0z"/></clipPath></defs></svg><svg viewBox="0 0 135 74" id="logo" xmlns="http://www.w3.org/2000/svg"><g clip-path="url(#ja)"><mask id="ja" maskUnits="userSpaceOnUse" x="-31" y="-62" width="195" height="196"><path d="M163.374-61.642h-193.54v195.324h193.54V-61.642z" fill-opacity=".88"/></mask><g mask="url(#ja)"><mask id="jb" maskUnits="userSpaceOnUse" x="23" y="0" width="87" height="33"><path d="M109.215.05h-85.22v32.755h85.22V.05z"/></mask><g mask="url(#jb)"><mask id="jc" maskUnits="userSpaceOnUse" x="55" y="0" width="55" height="33"><path d="M55.057.066h54.09v32.482h-54.09V.066z"/></mask><g mask="url(#jc)"><path d="M92.02 32.603h17.164l-12.207-1.56L83.52 19.25l4.258-4.298c2.011-2.03 4.697.237 5.632 1.18 1.178 1.189.626 2.318 1.6 3.3l.762.768c.705.713 1.319.863 2 .177l3.709-3.743c.581-.586.561-1.323-.157-2.048l-.753-.763c-.975-.984-1.99-.53-3.17-1.718-1.572-1.588-1.932-4.446-3.803-6.334-3.738-3.775-13.037-7.43-20.576-4.552-.815.311-.503.747.36.738 7.272-.073 15.78 4.156 10.353 9.633l-4.162 4.2L66.604 4.427l-11.51 10.087 3.13 3.159 8.38-7.344 9.839 8.622-1.226 1.237-8.613-7.548-7.155 6.27 1.341 1.354 5.813-5.095 7.271 6.372-5.909 5.964 3.687 3.72L77.821 25l8.675 7.603h2.887l-10.219-8.956 1.225-1.237L92.02 32.603z"/></g><mask id="jd" maskUnits="userSpaceOnUse" x="24" y="0" width="47" height="33"><path d="M24.025.066h46.363v32.482H24.025V.066z"/></mask><g mask="url(#jd)"><path d="M59.826 1.958c.864.01 1.176-.427.36-.738-7.539-2.877-16.836.777-20.576 4.551-1.871 1.889-2.23 4.746-3.803 6.334-1.178 1.19-2.195.735-3.17 1.718l-.753.763c-.718.725-.738 1.461-.156 2.048l3.71 3.743c.68.687 1.294.536 2-.177l.76-.767c.973-.983.422-2.111 1.6-3.301.936-.944 3.62-3.21 5.632-1.18.916.925 2.415 2.439 4.259 4.298L36.232 31.044l-12.207 1.559H41.19L52.82 22.41l1.225 1.237-10.22 8.956h2.887L55.386 25l7.534 7.603h7.375L49.473 11.592c-5.426-5.478 3.08-9.707 10.353-9.634z"/></g></g></g><path d="M30.348 66.316h1.817l2.016 3.275 2.016-3.275h1.817v7.74H36.34v-5.052l-2.16 3.306h-.043L32 69.035v5.02h-1.652v-7.74zm15.455-.053h1.556l3.285 7.793H48.88l-.7-1.736h-3.242l-.703 1.736h-1.717l3.285-7.793zm1.773 4.552l-1.017-2.508-1.02 2.508h2.037zm7.571-4.499h1.555l3.593 4.766v-4.766h1.665v7.74h-1.434l-3.715-4.92v4.92h-1.664v-7.74zm22.267 7.872c-.598 0-1.144-.1-1.637-.299a3.766 3.766 0 01-1.272-.829 3.75 3.75 0 01-.825-1.259 4.2 4.2 0 01-.295-1.592v-.022a3.974 3.974 0 011.136-2.826c.358-.364.782-.65 1.272-.86a4.026 4.026 0 011.611-.317c.343 0 .654.024.934.072.281.049.543.117.784.204.242.088.47.2.681.333.212.132.416.283.613.452l-1.06 1.294a4.105 4.105 0 00-.443-.33 2.92 2.92 0 00-.454-.245 2.54 2.54 0 00-.507-.153 2.995 2.995 0 00-.604-.057 1.94 1.94 0 00-.861.195c-.266.128-.5.3-.7.518-.2.218-.357.472-.47.763a2.537 2.537 0 00-.171.935v.022c0 .354.056.681.17.98.114.297.275.557.483.779.207.22.451.39.731.511.282.122.595.183.94.183.628 0 1.157-.155 1.586-.465V71.07h-1.695V69.6h3.329v3.36a5.6 5.6 0 01-1.41.87c-.543.238-1.165.358-1.866.358zm10.001-6.302h-2.333v-1.57h6.353v1.57h-2.333v6.17h-1.687v-6.17zm11.261-1.623h1.556l3.285 7.793h-1.764l-.7-1.736h-3.242l-.703 1.736h-1.717l3.285-7.793zm1.773 4.552l-1.017-2.508-1.02 2.508h2.037zM-.059 40.019H3.79l4.268 6.926 4.266-6.926h3.848v16.38h-3.546V45.705L8.058 52.7h-.093l-4.524-6.926v10.625h-3.5V40.02zm20.752 0h7.42c2.055 0 3.632.554 4.73 1.66.928.936 1.393 2.185 1.393 3.746v.044c0 1.328-.322 2.409-.964 3.244-.641.833-1.48 1.446-2.514 1.837l3.964 5.85H30.55l-3.479-5.241h-2.806v5.24h-3.572V40.02zm7.187 7.956c.881 0 1.557-.21 2.029-.631.473-.422.709-.985.709-1.686v-.047c0-.78-.248-1.363-.744-1.752-.493-.391-1.181-.588-2.062-.588h-3.547v4.704h3.615zm17.784-7.956h3.572v6.48h6.583v-6.48h3.572v16.38h-3.572v-6.575h-6.583V56.4h-3.572V40.02zm23.812-.117h3.292L79.724 56.4h-3.733l-1.484-3.674h-6.863L66.16 56.4h-3.64l6.956-16.497zm3.755 9.64l-2.156-5.313-2.156 5.313h4.312zm9.622-9.523h3.292l7.607 10.085V40.019h3.525v16.38h-3.04L86.38 45.984V56.4h-3.526V40.02zm18.944 0h6.331c1.267 0 2.43.207 3.488.621 1.059.413 1.972.985 2.738 1.718a7.646 7.646 0 011.773 2.587c.417.99.625 2.063.625 3.218v.044a8.298 8.298 0 01-.625 3.231 7.65 7.65 0 01-1.773 2.6 8.38 8.38 0 01-2.738 1.73c-1.058.42-2.221.631-3.488.631h-6.331V40.02zm3.572 3.252v9.875h2.759a5.45 5.45 0 001.991-.351 4.286 4.286 0 001.543-1.005 4.72 4.72 0 00.996-1.545c.24-.592.361-1.256.361-1.99v-.048c0-.716-.121-1.378-.361-1.987a4.64 4.64 0 00-.996-1.567 4.386 4.386 0 00-1.543-1.017 5.278 5.278 0 00-1.991-.365h-2.759zm19.752 6.669l-6.238-9.921h4.175l3.873 6.574 3.942-6.574h4.057l-6.238 9.852V56.4h-3.571v-6.46z"/><mask id="je" maskUnits="userSpaceOnUse" x="67" y="69" width="3" height="3"><path d="M67.129 69h2.254v2.275h-2.254V69z"/></mask><g mask="url(#je)"><mask id="jf" maskUnits="userSpaceOnUse" x="67" y="69" width="3" height="3"><path d="M68.256 69c-.622 0-1.127.51-1.127 1.137 0 .628.505 1.138 1.127 1.138s1.127-.51 1.127-1.138c0-.628-.505-1.137-1.127-1.137z"/></mask><g mask="url(#jf)"><path d="M67.129 69h2.254v2.275h-2.254V69z"/></g></g></g><defs><clipPath id="ja"><path d="M0 0h135v74H0z"/></clipPath></defs></svg><svg viewBox="0 0 24 24" id="phone" xmlns="http://www.w3.org/2000/svg"><g clip-path="url(#ka)"><path fill-rule="evenodd" clip-rule="evenodd" d="M4.648 2.352a3 3 0 014.52.322l1.82 2.424a3 3 0 01-.28 3.921l-1.34 1.341c.13.338.558 1.08 1.86 2.383 1.302 1.302 2.044 1.73 2.383 1.86l1.34-1.34a3 3 0 013.921-.28l2.425 1.819a3 3 0 01.321 4.521l-1.191 1.191c-.714.714-2.23 1.381-3.764 1.448-2.401.104-5.663-.962-9.678-4.977-4.014-4.014-5.08-7.276-4.976-9.677.058-1.336.483-2.803 1.453-3.759.695-.706.785-.796 1.186-1.197zm-.641 5.042c-.073 1.665.629 4.414 4.393 8.177 3.763 3.764 6.512 4.465 8.176 4.393 1.554-.068 2.388-.819 2.437-.864l1.19-1.191a1 1 0 00-.106-1.507l-2.425-1.819a1 1 0 00-1.307.093c-.53.53-.892.898-1.6 1.603-1.472 1.467-3.99-1.162-4.951-2.122-.883-.883-3.573-3.482-2.124-4.947l1.604-1.605a1 1 0 00.093-1.307L7.57 3.874a1 1 0 00-1.507-.107c-.396.396-.844.844-1.19 1.192-.711.716-.827 1.56-.865 2.435z"/></g><defs><clipPath id="ka"><path d="M0 0h24v24H0z"/></clipPath></defs></svg><svg viewBox="0 0 57 71" id="quality" xmlns="http://www.w3.org/2000/svg"><g clip-path="url(#la)"><path d="M37.239 59.256a.892.892 0 01-.282-.046c-8.968-2.887-14.63-9.518-16.376-19.175-1.303-7.206.016-13.465.072-13.727a.926.926 0 01.944-.727c.57.027 1.123.04 1.66.04 9.242 0 13.292-3.87 13.335-3.913a.925.925 0 011.297 0c.06.058 4.593 4.373 14.993 3.873a.924.924 0 01.945.727c.057.262 1.375 6.52.071 13.727-1.745 9.657-7.408 16.29-16.376 19.175a.92.92 0 01-.283.046zM22.316 27.454c-.3 1.85-.91 6.857.084 12.307 1.633 8.943 6.625 14.864 14.836 17.603 8.23-2.746 13.224-8.684 14.846-17.655.983-5.442.374-10.412.077-12.254-8.607.233-13.302-2.64-14.923-3.883-1.62 1.242-6.316 4.11-14.92 3.882z" fill-opacity=".996"/><path d="M37.238 55.186a.925.925 0 01-.328-.061c-6.85-2.606-11.061-7.842-12.517-15.559-.524-2.78-.687-6.254-.435-9.292a.922.922 0 01.877-.845c3.655-.159 6.968-.871 9.85-2.118a21.54 21.54 0 002.094-1.05.92.92 0 01.916 0c.662.38 1.386.742 2.095 1.05 2.88 1.247 6.194 1.959 9.849 2.118a.92.92 0 01.877.845c.252 3.038.088 6.511-.436 9.292-1.456 7.72-5.667 12.953-12.516 15.559a.922.922 0 01-.326.06zm-11.501-23.96c-.152 2.678.016 5.613.467 7.998 1.324 7.018 4.934 11.618 11.032 14.05 6.098-2.432 9.71-7.033 11.032-14.052.45-2.386.619-5.32.467-7.998-3.557-.235-6.81-.98-9.678-2.222a23.074 23.074 0 01-1.822-.886c-.59.32-1.213.622-1.824.886-2.864 1.242-6.117 1.99-9.674 2.225z" fill-opacity=".996"/><mask id="la" maskUnits="userSpaceOnUse" x="0" y="0" width="45" height="45"><path d="M0 0h44.934v44.903H0V0z"/></mask><g mask="url(#la)"><path d="M22.488 44.77h-1.35a4.713 4.713 0 01-4.705-4.711v-1.214a17.036 17.036 0 01-1.51-.627l-.857.86a4.709 4.709 0 01-6.655 0l-1.724-1.726a4.718 4.718 0 010-6.662l.857-.858c-.232-.495-.44-1-.627-1.513H4.706A4.714 4.714 0 010 23.608v-2.443c0-2.597 2.11-4.71 4.706-4.71h1.21c.185-.513.395-1.019.628-1.514l-.857-.858a4.718 4.718 0 010-6.661l1.724-1.726a4.707 4.707 0 016.655 0l.858.859c.494-.232.998-.442 1.511-.627V4.715A4.713 4.713 0 0121.14.003h2.439a4.713 4.713 0 014.705 4.712v1.211c.512.186 1.017.394 1.51.628l.86-.86a4.707 4.707 0 016.655 0l1.723 1.725a4.72 4.72 0 010 6.663l-.858.858c.232.494.443.999.628 1.513h1.211a4.713 4.713 0 014.706 4.71v2.441a4.7 4.7 0 01-.62 2.333.92.92 0 01-1.06.426c-2.999-.887-4.885-2.098-5.797-2.797-1.558 1.197-5.962 3.898-13.955 3.898-.316 0-.639-.004-.968-.013-.364 2.276-1.2 9.307 1.045 16.107a.925.925 0 01-.128.83.928.928 0 01-.748.382zm-7.748-8.595c.144 0 .289.034.423.105.792.41 1.622.756 2.47 1.025a.924.924 0 01.642.879v1.875a2.869 2.869 0 002.864 2.867h.104c-2.34-8.292-.669-16.269-.592-16.619a.924.924 0 01.945-.726c10.494.505 14.947-3.827 14.99-3.87a.919.919 0 011.301 0c.013.013 1.56 1.506 4.889 2.636.066-.24.1-.49.1-.74v-2.442a2.868 2.868 0 00-2.864-2.866H38.14a.921.921 0 01-.878-.644 15.51 15.51 0 00-1.024-2.472.921.921 0 01.167-1.077l1.325-1.327a2.874 2.874 0 000-4.054l-1.724-1.726a2.866 2.866 0 00-4.05 0l-1.325 1.326a.919.919 0 01-1.076.167 15.696 15.696 0 00-2.468-1.026.924.924 0 01-.643-.879V4.711a2.868 2.868 0 00-2.864-2.867h-2.438a2.868 2.868 0 00-2.864 2.867v1.874a.922.922 0 01-.642.879c-.846.27-1.677.613-2.47 1.025a.919.919 0 01-1.075-.167l-1.325-1.327a2.866 2.866 0 00-4.05 0L6.992 8.721a2.874 2.874 0 000 4.055l1.325 1.327c.285.285.352.72.167 1.077a15.58 15.58 0 00-1.025 2.472.922.922 0 01-.878.644H4.706a2.868 2.868 0 00-2.864 2.867v2.44a2.868 2.868 0 002.864 2.867h1.872c.4 0 .756.261.877.644.27.848.613 1.68 1.024 2.471a.923.923 0 01-.166 1.078L6.986 31.99a2.874 2.874 0 000 4.055l1.724 1.724a2.863 2.863 0 004.05 0l1.325-1.326a.94.94 0 01.654-.268z" fill-opacity=".996"/></g><path d="M20.94 33.55a.966.966 0 01-.124-.008c-5.532-.76-9.705-5.556-9.705-11.156 0-6.209 5.046-11.262 11.248-11.262 6.202 0 11.248 5.052 11.248 11.262 0 1.003-.133 2-.394 2.962a.92.92 0 01-.578.626c-3.033 1.086-6.5 1.582-10.32 1.48a37.952 37.952 0 00-.454 5.194.924.924 0 01-.92.903zm1.419-20.583c-5.187 0-9.408 4.224-9.408 9.418 0 4.335 2.99 8.093 7.103 9.133.143-3.076.577-5.116.597-5.213a.922.922 0 01.945-.727c3.698.179 7.043-.22 9.953-1.182a9.407 9.407 0 00.216-2.01c0-5.193-4.22-9.42-9.406-9.42z" fill-opacity=".996"/><mask id="lb" maskUnits="userSpaceOnUse" x="39" y="46" width="18" height="25"><path d="M39.11 46.016H57V71H39.11V46.016z"/></mask><g mask="url(#lb)"><path d="M43.623 70.997a.924.924 0 01-.89-.683l-3.447-12.882a.92.92 0 01.507-1.077c4.553-2.086 7.95-5.381 10.101-9.797a.923.923 0 011.717.165l5.295 19.787a.926.926 0 01-.34.981.923.923 0 01-1.038.04l-7.144-4.49-3.946 7.466a.923.923 0 01-.815.49zm-2.358-13.3l2.642 9.871 3.312-6.269a.915.915 0 01.576-.459.914.914 0 01.727.11l6 3.769-4.097-15.305c-2.203 3.58-5.274 6.357-9.16 8.282z" fill-opacity=".996"/></g><mask id="lc" maskUnits="userSpaceOnUse" x="17" y="46" width="19" height="25"><path d="M17.475 46.016h17.751V71H17.475V46.016z"/></mask><g mask="url(#lc)"><path d="M30.85 70.997a.92.92 0 01-.813-.492L26.09 63.04l-7.146 4.49a.921.921 0 01-1.378-1.021l5.296-19.787a.92.92 0 011.717-.165c2.15 4.414 5.548 7.71 10.102 9.796.41.187.622.642.507 1.078L31.74 70.31a.918.918 0 01-.89.686zM26.44 60.81a.913.913 0 01.814.492l3.314 6.268 2.641-9.872c-3.885-1.926-6.957-4.704-9.162-8.281l-4.095 15.305 5.998-3.77a.919.919 0 01.49-.142z" fill-opacity=".996"/></g><path d="M34.864 46.424a.913.913 0 01-.65-.27l-4.919-4.924a.922.922 0 111.303-1.305l4.268 4.273 9.015-9.025a.918.918 0 011.302 0c.36.36.36.944 0 1.304l-9.666 9.679a.927.927 0 01-.653.268z" fill-opacity=".996"/></g><defs><clipPath id="la"><path d="M0 0h57v71H0z"/></clipPath></defs></svg><svg viewBox="0 0 20 18" id="star" xmlns="http://www.w3.org/2000/svg"><mask id="ma" maskUnits="userSpaceOnUse" x="0" y="0" width="20" height="18"><path d="M.5 0h19v18H.5V0z"/></mask><g mask="url(#ma)"><mask id="mb" maskUnits="userSpaceOnUse" x="0" y="0" width="20" height="18"><path d="M9.985 0l2.24 6.875h7.247l-5.862 4.25L15.848 18l-5.863-4.25L4.125 18l2.237-6.876L.5 6.875h7.247L9.985 0z"/></mask><g mask="url(#mb)"><path d="M.5 0h19v18H.5V0z"/></g></g></svg><svg viewBox="0 0 125 119" id="team" xmlns="http://www.w3.org/2000/svg"><g filter="url(#na)"><path fill-opacity=".01" d="M0 0h117v111H0z"/><path d="M65.641 46.262c0-.876.048-1.754 0-2.626a1.718 1.718 0 01.169-.97 1.695 1.695 0 01.675-.713c1.989-1.34 3.949-2.718 5.933-4.072 1.688-1.148 3.371-2.302 4.97-3.575 1.01-.81 1.778-2.793 1.176-4.29-.405-1.011-1.292-1.583-2.68-.997a7.876 7.876 0 00-1.291.772c-3.973 2.656-7.979 5.244-12.08 7.7a7.515 7.515 0 01-3.681 1.025 9.113 9.113 0 01-2.726-.362A9.118 9.118 0 0153.61 37a330.065 330.065 0 01-11.673-7.495 5.627 5.627 0 00-1.06-.557c-1.573-.644-2.565.557-2.665 1.797a4.284 4.284 0 001.388 3.637 73.9 73.9 0 005.722 4.796.635.635 0 00.224.057"/><mask id="na" maskUnits="userSpaceOnUse" x="56" y="59" width="31" height="20"><path d="M56.295 59.825H87v18.278H56.295V59.825z"/></mask><g mask="url(#na)"><path d="M71.57 77.045c0-1.21.033-2.422.057-3.632 0-.778.2-1.016.953-1.173 4.292-.901 8.107-2.89 11.621-5.42.997-.715 1.43-1.736 1.76-2.9a2.633 2.633 0 00.013-1.166 2.656 2.656 0 00-.49-1.06c-.477-.782-1.307-.953-2.212-.567a17.48 17.48 0 00-2.514 1.507 38.035 38.035 0 01-9.537 4.404 12.767 12.767 0 01-3.781.52c-1.693-.042-3.39 0-5.084 0a4.96 4.96 0 00-2.924.836 5.048 5.048 0 00-.684.557 5.105 5.105 0 00-.574.668 4.78 4.78 0 00-.616 1.168 4.738 4.738 0 00-.228.852 1.913 1.913 0 000 .281c0 1.712-.033 3.424-.053 5.14"/></g><path d="M54.91 48.441a7.664 7.664 0 00-.275-1.735c-.826-2.24-2.357-3.652-4.77-4.081a6.103 6.103 0 00-1.164-.062 5.873 5.873 0 00-1.713.333 6.053 6.053 0 00-1.056.495 5.81 5.81 0 00-1.354 1.102 5.95 5.95 0 00-1.55 4.278 5.874 5.874 0 00.166 1.154 5.915 5.915 0 001.352 2.553 5.971 5.971 0 001.858 1.39 5.816 5.816 0 001.096.397c.19.048.38.087.573.116a6.163 6.163 0 001.15.049 6.13 6.13 0 001.69-.336 5.952 5.952 0 001.525-.798 6.08 6.08 0 001.572-1.666 5.982 5.982 0 00.521-1.025 6.085 6.085 0 00.318-1.105c.067-.325-.033-.673.062-1.006"/><mask id="nb" maskUnits="userSpaceOnUse" x="30" y="51" width="28" height="28"><path d="M30 51.531h27.176v26.572H30V51.531z"/></mask><g mask="url(#nb)"><path d="M56.142 64.14a5.415 5.415 0 00-.938-2.926 4.632 4.632 0 00-.817-.891 4.62 4.62 0 00-1.588-.861 4.544 4.544 0 00-1.193-.198c-1.768-.082-3.538-.04-5.307-.04a6.117 6.117 0 01-2.8-.671 79.789 79.789 0 01-8.702-5.197 3.916 3.916 0 00-1.402-.681c-1.311-.262-2.275.567-2.346 1.945a4.181 4.181 0 001.335 3.47 29.79 29.79 0 007.272 5.245 5.5 5.5 0 001.23.476c.744.181.892.415.897 1.22v10.403c0 .538.033 1.077.053 1.62"/></g><mask id="nc" maskUnits="userSpaceOnUse" x="51" y="20" width="15" height="15"><path d="M51.53 20h13.94v14.06H51.53V20z"/></mask><g mask="url(#nc)"><path d="M58.045 21.067a7.143 7.143 0 00-2.632.887 5.825 5.825 0 00-2.8 4.248 5.937 5.937 0 00.1 2.208 5.958 5.958 0 00.895 2.021 5.796 5.796 0 00.71.853 6.045 6.045 0 001.829 1.244 6.21 6.21 0 001.055.348 6.03 6.03 0 003.828-.462 6.002 6.002 0 001.606-1.111 6.084 6.084 0 001.17-1.564 6.334 6.334 0 00.272-.626 5.92 5.92 0 00.27-.986 6.116 6.116 0 00.091-1.359 5.584 5.584 0 00-.07-.678 6.11 6.11 0 00-.37-1.31 5.708 5.708 0 00-.296-.615 6.059 6.059 0 00-.79-1.11 6.008 6.008 0 00-1.307-1.088 5.699 5.699 0 00-.6-.325 6.208 6.208 0 00-.634-.252 5.848 5.848 0 00-.658-.18 4.32 4.32 0 00-1.616-.129"/></g><path d="M63.686 50.896a6.244 6.244 0 00-3.014 1.345 5.843 5.843 0 00-1.936 2.957 5.861 5.861 0 00-.205 1.176 5.915 5.915 0 00.624 3.16 6.114 6.114 0 00.577.919 6.078 6.078 0 00.735.799 6.088 6.088 0 00.869.652 6.012 6.012 0 001.486.656c.175.05.351.092.53.126 2.69.477 5.464-.705 6.628-3.638 1.483-3.742-.92-7.47-4.73-8.138a8.859 8.859 0 00-1.507 0"/></g><defs><filter id="na" x="0" y="0" width="125" height="119" filterUnits="userSpaceOnUse" color-interpolation-filters="sRGB"><feFlood flood-opacity="0" result="BackgroundImageFix"/><feColorMatrix in="SourceAlpha" values="0 0 0 0 0 0 0 0 0 0 0 0 0 0 0 0 0 0 127 0" result="hardAlpha"/><feOffset dx="4" dy="4"/><feGaussianBlur stdDeviation="2"/><feComposite in2="hardAlpha" operator="out"/><feColorMatrix values="0 0 0 0 0 0 0 0 0 0 0 0 0 0 0 0 0 0 0.25 0"/><feBlend in2="BackgroundImageFix" result="effect1_dropShadow_360_74"/><feBlend in="SourceGraphic" in2="effect1_dropShadow_360_74" result="shape"/><feColorMatrix in="SourceAlpha" values="0 0 0 0 0 0 0 0 0 0 0 0 0 0 0 0 0 0 127 0" result="hardAlpha"/><feOffset dx="4" dy="4"/><feGaussianBlur stdDeviation="2"/><feComposite in2="hardAlpha" operator="arithmetic" k2="-1" k3="1"/><feColorMatrix values="0 0 0 0 0 0 0 0 0 0 0 0 0 0 0 0 0 0 0.25 0"/><feBlend in2="shape" result="effect2_innerShadow_360_74"/></filter></defs></svg></svg>