<svg width="57" height="71" viewBox="0 0 57 71" fill="none" xmlns="http://www.w3.org/2000/svg">
<path d="M38.0572 51.835C37.7773 51.8339 37.5394 51.7329 37.3422 51.532L27.3822 41.5481C27.2893 41.4539 27.2168 41.345 27.1658 41.2224C27.1148 41.0988 27.0898 40.9705 27.0898 40.8378C27.0898 40.7039 27.1148 40.5757 27.1658 40.4531C27.2168 40.3295 27.2893 40.2205 27.3822 40.1263L41.6231 25.867C41.7172 25.7728 41.8259 25.7013 41.9483 25.6502C42.0718 25.5992 42.1999 25.5742 42.3324 25.5742C42.4662 25.5742 42.5931 25.5992 42.7166 25.6502C42.8401 25.7013 42.9477 25.7728 43.0429 25.867L53.012 35.8509C53.2058 36.0461 53.3032 36.281 53.3044 36.5567C53.3066 36.8358 53.2092 37.0741 53.012 37.2727L38.7722 51.532C38.5762 51.7329 38.3382 51.8339 38.0572 51.835ZM29.5181 40.8423L38.0572 49.3943L50.8772 36.5567L42.2973 28.0047L29.5181 40.8423Z" fill="#F5F5F5" fill-opacity="0.996078"/>
<path d="M22.9307 56.9977C22.8502 56.9977 22.7721 56.9875 22.6939 56.9682C22.6157 56.9489 22.5409 56.9217 22.4695 56.8843C22.3993 56.8468 22.3336 56.8026 22.2724 56.7492C22.2123 56.6959 22.1591 56.6369 22.1126 56.5711C22.0661 56.5064 22.0276 56.4361 21.9982 56.3612C21.9687 56.2863 21.9483 56.2091 21.9381 56.1297C21.9268 56.0503 21.9245 55.9708 21.9324 55.8903C21.9404 55.8109 21.9574 55.7326 21.9846 55.6565L27.1402 40.5303C27.1685 40.4497 27.2059 40.3737 27.2535 40.3022C27.3 40.2319 27.3555 40.1672 27.419 40.1105C27.4824 40.0537 27.5515 40.0061 27.6274 39.9663C27.7034 39.9266 27.7827 39.8983 27.8654 39.879C27.9481 39.8597 28.0331 39.8506 28.1181 39.8529C28.2031 39.8551 28.2869 39.8688 28.3685 39.8915C28.4501 39.9153 28.5283 39.9482 28.6008 39.9913C28.6744 40.0344 28.7413 40.0866 28.8025 40.1468L38.7716 50.1307C38.8951 50.2533 38.9801 50.3974 39.0288 50.5642C39.0775 50.7309 39.0821 50.8989 39.0435 51.0679C39.005 51.2381 38.9268 51.3868 38.8101 51.5161C38.6945 51.6455 38.554 51.7374 38.3897 51.7941L23.2831 56.958C23.1687 56.9921 23.0508 57.0057 22.9307 56.9977ZM28.5203 42.6986L24.5522 54.3664L36.2538 50.3928L28.5203 42.6986Z" fill="#F5F5F5" fill-opacity="0.996078"/>
<path d="M22.9307 56.9979C22.8502 56.9979 22.7721 56.9877 22.6939 56.9684C22.6157 56.9491 22.5409 56.9218 22.4695 56.8844C22.3993 56.847 22.3336 56.8027 22.2724 56.7494C22.2123 56.696 22.1591 56.637 22.1126 56.5712C22.0661 56.5066 22.0276 56.4362 21.9982 56.3613C21.9687 56.2864 21.9483 56.2093 21.9381 56.1298C21.9268 56.0504 21.9245 55.971 21.9324 55.8904C21.9404 55.811 21.9574 55.7327 21.9846 55.6567L24.2202 49.062C24.2576 48.9508 24.312 48.8498 24.3845 48.7579C24.4581 48.6671 24.5431 48.59 24.6428 48.5287C24.7414 48.4663 24.8491 48.4243 24.9624 48.3993C25.0768 48.3744 25.1913 48.3698 25.308 48.3857C25.9697 48.4697 26.5997 48.6603 27.1991 48.9553C27.7974 49.2503 28.3322 49.6361 28.8025 50.1104C29.2727 50.5836 29.6546 51.1203 29.9492 51.7183C30.2438 52.3174 30.4353 52.9482 30.5237 53.6097C30.5395 53.7255 30.535 53.8401 30.5112 53.9547C30.4863 54.0693 30.4432 54.1759 30.382 54.2758C30.3197 54.3745 30.2438 54.4607 30.152 54.5334C30.0614 54.606 29.9594 54.6616 29.8495 54.699L23.2627 56.9377C23.1562 56.9763 23.0451 56.9967 22.9307 56.9979ZM25.8417 50.5745L24.5522 54.3666L28.339 53.0753C28.2393 52.786 28.1079 52.5103 27.9458 52.2504C27.7838 51.9906 27.5946 51.7523 27.3782 51.5356C27.1617 51.3188 26.9238 51.1294 26.6643 50.9671C26.4048 50.8048 26.1306 50.6744 25.8417 50.5745Z" fill="#F5F5F5" fill-opacity="0.996078"/>
<mask id="mask0_360_1111" style="mask-type:luminance" maskUnits="userSpaceOnUse" x="40" y="22" width="17" height="17">
<path d="M40.7754 22.1543H57.0004V38.1304H40.7754V22.1543Z" fill="white"/>
</mask>
<g mask="url(#mask0_360_1111)">
<path d="M52.2971 37.9888L40.9082 26.5729L44.473 23.0134C44.6157 22.8773 44.7698 22.757 44.9353 22.6503C45.1007 22.5437 45.2752 22.454 45.4588 22.3814C45.6412 22.3088 45.8293 22.2532 46.0219 22.2158C46.2157 22.1794 46.4106 22.1602 46.6077 22.1602C46.8049 22.1602 46.9998 22.1794 47.1924 22.2158C47.3862 22.2532 47.5743 22.3088 47.7567 22.3814C47.9403 22.454 48.1137 22.5437 48.2802 22.6503C48.4457 22.757 48.5998 22.8773 48.7425 23.0134L55.863 30.1425C56.0024 30.2832 56.1281 30.4364 56.2381 30.601C56.348 30.7666 56.4409 30.9402 56.5168 31.124C56.5927 31.3079 56.6494 31.4962 56.6879 31.6914C56.7264 31.8854 56.7457 32.0828 56.7457 32.2814C56.7457 32.48 56.7264 32.6763 56.6879 32.8703C56.6494 33.0655 56.5927 33.2549 56.5168 33.4376C56.4409 33.6214 56.348 33.795 56.2381 33.9607C56.1281 34.1252 56.0024 34.2784 55.863 34.4191L52.2971 37.9888ZM43.758 26.5729L52.2971 35.1351L54.4421 32.9974C54.5384 32.9021 54.6109 32.7931 54.663 32.6683C54.7152 32.5446 54.7401 32.4153 54.7401 32.2814C54.7401 32.1464 54.7152 32.017 54.663 31.8933C54.6109 31.7685 54.5384 31.6596 54.4421 31.5654L47.3329 24.4352C47.2389 24.341 47.1301 24.2695 47.0066 24.2184C46.8842 24.1674 46.7562 24.1424 46.6225 24.1424C46.4899 24.1424 46.3619 24.1674 46.2384 24.2184C46.116 24.2695 46.0072 24.341 45.9132 24.4352L43.758 26.5729Z" fill="#F5F5F5" fill-opacity="0.996078"/>
</g>
<path d="M38.0557 51.8353C37.7758 51.8341 37.5379 51.7331 37.3407 51.5323L34.5011 48.6888C34.406 48.5935 34.3323 48.4846 34.2802 48.3609C34.2292 48.2361 34.2031 48.1067 34.2031 47.9728C34.2031 47.8378 34.2292 47.7085 34.2802 47.5848C34.3323 47.4611 34.406 47.3511 34.5011 47.2569L48.7409 32.9975C48.835 32.9033 48.9438 32.8307 49.0673 32.7796C49.1896 32.7297 49.3177 32.7036 49.4514 32.7036C49.584 32.7036 49.712 32.7297 49.8355 32.7796C49.9579 32.8307 50.0667 32.9033 50.1607 32.9975L53.0105 35.8512C53.2043 36.0463 53.3017 36.2812 53.3028 36.5569C53.3051 36.8361 53.2077 37.0744 53.0105 37.2729L38.7707 51.5323C38.5747 51.7331 38.3367 51.8341 38.0557 51.8353ZM36.6359 47.9728L38.0557 49.3946L50.8757 36.5569L49.4559 35.1352L36.6359 47.9728Z" fill="#F5F5F5" fill-opacity="0.996078"/>
<path d="M30.9364 44.7047C30.6554 44.7127 30.4129 44.6185 30.2112 44.4222L27.3716 41.5685C27.2776 41.4743 27.205 41.3654 27.154 41.2417C27.1031 41.1192 27.0781 40.991 27.0781 40.8582C27.0781 40.7243 27.1031 40.5961 27.154 40.4736C27.205 40.3499 27.2776 40.2409 27.3716 40.1468L41.6216 25.867C41.7156 25.7728 41.8244 25.7013 41.9468 25.6502C42.0703 25.5992 42.1984 25.5742 42.3309 25.5742C42.4646 25.5742 42.5915 25.5992 42.7151 25.6502C42.8386 25.7013 42.9462 25.7728 43.0414 25.867L45.8912 28.7207C46.0849 28.9158 46.1824 29.1518 46.1835 29.4264C46.1846 29.7055 46.0872 29.945 45.8912 30.1424L31.6514 44.4222C31.4519 44.6151 31.2128 44.7093 30.9364 44.7047ZM29.5166 40.8423L30.9364 42.2641L43.7564 29.4264L42.2958 28.0047L29.5166 40.8423Z" fill="#F5F5F5" fill-opacity="0.996078"/>
<mask id="mask1_360_1111" style="mask-type:luminance" maskUnits="userSpaceOnUse" x="0" y="32" width="21" height="25">
<path d="M0 32.3208H20.1796V56.7207H0V32.3208Z" fill="white"/>
</mask>
<g mask="url(#mask1_360_1111)">
<path d="M19.1337 56.5233H1.00734C0.873628 56.5233 0.744454 56.4983 0.622078 56.4473C0.498569 56.3962 0.38979 56.3236 0.294609 56.2283C0.200561 56.1341 0.128041 56.0252 0.0770515 55.9015C0.0260616 55.7778 0 55.6496 0 55.5157V49.4645C0 49.3306 0.0260616 49.2024 0.0770515 49.0787C0.128041 48.955 0.200561 48.8461 0.294609 48.7519C0.38979 48.6566 0.498569 48.584 0.622078 48.5329C0.744454 48.4819 0.873628 48.4558 1.00734 48.4558H10.0711V44.422H1.00734C0.873628 44.422 0.744454 44.3971 0.622078 44.346C0.498569 44.295 0.38979 44.2212 0.294609 44.127C0.200561 44.0329 0.128041 43.9239 0.0770515 43.8002C0.0260616 43.6766 0 43.5472 0 43.4145V37.3633C0 37.2294 0.0260616 37.1012 0.0770515 36.9775C0.128041 36.8538 0.200561 36.7449 0.294609 36.6507C0.38979 36.5554 0.498569 36.4828 0.622078 36.4317C0.744454 36.3806 0.873628 36.3545 1.00734 36.3545H16.1128V33.3295C16.1128 33.1956 16.1389 33.0674 16.1899 32.9437C16.2409 32.8201 16.3134 32.7111 16.4074 32.6158C16.5026 32.5216 16.6114 32.449 16.7349 32.398C16.8584 32.3469 16.9865 32.3208 17.1202 32.3208C17.2539 32.3208 17.3819 32.3469 17.5054 32.398C17.6289 32.449 17.7377 32.5216 17.8318 32.6158C17.9269 32.7111 17.9995 32.8201 18.0505 32.9437C18.1014 33.0674 18.1275 33.1956 18.1275 33.3295V37.3633C18.1275 37.4972 18.1014 37.6254 18.0505 37.7491C17.9995 37.8727 17.9269 37.9817 17.8318 38.0758C17.7377 38.1712 17.6289 38.2438 17.5054 38.2948C17.3819 38.3459 17.2539 38.372 17.1202 38.372H2.01354V42.4057H11.0773C11.211 42.4057 11.3402 42.4307 11.4625 42.4818C11.5861 42.534 11.6948 42.6066 11.79 42.7007C11.8841 42.7949 11.9566 42.905 12.0076 43.0275C12.0597 43.1512 12.0846 43.2806 12.0846 43.4145V49.4645C12.0846 49.5984 12.0597 49.7266 12.0076 49.8503C11.9566 49.974 11.8841 50.0829 11.79 50.1782C11.6948 50.2724 11.5861 50.345 11.4625 50.3961C11.3402 50.4471 11.211 50.4732 11.0773 50.4732H2.01354V54.507H19.1337C19.2674 54.507 19.3966 54.5331 19.5201 54.5841C19.6425 54.6352 19.7524 54.7078 19.8464 54.802C19.9405 54.8973 20.013 55.0062 20.0651 55.1299C20.1161 55.2525 20.141 55.3818 20.141 55.5157C20.141 55.6496 20.1161 55.7778 20.0651 55.9015C20.013 56.0252 19.9405 56.1341 19.8464 56.2283C19.7524 56.3236 19.6425 56.3962 19.5201 56.4473C19.3966 56.4983 19.2674 56.5233 19.1337 56.5233Z" fill="#F5F5F5" fill-opacity="0.996078"/>
</g>
<path d="M21.1488 26.2709H13.0924C12.9587 26.2709 12.8306 26.2448 12.7071 26.1937C12.5836 26.1426 12.4748 26.07 12.3797 25.9747C12.2856 25.8805 12.2131 25.7716 12.1621 25.6479C12.1111 25.5242 12.085 25.396 12.085 25.2621V23.2447C12.0839 23.0858 12.0465 22.9349 11.974 22.7931C11.9015 22.6501 11.8006 22.5321 11.6726 22.4379C11.5242 22.3245 11.3791 22.2065 11.2386 22.0851C11.0981 21.9625 10.961 21.8354 10.8284 21.7049C10.6947 21.5745 10.5655 21.4394 10.4409 21.301C10.3163 21.1626 10.1961 21.0196 10.0806 20.8732C9.96386 20.7269 9.85281 20.5771 9.7463 20.425C9.63866 20.2719 9.53668 20.1153 9.44036 19.9553C9.34291 19.7964 9.25113 19.6342 9.16388 19.4696C9.07663 19.304 8.99505 19.1361 8.918 18.9659C8.84095 18.7968 8.76956 18.6243 8.70384 18.4496C8.63699 18.2748 8.5758 18.099 8.52141 17.9197C8.46589 17.7415 8.41603 17.5623 8.37184 17.3807C8.32765 17.1992 8.28912 17.0165 8.25626 16.8327C8.2234 16.6489 8.19507 16.465 8.17354 16.279C8.15202 16.094 8.13615 15.9079 8.12595 15.7218C8.11576 15.5346 8.11236 15.3485 8.11349 15.1613C8.11462 14.9752 8.12142 14.788 8.13502 14.6019C8.14748 14.4158 8.16561 14.2297 8.19054 14.0448C8.21434 13.8598 8.24493 13.676 8.28006 13.4922C8.31632 13.3095 8.35711 13.1269 8.40357 12.9464C8.45116 12.766 8.50328 12.5867 8.56107 12.4097C8.61886 12.2316 8.68231 12.0557 8.75143 11.8833C8.81942 11.7096 8.8942 11.5383 8.97239 11.3692C9.05171 11.2002 9.13669 11.0334 9.2262 10.87C9.31572 10.7055 9.40977 10.5455 9.50948 10.3866C9.6092 10.2289 9.71344 10.0746 9.82222 9.92255C9.931 9.77164 10.0443 9.62299 10.1633 9.47889C10.2811 9.33479 10.4035 9.19409 10.5304 9.05679C10.6573 8.9195 10.7876 8.78674 10.9225 8.65852C11.0573 8.52917 11.1967 8.40549 11.3395 8.28522C11.4811 8.16494 11.6273 8.04921 11.778 7.93801C11.9275 7.82681 12.0805 7.72015 12.2369 7.61803C12.3932 7.51591 12.5519 7.41947 12.7151 7.32756C12.8771 7.23565 13.0414 7.14828 13.2091 7.06658C13.3768 6.98489 13.5468 6.90887 13.719 6.83738C13.8924 6.7659 14.0657 6.70009 14.2425 6.63995C14.4193 6.57981 14.5971 6.52535 14.7773 6.47542C14.9563 6.4255 15.1376 6.38238 15.3201 6.3438C15.5025 6.30522 15.6861 6.27345 15.8708 6.24622C16.0555 6.21899 16.2402 6.19856 16.426 6.18268C16.6118 6.16679 16.7988 6.15772 16.9846 6.15318C17.1716 6.14977 17.3574 6.15091 17.5432 6.15885C17.7302 6.16679 17.916 6.17927 18.1019 6.19856C18.2866 6.21785 18.4713 6.24282 18.656 6.27345C18.8395 6.30409 19.0219 6.33926 19.2044 6.38124C19.3857 6.42323 19.5658 6.47088 19.7449 6.52308C19.9239 6.57641 20.1007 6.63428 20.2763 6.69895C20.4508 6.76249 20.6242 6.83171 20.7953 6.9066C20.9664 6.98035 21.1341 7.06091 21.3006 7.14601C21.4661 7.22998 21.6304 7.32075 21.7901 7.41493C21.951 7.51024 22.1085 7.61009 22.2626 7.71562C22.4167 7.82 22.5675 7.92893 22.7159 8.04353C22.8632 8.157 23.0071 8.27614 23.1476 8.39869C23.287 8.52236 23.4241 8.64945 23.5567 8.78107C23.6892 8.91269 23.8173 9.04772 23.9408 9.18728C24.0654 9.32571 24.1844 9.46981 24.3 9.61619C24.4156 9.76256 24.5266 9.91233 24.632 10.0666C24.7385 10.2198 24.8393 10.3764 24.9357 10.5364C25.032 10.6964 25.1237 10.8586 25.2099 11.0243C25.296 11.19 25.3776 11.3579 25.4535 11.5281C25.5294 11.6994 25.5997 11.8719 25.6654 12.0466C25.7311 12.2214 25.79 12.3984 25.8455 12.5765C25.8999 12.7558 25.9487 12.9351 25.9917 13.1166C26.0348 13.2982 26.0733 13.4809 26.105 13.6647C26.1368 13.8496 26.1639 14.0335 26.1843 14.2195C26.2251 14.6076 26.241 14.9979 26.2308 15.3882C26.2217 15.7786 26.1866 16.1678 26.1277 16.5535C26.0676 16.9393 25.9838 17.3206 25.875 17.6962C25.7662 18.0706 25.6336 18.4382 25.4784 18.7957C25.322 19.1542 25.1441 19.5014 24.9425 19.8361C24.7419 20.1709 24.5209 20.492 24.2784 20.7983C24.0371 21.1047 23.7753 21.394 23.4966 21.6675C23.2167 21.9398 22.921 22.194 22.6094 22.4277C22.4825 22.523 22.3839 22.6422 22.3125 22.784C22.2411 22.9258 22.206 23.0768 22.206 23.2345V25.2519C22.2071 25.3211 22.2003 25.3892 22.1879 25.4562C22.1743 25.5242 22.155 25.5889 22.1278 25.6525C22.1017 25.716 22.0689 25.7761 22.0304 25.8329C21.9907 25.8896 21.9465 25.9418 21.8978 25.9895C21.8479 26.0382 21.7935 26.0802 21.7357 26.1165C21.678 26.1528 21.6168 26.1835 21.5522 26.2073C21.4876 26.2323 21.4219 26.2493 21.3539 26.2595C21.2859 26.2697 21.2179 26.2743 21.1488 26.2709ZM14.0997 24.2534H20.1415V23.2447C20.1426 23.011 20.1698 22.7806 20.2242 22.5525C20.2786 22.3256 20.3579 22.1066 20.4633 21.8978C20.5675 21.6891 20.6956 21.4939 20.8451 21.3146C20.9947 21.1353 21.1635 20.9754 21.3505 20.8347C21.5748 20.6656 21.789 20.4829 21.993 20.2889C22.1958 20.0937 22.3873 19.8872 22.5652 19.6694C22.7442 19.4515 22.9085 19.2234 23.0604 18.9863C23.2111 18.748 23.3482 18.5029 23.4705 18.2487C23.5918 17.9946 23.6983 17.7336 23.7889 17.467C23.8796 17.2003 23.9544 16.9291 24.0122 16.6534C24.0711 16.3777 24.113 16.0997 24.1379 15.8183C24.1629 15.538 24.1708 15.2566 24.1617 14.9752C24.1538 14.6927 24.1289 14.4136 24.0858 14.1344C24.0439 13.8553 23.985 13.5807 23.9102 13.3084C23.8354 13.0372 23.7448 12.7706 23.6371 12.5107C23.5306 12.2498 23.4082 11.9956 23.2711 11.7505C23.134 11.5043 22.9833 11.2671 22.8179 11.0391C22.6513 10.811 22.4734 10.5943 22.2819 10.3878C22.0904 10.1813 21.8876 9.98609 21.6723 9.80454C21.457 9.62186 21.2326 9.45279 20.9981 9.29848C20.5573 9.00573 20.0905 8.76745 19.5964 8.58023C19.1024 8.39301 18.5948 8.26366 18.0713 8.19104C17.5489 8.11842 17.0243 8.10594 16.4985 8.15133C15.9727 8.19671 15.4583 8.29997 14.9552 8.46109C14.6266 8.56321 14.3082 8.68916 13.9977 8.83894C13.6884 8.98871 13.3915 9.16005 13.1071 9.35294C12.8216 9.54697 12.553 9.75915 12.3003 9.9929C12.0465 10.2255 11.812 10.4763 11.5967 10.744C11.3802 11.0118 11.1842 11.2944 11.0097 11.5905C10.8352 11.8878 10.6834 12.1953 10.5542 12.5153C10.425 12.8341 10.3197 13.1609 10.2392 13.4956C10.1576 13.8303 10.1021 14.1685 10.0715 14.5123C10.0194 15.1114 10.042 15.7082 10.1418 16.3017C10.2403 16.8962 10.4114 17.4681 10.6562 18.0184C10.8998 18.5687 11.208 19.0793 11.5819 19.5513C11.9547 20.0234 12.3819 20.4409 12.8601 20.804C13.0527 20.9447 13.225 21.1058 13.3791 21.2863C13.5332 21.4678 13.6635 21.6641 13.7711 21.8763C13.8788 22.0885 13.9603 22.3097 14.0159 22.5412C14.0714 22.7727 14.0986 23.0075 14.0997 23.2447V24.2534Z" fill="#F5F5F5" fill-opacity="0.996078"/>
<path d="M19.1331 30.3046H15.1049C14.9066 30.3046 14.7105 30.2853 14.5156 30.2456C14.3219 30.207 14.1326 30.1503 13.9491 30.0743C13.7655 29.9982 13.5922 29.9052 13.4267 29.794C13.2624 29.6839 13.1094 29.558 12.9689 29.4184C12.8284 29.2777 12.7038 29.1246 12.5928 28.96C12.4828 28.7944 12.3899 28.6196 12.314 28.4369C12.2381 28.2531 12.1814 28.0636 12.1418 27.8696C12.1032 27.6744 12.084 27.477 12.084 27.2784V25.2621C12.084 25.1282 12.11 25 12.161 24.8764C12.212 24.7527 12.2845 24.6437 12.3786 24.5484C12.4738 24.4543 12.5826 24.3816 12.7061 24.3306C12.8296 24.2795 12.9576 24.2534 13.0913 24.2534H21.1477C21.2814 24.2534 21.4095 24.2795 21.533 24.3306C21.6565 24.3816 21.7653 24.4543 21.8593 24.5484C21.9545 24.6437 22.027 24.7527 22.078 24.8764C22.129 25 22.1551 25.1282 22.1551 25.2621V27.2784C22.1551 27.477 22.1358 27.6744 22.0973 27.8696C22.0576 28.0636 22.001 28.2531 21.9251 28.4369C21.8491 28.6196 21.7562 28.7944 21.6452 28.96C21.5353 29.1246 21.4106 29.2777 21.2701 29.4184C21.1296 29.558 20.9766 29.6839 20.8123 29.794C20.6469 29.9052 20.4735 29.9982 20.29 30.0743C20.1064 30.1503 19.9172 30.207 19.7234 30.2456C19.5285 30.2853 19.3325 30.3046 19.1331 30.3046ZM14.0987 26.2709V27.2784C14.0987 27.4123 14.1236 27.5417 14.1746 27.6642C14.2256 27.7879 14.2992 27.8968 14.3933 27.9922C14.4873 28.0863 14.5961 28.1589 14.7196 28.21C14.8431 28.2622 14.9723 28.2872 15.1049 28.2872H19.1331C19.2668 28.2872 19.3959 28.2622 19.5195 28.21C19.6418 28.1589 19.7517 28.0863 19.8458 27.9922C19.9398 27.8968 20.0124 27.7879 20.0645 27.6642C20.1155 27.5417 20.1404 27.4123 20.1404 27.2784V26.2709H14.0987Z" fill="#F5F5F5" fill-opacity="0.996078"/>
<mask id="mask2_360_1111" style="mask-type:luminance" maskUnits="userSpaceOnUse" x="15" y="0" width="4" height="5">
<path d="M15.8281 0H18.1487V4.14494H15.8281V0Z" fill="white"/>
</mask>
<g mask="url(#mask2_360_1111)">
<path d="M17.1206 4.08502C16.9869 4.08502 16.8589 4.05892 16.7354 4.00786C16.6119 3.9568 16.5031 3.88418 16.4079 3.78887C16.3138 3.69469 16.2413 3.58576 16.1903 3.46208C16.1393 3.3384 16.1133 3.21019 16.1133 3.0763V1.05999C16.1133 0.926099 16.1393 0.796747 16.1903 0.673068C16.2413 0.550524 16.3138 0.440461 16.4079 0.346283C16.5031 0.252106 16.6119 0.179487 16.7354 0.127292C16.8589 0.0762323 16.9869 0.0512695 17.1206 0.0512695C17.2543 0.0512695 17.3824 0.0762323 17.5059 0.127292C17.6294 0.179487 17.7382 0.252106 17.8322 0.346283C17.9274 0.440461 17.9999 0.550524 18.0509 0.673068C18.1019 0.796747 18.128 0.926099 18.128 1.05999V3.0763C18.128 3.21019 18.1019 3.3384 18.0509 3.46208C17.9999 3.58576 17.9274 3.69469 17.8322 3.78887C17.7382 3.88418 17.6294 3.9568 17.5059 4.00786C17.3824 4.05892 17.2543 4.08502 17.1206 4.08502Z" fill="#F5F5F5" fill-opacity="0.996078"/>
</g>
<path d="M8.56919 7.62361C8.29498 7.62248 8.05929 7.5249 7.8644 7.332L6.43441 5.90913C6.34037 5.81495 6.26671 5.70489 6.21572 5.58121C6.16473 5.45753 6.13867 5.32818 6.13867 5.19429C6.13867 5.05926 6.16473 4.93105 6.21572 4.80623C6.26785 4.68255 6.34037 4.57362 6.43555 4.47831C6.52959 4.383 6.63951 4.31038 6.76302 4.25932C6.88652 4.20713 7.0157 4.18216 7.14941 4.18216C7.28425 4.18103 7.41229 4.20713 7.53693 4.25819C7.66044 4.30925 7.76922 4.383 7.8644 4.47718L9.28419 5.90913C9.37824 6.00444 9.45075 6.11337 9.50174 6.23591C9.5516 6.35959 9.57766 6.48781 9.57766 6.62057C9.57766 6.75332 9.5516 6.88154 9.50174 7.00522C9.45075 7.12776 9.37824 7.23669 9.28419 7.332C9.08703 7.5283 8.84794 7.62588 8.56919 7.62361Z" fill="#F5F5F5" fill-opacity="0.996078"/>
<path d="M5.03568 16.1859H3.02101C2.8873 16.1859 2.75926 16.1598 2.63575 16.1087C2.51224 16.0577 2.40346 15.9851 2.30941 15.8909C2.21423 15.7956 2.14171 15.6866 2.09072 15.563C2.03973 15.4393 2.01367 15.3111 2.01367 15.1772C2.01367 15.0433 2.03973 14.9151 2.09072 14.7914C2.14171 14.6677 2.21423 14.5588 2.30941 14.4646C2.40346 14.3693 2.51224 14.2967 2.63575 14.2456C2.75926 14.1946 2.8873 14.1685 3.02101 14.1685H5.03568C5.16939 14.1685 5.29743 14.1946 5.42094 14.2456C5.54444 14.2967 5.65322 14.3693 5.74727 14.4646C5.84245 14.5588 5.91497 14.6677 5.96596 14.7914C6.01695 14.9151 6.04301 15.0433 6.04301 15.1772C6.04301 15.3111 6.01695 15.4393 5.96596 15.563C5.91497 15.6866 5.84245 15.7956 5.74727 15.8909C5.65322 15.9851 5.54444 16.0577 5.42094 16.1087C5.29743 16.1598 5.16939 16.1859 5.03568 16.1859Z" fill="#F5F5F5" fill-opacity="0.996078"/>
<path d="M7.14972 26.1702C6.87097 26.1713 6.63302 26.0737 6.43473 25.8774C6.33955 25.7833 6.26589 25.6732 6.2149 25.5495C6.16278 25.4247 6.13672 25.2953 6.13672 25.1615C6.13672 25.0264 6.16278 24.8982 6.2149 24.7734C6.26589 24.6497 6.33955 24.5397 6.43473 24.4455L7.86471 23.0237C7.91004 22.9704 7.95989 22.9228 8.01542 22.8808C8.06981 22.8388 8.12873 22.8013 8.19105 22.7718C8.25337 22.7412 8.31909 22.7174 8.38594 22.7015C8.4528 22.6845 8.52192 22.6743 8.59104 22.672C8.66016 22.6686 8.72928 22.6731 8.79726 22.6856C8.86638 22.697 8.9321 22.7151 8.99669 22.7401C9.06128 22.7662 9.1236 22.7979 9.18139 22.8354C9.23918 22.874 9.29243 22.9171 9.34229 22.9659C9.39101 23.0158 9.43407 23.0691 9.4726 23.127C9.50999 23.186 9.54172 23.2473 9.56778 23.3119C9.59271 23.3766 9.61084 23.4424 9.6233 23.5116C9.63463 23.5797 9.63916 23.6489 9.63577 23.7182C9.6335 23.7874 9.6233 23.8566 9.60744 23.9235C9.59044 23.9916 9.56665 24.0563 9.53605 24.1187C9.50659 24.1811 9.47033 24.2401 9.42727 24.2946C9.38535 24.3502 9.33776 24.4001 9.2845 24.4455L7.86471 25.8774C7.66755 26.0737 7.42847 26.1713 7.14972 26.1702Z" fill="#F5F5F5" fill-opacity="0.996078"/>
<path d="M27.0907 26.1702C26.8119 26.1713 26.5728 26.0737 26.3757 25.8774L24.9559 24.4455C24.9026 24.4001 24.855 24.3502 24.8131 24.2946C24.7701 24.2401 24.7338 24.1811 24.7043 24.1187C24.6737 24.0563 24.6499 23.9916 24.6329 23.9235C24.616 23.8566 24.6069 23.7874 24.6046 23.7182C24.6012 23.6489 24.6058 23.5797 24.6171 23.5116C24.6284 23.4424 24.6477 23.3766 24.6726 23.3119C24.6975 23.2473 24.7293 23.186 24.7678 23.127C24.8052 23.0691 24.8494 23.0158 24.8981 22.9659C24.9468 22.9171 25.0012 22.874 25.059 22.8354C25.1168 22.7979 25.178 22.7662 25.2426 22.7401C25.3071 22.7151 25.374 22.697 25.4431 22.6856C25.5111 22.6731 25.5802 22.6686 25.6493 22.672C25.7185 22.6743 25.7865 22.6845 25.8544 22.7015C25.9213 22.7174 25.987 22.7412 26.0493 22.7718C26.1117 22.8025 26.1706 22.8388 26.225 22.8808C26.2805 22.9228 26.3303 22.9704 26.3757 23.0237L27.8057 24.4455C27.9008 24.5397 27.9745 24.6497 28.0255 24.7734C28.0776 24.8982 28.1037 25.0264 28.1037 25.1615C28.1037 25.2953 28.0776 25.4247 28.0255 25.5495C27.9745 25.6732 27.9008 25.7833 27.8057 25.8774C27.6074 26.0737 27.3694 26.1713 27.0907 26.1702Z" fill="#F5F5F5" fill-opacity="0.996078"/>
<path d="M31.2193 16.1859H29.2046C29.0709 16.1859 28.9429 16.1598 28.8193 16.1087C28.6958 16.0577 28.5871 15.9851 28.493 15.8909C28.3978 15.7956 28.3253 15.6866 28.2743 15.563C28.2233 15.4393 28.1973 15.3111 28.1973 15.1772C28.1973 15.0433 28.2233 14.9151 28.2743 14.7914C28.3253 14.6677 28.3978 14.5588 28.493 14.4646C28.5871 14.3693 28.6958 14.2967 28.8193 14.2456C28.9429 14.1946 29.0709 14.1685 29.2046 14.1685H31.2193C31.3518 14.1685 31.481 14.1946 31.6045 14.2456C31.728 14.2967 31.8368 14.3693 31.9309 14.4646C32.0249 14.5588 32.0986 14.6677 32.1496 14.7914C32.2005 14.9151 32.2255 15.0433 32.2255 15.1772C32.2255 15.3111 32.2005 15.4393 32.1496 15.563C32.0986 15.6866 32.0249 15.7956 31.9309 15.8909C31.8368 15.9851 31.728 16.0577 31.6045 16.1087C31.481 16.1598 31.3518 16.1859 31.2193 16.1859Z" fill="#F5F5F5" fill-opacity="0.996078"/>
<path d="M25.6706 7.62361C25.3918 7.62588 25.1527 7.5283 24.9556 7.332C24.8615 7.23669 24.789 7.12776 24.738 7.00522C24.687 6.88154 24.6621 6.75332 24.6621 6.62057C24.6621 6.48781 24.687 6.35959 24.738 6.23591C24.789 6.11337 24.8615 6.00444 24.9556 5.90913L26.3754 4.47718C26.4694 4.383 26.5793 4.30925 26.7028 4.25819C26.8264 4.20713 26.9555 4.18103 27.0904 4.18216C27.2241 4.18216 27.3532 4.20713 27.4768 4.25932C27.6003 4.31038 27.7102 4.383 27.8042 4.47831C27.8994 4.57362 27.9719 4.68255 28.024 4.80623C28.075 4.93105 28.1011 5.05926 28.1011 5.19429C28.1011 5.32818 28.075 5.45753 28.024 5.58121C27.9731 5.70489 27.8994 5.81495 27.8054 5.90913L26.3754 7.332C26.1793 7.5249 25.9448 7.62248 25.6706 7.62361Z" fill="#F5F5F5" fill-opacity="0.996078"/>
<path d="M21.1488 16.186C21.0151 16.186 20.8871 16.1599 20.7636 16.1088C20.6401 16.0577 20.5313 15.9851 20.4372 15.8909C20.3421 15.7956 20.2695 15.6867 20.2185 15.563C20.1676 15.4393 20.1415 15.3111 20.1415 15.1772C20.1415 14.9787 20.1222 14.7824 20.0837 14.5872C20.0452 14.392 19.9874 14.2037 19.9115 14.0199C19.8355 13.8361 19.7426 13.6613 19.6327 13.4968C19.5228 13.3311 19.397 13.1791 19.2565 13.0384C19.116 12.8977 18.9642 12.7729 18.7988 12.6617C18.6345 12.5516 18.46 12.4586 18.2764 12.3825C18.094 12.3065 17.9047 12.2487 17.7098 12.2101C17.5149 12.1715 17.3189 12.1522 17.1206 12.1522C16.9869 12.1522 16.8589 12.1261 16.7354 12.075C16.6118 12.024 16.5031 11.9514 16.4079 11.8572C16.3138 11.7619 16.2413 11.653 16.1903 11.5293C16.1393 11.4056 16.1133 11.2774 16.1133 11.1435C16.1133 11.0096 16.1393 10.8814 16.1903 10.7577C16.2413 10.634 16.3138 10.5251 16.4079 10.4309C16.5031 10.3356 16.6118 10.263 16.7354 10.2119C16.8589 10.1609 16.9869 10.1348 17.1206 10.1348C17.2849 10.1348 17.4504 10.1438 17.6147 10.1597C17.7778 10.1756 17.941 10.1994 18.103 10.2323C18.2651 10.2641 18.4248 10.3038 18.5823 10.3526C18.7398 10.4003 18.8951 10.4559 19.048 10.5194C19.1999 10.5818 19.3483 10.6522 19.4945 10.7305C19.6395 10.8088 19.7812 10.8927 19.9183 10.9846C20.0554 11.0765 20.1879 11.1753 20.3149 11.2796C20.4429 11.384 20.5641 11.4952 20.6809 11.6121C20.7976 11.729 20.9086 11.8515 21.0129 11.9786C21.1171 12.1068 21.2157 12.2384 21.3075 12.3757C21.3992 12.513 21.4831 12.6549 21.5613 12.8001C21.6395 12.9465 21.7097 13.0951 21.772 13.2483C21.8355 13.4003 21.891 13.5558 21.9386 13.7135C21.9873 13.8724 22.027 14.0324 22.0587 14.1935C22.0916 14.3557 22.1154 14.5191 22.1312 14.6837C22.1482 14.847 22.1562 15.0127 22.1562 15.1772C22.1562 15.3111 22.1301 15.4393 22.0791 15.563C22.0281 15.6867 21.9556 15.7956 21.8604 15.8909C21.7664 15.9851 21.6576 16.0577 21.5341 16.1088C21.4106 16.1599 21.2825 16.186 21.1488 16.186Z" fill="#F5F5F5" fill-opacity="0.996078"/>
</svg>
