<svg width="57" height="71" viewBox="0 0 57 71" fill="none" xmlns="http://www.w3.org/2000/svg">
<path d="M18.297 26.3972H21.9737C22.8339 26.3972 23.5309 25.7005 23.5309 24.8395V20.0597C23.5309 19.2128 22.8339 18.5161 21.9737 18.5161H18.297C17.451 18.5161 16.7539 19.2128 16.7539 20.0597V24.8395C16.7539 25.7005 17.451 26.3972 18.297 26.3972ZM18.6526 20.4156H21.6333V24.4977H18.6526V20.4156Z" fill="#F5F5F5" fill-opacity="0.996078"/>
<path d="M26.6608 26.3972H30.3385C31.1987 26.3972 31.8947 25.7005 31.8947 24.8395V20.0597C31.8947 19.2128 31.1987 18.5161 30.3385 18.5161H26.6608C25.8006 18.5161 25.1035 19.2128 25.1035 20.0597V24.8395C25.1035 25.7005 25.8006 26.3972 26.6608 26.3972ZM27.0011 20.4156H29.9971V24.4977H27.0011V20.4156Z" fill="#F5F5F5" fill-opacity="0.996078"/>
<path d="M21.9737 35.3344C22.8339 35.3344 23.5309 34.6367 23.5309 33.7756V28.9958C23.5309 28.1348 22.8339 27.437 21.9737 27.437H18.297C17.451 27.437 16.7539 28.1348 16.7539 28.9958V33.7756C16.7539 34.6367 17.451 35.3344 18.297 35.3344H21.9737ZM18.6526 29.3365H21.6333V33.4338H18.6526V29.3365Z" fill="#F5F5F5" fill-opacity="0.996078"/>
<path d="M26.6608 35.3344H30.3385C31.1987 35.3344 31.8947 34.6367 31.8947 33.7756V28.9958C31.8947 28.1348 31.1987 27.437 30.3385 27.437H26.6608C25.8006 27.437 25.1035 28.1348 25.1035 28.9958V33.7756C25.1035 34.6367 25.8006 35.3344 26.6608 35.3344ZM27.0011 29.3365H29.9971V33.4338H27.0011V29.3365Z" fill="#F5F5F5" fill-opacity="0.996078"/>
<path d="M35.024 35.3344H38.7018C39.5468 35.3344 40.2438 34.6367 40.2438 33.7756V28.9958C40.2438 28.1348 39.5468 27.437 38.7018 27.437H35.024C34.1639 27.437 33.4668 28.1348 33.4668 28.9958V33.7756C33.4668 34.6367 34.1639 35.3344 35.024 35.3344ZM35.3644 29.3365H38.3451V33.4338H35.3644V29.3365Z" fill="#F5F5F5" fill-opacity="0.996078"/>
<path d="M50.6998 36.1802H47.0221C46.1619 36.1802 45.4648 36.8779 45.4648 37.739V42.5482C45.4648 43.4092 46.1619 44.107 47.0221 44.107H50.6998C51.56 44.107 52.2571 43.4092 52.2571 42.5482V37.739C52.2571 36.8779 51.56 36.1802 50.6998 36.1802ZM50.3584 38.1243V42.1617H47.3635V38.1243H50.3584Z" fill="#F5F5F5" fill-opacity="0.996078"/>
<path d="M50.6998 45.1157H47.0221C46.1619 45.1157 45.4648 45.8135 45.4648 46.6745V51.4391C45.4648 52.3001 46.1619 52.9979 47.0221 52.9979H50.6998C51.56 52.9979 52.2571 52.3001 52.2571 51.4391V46.6745C52.2571 45.8135 51.56 45.1157 50.6998 45.1157ZM50.3584 51.0973H47.3635V47.0152H50.3584V51.0973Z" fill="#F5F5F5" fill-opacity="0.996078"/>
<path d="M32.7404 46.6006C32.2064 46.6006 31.791 47.0306 31.791 47.5498V48.3662C31.791 48.8865 32.2064 49.3165 32.7404 49.3165C33.2591 49.3165 33.6886 48.8865 33.6886 48.3662V47.5498C33.6886 47.0306 33.2591 46.6006 32.7404 46.6006Z" fill="#F5F5F5" fill-opacity="0.996078"/>
<mask id="mask0_360_676" style="mask-type:luminance" maskUnits="userSpaceOnUse" x="0" y="0" width="57" height="58">
<path d="M0 0H57V58H0V0Z" fill="white"/>
</mask>
<g mask="url(#mask0_360_676)">
<path d="M55.1776 19.6888H54.6882L55.1482 17.6847L56.6456 14.9242C56.9425 14.4039 57.0165 13.7812 56.8534 13.1716C56.7055 12.5784 56.2901 12.0591 55.7115 11.7326L53.1908 10.3523L56.3934 4.47413C56.75 3.821 56.8534 3.06337 56.675 2.33622C56.4673 1.53505 55.9486 0.851441 55.2069 0.435615C53.7693 -0.336165 51.9598 0.198312 51.1888 1.63846L47.9852 7.51662L45.4644 6.15049C44.9011 5.85441 44.2628 5.78038 43.6549 5.95782C43.0623 6.15049 42.5729 6.55217 42.2913 7.08664L40.7786 9.8472L40.2001 10.4405H37.1302C36.9823 8.65959 35.648 7.13018 33.8091 6.81886C31.6288 6.4629 29.5528 7.93244 29.1972 10.1139C29.182 10.2184 29.182 10.337 29.1668 10.4405H13.2845C11.9948 10.4405 10.9269 11.4953 10.9269 12.8015V15.5022C10.9269 16.7203 11.8762 17.7141 13.0627 17.8328V19.6888H1.82164C0.828797 19.6888 0.0273438 20.4899 0.0273438 21.4849V24.6014C0.0273438 25.4929 0.695041 26.2342 1.55522 26.3681V57.051C1.55522 57.5702 1.97062 58.0002 2.50348 58.0002H54.5099C55.0297 58.0002 55.4592 57.5702 55.4592 57.051V26.3681C56.3042 26.2342 56.9719 25.4929 56.9719 24.6014V21.4849C56.9719 20.4899 56.1715 19.6888 55.1776 19.6888ZM55.0743 24.498H53.5758L54.2435 21.5883H55.0743V24.498ZM47.3631 29.1885H49.6468L50.358 29.5749V33.2706H47.3631V29.1885ZM35.3653 21.4108L38.346 23.0284V24.498H35.3653V21.4108ZM41.2973 12.0591V12.0439L41.7421 11.5834L48.7116 15.3836L53.1756 17.8186L52.5677 20.4159C52.5677 20.4159 52.5677 20.4159 52.5677 20.4311L52.1229 22.3013L50.9659 27.3184C50.8767 27.3032 50.7886 27.289 50.6995 27.289H50.1209L47.511 25.8641L48.8747 22.642C49.0824 22.1521 48.8606 21.6035 48.3712 21.3956C47.896 21.1877 47.3327 21.4108 47.125 21.9007L45.8353 24.9584L45.0045 24.5132L43.6256 23.7414L45.1088 20.995C45.3611 20.5346 45.198 19.9555 44.738 19.7181C44.278 19.4656 43.6995 19.6289 43.4472 20.0893L41.9498 22.8358L39.7999 21.6623C39.7847 21.6481 39.7705 21.6329 39.7553 21.6329L39.7401 21.6188L42.9144 16.9424C43.2102 16.4971 43.1068 15.918 42.6621 15.6209C42.2314 15.3248 41.6388 15.4434 41.3419 15.8734L38.0643 20.7131L34.9064 18.991L34.6986 18.8865L38.2427 15.2203L41.2973 12.0591ZM52.8493 2.52889C53.131 2.02489 53.7835 1.83113 54.3033 2.09892C54.5697 2.24696 54.7622 2.4995 54.822 2.79668C54.8807 2.97411 54.8959 3.25604 54.7328 3.55322L51.5292 9.44661L50.6842 9.0014C50.6549 8.97092 50.6255 8.95677 50.5951 8.94153L49.6468 8.42229L52.8493 2.52889ZM43.9518 7.99123C44.0257 7.85842 44.1443 7.79855 44.2041 7.78331C44.278 7.76916 44.4118 7.73977 44.5455 7.82794L49.4837 10.5003L49.6914 10.619L51.4552 11.5693C51.4552 11.5693 51.4552 11.5693 51.4552 11.5834L54.7926 13.3795C54.9112 13.4546 54.9851 13.5581 55.0145 13.6473C55.0591 13.7812 55.0438 13.8999 54.9992 13.988C54.9851 13.988 54.9851 14.0033 54.9851 14.0033L53.8726 16.0367L48.5931 13.1575L42.8393 10.0257L43.9518 7.99123ZM31.0655 10.4263C31.2427 9.40198 32.1333 8.65959 33.1566 8.65959C33.2599 8.65959 33.3785 8.67483 33.497 8.68898C34.6388 8.88275 35.4098 9.96585 35.2326 11.1088C35.2326 11.1382 35.2174 11.1687 35.2174 11.1981C34.9955 12.3117 33.9276 13.0388 32.8 12.8603C31.955 12.7264 31.2579 12.0591 31.0796 11.1687C31.0361 10.9455 31.0209 10.693 31.0655 10.4263ZM12.8256 15.5022V12.8015C12.8256 12.549 13.0333 12.3411 13.2845 12.3411H29.4636C29.5082 12.4303 29.5528 12.5185 29.5974 12.6078C29.6268 12.6524 29.642 12.697 29.6713 12.7569C29.7605 12.9202 29.8638 13.0682 29.9824 13.2163C29.9824 13.2315 29.9976 13.2467 30.0128 13.2609C30.1161 13.3948 30.2346 13.5134 30.3532 13.6321C30.3836 13.6767 30.4424 13.7061 30.4869 13.7507C30.5761 13.84 30.6653 13.914 30.7686 13.988C30.8284 14.0327 30.8871 14.0773 30.9317 14.1078C31.0361 14.1818 31.1394 14.2406 31.2427 14.3004C31.3025 14.3298 31.3623 14.3592 31.4211 14.3897C31.5396 14.4485 31.6581 14.4931 31.7767 14.5378C31.8365 14.553 31.8811 14.5824 31.9398 14.5976C32.1181 14.6564 32.3106 14.701 32.4889 14.7304C32.7108 14.7751 32.9337 14.7903 33.1566 14.7903C33.1566 14.7903 33.1566 14.7903 33.1708 14.7903C33.3198 14.7903 33.4524 14.7609 33.6014 14.7457C33.6895 14.7457 33.7645 14.7457 33.8526 14.7304C34.0016 14.701 34.1495 14.6564 34.2985 14.6118C35.4098 14.2711 36.344 13.484 36.8192 12.3998C36.8192 12.3857 36.8333 12.3705 36.8333 12.3411H38.3612L35.1728 15.6655L34.8759 15.9474H13.2845C13.0333 15.9474 12.8256 15.7547 12.8256 15.5022ZM1.92604 21.5883H13.0627V24.498H1.92604V21.5883ZM3.45282 26.3975H13.0627V56.1007H3.45282V26.3975ZM14.9603 25.4483V17.848H33.0522L32.4737 18.4565C32.266 18.6644 32.1627 18.9616 32.2073 19.2577C32.2519 19.5549 32.4291 19.8074 32.6966 19.9555L33.4677 20.3713V24.8398C33.4677 25.7008 34.1647 26.3975 35.0249 26.3975H38.6874C39.5628 26.3975 40.2447 25.715 40.2447 24.8398V24.068L42.039 25.0477V56.1007H35.8851V39.6832C35.8851 39.164 35.4697 38.7329 34.9357 38.7329H22.0635C21.5296 38.7329 21.1153 39.164 21.1153 39.6832V56.1007H14.9603V25.4483ZM23.0129 56.1007V40.6335H33.9864V56.1007H23.0129ZM53.5616 56.1007H43.9366V26.3975H44.501L46.3986 27.4218C45.8505 27.6602 45.4644 28.2088 45.4644 28.8467V33.6265C45.4644 34.4734 46.1615 35.1712 47.0217 35.1712H50.6995C51.5596 35.1712 52.2567 34.4734 52.2567 33.6265V29.723C52.3448 29.6196 52.4046 29.4857 52.4339 29.3518L53.131 26.3975H53.5616V56.1007Z" fill="#F5F5F5" fill-opacity="0.996078"/>
</g>
<path d="M9.97806 27.2886H6.30029C5.4412 27.2886 4.74414 27.9863 4.74414 28.8463V33.6261C4.74414 34.473 5.4412 35.1707 6.30029 35.1707H9.97806C10.8382 35.1707 11.5353 34.473 11.5353 33.6261V28.8463C11.5353 27.9863 10.8382 27.2886 9.97806 27.2886ZM9.63768 33.2701H6.64175V29.1881H9.63768V33.2701Z" fill="#F5F5F5" fill-opacity="0.996078"/>
<path d="M9.97806 36.1802H6.30029C5.4412 36.1802 4.74414 36.8779 4.74414 37.739V42.5482C4.74414 43.4092 5.4412 44.107 6.30029 44.107H9.97806C10.8382 44.107 11.5353 43.4092 11.5353 42.5482V37.739C11.5353 36.8779 10.8382 36.1802 9.97806 36.1802ZM9.63768 38.1243V42.1617H6.64175V38.1243H9.63768Z" fill="#F5F5F5" fill-opacity="0.996078"/>
<path d="M9.97806 45.1157H6.30029C5.4412 45.1157 4.74414 45.8135 4.74414 46.6745V51.4391C4.74414 52.3001 5.4412 52.9979 6.30029 52.9979H9.97806C10.8382 52.9979 11.5353 52.3001 11.5353 51.4391V46.6745C11.5353 45.8135 10.8382 45.1157 9.97806 45.1157ZM9.63768 51.0973H6.64175V47.0152H9.63768V51.0973Z" fill="#F5F5F5" fill-opacity="0.996078"/>
<path d="M49.0079 20.6234C49.2602 20.6234 49.4973 20.5189 49.6756 20.3262C49.854 20.163 49.9573 19.9104 49.9573 19.6731C49.9573 19.4064 49.854 19.1691 49.6756 18.9906C49.3342 18.6346 48.6817 18.6346 48.3413 18.9906C48.163 19.1691 48.0586 19.4064 48.0586 19.6731C48.0586 19.9104 48.163 20.163 48.3413 20.3262C48.5186 20.5189 48.7557 20.6234 49.0079 20.6234Z" fill="#F5F5F5" fill-opacity="0.996078"/>
<path d="M28.8852 4.65148C28.8852 2.64746 27.2399 1.00049 25.2226 1.00049C23.2054 1.00049 21.5742 2.64746 21.5742 4.65148C21.5742 6.67073 23.2054 8.31771 25.2226 8.31771C27.2399 8.31771 28.8852 6.67073 28.8852 4.65148ZM23.4729 4.65148C23.4729 3.68702 24.2591 2.9 25.2226 2.9C26.1861 2.9 26.9876 3.68702 26.9876 4.65148C26.9876 5.63117 26.1861 6.41819 25.2226 6.41819C24.2591 6.41819 23.4729 5.63117 23.4729 4.65148Z" fill="#F5F5F5" fill-opacity="0.996078"/>
</svg>
