<svg xmlns="http://www.w3.org/2000/svg" width="25" height="25" viewBox="0 0 25 25" fill="none">
  <path d="M14.1906 23.5149V15.7825C14.1906 15.6569 14.2924 15.5551 14.418 15.5551H16.6922C16.8178 15.5551 16.9197 15.4533 16.9197 15.3277V12.5986C16.9197 12.473 16.8178 12.3712 16.6922 12.3712H14.418C14.2924 12.3712 14.1906 12.2695 14.1906 12.1439V10.0969C14.1906 9.18725 15.3277 8.7324 15.7825 8.7324H17.1471C17.2727 8.7324 17.3745 8.63058 17.3745 8.50498V5.7759C17.3745 5.65029 17.2727 5.54847 17.1471 5.54847H14.1906C12.0073 5.54847 10.5518 7.82271 10.5518 9.18725V12.1438C10.5518 12.2694 10.45 12.3712 10.3244 12.3712H8.05013C7.92453 12.3712 7.82271 12.473 7.82271 12.5986V15.3277C7.82271 15.4533 7.92453 15.5551 8.05013 15.5551H10.3244C10.45 15.5551 10.5518 15.6569 10.5518 15.7825V23.5149C10.5518 23.6405 10.3744 23.5 10.5 23.5L14.1906 23.5149ZM14.1906 23.5149C14.1906 23.6405 14.3162 23.5149 14.1906 23.5149ZM23.7424 12.3712C23.7424 18.6513 18.6513 23.7424 12.3712 23.7424C6.09105 23.7424 1 18.6513 1 12.3712C1 6.09105 6.09105 1 12.3712 1C18.6513 1 23.7424 6.09105 23.7424 12.3712Z" stroke="#003049" stroke-width="1.5"/>
</svg>
