<svg xmlns="http://www.w3.org/2000/svg" width="25" height="24" viewBox="0 0 25 24" fill="none">
  <g clip-path="url(#clip0_300_927)">
    <path fill-rule="evenodd" clip-rule="evenodd" d="M7.38671 0.072C8.66635 0.0130909 9.07435 0 12.334 0C15.5936 0 16.0016 0.0141818 17.2802 0.072C18.5587 0.129818 19.4314 0.333818 20.1951 0.629454C20.9947 0.931636 21.7202 1.404 22.3202 2.01491C22.9311 2.61382 23.4023 3.33818 23.7034 4.13891C24.0002 4.90255 24.2031 5.77527 24.262 7.05164C24.3209 8.33345 24.334 8.74145 24.334 12C24.334 15.2596 24.3198 15.6676 24.262 16.9473C24.2042 18.2236 24.0002 19.0964 23.7034 19.86C23.4023 20.6608 22.9303 21.3864 22.3202 21.9862C21.7202 22.5971 20.9947 23.0684 20.1951 23.3695C19.4314 23.6662 18.5587 23.8691 17.2823 23.928C16.0016 23.9869 15.5936 24 12.334 24C9.07435 24 8.66635 23.9858 7.38671 23.928C6.11035 23.8702 5.23762 23.6662 4.47398 23.3695C3.67317 23.0683 2.94761 22.5963 2.3478 21.9862C1.73731 21.3869 1.26487 20.6617 0.963439 19.8611C0.667803 19.0975 0.464893 18.2247 0.405984 16.9484C0.347075 15.6665 0.333984 15.2585 0.333984 12C0.333984 8.74036 0.348166 8.33236 0.405984 7.05382C0.463803 5.77527 0.667803 4.90255 0.963439 4.13891C1.26532 3.33827 1.73811 2.61307 2.34889 2.01382C2.94785 1.40346 3.67268 0.931029 4.47289 0.629454C5.23653 0.333818 6.10926 0.130909 7.38562 0.072H7.38671ZM17.1831 2.232C15.9176 2.17418 15.538 2.16218 12.334 2.16218C9.12998 2.16218 8.75035 2.17418 7.48489 2.232C6.31435 2.28545 5.67944 2.48073 5.25617 2.64545C4.69653 2.86364 4.29617 3.12218 3.87617 3.54218C3.47803 3.92951 3.17164 4.40103 2.97944 4.92218C2.81471 5.34545 2.61944 5.98036 2.56598 7.15091C2.50817 8.41636 2.49617 8.796 2.49617 12C2.49617 15.204 2.50817 15.5836 2.56598 16.8491C2.61944 18.0196 2.81471 18.6545 2.97944 19.0778C3.17144 19.5982 3.47798 20.0705 3.87617 20.4578C4.26344 20.856 4.7358 21.1625 5.25617 21.3545C5.67944 21.5193 6.31435 21.7145 7.48489 21.768C8.75035 21.8258 9.12889 21.8378 12.334 21.8378C15.5391 21.8378 15.9176 21.8258 17.1831 21.768C18.3536 21.7145 18.9885 21.5193 19.4118 21.3545C19.9714 21.1364 20.3718 20.8778 20.7918 20.4578C21.19 20.0705 21.4965 19.5982 21.6885 19.0778C21.8533 18.6545 22.0485 18.0196 22.102 16.8491C22.1598 15.5836 22.1718 15.204 22.1718 12C22.1718 8.796 22.1598 8.41636 22.102 7.15091C22.0485 5.98036 21.8533 5.34545 21.6885 4.92218C21.4703 4.36255 21.2118 3.96218 20.7918 3.54218C20.4044 3.14408 19.9329 2.83768 19.4118 2.64545C18.9885 2.48073 18.3536 2.28545 17.1831 2.232ZM10.8013 15.6993C11.6572 16.0556 12.6104 16.1037 13.4979 15.8353C14.3854 15.567 15.1522 14.9988 15.6674 14.2279C16.1825 13.457 16.414 12.5311 16.3224 11.6085C16.2308 10.6858 15.8216 9.82361 15.1649 9.16909C14.7462 8.7507 14.24 8.43034 13.6827 8.23107C13.1254 8.0318 12.5308 7.95857 11.9418 8.01667C11.3528 8.07477 10.784 8.26274 10.2763 8.56705C9.76866 8.87136 9.3348 9.28445 9.00595 9.77656C8.67711 10.2687 8.46146 10.8276 8.37455 11.413C8.28763 11.9985 8.3316 12.596 8.5033 13.1624C8.675 13.7288 8.97015 14.2501 9.3675 14.6888C9.76485 15.1275 10.2545 15.4726 10.8013 15.6993ZM7.97253 7.63854C8.54528 7.06579 9.22524 6.61146 9.97358 6.30148C10.7219 5.99151 11.524 5.83197 12.334 5.83197C13.144 5.83197 13.946 5.99151 14.6944 6.30148C15.4427 6.61146 16.1227 7.06579 16.6954 7.63854C17.2682 8.2113 17.7225 8.89126 18.0325 9.6396C18.3425 10.3879 18.502 11.19 18.502 12C18.502 12.81 18.3425 13.6121 18.0325 14.3604C17.7225 15.1087 17.2682 15.7887 16.6954 16.3615C15.5387 17.5182 13.9698 18.168 12.334 18.168C10.6981 18.168 9.12926 17.5182 7.97253 16.3615C6.8158 15.2047 6.16596 13.6359 6.16596 12C6.16596 10.3641 6.8158 8.79527 7.97253 7.63854ZM19.87 6.75055C20.0119 6.61666 20.1255 6.45565 20.2041 6.27706C20.2827 6.09847 20.3247 5.90593 20.3275 5.71083C20.3304 5.51574 20.294 5.32205 20.2207 5.14125C20.1473 4.96044 20.0385 4.79619 19.9005 4.65822C19.7625 4.52026 19.5983 4.41137 19.4175 4.33802C19.2367 4.26467 19.043 4.22834 18.8479 4.23118C18.6528 4.23403 18.4602 4.27599 18.2816 4.35458C18.1031 4.43317 17.9421 4.54679 17.8082 4.68873C17.5478 4.96476 17.4052 5.3314 17.4107 5.71083C17.4163 6.09026 17.5695 6.45259 17.8378 6.72092C18.1061 6.98924 18.4684 7.14243 18.8479 7.14796C19.2273 7.15349 19.594 7.01093 19.87 6.75055Z" fill="#003049"/>
  </g>
  <defs>
    <clipPath id="clip0_300_927">
      <rect width="24" height="24" fill="white" transform="translate(0.333984)"/>
    </clipPath>
  </defs>
</svg>
