<svg xmlns="http://www.w3.org/2000/svg" width="135" height="74" viewBox="0 0 135 74" fill="none">
  <g clip-path="url(#clip0_300_1058)">
    <mask id="mask0_300_1058" style="mask-type:luminance" maskUnits="userSpaceOnUse" x="-31" y="-62" width="195" height="196">
      <path d="M163.374 -61.6416H-30.166V133.682H163.374V-61.6416Z" fill="black" fill-opacity="0.88"/>
    </mask>
    <g mask="url(#mask0_300_1058)">
      <mask id="mask1_300_1058" style="mask-type:luminance" maskUnits="userSpaceOnUse" x="23" y="0" width="87" height="33">
        <path d="M109.215 0.050293H23.9941V32.8052H109.215V0.050293Z" fill="white"/>
      </mask>
      <g mask="url(#mask1_300_1058)">
        <mask id="mask2_300_1058" style="mask-type:luminance" maskUnits="userSpaceOnUse" x="55" y="0" width="55" height="33">
          <path d="M55.0566 0.065918H109.147V32.5485H55.0566V0.065918Z" fill="white"/>
        </mask>
        <g mask="url(#mask2_300_1058)">
          <path d="M92.0203 32.6026H109.184L96.9771 31.0429L83.5198 19.2512C85.3616 17.3924 86.8627 15.8782 87.7782 14.9535C89.7895 12.9236 92.4745 15.1898 93.4102 16.1325C94.5885 17.3218 94.0363 18.4505 95.0109 19.4333C95.119 19.5424 95.6518 20.0801 95.7716 20.201C96.477 20.9138 97.0907 21.0645 97.772 20.3776L101.481 16.6349C102.062 16.0486 102.042 15.3123 101.324 14.587C101.259 14.521 100.631 13.8852 100.571 13.824C99.596 12.8404 98.5802 13.2949 97.4018 12.1057C95.8291 10.5185 95.469 7.66045 93.5984 5.77183C89.8596 1.99694 80.561 -1.65706 73.0219 1.21983C72.2068 1.53146 72.5187 1.96711 73.3828 1.95848C80.6544 1.88469 89.1619 6.11407 83.7352 11.5915L79.5725 15.7911L66.6043 4.42718L55.0938 14.514L58.2244 17.6726L66.6043 10.3293L76.4426 18.9514L75.2168 20.1877L66.6043 12.6395L59.4486 18.9097L60.7903 20.2638L66.6035 15.1694L73.8743 21.5409L67.9654 27.5051L71.6522 31.2258C73.6978 29.1606 75.8087 27.0302 77.8209 25.0003L86.4956 32.6026H89.3828L79.1641 23.647C79.5787 23.2278 79.9886 22.8149 80.3891 22.4099L92.0203 32.6026Z" fill="#D9D9D9"/>
        </g>
        <mask id="mask3_300_1058" style="mask-type:luminance" maskUnits="userSpaceOnUse" x="24" y="0" width="47" height="33">
          <path d="M24.0254 0.065918H70.3881V32.5485H24.0254V0.065918Z" fill="white"/>
        </mask>
        <g mask="url(#mask3_300_1058)">
          <path d="M59.8257 1.95849C60.6898 1.96712 61.0017 1.53147 60.1866 1.21984C52.6474 -1.65705 43.3497 1.99695 39.61 5.77105C37.7387 7.65967 37.3793 10.5169 35.8074 12.1049C34.629 13.2941 33.6125 12.8396 32.6379 13.8232C32.5772 13.8844 31.9488 14.521 31.8842 14.5862C31.1663 15.3107 31.1461 16.047 31.7279 16.6342L35.4372 20.3769C36.1177 21.0637 36.7322 20.913 37.4377 20.2002C37.5567 20.0801 38.0894 19.5417 38.1976 19.4325C39.1714 18.4498 38.6199 17.3218 39.7983 16.1318C40.7339 15.1882 43.4181 12.9228 45.4303 14.9528C46.3457 15.8774 47.8453 17.3909 49.6887 19.2504L36.2321 31.0437L24.0254 32.6026H41.189L52.8185 22.4099C53.2199 22.8149 53.629 23.2278 54.0443 23.647L43.8241 32.6026H46.7113L55.386 25.0003C57.8485 27.4855 60.4611 30.1222 62.9197 32.6026H70.2948L49.4732 11.5916C44.0466 6.11408 52.5533 1.8847 59.8257 1.95849Z" fill="#EC1424"/>
        </g>
      </g>
    </g>
    <path d="M30.3477 66.3159H32.1646L34.1806 69.5908L36.1967 66.3159H38.0136V74.0556H36.3398V69.0036L34.1806 72.3099H34.1371L31.9997 69.035V74.0556H30.3477V66.3159Z" fill="#0C1C33"/>
    <path d="M45.803 66.2627H47.3586L50.644 74.0558H48.8799L48.1799 72.3195H44.9381L44.2349 74.0558H42.5176L45.803 66.2627ZM47.5763 70.8155L46.559 68.3067L45.5385 70.8155H47.5763Z" fill="#0C1C33"/>
    <path d="M55.1465 66.3159H56.7021L60.2955 71.0822V66.3159H61.96V74.0556H60.5257L56.811 69.1355V74.0556H55.1465V66.3159Z" fill="#0C1C33"/>
    <path d="M77.4137 74.1876C76.8164 74.1876 76.2704 74.0879 75.7773 73.8893C75.2834 73.6907 74.8595 73.4144 74.5048 73.0604C74.1517 72.7071 73.8771 72.2872 73.6803 71.8013C73.4828 71.3138 73.3848 70.7832 73.3848 70.2094V70.1874C73.3848 69.6348 73.4843 69.1167 73.6834 68.6332C73.8841 68.1496 74.1633 67.7257 74.5203 67.3615C74.8789 66.9973 75.3028 66.7108 75.7928 66.5012C76.282 66.2901 76.8195 66.1841 77.4044 66.1841C77.7466 66.1841 78.0577 66.2084 78.3378 66.2563C78.6193 66.305 78.8807 66.3725 79.1218 66.4604C79.3644 66.5483 79.5916 66.6598 79.8031 66.7932C80.0147 66.9251 80.2185 67.0758 80.416 67.2454L79.3551 68.539C79.2073 68.4134 79.0603 68.3035 78.9133 68.2093C78.7679 68.1135 78.6162 68.0319 78.4591 67.9644C78.3035 67.8977 78.134 67.8466 77.952 67.8105C77.7692 67.7728 77.5677 67.754 77.3484 67.754C77.0412 67.754 76.7542 67.8192 76.4866 67.9487C76.2206 68.0766 75.9873 68.2493 75.7866 68.4668C75.5875 68.685 75.4304 68.9393 75.3168 69.2297C75.2025 69.521 75.1457 69.8326 75.1457 70.1654V70.1874C75.1457 70.5414 75.2025 70.868 75.3168 71.167C75.4304 71.4645 75.5914 71.7243 75.799 71.9457C76.0059 72.1655 76.2502 72.3366 76.5302 72.4575C76.8117 72.5792 77.1252 72.6396 77.4697 72.6396C78.0982 72.6396 78.6271 72.485 79.0564 72.1749V71.0697H77.3608V69.6002H80.6898V72.9599C80.2955 73.299 79.8257 73.5894 79.2804 73.8296C78.7368 74.0682 78.1145 74.1876 77.4137 74.1876Z" fill="#0C1C33"/>
    <path d="M87.4154 67.8858H85.082V66.3159H91.435V67.8858H89.1017V74.0556H87.4154V67.8858Z" fill="#0C1C33"/>
    <path d="M98.676 66.2627H100.232L103.517 74.0558H101.753L101.053 72.3195H97.8111L97.108 74.0558H95.3906L98.676 66.2627ZM100.449 70.8155L99.432 68.3067L98.4116 70.8155H100.449Z" fill="#0C1C33"/>
    <path d="M-0.0585938 40.0186H3.78993L8.05846 46.9451L12.3239 40.0186H16.1724V56.3992H12.6257V45.7048L8.05846 52.7004H7.96512L3.44148 45.7739V56.3992H-0.0585938V40.0186Z" fill="#0C1C33"/>
    <path d="M20.6934 40.0186H28.1135C30.1684 40.0186 31.745 40.5727 32.8425 41.6795C33.7712 42.6152 34.2363 43.8641 34.2363 45.4254V45.4693C34.2363 46.7967 33.9143 47.8776 33.2718 48.7128C32.6309 49.5464 31.7925 50.1587 30.758 50.5496L34.7216 56.3992H30.5496L27.0713 51.1587H24.265V56.3992H20.6934V40.0186ZM27.8802 47.9749C28.7614 47.9749 29.4373 47.7646 29.9087 47.3438C30.3816 46.9215 30.618 46.3595 30.618 45.6577V45.6106C30.618 44.8319 30.3699 44.2479 29.8744 43.8586C29.3805 43.4677 28.693 43.2714 27.8117 43.2714H24.265V47.9749H27.8802Z" fill="#0C1C33"/>
    <path d="M45.6641 40.0186H49.2357V46.4992H55.8189V40.0186H59.3906V56.3992H55.8189V49.8243H49.2357V56.3992H45.6641V40.0186Z" fill="#0C1C33"/>
    <path d="M69.4761 39.9023H72.7677L79.7243 56.3991H75.9909L74.5069 52.7255H67.6436L66.1596 56.3991H62.5195L69.4761 39.9023ZM73.2313 49.5417L71.0753 44.2291L68.9192 49.5417H73.2313Z" fill="#0C1C33"/>
    <path d="M82.8535 40.0186H86.1451L93.752 50.1038V40.0186H97.2769V56.3992H94.2373L86.3785 45.9843V56.3992H82.8535V40.0186Z" fill="#0C1C33"/>
    <path d="M101.797 40.0186H108.128C109.395 40.0186 110.558 40.2258 111.616 40.6402C112.675 41.0531 113.588 41.6254 114.354 42.3577C115.119 43.0909 115.71 43.9528 116.127 44.945C116.544 45.9356 116.752 47.0079 116.752 48.1633V48.2073C116.752 49.3628 116.544 50.4397 116.127 51.4382C115.71 52.4367 115.119 53.3033 114.354 54.038C113.588 54.7711 112.675 55.3473 111.616 55.768C110.558 56.1888 109.395 56.3992 108.128 56.3992H101.797V40.0186ZM105.369 43.2714V53.1463H108.128C108.854 53.1463 109.517 53.0293 110.119 52.7946C110.723 52.5607 111.237 52.2255 111.662 51.7899C112.087 51.3526 112.419 50.8377 112.658 50.245C112.898 49.6532 113.019 48.9891 113.019 48.2544V48.2073C113.019 47.4914 112.898 46.8289 112.658 46.2198C112.419 45.6106 112.087 45.0886 111.662 44.653C111.237 44.2157 110.723 43.8766 110.119 43.6357C109.517 43.3931 108.854 43.2714 108.128 43.2714H105.369Z" fill="#0C1C33"/>
    <path d="M125.121 49.9405L118.883 40.0186H123.058L126.931 46.5934L130.873 40.0186H134.93L128.692 49.8714V56.3992H125.121V49.9405Z" fill="#0C1C33"/>
    <mask id="mask4_300_1058" style="mask-type:luminance" maskUnits="userSpaceOnUse" x="67" y="69" width="3" height="3">
      <path d="M67.1289 69H69.383V71.2748H67.1289V69Z" fill="white"/>
    </mask>
    <g mask="url(#mask4_300_1058)">
      <mask id="mask5_300_1058" style="mask-type:luminance" maskUnits="userSpaceOnUse" x="67" y="69" width="3" height="3">
        <path d="M68.2559 69C67.6337 69 67.1289 69.5094 67.1289 70.1374C67.1289 70.7654 67.6337 71.2748 68.2559 71.2748C68.8782 71.2748 69.383 70.7654 69.383 70.1374C69.383 69.5094 68.8782 69 68.2559 69Z" fill="white"/>
      </mask>
      <g mask="url(#mask5_300_1058)">
        <path d="M67.1289 69H69.383V71.2748H67.1289V69Z" fill="#EC1424"/>
      </g>
    </g>
  </g>
  <defs>
    <clipPath id="clip0_300_1058">
      <rect width="135" height="74" fill="white"/>
    </clipPath>
  </defs>
</svg>
