<svg width="57" height="71" viewBox="0 0 57 71" fill="none" xmlns="http://www.w3.org/2000/svg">
<g clip-path="url(#clip0_370_2325)">
<path d="M37.2385 59.2559C37.1442 59.2559 37.0478 59.2407 36.9568 59.2102C27.9887 56.3226 22.3265 49.6924 20.581 40.0354C19.2775 32.8288 20.5972 26.5696 20.6525 26.3075C20.7489 25.867 21.1487 25.5613 21.5973 25.5809C22.1672 25.6081 22.7198 25.6201 23.2561 25.6201C32.4993 25.6201 36.5494 21.7503 36.5916 21.7079C36.9513 21.3544 37.531 21.3533 37.8886 21.7079C37.9481 21.7655 42.4825 26.0812 52.8818 25.5809C53.3271 25.5581 53.7302 25.8659 53.8266 26.3075C53.884 26.5696 55.2016 32.8288 53.8981 40.0354C52.1526 49.6924 46.4903 56.3247 37.5223 59.2102C37.4281 59.2407 37.3327 59.2559 37.2385 59.2559ZM22.3156 27.4538C22.0166 29.3049 21.4055 34.3113 22.4001 39.7613C24.0329 48.7038 29.0246 54.6248 37.2363 57.3645C45.4654 54.6183 50.4602 48.6798 52.0822 39.7091C53.0649 34.2667 52.456 29.2973 52.1591 27.4549C43.5519 27.6876 38.8572 24.8152 37.2363 23.5721C35.6165 24.8141 30.9196 27.6822 22.3156 27.4538Z" fill="#F5F5F5" fill-opacity="0.996078"/>
<path d="M37.2381 55.1859C37.1276 55.1859 37.0149 55.1652 36.9098 55.125C30.06 52.519 25.8485 47.2832 24.3934 39.5665C23.8689 36.7855 23.7064 33.3116 23.9578 30.2739C23.9957 29.8116 24.3717 29.4495 24.8354 29.4288C28.49 29.27 31.8033 28.5576 34.6843 27.3112C35.3929 27.0034 36.1167 26.6412 36.7787 26.2605C37.0636 26.0974 37.4114 26.0974 37.6953 26.2605C38.3573 26.6401 39.0811 27.0034 39.7897 27.3112C42.6707 28.5576 45.984 29.27 49.6386 29.4288C50.1023 29.4495 50.4783 29.8116 50.5162 30.2739C50.7676 33.3116 50.604 36.7855 50.0795 39.5665C48.6244 47.2854 44.4129 52.519 37.5642 55.125C37.458 55.1652 37.3475 55.1859 37.2381 55.1859ZM25.7369 31.2266C25.5852 33.9044 25.7531 36.8388 26.2039 39.2239C27.5279 46.2423 31.1381 50.8419 37.2359 53.2738C43.3338 50.8419 46.9461 46.2413 48.268 39.2217C48.7176 36.8355 48.8866 33.9022 48.7349 31.2245C45.1779 30.9895 41.9252 30.2434 39.0572 29.0024C38.4462 28.7381 37.8242 28.4358 37.2348 28.116C36.6443 28.4358 36.0224 28.7381 35.4113 29.0024C32.5466 30.2445 29.294 30.9928 25.7369 31.2266Z" fill="#F5F5F5" fill-opacity="0.996078"/>
<mask id="mask0_370_2325" style="mask-type:luminance" maskUnits="userSpaceOnUse" x="0" y="0" width="45" height="45">
<path d="M0 0H44.9343V44.9025H0V0Z" fill="white"/>
</mask>
<g mask="url(#mask0_370_2325)">
<path d="M22.4877 44.7695H21.1388C18.5439 44.7695 16.4332 42.6573 16.4332 40.059V38.8452C15.9218 38.6603 15.4169 38.4515 14.9239 38.2176L14.0658 39.0779C12.2293 40.9139 9.2443 40.9139 7.41104 39.0779L5.68721 37.3519C3.85179 35.5149 3.85179 32.5261 5.68721 30.6902L6.54425 29.8321C6.31239 29.3372 6.10327 28.8325 5.91691 28.3192H4.70558C2.11063 28.3192 0 26.2059 0 23.6076V21.1648C0 18.5676 2.11063 16.4543 4.70558 16.4543H5.91691C6.10111 15.942 6.3113 15.4363 6.54425 14.9414L5.68721 14.0833C3.85179 12.2463 3.85179 9.25751 5.68721 7.4216L7.41104 5.69555C9.24646 3.85855 12.2315 3.85855 14.0658 5.69555L14.9239 6.55477C15.418 6.3231 15.9218 6.11319 16.4354 5.9283V4.71451C16.4354 2.11618 18.5449 0.00292969 21.1399 0.00292969H23.5788C26.1738 0.00292969 28.2844 2.11618 28.2844 4.71451V5.92612C28.7958 6.11211 29.3007 6.31984 29.7948 6.55368L30.654 5.69446C32.4894 3.85855 35.4744 3.85638 37.3087 5.69446L39.0315 7.41943C40.8669 9.25751 40.8669 12.2463 39.0315 14.0822L38.1744 14.9403C38.4063 15.4341 38.6165 15.9388 38.8018 16.4532H40.0131C42.6081 16.4532 44.7187 18.5654 44.7187 21.1637V23.6043C44.7187 24.4211 44.5052 25.2282 44.0989 25.9373C43.8855 26.3082 43.4478 26.4844 43.0382 26.3626C40.0402 25.4761 38.1539 24.2645 37.2416 23.5663C35.6835 24.7627 31.2802 27.4643 23.2874 27.4643C22.971 27.4643 22.6481 27.46 22.3187 27.4513C21.9547 29.7266 21.1193 36.758 23.3643 43.5579C23.4575 43.8396 23.4087 44.1474 23.2364 44.3877C23.062 44.627 22.7835 44.7695 22.4877 44.7695ZM14.7397 36.1751C14.8838 36.1751 15.029 36.2088 15.1634 36.2795C15.9554 36.6906 16.7854 37.0365 17.6326 37.3051C18.014 37.4269 18.2751 37.7826 18.2751 38.1839V40.059C18.2751 41.6404 19.5602 42.926 21.1388 42.926H21.2428C18.9036 34.6339 20.5743 26.6573 20.6512 26.3071C20.7466 25.8666 21.1464 25.561 21.596 25.5806C32.0896 26.0863 36.5427 21.7543 36.5861 21.7108C36.9458 21.3508 37.5287 21.3508 37.8873 21.7108C37.9003 21.7238 39.4475 23.2171 42.776 24.3472C42.8421 24.1079 42.8757 23.8578 42.8757 23.6065V21.1648C42.8757 19.5834 41.5896 18.2989 40.012 18.2989H38.1398C37.7378 18.2989 37.3835 18.0379 37.2621 17.655C36.9934 16.8067 36.65 15.9736 36.2383 15.1829C36.053 14.8261 36.1202 14.3911 36.4051 14.1061L37.7302 12.7792C38.8462 11.6612 38.8462 9.84156 37.7302 8.72458L36.0064 6.99852C34.8904 5.88153 33.0723 5.88153 31.9563 6.99852L30.6312 8.32542C30.3463 8.61038 29.9118 8.67781 29.5553 8.49182C28.7633 8.0807 27.9323 7.73484 27.0871 7.4662C26.7047 7.34438 26.4435 6.98873 26.4435 6.5874V4.71125C26.4435 3.12984 25.1585 1.84427 23.5799 1.84427H21.1421C19.5623 1.84427 18.2784 3.13093 18.2784 4.71125V6.58522C18.2784 6.98764 18.0173 7.34329 17.6359 7.46402C16.7897 7.73375 15.9587 8.07744 15.1666 8.48856C14.8102 8.67454 14.3757 8.60711 14.0907 8.32215L12.7656 6.99526C11.6496 5.87827 9.83155 5.87827 8.71556 6.99526L6.99173 8.72131C5.87574 9.8383 5.87574 11.659 6.99173 12.776L8.31683 14.1029C8.60179 14.3878 8.66897 14.8229 8.48369 15.1796C8.07088 15.9736 7.72742 16.8045 7.45871 17.6518C7.33736 18.0346 6.98198 18.2957 6.58109 18.2957H4.70558C3.12586 18.2957 1.84193 19.5823 1.84193 21.1626V23.6033C1.84193 25.1847 3.12694 26.4702 4.70558 26.4702H6.57784C6.97873 26.4702 7.33411 26.7313 7.45546 27.1141C7.72417 27.9624 8.06763 28.7945 8.47936 29.5852C8.66463 29.9419 8.59746 30.3781 8.3125 30.663L6.9874 31.9899C5.87141 33.1069 5.87141 34.9265 6.9874 36.0446L8.71122 37.7695C9.82721 38.8876 11.6442 38.8876 12.7602 37.7695L14.0864 36.4426C14.2652 36.2686 14.5014 36.1751 14.7397 36.1751Z" fill="#F5F5F5" fill-opacity="0.996078"/>
</g>
<path d="M20.9407 33.5508C20.8995 33.5508 20.8573 33.5475 20.8161 33.5421C15.2838 32.7819 11.1113 27.9865 11.1113 22.3864C11.1113 16.1771 16.1571 11.124 22.359 11.124C28.5609 11.124 33.6066 16.176 33.6066 22.3864C33.6066 23.3891 33.4745 24.3865 33.2133 25.348C33.1353 25.6394 32.9176 25.8733 32.6348 25.9744C29.6021 27.0599 26.1349 27.5558 22.3156 27.4536C22.1564 28.4357 21.9083 30.3053 21.8606 32.6481C21.8552 32.9102 21.7371 33.1582 21.5366 33.33C21.3709 33.4725 21.1585 33.5508 20.9407 33.5508ZM22.359 12.9665C17.1723 12.9665 12.9511 17.1908 12.9511 22.3853C12.9511 26.7205 15.9415 30.4783 20.0544 31.518C20.1974 28.4422 20.6308 26.4019 20.6514 26.3051C20.7457 25.8657 21.1455 25.5568 21.5962 25.5785C25.2942 25.7569 28.6389 25.3577 31.5491 24.3963C31.6932 23.7383 31.7647 23.0629 31.7647 22.3853C31.7647 17.193 27.5456 12.9665 22.359 12.9665Z" fill="#F5F5F5" fill-opacity="0.996078"/>
<mask id="mask1_370_2325" style="mask-type:luminance" maskUnits="userSpaceOnUse" x="39" y="46" width="18" height="25">
<path d="M39.1094 46.0161H56.9999V70.9999H39.1094V46.0161Z" fill="white"/>
</mask>
<g mask="url(#mask1_370_2325)">
<path d="M43.6229 70.9966C43.5893 70.9966 43.5546 70.9955 43.5199 70.9901C43.144 70.9477 42.8319 70.678 42.7333 70.3136L39.2857 57.4318C39.1687 56.9968 39.3832 56.5421 39.7927 56.3551C44.3456 54.269 47.7434 50.9735 49.8941 46.5578C50.062 46.2119 50.4282 46.0096 50.8107 46.0444C51.1921 46.0814 51.5117 46.3522 51.6114 46.7231L56.9064 66.5102C57.0039 66.8767 56.8685 67.265 56.5651 67.4912C56.2596 67.7164 55.8489 67.7316 55.5282 67.5315L48.3837 63.0407L44.4376 70.5072C44.2773 70.8096 43.962 70.9966 43.6229 70.9966ZM41.2652 57.6961L43.9067 67.5684L47.219 61.2994C47.3392 61.0721 47.5473 60.9057 47.7954 60.8404C48.0424 60.773 48.3068 60.8132 48.5224 60.9492L54.5216 64.7189L50.425 49.4139C48.2223 52.9932 45.1506 55.771 41.2652 57.6961Z" fill="#F5F5F5" fill-opacity="0.996078"/>
</g>
<mask id="mask2_370_2325" style="mask-type:luminance" maskUnits="userSpaceOnUse" x="17" y="46" width="19" height="25">
<path d="M17.4746 46.0161H35.2264V70.9999H17.4746V46.0161Z" fill="white"/>
</mask>
<g mask="url(#mask2_370_2325)">
<path d="M30.8505 70.9966C30.5113 70.9966 30.1982 70.8095 30.0368 70.505L26.0907 63.0395L18.9451 67.5292C18.6244 67.7315 18.2127 67.7152 17.9093 67.489C17.6038 67.2638 17.4683 66.8745 17.5669 66.5079L22.863 46.7219C22.9616 46.3499 23.2812 46.0791 23.6637 46.0421C24.0473 46.0063 24.4124 46.2107 24.5803 46.5566C26.73 50.9713 30.1278 54.2678 34.6817 56.3528C35.0912 56.5399 35.3036 56.9945 35.1887 57.4306L31.7411 70.3114C31.6436 70.6779 31.3315 70.9476 30.9545 70.9889C30.9198 70.9955 30.8841 70.9966 30.8505 70.9966ZM26.4407 60.8099C26.5209 60.8099 26.601 60.8197 26.679 60.8414C26.9272 60.9067 27.1352 61.0742 27.2544 61.3015L30.5677 67.5695L33.2092 57.6982C29.3238 55.772 26.2522 52.9942 24.0473 49.417L19.9517 64.7221L25.9499 60.9524C26.1005 60.8577 26.2695 60.8099 26.4407 60.8099Z" fill="#F5F5F5" fill-opacity="0.996078"/>
</g>
<path d="M34.8643 46.4241C34.6292 46.4241 34.393 46.3339 34.2142 46.1533L29.2952 41.2296C28.9355 40.8696 28.9355 40.2845 29.2952 39.9245C29.6549 39.5645 30.2389 39.5645 30.5986 39.9245L34.8665 44.1978L43.8811 35.1727C44.2408 34.8116 44.8237 34.8116 45.1834 35.1727C45.5431 35.5327 45.5431 36.1167 45.1834 36.4767L35.5166 46.1555C35.3367 46.3339 35.0994 46.4241 34.8643 46.4241Z" fill="#F5F5F5" fill-opacity="0.996078"/>
</g>
<defs>
<clipPath id="clip0_370_2325">
<rect width="57" height="71" fill="white"/>
</clipPath>
</defs>
</svg>
