<svg width="125" height="119" viewBox="0 0 125 119" fill="none" xmlns="http://www.w3.org/2000/svg">
<g filter="url(#filter0_di_360_74)">
<rect width="117" height="111" fill="#F9EBDE" fill-opacity="0.01"/>
<path d="M65.6414 46.2624C65.6414 45.3856 65.689 44.5081 65.6414 43.6361C65.6214 43.4692 65.6256 43.3038 65.6538 43.139C65.6828 42.9743 65.7345 42.8164 65.8096 42.6668C65.8848 42.5173 65.9799 42.3815 66.095 42.2601C66.2101 42.1388 66.3404 42.0361 66.4852 41.9527C68.4739 40.6133 70.4337 39.2353 72.4176 37.8815C74.1058 36.733 75.7892 35.5791 77.3871 34.3059C78.3976 33.4959 79.1656 31.5127 78.5645 30.0154C78.1591 29.0048 77.272 28.4327 75.8843 29.0193C75.4294 29.2351 74.9985 29.4929 74.5925 29.7914C70.6198 32.4467 66.6141 35.0352 62.5132 37.4906C61.9535 37.8167 61.362 38.0662 60.7382 38.2399C60.115 38.4136 59.4794 38.5053 58.8315 38.5156C57.905 38.5329 56.9964 38.4122 56.1058 38.1537C55.2159 37.8952 54.3838 37.5106 53.6104 36.9998C49.6681 34.5844 45.7768 32.0862 41.9365 29.5053C41.6035 29.282 41.2506 29.0958 40.8776 28.9476C39.3039 28.3038 38.3119 29.5053 38.212 30.7447C38.1761 31.0811 38.1796 31.4175 38.223 31.7525C38.2671 32.0883 38.3491 32.4143 38.4698 32.73C38.5897 33.0464 38.7455 33.3435 38.9371 33.6227C39.1281 33.9026 39.3487 34.1556 39.5996 34.3824C41.4263 36.0775 43.3337 37.676 45.3218 39.1781C45.3935 39.2112 45.4679 39.2298 45.5465 39.2353" stroke="#F5F5F5" stroke-opacity="0.996078" stroke-width="1.9072" stroke-linecap="round" stroke-linejoin="round"/>
<mask id="mask0_360_74" style="mask-type:luminance" maskUnits="userSpaceOnUse" x="56" y="59" width="31" height="20">
<path d="M56.2949 59.8252H87.0008V78.103H56.2949V59.8252Z" fill="white"/>
</mask>
<g mask="url(#mask0_360_74)">
<path d="M71.5694 77.045C71.5694 75.8345 71.6025 74.6233 71.6266 73.4129C71.6266 72.6353 71.8265 72.3975 72.58 72.2396C76.8718 71.3386 80.6873 69.3506 84.2015 66.8193C85.1983 66.1045 85.6319 65.0843 85.9614 63.9207C86.0069 63.729 86.0303 63.5353 86.0324 63.3382C86.0345 63.141 86.0152 62.9466 85.9738 62.7536C85.9325 62.5613 85.8711 62.3759 85.7884 62.1966C85.7057 62.0181 85.6043 61.8506 85.4844 61.6948C85.0074 60.9124 84.1774 60.7407 83.2716 61.1275C82.3913 61.559 81.5538 62.0608 80.7583 62.6337C77.7831 64.5431 74.6039 66.0114 71.2213 67.0385C69.9867 67.4011 68.7259 67.5748 67.4396 67.5583C65.7466 67.5156 64.0494 67.5583 62.3564 67.5583C62.2089 67.5535 62.062 67.5549 61.9145 67.5624C61.7677 67.5707 61.6216 67.5852 61.4754 67.6066C61.33 67.6279 61.1852 67.6555 61.0418 67.6893C60.8984 67.7237 60.7571 67.7637 60.6179 67.8106C60.4779 67.8575 60.3408 67.9106 60.2057 67.9698C60.0712 68.0291 59.9389 68.0939 59.81 68.1649C59.6811 68.2359 59.5549 68.3124 59.4329 68.3945C59.3109 68.4772 59.1923 68.564 59.0779 68.6571C58.9642 68.7502 58.8539 68.8481 58.7484 68.9508C58.6429 69.0535 58.5423 69.1603 58.4458 69.272C58.35 69.3837 58.2597 69.4995 58.1742 69.6194C58.088 69.7394 58.008 69.8628 57.9336 69.9896C57.8591 70.1171 57.7909 70.2467 57.7282 70.3805C57.6654 70.5135 57.6082 70.6493 57.5579 70.7872C57.5069 70.9257 57.4628 71.0657 57.4249 71.2083C57.3869 71.3504 57.3552 71.4944 57.3297 71.6392C57.3228 71.7329 57.3228 71.8267 57.3297 71.9204C57.3297 73.6321 57.2966 75.3437 57.2773 77.0595" stroke="#F5F5F5" stroke-opacity="0.996078" stroke-width="1.9072" stroke-linecap="round" stroke-linejoin="round"/>
</g>
<path d="M54.9109 48.4414C54.8854 47.852 54.7931 47.2736 54.6345 46.7056C53.8094 44.4653 52.2784 43.0542 49.8657 42.6247C49.6733 42.5958 49.4796 42.5758 49.2852 42.5654C49.0908 42.5551 48.8958 42.5544 48.7014 42.5634C48.507 42.5716 48.3133 42.5903 48.1203 42.6178C47.9272 42.6461 47.7363 42.6826 47.5474 42.7295C47.3585 42.7764 47.1717 42.8315 46.9884 42.8963C46.8043 42.9618 46.6244 43.0349 46.4479 43.1176C46.2715 43.2003 46.0998 43.2913 45.9323 43.3906C45.7648 43.4898 45.6021 43.5974 45.4456 43.7132C45.2885 43.8283 45.1375 43.951 44.9927 44.0813C44.848 44.2116 44.7101 44.3488 44.5784 44.4921C44.4468 44.6362 44.3227 44.7858 44.2062 44.9416C44.0897 45.0981 43.9808 45.2587 43.8801 45.4255C43.7795 45.5923 43.6871 45.7633 43.603 45.9391C43.5189 46.1148 43.4438 46.2941 43.3776 46.4774C43.3107 46.6601 43.2535 46.8462 43.2053 47.0351C43.1577 47.224 43.1191 47.4142 43.0895 47.6066C43.0598 47.7996 43.0405 47.9926 43.0302 48.1877C43.0198 48.3821 43.0185 48.5765 43.0274 48.7709C43.0364 48.9653 43.0543 49.159 43.0826 49.352C43.1101 49.5443 43.1474 49.7352 43.1942 49.9248C43.2404 50.1137 43.2963 50.2998 43.3611 50.4839C43.4259 50.6672 43.4996 50.8472 43.5823 51.0236C43.6651 51.2001 43.7561 51.3717 43.8553 51.5392C43.9546 51.7068 44.0621 51.8688 44.1779 52.0259C44.2931 52.1824 44.4158 52.3334 44.546 52.4781C44.6763 52.6229 44.8135 52.7614 44.9569 52.8924C45.101 53.0241 45.2505 53.1482 45.407 53.2647C45.5628 53.3812 45.7241 53.4901 45.8909 53.5907C46.0578 53.6914 46.2287 53.7837 46.4045 53.8678C46.5803 53.9519 46.7595 54.0271 46.9429 54.0932C47.1262 54.1601 47.3117 54.2173 47.5005 54.2649C47.6894 54.3131 47.8804 54.3517 48.0727 54.3814C48.263 54.4076 48.4546 54.4248 48.6462 54.4331C48.8386 54.4407 49.0302 54.44 49.2225 54.4296C49.4141 54.4193 49.6051 54.4 49.7954 54.3717C49.9856 54.3435 50.1738 54.3056 50.3599 54.2594C50.5467 54.2132 50.7308 54.158 50.9121 54.0939C51.0934 54.0305 51.2705 53.9581 51.4449 53.8775C51.6193 53.7961 51.7896 53.7072 51.9557 53.6107C52.1219 53.5135 52.2825 53.4087 52.4383 53.2964C52.5941 53.184 52.7443 53.0648 52.8891 52.9379C53.0339 52.8111 53.1717 52.678 53.3034 52.5381C53.4357 52.3988 53.5605 52.2527 53.6784 52.1011C53.7963 51.9494 53.9066 51.7922 54.01 51.6302C54.1127 51.4682 54.2078 51.3014 54.2947 51.1298C54.3822 50.9588 54.4608 50.7837 54.5311 50.6052C54.6014 50.426 54.6635 50.2447 54.7165 50.0599C54.7696 49.8752 54.8137 49.6884 54.8489 49.4995C54.9158 49.1755 54.8158 48.8274 54.9109 48.4937" stroke="#F5F5F5" stroke-opacity="0.996078" stroke-width="1.9072" stroke-linecap="round" stroke-linejoin="round"/>
<mask id="mask1_360_74" style="mask-type:luminance" maskUnits="userSpaceOnUse" x="30" y="51" width="28" height="28">
<path d="M30 51.5312H57.1765V78.1032H30V51.5312Z" fill="white"/>
</mask>
<g mask="url(#mask1_360_74)">
<path d="M56.1416 64.1397C56.1202 63.289 55.912 62.4867 55.517 61.7325C55.424 61.5526 55.3199 61.3796 55.2041 61.2141C55.0883 61.048 54.9614 60.8908 54.8249 60.7412C54.6884 60.5923 54.5423 60.4531 54.3872 60.3228C54.2314 60.1932 54.0687 60.0747 53.8971 59.9664C53.7261 59.8582 53.549 59.7624 53.3649 59.6776C53.1809 59.5935 52.992 59.5211 52.799 59.4618C52.6053 59.4025 52.4088 59.3564 52.2096 59.3226C52.0097 59.2895 51.8084 59.2695 51.6064 59.2633C49.8376 59.182 48.068 59.2247 46.2992 59.2247C45.3121 59.2233 44.3794 58.9993 43.4998 58.5526C40.4888 57.005 37.5873 55.2727 34.7969 53.3564C34.375 53.0351 33.9076 52.8077 33.3948 52.6746C32.0836 52.4127 31.12 53.2419 31.049 54.6199C31.0193 54.9405 31.0269 55.261 31.0717 55.5802C31.1158 55.8993 31.1958 56.2095 31.3116 56.5108C31.4274 56.8113 31.5756 57.0953 31.7569 57.3621C31.9382 57.6289 32.1471 57.8715 32.3842 58.09C34.5432 60.2049 36.9676 61.9531 39.656 63.3345C40.0469 63.5427 40.457 63.7013 40.8865 63.8109C41.6303 63.9922 41.7785 64.2258 41.7826 65.0317V65.5466C41.7826 68.8389 41.7826 72.1346 41.7826 75.4338C41.7826 75.9722 41.8164 76.5112 41.8357 77.0544" stroke="#F5F5F5" stroke-opacity="0.996078" stroke-width="1.9072" stroke-linecap="round" stroke-linejoin="round"/>
</g>
<mask id="mask2_360_74" style="mask-type:luminance" maskUnits="userSpaceOnUse" x="51" y="20" width="15" height="15">
<path d="M51.5293 20H65.4705V34.0604H51.5293V20Z" fill="white"/>
</mask>
<g mask="url(#mask2_360_74)">
<path d="M58.0452 21.0669C57.1098 21.1903 56.2322 21.486 55.4126 21.9541C55.0342 22.1795 54.686 22.4442 54.3676 22.7482C54.0491 23.0529 53.7685 23.3886 53.5259 23.7567C53.2832 24.1248 53.0854 24.515 52.9317 24.9272C52.7773 25.3401 52.6718 25.7647 52.6139 26.2018C52.5877 26.3851 52.5705 26.5692 52.5615 26.7546C52.5525 26.94 52.5525 27.1248 52.5608 27.3102C52.5691 27.4957 52.5863 27.6797 52.6118 27.8638C52.6366 28.0471 52.6711 28.2291 52.7132 28.4097C52.7559 28.5903 52.8062 28.7682 52.8655 28.944C52.9241 29.1197 52.9916 29.2928 53.0661 29.4623C53.1412 29.6319 53.224 29.7974 53.3143 29.9593C53.4052 30.1213 53.5024 30.2785 53.6079 30.4315C53.7127 30.5839 53.8244 30.7321 53.9436 30.8741C54.0622 31.0168 54.187 31.1533 54.3186 31.2843C54.4503 31.4152 54.5875 31.5393 54.7302 31.6572C54.8735 31.7758 55.0217 31.8867 55.1748 31.9908C55.3278 32.0949 55.4857 32.1921 55.6484 32.2817C55.8104 32.3713 55.9772 32.4534 56.1467 32.5278C56.317 32.6016 56.49 32.6678 56.6658 32.7264C56.8423 32.7843 57.0201 32.8339 57.2014 32.8759C57.522 32.9421 57.8467 32.9821 58.1741 32.9952C58.5015 33.009 58.8276 32.9966 59.153 32.9573C59.4783 32.918 59.7982 32.8525 60.1132 32.7615C60.4282 32.6705 60.7336 32.5547 61.0293 32.4141C61.3257 32.2735 61.6084 32.1101 61.8779 31.9233C62.1474 31.7372 62.3997 31.5304 62.6362 31.3029C62.8719 31.0754 63.0877 30.8307 63.2842 30.568C63.4806 30.3061 63.6543 30.0297 63.806 29.7388C63.857 29.6374 63.9053 29.534 63.9508 29.4299C63.9962 29.3258 64.0383 29.2204 64.0783 29.1135C64.1176 29.0067 64.1534 28.8991 64.1865 28.7902C64.2203 28.6813 64.2499 28.5717 64.2768 28.4607C64.3037 28.3504 64.3278 28.2394 64.3485 28.1271C64.3685 28.0154 64.3864 27.9031 64.4002 27.79C64.4147 27.6769 64.425 27.5639 64.4326 27.4502C64.4409 27.3371 64.445 27.2234 64.4464 27.1096C64.4471 26.9959 64.445 26.8821 64.4395 26.7684C64.4347 26.6547 64.4257 26.5416 64.414 26.4286C64.4023 26.3148 64.3871 26.2025 64.3692 26.0901C64.3506 25.9777 64.3292 25.8661 64.3044 25.7551C64.2796 25.6441 64.252 25.5338 64.221 25.4242C64.19 25.3146 64.1562 25.2064 64.1189 25.0988C64.0817 24.9913 64.0411 24.8851 63.9983 24.7797C63.9549 24.6742 63.9087 24.5708 63.8591 24.4681C63.8101 24.3654 63.7577 24.264 63.7033 24.1648C63.6481 24.0648 63.5902 23.9669 63.5296 23.8704C63.4689 23.7746 63.4055 23.6802 63.34 23.5871C63.2738 23.4947 63.2049 23.4037 63.1339 23.3148C63.0629 23.2266 62.9891 23.1397 62.9126 23.0549C62.8368 22.9708 62.7582 22.8881 62.6775 22.8082C62.5969 22.7282 62.5135 22.6503 62.428 22.5752C62.3432 22.5 62.2557 22.4269 62.1661 22.3566C62.0764 22.2863 61.9854 22.2188 61.8917 22.154C61.7986 22.0885 61.7035 22.0264 61.6063 21.9665C61.5098 21.9072 61.4112 21.85 61.3106 21.7962C61.2106 21.7417 61.1093 21.6907 61.0059 21.6425C60.9032 21.5942 60.7984 21.5494 60.6929 21.5067C60.5875 21.4646 60.4806 21.4253 60.3724 21.3895C60.2649 21.353 60.1559 21.3206 60.0456 21.2902C59.936 21.2606 59.8257 21.2337 59.7141 21.2103C59.1833 21.0655 58.6449 21.0221 58.0976 21.0814" stroke="#F5F5F5" stroke-opacity="0.996078" stroke-width="1.9072" stroke-linecap="round" stroke-linejoin="round"/>
</g>
<path d="M63.6856 50.896C63.1321 50.9815 62.5999 51.138 62.0884 51.3661C61.5769 51.5943 61.1047 51.8859 60.6718 52.2409C60.3616 52.4939 60.0803 52.7758 59.8287 53.0867C59.5764 53.3976 59.3579 53.7306 59.1739 54.0863C58.9898 54.4413 58.8437 54.8121 58.7354 55.1975C58.6272 55.5821 58.559 55.9743 58.5307 56.3742C58.5162 56.5548 58.51 56.7354 58.5121 56.9167C58.5142 57.098 58.5252 57.2793 58.5438 57.4592C58.5624 57.6398 58.5893 57.819 58.6245 57.9969C58.6596 58.1747 58.7031 58.3505 58.7541 58.5242C58.8051 58.6986 58.8644 58.8696 58.9312 59.0378C58.9981 59.2067 59.0725 59.3714 59.1546 59.5334C59.2366 59.6954 59.3262 59.8526 59.422 60.0063C59.5185 60.16 59.6219 60.3089 59.7322 60.453C59.8425 60.5971 59.9583 60.7356 60.081 60.8693C60.2044 61.0024 60.3326 61.1299 60.4671 61.2519C60.6015 61.3732 60.7414 61.4891 60.8862 61.598C61.0316 61.7069 61.1812 61.8089 61.3356 61.904C61.4894 61.9992 61.6479 62.0867 61.8106 62.1681C61.9726 62.2487 62.1387 62.3218 62.3076 62.3873C62.4765 62.4528 62.6481 62.5107 62.8225 62.5603C62.9969 62.6106 63.1734 62.652 63.352 62.6857C66.0411 63.1628 68.8163 61.9806 69.9799 59.0481C71.4634 55.3057 69.0597 51.5778 65.2497 50.9105C64.7472 50.8677 64.2446 50.8677 63.7428 50.9105" stroke="#F5F5F5" stroke-opacity="0.996078" stroke-width="1.9072" stroke-linecap="round" stroke-linejoin="round"/>
</g>
<defs>
<filter id="filter0_di_360_74" x="0" y="0" width="125" height="119" filterUnits="userSpaceOnUse" color-interpolation-filters="sRGB">
<feFlood flood-opacity="0" result="BackgroundImageFix"/>
<feColorMatrix in="SourceAlpha" type="matrix" values="0 0 0 0 0 0 0 0 0 0 0 0 0 0 0 0 0 0 127 0" result="hardAlpha"/>
<feOffset dx="4" dy="4"/>
<feGaussianBlur stdDeviation="2"/>
<feComposite in2="hardAlpha" operator="out"/>
<feColorMatrix type="matrix" values="0 0 0 0 0 0 0 0 0 0 0 0 0 0 0 0 0 0 0.25 0"/>
<feBlend mode="normal" in2="BackgroundImageFix" result="effect1_dropShadow_360_74"/>
<feBlend mode="normal" in="SourceGraphic" in2="effect1_dropShadow_360_74" result="shape"/>
<feColorMatrix in="SourceAlpha" type="matrix" values="0 0 0 0 0 0 0 0 0 0 0 0 0 0 0 0 0 0 127 0" result="hardAlpha"/>
<feOffset dx="4" dy="4"/>
<feGaussianBlur stdDeviation="2"/>
<feComposite in2="hardAlpha" operator="arithmetic" k2="-1" k3="1"/>
<feColorMatrix type="matrix" values="0 0 0 0 0 0 0 0 0 0 0 0 0 0 0 0 0 0 0.25 0"/>
<feBlend mode="normal" in2="shape" result="effect2_innerShadow_360_74"/>
</filter>
</defs>
</svg>
