<?xml version="1.0" ?><!DOCTYPE svg  PUBLIC '-//W3C//DTD SVG 1.1//EN'  'http://www.w3.org/Graphics/SVG/1.1/DTD/svg11.dtd'><svg viewBox="0 0 512 512" xmlns="http://www.w3.org/2000/svg" xmlns:xlink="http://www.w3.org/1999/xlink"><style>:root>svg{display:none}:root>svg:target{display:block}</style><svg data-name="Layer 1" viewBox="0 0 52 52" id="about" xmlns="http://www.w3.org/2000/svg"><path d="M26 52A26 26 0 0 1 22.88.19 25.78 25.78 0 0 1 34.73 1.5a2 2 0 1 1-1.35 3.77 22 22 0 0 0-21 38 22 22 0 0 0 35.41-20 2 2 0 1 1 4-.48A26 26 0 0 1 26 52Z"/><path d="M26 43.86a2 2 0 0 1-2-2v-19.2a2 2 0 1 1 4 0v19.2a2 2 0 0 1-2 2Z"/><circle cx="26" cy="15.71" r="2.57"/></svg><svg viewBox="0 0 32 32" id="email" xmlns="http://www.w3.org/2000/svg"><g data-name="mail email e-mail letter"><path d="M28 13a1 1 0 0 0-1 1v8a1 1 0 0 1-1 1H6a1 1 0 0 1-1-1v-8a1 1 0 0 0-2 0v8a3 3 0 0 0 .88 2.12A3 3 0 0 0 6 25h20a3 3 0 0 0 2.12-.88A3 3 0 0 0 29 22v-8a1 1 0 0 0-1-1Z"/><path d="M15.4 18.8a1 1 0 0 0 1.2 0l11.81-8.86a1 1 0 0 0 .3-1.23 3.06 3.06 0 0 0-.59-.83A3 3 0 0 0 26 7H6a3 3 0 0 0-2.12.88 3.06 3.06 0 0 0-.59.83 1 1 0 0 0 .3 1.23ZM6 9h20a.9.9 0 0 1 .28 0L16 16.75 5.72 9A.9.9 0 0 1 6 9Z"/></g></svg><svg style="fill-rule:evenodd;clip-rule:evenodd;stroke-linejoin:round;stroke-miterlimit:2" viewBox="0 0 512 512" xml:space="preserve" id="facebook" xmlns="http://www.w3.org/2000/svg"><path d="M449.446 0C483.971 0 512 28.03 512 62.554v386.892C512 483.97 483.97 512 449.446 512H342.978V319.085h66.6l12.672-82.621h-79.272v-53.617c0-22.603 11.073-44.636 46.58-44.636H425.6v-70.34s-32.71-5.582-63.982-5.582c-65.288 0-107.96 39.569-107.96 111.204v62.971h-72.573v82.621h72.573V512H62.554C28.03 512 0 483.97 0 449.446V62.554C0 28.03 28.029 0 62.554 0h386.892Z"/></svg><svg style="fill-rule:evenodd;clip-rule:evenodd;stroke-linejoin:round;stroke-miterlimit:2" viewBox="0 0 512 512" xml:space="preserve" id="instagram" xmlns="http://www.w3.org/2000/svg"><path d="M449.446 0C483.971 0 512 28.03 512 62.554v386.892C512 483.97 483.97 512 449.446 512H62.554C28.03 512 0 483.97 0 449.446V62.554C0 28.03 28.029 0 62.554 0h386.892ZM256 81c-47.527 0-53.487.201-72.152 1.053-18.627.85-31.348 3.808-42.48 8.135-11.508 4.472-21.267 10.456-30.996 20.184-9.729 9.729-15.713 19.489-20.185 30.996-4.326 11.132-7.284 23.853-8.135 42.48C81.201 202.513 81 208.473 81 256s.201 53.487 1.052 72.152c.851 18.627 3.809 31.348 8.135 42.48 4.472 11.507 10.456 21.267 20.185 30.996s19.488 15.713 30.996 20.185c11.132 4.326 23.853 7.284 42.48 8.134C202.513 430.799 208.473 431 256 431s53.487-.201 72.152-1.053c18.627-.85 31.348-3.808 42.48-8.134 11.507-4.472 21.267-10.456 30.996-20.185s15.713-19.489 20.185-30.996c4.326-11.132 7.284-23.853 8.134-42.48C430.799 309.487 431 303.527 431 256s-.201-53.487-1.053-72.152c-.85-18.627-3.808-31.348-8.134-42.48-4.472-11.507-10.456-21.267-20.185-30.996-9.729-9.728-19.489-15.712-30.996-20.184-11.132-4.327-23.853-7.285-42.48-8.135C309.487 81.201 303.527 81 256 81Zm0 31.532c46.727 0 52.262.178 70.715 1.02 17.062.779 26.328 3.63 32.495 6.025 8.169 3.175 13.998 6.968 20.122 13.091 6.124 6.124 9.916 11.954 13.091 20.122 2.396 6.167 5.247 15.433 6.025 32.495.842 18.453 1.021 23.988 1.021 70.715 0 46.727-.179 52.262-1.021 70.715-.778 17.062-3.629 26.328-6.025 32.495-3.175 8.169-6.967 13.998-13.091 20.122-6.124 6.124-11.953 9.916-20.122 13.091-6.167 2.396-15.433 5.247-32.495 6.025-18.45.842-23.985 1.021-70.715 1.021-46.73 0-52.264-.179-70.715-1.021-17.062-.778-26.328-3.629-32.495-6.025-8.169-3.175-13.998-6.967-20.122-13.091-6.124-6.124-9.917-11.953-13.091-20.122-2.396-6.167-5.247-15.433-6.026-32.495-.842-18.453-1.02-23.988-1.02-70.715 0-46.727.178-52.262 1.02-70.715.779-17.062 3.63-26.328 6.026-32.495 3.174-8.168 6.967-13.998 13.091-20.122 6.124-6.123 11.953-9.916 20.122-13.091 6.167-2.395 15.433-5.246 32.495-6.025 18.453-.842 23.988-1.02 70.715-1.02Zm0 53.603c-49.631 0-89.865 40.234-89.865 89.865 0 49.631 40.234 89.865 89.865 89.865 49.631 0 89.865-40.234 89.865-89.865 0-49.631-40.234-89.865-89.865-89.865Zm0 148.198c-32.217 0-58.333-26.116-58.333-58.333s26.116-58.333 58.333-58.333 58.333 26.116 58.333 58.333-26.116 58.333-58.333 58.333Zm114.416-151.748c0 11.598-9.403 20.999-21.001 20.999-11.597 0-20.999-9.401-20.999-20.999 0-11.598 9.402-21 20.999-21 11.598 0 21.001 9.402 21.001 21Z"/></svg><svg style="fill-rule:evenodd;clip-rule:evenodd;stroke-linejoin:round;stroke-miterlimit:2" viewBox="0 0 512 512" xml:space="preserve" id="linkedin" xmlns="http://www.w3.org/2000/svg"><path d="M449.446 0C483.971 0 512 28.03 512 62.554v386.892C512 483.97 483.97 512 449.446 512H62.554C28.03 512 0 483.97 0 449.446V62.554C0 28.03 28.029 0 62.554 0h386.892ZM160.461 423.278V197.561h-75.04v225.717h75.04Zm270.539 0V293.839c0-69.333-37.018-101.586-86.381-101.586-39.804 0-57.634 21.891-67.617 37.266v-31.958h-75.021c.995 21.181 0 225.717 0 225.717h75.02V297.222c0-6.748.486-13.492 2.474-18.315 5.414-13.475 17.767-27.434 38.494-27.434 27.135 0 38.007 20.707 38.007 51.037v120.768H431ZM123.448 88.722C97.774 88.722 81 105.601 81 127.724c0 21.658 16.264 39.002 41.455 39.002h.484c26.165 0 42.452-17.344 42.452-39.002-.485-22.092-16.241-38.954-41.943-39.002Z"/></svg><svg style="fill-rule:evenodd;clip-rule:evenodd;stroke-linejoin:round;stroke-miterlimit:2" viewBox="0 0 512 512" xml:space="preserve" id="twitter" xmlns="http://www.w3.org/2000/svg"><path d="M449.446 0C483.971 0 512 28.03 512 62.554v386.892C512 483.97 483.97 512 449.446 512H62.554C28.03 512 0 483.97 0 449.446V62.554C0 28.03 28.029 0 62.554 0h386.892ZM195.519 424.544c135.939 0 210.268-112.643 210.268-210.268 0-3.218 0-6.437-.153-9.502 14.406-10.421 26.973-23.448 36.935-38.314-13.18 5.824-27.433 9.809-42.452 11.648 15.326-9.196 26.973-23.602 32.49-40.92-14.252 8.429-30.038 14.56-46.896 17.931-13.487-14.406-32.644-23.295-53.946-23.295-40.767 0-73.87 33.104-73.87 73.87 0 5.824.613 11.494 1.992 16.858-61.456-3.065-115.862-32.49-152.337-77.241-6.284 10.881-9.962 23.601-9.962 37.088a73.57 73.57 0 0 0 32.95 61.456c-12.107-.307-23.448-3.678-33.41-9.196v.92c0 35.862 25.441 65.594 59.311 72.49a73.66 73.66 0 0 1-19.464 2.606c-4.751 0-9.348-.46-13.946-1.38 9.349 29.426 36.628 50.728 68.965 51.341-25.287 19.771-57.164 31.571-91.8 31.571-5.977 0-11.801-.306-17.625-1.073 32.337 21.15 71.264 33.41 112.95 33.41Z"/></svg></svg>