<?xml version="1.0" encoding="iso-8859-1"?>
<!-- Uploaded to: SVG Repo, www.svgrepo.com, Generator: SVG Repo Mixer Tools -->
<svg fill="#000000" height="800px" width="800px" version="1.1" id="Layer_1" xmlns="http://www.w3.org/2000/svg" xmlns:xlink="http://www.w3.org/1999/xlink" 
	 viewBox="0 0 512 512" xml:space="preserve">
<g>
	<g>
		<path d="M405.553,0H106.447C85.266,0,68.035,17.232,68.035,38.412v435.175c0,21.18,17.231,38.412,38.412,38.412h299.106
			c21.181,0,38.412-17.232,38.412-38.412V38.412C443.965,17.232,426.734,0,405.553,0z M425.548,473.588L425.548,473.588
			c0,11.025-8.97,19.995-19.995,19.995H106.447c-11.025,0-19.995-8.97-19.995-19.995V38.412c0-11.025,8.969-19.995,19.995-19.995
			h299.106c11.025,0,19.995,8.97,19.995,19.995V473.588z"/>
	</g>
</g>
<g>
	<g>
		<path d="M401.407,33.35H110.593c-5.087,0-9.209,4.123-9.209,9.209v426.883c0,5.086,4.122,9.209,9.209,9.209h290.814
			c5.087,0,9.209-4.123,9.209-9.209V42.559C410.615,37.473,406.494,33.35,401.407,33.35z M246.791,460.233h-126.99v-52.285h126.99
			V460.233z M392.198,460.233h-126.99v-52.285h126.99V460.233z M392.198,389.53H119.802V51.767h272.396V389.53z"/>
	</g>
</g>
<g>
	<g>
		<path d="M353.383,103.386H158.618c-5.087,0-9.209,4.123-9.209,9.209c0,5.086,4.122,9.209,9.209,9.209h194.765
			c5.087,0,9.209-4.123,9.209-9.209C362.592,107.509,358.47,103.386,353.383,103.386z"/>
	</g>
</g>
<g>
	<g>
		<path d="M353.383,156.746H158.618c-5.087,0-9.209,4.123-9.209,9.209c0,5.086,4.122,9.209,9.209,9.209h194.765
			c5.087,0,9.209-4.123,9.209-9.209C362.592,160.869,358.47,156.746,353.383,156.746z"/>
	</g>
</g>
<g>
	<g>
		<path d="M353.383,210.107H158.618c-5.087,0-9.209,4.123-9.209,9.209s4.122,9.209,9.209,9.209h194.765
			c5.087,0,9.209-4.123,9.209-9.209S358.47,210.107,353.383,210.107z"/>
	</g>
</g>
<g>
	<g>
		<path d="M353.383,316.827H158.618c-5.087,0-9.209,4.123-9.209,9.209s4.122,9.209,9.209,9.209h194.765
			c5.087,0,9.209-4.123,9.209-9.209S358.47,316.827,353.383,316.827z"/>
	</g>
</g>
<g>
	<g>
		<path d="M353.383,263.466H158.618c-5.087,0-9.209,4.123-9.209,9.209s4.122,9.209,9.209,9.209h194.765
			c5.087,0,9.209-4.123,9.209-9.209S358.47,263.466,353.383,263.466z"/>
	</g>
</g>
<g>
	<g>
		<path d="M195.575,424.881h-24.556c-5.087,0-9.209,4.123-9.209,9.209c0,5.086,4.122,9.209,9.209,9.209h24.556
			c5.087,0,9.209-4.123,9.209-9.209C204.784,429.004,200.661,424.881,195.575,424.881z"/>
	</g>
</g>
<g>
	<g>
		<path d="M340.981,424.881h-24.556c-5.087,0-9.209,4.123-9.209,9.209c0,5.086,4.122,9.209,9.209,9.209h24.556
			c5.087,0,9.209-4.123,9.209-9.209C350.19,429.004,346.068,424.881,340.981,424.881z"/>
	</g>
</g>
</svg>