<?xml version="1.0"?><svg xmlns="http://www.w3.org/2000/svg" width="512" height="512" viewBox="0 0 512 512" fill="none"><path d="M149.858 313.349L133.082 296.6L56 373.564L89.5503 407.063L166.633 330.099L149.858 313.349ZM149.858 313.349L190.624 272.771M190.624 272.771C213.785 295.442 245.512 309.421 280.509 309.421C351.427 309.421 408.917 252.019 408.917 181.211C408.917 110.402 351.427 53 280.509 53C209.591 53 152.101 110.402 152.101 181.211C152.101 217.076 166.851 249.502 190.624 272.771ZM406.777 459H456V307.284H406.777V459ZM406.777 459H355.414M355.414 459V358.568H306.191V459M355.414 459H306.191M306.191 459H256.968M256.968 459H205.604V407.716H256.968V459ZM262.891 195.5C262.891 202.404 268.505 208 275.431 208H280.447M295.496 170.5C295.496 163.596 289.881 158 282.956 158H279.193M279.193 158H275.431C268.505 158 262.891 163.596 262.891 170.5C262.891 177.404 268.505 183 275.431 183H285.464C292.39 183 298.004 188.596 298.004 195.5C298.004 202.404 292.39 208 285.464 208H280.447M279.193 158V143M280.447 208V223M340.642 183C340.642 216.137 313.692 243 280.447 243C247.203 243 220.253 216.137 220.253 183C220.253 149.863 247.203 123 280.447 123C313.692 123 340.642 149.863 340.642 183Z" stroke="black" stroke-width="13.5"/></svg>