<?xml version="1.0" encoding="utf-8"?><svg viewBox="0 0 502.66 502.66" xmlns="http://www.w3.org/2000/svg" xmlns:xlink="http://www.w3.org/1999/xlink"><style>:root>svg{display:none}:root>svg:target{display:block}</style><svg viewBox="0 0 30 30" id="clock" xmlns="http://www.w3.org/2000/svg"><g clip-path="url(#aa)" stroke-width="1.5" stroke-linecap="round" stroke-linejoin="round"><path d="M3.75 15a11.25 11.25 0 1 0 22.5 0 11.25 11.25 0 0 0-22.5 0ZM15 15l-3.75-2.5M15 8.75V15"/></g><defs><clipPath id="aa"><path d="M0 0h30v30H0z"/></clipPath></defs></svg><svg viewBox="0 0 30 31" id="facebook" xmlns="http://www.w3.org/2000/svg"><path d="M27.5 15.5C27.5 8.6 21.9 3 15 3S2.5 8.6 2.5 15.5c0 6.05 4.3 11.087 10 12.25v-8.5H10V15.5h2.5v-3.125A4.38 4.38 0 0 1 16.875 8H20v3.75h-2.5c-.688 0-1.25.563-1.25 1.25v2.5H20v3.75h-3.75v8.688c6.313-.625 11.25-5.95 11.25-12.438Z"/></svg><svg viewBox="0 0 502.664 502.664" xml:space="preserve" id="icon" xmlns="http://www.w3.org/2000/svg"><path d="M153.821 358.226 0 274.337v-46.463l153.821-83.414v54.574L46.636 250.523l107.185 53.431v54.272zm26.273 29.358L282.103 115.08h32.227L212.084 387.584h-31.99zm168.749-29.358v-54.272l107.164-52.999-107.164-52.59v-53.927l153.821 83.522v46.183l-153.821 84.083z"/></svg><svg viewBox="0 0 30 31" id="instagram" xmlns="http://www.w3.org/2000/svg"><path d="M16.285 3c1.406.004 2.12.011 2.736.029l.243.009c.28.01.556.022.89.037 1.33.063 2.237.272 3.034.581a6.1 6.1 0 0 1 2.215 1.442 6.137 6.137 0 0 1 1.44 2.215c.31.796.52 1.703.582 3.035.015.332.027.608.037.89l.008.242c.019.615.026 1.329.029 2.735l.001.933v1.637c.003.912-.006 1.823-.029 2.735l-.007.242c-.01.282-.023.558-.038.89-.062 1.332-.275 2.238-.582 3.035a6.104 6.104 0 0 1-1.442 2.215 6.144 6.144 0 0 1-2.215 1.442c-.796.308-1.703.518-3.033.581a88.24 88.24 0 0 1-.89.037l-.243.008c-.616.018-1.33.026-2.736.029l-.933.001h-1.636a98.268 98.268 0 0 1-2.736-.029l-.242-.007a80.133 80.133 0 0 1-.89-.039c-1.33-.063-2.238-.273-3.036-.581A6.111 6.111 0 0 1 4.6 25.902a6.13 6.13 0 0 1-1.443-2.215c-.308-.796-.518-1.703-.581-3.035a93.08 93.08 0 0 1-.038-.89l-.006-.242a98.838 98.838 0 0 1-.031-2.735v-2.57c-.003-.912.006-1.823.027-2.735l.01-.242c.01-.282.022-.558.037-.89.062-1.332.272-2.238.581-3.036A6.1 6.1 0 0 1 4.6 5.098a6.121 6.121 0 0 1 2.213-1.44c.797-.31 1.703-.52 3.035-.582.332-.015.61-.028.89-.038l.242-.007a98.758 98.758 0 0 1 2.735-.029L16.285 3ZM15 9.25a6.25 6.25 0 1 0 0 12.5 6.25 6.25 0 0 0 0-12.5Zm0 2.5a3.749 3.749 0 1 1 0 7.498 3.749 3.749 0 0 1 0-7.498m6.563-4.375a1.563 1.563 0 1 0 0 3.125 1.563 1.563 0 0 0 0-3.125Z"/></svg><svg viewBox="0 0 31 30" id="phone" xmlns="http://www.w3.org/2000/svg"><g clip-path="url(#ea)"><path d="M6.75 5h5l2.5 6.25-3.125 1.875a13.75 13.75 0 0 0 6.25 6.25l1.875-3.125 6.25 2.5v5a2.5 2.5 0 0 1-2.5 2.5A20 20 0 0 1 4.25 7.5 2.5 2.5 0 0 1 6.75 5Z"/></g><defs><clipPath id="ea"><path transform="translate(.5)" d="M0 0h30v30H0z"/></clipPath></defs></svg><svg viewBox="0 0 30 30" id="pin" xmlns="http://www.w3.org/2000/svg"><g clip-path="url(#fa)" stroke-width="1.5" stroke-linecap="round" stroke-linejoin="round"><path d="M11.25 13.75a3.75 3.75 0 1 0 7.5 0 3.75 3.75 0 0 0-7.5 0Z"/><path d="m22.071 20.82-5.304 5.305a2.5 2.5 0 0 1-3.533 0L7.929 20.82a10 10 0 1 1 14.142 0Z"/></g><defs><clipPath id="fa"><path d="M0 0h30v30H0z"/></clipPath></defs></svg><svg viewBox="0 0 24 23" id="reviews-star" xmlns="http://www.w3.org/2000/svg"><path d="m12 0 1.837 9.972 10.051-1.335-8.916 4.829 4.375 9.147L12 15.625l-7.347 6.988 4.375-9.147L.112 8.637l10.051 1.335L12 0Z"/></svg></svg>