<svg width="10" height="6" fill="none" xmlns="http://www.w3.org/2000/svg"><path d="M1.582.646L1.23 1l.353-.354zm3.772 3.772l.353-.354-.353.354zm0 .707l.353.353-.353-.353zm-.708 0L5 4.77l-.354.354zM.876 1.354l-.354.353.353-.353zM1.935.293a1 1 0 00-1.414 0L1.229 1l.707-.707zm3.771 3.771L1.936.293 1.229 1 5 4.771l.707-.707zm0 1.414a1 1 0 000-1.414L5 4.771l.707.707zm-1.414 0a1 1 0 001.414 0L5 4.771l-.707.707zM.522 1.708l3.77 3.77L5 4.771 1.229 1l-.707.707zm0-1.415a1 1 0 000 1.414L1.229 1 .522.293zm3.77 3.771a1 1 0 000 1.414L5 4.771l-.707-.707zM8.065.293L4.293 4.064 5 4.771 8.771 1 8.064.293zm1.414 0a1 1 0 00-1.414 0L8.771 1l.707-.707zm0 1.414a1 1 0 000-1.414L8.771 1l.707.707zm-3.77 3.771l3.77-3.77L8.771 1 5 4.771l.707.707zm-1.415 0a1 1 0 001.414 0L5 4.771l-.707.707z" fill="#4F4F4F"/></svg>