<?xml version="1.0" ?><!DOCTYPE svg  PUBLIC '-//W3C//DTD SVG 1.0//EN'  'http://www.w3.org/TR/2001/REC-SVG-20010904/DTD/svg10.dtd'><svg viewBox="0 0 512 512" xmlns="http://www.w3.org/2000/svg" xmlns:xlink="http://www.w3.org/1999/xlink"><style>:root>svg{display:none}:root>svg:target{display:block}</style><svg viewBox="0 0 32 32" id="about" xmlns="http://www.w3.org/2000/svg"><defs><style>.acls-1{fill:none;stroke:#000;stroke-linecap:round;stroke-linejoin:round;stroke-width:2px}</style></defs><g data-name="79-users" id="a_79-users"><circle class="acls-1" cx="16" cy="13" r="5"/><path class="acls-1" d="M23 28a7 7 0 00-14 0zM24 14a5 5 0 10-4-8M25 24h6a7 7 0 00-7-7M12 6a5 5 0 10-4 8M8 17a7 7 0 00-7 7h6"/></g></svg><svg viewBox="0 0 24 24" id="company" xmlns="http://www.w3.org/2000/svg"><g stroke-width="1.041" color="#000" font-weight="400" font-family="sans-serif"><path d="M11.5 1.414V3.21H8.365v2.047H6.697v6.371H5.215V9.611h-1v2.016H1.896v10.959h20.208V11.627h-2.385V9.611h-1v2.016h-1.543V5.256H15.38V3.209H12.5V1.414zM9.365 4.21h5.016v1.047H9.365zM7.697 6.258h8.477v15.326h-2.36v-3.715H10.06v3.715h-2.36v-9.957h-.002zm-4.8 6.37h3.8v8.956h-3.8zm14.279 0h3.928v8.956h-3.928zm-6.115 6.243h1.751v2.713h-1.751z" style="line-height:normal;font-variant-ligatures:normal;font-variant-position:normal;font-variant-caps:normal;font-variant-numeric:normal;font-variant-alternates:normal;font-variant-east-asian:normal;font-feature-settings:normal;font-variation-settings:normal;text-indent:0;text-align:start;text-decoration-line:none;text-decoration-style:solid;text-decoration-color:#000;text-transform:none;text-orientation:mixed;white-space:normal;shape-padding:0;shape-margin:0;inline-size:0;isolation:auto;mix-blend-mode:normal;solid-color:#000;solid-opacity:1" overflow="visible" paint-order="stroke fill markers"/><path d="M9.451 7.657v3.049h4.843V7.657H9.451zm1.002 1.002h2.84v1.047h-2.84V8.659zM9.451 12.334v3.048h4.843v-3.048H9.451zm1.002 1h2.84v1.046h-2.84v-1.046z" style="line-height:normal;font-variant-ligatures:normal;font-variant-position:normal;font-variant-caps:normal;font-variant-numeric:normal;font-variant-alternates:normal;font-variant-east-asian:normal;font-feature-settings:normal;font-variation-settings:normal;text-indent:0;text-align:start;text-decoration-line:none;text-decoration-style:solid;text-decoration-color:#000;text-transform:none;text-orientation:mixed;white-space:normal;shape-padding:0;shape-margin:0;inline-size:0;isolation:auto;mix-blend-mode:normal;solid-color:#000;solid-opacity:1" overflow="visible" paint-order="stroke fill markers"/><path d="M3.817 16.606v1h1.96v-1h-1.96zM3.817 14.432v1.002h1.96v-1.002h-1.96zM3.817 18.779v1h1.96v-1h-1.96zM18.158 16.606v1h1.96v-1h-1.96zM18.158 14.432v1.002h1.96v-1.002h-1.96zM18.158 18.779v1h1.96v-1h-1.96z" style="line-height:normal;font-variant-ligatures:normal;font-variant-position:normal;font-variant-caps:normal;font-variant-numeric:normal;font-variant-alternates:normal;font-variant-east-asian:normal;font-feature-settings:normal;font-variation-settings:normal;text-indent:0;text-align:start;text-decoration-line:none;text-decoration-style:solid;text-decoration-color:#000;text-transform:none;text-orientation:mixed;white-space:normal;shape-padding:0;shape-margin:0;inline-size:0;isolation:auto;mix-blend-mode:normal;solid-color:#000;solid-opacity:1" overflow="visible"/></g></svg><svg viewBox="0 0 16 16" id="explore" xmlns="http://www.w3.org/2000/svg"><path d="M13.85 13.15l-2.69-2.69c.74-.9 1.2-2.03 1.2-3.28C12.37 4.33 10.04 2 7.18 2S2 4.33 2 7.18s2.33 5.18 5.18 5.18c1.25 0 2.38-.46 3.28-1.2l2.69 2.69a.485.485 0 00.7 0c.2-.19.2-.51 0-.7zM3 7.18C3 4.88 4.88 3 7.18 3s4.18 1.88 4.18 4.18-1.88 4.18-4.18 4.18S3 9.49 3 7.18z"/></svg><svg version="1.0" viewBox="0 0 32 32" id="linkedin" xmlns="http://www.w3.org/2000/svg"><path d="M32 30a2 2 0 01-2 2H2a2 2 0 01-2-2V2a2 2 0 012-2h28a2 2 0 012 2v28z" fill="#007BB5"/><g fill="#FFF"><path d="M7 11h4v14H7zM20.499 11c-2.791 0-3.271 1.018-3.499 2v-2h-4v14h4v-8c0-1.297.703-2 2-2 1.266 0 2 .688 2 2v8h4v-7c0-4-.521-7-4.501-7z"/><circle cx="9" cy="8" r="2"/></g></svg><svg viewBox="0 0 32 32" id="news" xmlns="http://www.w3.org/2000/svg"><g clip-rule="evenodd" fill-rule="evenodd"><path d="M29 0H7a3 3 0 00-3 3v2H3a3 3 0 00-3 3v20a4 4 0 004 4h24a4 4 0 004-4V3a3 3 0 00-3-3zm1 28c0 1.102-.898 2-2 2H4c-1.103 0-2-.898-2-2V8a1 1 0 011-1h1v20a1 1 0 102 0V3a1 1 0 011-1h22c.551 0 1 .448 1 1v25z"/><path d="M19.498 13.005h8a.5.5 0 100-1h-8a.5.5 0 000 1zM19.498 10.005h8a.5.5 0 100-1h-8a.5.5 0 000 1zM19.498 7.005h8a.5.5 0 100-1h-8a.5.5 0 000 1zM16.5 27.004h-8a.5.5 0 000 1h8a.5.5 0 000-1zM16.5 24.004h-8a.5.5 0 000 1h8a.5.5 0 000-1zM16.5 21.004h-8a.5.5 0 000 1h8a.5.5 0 000-1zM27.5 27.004h-8a.5.5 0 000 1h8a.5.5 0 000-1zM27.5 24.004h-8a.5.5 0 000 1h8a.5.5 0 000-1zM27.5 21.004h-8a.5.5 0 000 1h8a.5.5 0 000-1zM27.5 15.004h-19a.5.5 0 000 1h19a.5.5 0 000-1zM27.5 18.004h-19a.5.5 0 000 1h19a.5.5 0 000-1zM9 13h7a1 1 0 001-1V5.004a1 1 0 00-1-1H9a1 1 0 00-1 1V12a1 1 0 001 1zm1-7h5v5h-5V6z"/></g></svg><svg viewBox="0 0 512 512" fill-rule="evenodd" clip-rule="evenodd" stroke-linejoin="round" stroke-miterlimit="2" id="twitter" xmlns="http://www.w3.org/2000/svg"><g fill-rule="nonzero"><path d="M448 512H64c-35.328 0-64-28.672-64-64V64C0 28.672 28.672 0 64 0h384c35.328 0 64 28.672 64 64v384c0 35.328-28.672 64-64 64z" fill="#1da1f2"/><path d="M196.608 386.048c120.704 0 186.752-100.096 186.752-186.752 0-2.816 0-5.632-.128-8.448 12.8-9.216 23.936-20.864 32.768-34.048-11.776 5.248-24.448 8.704-37.76 10.368 13.568-8.064 23.936-20.992 28.928-36.352-12.672 7.552-26.752 12.928-41.728 15.872-12.032-12.8-29.056-20.736-47.872-20.736-36.224 0-65.664 29.44-65.664 65.664 0 5.12.64 10.112 1.664 14.976-54.528-2.688-102.912-28.928-135.296-68.608-5.632 9.728-8.832 20.992-8.832 33.024 0 22.784 11.648 42.88 29.184 54.656a66.39 66.39 0 01-29.696-8.192v.896c0 31.744 22.656 58.368 52.608 64.384-5.504 1.536-11.264 2.304-17.28 2.304-4.224 0-8.32-.384-12.288-1.152 8.32 26.112 32.64 45.056 61.312 45.568-22.528 17.664-50.816 28.16-81.536 28.16-5.248 0-10.496-.256-15.616-.896 28.928 18.432 63.488 29.312 100.48 29.312" fill="#fff"/></g></svg><svg viewBox="0 0 512 512" id="vessels" xmlns="http://www.w3.org/2000/svg"><path d="M406.706 257.88a5.29 5.29 0 00-3.296-3.226l-39.252-13.195v-81.524a5.298 5.298 0 00-5.298-5.297h-33.273V89.462a5.298 5.298 0 00-5.298-5.298H191.714a5.298 5.298 0 00-5.299 5.298v65.176H153.14a5.298 5.298 0 00-5.299 5.297v81.524l-39.251 13.195a5.293 5.293 0 00-2.812 7.812L206.782 425.33a5.29 5.29 0 004.501 2.507h89.436a5.29 5.29 0 004.501-2.507l101.002-162.863a5.292 5.292 0 00.484-4.587zM197.01 94.76h117.98v59.878h-117.98V94.76zm53.692 322.48h-36.47l-95.927-154.673 132.397-44.505V417.24zm5.331-211.84c-.01 0-.021-.007-.033-.007s-.021.007-.033.007a5.312 5.312 0 00-1.656.27l-95.874 32.228v-72.664h195.124v72.663L257.69 205.67a5.31 5.31 0 00-1.656-.27zm41.736 211.84H261.3V218.063l132.393 44.504L297.77 417.24z"/><path d="M244.176 119.4h-16.158a5.298 5.298 0 000 10.597h16.158a5.298 5.298 0 000-10.596zM283.982 119.4h-16.159a5.298 5.298 0 000 10.597h16.159a5.298 5.298 0 000-10.596z"/></svg><svg viewBox="0 0 32 32" id="website" xmlns="http://www.w3.org/2000/svg"><g fill="#fff"><circle cx="7.5" cy="4.5" r=".5"/><circle cx="5.5" cy="4.5" r=".5"/><circle cx="3.5" cy="4.5" r=".5"/><path d="M30.5 7h-29a.5.5 0 010-1h29a.5.5 0 010 1z"/></g><path d="M1.5 22a.5.5 0 01-.5-.5v-18C1 2.673 1.673 2 2.5 2h27c.827 0 1.5.673 1.5 1.5v9a.5.5 0 01-1 0v-9a.5.5 0 00-.5-.5h-27a.5.5 0 00-.5.5v18a.5.5 0 01-.5.5zM22 31H10.5a.5.5 0 010-1h1c.827 0 1.5-.673 1.5-1.5v-1a.5.5 0 011 0v1c0 .563-.187 1.082-.501 1.5h5.002A2.489 2.489 0 0118 28.5v-3a.5.5 0 011 0v3c0 .827.673 1.5 1.5 1.5H22a.5.5 0 010 1z" fill="#fff"/><path d="M18.5 26h-16c-.827 0-1.5-.673-1.5-1.5v-3a.5.5 0 01.5-.5h14a.5.5 0 010 1H2v2.5a.5.5 0 00.5.5h16a.5.5 0 010 1z" fill="#fff"/><g><path d="M18.5 14h-1a.5.5 0 010-1h1a.5.5 0 010 1zM27.5 10h-10a.5.5 0 010-1h10a.5.5 0 010 1zM27.5 12h-10a.5.5 0 010-1h10a.5.5 0 010 1z" fill="#fff"/></g><g><path d="M7.5 14h-3a.5.5 0 010-1h3a.5.5 0 010 1zM14.5 10h-10a.5.5 0 010-1h10a.5.5 0 010 1zM14.5 12h-10a.5.5 0 010-1h10a.5.5 0 010 1z" fill="#fff"/></g><g><path d="M24 27c-3.86 0-7-3.141-7-7s3.14-7 7-7c1.352 0 2.663.386 3.792 1.115a.5.5 0 11-.543.839A5.975 5.975 0 0024 14c-3.309 0-6 2.691-6 6s2.691 6 6 6a6.006 6.006 0 005.701-7.877.5.5 0 01.95-.313c.231.706.349 1.442.349 2.19 0 3.859-3.14 7-7 7z" fill="#fff"/><path d="M23.5 22.699h-.012a.503.503 0 01-.373-.18l-2.5-3a.503.503 0 01.064-.705.503.503 0 01.705.064l2.133 2.561 6.215-6.865a.5.5 0 01.736.676l-6.6 7.287a.495.495 0 01-.368.162z" fill="#fff"/></g></svg><svg viewBox="0 0 128 128" id="youtube" xmlns="http://www.w3.org/2000/svg"><g clip-rule="evenodd"><path fill="none" d="M0 0h128v128H0z"/><path d="M126.72 38.224s-1.252-8.883-5.088-12.794c-4.868-5.136-10.324-5.16-12.824-5.458-17.912-1.305-44.78-1.305-44.78-1.305h-.056s-26.868 0-44.78 1.305c-2.504.298-7.956.322-12.828 5.458C2.528 29.342 1.28 38.224 1.28 38.224S0 48.658 0 59.087v9.781c0 10.433 1.28 20.863 1.28 20.863s1.248 8.883 5.084 12.794c4.872 5.136 11.268 4.975 14.116 5.511 10.24.991 43.52 1.297 43.52 1.297s26.896-.04 44.808-1.345c2.5-.302 7.956-.326 12.824-5.462 3.836-3.912 5.088-12.794 5.088-12.794S128 79.302 128 68.868v-9.781c0-10.429-1.28-20.863-1.28-20.863zM50.784 80.72l-.004-36.219 34.584 18.172-34.58 18.047z" fill="#CE1312" fill-rule="evenodd"/></g></svg></svg>