<svg width="190" height="100" viewBox="0 0 190 100" fill="none" xmlns="http://www.w3.org/2000/svg">
<path d="M5.50215 44.775H12.9541V47.374H8.49215V50.088H12.9541V52.779H8.49215V58H5.50215V44.775ZM21.4411 51.215V46.362L18.7501 44.775H13.9891V47.374H18.4511V50.088H13.9891V52.779H18.7501L21.4411 51.215ZM24.4367 44.775H27.3347V55.309H31.7047V58H24.4367V44.775ZM32.9237 55.309V58H40.2837V55.309H32.9237ZM42.3498 46.362L44.9718 44.775H49.7098V47.374H45.2478V50.088H49.7098V52.71H45.2478V58H42.3498V46.362ZM58.1968 46.362L55.4828 44.775H50.7448V47.374H55.2988V50.088H50.7448V52.71H55.2988V58H58.1968V46.362ZM69.0653 51.951V58H66.4663V51.951L59.8423 45.626L62.4643 44.775L67.7543 49.812L73.0903 44.775L75.6893 45.626L69.0653 51.951ZM92.9169 47.374H86.2929V58H83.1189V47.374H77.0699V44.775H92.9169V47.374ZM122.799 46.362L125.421 44.775H130.159V47.489H125.605V50.088H130.159V52.779H125.421L122.799 51.215V46.362ZM138.646 51.675L135.932 50.088H131.194V52.779H135.748V55.401H131.286V58H135.932L138.646 56.436V51.675ZM125.697 53.814V55.401H130.159V58H125.49L122.799 56.436V53.814H125.697ZM138.646 49.053V46.362L135.932 44.775H131.194V47.489H135.748V49.053H138.646ZM142.099 44.775H144.997V58H142.099V44.775ZM148.68 46.362L151.371 44.775H156.132V47.374H151.578V55.309H156.04V58H151.371L148.68 56.436V46.362ZM164.527 46.362L161.928 44.775H157.167V47.374H161.629V55.309H157.167V58H161.928L164.527 56.436V46.362ZM168.658 44.775H171.28L176.018 49.237V52.71L171.556 48.409V58H168.658V44.775ZM181.607 54.274V44.775H184.505V58H181.791L177.053 53.446V50.088L181.607 54.274Z" fill="#34372F"/>
<path d="M101.89 52.8221C101.668 52.585 101.538 52.2827 101.52 51.9651V48.0039C101.537 47.6862 101.668 47.3839 101.89 47.1469L102.183 46.8666C102.281 46.7724 102.336 46.6448 102.336 46.5117C102.336 46.3787 102.281 46.251 102.183 46.1569L99.0766 43.1832C98.9781 43.0893 98.8448 43.0366 98.7057 43.0366C98.5667 43.0366 98.4334 43.0893 98.3349 43.1832L97.1526 44.315C97.0548 44.4094 97 44.5369 97 44.6699C97 44.8028 97.0548 44.9303 97.1526 45.0247L99.3694 47.1468C99.5915 47.3836 99.7223 47.686 99.7401 48.0038V51.965C99.7224 52.2826 99.5915 52.5848 99.3694 52.8214L97.1526 54.9443C97.0548 55.0387 97 55.1663 97 55.2991C97 55.432 97.0548 55.5596 97.1526 55.654L98.3349 56.7857C98.4334 56.8796 98.5667 56.9323 98.7057 56.9323C98.8447 56.9323 98.9781 56.8796 99.0766 56.7857L102.183 53.8119C102.281 53.7177 102.336 53.5901 102.336 53.4571C102.336 53.324 102.281 53.1964 102.183 53.1023L101.89 52.8221Z" fill="#D73123"/>
<path d="M110.425 55.3194C110.178 55.5315 109.862 55.6567 109.53 55.6743H105.393C105.061 55.6567 104.745 55.5316 104.497 55.3194L104.205 55.0383C104.106 54.9447 103.973 54.8923 103.834 54.8923C103.695 54.8923 103.562 54.9447 103.463 55.0383L100.357 58.012C100.259 58.1064 100.204 58.2341 100.204 58.3673C100.204 58.5004 100.259 58.6281 100.357 58.7225L101.54 59.8543C101.638 59.9479 101.772 60.0003 101.91 60.0003C102.049 60.0003 102.183 59.9479 102.281 59.8543L104.498 57.7311C104.746 57.519 105.061 57.3939 105.393 57.3764H109.531C109.863 57.3938 110.179 57.5189 110.427 57.7311L112.644 59.8543C112.743 59.9479 112.876 60.0003 113.015 60.0003C113.153 60.0003 113.287 59.9479 113.385 59.8543L114.568 58.7225C114.666 58.6281 114.721 58.5004 114.721 58.3673C114.721 58.2341 114.666 58.1064 114.568 58.012L111.46 55.0381C111.361 54.9445 111.228 54.8921 111.089 54.8921C110.95 54.8921 110.817 54.9445 110.718 55.0381L110.425 55.3194Z" fill="#D73123"/>
<path d="M113.109 47.1778C113.331 47.415 113.462 47.7178 113.48 48.036V51.9957C113.462 52.3137 113.331 52.6163 113.109 52.8532L112.816 53.1342C112.718 53.2285 112.663 53.3561 112.663 53.4891C112.663 53.622 112.718 53.7496 112.816 53.8439L115.923 56.8172C116.021 56.9111 116.155 56.9637 116.294 56.9637C116.433 56.9637 116.566 56.9111 116.664 56.8172L117.847 55.6848C117.945 55.5906 118 55.4629 118 55.3299C118 55.1969 117.945 55.0692 117.847 54.975L115.63 52.8529C115.408 52.6159 115.277 52.3133 115.259 51.9953L115.259 48.0356C115.277 47.7175 115.408 47.4147 115.63 47.1774L117.847 45.0553C117.945 44.9613 118 44.8338 118 44.7008C118 44.5679 117.945 44.4404 117.847 44.3464L116.664 43.2139C116.616 43.1673 116.558 43.1303 116.494 43.1051C116.431 43.0799 116.363 43.0669 116.294 43.0669C116.225 43.0669 116.157 43.0799 116.093 43.1051C116.029 43.1303 115.972 43.1673 115.923 43.2139L112.816 46.1871C112.718 46.2814 112.663 46.409 112.663 46.542C112.663 46.675 112.718 46.8026 112.816 46.8969L113.109 47.1778Z" fill="#D73123"/>
<path d="M104.573 44.6808C104.821 44.4684 105.137 44.3432 105.469 44.3259H109.606C109.938 44.3435 110.253 44.4686 110.501 44.6808L110.795 44.9617C110.843 45.0083 110.901 45.0453 110.965 45.0705C111.028 45.0957 111.096 45.1087 111.165 45.1087C111.234 45.1087 111.302 45.0957 111.366 45.0705C111.429 45.0453 111.487 45.0083 111.536 44.9617L114.642 41.9879C114.74 41.8935 114.795 41.7658 114.795 41.6327C114.795 41.4995 114.74 41.3718 114.642 41.2774L113.46 40.147C113.361 40.0529 113.228 40 113.089 40C112.95 40 112.816 40.0529 112.718 40.147L110.501 42.269C110.253 42.4812 109.938 42.6064 109.606 42.6239H105.469C105.137 42.6067 104.821 42.4815 104.573 42.269L102.356 40.147C102.258 40.0534 102.124 40.001 101.986 40.001C101.847 40.001 101.713 40.0534 101.615 40.147L100.432 41.2787C100.334 41.3731 100.279 41.5008 100.279 41.6339C100.279 41.767 100.334 41.8947 100.432 41.9891L103.538 44.9616C103.636 45.0557 103.77 45.1086 103.909 45.1086C104.048 45.1086 104.181 45.0557 104.28 44.9616L104.573 44.6808Z" fill="#D73123"/>
</svg>
