<?xml version="1.0" encoding="utf-8"?><!DOCTYPE svg  PUBLIC '-//W3C//DTD SVG 1.1//EN'  'http://www.w3.org/Graphics/SVG/1.1/DTD/svg11.dtd'><svg viewBox="0 0 512 512" xmlns="http://www.w3.org/2000/svg" xmlns:xlink="http://www.w3.org/1999/xlink"><style>:root>svg{display:none}:root>svg:target{display:block}</style><svg data-name="Layer 2" viewBox="0 0 64 32" id="cases" xmlns="http://www.w3.org/2000/svg"><path class="acls-1" d="M24.34 15.67h3.86a3.26 3.26 0 0 0 2.61-1.3.54.54 0 0 0 .22.05h14.83a.5.5 0 0 0 .5-.5v-1H49a.5.5 0 0 0 .5-.5v-2.2a.5.5 0 0 0-.5-.5h-2.59V7.67a.51.51 0 0 0-.5-.5h-1l-.13-.34a.5.5 0 0 0-.47-.32h-1l-.44-.41a.47.47 0 0 0-.3-.1H12.49a.51.51 0 0 0-.43.23l-.18.31h-.82a2.28 2.28 0 0 0-1.4.46l.3.39L9.6 7a1.92 1.92 0 0 0-.68 1l-1.29 4.35A2 2 0 0 0 7.9 14a1.49 1.49 0 0 0 1.22.63h1a1.74 1.74 0 0 0 1.57-.95l.05-.09h.63a2 2 0 0 0 1.84-1.16h4.68a.82.82 0 0 1 .8.64 1.87 1.87 0 0 1-.38 1.61l-4.72 5.81a.5.5 0 0 0-.11.39.51.51 0 0 0 .23.34l-1.3 1.88a1.1 1.1 0 0 0-.15 1 1.13 1.13 0 0 0 .69.71L17.23 26a1.51 1.51 0 0 0 1.82-.73c.29-.54.66-1.23.84-1.58a1.67 1.67 0 0 0 1.43-.95.42.42 0 0 0 0-.1l.19-.84a16.52 16.52 0 0 1 2.22-5.2Zm3.86-1H25a.24.24 0 0 0 0-.09l.1-1a1.22 1.22 0 0 1 1.22-1.1h4.23v.4l-.32.6a2.28 2.28 0 0 1-2.03 1.19Zm-7.62 6.85-.18.78a.65.65 0 0 1-.56.34.73.73 0 0 0-.72.31l-1 1.83a.46.46 0 0 1-.58.22l-3.28-1.15s-.07-.05-.07-.08a.09.09 0 0 1 0-.1l1.58-2.25a.53.53 0 0 0 .13-.42.51.51 0 0 0-.21-.31l4.37-5.37a2.91 2.91 0 0 0 .58-2.46 1.81 1.81 0 0 0-1.78-1.42h-5a.49.49 0 0 0-.45.29l-.13.27a1 1 0 0 1-.94.6h-.93a.52.52 0 0 0-.45.27l-.18.36a.77.77 0 0 1-.69.41h-1a.48.48 0 0 1-.4-.2 1 1 0 0 1-.13-.83l1.32-4.3a1 1 0 0 1 .33-.49h.06a1.26 1.26 0 0 1 .79-.27h1.1a.49.49 0 0 0 .42-.24l.19-.3h29.61l.44.4a.48.48 0 0 0 .34.14H44l.13.34a.5.5 0 0 0 .47.32h.84v2.05a.5.5 0 0 0 .5.5h2.62v1.16h-2.7a.51.51 0 0 0-.5.5v1H31.53V12a.5.5 0 0 0-.5-.5H26.3a2.21 2.21 0 0 0-2.21 2l-.09.88L22.93 16a17.35 17.35 0 0 0-2.35 5.52Z"/><path class="acls-1" d="M17 7.38h-1.59a.5.5 0 0 0-.5.5.5.5 0 0 0 .5.5H17a.5.5 0 0 0 .5-.5.5.5 0 0 0-.5-.5ZM19.73 7.38h-1.55a.5.5 0 0 0-.5.5.5.5 0 0 0 .5.5h1.55a.5.5 0 0 0 .5-.5.5.5 0 0 0-.5-.5ZM22.5 7.38H21a.5.5 0 0 0-.5.5.5.5 0 0 0 .5.5h1.5a.5.5 0 0 0 .5-.5.5.5 0 0 0-.5-.5ZM34.2 10h7.5a.51.51 0 0 0 .5-.5.5.5 0 0 0-.5-.5h-7.5a.5.5 0 0 0-.5.5.5.5 0 0 0 .5.5ZM27.14 19.82a2.73 2.73 0 1 0 2.73-2.73 2.74 2.74 0 0 0-2.73 2.73Zm4.46 0a1.73 1.73 0 1 1-1.73-1.73 1.74 1.74 0 0 1 1.73 1.73ZM33 15.61a1.14 1.14 0 1 0 1.14 1.14A1.14 1.14 0 0 0 33 15.61Zm0 2.16a1 1 0 1 1 1-1 1 1 0 0 1-1 1ZM25.08 19.54a1.1 1.1 0 1 0 1.1 1.09 1.09 1.09 0 0 0-1.1-1.09Zm0 1.51a.42.42 0 1 1 .42-.42.42.42 0 0 1-.42.42ZM44 18.52a.42.42 0 1 0-.41-.41.41.41 0 0 0 .41.41ZM42.84 17.69a.42.42 0 0 0 0 .83.42.42 0 0 0 0-.83ZM41.69 17.69a.42.42 0 1 0 .41.42.42.42 0 0 0-.41-.42ZM40.54 17.69a.42.42 0 1 0 .41.42.42.42 0 0 0-.41-.42ZM44 16.53a.41.41 0 1 0 .41.41.41.41 0 0 0-.41-.41ZM42.84 16.53a.41.41 0 0 0 0 .82.41.41 0 0 0 0-.82ZM41.69 16.53a.41.41 0 1 0 .41.41.41.41 0 0 0-.41-.41ZM40.54 16.53a.41.41 0 1 0 .41.41.41.41 0 0 0-.41-.41ZM44 15.37a.41.41 0 1 0 .41.41.41.41 0 0 0-.41-.41Z"/><circle class="acls-1" cx="42.84" cy="15.78" r=".41"/><path class="acls-1" d="M41.69 15.37a.41.41 0 1 0 .41.41.41.41 0 0 0-.41-.41ZM40.54 15.37a.41.41 0 1 0 .41.41.41.41 0 0 0-.41-.41ZM46.72 21.32a.42.42 0 1 0 .42.41.42.42 0 0 0-.42-.41Zm0 .6a.18.18 0 0 1-.18-.19.18.18 0 0 1 .18-.18.18.18 0 0 1 .19.18.18.18 0 0 1-.19.19ZM46 21.73a.42.42 0 1 0-.41.42.42.42 0 0 0 .41-.42Zm-.41.19a.18.18 0 0 1-.19-.19.18.18 0 0 1 .19-.18.18.18 0 0 1 .18.18.18.18 0 0 1-.19.19ZM44.4 21.73a.41.41 0 1 0-.41.42.41.41 0 0 0 .41-.42Zm-.41.19a.19.19 0 1 1 0-.37.18.18 0 0 1 .18.18.18.18 0 0 1-.17.19ZM42.84 21.32a.42.42 0 0 0 0 .83.42.42 0 0 0 0-.83Zm0 .6a.19.19 0 1 1 0-.37.18.18 0 0 1 .18.18.18.18 0 0 1-.18.19ZM41.69 21.32a.42.42 0 1 0 .41.41.42.42 0 0 0-.41-.41Zm0 .6a.18.18 0 0 1-.19-.19.18.18 0 0 1 .19-.18.18.18 0 0 1 .18.18.18.18 0 0 1-.18.19ZM40.54 21.32a.42.42 0 1 0 .41.41.42.42 0 0 0-.41-.41Zm0 .6a.18.18 0 0 1-.19-.19.18.18 0 0 1 .19-.18.18.18 0 0 1 .18.18.18.18 0 0 1-.18.19ZM44 20.16a.41.41 0 1 0 .41.41.41.41 0 0 0-.41-.41Zm0 .6a.2.2 0 0 1-.19-.19.19.19 0 0 1 .19-.18.18.18 0 0 1 .18.18.19.19 0 0 1-.18.19ZM42.84 20.16a.41.41 0 0 0 0 .82.41.41 0 0 0 0-.82Zm0 .6a.2.2 0 0 1-.19-.19.19.19 0 0 1 .19-.18.18.18 0 0 1 .18.18.19.19 0 0 1-.18.19ZM41.69 20.16a.41.41 0 1 0 .41.41.41.41 0 0 0-.41-.41Zm0 .6a.19.19 0 0 1-.19-.19.18.18 0 0 1 .19-.18.18.18 0 0 1 .18.18.19.19 0 0 1-.18.19ZM40.54 20.16a.41.41 0 1 0 .41.41.41.41 0 0 0-.41-.41Zm0 .6a.19.19 0 0 1-.19-.19.18.18 0 0 1 .19-.18.18.18 0 0 1 .18.18.19.19 0 0 1-.18.19ZM44 19a.41.41 0 1 0 .41.41A.41.41 0 0 0 44 19Zm0 .59a.19.19 0 0 1-.19-.18.2.2 0 0 1 .19-.19.19.19 0 0 1 .18.19.18.18 0 0 1-.18.18ZM42.84 19a.41.41 0 0 0 0 .82.41.41 0 0 0 0-.82Zm0 .59a.19.19 0 0 1-.19-.18.2.2 0 0 1 .19-.19.19.19 0 0 1 .18.19.18.18 0 0 1-.18.18ZM41.69 19a.41.41 0 1 0 .41.41.41.41 0 0 0-.41-.41Zm0 .59a.18.18 0 0 1-.19-.18.19.19 0 1 1 .37 0 .18.18 0 0 1-.18.18ZM40.54 19a.41.41 0 1 0 .41.41.41.41 0 0 0-.41-.41Zm0 .59a.18.18 0 0 1-.19-.18.19.19 0 1 1 .37 0 .18.18 0 0 1-.18.18ZM46.72 20.16a.41.41 0 1 0 .42.41.41.41 0 0 0-.42-.41Zm0 .6a.19.19 0 0 1-.18-.19.18.18 0 0 1 .18-.18.18.18 0 0 1 .19.18.19.19 0 0 1-.19.19ZM45.16 20.57a.42.42 0 1 0 .42-.41.41.41 0 0 0-.42.41Zm.6 0a.19.19 0 1 1-.37 0 .18.18 0 0 1 .19-.18.18.18 0 0 1 .18.18ZM7.15 16.26H6a.86.86 0 0 0-.86.86v7.76a.86.86 0 0 0 .86.86h1.15a.87.87 0 0 0 .85-.86v-7.76a.87.87 0 0 0-.85-.86ZM7 24.74h-.82v-7.48H7ZM10.52 16.26H9.41a.87.87 0 0 0-.86.86v7.76a.87.87 0 0 0 .86.86h1.11a.86.86 0 0 0 .86-.86v-7.76a.86.86 0 0 0-.86-.86Zm-.14 8.48h-.83v-7.48h.83ZM24.37 23.87h-.27v-.28h-.22v.28h-1.42v-.28h-.22v.28H22a.24.24 0 0 0-.24.25v1.17a.24.24 0 0 0 .24.25h2.4a.25.25 0 0 0 .25-.25v-1.17a.25.25 0 0 0-.28-.25ZM53.31 16.25h-5.2a.5.5 0 0 0-.5.5v.87a.49.49 0 0 0 .21.4l.44.32a.88.88 0 0 1 .33 1l-.09.24a4.15 4.15 0 0 0-.2 1.26v3.8a1.12 1.12 0 0 0 1.11 1.12h2.5A1.12 1.12 0 0 0 53 24.64v-4a3.64 3.64 0 0 0-.11-.87l-.12-.46a.91.91 0 0 1 .33-.92l.48-.35a.51.51 0 0 0 .2-.4v-.87a.5.5 0 0 0-.47-.52Zm-.5 1.11-.27.21a1.86 1.86 0 0 0-.7 2L52 20a2.57 2.57 0 0 1 .08.62v4a.12.12 0 0 1-.12.12h-2.5a.12.12 0 0 1-.11-.12v-3.8a3 3 0 0 1 .15-.94l.08-.24a1.89 1.89 0 0 0-.69-2.14l-.23-.16v-.11h4.2ZM47.66 15.43a.51.51 0 0 0 .5.5h5.1a.51.51 0 0 0 .5-.5.5.5 0 0 0-.5-.5h-5.1a.5.5 0 0 0-.5.5Z"/><rect class="acls-1" x="24.73" y="17.39" width="2.1" height="1.37" rx=".23" ry=".23"/><path class="acls-1" d="M36.93 20h-1.79a1.26 1.26 0 0 0-1.26 1.27V23a1.26 1.26 0 0 0 1.26 1.27h1.79A1.27 1.27 0 0 0 38.2 23v-1.75A1.27 1.27 0 0 0 36.93 20Zm.27 3a.27.27 0 0 1-.27.27h-1.79a.27.27 0 0 1-.26-.27v-1.75a.27.27 0 0 1 .26-.27h1.79a.27.27 0 0 1 .27.27ZM38 14.93h-1.78A1.26 1.26 0 0 0 35 16.19V18a1.27 1.27 0 0 0 1.27 1.27H38A1.27 1.27 0 0 0 39.28 18v-1.81A1.26 1.26 0 0 0 38 14.93Zm.28 3.07a.27.27 0 0 1-.27.27h-1.79A.27.27 0 0 1 36 18v-1.81a.27.27 0 0 1 .27-.26H38a.27.27 0 0 1 .27.26ZM44.73 23.05a.66.66 0 1 0 0 1.31.66.66 0 0 0 0-1.31Zm0 .9a.25.25 0 1 1 0-.49.25.25 0 1 1 0 .49ZM46.43 23.05a.66.66 0 1 0 .65.66.65.65 0 0 0-.65-.66Zm0 .9a.25.25 0 1 1 .24-.24.25.25 0 0 1-.24.29ZM44.79 24.59a.47.47 0 0 0-.47.47.47.47 0 1 0 .94 0 .47.47 0 0 0-.47-.47ZM46.43 24.59a.47.47 0 0 0-.48.47.48.48 0 1 0 .95 0 .47.47 0 0 0-.47-.47ZM42.57 23.46H40a.28.28 0 0 0 0 .54h2.6a.28.28 0 1 0 0-.56ZM42.57 24.7H40a.28.28 0 0 0 0 .56h2.6a.28.28 0 1 0 0-.56ZM32.09 24a.75.75 0 0 0-.55.25H28.2a.75.75 0 0 0-.55-.25.77.77 0 0 0-.56.25h-.2a.5.5 0 0 0-.5.5.51.51 0 0 0 .5.5h.2a.74.74 0 0 0 1.11 0h3.34a.75.75 0 1 0 .55-1.25ZM14.14 16.53a.27.27 0 0 0 .27.26.27.27 0 0 0 .27-.26h1.47v.06a.29.29 0 0 0 .28.28.28.28 0 0 0 .28-.28v-.09a.3.3 0 0 0 .25-.29v-1a.31.31 0 0 0-.25-.29v-.18a.27.27 0 0 0-.28-.27.28.28 0 0 0-.28.27v.15h-1.46v-.15a.28.28 0 0 0-.28-.27.27.27 0 0 0-.28.27v.15h-1v-.15a.27.27 0 0 0-.28-.27.28.28 0 0 0-.28.27v.15h-.11a.33.33 0 0 0-.33.32v1a.32.32 0 0 0 .33.32h.12a.28.28 0 0 0 .27.26.27.27 0 0 0 .27-.26Z"/></svg><svg style="fill-rule:evenodd;clip-rule:evenodd;stroke-linejoin:round;stroke-miterlimit:2" viewBox="0 0 512 512" xml:space="preserve" id="facebook" xmlns="http://www.w3.org/2000/svg"><path d="m255.022 511.998.229.001h-.079l-.15-.001Zm1.806.001h-.079l.229-.001-.15.001Zm-2.588-.005.247.001h-.142l-.105-.001Zm3.415.001h-.142l.247-.001-.105.001Zm-4.169-.007.165.001-.132-.001h-.033Zm4.995 0-.132.001.165-.001h-.033Zm.826-.009-.058.001.223-.003-.165.002Zm-6.779-.002.223.003-.058-.001-.165-.002Zm7.604-.01-.135.002.275-.004-.14.002Zm-8.404-.002.275.004-.135-.002-.14-.002Zm9.228-.012-.182.003.254-.005-.072.002Zm-9.984-.002.254.005-.182-.003-.072-.002Zm-.937-.019.225.005-.04-.001-.185-.004Zm11.745.004-.04.001.225-.005-.185.004Zm-12.567-.025.309.008-.125-.003-.184-.005Zm13.39.005-.125.003.309-.008-.184.005Zm.823-.022-.201.006.316-.009-.115.003Zm-14.967-.003.316.009-.201-.006-.115-.003Zm-.72-.022.225.007-.212-.007-.194-.006.181.006Zm16.509 0-.212.007.225-.007.181-.006-.194.006Zm.821-.027-.112.004.345-.012-.233.008Zm-18.371-.008.345.012-.112-.004-.233-.008Zm-.749-.028.362.013-.201-.007-.161-.006Zm19.941.006-.201.007.362-.013-.161.006Zm-20.676-.036.354.015-.277-.011-.077-.004Zm21.495.004-.277.011.354-.015-.077.004Zm-22.525-.049.38.017-.093-.003-.287-.014Zm23.345.014-.093.003.38-.017-.287.014Zm-24.084-.048.394.018-.186-.008-.208-.01Zm24.902.01-.186.008.394-.018-.208.01Zm-25.63-.047.397.02-.279-.013-.118-.007Zm26.448.007-.279.013.397-.02-.118.007Zm.818-.043-.362.019.321-.017.378-.021-.337.019Zm-27.925.002.321.017-.362-.019-.337-.019.378.021Zm28.741-.048-.16.009.406-.023-.246.014Zm-29.844-.014.406.023-.16-.009-.246-.014Zm-.722-.043.405.024-.253-.014-.152-.01Zm31.382.01-.253.014.405-.024-.152.01Zm-32.071-.053.365.023-.34-.021-.342-.022.317.02Zm32.887.002-.34.021.365-.023.317-.02-.342.022Zm.814-.053-.122.008.387-.026-.265.018Zm-34.755-.018.387.026-.122-.008-.265-.018Zm-.721-.05.38.027-.208-.014-.172-.013Zm36.29.013-.208.014.38-.027-.172.013Zm-37.009-.064.349.025-.271-.019-.078-.006Zm37.822.006-.271.019.349-.025-.078.006Zm-38.789-.079.306.023-.074-.005-.232-.018Zm39.602.018-.074.005.306-.023-.232.018Zm.811-.063-.146.011.311-.025-.165.014Zm-41.157-.014.311.025-.146-.011-.165-.014Zm-.725-.059.264.022-.186-.015-.078-.007Zm42.694.007-.186.015.264-.022-.078.007Zm-43.492-.074.079.007-.013-.001-.066-.006Zm44.302.006-.013.001.079-.007-.066.006Zm.81-.071-.072.006.181-.016-.109.01Zm-45.965-.01.181.016-.072-.006-.109-.01Zm-.75-.068.135.013-.084-.008-.051-.005Zm47.523.005-.084.008.135-.013-.051.005ZM216 508.887C93.681 489.661 0 383.684 0 256 0 114.71 114.71 0 256 0c141.29 0 256 114.71 256 256 0 127.684-93.681 233.661-216 252.887V330h59.65L367 256h-71v-48.021c0-20.245 9.918-39.979 41.719-39.979H370v-63s-29.296-5-57.305-5C254.219 100 216 135.44 216 199.6V256h-65v74h65v178.887Z"/></svg><svg data-name="Layer 2" viewBox="0 0 64 32" id="grenade" xmlns="http://www.w3.org/2000/svg"><path d="M55.12 17.51h-2.54v-.8a.5.5 0 1 0-1 0v.8H25.9v-.13a.5.5 0 0 0-.5-.5H5.31a1.79 1.79 0 0 0-1.31.58l-.78.84a2.21 2.21 0 0 0 .85 3.56.5.5 0 0 0 .34 0c.6-.21.91-.08 1.38.56A1.6 1.6 0 0 1 6 24l-1.59 4a.5.5 0 0 0 0 .43.46.46 0 0 0 .36.25l3.41.52h.12a.52.52 0 0 0 .47-.33L10 25.48h2a4.17 4.17 0 0 0 3.57-2l.35-.59h6.78a.46.46 0 0 0 .2-.05l1-.44h10.5a1.62 1.62 0 0 0 1.6 1.42h11.09a1.64 1.64 0 0 0 1.31-.67h2.76a.5.5 0 0 0 .5-.5v-1.32a.5.5 0 0 0-.5-.5h-2.44v-.09a1.6 1.6 0 0 0 0-.23h6.43a.5.5 0 0 0 .5-.5V18a.5.5 0 0 0-.53-.49ZM11.4 22.88l.35 1.31a.44.44 0 0 0 .24.29h-1.63l.38-1.05a.88.88 0 0 1 .66-.55Zm3.32.06a3.15 3.15 0 0 1-2.13 1.47.54.54 0 0 0 .13-.47l-.29-1.08h2.34Zm7.88-1.08h-11a1.87 1.87 0 0 0-1.8 1.23L8 28.19l-2.4-.37 1.36-3.49a2.6 2.6 0 0 0-.34-2.51 2 2 0 0 0-2.32-1 1.2 1.2 0 0 1-.61-.79A1.19 1.19 0 0 1 4 19l.78-.84a.75.75 0 0 1 .58-.26h6.75l-.56 1a.5.5 0 0 0-.31-.12H8a.51.51 0 0 0-.5.5.5.5 0 0 0 .5.5h3l-.31.57a.47.47 0 0 0-.26-.08H7.25a.5.5 0 0 0 0 1h3a.49.49 0 0 0 .25.51.53.53 0 0 0 .24.06.5.5 0 0 0 .44-.25l1.93-3.5a.66.66 0 0 0 .06-.2H24.9v3l-1.29.57Zm24.49 1H36a.71.71 0 0 1-.71-.71v-.12a.45.45 0 0 0 0-.2.41.41 0 0 0 0-.19v-.93A.71.71 0 0 1 36 20h11.09a.69.69 0 0 1 .44.17.47.47 0 0 0 .17.2.7.7 0 0 1 .1.34v1.44a.71.71 0 0 1-.71.75Zm1.65-1.07h1.92v.32h-1.94v-.32Zm5.88-2.31h-6.48a1.64 1.64 0 0 0-1-.39H36a1.63 1.63 0 0 0-1.63 1.62v.62h-8.53a.47.47 0 0 0 .06-.2v-.65h6.8a.51.51 0 0 0 .5-.5.5.5 0 0 0-.5-.5h-6.8v-1h28.72Z"/><path class="ccls-1" d="M58.87 5.79h-.63a.5.5 0 0 0-.5.5v.82h-.12V3.26a.5.5 0 1 0-1 0v3.85h-21V5.26a.5.5 0 0 0-.5-.5h-1.25v-1.5a.5.5 0 1 0-1 0v1.5h-4a.5.5 0 0 0-.5.5v.53H6.82l-2.11-.7a.51.51 0 0 0-.4 0 .48.48 0 0 0-.24.33l-.34 1.69h-.6a.5.5 0 0 0-.5.5v5.61a.5.5 0 0 0 .5.5h.94a.5.5 0 0 0 .5.5h2.17a.5.5 0 0 0 .5-.5h25.63a.5.5 0 0 0 1 0h23.87v.72a.5.5 0 0 0 .5.5h.63a.5.5 0 0 0 .5-.5V6.29a.5.5 0 0 0-.5-.5Zm-24.25 0v1.32h-.75V5.76Zm-29.68.43 1.65.54a.4.4 0 0 0 .15 0h22.13a.5.5 0 0 0 .5-.5v-.5h3.5v1.35H4.75ZM3.63 8.11h1.78v1.27h-.85a.5.5 0 0 0-.5.5.5.5 0 0 0 .5.5h.85v2.34H3.63Zm2.78 4.61v-2.34h.33a.5.5 0 0 0 .5-.5.5.5 0 0 0-.5-.5h-.33V8.11h26.46v4.61Zm27.46 0V8.11h23.87v4.61Z"/></svg><svg data-name="Layer 2" viewBox="0 0 80 30" id="guns" xmlns="http://www.w3.org/2000/svg"><path d="M27.38 14.08h.08l6.06-1a.51.51 0 0 0 .42-.57.52.52 0 0 0-.58-.42l-6.06 1a.5.5 0 0 0 .08 1Z"/><path class="dcls-1" d="m79.31 4.88-.15-1a1.65 1.65 0 0 0-1.88-1.36l-12.41 2a1.63 1.63 0 0 0-1.07.66.75.75 0 0 1-.07.12c-.09-.63-.23-1.58-.45-3a.5.5 0 0 0-.2-.33.52.52 0 0 0-.38-.09l-1 .18a.49.49 0 0 0-.42.45l-.31 4.07-9.2 1.5A1.71 1.71 0 0 0 50 7.29l-5.74 1a1.4 1.4 0 0 0-.12-1.21l-.76-1.24a.58.58 0 0 0-.18-.17 1.89 1.89 0 0 0-.56-.27 1.34 1.34 0 0 0-.2-.6 1.32 1.32 0 0 0-.85-.54l-4.36-.81a1.27 1.27 0 0 0-1 .21 1.29 1.29 0 0 0-.55.84 1.31 1.31 0 0 0 .21 1 1.34 1.34 0 0 0 .84.55l4.36.81h.25a1.32 1.32 0 0 0 .74-.23 1.34 1.34 0 0 0 .26-.27h.06l.17.09.7 1.14a.41.41 0 0 1 0 .4l-.27.48-1.4.24a.58.58 0 0 0-.26.13l-.54.52-1-.3a.55.55 0 0 0-.22 0l-5 .78-.76-1a.48.48 0 0 0-.32-.2l-1-.25h-.17l-7.9 1.31-4.16 1.43-.25.06L6 13.47l-1.19.38A1.13 1.13 0 0 0 4 15.2c.41 1.8 2.14 6.85 2.87 8.94a1 1 0 0 0 1.19.65l.94-.21a2 2 0 0 0 1-.58l4.14-4.43a.82.82 0 0 1 .47-.26l1.78-.37a.5.5 0 0 0 .39-.48l7.41-1.19a1 1 0 0 0 0 .17l.43 1.29a.51.51 0 0 0 .6.33l.75-.2a.73.73 0 0 1 .65.35c0 .05.09.15-.14.37a3.09 3.09 0 0 0-.66 1.08L24.94 23a1.1 1.1 0 0 0 .85 1.49l2.4.38h.07a.54.54 0 0 0 .3-.1c.59-.44.76-.66.71-1a.46.46 0 0 0-.13-.27A6.36 6.36 0 0 1 29 23l1.36-3.82.82.27.45 4.78a.49.49 0 0 0 .5.45l5.85-.1a.5.5 0 0 0 .37-.17l.5-.56a.5.5 0 0 0 .12-.37L38.3 15l.53-.1.11.46a.5.5 0 0 0 .58.37l6.42-1.25a.5.5 0 0 0 .28-.16l.25-.28 3.13-.5.16.31a6 6 0 0 0-1.11 1.67 22.66 22.66 0 0 0-1.18 3.24 1.06 1.06 0 0 0 1 1.35l2.42.13a.51.51 0 0 0 .53-.5v-.73l2.08-5h.06l.93 9.19-.55.06a.5.5 0 0 0 .06 1l2.17-.26a.5.5 0 0 0 .43-.56.51.51 0 0 0-.55-.44l-.6.08-.94-9.29.27-.06 2.84 10.53-.64.11a.5.5 0 0 0 .08 1h.08l2.13-.37a.5.5 0 1 0-.17-1l-.49.09L55.7 13.3a1.36 1.36 0 0 0 .44-1v-.64l6.67-1.21a1 1 0 0 0 .8-1.14l-.09-.54a.91.91 0 0 0-.13-.37l.79-.13a1.64 1.64 0 0 0 1.1.44h.26L78 6.75a1.64 1.64 0 0 0 1.31-1.87Zm-37.74.9a.32.32 0 0 1-.23 0L37 5a.3.3 0 0 1-.21-.13.36.36 0 0 1-.05-.23.39.39 0 0 1 .13-.2.32.32 0 0 1 .13-.05h.06l4.36.81a.34.34 0 0 1 .2.13.28.28 0 0 1 .05.23.3.3 0 0 1-.1.22ZM62.21 3h.15c.18 1.19.4 2.62.49 3.31l-.91.15Zm-8.27 6.63c0-.13 0-.26.23-.31h.06a.25.25 0 0 1 .12 0 .24.24 0 0 1 .11.14l.26 1a.22.22 0 0 1 0 .17.21.21 0 0 1-.14.11h-.07a.2.2 0 0 1-.18 0 .24.24 0 0 1-.11-.14Zm-1 .26.26.95a1.54 1.54 0 0 0 .17.34h-.31L52.2 9l1-.16a1.24 1.24 0 0 0-.2 1.05Zm-32.76 2.28.4-.09 4.1-1.41 7.72-1.28.79.14.07.1-.21.23-4.8.7a.5.5 0 0 0-.42.56l.08.6-12.77 2a.5.5 0 0 0-.33.2.49.49 0 0 0-.08.39h-2.34l-.32-.87Zm-5.75 6.16a1.86 1.86 0 0 0-1 .56l-4.14 4.43a1 1 0 0 1-.5.28l-1 .21C7.27 22.19 5.41 16.78 5 15a.15.15 0 0 1 .11-.18l1.12-.36 4.85-.79.48 1.33a.5.5 0 0 0 .47.33h2.9l.54 2.74Zm1.94-.82-.56-2.84 12.74-2a.51.51 0 0 0 .42-.56l-.08-.59 4.48-.66a.48.48 0 0 0 .3-.15l.19-.21.15.2a.52.52 0 0 0 .48.2l5.2-.82.31.09-1.42 1.28a.47.47 0 0 0-.17.43l.24 2.12-3.65.62-9.67 1.46ZM32 17.39l1.73-.26v.42a.72.72 0 0 1-.6.71l-1 .18Zm-4 5.35a.43.43 0 0 0 0 .26 6.3 6.3 0 0 0 .19.85L26 23.53l-.08.49v-.62l.87-2.4a2.28 2.28 0 0 1 .45-.74 1.25 1.25 0 0 0 .26-1.6 1.69 1.69 0 0 0-1.5-.79h-.2l-.37.09-.13-.38.25-.09a.51.51 0 0 0 .34-.47l8.67-1.31V16l-4.14.64a.49.49 0 0 0-.39.33Zm2.69-4.55.22-.63H31l.07.76Zm7.31 5.1-.22.24-5.17.1-.39-4.19 1.12-.2a1.72 1.72 0 0 0 1.42-1.69V17l.45-.07a.5.5 0 0 0 .43-.49v-.88l1.71-.31ZM53.37 13l-.42.12a.54.54 0 0 0-.32.29l-2.2 5.34a.41.41 0 0 0 0 .19v.29l-2-.16A22.72 22.72 0 0 1 49.55 16a3.85 3.85 0 0 1 1.06-1.52.49.49 0 0 0 .22-.67l-.5-1a.47.47 0 0 0-.52-.27l-3.67.58a.55.55 0 0 0-.3.16l-.26.29-5.78 1.13-.11-.43-.26-2.27 1.92-1.7.65-.64 8.21-1.39a.73.73 0 0 1 .79.45l1.3 3.21a.5.5 0 0 0 .51.31l1.54-.14.17.66Zm2.32-2.26a1.26 1.26 0 0 0 0-.58L62.54 9l.09.54Zm3.48-2.63a.48.48 0 0 0-.41.48l-3.35.58a1.29 1.29 0 0 0-.41-.61l8.67-1.44v.24Zm18.62-2.34-12.41 2a.63.63 0 0 1-.73-.53l-.15-1a.63.63 0 0 1 .11-.48.68.68 0 0 1 .39-.25l12.41-2h.1a.63.63 0 0 1 .63.54l.15 1a.64.64 0 0 1-.5.72Z"/></svg><svg data-name="Layer 2" viewBox="0 0 74 32" id="historical" xmlns="http://www.w3.org/2000/svg"><path d="M68.41 7.93a1.11 1.11 0 0 0-1.2-1.08h-.54L66.32 6a1.51 1.51 0 0 0-1.5-1h-.12a1.51 1.51 0 0 0-1.39 1.2c-.08.4-.12.66-.15.84l-25 1.16A.51.51 0 0 0 38 8l-1.19-.78a1.6 1.6 0 0 0-2 .16l-.94.87a.38.38 0 0 0-.12.17l-4.35.2a2.13 2.13 0 0 0-1.49.71 2.09 2.09 0 0 0-.53 1.18 3.29 3.29 0 0 0-.81.47A15.21 15.21 0 0 1 23 13.22a3.72 3.72 0 0 1-2.12 0A7.17 7.17 0 0 0 18 13L4.69 14.79a1.36 1.36 0 0 0-1.15 1.69c.24.95.68 2.71.9 3.82a20.68 20.68 0 0 1 .26 3.49 1.41 1.41 0 0 0 .52 1.06 1.37 1.37 0 0 0 .85.29 1.53 1.53 0 0 0 .3 0 50.36 50.36 0 0 0 6.84-2.05 50.43 50.43 0 0 0 5.33-2.46 11.91 11.91 0 0 1 2.32-1.05 1.72 1.72 0 0 1 .88.15 1.54 1.54 0 0 0 1.21.06 3.42 3.42 0 0 0 1.22-1.35 14.14 14.14 0 0 1 1.53-2c.95-1 3-1.39 3.92-1.54v.54a2.24 2.24 0 0 0 2.24 2.11H32l2.47-.14a2.26 2.26 0 0 0 2.12-2.11v-.84l2.41-.13a.5.5 0 0 0 .46.33l3.24-.24 1.13 7.73a1.22 1.22 0 0 0 .48.8 1.18 1.18 0 0 0 .72.24h.18l2-.3a1.21 1.21 0 0 0 1-1.38l-1.16-7.94.55-.11a.51.51 0 0 0 .38-.36 2.2 2.2 0 0 1 .24-.58 5.86 5.86 0 0 1 1.05-.12 3.76 3.76 0 0 0 1.42-.26l.74-.54a2.34 2.34 0 0 1 .86-.23l15-.87a1.15 1.15 0 0 0 1.08-1.21Zm-4.12-1.55a.5.5 0 0 1 .47-.38h.12a.47.47 0 0 1 .5.33l.24.63-1.44.04c.02-.14.06-.33.11-.62ZM35.5 8.11a.59.59 0 0 1 .73-.06l.36.23-1.34.06ZM25 15.75a14.35 14.35 0 0 0-1.65 2.11 4 4 0 0 1-.78 1c-.12.05-.19 0-.48-.08a2.65 2.65 0 0 0-1.32-.2 9.88 9.88 0 0 0-2.68 1.15 51.3 51.3 0 0 1-5.23 2.42 49.63 49.63 0 0 1-6.7 2 .34.34 0 0 1-.31-.07.36.36 0 0 1-.14-.28 22.13 22.13 0 0 0-.28-3.68c-.23-1.13-.67-2.9-.91-3.86a.36.36 0 0 1 .31-.45L18.12 14a6.32 6.32 0 0 1 2.45.19 4.69 4.69 0 0 0 2.68 0 15.54 15.54 0 0 0 3.94-2.41 2.8 2.8 0 0 1 1.61-.59l10.49-.4.09 2.54-7.8.45-1.52.09c-.17-.01-3.56.34-5.06 1.88Zm7 .81a1.25 1.25 0 0 1-1.31-1.17v-.57h.56a3.6 3.6 0 0 0 .92 1.77H32Zm3.65-1.31a1.25 1.25 0 0 1-1.18 1.17l-1.62.09a.51.51 0 0 0 0-.69 2.62 2.62 0 0 1-.58-1.09l3.45-.2Zm11.54 6.64-2 .3a.22.22 0 0 1-.16 0 .26.26 0 0 1-.08-.14l-1.45-9.92a.22.22 0 0 1 .18-.25l2-.29a.21.21 0 0 1 .21.19l1.45 9.92a.2.2 0 0 1-.19.19Zm20.2-12.4-15 .87a3.4 3.4 0 0 0-1.32.38l-.73.54a7.31 7.31 0 0 1-1 .11c-.83.06-1.32.1-1.59.34a2.14 2.14 0 0 0-.5.8h-.2l-.15-1a1.21 1.21 0 0 0-1.38-1l-2 .29a1.22 1.22 0 0 0-1 1.38l.17 1.2-2.25.16a.86.86 0 0 0 .06-.39l-.15-2.49a1 1 0 0 0-1.09-1l-10.44.45h-.21a1.43 1.43 0 0 1 .12-.21 1.16 1.16 0 0 1 .79-.38l37.74-1.69a.16.16 0 0 1 .16.14l.07 1.35a.13.13 0 0 1-.14.15Z"/><path class="ecls-1" d="M50.83 9.07a.5.5 0 0 0 0 1c.91-.07 1.92-.13 2.16-.14a.63.63 0 0 0 .27 0 .51.51 0 0 0 .3-.58c-.02-.47-.02-.48-2.73-.28ZM55.22 8.82a.5.5 0 0 0 0 1c.91-.07 1.92-.13 2.16-.14a.42.42 0 0 0 .27 0 .5.5 0 0 0 .3-.58c-.02-.47-.03-.47-2.73-.28ZM59.61 8.58a.5.5 0 0 0 0 1c.9-.06 1.92-.13 2.16-.13a.63.63 0 0 0 .27 0 .52.52 0 0 0 .3-.58c-.02-.49-.03-.49-2.73-.29ZM64 8.33a.5.5 0 0 0 0 1c.9-.07 1.92-.13 2.16-.14a.57.57 0 0 0 .26 0 .51.51 0 0 0 .31-.58c-.03-.47-.02-.48-2.73-.28ZM17.82 17.38l-2.43.37a.49.49 0 0 0-.42.57.5.5 0 0 0 .49.42h.07l2.47-.37a.5.5 0 0 0 .42-.57.51.51 0 0 0-.6-.42Z"/></svg><svg style="enable-background:new 0 0 56.7 56.7" xml:space="preserve" viewBox="0 0 56.7 56.7" id="instagram" xmlns="http://www.w3.org/2000/svg"><circle cx="28.1" cy="30" r="4.4"/><path d="M33.6 19.2h-11c-1.6 0-3 .5-3.9 1.4-.9.9-1.4 2.3-1.4 3.9v11c0 1.6.5 3 1.5 4 1 .9 2.3 1.4 3.9 1.4h10.9c1.6 0 3-.5 3.9-1.4 1-.9 1.5-2.3 1.5-3.9v-11c0-1.6-.5-2.9-1.4-3.9-1-1-2.3-1.5-4-1.5zm-5.5 17.6c-3.8 0-6.8-3.1-6.8-6.8 0-3.8 3.1-6.8 6.8-6.8s6.9 3 6.9 6.8-3.1 6.8-6.9 6.8zm7.1-12.3c-.9 0-1.6-.7-1.6-1.6s.7-1.6 1.6-1.6 1.6.7 1.6 1.6-.7 1.6-1.6 1.6z"/><path d="M28.3 5.2c-13.6 0-24.6 11-24.6 24.6 0 13.6 11 24.6 24.6 24.6 13.6 0 24.6-11 24.6-24.6.1-13.6-11-24.6-24.6-24.6zm13.1 30.4c0 2.3-.8 4.3-2.2 5.7-1.4 1.4-3.4 2.1-5.6 2.1H22.7c-2.2 0-4.2-.7-5.6-2.1-1.5-1.4-2.2-3.4-2.2-5.7v-11c0-4.6 3.1-7.8 7.8-7.8h11c2.3 0 4.2.8 5.6 2.2 1.4 1.4 2.1 3.3 2.1 5.6v11z"/></svg><svg style="enable-background:new 0 0 100 100" viewBox="0 0 100 100" xml:space="preserve" id="linkedin" xmlns="http://www.w3.org/2000/svg"><path d="M90 4H10c-3.3 0-6 2.7-6 6v80c0 3.3 2.7 6 6 6h80c3.3 0 6-2.7 6-6V10c0-3.3-2.7-6-6-6zM16.5 21.5c1.6-1.6 3.8-2.5 6-2.5s4.4.9 6 2.5c1.6 1.6 2.5 3.7 2.5 6s-.9 4.5-2.6 6.1c-1.6 1.5-3.7 2.4-5.8 2.4h-.2c-2.1.1-4.3-.8-5.9-2.4-1.6-1.6-2.5-3.8-2.5-6.1s.9-4.4 2.5-6zM31 83.1c0 1.6-1.4 2.9-3 2.9H17c-1.6 0-3-1.4-3-3V47c0-1.7 1.3-3 2.9-3H28c1.6 0 3 1.4 3 3v36.1zm55 .9c0 1-1 2-2 2H71c-1 0-2-1-2-2V61.6c0-1.8-.4-3.2-1.4-4.1-1.1-1.1-2.6-1.8-4.2-1.7-3.3 0-7.5 2.8-7.5 5.9v22.6c0 1.1-1.1 1.8-2 1.8h-13c-.9 0-2-.7-2-1.8V45.9c0-1.1 1.1-1.9 2-1.9h12c1 0 2 1 2 2v1.5c2.7-2.8 8.1-4.5 12-4.5H69c7.9 0 17 6.2 17 14.2V84z"/></svg><svg data-name="Layer 2" viewBox="-10 0 64 32" id="pistols" xmlns="http://www.w3.org/2000/svg"><path d="M43.19 8.44H30.28a1.52 1.52 0 0 0-1.52 1.39h-.23a1 1 0 0 0-.26-.83 1.15 1.15 0 0 0-.77-.34h-.12v-.15a.5.5 0 0 0-.5-.5.5.5 0 0 0-.5.5v.2l-16.69.07-.31-.34A.52.52 0 0 0 9 8.28H7.6a.51.51 0 0 0-.47.33l-.45 1.23a.21.21 0 0 1 0 .06.5.5 0 1 0-.95.3l.1.34a2 2 0 0 0-.65 1.22l-.22 1.89a.5.5 0 0 0 .4.55l1.07.2a1.63 1.63 0 0 1 1 .64.72.72 0 0 1 .07.75l-.85 1.71a6.15 6.15 0 0 0-.54 1.77L5.73 22a1.2 1.2 0 0 0 .84 1.31l1.43.45a5.51 5.51 0 0 0 1.55.24H12a.5.5 0 0 0 .47-.33.52.52 0 0 0-.15-.56l-.26-.21.81-5.49 3.29.16h.1a2.1 2.1 0 0 0 2.1-2l.08-1.51a.29.29 0 0 0 0-.09l.07-.08a.69.69 0 0 1 .58-.33h4a1.68 1.68 0 0 0 1.4-.74.54.54 0 0 1 .42-.22H27a1.37 1.37 0 0 0 1.37-1.23l.05-.45h.34a1.52 1.52 0 0 0 1.52 1.39h12.91a1.54 1.54 0 0 0 1.54-1.53V10a1.53 1.53 0 0 0-1.54-1.56ZM11.05 23h-1.5a4.65 4.65 0 0 1-1.28-.18l-1.42-.42a.21.21 0 0 1-.13-.21l.38-2.77a5.51 5.51 0 0 1 .45-1.48l.83-1.72a1.71 1.71 0 0 0-.22-1.83 3.28 3.28 0 0 1 2.29-.74A1.65 1.65 0 0 1 12.27 15a3 3 0 0 0-.12.43Zm2.09-7.42a1.13 1.13 0 0 1 1.11-1h.08A2.44 2.44 0 0 0 15 16.5l-2-.09Zm3.08 1H16a.49.49 0 0 0-.12-.66 1.45 1.45 0 0 1-.5-1.28h2.09l-.05.93a1.12 1.12 0 0 1-1.2.99Zm11.32-6.84-.16 1.53a.38.38 0 0 1-.38.34h-2.08a1.51 1.51 0 0 0-1 .4h-10a.5.5 0 0 0 0 1h4a1.74 1.74 0 0 0-.31.36.5.5 0 0 1-.43.24h-3a2.08 2.08 0 0 0-1.27.44l-.14-.25a2.72 2.72 0 0 0-2.39-1.16 4.2 4.2 0 0 0-3 1.08 2.35 2.35 0 0 0-.85-.31L6 13.29l.17-1.43a.9.9 0 0 1 .48-.7l.28-.16a1.52 1.52 0 0 0 .69-.79L8 9.28h.8l.31.34a.52.52 0 0 0 .37.16l18.05-.07Zm16.08 1a.43.43 0 0 1-.43.43H30.28a.43.43 0 0 1-.43-.43V10a.43.43 0 0 1 .43-.43h12.91a.43.43 0 0 1 .43.43Z"/><path class="hcls-1" d="M10.18 10.6c-.13 0-1.46-.15-1.46-.15a.51.51 0 0 0-.55.44.5.5 0 0 0 .44.55l1.55.16a.5.5 0 0 0 .5-.48.52.52 0 0 0-.48-.52Z"/></svg><svg viewBox="0 10 160 12" style="enable-background:new 0 0 158 32" xml:space="preserve" id="sniper" xmlns="http://www.w3.org/2000/svg"><path d="M151 7.3h-18.1c-1 0-1.8.5-2.4 1.3h-71v-3h1.2l2.8.9H72.1c.6 0 1-.5 1-1V1c0-.6-.5-1-1-1h-8.6l-2.8.7h-8.1L50.9 0H47.2c-.6 0-1 .5-1 1v4.3c0 .6.5 1 1 1H50.9l2.1-.7h1.7v2.9h-9.5c-.6 0-1 .5-1 1v1.8c-2.7.3-5.2 1.5-7 3.5l-.8.6c-.1.1-.3.2-.5.3-3.1 1.2-4.6-.5-6.2-2.8-.7-1.1-1.3-1.9-2.2-1.9H5.8c-1.5 0-2.8 1.1-3 2.5L0 26.4c-.1.9.1 1.8.7 2.5S2.2 30 3.1 30h2.5c1.5 0 2.8-.8 3.6-2.1.4-.7 1.1-1.1 1.8-1.2l20.2-2.3c.9-.1 1.9.2 2.6.7l4 3c.5.4 1.2.6 1.9.5.7-.1 1.3-.5 1.7-1l3.7-5.4c1.2-.9 2.6-1.4 4-1.6h.1v.4c.4 1.8 2 3.1 3.8 3.1h1.6c1.3 0 2.6-.7 3.3-1.8l1.3-2.1h2.1v5.1c0 .3.1.6.4.8.2.2.4.3.7.3l11.3-1.2c.5-.1.9-.5.9-1v-4.6l39-1.5c1.8-.1 3.3-1.6 3.3-3.4v-1.3h13.5c.5.8 1.4 1.3 2.4 1.3h18.1c1.6 0 2.9-1.3 2.9-2.9v-1.6c0-1.6-1.3-2.9-2.8-2.9zM52.7 3.6h-.4l-2.1.7h-2.1V2.1h2.1l1.8.7h9.1l2.8-.8H71v2.5h-7l-2.8-.9h-8.5zm4 2h.8v2.9h-.8V5.6zm-10.4 5H130v.7h-13.5c-.2-.1-.3-.2-.5-.2H61.6c-.3 0-.6.2-.8.4l-2.1 2.6H54c.2-.2.3-.4.5-.7.3-.5.1-1.1-.4-1.4-.5-.3-1.1-.1-1.4.4-.4.7-.9 1.3-1.5 1.7h-.7l-1.6-2.5c-.2-.3-.5-.5-.9-.5h-1.7v-.5zM2.1 26.8 4.8 14c.1-.5.5-.9 1-.8h.4L2.9 27.9c-.2 0-.4-.1-.6-.3-.2-.2-.3-.5-.2-.8zm54.1-5.6c-.3.5-.9.9-1.6.8H53c-.9 0-1.6-.6-1.8-1.5l5.5-.2-.5.9zm16.5 2.1-9.2 1v-4.1l9.2-.4v3.5zm42.2-8.5c0 .7-.6 1.3-1.3 1.3l-64.7 2.5c-2 .2-3.8 1-5.4 2.2l-.1.2-3.8 5.4c-.1.1-.2.2-.3.2H39l-3.9-3c-1.2-.9-2.7-1.3-4.1-1.1l-20 2.2c-1.4.2-2.6 1-3.4 2.2-.4.6-1.1 1-1.8 1h-.7l3.3-14.8h19c.3.3.5.7.7 1 1.3 1.9 3.7 5.5 8.6 3.6.4-.2.7-.4 1-.6l.9-.7c1.7-1.8 4-2.9 6.5-3H47.5l1.2 1.9H48c-.5 0-1 .4-1 1v.6c0 .6.4 1.1 1 1.1.4 0 .8-.3 1-.7 1-.1 2-.5 2.9-1h7.5c.3 0 .6-.2.8-.4l2.1-2.6h52.8l-.2 1.5zm36.8-3c0 .5-.4.8-.8.8h-18c-.5 0-.8-.4-.8-.8v-1.6c0-.5.4-.8.8-.8H151c.5 0 .8.4.8.8l-.1 1.6z"/></svg><svg style="enable-background:new 0 0 100 100" viewBox="0 0 100 100" xml:space="preserve" id="twitter" xmlns="http://www.w3.org/2000/svg"><path d="M95.8 23.2c-.3-.3-.8-.4-1.2-.3-2.1.9-4.2 1.7-6.4 2.2 2.4-2.3 4.2-5.2 5.2-8.5.1-.4 0-.8-.3-1.1-.3-.3-.8-.3-1.1-.1-3.4 2.1-7 3.5-10.9 4.4-3.6-3.8-8.6-5.9-13.8-5.9-6 0-11.5 2.8-15.3 7.6-3.4 4.4-4.9 10.1-4 15.6-13.9-1-27-8-36-19.3-.2-.3-.5-.4-.9-.4-.3 0-.6.2-.8.5C8.7 21 7.8 24.5 7.8 28c0 5.5 2.2 10.6 5.9 14.3-1.6-.4-3.1-1-4.6-1.8-.3-.2-.7-.2-1 0-.3.2-.5.5-.5.9v.2c0 8 4.7 15.1 11.6 18.2-1.3 0-2.6-.1-3.9-.3-.3-.1-.7.1-.9.3-.2.3-.3.6-.2 1 2.3 7.2 8.3 12.4 15.5 13.6-5.9 4.1-13 6.3-20.2 6.3-1.4 0-2.9-.1-4.4-.3-.5-.1-.9.2-1.1.7-.2.4 0 .9.4 1.2C13.1 88 23 91 33.2 91h.1c33.5 0 53.5-27.9 53.5-54.9v-2c3.5-2.7 6.6-6 9-9.7.3-.4.3-.8 0-1.2z"/></svg><svg data-name="Layer 2" viewBox="0 0 64 32" id="unique" xmlns="http://www.w3.org/2000/svg"><path d="M56.94 11.64h-2.52v-3a.5.5 0 0 0-.5-.5h-1.06L52 6.59a.49.49 0 0 0-.44-.26h-1.5a.5.5 0 0 0-.5.5v1.34h-21.7l-.12-.33a.5.5 0 0 0-.47-.32h-2.94v-.13a.5.5 0 0 0-.46-.32h-1.36a.51.51 0 0 0-.5.44v.34a.51.51 0 0 0-.44.27l-1.27 2.46h-5l-.55-.41a.53.53 0 0 0-.3-.09H8.16a.5.5 0 0 0-.35.14l-.36.36h-2a.87.87 0 0 0-.87.87v9.06a1.24 1.24 0 0 0 1.22 1.24h1.13a1.24 1.24 0 0 0 1.18-.9L9 16.38a1.15 1.15 0 0 1 1.12-.92h10.19a1.26 1.26 0 0 1 .44 1.54 28.85 28.85 0 0 0-1.35 5.11.51.51 0 0 0 .39.58l3 .64a.5.5 0 0 0 .59-.36l1.19-4.6h4.06a.37.37 0 0 0 .23-.05h1.23a.47.47 0 0 0 .43-.25l.09-.14a25.06 25.06 0 0 0 5.73 9.12.52.52 0 0 0 .35.14.51.51 0 0 0 .31-.09l3.42-3.25a.5.5 0 0 0 0-.68 24.47 24.47 0 0 1-4.74-7.71h11.59v3.73a1.15 1.15 0 0 0 1.15 1.15h1a1.16 1.16 0 0 0 1.15-1.15v-3.73h3.35a.5.5 0 0 0 .5-.5v-.69h2.52a.5.5 0 0 0 .5-.5v-1.63a.5.5 0 0 0-.5-.5Zm-3.52 0h-8.63V9.17h8.63Zm-2.15-4.31.45.84h-1.15v-.84ZM28.11 17.41h-1.42a.17.17 0 0 0 0-.07 8.58 8.58 0 0 1-.41-1.86h1.95Zm-2.85-1.95a9.57 9.57 0 0 0 .39 1.93h-.83v-.09a.49.49 0 0 0 0-.12v-1.72Zm24.16 3.88h-1a.15.15 0 0 1-.15-.15v-3.73h1.3v3.73a.15.15 0 0 1-.15.15Zm7-6.07h-2.5a.5.5 0 0 0-.5.5v.69h-3.35a.5.5 0 0 0-.13 0H35.1a.51.51 0 0 0-.39.19.49.49 0 0 0-.1.41c0 .14.72 3.46 4.82 8.39L36.7 26a23.53 23.53 0 0 1-5.43-9.36.53.53 0 0 0-.42-.39h-.11c-.28 0-.44.23-.94 1.09h-.68l.13-2.34a.47.47 0 0 0-.14-.37.48.48 0 0 0-.36-.16h-4.39a.51.51 0 0 0-.5.5v2.16l-1.33 5.15-2.06-.44a25.68 25.68 0 0 1 1.2-4.42 2.27 2.27 0 0 0-1-2.88.52.52 0 0 0-.25-.07H10.14A2.14 2.14 0 0 0 8 16.18l-.9 4.42a.22.22 0 0 1-.21.15H5.8a.24.24 0 0 1-.24-.24v-8.93h2.1a.47.47 0 0 0 .34-.15l.36-.35h5.86l.55.4a.54.54 0 0 0 .3.1h5.49a.49.49 0 0 0 .44-.27l1.27-2.46h.12a.51.51 0 0 0 .5-.44v-.34h.54l.05.13a.51.51 0 0 0 .46.32h2.94l.12.32a.49.49 0 0 0 .46.33h16.33v2.94a.5.5 0 0 0 .5.5h9.47a.41.41 0 0 0 .16 0h2.52Z"/><path class="kcls-1" d="M30.55 10.31h-6.7a.5.5 0 0 0-.5.5.5.5 0 0 0 .5.5h6.7a.51.51 0 0 0 .5-.5.5.5 0 0 0-.5-.5Z"/></svg></svg>