<svg width="190" height="100" viewBox="0 0 190 100" fill="none" xmlns="http://www.w3.org/2000/svg">
<g clip-path="url(#clip0_194_164)">
<path d="M9.97266 73.958V83.4873H14.7373C15.3903 83.4873 16.0046 83.3656 16.5801 83.1221C17.1556 82.8675 17.6592 82.5244 18.0908 82.0928C18.5225 81.6611 18.86 81.1576 19.1035 80.582C19.3581 79.9954 19.4854 79.3757 19.4854 78.7227C19.4854 78.0697 19.3581 77.4554 19.1035 76.8799C18.86 76.2933 18.5225 75.7842 18.0908 75.3525C17.6592 74.9209 17.1556 74.5833 16.5801 74.3398C16.0046 74.0853 15.3903 73.958 14.7373 73.958H9.97266ZM9.97266 93H5.20801V69.1934H14.7373C15.6117 69.1934 16.4528 69.3096 17.2607 69.542C18.0687 69.7633 18.8213 70.0843 19.5186 70.5049C20.2269 70.9144 20.8688 71.4124 21.4443 71.999C22.0309 72.5745 22.529 73.2165 22.9385 73.9248C23.359 74.6331 23.68 75.3913 23.9014 76.1992C24.1338 77.0072 24.25 77.8483 24.25 78.7227C24.25 80.0286 24.001 81.2627 23.5029 82.4248C23.0049 83.5758 22.3242 84.583 21.4609 85.4463C20.5977 86.3096 19.585 86.9902 18.4229 87.4883C17.2718 87.9863 16.0433 88.2354 14.7373 88.2354H9.97266V93ZM43.7236 93H27.0557V69.1934H31.8203V88.2354H43.7236V93ZM60.2256 83.4873V78.7227C60.2256 78.0697 60.0983 77.4554 59.8438 76.8799C59.6003 76.2933 59.2627 75.7842 58.8311 75.3525C58.3994 74.9209 57.8903 74.5833 57.3037 74.3398C56.7282 74.0853 56.1139 73.958 55.4609 73.958C54.8079 73.958 54.1882 74.0853 53.6016 74.3398C53.026 74.5833 52.5225 74.9209 52.0908 75.3525C51.6592 75.7842 51.3161 76.2933 51.0615 76.8799C50.818 77.4554 50.6963 78.0697 50.6963 78.7227V83.4873H60.2256ZM64.9902 93H60.2256V88.2354H50.6963V93H45.9482V78.7227C45.9482 77.4056 46.1973 76.1715 46.6953 75.0205C47.1934 73.8584 47.8685 72.8457 48.7207 71.9824C49.584 71.1191 50.5911 70.4385 51.7422 69.9404C52.9043 69.4424 54.1439 69.1934 55.4609 69.1934C56.778 69.1934 58.012 69.4424 59.1631 69.9404C60.3252 70.4385 61.3379 71.1191 62.2012 71.9824C63.0645 72.8457 63.7451 73.8584 64.2432 75.0205C64.7412 76.1715 64.9902 77.4056 64.9902 78.7227V93ZM79.5664 93H74.8184V85.5459C73.7669 85.2803 72.7985 84.8542 71.9131 84.2676C71.0387 83.681 70.2861 82.9837 69.6553 82.1758C69.0244 81.3568 68.5319 80.4548 68.1777 79.4697C67.8346 78.4736 67.6631 77.4277 67.6631 76.332V69.1934H72.4277V76.332C72.4277 76.985 72.5495 77.6048 72.793 78.1914C73.0475 78.7669 73.3906 79.2705 73.8223 79.7021C74.2539 80.1338 74.7575 80.4769 75.333 80.7314C75.9196 80.9749 76.5394 81.0967 77.1924 81.0967C77.8454 81.0967 78.4596 80.9749 79.0352 80.7314C79.6217 80.4769 80.1309 80.1338 80.5625 79.7021C80.9941 79.2705 81.3317 78.7669 81.5752 78.1914C81.8298 77.6048 81.957 76.985 81.957 76.332V69.1934H86.7051V76.332C86.7051 77.4277 86.528 78.4736 86.1738 79.4697C85.8307 80.4548 85.3438 81.3568 84.7129 82.1758C84.082 82.9837 83.3294 83.681 82.4551 84.2676C81.5807 84.8542 80.6178 85.2803 79.5664 85.5459V93ZM99.9365 93H95.1885V73.958H88.0332V69.1934H107.075V73.958H99.9365V93ZM132.16 81.1963C132.16 82.3252 132.011 83.4154 131.712 84.4668C131.424 85.5072 131.015 86.4867 130.483 87.4053C129.952 88.3128 129.31 89.1429 128.558 89.8955C127.805 90.6481 126.975 91.2956 126.067 91.8379C125.16 92.3691 124.18 92.7786 123.129 93.0664C122.077 93.3652 120.987 93.5146 119.858 93.5146C118.729 93.5146 117.639 93.3652 116.588 93.0664C115.548 92.7786 114.568 92.3691 113.649 91.8379C112.742 91.2956 111.912 90.6481 111.159 89.8955C110.407 89.1429 109.759 88.3128 109.217 87.4053C108.686 86.4867 108.271 85.5072 107.972 84.4668C107.684 83.4154 107.54 82.3252 107.54 81.1963C107.54 80.0674 107.684 78.9772 107.972 77.9258C108.271 76.8743 108.686 75.8949 109.217 74.9873C109.759 74.0798 110.407 73.2497 111.159 72.4971C111.912 71.7445 112.742 71.1025 113.649 70.5713C114.568 70.04 115.548 69.6305 116.588 69.3428C117.639 69.0439 118.729 68.8945 119.858 68.8945C120.987 68.8945 122.077 69.0439 123.129 69.3428C124.18 69.6305 125.16 70.04 126.067 70.5713C126.975 71.1025 127.805 71.7445 128.558 72.4971C129.31 73.2497 129.952 74.0798 130.483 74.9873C131.015 75.8949 131.424 76.8743 131.712 77.9258C132.011 78.9772 132.16 80.0674 132.16 81.1963ZM127.429 81.1963C127.429 80.1559 127.229 79.1764 126.831 78.2578C126.433 77.3281 125.89 76.5257 125.204 75.8506C124.529 75.1644 123.727 74.6221 122.797 74.2236C121.878 73.8252 120.899 73.626 119.858 73.626C118.807 73.626 117.822 73.8252 116.903 74.2236C115.985 74.6221 115.182 75.1644 114.496 75.8506C113.81 76.5257 113.268 77.3281 112.869 78.2578C112.471 79.1764 112.271 80.1559 112.271 81.1963C112.271 82.2367 112.471 83.2161 112.869 84.1348C113.268 85.0423 113.81 85.8392 114.496 86.5254C115.182 87.2116 115.985 87.7539 116.903 88.1523C117.822 88.5508 118.807 88.75 119.858 88.75C120.899 88.75 121.878 88.5508 122.797 88.1523C123.727 87.7539 124.529 87.2116 125.204 86.5254C125.89 85.8392 126.433 85.0423 126.831 84.1348C127.229 83.2161 127.429 82.2367 127.429 81.1963ZM154.34 93H149.243L140.062 77.3281V93H135.298V69.1934H140.395L149.575 84.8818V69.1934H154.34V93ZM163.537 93H158.772V69.1934H163.537V93ZM184.289 93H167.97V69.1934H184.289V73.958H172.734V78.7227H180.554V83.4873H172.734V88.2354H184.289V93Z" fill="url(#paint0_linear_194_164)"/>
<mask id="mask0_194_164" style="mask-type:luminance" maskUnits="userSpaceOnUse" x="69" y="7" width="52" height="52">
<path d="M121 7H69V59H121V7Z" fill="white"/>
</mask>
<g mask="url(#mask0_194_164)">
<path d="M111.473 21.6596C112.367 21.42 113.157 20.8931 113.722 20.1601C114.287 19.4271 114.595 18.5286 114.599 17.6032V17.5922C114.599 16.4799 114.158 15.4132 113.371 14.6267C112.584 13.8403 111.518 13.3984 110.406 13.3984H110.395C109.469 13.4025 108.571 13.7107 107.838 14.2757C107.105 14.8406 106.579 15.6309 106.339 16.5247C105.654 19.0065 104.174 21.1949 102.125 22.7545C100.077 24.3141 97.5733 25.1586 94.9987 25.1586C92.4242 25.1586 89.9207 24.3141 87.8722 22.7545C85.8238 21.1949 84.3435 19.0065 83.6584 16.5247C83.4187 15.631 82.8918 14.8408 82.1588 14.276C81.4259 13.7112 80.5275 13.4031 79.6022 13.3991H79.5912C78.479 13.3991 77.4122 13.841 76.6258 14.6275C75.8393 15.4139 75.3975 16.4806 75.3975 17.5929V17.6039C75.4016 18.5292 75.7098 19.4275 76.2747 20.1604C76.8397 20.8933 77.63 21.4201 78.5238 21.6596C81.0055 22.3447 83.194 23.825 84.7535 25.8735C86.3131 27.9219 87.1576 30.4254 87.1576 32.9999C87.1576 35.5745 86.3131 38.0779 84.7535 40.1265C83.194 42.175 81.0055 43.6552 78.5238 44.3403C77.63 44.5799 76.8398 45.1066 76.2749 45.8395C75.71 46.5723 75.4018 47.4706 75.3977 48.3958V48.4068C75.3977 49.5192 75.8395 50.5857 76.626 51.3723C77.4125 52.1588 78.4792 52.6005 79.5914 52.6005H79.6024C80.5278 52.5965 81.4261 52.2881 82.159 51.7233C82.8918 51.1582 83.4186 50.3681 83.6581 49.4742C84.3433 46.9926 85.8236 44.8041 87.872 43.2446C89.9205 41.6848 92.424 40.8404 94.9985 40.8404C97.5731 40.8404 100.076 41.6848 102.125 43.2446C104.173 44.8041 105.654 46.9926 106.339 49.4742C106.578 50.3681 107.105 51.1585 107.838 51.7235C108.571 52.2884 109.469 52.5968 110.395 52.6008H110.406C111.518 52.6008 112.585 52.1588 113.371 51.3723C114.158 50.5859 114.6 49.5192 114.6 48.407V48.3958C114.596 47.4704 114.287 46.5721 113.722 45.8392C113.157 45.1064 112.367 44.5797 111.473 44.3401C108.992 43.655 106.803 42.1748 105.244 40.1262C103.684 38.0777 102.839 35.5743 102.839 32.9997C102.839 30.4251 103.684 27.9217 105.244 25.8732C106.803 23.8248 108.992 22.3445 111.473 21.6593L111.473 21.6596Z" fill="url(#paint1_linear_194_164)"/>
<path d="M74.4845 9.48218C74.6193 9.61635 74.7927 9.70515 74.9804 9.73622C75.1681 9.7673 75.3608 9.7391 75.5318 9.65557C77.0915 8.90234 78.8464 8.65147 80.5546 8.93754C82.2629 9.2236 83.8403 10.0325 85.0695 11.2528C85.239 11.4235 85.468 11.522 85.7085 11.5275C85.9489 11.533 86.1822 11.4451 86.3593 11.2822C86.4472 11.1983 86.5176 11.0976 86.5661 10.986C86.6146 10.8745 86.6403 10.7544 86.6417 10.6327C86.6431 10.5111 86.6202 10.3904 86.5743 10.2778C86.5284 10.1652 86.4605 10.0628 86.3745 9.97683C84.8755 8.48157 82.9484 7.48987 80.8604 7.13931C78.7724 6.78876 76.627 7.09672 74.7219 8.02048C74.5922 8.08479 74.4797 8.17911 74.3938 8.2956C74.3078 8.41209 74.2508 8.54741 74.2276 8.69031C74.2044 8.83322 74.2156 8.9796 74.2602 9.11731C74.3049 9.25503 74.3818 9.38012 74.4845 9.48218Z" fill="url(#paint2_linear_194_164)"/>
<path d="M70.0225 12.7162C69.0999 14.6152 68.7893 16.7536 69.1336 18.8366C69.4779 20.9195 70.4601 22.8443 71.9447 24.3453C72.1009 24.5094 72.3111 24.6114 72.5366 24.6324C72.7621 24.6534 72.9875 24.5921 73.1713 24.4598C73.2754 24.3811 73.3614 24.281 73.4236 24.1663C73.4857 24.0516 73.5226 23.9248 73.5315 23.7946C73.5406 23.6645 73.5215 23.5339 73.4758 23.4117C73.43 23.2895 73.3586 23.1785 73.2663 23.0863C72.0398 21.8568 71.226 20.2763 70.9377 18.5638C70.6494 16.8512 70.9008 15.0914 71.6572 13.5282C71.7413 13.357 71.77 13.1639 71.7392 12.9757C71.7083 12.7875 71.6196 12.6136 71.4852 12.4783C71.383 12.3755 71.2579 12.2986 71.12 12.2539C70.9822 12.2092 70.8357 12.198 70.6927 12.2213C70.5497 12.2446 70.4143 12.3016 70.2978 12.3877C70.1812 12.4737 70.0869 12.5864 70.0225 12.7162Z" fill="url(#paint3_linear_194_164)"/>
<path d="M114.467 56.344C112.907 57.0975 111.152 57.3483 109.443 57.0617C107.734 56.7753 106.157 55.9657 104.928 54.7447C104.758 54.5749 104.53 54.4768 104.291 54.4714C104.051 54.4658 103.818 54.5533 103.642 54.7155C103.553 54.7993 103.483 54.9001 103.434 55.0117C103.385 55.1233 103.359 55.2436 103.358 55.3655C103.356 55.4874 103.379 55.6084 103.425 55.7212C103.471 55.8342 103.539 55.9367 103.625 56.0228C105.124 57.518 107.051 58.5096 109.139 58.8603C111.227 59.2108 113.372 58.9029 115.277 57.9791C115.407 57.9148 115.519 57.8205 115.606 57.704C115.691 57.5874 115.748 57.4522 115.771 57.3092C115.795 57.1663 115.783 57.0198 115.739 56.8822C115.694 56.7444 115.617 56.6194 115.514 56.5174C115.379 56.3834 115.206 56.2947 115.018 56.2636C114.831 56.2324 114.638 56.2605 114.467 56.344Z" fill="url(#paint4_linear_194_164)"/>
<path d="M116.715 41.641C116.553 41.8177 116.465 42.05 116.471 42.2899C116.476 42.5295 116.574 42.7579 116.744 42.9268C117.966 44.1569 118.776 45.736 119.062 47.446C119.348 49.1562 119.095 50.9128 118.34 52.4734C118.256 52.6445 118.228 52.8373 118.259 53.0252C118.29 53.2131 118.379 53.3867 118.513 53.5217C118.615 53.6244 118.74 53.7012 118.878 53.7461C119.015 53.7908 119.161 53.802 119.304 53.7789C119.447 53.7557 119.583 53.6991 119.699 53.6132C119.815 53.5273 119.91 53.415 119.974 53.2854C120.901 51.3798 121.211 49.233 120.861 47.1432C120.512 45.0533 119.52 43.1243 118.023 41.624C117.937 41.5376 117.835 41.4695 117.722 41.4234C117.609 41.3773 117.488 41.3544 117.366 41.356C117.244 41.3577 117.123 41.3837 117.011 41.4328C116.9 41.4817 116.799 41.5524 116.715 41.641Z" fill="url(#paint5_linear_194_164)"/>
<path d="M118.342 13.5291C119.096 15.0895 119.348 16.8457 119.062 18.5551C118.775 20.2646 117.966 21.8431 116.744 23.0727C116.574 23.2418 116.476 23.47 116.471 23.7096C116.465 23.9492 116.553 24.1817 116.715 24.3583C116.799 24.4467 116.9 24.5174 117.011 24.5663C117.123 24.6151 117.243 24.6411 117.365 24.6427C117.487 24.6443 117.608 24.6215 117.721 24.5756C117.833 24.5298 117.936 24.4617 118.022 24.3756C119.518 22.8759 120.51 20.9477 120.86 18.8587C121.211 16.7697 120.902 14.6234 119.977 12.7179C119.912 12.5883 119.818 12.4758 119.701 12.39C119.585 12.3041 119.449 12.2472 119.306 12.2241C119.164 12.201 119.017 12.2122 118.88 12.257C118.742 12.3017 118.617 12.3786 118.515 12.4813C118.381 12.6163 118.292 12.7898 118.261 12.9776C118.23 13.1654 118.258 13.3581 118.342 13.5291Z" fill="url(#paint6_linear_194_164)"/>
<path d="M104.927 11.2546C106.156 10.0331 107.735 9.2233 109.444 8.93713C111.154 8.65095 112.91 8.90248 114.47 9.65697C114.641 9.74072 114.834 9.76905 115.022 9.73805C115.21 9.70707 115.383 9.61827 115.518 9.48406C115.621 9.38206 115.698 9.25704 115.742 9.11936C115.787 8.98169 115.798 8.83534 115.775 8.69244C115.752 8.54954 115.695 8.41421 115.609 8.29768C115.524 8.18115 115.411 8.08676 115.281 8.02236C113.376 7.09715 111.23 6.7882 109.141 7.13841C107.052 7.48861 105.123 8.48059 103.624 9.9766C103.538 10.0628 103.47 10.1653 103.424 10.2782C103.378 10.3911 103.355 10.512 103.357 10.6338C103.358 10.7557 103.384 10.876 103.433 10.9876C103.482 11.0993 103.552 11.2 103.641 11.2839C103.817 11.4459 104.05 11.5334 104.29 11.5279C104.529 11.5225 104.757 11.4246 104.927 11.2546Z" fill="url(#paint7_linear_194_164)"/>
<path d="M85.0722 54.745C83.8426 55.9664 82.2641 56.7762 80.5546 57.0624C78.8452 57.3485 77.089 57.097 75.5286 56.3424C75.3577 56.2588 75.1649 56.2305 74.9771 56.2614C74.7893 56.2925 74.6158 56.3815 74.4808 56.5155C74.3782 56.6175 74.3012 56.7425 74.2565 56.8803C74.2118 57.0179 74.2005 57.1644 74.2236 57.3071C74.2467 57.4501 74.3036 57.5853 74.3895 57.7018C74.4753 57.8184 74.5878 57.9129 74.7174 57.9772C76.6229 58.9024 78.7692 59.2113 80.8582 58.861C82.9473 58.511 84.8755 57.5189 86.3751 56.023C86.4612 55.9369 86.5293 55.8342 86.5752 55.7214C86.621 55.6086 86.6438 55.4876 86.6422 55.3657C86.6406 55.2438 86.6146 55.1235 86.5658 55.0119C86.5169 54.9003 86.4462 54.7995 86.3578 54.7157C86.1812 54.5536 85.9488 54.466 85.7091 54.4714C85.4695 54.477 85.2412 54.5748 85.0722 54.745Z" fill="url(#paint8_linear_194_164)"/>
<path d="M71.6572 52.4707C70.9026 50.9102 70.651 49.1541 70.9372 47.4446C71.2233 45.7351 72.0331 44.1567 73.2546 42.9271C73.4245 42.7579 73.5225 42.5298 73.5279 42.2902C73.5334 42.0503 73.4459 41.818 73.2839 41.6413C73.2 41.5529 73.0993 41.4822 72.9876 41.4333C72.876 41.3846 72.7557 41.3587 72.6339 41.357C72.512 41.3554 72.3911 41.3783 72.2782 41.4242C72.1653 41.47 72.0628 41.5381 71.9766 41.6242C70.4806 43.1238 69.4886 45.0521 69.1384 47.1412C68.7882 49.2302 69.0972 51.3763 70.0224 53.2819C70.0868 53.4115 70.1811 53.5241 70.2977 53.61C70.4142 53.6958 70.5495 53.7527 70.6924 53.7756C70.8353 53.7988 70.9817 53.7876 71.1194 53.7429C71.257 53.6982 71.3821 53.6212 71.4841 53.5185C71.6183 53.3835 71.707 53.2101 71.7381 53.0222C71.7691 52.8345 71.7408 52.6417 71.6572 52.4707Z" fill="url(#paint9_linear_194_164)"/>
</g>
</g>
<defs>
<linearGradient id="paint0_linear_194_164" x1="94.5" y1="60" x2="94.5" y2="102" gradientUnits="userSpaceOnUse">
<stop stop-color="#2BC4D2"/>
<stop offset="1" stop-color="#4052DD"/>
</linearGradient>
<linearGradient id="paint1_linear_194_164" x1="94.9985" y1="56.1681" x2="94.9985" y2="25.5904" gradientUnits="userSpaceOnUse">
<stop offset="0.005" stop-color="#3F51DC"/>
<stop offset="1" stop-color="#2AC3D1"/>
</linearGradient>
<linearGradient id="paint2_linear_194_164" x1="80.4288" y1="56.1807" x2="80.4288" y2="25.5953" gradientUnits="userSpaceOnUse">
<stop offset="0.005" stop-color="#3F51DC"/>
<stop offset="1" stop-color="#2AC3D1"/>
</linearGradient>
<linearGradient id="paint3_linear_194_164" x1="71.2654" y1="56.1638" x2="71.2654" y2="25.5933" gradientUnits="userSpaceOnUse">
<stop offset="0.005" stop-color="#3F51DC"/>
<stop offset="1" stop-color="#2AC3D1"/>
</linearGradient>
<linearGradient id="paint4_linear_194_164" x1="109.57" y1="56.1653" x2="109.57" y2="25.5839" gradientUnits="userSpaceOnUse">
<stop offset="0.005" stop-color="#3F51DC"/>
<stop offset="1" stop-color="#2AC3D1"/>
</linearGradient>
<linearGradient id="paint5_linear_194_164" x1="118.736" y1="56.1655" x2="118.736" y2="25.589" gradientUnits="userSpaceOnUse">
<stop offset="0.005" stop-color="#3F51DC"/>
<stop offset="1" stop-color="#2AC3D1"/>
</linearGradient>
<linearGradient id="paint6_linear_194_164" x1="118.736" y1="56.1664" x2="118.736" y2="25.5875" gradientUnits="userSpaceOnUse">
<stop offset="0.005" stop-color="#3F51DC"/>
<stop offset="1" stop-color="#2AC3D1"/>
</linearGradient>
<linearGradient id="paint7_linear_194_164" x1="109.572" y1="56.1817" x2="109.572" y2="25.5942" gradientUnits="userSpaceOnUse">
<stop offset="0.005" stop-color="#3F51DC"/>
<stop offset="1" stop-color="#2AC3D1"/>
</linearGradient>
<linearGradient id="paint8_linear_194_164" x1="80.4271" y1="56.1655" x2="80.4271" y2="25.5822" gradientUnits="userSpaceOnUse">
<stop offset="0.005" stop-color="#3F51DC"/>
<stop offset="1" stop-color="#2AC3D1"/>
</linearGradient>
<linearGradient id="paint9_linear_194_164" x1="71.2631" y1="56.1616" x2="71.2631" y2="25.595" gradientUnits="userSpaceOnUse">
<stop offset="0.005" stop-color="#3F51DC"/>
<stop offset="1" stop-color="#2AC3D1"/>
</linearGradient>
<clipPath id="clip0_194_164">
<rect width="190" height="100" fill="white"/>
</clipPath>
</defs>
</svg>
