<svg width="15" height="16" viewBox="0 0 15 16" fill="none" xmlns="http://www.w3.org/2000/svg">
<path fill-rule="evenodd" clip-rule="evenodd" d="M7.12969 0.875C8.74954 0.875 10.3223 1.36247 11.5623 2.24772V2.24768C13.1822 3.40336 14.1349 5.04659 14.2502 6.87352C14.3605 8.67723 13.6042 10.4419 12.1759 11.7149L7.44115 15.8793C7.25775 16.0413 6.93964 16.0399 6.75623 15.8779L2.08841 11.7179C0.656856 10.4421 -0.101126 8.67589 0.0108655 6.87355C0.124465 5.04669 1.07885 3.40347 2.69704 2.24772C3.93547 1.36247 5.50987 0.875 7.12969 0.875ZM3.94843 7.22526C3.94843 8.7889 5.37508 10.0604 7.12964 10.0604C8.88417 10.0604 10.3125 8.78894 10.3109 7.22526C10.3109 5.66161 8.88421 4.39014 7.12964 4.39014C5.37512 4.39014 3.94843 5.66158 3.94843 7.22526Z" fill="white"/>
<path d="M7.12967 5.84338C6.27431 5.84338 5.57962 6.46249 5.57962 7.2248C5.57962 7.98711 6.27431 8.60622 7.12967 8.60622C7.98504 8.60622 8.67973 7.98711 8.67973 7.2248C8.67973 6.46249 7.98504 5.84338 7.12967 5.84338Z" fill="white"/>
</svg>
