<svg width="240" height="65" fill="none" xmlns="http://www.w3.org/2000/svg"><path d="M20 0c4.038 2.048 4.517 5.313 1.118 8.334-5.813 5.167-7.71 12.11-8.635 19.484-.303 2.425-.393 4.884-.145 7.581 2.82-1.627 5.212-3.463 7.118-5.931 1.712-2.215 3.534-2.47 5.334-.789 1.8 1.68 1.694 3.515-.613 5.367-3.127 2.508-6.352 4.893-9.623 7.2-1.31.922-1.637 1.864-1.213 3.386 1.57 5.639 2.481 11.509 6.013 16.432.828 1.153.333 2.315-.626 3.185-1.083.979-2.265 1.018-3.385.017-1.734-1.547-2.986-3.465-4.054-5.517-1.699-3.252-2.87-6.723-3.733-10.263-.482-1.978-1.001-2.604-2.841-1.344-1.557 1.066-3.189 1.161-4.57-.467L0 45.25c1.052-1.784 2.535-3.168 4.2-4.312 1.203-.824 1.451-1.765 1.292-3.189-.732-6.513-.418-12.986 1.29-19.317C8.72 11.19 12.214 4.905 18.125.19L20 0z" fill="#3E5295"/><path d="M142.899 48.293c.577 1.326-.12 2.02-1.22 2.34-1.414.414-2.443-.383-2.704-1.607-.343-1.623-.648-2.933-2.39-3.829-1.187-.606-.778-2.145.322-2.705 3.622-1.837 3.65-5.267 4.257-8.508 1.223-6.56 1.657-13.145.788-19.773-.232-1.755.615-2.677 2.119-3.151 1.741-.55 3.156.036 4.046 1.574 3.405 5.878 6.765 11.785 10.143 17.675.647 1.13 1.032 2.449 2.479 2.974.513.188.949.785.857 1.311-.397 2.268 1.047 3.852 2.143 5.465 2.062 3.036 3.273 6.546 5.653 9.409 1.13 1.359.824 2.99-.535 4.207-1.557 1.392-3.292 1.475-4.944.203-1.392-1.072-2.268-2.57-3.088-4.097-1.549-2.89-3.185-5.736-4.689-8.65-.606-1.176-1.331-1.23-2.484-.89-2.655.783-5.277 1.634-7.811 2.748-2.214.978-3.332 2.99-2.942 5.304zm2.18-10.583c2.483-.958 4.511-1.745 6.548-2.52.548-.21 1.063-.379.655-1.136-1.631-3.036-3.241-6.076-4.859-9.117-.609 4.274-1.48 8.285-2.344 12.773z" fill="#00A7E4"/><path d="M129.154 28.036c8.166 2.145 10.003 7.522 4.94 14.11-3.77 4.906-8.894 7.797-14.721 9.433-1.752.492-3.556.41-5.225-.513-1.09-.601-1.848-1.47-1.853-2.816-.001-1.35.627-2.348 1.905-2.641 1.159-.267.975-.953.84-1.77-.925-5.637-1.859-11.27-2.724-16.916-.193-1.25-.768-.968-1.401-.538-.963.66-1.89 1.38-2.813 2.106-.673.532-1.412.854-2.095.184-.771-.756-.183-1.447.332-2.057a16.795 16.795 0 013.891-3.365c3.381-2.129 6.944-3.854 10.808-4.87 2.937-.771 5.799-.764 7.972 1.774 2.109 2.459 1.447 5.162.144 7.879zm-8.55 9.432c.308 1.235.778 3.067 1.209 4.907.169.712.475.936 1.137.562 2.736-1.53 5.275-3.276 6.705-6.256.651-1.353.513-2.232-1.24-2.372-2.526-.201-4.909.309-7.238 1.218-.634.249-1.143.534-.573 1.941zm.665-15.27c-.654.156-1.489.31-2.296.56-.772.235-1.729.258-1.758 1.482-.04 1.839-.108 4.176 1.114 5.116 1.072.822 2.484-1.229 3.685-2.1.494-.357.916-.843 1.306-1.325.726-.887 1.82-1.807 1.256-3.043-.624-1.367-2.013-.728-3.307-.69z" fill="#804B8F"/><path d="M45.86 31.201c-.402 3.603-1.256 7.105-1.373 10.79-.143 4.57.402 9.12.184 13.671a19.591 19.591 0 01-.228 2.177c-.27 1.665-1.297 2.586-2.786 2.715-1.492.13-2.632-.608-3.244-2.18-.964-2.482-1.259-5.13-1.708-8.413-1.294 2.095-2.248 3.7-3.256 5.264-1.377 2.14-2.796 4.25-5.118 5.346-2.856 1.346-5.407.064-5.382-3.246.05-6.818.248-13.694 2.908-20.059.332-.797.88-1.511 1.427-2.169 1.037-1.248 2.32-1.557 3.656-.542 1.411 1.072 1.312 2.383.442 3.829-1.754 2.923-1.582 6.299-1.974 10.202 2.109-2.292 3.4-4.451 4.672-6.602 1.94-3.278 3.825-6.587 4.999-10.318 1.216-3.871 3.388-4.525 6.603-2.11l.178 1.645z" fill="#DB5290"/><path d="M212.016 43.3c-1.113.056-2.177-.113-2.923-.847-1.026-1.014-2.259-1.691-3.384-2.54-1.812-1.365-2.105-3.245-.554-4.898.929-.991.61-1.845.415-2.817-.956-4.763-1.978-9.511-2.873-14.284a19.813 19.813 0 01-.307-4.516c.096-2.192 1.576-3.701 3.508-3.789 1.552-.07 2.735.9 2.189 2.287-.872 2.212.013 4.091.468 6.02 1.095 4.648 2.478 9.223 3.613 13.859.432 1.77 1.115 2.381 2.928 1.809 6.638-2.088 13.75-2.202 20.252-4.963 1.85-.786 3.969.225 4.495 1.959.617 2.032-.681 3.37-2.182 4.278-2.794 1.691-5.976 2.336-9.145 2.808-3.878.575-7.659 1.599-11.496 2.341-.914.177-1.532.506-1.973 1.402-.611 1.225-1.807 1.682-3.031 1.89z" fill="#D93B3B"/><path d="M83.284 27.1c-5.183 2.188-10.073 4.948-14.767 8.091-.745.5-1.651 1.489-2.396.2-.636-1.106.56-1.533 1.204-2.002 5.036-3.664 10.433-6.637 16.148-9.005.947-.391 1.892-.793 2.803-1.26.783-.4 1.521-.935 2.388-.213.862.72.985 1.744.732 2.691-.352 1.328-1.008 2.568-1.416 3.884-1.912 6.156-4.601 11.944-7.566 17.713 1.095.282 1.983-.11 2.907-.478 2.93-1.168 5.818-2.483 8.94-3.069 2.112-.394 3.522.46 4.252 2.557.74 2.129.13 4.477-1.81 5.22-5.808 2.227-11.528 4.855-17.785 5.554-3.326.373-4.88-1.558-4.13-4.94.912-4.117 2.823-7.774 4.835-11.384 2.36-4.235 4.771-8.443 6.294-13.116.14-.233.551-.473.154-.732-.147-.086-.517.186-.787.289z" fill="#E88F25"/><path d="M174.936 46.072c-1.178.154-2.3-.077-3.146-.878-.88-.836-1.879-1.45-2.885-2.1-2.176-1.412-2.511-3.197-.761-5.158.862-.967.45-1.745.276-2.618-.94-4.67-1.957-9.324-2.845-14.002-.267-1.39-.338-2.849-.271-4.266.096-2.094 1.322-3.412 3.429-3.68 1.576-.202 2.722.743 2.256 2.232-.628 2.008-.066 3.745.417 5.56 1.263 4.755 2.61 9.491 3.816 14.263.338 1.345 1.005 1.682 2.219 1.318 6.541-1.954 13.505-2.125 19.904-4.676.224-.089.443-.191.673-.256 1.884-.512 3.639-.348 4.539 1.575.931 1.986-.298 3.374-1.879 4.358-2.275 1.417-4.882 2.013-7.485 2.542-3.62.733-7.255 1.401-10.88 2.124-1.918.383-3.912.54-5.042 2.588-.401.739-1.425.982-2.335 1.074z" fill="#A73E88"/><path d="M46.005 32.515l-.172-1.577c1.368-3.037 4.402-3.705 7.17-4.659 1.253-.433 2.196-.817 2.881-2.13.739-1.417 2.175-2.466 3.958-1.211.586.411.982.344 1.493.055 2.427-1.355 5.063-2.388 7.018-4.455 1.19-1.254 2.677-1.364 4.209-.79 1.04.389 1.732 1.18 1.697 2.325-.047 1.574-1.212 2.208-2.527 2.794-3.284 1.466-6.497 3.087-9.796 4.513-1.171.507-1.304 1.074-.992 2.155 1.647 5.704 3.116 11.456 6.185 16.659.671 1.137 1.123 2.407 1.62 3.634.818 2.027-.087 3.338-1.996 4.091-1.993.786-4.461.081-4.94-1.633-1.214-4.366-3.858-8.207-4.71-12.703-.482-2.53-1.33-5.01-1.395-7.59-.053-2.07-.93-2.328-2.633-1.627-1.082.447-2.244.585-3.087 1.636-1.053 1.312-2.57.957-3.983.513z" fill="#C13640"/><path d="M104.76 34.243c.481 2.805 1.04 6.245 2.246 9.573a8.34 8.34 0 01.472 3.507c-.164 1.841-1.571 2.877-3.673 3.01-2.054.131-3.391-.87-3.657-2.526-.839-5.158-1.828-10.316-1.251-15.597.1-.945.283-1.895.544-2.822.41-1.444 1.301-2.595 3.24-2.376 1.94.215 1.5 1.687 1.623 2.815.137 1.26.262 2.52.456 4.416z" fill="#009F46"/><path d="M97.12 21.797c.11 1.628-1.112 2.959-2.775 3.021-1.64.063-2.98-1.21-3.128-2.96-.128-1.508 1.027-2.759 2.646-2.865 1.71-.115 3.143 1.123 3.257 2.805z" fill="#00A149"/></svg>