<?xml version="1.0" ?><svg viewBox="0 0 34 54" xmlns="http://www.w3.org/2000/svg" xmlns:xlink="http://www.w3.org/1999/xlink"><style>:root>svg{display:none}:root>svg:target{display:block}</style><svg viewBox="0 0 32 32" id="arrow" xmlns="http://www.w3.org/2000/svg"><path d="M22 9a1 1 0 000 1.42l4.6 4.6H3.06a1 1 0 100 2h23.52L22 21.59A1 1 0 0022 23a1 1 0 001.41 0l6.36-6.36a.88.88 0 000-1.27L23.42 9A1 1 0 0022 9z" data-name="Layer 2"/></svg><svg fill="none" viewBox="0 0 34 54" id="arrow-left" xmlns="http://www.w3.org/2000/svg"><path fill-rule="evenodd" clip-rule="evenodd" d="M1.848 21.691l.954-.808.122-.109c.215-.193.445-.383.68-.57l22.41-18.987a4.379 4.379 0 016.165.106l.597.616a4.317 4.317 0 01-.107 6.128l-15.66 18.69 13.946 19.435a4.317 4.317 0 01-.323 6.122l-.64.573a4.377 4.377 0 01-6.156-.321L2.792 31.289c-.088-.076-.182-.149-.262-.231l-.83-.855a5.996 5.996 0 01.148-8.512z" fill="#CDF2FF"/></svg><svg fill="none" viewBox="0 0 34 54" id="arrow-right" xmlns="http://www.w3.org/2000/svg"><path fill-rule="evenodd" clip-rule="evenodd" d="M32.152 21.691l-.954-.808-.122-.109a15.316 15.316 0 00-.68-.57L7.987 1.217a4.379 4.379 0 00-6.165.106l-.597.616a4.317 4.317 0 00.107 6.128l15.66 18.69L3.046 46.191a4.317 4.317 0 00.323 6.122l.64.573a4.377 4.377 0 006.156-.321l21.044-21.277c.088-.076.182-.149.262-.231l.83-.855a5.996 5.996 0 00-.148-8.512z" fill="#CDF2FF"/></svg></svg>