<?xml version="1.0" ?><!DOCTYPE svg  PUBLIC '-//W3C//DTD SVG 1.1//EN'  'http://www.w3.org/Graphics/SVG/1.1/DTD/svg11.dtd'><svg viewBox="0 0 1024 1024" xmlns="http://www.w3.org/2000/svg" xmlns:xlink="http://www.w3.org/1999/xlink"><style>:root>svg{display:none}:root>svg:target{display:block}</style><svg viewBox="0 0 96 96" id="arrow" xmlns="http://www.w3.org/2000/svg"><path d="M12 52h62.344L52.888 73.456a4 4 0 105.657 5.656l28.283-28.284c.186-.186.352-.391.498-.609.067-.101.114-.21.172-.315.066-.124.142-.242.195-.373.057-.135.089-.275.129-.415.033-.111.076-.217.099-.331.052-.26.079-.522.079-.785l-.001-.009a4.032 4.032 0 00-.078-.774c-.024-.12-.069-.231-.104-.349-.039-.133-.069-.268-.123-.397-.058-.139-.136-.265-.208-.396-.054-.098-.097-.198-.159-.292a3.94 3.94 0 00-.501-.614L58.544 16.888a4.001 4.001 0 00-5.657 5.657L74.343 44H12a4 4 0 000 8z"/></svg><svg viewBox="0 0 32 32" id="css" xmlns="http://www.w3.org/2000/svg"><path fill="#1572b6" d="M5.902 27.201L3.656 2h24.688l-2.249 25.197L15.985 30 5.902 27.201z"/><path fill="#33a9dc" d="M16 27.858l8.17-2.265 1.922-21.532H16v23.797z"/><path fill="#fff" d="M16 13.191h4.09l.282-3.165H16V6.935h7.75l-.074.829-.759 8.518H16v-3.091z"/><path fill="#ebebeb" d="M16.019 21.218l-.014.004-3.442-.93-.22-2.465H9.24l.433 4.853 6.331 1.758.015-.004v-3.216z"/><path fill="#fff" d="M19.827 16.151l-.372 4.139-3.447.93v3.216l6.336-1.756.047-.522.537-6.007h-3.101z"/><path fill="#ebebeb" d="M16.011 6.935v3.091H8.545l-.062-.695-.141-1.567-.074-.829h7.743zM16 13.191v3.091H12.601l-.062-.695-.14-1.567-.074-.829H16z"/></svg><svg viewBox="0 0 32 32" id="email" xmlns="http://www.w3.org/2000/svg"><g data-name="mail email e-mail letter"><path d="M28 13a1 1 0 00-1 1v8a1 1 0 01-1 1H6a1 1 0 01-1-1v-8a1 1 0 00-2 0v8a3 3 0 00.88 2.12A3 3 0 006 25h20a3 3 0 002.12-.88A3 3 0 0029 22v-8a1 1 0 00-1-1z"/><path d="M15.4 18.8a1 1 0 001.2 0l11.81-8.86a1 1 0 00.3-1.23 3.06 3.06 0 00-.59-.83A3 3 0 0026 7H6a3 3 0 00-2.12.88 3.06 3.06 0 00-.59.83 1 1 0 00.3 1.23zM6 9h20a.9.9 0 01.28 0L16 16.75 5.72 9A.9.9 0 016 9z"/></g></svg><svg fill="none" viewBox="0 0 48 48" id="figma" xmlns="http://www.w3.org/2000/svg"><path d="M0 24C0 10.745 10.745 0 24 0s24 10.745 24 24-10.745 24-24 24S0 37.255 0 24z" fill="#333"/><path d="M19.2 38.4a4.8 4.8 0 004.8-4.8v-4.8h-4.8a4.8 4.8 0 000 9.6z" fill="#0ACF83"/><path d="M14.4 24a4.8 4.8 0 014.8-4.8H24v9.6h-4.8a4.8 4.8 0 01-4.8-4.8z" fill="#A259FF"/><path d="M14.4 14.4a4.8 4.8 0 014.8-4.8H24v9.6h-4.8a4.8 4.8 0 01-4.8-4.8z" fill="#F24E1E"/><path d="M24 9.6h4.8a4.8 4.8 0 110 9.6H24V9.6z" fill="#FF7262"/><path d="M33.6 24a4.8 4.8 0 11-9.6 0 4.8 4.8 0 019.6 0z" fill="#1ABCFE"/></svg><svg viewBox="0 0 32 32" id="git" xmlns="http://www.w3.org/2000/svg"><path d="M16 3a13 13 0 00-3.46 25.53 1 1 0 10.53-1.92 11 11 0 117-.4 15.85 15.85 0 00-.3-3.92A6.27 6.27 0 0024.68 16a6.42 6.42 0 00-1.05-3.87 7.09 7.09 0 00-.4-3.36 1 1 0 00-1.1-.67 8 8 0 00-3.37 1.28A11.35 11.35 0 0016 9a13.09 13.09 0 00-3 .43 5.74 5.74 0 00-3.38-1.18 1 1 0 00-1 .66 7.06 7.06 0 00-.37 3.19A7.15 7.15 0 007.2 16a6.66 6.66 0 005 6.28 7.43 7.43 0 00-.15.79c-1 .06-1.58-.55-2.32-1.48a3.45 3.45 0 00-1.94-1.53 1 1 0 00-1.15.76A1 1 0 007.35 22c.16 0 .55.52.77.81a4.74 4.74 0 003.75 2.25 4.83 4.83 0 001.3-.18 1 1 0 00.29-.14.72.72 0 00.18-.21.34.34 0 00.08-.09.85.85 0 00.06-.17 1.52 1.52 0 00.06-.2 4.11 4.11 0 01.46-1.91 1 1 0 00-.76-1.65A4.6 4.6 0 019.2 16a4.84 4.84 0 01.87-3 1 1 0 00.24-.83 5 5 0 010-1.85 3.59 3.59 0 011.74.92 1 1 0 001 .23A12.49 12.49 0 0116 11a9.91 9.91 0 012.65.43 1 1 0 001-.18 5 5 0 012-1 4.11 4.11 0 010 1.91 1.05 1.05 0 00.32 1 4 4 0 01.71 2.84 4.29 4.29 0 01-4.41 4.46 1 1 0 00-.94.65 1 1 0 00.28 1.11c.59.51.5 4 .47 5.36a1 1 0 00.38.81 1 1 0 00.62.21 1.07 1.07 0 00.25 0A13 13 0 0016 3z" data-name="github coding dev developer"/></svg><svg viewBox="0 0 64 64" id="github" xmlns="http://www.w3.org/2000/svg"><path d="M31.999 1.646C14.881 1.646 1 15.579 1 32.771c0 13.749 8.881 25.415 21.204 29.53 1.549.287 2.114-.674 2.114-1.5 0-.738-.027-2.695-.042-5.293-8.625 1.883-10.444-4.172-10.444-4.172-1.408-3.596-3.44-4.551-3.44-4.551-2.816-1.932.212-1.895.212-1.895 3.11.219 4.747 3.209 4.747 3.209 2.768 4.756 7.258 3.381 9.024 2.584.279-2.01 1.082-3.383 1.967-4.16-6.882-.787-14.118-3.455-14.118-15.38 0-3.397 1.207-6.176 3.19-8.354-.321-.787-1.384-3.95.302-8.234 0 0 2.604-.836 8.525 3.19 2.473-.69 5.125-1.035 7.762-1.049 2.631.014 5.285.358 7.762 1.049 5.916-4.026 8.516-3.19 8.516-3.19 1.69 4.284.627 7.447.307 8.234 1.988 2.178 3.188 4.956 3.188 8.354 0 11.955-7.248 14.585-14.154 15.357 1.113.961 2.104 2.859 2.104 5.764 0 4.162-.037 7.516-.037 8.537 0 .834.559 1.803 2.131 1.496C54.127 58.174 63 46.516 63 32.771 63 15.579 49.119 1.646 31.999 1.646z" fill="#3E77BF"/><path d="M31.999 1.646C14.881 1.646 1 15.579 1 32.771c0 13.749 8.881 25.415 21.204 29.53 1.549.287 2.114-.674 2.114-1.5 0-.738-.027-2.695-.042-5.293-8.625 1.883-10.444-4.172-10.444-4.172-1.408-3.596-3.44-4.551-3.44-4.551-2.816-1.932.212-1.895.212-1.895 3.11.219 4.747 3.209 4.747 3.209 2.768 4.756 7.258 3.381 9.024 2.584.279-2.01 1.082-3.383 1.967-4.16-6.882-.787-14.118-3.455-14.118-15.38 0-3.397 1.207-6.176 3.19-8.354-.321-.787-1.384-3.95.302-8.234 0 0 2.604-.836 8.525 3.19 2.473-.69 5.125-1.035 7.762-1.049 2.631.014 5.285.358 7.762 1.049 5.916-4.026 8.516-3.19 8.516-3.19 1.69 4.284.627 7.447.307 8.234 1.988 2.178 3.188 4.956 3.188 8.354 0 11.955-7.248 14.585-14.154 15.357 1.113.961 2.104 2.859 2.104 5.764 0 4.162-.037 7.516-.037 8.537 0 .834.559 1.803 2.131 1.496C54.127 58.174 63 46.516 63 32.771 63 15.579 49.119 1.646 31.999 1.646z" fill="#3E77BF"/><path d="M48.312 14.642c1.641 4.238.594 7.366.275 8.147 1.988 2.178 3.188 4.956 3.188 8.354 0 11.955-7.248 14.585-14.154 15.357 1.113.961 2.104 2.859 2.104 5.764 0 4.162-.037 7.516-.037 8.537 0 .834.559 1.803 2.131 1.496C54.127 58.174 63 46.516 63 32.771c0-3.695-.644-7.237-1.821-10.525-4.274-4.5-9.031-7.497-12.867-7.604zM25.122 48.166c.348-.702.773-1.248 1.22-1.643-3.772-.432-7.646-1.439-10.381-4.218 2.104 3.502 5.53 5.095 9.161 5.861z" fill="#114C82"/><path d="M2.614 34.869c0-17.192 13.881-31.125 30.999-31.125 9.505 0 18.007 4.299 23.692 11.061C51.69 6.845 42.452 1.646 31.999 1.646 14.881 1.646 1 15.579 1 32.771A31.04 31.04 0 008.344 52.87a31.03 31.03 0 01-5.73-18.001z" fill="#6CA9EA"/><path d="M41.339 54.363c0-2.904-.991-4.805-2.104-5.766 6.906-.77 14.155-3.402 14.155-15.356 0-3.398-1.2-6.175-3.19-8.353.322-.787 1.387-3.951-.307-8.234 0 0-.322-.099-.987-.061.726 3.23-.052 5.54-.319 6.196 1.988 2.178 3.188 4.956 3.188 8.354 0 11.955-7.248 14.585-14.154 15.357 1.113.961 2.104 2.859 2.104 5.764 0 4.162-.037 7.516-.037 8.537 0 .734.437 1.571 1.615 1.551.008-1.407.036-4.394.036-7.989z" fill="#083E66"/><path d="M15.683 54c.651 1.34 2.839 4.55 8.611 3.874-.008-.706-.014-1.497-.018-2.366-4.453.972-7.082-.174-8.593-1.508z" fill="#114C82"/><path d="M16.796 49.924a7.655 7.655 0 00-1.113-1.318c.351.521.724.958 1.113 1.318z" fill="#6CA9EA"/></svg><svg viewBox="0 0 32 32" id="gulp" xmlns="http://www.w3.org/2000/svg"><path d="M15.942 24.095a15.353 15.353 0 01-3.518-.393 6.761 6.761 0 01-1.006-.311l.813 1.389.318 4.34c0 .487 1.546.881 3.452.881s3.452-.394 3.452-.881l.252-4.387.769-1.346a6.691 6.691 0 01-1.015.315 15.353 15.353 0 01-3.517.393zM20.5 9.973a34.285 34.285 0 01-4.5.261 34.285 34.285 0 01-4.5-.261 8.43 8.43 0 01-1.4-.292 2.03 2.03 0 01-.345-.143L10.5 16.4q.052-.177.116-.354a6.711 6.711 0 01.3-.707 6.264 6.264 0 01.376-.653 5.049 5.049 0 01.432-.566 3.45 3.45 0 01.47-.445 2.238 2.238 0 01.487-.291 1.235 1.235 0 01.487-.1 1.051 1.051 0 01.538.152 1.541 1.541 0 01.486.492.393.393 0 01.066.154.838.838 0 01.014.147.391.391 0 01-.078.257.233.233 0 01-.185.094.237.237 0 01-.182-.1 1.953 1.953 0 01-.188-.295.712.712 0 00-.215-.251.453.453 0 00-.255-.078.788.788 0 00-.457.177 2.652 2.652 0 00-.481.468 5.131 5.131 0 00-.457.666 6.946 6.946 0 00-.386.767 5.477 5.477 0 00-.267.774 2.751 2.751 0 00-.1.685 1.64 1.64 0 00.014.208.7.7 0 00.052.194.389.389 0 00.1.143.247.247 0 00.166.056.561.561 0 00.257-.076 1.928 1.928 0 00.3-.2 3.741 3.741 0 00.31-.279q.156-.155.29-.315t.238-.306a1.808 1.808 0 00.156-.255l.284-.85a.4.4 0 01.136-.2.3.3 0 01.173-.058.267.267 0 01.085.014.209.209 0 01.13.125.3.3 0 01.02.114 1.653 1.653 0 01-.031.326 2.587 2.587 0 01-.078.3q-.047.145-.105.291t-.113.306a.694.694 0 00-.044.114l-.078.241q-.046.141-.1.324l-.11.365q-.057.186-.108.365t-.093.324l-.069.242c-.018.065-.03.1-.034.116a.753.753 0 01-.049.128.848.848 0 01-.079.134.488.488 0 01-.1.1.186.186 0 01-.113.042.159.159 0 01-.142-.065.455.455 0 01-.044-.239v-.051a.514.514 0 010-.054 1.283 1.283 0 01.058-.217q.043-.159.1-.36t.128-.416l.124-.385q-.162.181-.351.36a3.788 3.788 0 01-.388.322 2.3 2.3 0 01-.4.233.947.947 0 01-.388.09.694.694 0 01-.368-.094c-.019-.011-.036-.024-.053-.037l.415 4.352c.108.271 2.142.936 4.825.936s4.719-.666 4.825-.937l.6-5.174-.143.132a6.253 6.253 0 01-.484.41 2.184 2.184 0 01-.444.266 1.153 1.153 0 01-.464.094.562.562 0 01-.359-.1.337.337 0 01-.127-.278v-.027a.184.184 0 010-.031.657.657 0 01.095-.25 2.868 2.868 0 01.2-.293q.116-.152.247-.308t.243-.295a2.847 2.847 0 00.185-.255.383.383 0 00.073-.188.085.085 0 00-.031-.069.16.16 0 00-.1-.025.573.573 0 00-.252.063 1.251 1.251 0 00-.257.17 2.324 2.324 0 00-.247.244 3.6 3.6 0 00-.226.286q-.105.148-.192.3t-.148.277l-.052.112q-.034.072-.073.163t-.084.186l-.081.181-.066.152-.041.092q-.012.025-.05.123l-.081.212-.1.255-.095.253-.078.21c-.022.06-.037.1-.043.123a1.32 1.32 0 01-.072.177.73.73 0 01-.095.147.433.433 0 01-.122.1.312.312 0 01-.154.038.3.3 0 01-.182-.052.236.236 0 01-.072-.2.631.631 0 01.018-.148 1.322 1.322 0 01.046-.15c.018-.05.037-.1.057-.145s.037-.092.053-.136q.165-.362.336-.725t.328-.72l.063-.147-.019.019a4.054 4.054 0 01-.4.338 2.1 2.1 0 01-.391.233.922.922 0 01-.377.087.487.487 0 01-.209-.04.349.349 0 01-.134-.108.433.433 0 01-.072-.163c0-.021-.008-.044-.011-.066a3.797 3.797 0 01-.108.081 2.192 2.192 0 01-.373.215.824.824 0 01-.33.081.312.312 0 01-.238-.1.482.482 0 01-.091-.333 1.824 1.824 0 01.049-.387 1.978 1.978 0 01-.2.286 1.741 1.741 0 01-.272.264 1.358 1.358 0 01-.342.193 1.122 1.122 0 01-.412.074.737.737 0 01-.194-.025.407.407 0 01-.163-.087.436.436 0 01-.113-.165.679.679 0 01-.043-.259s0-.039.012-.11a2.357 2.357 0 01.078-.336q.066-.23.2-.6t.388-.886a.489.489 0 01.148-.2.308.308 0 01.182-.06.335.335 0 01.089.013.286.286 0 01.086.04.215.215 0 01.064.069.187.187 0 01.024.1.251.251 0 01-.009.069.824.824 0 01-.066.161q-.05.1-.118.228t-.142.277q-.075.148-.139.307a3.069 3.069 0 00-.11.324 1.4 1.4 0 00-.052.32.238.238 0 00.031.119.107.107 0 00.1.054.638.638 0 00.379-.13 1.683 1.683 0 00.333-.324 3.108 3.108 0 00.276-.416q.124-.222.206-.407a2.063 2.063 0 00.1-.264 2.626 2.626 0 01.1-.26.8.8 0 01.119-.2.211.211 0 01.168-.08.208.208 0 01.174.083.316.316 0 01.064.2.566.566 0 01-.041.179q-.041.114-.1.26t-.136.313q-.073.167-.136.338a3.352 3.352 0 00-.1.336 1.26 1.26 0 00-.041.306.117.117 0 00.134.13.586.586 0 00.235-.065 1.607 1.607 0 00.295-.183l.077-.061a2.511 2.511 0 01.1-.327q.107-.282.217-.561l.2-.51.925-2.333a.391.391 0 01.148-.2.354.354 0 01.188-.058.272.272 0 01.172.061.238.238 0 01.078.2.407.407 0 01-.026.137 1.664 1.664 0 01-.066.156q-.076.17-.182.416t-.226.535q-.121.289-.247.6l-.247.609-.226.562-.182.461a2.031 2.031 0 00-.066.194.713.713 0 00-.032.2.177.177 0 00.018.087.073.073 0 00.07.033.4.4 0 00.16-.045 1.638 1.638 0 00.208-.119q.112-.074.232-.17t.24-.2q.119-.1.228-.206t.194-.19a.137.137 0 01.047-.031c.034-.1.066-.2.093-.3l.067-.185a2.535 2.535 0 01.1-.235 1.007 1.007 0 01.124-.2.193.193 0 01.149-.077.24.24 0 01.177.056.226.226 0 01.055.165.6.6 0 01-.006.069c0 .031-.009.065-.015.1l-.02.1a.456.456 0 01-.02.069q.113-.123.244-.244a2.513 2.513 0 01.272-.219 1.571 1.571 0 01.287-.159.755.755 0 01.293-.061.71.71 0 01.2.029.575.575 0 01.177.085.444.444 0 01.127.141.388.388 0 01.049.2.78.78 0 01-.075.317 2.293 2.293 0 01-.188.338q-.113.17-.244.331t-.246.293l-.193.224a.338.338 0 00-.081.125.1.1 0 00.028.071.128.128 0 00.092.027.352.352 0 00.153-.058 2.6 2.6 0 00.282-.2q.182-.143.461-.383c.128-.11.277-.241.446-.39l.808-7.48a2.024 2.024 0 01-.345.143 8.427 8.427 0 01-1.403.284zM16 8.2c-3.492 0-6.322.39-6.322.872s2.822.87 6.322.87 6.322-.39 6.322-.872S19.488 8.2 16 8.2zm2.524 1.127c0 .113-.336.2-.751.2s-.751-.092-.751-.2.336-.2.751-.2.748.085.748.198z" fill="#da4648"/><path d="M17.17 9.234a.034.034 0 00-.006.018c0 .073.271.132.6.132s.6-.059.6-.132l.79-3.2 3.142-3.317c.066-.075-.068-.308-.292-.508s-.466-.267-.541-.191l-3.341 3.523z" fill="#da4648"/></svg><svg viewBox="0 0 32 32" id="html" xmlns="http://www.w3.org/2000/svg"><path fill="#e44f26" d="M5.902 27.201L3.655 2h24.69l-2.25 25.197L15.985 30 5.902 27.201z"/><path fill="#f1662a" d="M16 27.858l8.17-2.265 1.922-21.532H16v23.797z"/><path fill="#ebebeb" d="M16 13.407h-4.09l-.282-3.165H16V7.151H8.25l.074.83.759 8.517H16v-3.091zM16 21.434l-.014.004-3.442-.929-.22-2.465H9.221l.433 4.852 6.332 1.758.014-.004v-3.216z"/><path fill="#fff" d="M15.989 13.407v3.091h3.806l-.358 4.009-3.448.93v3.216l6.337-1.757.046-.522.726-8.137.076-.83H15.989zM15.989 7.151V10.242h7.466l.062-.694.141-1.567.074-.83h-7.743z"/></svg><svg viewBox="0 0 128 128" id="jquery" xmlns="http://www.w3.org/2000/svg"><path fill="#0868AC" d="M27.758 20.421c-7.352 10.565-6.437 24.312-.82 35.54l.411.798.263.506.164.291.293.524c.174.307.353.612.536.919l.306.504c.203.326.41.65.622.973l.265.409c.293.437.592.872.901 1.301l.026.033.152.205c.267.368.542.732.821 1.093l.309.393c.249.313.502.623.759.934l.29.346c.345.406.698.812 1.057 1.208l.021.022.041.045c.351.383.71.758 1.075 1.133l.344.347c.282.284.569.563.858.841l.351.334c.387.364.777.722 1.176 1.07l.018.016.205.174c.351.305.708.605 1.068.902l.442.353c.294.235.591.468.89.696l.477.361c.33.243.663.482.999.717l.363.258.101.072c.318.22.645.431.97.642l.42.28c.5.315 1.007.628 1.519.93l.42.237c.377.217.756.431 1.14.639l.631.326.816.424.188.091.334.161c.427.204.858.405 1.293.599l.273.122c.498.218 1.001.427 1.508.628l.368.144c.469.182.945.359 1.423.527l.179.062c.524.184 1.054.353 1.587.52l.383.114c.542.164 1.079.358 1.638.462 35.553 6.483 45.88-21.364 45.88-21.364-8.674 11.3-24.069 14.28-38.656 10.962-.553-.125-1.089-.298-1.628-.456l-.406-.124a44.793 44.793 0 01-1.568-.51l-.215-.077a49.537 49.537 0 01-1.382-.513l-.388-.152c-.501-.198-1-.405-1.492-.62l-.298-.133a55.398 55.398 0 01-1.259-.585l-.364-.175c-.327-.159-.65-.328-.974-.495l-.649-.341c-.395-.21-.782-.43-1.167-.654l-.394-.219a58.203 58.203 0 01-1.52-.932l-.41-.273a40.515 40.515 0 01-1.081-.719l-.349-.245a54.203 54.203 0 01-1.022-.738l-.453-.343c-.31-.237-.618-.476-.922-.721l-.411-.33c-.388-.318-.771-.64-1.149-.969l-.126-.105a54.797 54.797 0 01-1.208-1.098l-.34-.328a33.158 33.158 0 01-.868-.851l-.34-.34c-.362-.37-.717-.745-1.065-1.126l-.053-.057a41.973 41.973 0 01-1.08-1.229l-.283-.336a44.66 44.66 0 01-.777-.961l-.285-.355a52.469 52.469 0 01-.898-1.195c-8.098-11.047-11.008-26.283-4.535-38.795m17.081-1.626c-5.316 7.65-5.028 17.893-.88 25.983a33.747 33.747 0 002.351 3.925c.796 1.143 1.68 2.501 2.737 3.418.383.422.784.834 1.193 1.238l.314.311c.397.385.801.764 1.218 1.132l.05.043.012.012c.462.405.939.794 1.423 1.178l.323.252c.486.372.981.738 1.489 1.087l.043.033.68.447.322.213c.363.233.73.459 1.104.676l.156.092c.322.185.648.367.975.545l.347.18.682.354.103.047c.469.23.941.453 1.424.663l.314.13c.386.163.775.323 1.167.473l.5.184c.356.132.712.253 1.072.373l.484.155c.511.158 1.017.359 1.549.448 27.45 4.547 33.787-16.588 33.787-16.588-5.712 8.228-16.775 12.153-28.58 9.089a34.726 34.726 0 01-1.555-.449l-.467-.151a29 29 0 01-1.087-.374l-.491-.183a38.673 38.673 0 01-1.171-.473l-.315-.133a32.78 32.78 0 01-1.432-.666l-.718-.365-.414-.213c-.306-.166-.61-.338-.909-.514l-.217-.123a30.75 30.75 0 01-1.1-.672l-.332-.221-.712-.472a37.364 37.364 0 01-1.484-1.085l-.334-.264c-5.167-4.079-9.263-9.655-11.21-15.977-2.041-6.557-1.601-13.917 1.935-19.891m14.847-.518c-3.134 4.612-3.442 10.341-1.267 15.435 2.293 5.407 6.992 9.648 12.477 11.66l.682.235.3.096c.323.102.644.22.978.282 15.157 2.929 19.268-7.777 20.362-9.354-3.601 5.185-9.653 6.43-17.079 4.627a18.837 18.837 0 01-1.796-.555 22.303 22.303 0 01-2.134-.886 22.19 22.19 0 01-3.741-2.282c-6.645-5.042-10.772-14.659-6.436-22.492"/><path fill="#131B28" d="M66.359 96.295h-4.226a.556.556 0 00-.517.417l-1.5 6.94-1.5 6.94a.554.554 0 01-.516.417h-2.991c-2.959 0-2.617-2.047-2.011-4.851l.018-.085.066-.354.012-.066.135-.72.145-.771.154-.785.682-3.332.683-3.332a.336.336 0 00-.341-.419h-4.337a.55.55 0 00-.514.418l-.933 4.424-.932 4.425-.002.006-.086.412c-1.074 4.903-.79 9.58 5.048 9.727l.17.003h9.163a.554.554 0 00.516-.417l1.976-9.289 1.976-9.29c.049-.23-.103-.417-.338-.418zm-45.256-.049h-4.64a.562.562 0 00-.521.416l-.44 1.942-.44 1.942c-.051.229.098.416.333.416h4.676a.556.556 0 00.518-.417l.425-1.941.425-1.941c.049-.229-.101-.417-.336-.417zm-1.346 6.044H15.08a.563.563 0 00-.521.416l-.657 2.91-.656 2.909-.183.834-.631 2.97-.63 2.971c-.049.229-.15.599-.225.821 0 0-.874 2.6-2.343 2.57l-.184-.004-1.271-.023h-.001a.558.558 0 00-.524.407l-.485 2.039-.484 2.038c-.055.228.093.416.326.42.833.01 2.699.031 3.828.031 3.669 0 5.604-2.033 6.843-7.883l1.451-6.714 1.361-6.297c.049-.227-.103-.415-.337-.415zm86.117-1.574l-.194-.801-.191-.82-.097-.414c-.38-1.477-1.495-2.328-3.917-2.328l-3.77-.004-3.472-.005h-3.907a.552.552 0 00-.515.417l-.173.816-.204.964-.057.271-1.759 8.24-1.67 7.822c-.05.23-.066.512-.038.626.028.115.479.209.713.209h3.524c.235 0 .532-.042.66-.094s.317-.513.364-.742l.626-3.099.627-3.1.001-.005.084-.413.76-3.56.671-3.144a.555.555 0 01.515-.417l11.089-.005c.235.002.383-.185.33-.414zm14.275-7.24l-.854.003h-3.549a.904.904 0 00-.667.353l-7.849 11.498c-.132.194-.283.166-.335-.062l-.578-2.533a.562.562 0 00-.522-.416h-5.045c-.235 0-.374.184-.31.409l2.261 7.921c.064.226.069.596.011.824l-.985 3.833c-.059.228.085.413.32.413h4.987a.58.58 0 00.532-.413l.986-3.833a2.52 2.52 0 01.363-.755l12.742-16.911c.142-.188.065-.341-.169-.339l-1.339.008zm-40.086 9.919v-.004a.514.514 0 01-.499.441h-6.397c-.222 0-.334-.15-.301-.336l.006-.015-.004.002.003-.021.029-.109c.611-1.624 1.855-2.69 4.194-2.69 2.634-.001 3.148 1.285 2.969 2.732zm-1.877-7.384c-8.211 0-10.157 4.984-11.249 10.015-1.091 5.128-.998 9.921 7.5 9.921h1.03l.256-.001h.06l1.02-.003h.018c2.244-.009 4.495-.026 5.406-.033a.553.553 0 00.509-.42l.344-1.681.067-.327.41-2.006a.335.335 0 00-.341-.418h-7.639c-3.039 0-3.941-.807-3.608-3.181H84.18l-.001.001.008-.001a.503.503 0 00.445-.315l.029-.106-.001.001c1.813-6.839 1.293-11.445-6.474-11.446zm-38.81 7.358l-.116.409v.001l-.922 3.268-.922 3.267a.596.596 0 01-.543.411h-4.88c-3.702 0-4.604-2.896-3.702-7.166.901-4.368 2.668-7.083 6.312-7.358 4.98-.376 5.976 3.126 4.773 7.168zm3.348 7.105s2.301-5.588 2.823-8.814c.713-4.319-1.45-10.585-9.804-10.585-8.306 0-11.914 5.981-13.29 12.484-1.376 6.55.427 12.293 8.686 12.246l6.516-.024 6.089-.022a.59.59 0 00.534-.414l1.061-4.046c.059-.228-.084-.414-.319-.416l-1.017-.006-1.017-.006c-.199-.001-.313-.131-.289-.302l.027-.095zm41.12-3.741a.28.28 0 11-.56.001.28.28 0 01.56-.001z"/></svg><svg viewBox="0 0 32 32" id="js" xmlns="http://www.w3.org/2000/svg"><path fill="#f5de19" d="M2 2h28v28H2z"/><path d="M20.809 23.875a2.866 2.866 0 002.6 1.6c1.09 0 1.787-.545 1.787-1.3 0-.9-.716-1.222-1.916-1.747l-.658-.282c-1.9-.809-3.16-1.822-3.16-3.964 0-1.973 1.5-3.476 3.853-3.476a3.889 3.889 0 013.742 2.107L25 18.128A1.789 1.789 0 0023.311 17a1.145 1.145 0 00-1.259 1.128c0 .789.489 1.109 1.618 1.6l.658.282c2.236.959 3.5 1.936 3.5 4.133 0 2.369-1.861 3.667-4.36 3.667a5.055 5.055 0 01-4.795-2.691zm-9.295.228c.413.733.789 1.353 1.693 1.353.864 0 1.41-.338 1.41-1.653v-8.947h2.631v8.982c0 2.724-1.6 3.964-3.929 3.964a4.085 4.085 0 01-3.947-2.4z"/></svg><svg viewBox="0 0 128 128" id="node-js" xmlns="http://www.w3.org/2000/svg"><path fill="#83CD29" d="M114.325 80.749c-.29 0-.578-.076-.832-.224l-2.65-1.568c-.396-.221-.203-.3-.072-.345.528-.184.635-.227 1.198-.545.059-.033.136-.021.197.015l2.035 1.209a.261.261 0 00.246 0l7.937-4.581a.248.248 0 00.122-.215v-9.16a.256.256 0 00-.123-.219l-7.934-4.577a.254.254 0 00-.245 0l-7.933 4.578a.259.259 0 00-.125.218v9.16c0 .088.049.171.125.212l2.174 1.257c1.18.589 1.903-.105 1.903-.803v-9.045c0-.127.103-.228.23-.228h1.007c.125 0 .229.101.229.228v9.045c0 1.574-.857 2.477-2.35 2.477-.459 0-.82 0-1.828-.496l-2.081-1.198a1.676 1.676 0 01-.832-1.448v-9.16c0-.595.317-1.15.832-1.446l7.937-4.587a1.743 1.743 0 011.667 0l7.937 4.587c.514.297.833.852.833 1.446v9.16a1.68 1.68 0 01-.833 1.448l-7.937 4.582a1.651 1.651 0 01-.834.223m2.453-6.311c-3.475 0-4.202-1.595-4.202-2.932a.23.23 0 01.23-.229h1.026a.23.23 0 01.228.194c.154 1.045.617 1.572 2.718 1.572 1.671 0 2.383-.378 2.383-1.266 0-.512-.202-.891-2.8-1.146-2.172-.215-3.515-.694-3.515-2.433 0-1.601 1.35-2.557 3.612-2.557 2.543 0 3.801.883 3.96 2.777a.235.235 0 01-.06.176.236.236 0 01-.168.073h-1.031a.228.228 0 01-.223-.179c-.248-1.1-.848-1.451-2.479-1.451-1.825 0-2.037.637-2.037 1.112 0 .577.25.745 2.715 1.071 2.439.323 3.598.779 3.598 2.494.001 1.733-1.441 2.724-3.955 2.724"/><path fill="#404137" d="M97.982 68.43c.313-.183.506-.517.506-.88v-2.354c0-.362-.192-.696-.506-.879l-8.364-4.856a1.017 1.017 0 00-1.019-.002l-8.416 4.859a1.018 1.018 0 00-.508.88v9.716c0 .365.196.703.514.884l8.363 4.765c.308.177.686.178.997.006l5.058-2.812a.508.508 0 00.006-.885l-8.468-4.86a.507.507 0 01-.256-.44v-3.046c0-.182.097-.349.254-.439l2.637-1.52a.505.505 0 01.507 0l2.637 1.52a.507.507 0 01.255.439v2.396a.507.507 0 00.764.44l5.039-2.932"/><path fill="#83CD29" d="M88.984 67.974a.2.2 0 01.195 0l1.615.933c.06.035.097.1.097.169v1.865c0 .07-.037.134-.097.169l-1.615.932a.194.194 0 01-.195 0l-1.614-.932a.194.194 0 01-.098-.169v-1.865c0-.069.037-.134.098-.169l1.614-.933"/><path fill="#404137" d="M67.083 71.854c0 .09-.048.174-.127.22l-2.89 1.666a.251.251 0 01-.254 0l-2.89-1.666a.255.255 0 01-.127-.22v-3.338c0-.09.049-.175.127-.221l2.89-1.668a.248.248 0 01.255 0l2.891 1.668a.258.258 0 01.126.221v3.338zm.781-24.716a.511.511 0 00-.756.444v12.915a.359.359 0 01-.177.308.359.359 0 01-.356 0l-2.108-1.215a1.017 1.017 0 00-1.015 0l-8.418 4.858a1.018 1.018 0 00-.509.881v9.719c0 .363.194.698.508.881l8.418 4.861c.314.182.702.182 1.017 0l8.42-4.861a1.02 1.02 0 00.508-.881V50.821c0-.368-.2-.708-.521-.888l-5.011-2.795"/><path fill="#83CD29" d="M38.238 59.407a1.014 1.014 0 011.016 0l8.418 4.857c.314.182.508.518.508.881v9.722c0 .363-.194.699-.508.881l-8.417 4.861a1.02 1.02 0 01-1.017 0l-8.415-4.861a1.02 1.02 0 01-.508-.881v-9.723c0-.362.194-.698.508-.88l8.415-4.857"/><path fill="#404137" d="M22.93 65.064c0-.366-.192-.702-.508-.883l-8.415-4.843a.99.99 0 00-.464-.133h-.087a.993.993 0 00-.464.133l-8.416 4.843a1.02 1.02 0 00-.509.883l.018 13.04c0 .182.095.351.254.439a.487.487 0 00.505 0l5-2.864c.316-.188.509-.519.509-.882v-6.092c0-.364.192-.699.507-.881l2.13-1.226a.994.994 0 01.508-.137c.174 0 .352.044.507.137l2.128 1.226c.315.182.509.517.509.881v6.092c0 .363.195.696.509.882l5 2.864a.508.508 0 00.76-.439l.019-13.04"/></svg><svg id="npm" viewBox="0 0 128 128" xmlns="http://www.w3.org/2000/svg"><defs><style>.lcls-1{fill:#cb3837}</style></defs><path id="loriginal-wordmark" class="lcls-1" d="M2 38.5h124v43.71H64v7.29H36.44v-7.29H2zm6.89 36.43h13.78V53.07h6.89v21.86h6.89V45.79H8.89zm34.44-29.14v36.42h13.78v-7.28h13.78V45.79zm13.78 7.29H64v14.56h-6.89zm20.67-7.29v29.14h13.78V53.07h6.89v21.86h6.89V53.07h6.89v21.86h6.89V45.79z"/></svg><svg viewBox="0 0 32 32" id="phone" xmlns="http://www.w3.org/2000/svg"><path d="M27.36 6.15l-2.27-2.27a3 3 0 00-4.54.35l-2.21 3a3 3 0 00-.44 2.66l.13.38c.27.89.62 2 .84 2.74a1 1 0 01-.05.7 12.44 12.44 0 01-2.08 3 1 1 0 000 1.42 1 1 0 001.41 0 14.14 14.14 0 002.46-3.51 2.92 2.92 0 00.17-2.17c-.21-.72-.57-1.86-.85-2.75l-.12-.39a1 1 0 01.19-.87l2.21-3a1 1 0 011.51-.12l.67.67-2 3.1a1 1 0 00.84 1.54 1 1 0 00.84-.45l1.77-2.74.16.15a2.59 2.59 0 01.68 1.88c0 1.76-1.19 5-6.73 10.44-5.81 5.7-10.42 8-12.33 6.07l-2.33-2.3A1 1 0 015 22.9a1 1 0 01.41-.73l3-2.21a1 1 0 01.88-.15l1.89.59-2.13 1.51a1 1 0 00-.24 1.4 1 1 0 00.82.42 1 1 0 00.57-.18l3.8-2.67a1 1 0 00.25-1.4 1 1 0 00-.53-.36l-3.8-1.22a3 3 0 00-2.66.44l-3 2.21a3 3 0 00-.35 4.54l2.27 2.28a4.31 4.31 0 003.12 1.26c2.52 0 6.32-1.75 12-7.32 4.84-4.75 7.31-8.74 7.33-11.86a4.46 4.46 0 00-1.27-3.3z" data-name="phone celuler contact call"/></svg><svg viewBox="0 0 32 32" id="photoshop" xmlns="http://www.w3.org/2000/svg"><path d="M3.167 3.517h25.666v24.966H3.167z" fill="#0c0824"/><path d="M3.167 3.517h25.666v24.966H3.167zM2 29.65h28V2.35H2zm18.877-16.1c-.922 0-1.237.467-1.237.852 0 .42.21.712 1.447 1.353 1.832.887 2.4 1.738 2.4 2.987 0 1.867-1.423 2.87-3.348 2.87a5.076 5.076 0 01-2.392-.5c-.082-.035-.093-.093-.093-.187v-1.717c0-.117.058-.152.14-.093a4.33 4.33 0 002.345.688c.922 0 1.307-.385 1.307-.91 0-.42-.268-.793-1.447-1.4-1.657-.793-2.345-1.6-2.345-2.94 0-1.505 1.178-2.753 3.22-2.753a5.365 5.365 0 012.088.327.258.258 0 01.117.233v1.6c0 .093-.058.152-.175.117a3.941 3.941 0 00-2.03-.525zm-10.034 1.388c.268.023.478.023.945.023 1.365 0 2.648-.478 2.648-2.333 0-1.482-.922-2.228-2.473-2.228-.467 0-.91.023-1.12.035zm-2.077-6.2c0-.082.163-.14.257-.14a69.782 69.782 0 013.01-.058c3.232 0 4.492 1.773 4.492 4.037 0 2.963-2.147 4.235-4.783 4.235-.443 0-.595-.023-.91-.023v4.48c0 .093-.035.14-.14.14H8.907c-.093 0-.14-.035-.14-.14V8.743z" fill="#31c5f0"/></svg><svg viewBox="0 0 32 32" id="php" xmlns="http://www.w3.org/2000/svg"><defs><radialGradient id="oa" cx="-16.114" cy="20.532" r="18.384" gradientTransform="translate(26.52 -9.307)" gradientUnits="userSpaceOnUse"><stop offset="0" stop-color="#fff"/><stop offset=".5" stop-color="#4c6b96"/><stop offset="1" stop-color="#231f20"/></radialGradient></defs><ellipse cx="16" cy="16" rx="14" ry="7.365" fill="url(#oa)"/><ellipse cx="16" cy="16" rx="13.453" ry="6.818" fill="#6280b6"/><path d="M18.725 18.2l.667-3.434a1.752 1.752 0 00-.372-1.719 2.929 2.929 0 00-2-.525h-1.153l.331-1.7a.219.219 0 00-.215-.26h-1.6a.219.219 0 00-.215.177l-.709 3.646a2.051 2.051 0 00-.477-1.054 2.783 2.783 0 00-2.2-.807H7.7a.219.219 0 00-.215.177l-1.434 7.38a.219.219 0 00.215.26h1.603a.219.219 0 00.215-.177l.347-1.785h1.2a5.167 5.167 0 001.568-.2 3.068 3.068 0 001.15-.689 3.538 3.538 0 00.68-.844l-.287 1.475a.219.219 0 00.215.26h1.6a.219.219 0 00.215-.177l.787-4.051h1.094c.466 0 .6.093.64.133s.1.165.025.569l-.635 3.265a.219.219 0 00.215.26h1.62a.219.219 0 00.207-.18zm-7.395-2.834a1.749 1.749 0 01-.561 1.092 2.171 2.171 0 01-1.315.321h-.712l.515-2.651h.921c.677 0 .949.145 1.059.266a1.181 1.181 0 01.093.972zM25.546 13.332a2.783 2.783 0 00-2.2-.807h-3.091a.219.219 0 00-.215.177l-1.434 7.38a.219.219 0 00.215.26h1.608a.219.219 0 00.215-.177l.347-1.785h1.2a5.167 5.167 0 001.568-.2 3.068 3.068 0 001.15-.689 3.425 3.425 0 001.076-1.927 2.512 2.512 0 00-.439-2.232zm-1.667 2.034a1.749 1.749 0 01-.561 1.092 2.171 2.171 0 01-1.318.32h-.71l.515-2.651h.921c.677 0 .949.145 1.059.266a1.181 1.181 0 01.094.973z" fill="#fff"/><path d="M10.178 13.908a1.645 1.645 0 011.221.338 1.34 1.34 0 01.145 1.161 1.945 1.945 0 01-.642 1.223 2.361 2.361 0 01-1.448.37h-.978l.6-3.089zm-3.917 6.216h1.608l.381-1.962h1.377a4.931 4.931 0 001.5-.191 2.84 2.84 0 001.07-.642 3.207 3.207 0 001.01-1.808 2.3 2.3 0 00-.385-2.044 2.568 2.568 0 00-2.035-.732H7.7zM14.387 10.782h1.6l-.387 1.962h1.421a2.767 2.767 0 011.85.468 1.548 1.548 0 01.305 1.516l-.667 3.434H16.89l.635-3.265a.886.886 0 00-.08-.76 1.121 1.121 0 00-.8-.2H15.37l-.822 4.228h-1.6zM22.727 13.908a1.645 1.645 0 011.221.338 1.34 1.34 0 01.145 1.161 1.945 1.945 0 01-.642 1.223A2.361 2.361 0 0122 17h-.978l.6-3.089zm-3.917 6.216h1.608l.381-1.962h1.377a4.931 4.931 0 001.5-.191 2.84 2.84 0 001.07-.642 3.207 3.207 0 001.01-1.808 2.3 2.3 0 00-.385-2.044 2.568 2.568 0 00-2.035-.732h-3.092z" fill="#000004"/></svg><svg viewBox="0 0 32 32" id="pin" xmlns="http://www.w3.org/2000/svg"><g data-name="locate location map pin"><path d="M23.78 6.15A11 11 0 008.22 21.71l4.1 4.1a1 1 0 101.42-1.42l-4.1-4.1a9 9 0 1112.72 0l-7.07 7.07a1 1 0 000 1.42 1 1 0 001.42 0l7.07-7.07a11 11 0 000-15.56z"/><path d="M21 14a5 5 0 10-5 5 5 5 0 005-5zm-8 0a3 3 0 113 3 3 3 0 01-3-3z"/></g></svg><svg viewBox="0 0 144 144" id="responsive" xmlns="http://www.w3.org/2000/svg"><path fill="#528AC8" opacity=".3" d="M46.961 104.861h20.998v5.003H46.961z"/><path d="M91.732 104.989H15.683c-6.623 0-12.042-5.419-12.042-12.042v-58.82c0-6.623 5.419-12.042 12.042-12.042h83.771c6.623 0 12.042 5.419 12.042 12.042v22.536" fill="none" stroke="#3D6CB4" stroke-linecap="round" stroke-linejoin="round" stroke-miterlimit="10"/><path d="M91.732 87.74h-75.97c-3.558 0-6.469-2.911-6.469-6.469V34.467c0-3.558 2.911-6.47 6.47-6.47h83.613c3.558 0 6.469 2.911 6.469 6.469v21.675" fill="none" stroke="#3D6CB4" stroke-linecap="round" stroke-linejoin="round" stroke-miterlimit="10"/><path d="M9.292 36.519v-2.052c0-3.558 2.911-6.47 6.47-6.47h83.613c3.558 0 6.469 2.911 6.469 6.469v2.053H9.292z" fill="#528AC8" opacity=".3"/><path d="M9.292 36.519v-2.052c0-3.558 2.911-6.47 6.47-6.47h83.613c3.558 0 6.469 2.911 6.469 6.469v2.053H9.292z" fill="none" stroke="#3D6CB4" stroke-linecap="round" stroke-linejoin="round" stroke-miterlimit="10"/><circle cx="57.569" cy="96.613" fill="#528AC8" opacity=".3" r="3.605"/><circle cx="57.569" cy="96.613" fill="none" r="3.605" stroke="#3D6CB4" stroke-linecap="round" stroke-linejoin="round" stroke-miterlimit="10"/><path d="M68.111 105.247s-1.904 12.308 7.468 12.308H56.836 39.557c9.371 0 7.321-12.18 7.321-12.18M16.538 42.927h35.955v13.434H16.538z" fill="none" stroke="#3D6CB4" stroke-linecap="round" stroke-linejoin="round" stroke-miterlimit="10"/><g fill="none" stroke="#3D6CB4" stroke-linecap="round" stroke-linejoin="round" stroke-miterlimit="10"><path d="M58.36 44.555h30M58.36 50.555h35M58.36 54.555h30"/></g><path fill="#528AC8" opacity=".3" d="M16.538 63.77h17.978v17.978H16.538z"/><path fill="none" stroke="#3D6CB4" stroke-linecap="round" stroke-linejoin="round" stroke-miterlimit="10" d="M16.538 63.77h17.978v17.978H16.538zM41.035 63.77h17.978v17.978H41.035zM65.532 63.77H83.51v17.978H65.532zM134.727 124.88H96.596a4.836 4.836 0 01-4.822-4.822V61.48a4.836 4.836 0 014.822-4.822h38.131a4.836 4.836 0 014.822 4.822v58.578a4.836 4.836 0 01-4.822 4.822z"/><path d="M133.102 113.904h-34.88a3.11 3.11 0 01-3.11-3.11V63.66a3.11 3.11 0 013.11-3.11h34.88a3.11 3.11 0 013.11 3.11v47.134a3.11 3.11 0 01-3.11 3.11z" fill="none" stroke="#3D6CB4" stroke-linecap="round" stroke-linejoin="round" stroke-miterlimit="10"/><circle cx="117.456" cy="119.246" fill="#528AC8" opacity=".3" r="2.206"/><circle cx="117.456" cy="119.246" fill="none" r="2.206" stroke="#3D6CB4" stroke-linecap="round" stroke-linejoin="round" stroke-miterlimit="10"/><path fill="#528AC8" opacity=".3" d="M100.96 65.646h30.596v25.649H100.96z"/><path fill="none" stroke="#3D6CB4" stroke-linecap="round" stroke-linejoin="round" stroke-miterlimit="10" d="M100.318 65.646h31.238v25.649h-31.238zM101.36 98.555h24M101.36 102.555h20"/><g fill="none" stroke="#3D6CB4" stroke-linecap="round" stroke-linejoin="round" stroke-miterlimit="10"><path d="M125.538 40.51v6.231M128.654 43.625h-6.231"/></g><g fill="none" stroke="#3D6CB4" stroke-linecap="round" stroke-linejoin="round" stroke-miterlimit="10"><path d="M135.663 18.369v10.408M140.867 23.573H130.46"/></g></svg><svg viewBox="0 0 32 32" id="sass" xmlns="http://www.w3.org/2000/svg"><path d="M26.11 17.572a5.8 5.8 0 00-2.537.588 5.345 5.345 0 01-.568-1.314 3.53 3.53 0 01-.051-1.1 9.811 9.811 0 01.332-1.192c-.005-.051-.061-.292-.624-.3s-1.048.107-1.1.256a6.171 6.171 0 00-.235.834 19.686 19.686 0 01-1.713 3.294 3.186 3.186 0 01-.44-2.066 9.811 9.811 0 01.332-1.192c-.005-.051-.061-.292-.624-.3s-1.048.107-1.1.256-.118.5-.235.834-1.483 3.386-1.841 4.173c-.184.4-.343.726-.455.946a.233.233 0 01-.02.041l-.153.292v.005c-.077.138-.159.266-.2.266a1.711 1.711 0 01.01-.869c.2-1.059.69-2.705.685-2.762 0-.031.092-.317-.317-.465a.508.508 0 00-.578.1c-.036 0-.061.087-.061.087s.445-1.851-.849-1.851a3.855 3.855 0 00-2.475 1.683c-.348.189-1.089.593-1.882 1.028-.3.169-.614.338-.905.5-.02-.02-.041-.046-.061-.066C6.87 17.6 3.975 16.416 4.1 14.171c.046-.818.327-2.966 5.559-5.575 4.306-2.122 7.733-1.534 8.326-.23.849 1.862-1.836 5.319-6.285 5.82a3.351 3.351 0 01-2.813-.711c-.235-.256-.271-.271-.358-.22-.143.077-.051.307 0 .44a2.626 2.626 0 001.606 1.263 8.55 8.55 0 005.217-.517c2.7-1.043 4.8-3.943 4.184-6.372-.619-2.465-4.71-3.278-8.582-1.9a19.5 19.5 0 00-6.595 3.783c-2.133 1.995-2.47 3.728-2.332 4.455.5 2.578 4.051 4.255 5.472 5.5a8.554 8.554 0 01-.194.107c-.711.353-3.421 1.77-4.1 3.268-.767 1.7.123 2.915.711 3.079a4.374 4.374 0 004.71-1.908 4.725 4.725 0 00.423-4.353.107.107 0 00-.02-.031l.557-.327a27.2 27.2 0 011.028-.578 6.74 6.74 0 00-.363 1.862 3.886 3.886 0 00.834 2.7.921.921 0 00.675.22c.6 0 .875-.5 1.176-1.094.368-.726.7-1.57.7-1.57s-.414 2.281.711 2.281c.409 0 .823-.532 1.008-.8v.005l.031-.051.066-.107v-.01c.164-.286.532-.936 1.079-2.015.706-1.391 1.386-3.13 1.386-3.13a8.888 8.888 0 00.271 1.13 10.643 10.643 0 00.583 1.309c-.164.23-.266.358-.266.358l.005.005c-.133.174-.276.363-.435.547a16.3 16.3 0 00-1.314 1.647.447.447 0 00.123.6 1.116 1.116 0 00.685.113 3.147 3.147 0 001.028-.235 3.45 3.45 0 00.885-.465 1.98 1.98 0 00.849-1.744 3.521 3.521 0 00-.322-1.233c.051-.072.1-.143.148-.215a23.428 23.428 0 001.534-2.649 8.888 8.888 0 00.271 1.13 7.57 7.57 0 00.5 1.125 4.861 4.861 0 00-1.497 1.922c-.322.931-.072 1.35.4 1.447a1.425 1.425 0 00.747-.153 3.4 3.4 0 00.946-.486 2.126 2.126 0 001.043-1.729 3.268 3.268 0 00-.235-1.023 5.356 5.356 0 012.716-.312c2.434.286 2.915 1.805 2.823 2.445a1.618 1.618 0 01-.772 1.094c-.169.107-.225.143-.21.22.02.113.1.107.245.087A1.9 1.9 0 0030 20.7c.077-1.5-1.355-3.145-3.887-3.13zM7.33 23.9c-.808.88-1.933 1.212-2.419.931-.522-.3-.317-1.6.675-2.532a12.884 12.884 0 011.9-1.417c.118-.072.292-.174.5-.3l.056-.031.123-.077A3.493 3.493 0 017.33 23.9zm5.881-4c-.281.685-.869 2.44-1.227 2.342-.307-.082-.5-1.412-.061-2.726a6.193 6.193 0 01.956-1.754c.44-.491.926-.655 1.043-.455a9.062 9.062 0 01-.711 2.593zm4.853 2.322c-.118.061-.23.1-.281.072-.036-.02.051-.1.051-.1s.609-.655.849-.951c.138-.174.3-.378.476-.609v.066c0 .782-.757 1.309-1.094 1.524zm3.744-.854c-.087-.061-.072-.266.22-.905a3.408 3.408 0 01.834-1.074 1.448 1.448 0 01.082.471 1.547 1.547 0 01-1.135 1.509z" fill="#cd6799"/></svg><svg viewBox="0 0 32 32" id="sketch" xmlns="http://www.w3.org/2000/svg"><path d="M8.109 4.26L16 3.433l7.891.828L30 12.4 16 28.567 2 12.4z" fill="#fdb300"/><path fill="#ea6c00" d="M7.671 12.395L16 28.567 2 12.395h5.671zM24.329 12.395L16 28.567l14-16.172h-5.671z"/><path fill="#fdad00" d="M7.671 12.395h16.658L16 28.567 7.671 12.395z"/><path fill="#fdd231" d="M16 3.433l-7.891.827-.438 8.135L16 3.433zM16 3.433l7.891.827.438 8.135L16 3.433z"/><path fill="#fdad00" d="M30 12.395L23.891 4.26l.438 8.135H30zM2 12.395L8.109 4.26l-.438 8.135H2z"/><path fill="#feeeb7" d="M16 3.433l-8.329 8.962h16.658L16 3.433z"/></svg><svg viewBox="0 0 32 32" id="skype" xmlns="http://www.w3.org/2000/svg"><g data-name="skype conference video call"><path d="M14.52 11.34a4.37 4.37 0 014.22.22 1 1 0 001.18-1.62 6.36 6.36 0 00-6.3-.38 3.56 3.56 0 00-2.15 3.17c0 2.62 2.29 3.49 3.66 4 .17.06.34.12.49.19l.43.16c1.42.55 2.28 1 2.28 2.31a1.27 1.27 0 01-.81 1.18A4.87 4.87 0 0113 20.3a1 1 0 10-1.07 1.7 6.87 6.87 0 003.68 1 6 6 0 002.87-.67 3.27 3.27 0 001.85-2.93c0-2.8-2.23-3.66-3.56-4.17l-.39-.16-.54-.2c-1.43-.54-2.37-1-2.37-2.14a1.65 1.65 0 011.05-1.39z"/><path d="M28.85 17.9a12.92 12.92 0 00-9.6-14.49 1 1 0 00-.5 1.94A11 11 0 0127 16a10.52 10.52 0 01-.17 1.91.27.27 0 000 .09 1 1 0 000 .3 1.14 1.14 0 00.15.36A5.92 5.92 0 0128 22a6 6 0 01-6 6 5.92 5.92 0 01-3.34-1h-.11a1.12 1.12 0 00-.25-.11 1 1 0 00-.35 0A10.6 10.6 0 0116 27 11 11 0 015 16a10.52 10.52 0 01.17-1.91.21.21 0 000-.08 1.07 1.07 0 000-.31 1.14 1.14 0 00-.17-.36A5.92 5.92 0 014 10a6 6 0 016-6 5.92 5.92 0 013.34 1 1 1 0 001.12-1.66A8 8 0 003.15 14.1 12.93 12.93 0 0017.9 28.85a8 8 0 0011-11z"/></g></svg><svg viewBox="0 0 32 32" id="telegram" xmlns="http://www.w3.org/2000/svg"><path d="M28.59 4.29a2.23 2.23 0 00-2.27-.36L3.41 13.1a1.83 1.83 0 000 3.38l1.48.61a1 1 0 001.31-.53 1 1 0 00-.54-1.31l-1.1-.45 22.51-9a.22.22 0 01.23 0 .24.24 0 01.08.23l-4.11 19.18a.4.4 0 01-.26.3.39.39 0 01-.39-.06l-8-6.24 7.83-7.91a1 1 0 00-1.22-1.56l-11.48 6.8a1 1 0 101 1.72l4.83-2.85-2.35 2.39a2 2 0 00.2 3.08l8 6.15a2.4 2.4 0 001.47.5 2.47 2.47 0 00.83-.15 2.37 2.37 0 001.52-1.75l4.08-19.16a2.23 2.23 0 00-.74-2.18z" data-name="telegram social media network chat"/></svg><svg viewBox="0 0 32 32" id="vue" xmlns="http://www.w3.org/2000/svg"><path d="M24.4 3.925H30l-14 24.15L2 3.925h10.71l3.29 5.6 3.22-5.6z" fill="#41b883"/><path d="M2 3.925l14 24.15 14-24.15h-5.6L16 18.415 7.53 3.925z" fill="#41b883"/><path d="M7.53 3.925L16 18.485l8.4-14.56h-5.18L16 9.525l-3.29-5.6z" fill="#35495e"/></svg><svg viewBox="0 0 1024 1024" id="wordpress" xmlns="http://www.w3.org/2000/svg"><path fill="none" d="M-1-1h582v402H-1z"/><g><g fill="#21759b"><path d="M485.5 80.1c-88.4 5.5-173.9 38.6-243 94-65.9 52.8-115.3 123.7-141.4 202.9-31.8 96.3-28.7 201 8.6 296 6.4 16.3 21.7 47.2 31 62.6 37.6 62.1 87.6 112.1 149.7 149.7 15.4 9.3 46.4 24.6 62.6 31 103.4 40.5 216.6 40.5 320 0 16.2-6.4 47.2-21.7 62.6-31 62.1-37.6 112.1-87.6 149.7-149.7 9.3-15.4 24.6-46.4 31-62.6 37.7-96.2 40.4-200.9 7.7-299-12-35.7-32.1-75.7-54.5-108.1-53.3-76.8-132-135.7-220.5-164.8-52.3-17.3-108.3-24.5-163.5-21zm57 149.9c86.5 7.1 165.7 54.2 213.6 127.2 19.2 29.3 34.1 65.3 40.9 98.8 5.3 25.9 6.8 64.4 3.5 90.5-6.3 51-24.8 96.5-56.3 138.3-10.3 13.7-29.1 33.4-42.7 44.9-25.6 21.5-60.6 41.1-93 52.2-55.5 18.8-123.5 18.8-179 0-32.4-11.1-67.4-30.7-93-52.2-54.6-45.9-90.2-111.6-99-183.2-2.2-17.1-2.2-49.6-.1-67.3 7.5-63.2 36.3-122.2 81.5-167.3 59.3-59 140.1-88.6 223.6-81.9z"/><path d="M503 243.1c-31.1 1.6-60.7 8.4-87.7 19.9-88.4 37.9-149.4 116.5-163.8 211-2.2 14.9-3 45.6-1.6 62 3.1 34.9 11.1 63 27.1 95.5 26.5 53.6 66.4 94.3 119.5 121.6 28.1 14.5 51.9 22.2 83.5 27 20.8 3.2 57.2 3.2 78 0 31.6-4.8 55.4-12.5 83.5-27 53.1-27.3 93-68 119.5-121.6 16-32.5 24-60.6 27.1-95.5 1.4-16.4.6-47.1-1.6-62-14.4-94.5-75.4-173.1-163.9-211-35.5-15.2-77.2-22.2-119.6-19.9zm37 27c38.8 3.6 81.6 18.7 114 40.4 10.8 7.2 23.8 17.3 27.4 21.4 1.9 2.1 1.9 2.1-1.2 2.1-23.5 0-43.4 22.6-40.8 46.2 1.3 10.8 7.7 26.9 16 39.8 18.5 28.8 26.7 50.2 28.2 73.3.7 11.7-.8 22.1-6.1 42.6-4 15.8-36.7 123.1-37.5 123.1-.5 0-88-258.7-88-260.1 0-.4 4.6-.9 10.3-1.3 18.7-1.2 20.9-1.6 23.9-4.7 3.8-3.8 3.9-9.5.2-13.3-3.3-3.2-3.7-3.2-42.9-.9-27.7 1.6-30.4 1.6-61-.2-17.6-1-33.1-1.8-34.4-1.7-8.3.6-11.6 10.2-5.7 16.5 1.9 2 3.5 2.5 11.2 3.1 4.9.4 11.6 1.1 14.9 1.4l6 .7 18.8 51.7 18.9 51.8-26.3 79.5C471.4 625.2 459.4 661 459 661c-.6 0-89-260-89-261.9 0-.6 1.5-1.1 3.3-1.1 7.8-.1 27-2.1 28.8-3.1 6.5-3.5 5-15.8-2.2-17.7-1.6-.4-10.9-.2-20.7.5-23.9 1.6-63.2 2.8-63.2 1.9 0-1.1 7.8-12.4 13.9-20.1 27.5-34.8 67-61.9 113-77.4 19.7-6.7 36.2-10.3 57.1-12.4 7.9-.8 29.2-.6 40 .4zm197.4 136.6C748 428 754.7 448.9 759 474c8.7 50.7.8 102.1-22.6 148-18.5 36.3-49.6 71-85.5 95.1-5 3.3-9.2 5.9-9.4 5.7-.1-.2 18.1-53.6 40.5-118.8 22.5-65.2 42.3-123.9 44-130.4 6.5-24.5 9.3-50.4 7.3-67.9-.5-4.2-.8-7.7-.6-7.7.1 0 2.3 3.9 4.7 8.7zm-382 166.2c31.7 86.6 57.4 157.6 57.2 157.9-.3.2-4.7-1.9-9.8-4.8-71.5-40.6-116.3-106.7-125.9-185.5-1.9-16-1.5-42.7.9-58.6 2.6-16.9 4.8-27.4 7.3-35.9 3.2-11.1 11.3-32 12-31.2.3.4 26.6 71.5 58.3 158.1zm206.3 66.6c20.1 54.5 36.7 100 37 101.1.4 1.9-.5 2.4-11.3 5.4-14.3 4-33.1 7.5-48.4 9.1-13.8 1.4-43.6.7-56.2-1.5-10.6-1.8-31.8-7.5-31.8-8.6 0-.5 16-48 35.5-105.6 19.5-57.6 35.5-105 35.6-105.3.2-1.4 4.8 11 39.6 105.4z"/></g></g></svg></svg>