<svg xmlns="http://www.w3.org/2000/svg" width="1000" height="1000" style="width:100%;height:100%"><defs><clipPath id="a"><path d="M0 0h1000v1000H0z"/></clipPath></defs><g clip-path="url(#a)"><g display="block"><g opacity=".15"><path fill="#6088FF" d="M540.386 365.405l-271.43-156.439v-9.23l271.43 156.44v9.229zm0 0l-271.43-156.439v-9.23l271.43 156.44v9.229zM336.51 186.35l-83.885-48.443v-9.229l83.885 48.443v9.23zm0 0l-83.885-48.443v-9.229l83.885 48.443v9.23zM830.794 405.031L559.363 248.593v-9.23l271.43 156.44v9.228zm0 0L559.363 248.593v-9.23l271.43 156.44v9.228z"/><path fill="#6088FF" d="M495.803 191.982l-103.527-59.707v-9.229l103.527 59.707v9.23zm0 0l-103.527-59.707v-9.229l103.527 59.707v9.23z" opacity=".918"/><g><path fill="#6088FF" d="M495.803 511.102l-103.527-59.707v-9.23l103.527 59.708v9.23zm0 0l-103.527-59.707v-9.23l103.527 59.708v9.23z" opacity=".012"/><path fill="#6088FF" d="M778.185 636.914l-339.343-195.92v-9.229l339.343 195.92v9.23zm0 0l-339.343-195.92v-9.229l339.343 195.92v9.23zM738.343 493.587l-103.525-59.71v-9.229l103.525 59.708v9.23zm0 0l-103.525-59.71v-9.229l103.525 59.708v9.23zM925.707 582.464l-290.89-167.812v-9.23l290.89 167.813v9.23zm0 0l-290.89-167.812v-9.23l290.89 167.813v9.23z"/></g></g><path fill="#36E7F7" d="M619.383 685.745l10.026 200.944a4.78 4.78 0 002.206 3.794c3.169 2.021 7.322-.235 7.354-3.991l1.714-199.48a4.783 4.783 0 00-4.191-4.787l-11.74-1.464c-2.95-.37-5.517 2.014-5.37 4.984zm0 0l10.026 200.944a4.78 4.78 0 002.206 3.794c3.169 2.021 7.322-.235 7.354-3.991l1.714-199.48a4.783 4.783 0 00-4.191-4.787l-11.74-1.464c-2.95-.37-5.517 2.014-5.37 4.984z"/><path fill="#88F7FF" d="M638.895 682.24l-4.27 206.326c0 4.11 8.932 3.169 12.256.752l.667-.487a5.029 5.029 0 002.065-3.812l10.154-199.976a5.025 5.025 0 00-3.868-5.147l-10.822-2.551c-3.157-.744-6.182 1.65-6.182 4.894zm0 0l-4.27 206.326c0 4.11 8.932 3.169 12.256.752l.667-.487a5.029 5.029 0 002.065-3.812l10.154-199.976a5.025 5.025 0 00-3.868-5.147l-10.822-2.551c-3.157-.744-6.182 1.65-6.182 4.894z"/><path fill="#0B246E" d="M742.1 628.182l7.353 2.792v8.82H742.1v-11.612zm0 0l7.353 2.792v8.82H742.1v-11.612z"/><path fill="#0B246E" d="M528.323 739.986L200.51 549.716l189.286-100.144a42.165 42.165 0 0140.882.803l314.57 182.584c5.767 3.348 5.601 11.73-.292 14.849l-175.75 92.98a42.165 42.165 0 01-40.882-.802zm0 0L200.51 549.716l189.286-100.144a42.165 42.165 0 0140.882.803l314.57 182.584c5.767 3.348 5.601 11.73-.292 14.849l-175.75 92.98a42.165 42.165 0 01-40.882-.802z"/><path fill="#88F7FF" d="M528.303 730.13L200.49 539.86l189.286-100.143a42.165 42.165 0 0140.882.803l314.57 182.582c5.767 3.348 5.603 11.73-.292 14.849l-175.75 92.983a42.165 42.165 0 01-40.882-.803zm0 0L200.49 539.86l189.286-100.143a42.165 42.165 0 0140.882.803l314.57 182.582c5.767 3.348 5.603 11.73-.292 14.849l-175.75 92.983a42.165 42.165 0 01-40.882-.803z"/><path fill="#D7ECFA" d="M526.818 604.71l-.013 4.216-56.17 32.642.014-4.217 56.17-32.642zm0 0l-.013 4.216-56.17 32.642.014-4.217 56.17-32.642z"/><path fill="#D7ECFA" d="M470.649 637.351l-.014 4.217L346.31 569.79l.014-4.217 124.325 71.778zm0 0l-.014 4.217L346.31 569.79l.014-4.217 124.325 71.778z"/><path fill="#EEF8FC" d="M526.818 604.71l-56.17 32.641-124.324-71.778 56.17-32.642 124.324 71.778zm0 0l-56.17 32.641-124.324-71.778 56.17-32.642 124.324 71.778z"/><path fill="#D7ECFA" d="M410.086 541.146l-.006 2.471-7.772 4.518.008-2.473 7.77-4.516zm0 0l-.006 2.471-7.772 4.518.008-2.473 7.77-4.516zM402.316 545.662l-.008 2.473-7.667-4.428.006-2.471 7.669 4.426zm0 0l-.008 2.473-7.667-4.428.006-2.471 7.669 4.426z"/><path fill="#FFF" d="M410.086 541.146l-7.77 4.516-7.669-4.426 7.77-4.516 7.67 4.426zm0 0l-7.77 4.516-7.669-4.426 7.77-4.516 7.67 4.426z"/><path fill="#D7ECFA" d="M419.923 546.826l-.008 2.47-7.772 4.517.008-2.471 7.772-4.516zm0 0l-.008 2.47-7.772 4.517.008-2.471 7.772-4.516zM412.151 551.342l-.008 2.47-7.667-4.425.008-2.472 7.667 4.427zm0 0l-.008 2.47-7.667-4.425.008-2.472 7.667 4.427z"/><path fill="#FFF" d="M419.923 546.826l-7.772 4.516-7.667-4.427 7.77-4.518 7.67 4.429zm0 0l-7.772 4.516-7.667-4.427 7.77-4.518 7.67 4.429z"/><path fill="#D7ECFA" d="M429.738 552.493l-.006 2.472-7.772 4.516.008-2.472 7.77-4.516zm0 0l-.006 2.472-7.772 4.516.008-2.472 7.77-4.516z"/><path fill="#D7ECFA" d="M421.968 557.01l-.008 2.47-7.667-4.426.006-2.47 7.669 4.425zm0 0l-.008 2.47-7.667-4.426.006-2.47 7.669 4.425z"/><path fill="#FFF" d="M429.738 552.493l-7.77 4.516-7.669-4.426 7.773-4.518 7.666 4.428zm0 0l-7.77 4.516-7.669-4.426 7.773-4.518 7.666 4.428z"/><path fill="#D7ECFA" d="M439.555 558.16l-.006 2.472-7.772 4.516.006-2.47 7.772-4.519zm0 0l-.006 2.472-7.772 4.516.006-2.47 7.772-4.519z"/><path fill="#D7ECFA" d="M431.783 562.677l-.006 2.471-7.667-4.426.006-2.473 7.667 4.428zm0 0l-.006 2.471-7.667-4.426.006-2.473 7.667 4.428z"/><path fill="#FFF" d="M439.555 558.16l-7.772 4.517-7.667-4.428 7.773-4.516 7.666 4.426zm0 0l-7.772 4.517-7.667-4.428 7.773-4.516 7.666 4.426z"/><path fill="#D7ECFA" d="M449.39 563.84l-.006 2.47-7.77 4.518.006-2.473 7.77-4.516zm0 0l-.006 2.47-7.77 4.518.006-2.473 7.77-4.516zM441.62 568.355l-.006 2.473-7.669-4.428.008-2.471 7.667 4.426zm0 0l-.006 2.473-7.669-4.428.008-2.471 7.667 4.426z"/><path fill="#FFF" d="M449.39 563.84l-7.77 4.515-7.667-4.426 7.77-4.516 7.667 4.426zm0 0l-7.77 4.515-7.667-4.426 7.77-4.516 7.667 4.426z"/><path fill="#D7ECFA" d="M459.21 569.507l-.009 2.471-7.772 4.516.008-2.471 7.772-4.516zm0 0l-.009 2.471-7.772 4.516.008-2.471 7.772-4.516z"/><path fill="#D7ECFA" d="M451.437 574.023l-.008 2.471-7.667-4.426.008-2.471 7.667 4.426zm0 0l-.008 2.471-7.667-4.426.008-2.471 7.667 4.426z"/><path fill="#FFF" d="M459.21 569.507l-7.773 4.516-7.667-4.426 7.77-4.518 7.67 4.428zm0 0l-7.773 4.516-7.667-4.426 7.77-4.518 7.67 4.428z"/><path fill="#D7ECFA" d="M469.024 575.175l-.006 2.47-7.772 4.519.008-2.473 7.77-4.516zm0 0l-.006 2.47-7.772 4.519.008-2.473 7.77-4.516z"/><path fill="#D7ECFA" d="M461.254 579.69l-.008 2.474-7.667-4.428.006-2.472 7.67 4.427zm0 0l-.008 2.474-7.667-4.428.006-2.472 7.67 4.427z"/><path fill="#FFF" d="M469.024 575.175l-7.77 4.516-7.669-4.427 7.773-4.516 7.666 4.427zm0 0l-7.77 4.516-7.669-4.427 7.773-4.516 7.666 4.427z"/><path fill="#D7ECFA" d="M478.861 580.852l-.008 2.474-7.77 4.516.006-2.474 7.772-4.516zm0 0l-.008 2.474-7.77 4.516.006-2.474 7.772-4.516z"/><path fill="#D7ECFA" d="M471.089 585.368l-.006 2.474-7.687-4.439.006-2.47 7.687 4.435zm0 0l-.006 2.474-7.687-4.439.006-2.47 7.687 4.435z"/><path fill="#FFF" d="M478.861 580.852l-7.772 4.516-7.687-4.436 7.773-4.518 7.686 4.438zm0 0l-7.772 4.516-7.687-4.436 7.773-4.518 7.686 4.438z"/><path fill="#D7ECFA" d="M488.678 586.52l-.008 2.473-7.772 4.516.008-2.473 7.772-4.516zm0 0l-.008 2.473-7.772 4.516.008-2.473 7.772-4.516z"/><path fill="#D7ECFA" d="M480.906 591.036l-.008 2.473-7.667-4.426.008-2.473 7.667 4.426zm0 0l-.008 2.473-7.667-4.426.008-2.473 7.667 4.426z"/><path fill="#FFF" d="M488.678 586.52l-7.772 4.516-7.667-4.426 7.77-4.516 7.67 4.426zm0 0l-7.772 4.516-7.667-4.426 7.77-4.516 7.67 4.426z"/><path fill="#D7ECFA" d="M498.493 592.188l-.006 2.473-7.772 4.516.008-2.473 7.77-4.516zm0 0l-.006 2.473-7.772 4.516.008-2.473 7.77-4.516z"/><path fill="#D7ECFA" d="M490.723 596.704l-.008 2.473-7.667-4.428.006-2.471 7.67 4.426zm0 0l-.008 2.473-7.667-4.428.006-2.471 7.67 4.426z"/><path fill="#FFF" d="M498.493 592.188l-7.77 4.516-7.669-4.426 7.773-4.516 7.666 4.426zm0 0l-7.77 4.516-7.669-4.426 7.773-4.516 7.666 4.426z"/><path fill="#D7ECFA" d="M518.147 603.536l-.008 2.47-7.772 4.517.008-2.471 7.772-4.516zm0 0l-.008 2.47-7.772 4.517.008-2.471 7.772-4.516z"/><path fill="#D7ECFA" d="M510.375 608.052l-.008 2.47-17.502-10.103.006-2.473 17.504 10.106zm0 0l-.008 2.47-17.502-10.103.006-2.473 17.504 10.106z"/><path fill="#FFF" d="M518.147 603.536l-7.772 4.516-17.504-10.106 7.773-4.516 17.503 10.106zm0 0l-7.772 4.516-17.504-10.106 7.773-4.516 17.503 10.106z"/><path fill="#D7ECFA" d="M410.017 552.583l-.008 2.471-7.77 4.516.005-2.47 7.773-4.517zm0 0l-.008 2.471-7.77 4.516.005-2.47 7.773-4.517z"/><path fill="#D7ECFA" d="M402.244 557.1l-.006 2.47-17.503-10.106.006-2.47 17.503 10.105zm0 0l-.006 2.47-17.503-10.106.006-2.47 17.503 10.105z"/><path fill="#FFF" d="M410.017 552.583l-7.773 4.516-17.503-10.106 7.772-4.516 17.504 10.106zm0 0l-7.773 4.516-17.503-10.106 7.772-4.516 17.504 10.106z"/><path fill="#D7ECFA" d="M419.832 558.249l-.006 2.473-7.773 4.516.008-2.471 7.77-4.518zm0 0l-.006 2.473-7.773 4.516.008-2.471 7.77-4.518z"/><path fill="#D7ECFA" d="M412.061 562.767l-.008 2.471-7.666-4.426.008-2.473 7.666 4.428zm0 0l-.008 2.471-7.666-4.426.008-2.473 7.666 4.428z"/><path fill="#FFF" d="M419.832 558.249l-7.77 4.518-7.667-4.428 7.77-4.516 7.667 4.426zm0 0l-7.77 4.518-7.667-4.428 7.77-4.516 7.667 4.426z"/><path fill="#D7ECFA" d="M429.649 563.917l-.006 2.473-7.773 4.516.008-2.473 7.77-4.516zm0 0l-.006 2.473-7.773 4.516.008-2.473 7.77-4.516zM421.878 568.433l-.008 2.473-7.666-4.426.006-2.474 7.668 4.427zm0 0l-.008 2.473-7.666-4.426.006-2.474 7.668 4.427z"/><path fill="#FFF" d="M429.649 563.917l-7.77 4.516-7.67-4.427 7.773-4.515 7.667 4.426zm0 0l-7.77 4.516-7.67-4.427 7.773-4.515 7.667 4.426z"/><path fill="#D7ECFA" d="M439.486 569.597l-.008 2.47-7.77 4.519.005-2.474 7.773-4.515zm0 0l-.008 2.47-7.77 4.519.005-2.474 7.773-4.515zM431.713 574.112l-.006 2.474-7.668-4.429.008-2.47 7.666 4.425zm0 0l-.006 2.474-7.668-4.429.008-2.47 7.666 4.425z"/><path fill="#FFF" d="M439.486 569.597l-7.773 4.515-7.666-4.426 7.77-4.518 7.669 4.429zm0 0l-7.773 4.515-7.666-4.426 7.77-4.518 7.669 4.429z"/><path fill="#D7ECFA" d="M449.3 575.264l-.005 2.472-7.773 4.515.008-2.47 7.77-4.517zm0 0l-.005 2.472-7.773 4.515.008-2.47 7.77-4.517zM441.53 579.78l-.008 2.471-7.666-4.426.006-2.47 7.668 4.425zm0 0l-.008 2.471-7.666-4.426.006-2.47 7.668 4.425z"/><path fill="#FFF" d="M449.3 575.264l-7.77 4.516-7.668-4.426 7.772-4.516 7.667 4.426zm0 0l-7.77 4.516-7.668-4.426 7.772-4.516 7.667 4.426z"/><g><path fill="#D7ECFA" d="M459.118 580.932l-.006 2.471-7.773 4.516.008-2.47 7.77-4.517zm0 0l-.006 2.471-7.773 4.516.008-2.47 7.77-4.517zM451.347 585.448l-.008 2.471-7.666-4.426.006-2.471 7.668 4.426zm0 0l-.008 2.471-7.666-4.426.006-2.471 7.668 4.426z"/><path fill="#FFF" d="M459.118 580.932l-7.77 4.516-7.67-4.426 7.773-4.518 7.667 4.428zm0 0l-7.77 4.516-7.67-4.426 7.773-4.518 7.667 4.428z"/></g><g><path fill="#D7ECFA" d="M468.955 586.61l-.008 2.473-7.77 4.516.005-2.473 7.773-4.516zm0 0l-.008 2.473-7.77 4.516.005-2.473 7.773-4.516zM461.182 591.126l-.006 2.473-7.686-4.438.006-2.473 7.686 4.438zm0 0l-.006 2.473-7.686-4.438.006-2.473 7.686 4.438z"/><path fill="#FFF" d="M468.955 586.61l-7.773 4.516-7.686-4.438 7.772-4.516 7.687 4.438zm0 0l-7.773 4.516-7.686-4.438 7.772-4.516 7.687 4.438z"/></g><g><path fill="#D7ECFA" d="M478.772 592.278l-.008 2.471-7.773 4.518.008-2.473 7.773-4.516zm0 0l-.008 2.471-7.773 4.518.008-2.473 7.773-4.516z"/><path fill="#D7ECFA" d="M471 596.794l-.009 2.473-7.666-4.428.008-2.472 7.666 4.427zm0 0l-.009 2.473-7.666-4.428.008-2.472 7.666 4.427z"/><path fill="#FFF" d="M478.772 592.278l-7.773 4.516-7.666-4.427 7.77-4.515 7.669 4.426zm0 0l-7.773 4.516-7.666-4.427 7.77-4.515 7.669 4.426z"/></g><g><path fill="#D7ECFA" d="M488.587 597.946l-.006 2.473-7.773 4.516.008-2.474 7.77-4.515zm0 0l-.006 2.473-7.773 4.516.008-2.474 7.77-4.515z"/><path fill="#D7ECFA" d="M480.816 602.461l-.008 2.474-7.666-4.429.006-2.47 7.668 4.425zm0 0l-.008 2.474-7.666-4.429.006-2.47 7.668 4.425z"/><path fill="#FFF" d="M488.587 597.946l-7.77 4.515-7.67-4.426 7.773-4.516 7.667 4.427zm0 0l-7.77 4.515-7.67-4.426 7.773-4.516 7.667 4.427z"/></g><g><path fill="#D7ECFA" d="M498.424 603.623l-.008 2.474-7.77 4.515.005-2.47 7.773-4.519zm0 0l-.008 2.474-7.77 4.515.005-2.47 7.773-4.519zM490.651 608.141l-.006 2.471-7.686-4.438.006-2.47 7.686 4.437zm0 0l-.006 2.471-7.686-4.438.006-2.47 7.686 4.437z"/><path fill="#FFF" d="M498.424 603.623l-7.773 4.518-7.686-4.438 7.772-4.516 7.687 4.436zm0 0l-7.773 4.518-7.686-4.438 7.772-4.516 7.687 4.436z"/></g><g><path fill="#D7ECFA" d="M508.24 609.291l-.007 2.473-7.77 4.516.005-2.47 7.773-4.519zm0 0l-.007 2.473-7.77 4.516.005-2.47 7.773-4.519zM500.468 613.81l-.006 2.47-7.668-4.426.008-2.473 7.666 4.428zm0 0l-.006 2.47-7.668-4.426.008-2.473 7.666 4.428z"/><path fill="#FFF" d="M508.24 609.291l-7.772 4.518-7.666-4.428 7.77-4.516 7.669 4.426zm0 0l-7.772 4.518-7.666-4.428 7.77-4.516 7.669 4.426z"/></g><g><path fill="#D7ECFA" d="M400.108 558.339l-.006 2.473-7.77 4.516.006-2.473 7.77-4.516zm0 0l-.006 2.473-7.77 4.516.006-2.473 7.77-4.516z"/><path fill="#D7ECFA" d="M392.338 562.855l-.006 2.473-17.504-10.106.006-2.471 17.504 10.104zm0 0l-.006 2.473-17.504-10.106.006-2.471 17.504 10.104z"/><path fill="#FFF" d="M400.108 558.339l-7.77 4.516-17.504-10.104 7.772-4.518 17.502 10.106zm0 0l-7.77 4.516-17.504-10.104 7.772-4.518 17.502 10.106z"/></g><g><path fill="#D7ECFA" d="M409.925 564.006l-.006 2.474-7.772 4.516.008-2.474 7.77-4.516zm0 0l-.006 2.474-7.772 4.516.008-2.474 7.77-4.516zM402.155 568.522l-.008 2.474-7.667-4.427.006-2.473 7.669 4.426zm0 0l-.008 2.474-7.667-4.427.006-2.473 7.669 4.426z"/><path fill="#FFF" d="M409.925 564.006l-7.77 4.516-7.67-4.426 7.773-4.516 7.667 4.426zm0 0l-7.77 4.516-7.67-4.426 7.773-4.516 7.667 4.426z"/></g><g><path fill="#D7ECFA" d="M419.742 569.674l-.006 2.473-7.772 4.516.006-2.473 7.772-4.516zm0 0l-.006 2.473-7.772 4.516.006-2.473 7.772-4.516z"/><path fill="#D7ECFA" d="M411.97 574.19l-.006 2.473-7.667-4.428.006-2.471 7.667 4.426zm0 0l-.006 2.473-7.667-4.428.006-2.471 7.667 4.426z"/><path fill="#FFF" d="M419.742 569.674l-7.772 4.516-7.667-4.426 7.772-4.516 7.667 4.426zm0 0l-7.772 4.516-7.667-4.426 7.772-4.516 7.667 4.426z"/></g><g><path fill="#D7ECFA" d="M429.579 575.354l-.008 2.471-7.77 4.516.006-2.471 7.772-4.516zm0 0l-.008 2.471-7.77 4.516.006-2.471 7.772-4.516z"/><path fill="#D7ECFA" d="M421.807 579.87l-.006 2.471-7.67-4.426.009-2.473 7.667 4.428zm0 0l-.006 2.471-7.67-4.426.009-2.473 7.667 4.428z"/><path fill="#FFF" d="M429.579 575.354l-7.772 4.516-7.667-4.428 7.77-4.516 7.669 4.428zm0 0l-7.772 4.516-7.667-4.428 7.77-4.516 7.669 4.428z"/></g><g><path fill="#D7ECFA" d="M439.394 581.022l-.006 2.471-7.772 4.516.008-2.471 7.77-4.516zm0 0l-.006 2.471-7.772 4.516.008-2.471 7.77-4.516z"/><path fill="#D7ECFA" d="M431.624 585.538l-.008 2.471-7.667-4.426.008-2.473 7.667 4.428zm0 0l-.008 2.471-7.667-4.426.008-2.473 7.667 4.428z"/><path fill="#FFF" d="M439.394 581.022l-7.77 4.516-7.667-4.428 7.77-4.516 7.667 4.428zm0 0l-7.77 4.516-7.667-4.428 7.77-4.516 7.667 4.428z"/></g><g><path fill="#D7ECFA" d="M449.211 586.688l-.006 2.473-7.772 4.516.008-2.471 7.77-4.518zm0 0l-.006 2.473-7.772 4.516.008-2.471 7.77-4.518zM441.44 591.206l-.007 2.47-7.667-4.425.006-2.474 7.669 4.429zm0 0l-.007 2.47-7.667-4.425.006-2.474 7.669 4.429z"/><path fill="#FFF" d="M449.211 586.688l-7.77 4.518-7.669-4.429 7.772-4.516 7.667 4.427zm0 0l-7.77 4.518-7.669-4.429 7.772-4.516 7.667 4.427z"/></g><g><path fill="#D7ECFA" d="M459.048 592.367l-.008 2.472-7.77 4.518.006-2.474 7.772-4.516zm0 0l-.008 2.472-7.77 4.518.006-2.474 7.772-4.516z"/><path fill="#D7ECFA" d="M451.276 596.883l-.006 2.474-7.687-4.439.006-2.473 7.687 4.438zm0 0l-.006 2.474-7.687-4.439.006-2.473 7.687 4.438z"/><path fill="#FFF" d="M459.048 592.367l-7.772 4.516-7.687-4.438 7.772-4.516 7.687 4.438zm0 0l-7.772 4.516-7.687-4.438 7.772-4.516 7.687 4.438z"/></g><g><path fill="#D7ECFA" d="M468.865 598.035l-.008 2.473-7.77 4.514.006-2.47 7.772-4.517zm0 0l-.008 2.473-7.77 4.514.006-2.47 7.772-4.517z"/><path fill="#D7ECFA" d="M461.093 602.551l-.006 2.471-7.669-4.426.008-2.471 7.667 4.426zm0 0l-.006 2.471-7.669-4.426.008-2.471 7.667 4.426z"/><path fill="#FFF" d="M468.865 598.035l-7.772 4.516-7.667-4.426 7.77-4.516 7.669 4.426zm0 0l-7.772 4.516-7.667-4.426 7.77-4.516 7.669 4.426z"/></g><g><path fill="#D7ECFA" d="M478.68 603.703l-.006 2.471-7.772 4.516.008-2.471 7.77-4.516zm0 0l-.006 2.471-7.772 4.516.008-2.471 7.77-4.516z"/><path fill="#D7ECFA" d="M470.91 608.219l-.008 2.471-7.667-4.426.006-2.471 7.669 4.426zm0 0l-.008 2.471-7.667-4.426.006-2.471 7.669 4.426z"/><path fill="#FFF" d="M478.68 603.703l-7.77 4.516-7.669-4.426 7.772-4.518 7.667 4.428zm0 0l-7.77 4.516-7.669-4.426 7.772-4.518 7.667 4.428z"/></g><g><path fill="#D7ECFA" d="M498.334 615.049l-.008 2.473-7.77 4.516.006-2.473 7.772-4.516zm0 0l-.008 2.473-7.77 4.516.006-2.473 7.772-4.516z"/><path fill="#D7ECFA" d="M490.562 619.565l-.006 2.473-17.504-10.106.006-2.471 17.504 10.104zm0 0l-.006 2.473-17.504-10.106.006-2.471 17.504 10.104z"/><path fill="#FFF" d="M498.334 615.049l-7.772 4.516-17.504-10.104 7.772-4.518 17.504 10.106zm0 0l-7.772 4.516-17.504-10.104 7.772-4.518 17.504 10.106z"/></g><g><path fill="#D7ECFA" d="M400 569.776l-.008 2.471-7.77 4.516.006-2.471 7.772-4.516zm0 0l-.008 2.471-7.77 4.516.006-2.471 7.772-4.516z"/><path fill="#D7ECFA" d="M392.228 574.292l-.006 2.471-27.32-15.774.005-2.471 27.321 15.774zm0 0l-.006 2.471-27.32-15.774.005-2.471 27.321 15.774z"/><path fill="#FFF" d="M400 569.776l-7.772 4.516-27.32-15.774 7.772-4.516L400 569.776zm0 0l-7.772 4.516-27.32-15.774 7.772-4.516L400 569.776z"/></g><g><path fill="#D7ECFA" d="M409.815 575.442l-.006 2.473-7.772 4.516.008-2.471 7.77-4.518zm0 0l-.006 2.473-7.772 4.516.008-2.471 7.77-4.518z"/><path fill="#D7ECFA" d="M402.045 579.96l-.008 2.47-7.667-4.425.008-2.472 7.667 4.427zm0 0l-.008 2.47-7.667-4.425.008-2.472 7.667 4.427z"/><path fill="#FFF" d="M409.815 575.442l-7.77 4.518-7.667-4.427 7.77-4.517 7.667 4.426zm0 0l-7.77 4.518-7.667-4.427 7.77-4.517 7.667 4.426z"/></g><g><path fill="#D7ECFA" d="M419.652 581.122l-.006 2.473-7.772 4.516.008-2.474 7.77-4.515zm0 0l-.006 2.473-7.772 4.516.008-2.474 7.77-4.515z"/><path fill="#D7ECFA" d="M411.882 585.637l-.008 2.474-7.667-4.429.006-2.47 7.669 4.425zm0 0l-.008 2.474-7.667-4.429.006-2.47 7.669 4.425z"/><path fill="#FFF" d="M419.652 581.122l-7.77 4.515-7.669-4.426 7.773-4.516 7.666 4.427zm0 0l-7.77 4.515-7.669-4.426 7.773-4.516 7.666 4.427z"/></g><g><path fill="#D7ECFA" d="M429.47 586.79l-.009 2.47-7.77 4.518.006-2.473 7.772-4.516zm0 0l-.009 2.47-7.77 4.518.006-2.473 7.772-4.516zM421.697 591.305l-.006 2.473-7.669-4.428.008-2.471 7.667 4.426zm0 0l-.006 2.473-7.669-4.428.008-2.471 7.667 4.426z"/><path fill="#FFF" d="M429.47 586.79l-7.773 4.515-7.667-4.426 7.773-4.516 7.666 4.426zm0 0l-7.773 4.515-7.667-4.426 7.773-4.516 7.666 4.426z"/></g><g><path fill="#D7ECFA" d="M439.286 592.457l-.008 2.471-7.77 4.518.006-2.473 7.772-4.516zm0 0l-.008 2.471-7.77 4.518.006-2.473 7.772-4.516zM431.514 596.973l-.006 2.473-7.669-4.428.008-2.471 7.667 4.426zm0 0l-.006 2.473-7.669-4.428.008-2.471 7.667 4.426z"/><path fill="#FFF" d="M439.286 592.457l-7.772 4.516-7.667-4.426 7.77-4.516 7.67 4.426zm0 0l-7.772 4.516-7.667-4.426 7.77-4.516 7.67 4.426z"/></g><g><path fill="#D7ECFA" d="M449.121 598.137l-.006 2.471-7.772 4.516.006-2.471 7.772-4.516zm0 0l-.006 2.471-7.772 4.516.006-2.471 7.772-4.516z"/><path fill="#D7ECFA" d="M441.349 602.653l-.006 2.471-7.687-4.438.008-2.471 7.685 4.438zm0 0l-.006 2.471-7.687-4.438.008-2.471 7.685 4.438z"/><path fill="#FFF" d="M449.121 598.137l-7.772 4.516-7.685-4.438 7.77-4.518 7.687 4.44zm0 0l-7.772 4.516-7.685-4.438 7.77-4.518 7.687 4.44z"/></g><g><path fill="#D7ECFA" d="M458.938 603.803l-.008 2.473-7.77 4.516.006-2.471 7.772-4.518zm0 0l-.008 2.473-7.77 4.516.006-2.471 7.772-4.518z"/><path fill="#D7ECFA" d="M451.166 608.32l-.006 2.472-7.669-4.426.008-2.474 7.667 4.429zm0 0l-.006 2.472-7.669-4.426.008-2.474 7.667 4.429z"/><path fill="#FFF" d="M458.938 603.803l-7.772 4.518-7.667-4.429 7.773-4.516 7.666 4.427zm0 0l-7.772 4.518-7.667-4.429 7.773-4.516 7.666 4.427z"/></g><g><path fill="#D7ECFA" d="M468.755 609.47l-.008 2.474-7.77 4.516.006-2.474 7.772-4.515zm0 0l-.008 2.474-7.77 4.516.006-2.474 7.772-4.515z"/><path fill="#D7ECFA" d="M460.983 613.986l-.006 2.474-7.669-4.429.008-2.47 7.667 4.425zm0 0l-.006 2.474-7.669-4.429.008-2.47 7.667 4.425z"/><path fill="#FFF" d="M468.755 609.47l-7.772 4.516-7.667-4.426 7.77-4.516 7.67 4.427zm0 0l-7.772 4.516-7.667-4.426 7.77-4.516 7.67 4.427z"/></g><g><path fill="#D7ECFA" d="M488.407 620.818l-.006 2.471-7.772 4.516.006-2.471 7.772-4.516zm0 0l-.006 2.471-7.772 4.516.006-2.471 7.772-4.516z"/><path fill="#D7ECFA" d="M480.635 625.334l-.006 2.471-17.504-10.104.008-2.473 17.502 10.106zm0 0l-.006 2.471-17.504-10.104.008-2.473 17.502 10.106z"/><path fill="#FFF" d="M488.407 620.818l-7.772 4.516-17.502-10.106 7.77-4.516 17.504 10.106zm0 0l-7.772 4.516-17.502-10.106 7.77-4.516 17.504 10.106z"/></g><g><path fill="#D7ECFA" d="M370.44 564.186l-.006 2.473-7.773 4.516.008-2.473 7.77-4.516zm0 0l-.006 2.473-7.773 4.516.008-2.473 7.77-4.516z"/><path fill="#D7ECFA" d="M362.67 568.702l-.009 2.473-7.666-4.428.008-2.471 7.666 4.426zm0 0l-.009 2.473-7.666-4.428.008-2.471 7.666 4.426z"/><path fill="#FFF" d="M370.44 564.186l-7.77 4.516-7.667-4.426 7.77-4.516 7.667 4.426zm0 0l-7.77 4.516-7.667-4.426 7.77-4.516 7.667 4.426z"/></g><g><path fill="#D7ECFA" d="M380.277 569.864l-.008 2.473-7.77 4.516.005-2.471 7.773-4.518zm0 0l-.008 2.473-7.77 4.516.005-2.471 7.773-4.518zM372.504 574.382l-.006 2.47-7.668-4.426.008-2.473 7.666 4.429zm0 0l-.006 2.47-7.668-4.426.008-2.473 7.666 4.429z"/><path fill="#FFF" d="M380.277 569.864l-7.773 4.518-7.666-4.429 7.772-4.516 7.667 4.427zm0 0l-7.773 4.518-7.666-4.429 7.772-4.516 7.667 4.427z"/></g><g><path fill="#D7ECFA" d="M390.094 575.533l-.008 2.472-7.77 4.516.005-2.472 7.773-4.516zm0 0l-.008 2.472-7.77 4.516.005-2.472 7.773-4.516z"/><path fill="#D7ECFA" d="M382.321 580.05l-.006 2.47-7.668-4.426.008-2.473 7.666 4.428zm0 0l-.006 2.47-7.668-4.426.008-2.473 7.666 4.428z"/><path fill="#FFF" d="M390.094 575.533l-7.773 4.516-7.666-4.428 7.77-4.516 7.669 4.428zm0 0l-7.773 4.516-7.666-4.428 7.77-4.516 7.669 4.428z"/></g><g><path fill="#D7ECFA" d="M439.215 603.892l-.006 2.474-7.773 4.515.008-2.473 7.77-4.516zm0 0l-.006 2.474-7.773 4.515.008-2.473 7.77-4.516z"/><path fill="#D7ECFA" d="M431.444 608.408l-.008 2.473-46.972-27.119.006-2.473 46.974 27.12zm0 0l-.008 2.473-46.972-27.119.006-2.473 46.974 27.12z"/><path fill="#FFF" d="M439.215 603.892l-7.77 4.516-46.975-27.12 7.772-4.515 46.973 27.12zm0 0l-7.77 4.516-46.975-27.12 7.772-4.515 46.973 27.12z"/></g><g><path fill="#D7ECFA" d="M449.032 609.56l-.006 2.471-7.773 4.518.006-2.473 7.773-4.516zm0 0l-.006 2.471-7.773 4.518.006-2.473 7.773-4.516z"/><path fill="#D7ECFA" d="M441.26 614.076l-.007 2.473-7.668-4.426.008-2.473 7.666 4.426zm0 0l-.007 2.473-7.668-4.426.008-2.473 7.666 4.426z"/><path fill="#FFF" d="M449.032 609.56l-7.773 4.516-7.666-4.426 7.772-4.516 7.667 4.426zm0 0l-7.773 4.516-7.666-4.426 7.772-4.516 7.667 4.426z"/></g><g><path fill="#D7ECFA" d="M458.849 615.228l-.008 2.473-7.77 4.516.005-2.473 7.773-4.516zm0 0l-.008 2.473-7.77 4.516.005-2.473 7.773-4.516z"/><path fill="#D7ECFA" d="M451.076 619.744l-.006 2.473-7.668-4.426.008-2.473 7.666 4.426zm0 0l-.006 2.473-7.668-4.426.008-2.473 7.666 4.426z"/><path fill="#FFF" d="M458.849 615.228l-7.773 4.516-7.666-4.426 7.77-4.516 7.669 4.426zm0 0l-7.773 4.516-7.666-4.426 7.77-4.516 7.669 4.426z"/></g><g><path fill="#D7ECFA" d="M478.5 626.576l-.007 2.47-7.77 4.517.005-2.472 7.773-4.515zm0 0l-.007 2.47-7.77 4.517.005-2.472 7.773-4.515zM470.728 631.091l-.006 2.472-17.503-10.106.008-2.472 17.501 10.106zm0 0l-.006 2.472-17.503-10.106.008-2.472 17.501 10.106z"/><path fill="#FFF" d="M478.5 626.576l-7.772 4.515-17.501-10.106 7.77-4.515 17.504 10.106zm0 0l-7.772 4.515-17.501-10.106 7.77-4.515 17.504 10.106z"/></g><g><path fill="#11CDEF" d="M593.71 671.402c-10.357 5.979-27.145 5.979-37.502 0-10.357-5.979-10.357-15.674 0-21.653 10.357-5.979 27.145-5.979 37.502 0 10.357 5.979 10.357 15.674 0 21.653zm0 0c-10.357 5.979-27.145 5.979-37.502 0-10.357-5.979-10.357-15.674 0-21.653 10.357-5.979 27.145-5.979 37.502 0 10.357 5.979 10.357 15.674 0 21.653z"/><path fill="#11CDEF" d="M601.479 660.574H548.44v-44.338h53.038v44.338zm0 0H548.44v-44.338h53.038v44.338z"/><path fill="#FFF" d="M593.712 627.062c-10.357 5.979-27.147 5.979-37.504 0s-10.357-15.674 0-21.653c10.357-5.979 27.147-5.979 37.504 0s10.355 15.674 0 21.653zm0 0c-10.357 5.979-27.147 5.979-37.504 0s-10.357-15.674 0-21.653c10.357-5.979 27.147-5.979 37.504 0s10.355 15.674 0 21.653z"/><path fill="#EBEBEB" d="M595.13 619.53c-1.037 1.436-2.671 2.79-4.923 3.947-8.25 4.225-21.603 4.225-29.854 0-2.252-1.156-3.886-2.511-4.903-3.946-2.73-3.827-1.096-8.29 4.903-11.36 8.25-4.225 21.603-4.225 29.854 0 5.998 3.07 7.632 7.533 4.922 11.36zm0 0c-1.037 1.436-2.671 2.79-4.923 3.947-8.25 4.225-21.603 4.225-29.854 0-2.252-1.156-3.886-2.511-4.903-3.946-2.73-3.827-1.096-8.29 4.903-11.36 8.25-4.225 21.603-4.225 29.854 0 5.998 3.07 7.632 7.533 4.922 11.36z"/><path fill="#544438" d="M595.13 619.53c-1.037 1.436-2.671 2.79-4.923 3.947-8.25 4.225-21.603 4.225-29.854 0-2.252-1.156-3.886-2.511-4.903-3.946 1.017-1.435 2.651-2.79 4.903-3.946 8.25-4.225 21.603-4.225 29.854 0 2.252 1.156 3.886 2.51 4.922 3.946zm0 0c-1.037 1.436-2.671 2.79-4.923 3.947-8.25 4.225-21.603 4.225-29.854 0-2.252-1.156-3.886-2.511-4.903-3.946 1.017-1.435 2.651-2.79 4.903-3.946 8.25-4.225 21.603-4.225 29.854 0 2.252 1.156 3.886 2.51 4.922 3.946z"/></g><g><path fill="#FFF" d="M376.972 537.613l-64.681-37.343 91.476-52.814 64.681 37.343-91.476 52.814zm0 0l-64.681-37.343 91.476-52.814 64.681 37.343-91.476 52.814z"/><path fill="#4661AD" d="M378.272 524.964l-58.406-33.72 82.602-47.69 58.405 33.72-82.601 47.69zm0 0l-58.406-33.72 82.602-47.69 58.405 33.72-82.601 47.69z"/></g><g><path fill="#0B246E" d="M514.955 578.21l-42.194-24.361c-2.716-1.569-2.716-5.487 0-7.055l48.043-27.737 54.157 31.266-48.302 27.887a11.705 11.705 0 01-11.704 0zm0 0l-42.194-24.361c-2.716-1.569-2.716-5.487 0-7.055l48.043-27.737 54.157 31.266-48.302 27.887a11.705 11.705 0 01-11.704 0z"/><path fill="#0B246E" d="M446.265 328.868l-6.172 4.173 6.001 152.672 195.84 119.776 5.606-3.763a3.15 3.15 0 001.393-2.615V447.605a4.81 4.81 0 00-2.405-4.167L448.029 328.806a1.662 1.662 0 00-1.764.062zm0 0l-6.172 4.173 6.001 152.672 195.84 119.776 5.606-3.763a3.15 3.15 0 001.393-2.615V447.605a4.81 4.81 0 00-2.405-4.167L448.029 328.806a1.662 1.662 0 00-1.764.062z"/><path fill="#11CDEF" d="M639.529 447.256a5.997 5.997 0 012.997 5.194v151.468c0 1.37-1.48 2.224-2.666 1.54L444.418 492.608a9.467 9.467 0 01-4.731-8.199V334.046a1.26 1.26 0 011.89-1.092m197.952 114.302a5.997 5.997 0 012.997 5.194v151.468c0 1.37-1.48 2.224-2.666 1.54L444.418 492.608a9.467 9.467 0 01-4.731-8.199V334.046a1.26 1.26 0 011.89-1.092"/><path fill="#FFF" d="M439.687 460.944v-121.44l202.58 117.001.26 121.565-202.84-117.126zm0 0v-121.44l202.58 117.001.26 121.565-202.84-117.126z"/><path stroke-dasharray="69 5" stroke-dashoffset="63" stroke="#11CDEF" stroke-width="2" d="M21.721-102.283h20.166" fill="none" transform="matrix(1.9929 1.1506 0 1.9929 537.913 706.339)"/><path stroke-dasharray="69 5" stroke-dashoffset="63" stroke="#11CDEF" stroke-width="2" d="M-38.166-102.283h56.285" fill="none" transform="matrix(1.9929 1.1506 0 1.9929 537.913 696.374)"/><path stroke-dasharray="69 5" stroke-dashoffset="63" stroke="#11CDEF" stroke-width="2" d="M-38.166-102.283h80.053" fill="none" transform="matrix(1.9929 1.1506 0 1.9929 537.913 686.41)"/><path stroke-dasharray="69 5" stroke-dashoffset="63" stroke="#11CDEF" stroke-width="2" d="M-38.166-102.283h80.053" fill="none" transform="matrix(1.9929 1.1506 0 1.9929 537.913 676.445)"/><path stroke-dasharray="69 5" stroke-dashoffset="63" stroke="#11CDEF" stroke-width="2" d="M-38.166-102.283h80.053" fill="none" transform="matrix(1.9929 1.1506 0 1.9929 537.913 666.48)"/><path stroke-dasharray="69 5" stroke-dashoffset="63" stroke="#11CDEF" stroke-width="2" d="M-38.166-102.283h80.053" fill="none" transform="matrix(1.9929 1.1506 0 1.9929 537.913 656.516)"/><path stroke-dasharray="69 5" stroke-dashoffset="63" stroke="#11CDEF" stroke-width="2" d="M-38.166-102.283h80.053" fill="none" transform="matrix(1.9929 1.1506 0 1.9929 537.913 646.552)"/><path stroke-dasharray="69 5" stroke-dashoffset="63" stroke="#11CDEF" stroke-width="2" d="M-8.771-102.283h50.658" fill="none" transform="matrix(1.9929 1.1506 0 1.9929 537.913 636.587)"/><path stroke-dasharray="69 5" stroke-dashoffset="63" stroke="#11CDEF" stroke-width="2" d="M-38.166-102.283h65.42" fill="none" transform="matrix(1.9929 1.1506 0 1.9929 537.913 626.623)"/><path stroke-dasharray="69 5" stroke-dashoffset="63" stroke="#11CDEF" stroke-width="2" d="M-38.166-102.283h80.053" fill="none" transform="matrix(1.9929 1.1506 0 1.9929 537.913 616.658)"/></g><g><path fill="#11CDEF" d="M705.039 411.271l-155.174-88.305v-76.745l155.174 88.306v76.744zm0 0l-155.174-88.305v-76.745l155.174 88.306v76.744z"/><path fill="#0B246E" d="M591.108 289.2v38.25l-4.912-2.836V307.38l-17.279-9.975v17.233l-4.936-2.85v-38.25l4.936 2.85v16.888l17.279 9.976v-16.888l4.912 2.836zm0 0v38.25l-4.912-2.836V307.38l-17.279-9.975v17.233l-4.936-2.85v-38.25l4.936 2.85v16.888l17.279 9.976v-16.888l4.912 2.836zM621.883 311.71l-10.519-6.074v33.508l-4.892-2.824v-33.508l-10.565-6.098v-4.744l25.976 14.999v4.741zm0 0l-10.519-6.074v33.508l-4.892-2.824v-33.508l-10.565-6.098v-4.744l25.976 14.999v4.741zM661.49 329.836v38.25l-4.291-2.478v-27.223c0-.408.01-.837.034-1.285.024-.449.052-.903.082-1.365l-11.027 16.995c-.385.648-.977.741-1.778.279l-.691-.4c-.8-.463-1.383-1.234-1.752-2.316l-11.236-29.928c.094 1.049.14 2.01.14 2.878v27.221l-4.315-2.49v-38.249l3.645 2.103c.43.249.763.492 1.002.727.24.235.467.636.682 1.204l11.072 29.301c.216.586.415 1.19.6 1.812a98.1 98.1 0 01.53 1.85c.323-.862.702-1.657 1.132-2.384l10.864-16.607c.2-.329.418-.472.657-.432.24.04.574.183 1.005.432l3.645 2.105zm0 0v38.25l-4.291-2.478v-27.223c0-.408.01-.837.034-1.285.024-.449.052-.903.082-1.365l-11.027 16.995c-.385.648-.977.741-1.778.279l-.691-.4c-.8-.463-1.383-1.234-1.752-2.316l-11.236-29.928c.094 1.049.14 2.01.14 2.878v27.221l-4.315-2.49v-38.249l3.645 2.103c.43.249.763.492 1.002.727.24.235.467.636.682 1.204l11.072 29.301c.216.586.415 1.19.6 1.812a98.1 98.1 0 01.53 1.85c.323-.862.702-1.657 1.132-2.384l10.864-16.607c.2-.329.418-.472.657-.432.24.04.574.183 1.005.432l3.645 2.105zM688.64 378.994v4.767l-18.96-10.947v-38.251l4.913 2.838v33.482l14.048 8.111zm0 0v4.767l-18.96-10.947v-38.251l4.913 2.838v33.482l14.048 8.111z"/></g><g><path fill="#0B246E" d="M374.36 404.282l-120.179-67.136v-76.747l120.18 67.139v76.744zm0 0l-120.179-67.136v-76.747l120.18 67.139v76.744z"/><path fill="#36E7F7" d="M298.481 334.405c.277.16.514.42.716.785l1.939 3.572c-1.355 1.066-3.004 1.542-4.949 1.43-1.945-.11-4.286-.956-7.025-2.536a28.122 28.122 0 01-6.516-5.202 33.908 33.908 0 01-4.983-6.9 35.849 35.849 0 01-3.194-8.023 33.189 33.189 0 01-1.132-8.563c0-2.876.396-5.283 1.188-7.224.79-1.94 1.905-3.36 3.334-4.257 1.43-.897 3.139-1.25 5.131-1.058 1.993.19 4.195.982 6.61 2.377a27.38 27.38 0 016.275 4.954 36.815 36.815 0 014.775 6.3l-1.615 1.706a.667.667 0 01-.402.245c-.164.032-.373-.03-.634-.18-.293-.169-.638-.533-1.028-1.097a35.274 35.274 0 00-1.545-2.025c-.638-.785-1.427-1.62-2.365-2.5-.94-.878-2.107-1.721-3.506-2.528-1.646-.95-3.155-1.489-4.522-1.613-1.371-.125-2.549.154-3.541.834-.99.68-1.762 1.77-2.306 3.276-.546 1.504-.82 3.402-.82 5.694 0 2.325.284 4.557.854 6.698a26.796 26.796 0 002.351 5.966c1 1.838 2.179 3.476 3.532 4.915 1.353 1.439 2.814 2.61 4.382 3.517.953.55 1.812.977 2.573 1.284.761.307 1.459.512 2.099.614a5.76 5.76 0 001.81.02 6.014 6.014 0 001.683-.535.869.869 0 01.831.054zm0 0c.277.16.514.42.716.785l1.939 3.572c-1.355 1.066-3.004 1.542-4.949 1.43-1.945-.11-4.286-.956-7.025-2.536a28.122 28.122 0 01-6.516-5.202 33.908 33.908 0 01-4.983-6.9 35.849 35.849 0 01-3.194-8.023 33.189 33.189 0 01-1.132-8.563c0-2.876.396-5.283 1.188-7.224.79-1.94 1.905-3.36 3.334-4.257 1.43-.897 3.139-1.25 5.131-1.058 1.993.19 4.195.982 6.61 2.377a27.38 27.38 0 016.275 4.954 36.815 36.815 0 014.775 6.3l-1.615 1.706a.667.667 0 01-.402.245c-.164.032-.373-.03-.634-.18-.293-.169-.638-.533-1.028-1.097a35.274 35.274 0 00-1.545-2.025c-.638-.785-1.427-1.62-2.365-2.5-.94-.878-2.107-1.721-3.506-2.528-1.646-.95-3.155-1.489-4.522-1.613-1.371-.125-2.549.154-3.541.834-.99.68-1.762 1.77-2.306 3.276-.546 1.504-.82 3.402-.82 5.694 0 2.325.284 4.557.854 6.698a26.796 26.796 0 002.351 5.966c1 1.838 2.179 3.476 3.532 4.915 1.353 1.439 2.814 2.61 4.382 3.517.953.55 1.812.977 2.573 1.284.761.307 1.459.512 2.099.614a5.76 5.76 0 001.81.02 6.014 6.014 0 001.683-.535.869.869 0 01.831.054zM323.233 324.883c-.153.213-.315.343-.484.387-.17.044-.385-.01-.646-.162-.277-.159-.592-.488-.945-.984a44.087 44.087 0 00-1.327-1.752 22.204 22.204 0 00-1.903-2.084c-.737-.72-1.624-1.378-2.655-1.971-.968-.558-1.817-.905-2.547-1.033-.73-.13-1.343-.081-1.835.14-.492.221-.865.602-1.118 1.14-.255.536-.38 1.205-.38 2.005 0 1.03.227 2.012.679 2.95.454.936 1.052 1.858 1.79 2.763a29.451 29.451 0 002.513 2.703c.938.896 1.899 1.82 2.883 2.77a61.13 61.13 0 012.884 2.983 23.807 23.807 0 012.515 3.33 17.85 17.85 0 011.788 3.803c.454 1.353.68 2.822.68 4.402 0 1.688-.252 3.12-.75 4.307-.5 1.185-1.228 2.054-2.18 2.604-.953.552-2.125.74-3.518.566-1.393-.173-2.971-.77-4.739-1.791a23.378 23.378 0 01-3.093-2.145c-1-.817-1.945-1.7-2.836-2.65a31.93 31.93 0 01-2.503-3.015 30.056 30.056 0 01-2.088-3.27l1.407-1.906a.903.903 0 01.496-.245c.191-.032.41.022.658.165.322.186.695.598 1.118 1.232a48.13 48.13 0 001.57 2.198c.622.83 1.367 1.69 2.236 2.583.869.893 1.927 1.698 3.173 2.417 1.014.586 1.923.955 2.722 1.106.8.152 1.473.096 2.019-.165.544-.263.964-.718 1.255-1.365.293-.648.439-1.471.439-2.465a7.404 7.404 0 00-.668-3.13 13.258 13.258 0 00-1.778-2.81 27.576 27.576 0 00-2.513-2.676 677.185 677.185 0 01-2.885-2.718 58.901 58.901 0 01-2.882-2.93 21.75 21.75 0 01-2.515-3.33 17.45 17.45 0 01-1.776-3.928c-.446-1.42-.67-2.983-.67-4.687 0-1.367.232-2.559.692-3.571.463-1.013 1.134-1.756 2.019-2.23.883-.475 1.971-.638 3.264-.487 1.292.152 2.77.708 4.43 1.666a24.122 24.122 0 015.132 3.988 27.593 27.593 0 014.072 5.295l-1.2 1.997zm0 0c-.153.213-.315.343-.484.387-.17.044-.385-.01-.646-.162-.277-.159-.592-.488-.945-.984a44.087 44.087 0 00-1.327-1.752 22.204 22.204 0 00-1.903-2.084c-.737-.72-1.624-1.378-2.655-1.971-.968-.558-1.817-.905-2.547-1.033-.73-.13-1.343-.081-1.835.14-.492.221-.865.602-1.118 1.14-.255.536-.38 1.205-.38 2.005 0 1.03.227 2.012.679 2.95.454.936 1.052 1.858 1.79 2.763a29.451 29.451 0 002.513 2.703c.938.896 1.899 1.82 2.883 2.77a61.13 61.13 0 012.884 2.983 23.807 23.807 0 012.515 3.33 17.85 17.85 0 011.788 3.803c.454 1.353.68 2.822.68 4.402 0 1.688-.252 3.12-.75 4.307-.5 1.185-1.228 2.054-2.18 2.604-.953.552-2.125.74-3.518.566-1.393-.173-2.971-.77-4.739-1.791a23.378 23.378 0 01-3.093-2.145c-1-.817-1.945-1.7-2.836-2.65a31.93 31.93 0 01-2.503-3.015 30.056 30.056 0 01-2.088-3.27l1.407-1.906a.903.903 0 01.496-.245c.191-.032.41.022.658.165.322.186.695.598 1.118 1.232a48.13 48.13 0 001.57 2.198c.622.83 1.367 1.69 2.236 2.583.869.893 1.927 1.698 3.173 2.417 1.014.586 1.923.955 2.722 1.106.8.152 1.473.096 2.019-.165.544-.263.964-.718 1.255-1.365.293-.648.439-1.471.439-2.465a7.404 7.404 0 00-.668-3.13 13.258 13.258 0 00-1.778-2.81 27.576 27.576 0 00-2.513-2.676 677.185 677.185 0 01-2.885-2.718 58.901 58.901 0 01-2.882-2.93 21.75 21.75 0 01-2.515-3.33 17.45 17.45 0 01-1.776-3.928c-.446-1.42-.67-2.983-.67-4.687 0-1.367.232-2.559.692-3.571.463-1.013 1.134-1.756 2.019-2.23.883-.475 1.971-.638 3.264-.487 1.292.152 2.77.708 4.43 1.666a24.122 24.122 0 015.132 3.988 27.593 27.593 0 014.072 5.295l-1.2 1.997zM348.332 339.374c-.154.213-.315.342-.485.386-.169.044-.386-.01-.647-.161-.277-.16-.592-.488-.945-.985a44.097 44.097 0 00-1.327-1.751 22.168 22.168 0 00-1.901-2.085c-.738-.72-1.625-1.377-2.655-1.971-.969-.558-1.818-.905-2.547-1.032-.731-.13-1.343-.08-1.835.141-.493.221-.865.602-1.118 1.138-.255.538-.381 1.204-.381 2.003 0 1.03.227 2.015.68 2.951.454.937 1.05 1.86 1.787 2.765a29.48 29.48 0 002.515 2.702c.939.897 1.9 1.82 2.884 2.77s1.945 1.943 2.884 2.983a23.794 23.794 0 012.513 3.33 17.947 17.947 0 011.787 3.803c.455 1.353.682 2.822.682 4.402 0 1.686-.251 3.121-.75 4.307-.5 1.186-1.227 2.055-2.18 2.605-.952.552-2.126.74-3.52.566-1.39-.174-2.97-.772-4.738-1.792a23.36 23.36 0 01-3.091-2.144c-1-.817-1.947-1.7-2.838-2.65a31.929 31.929 0 01-2.503-3.016 30.25 30.25 0 01-2.089-3.27l1.41-1.906a.903.903 0 01.495-.245c.192-.032.411.022.658.166.323.187.696.598 1.118 1.231.423.636.945 1.367 1.569 2.198.621.83 1.369 1.69 2.238 2.583.868.893 1.927 1.698 3.172 2.418 1.015.586 1.921.954 2.72 1.106.8.15 1.473.095 2.02-.166.543-.263.964-.717 1.257-1.365.29-.648.438-1.47.438-2.465 0-1.12-.223-2.162-.667-3.129a13.27 13.27 0 00-1.778-2.812 27.59 27.59 0 00-2.515-2.674c-.939-.88-1.9-1.786-2.884-2.719a58.929 58.929 0 01-2.883-2.93 21.737 21.737 0 01-2.513-3.33 17.455 17.455 0 01-1.778-3.927c-.447-1.421-.668-2.984-.668-4.688 0-1.367.231-2.557.692-3.569.462-1.012 1.134-1.758 2.019-2.232.882-.474 1.97-.638 3.264-.486 1.291.151 2.768.707 4.428 1.666a24.133 24.133 0 015.134 3.988 27.593 27.593 0 014.071 5.295l-1.2 1.997zm0 0c-.154.213-.315.342-.485.386-.169.044-.386-.01-.647-.161-.277-.16-.592-.488-.945-.985a44.097 44.097 0 00-1.327-1.751 22.168 22.168 0 00-1.901-2.085c-.738-.72-1.625-1.377-2.655-1.971-.969-.558-1.818-.905-2.547-1.032-.731-.13-1.343-.08-1.835.141-.493.221-.865.602-1.118 1.138-.255.538-.381 1.204-.381 2.003 0 1.03.227 2.015.68 2.951.454.937 1.05 1.86 1.787 2.765a29.48 29.48 0 002.515 2.702c.939.897 1.9 1.82 2.884 2.77s1.945 1.943 2.884 2.983a23.794 23.794 0 012.513 3.33 17.947 17.947 0 011.787 3.803c.455 1.353.682 2.822.682 4.402 0 1.686-.251 3.121-.75 4.307-.5 1.186-1.227 2.055-2.18 2.605-.952.552-2.126.74-3.52.566-1.39-.174-2.97-.772-4.738-1.792a23.36 23.36 0 01-3.091-2.144c-1-.817-1.947-1.7-2.838-2.65a31.929 31.929 0 01-2.503-3.016 30.25 30.25 0 01-2.089-3.27l1.41-1.906a.903.903 0 01.495-.245c.192-.032.411.022.658.166.323.187.696.598 1.118 1.231.423.636.945 1.367 1.569 2.198.621.83 1.369 1.69 2.238 2.583.868.893 1.927 1.698 3.172 2.418 1.015.586 1.921.954 2.72 1.106.8.15 1.473.095 2.02-.166.543-.263.964-.717 1.257-1.365.29-.648.438-1.47.438-2.465 0-1.12-.223-2.162-.667-3.129a13.27 13.27 0 00-1.778-2.812 27.59 27.59 0 00-2.515-2.674c-.939-.88-1.9-1.786-2.884-2.719a58.929 58.929 0 01-2.883-2.93 21.737 21.737 0 01-2.513-3.33 17.455 17.455 0 01-1.778-3.927c-.447-1.421-.668-2.984-.668-4.688 0-1.367.231-2.557.692-3.569.462-1.012 1.134-1.758 2.019-2.232.882-.474 1.97-.638 3.264-.486 1.291.151 2.768.707 4.428 1.666a24.133 24.133 0 015.134 3.988 27.593 27.593 0 014.071 5.295l-1.2 1.997z"/></g><g><path fill="#4661AD" d="M827.904 631.294l-120.182-67.137v-76.745l120.182 67.137v76.745zm0 0l-120.182-67.137v-76.745l120.182 67.137v76.745z"/><path fill="#88F7FF" d="M736.372 521.357c2.122 1.226 3.968 2.573 5.536 4.048 1.569 1.475 2.868 3.027 3.898 4.661a19.522 19.522 0 012.296 5.094c.5 1.762.75 3.541.75 5.335s-.27 3.284-.808 4.474c-.538 1.19-1.33 2.025-2.377 2.503-1.044.48-2.35.568-3.91.261-1.56-.305-3.354-1.046-5.385-2.218l-5.122-2.957v14.092l-4.914-2.838v-38.25l10.036 5.795zm0 0c2.122 1.226 3.968 2.573 5.536 4.048 1.569 1.475 2.868 3.027 3.898 4.661a19.522 19.522 0 012.296 5.094c.5 1.762.75 3.541.75 5.335s-.27 3.284-.808 4.474c-.538 1.19-1.33 2.025-2.377 2.503-1.044.48-2.35.568-3.91.261-1.56-.305-3.354-1.046-5.385-2.218l-5.122-2.957v14.092l-4.914-2.838v-38.25l10.036 5.795zm0 19.684c1.246.72 2.342 1.166 3.286 1.337.947.174 1.738.102 2.378-.213.638-.315 1.118-.855 1.44-1.618.326-.763.485-1.722.485-2.876 0-2.326-.628-4.518-1.881-6.572-1.254-2.055-3.157-3.823-5.708-5.296l-5.122-2.957v15.238l5.122 2.957zm0 0c1.246.72 2.342 1.166 3.286 1.337.947.174 1.738.102 2.378-.213.638-.315 1.118-.855 1.44-1.618.326-.763.485-1.722.485-2.876 0-2.326-.628-4.518-1.881-6.572-1.254-2.055-3.157-3.823-5.708-5.296l-5.122-2.957v15.238l5.122 2.957zM781.378 547.34v38.25l-4.915-2.835V565.52l-17.278-9.977v17.235l-4.937-2.85v-38.25l4.937 2.85v16.886l17.278 9.977v-16.888l4.915 2.838zm0 0v38.25l-4.915-2.835V565.52l-17.278-9.977v17.235l-4.937-2.85v-38.25l4.937 2.85v16.886l17.278 9.977v-16.888l4.915 2.838zM799.6 557.863c2.123 1.226 3.969 2.573 5.537 4.048s2.87 3.027 3.9 4.661a19.515 19.515 0 012.294 5.094c.5 1.762.75 3.54.75 5.333 0 1.794-.268 3.286-.806 4.476s-1.331 2.025-2.377 2.503c-1.045.48-2.35.568-3.91.261-1.56-.305-3.356-1.046-5.387-2.218l-5.122-2.957v14.091l-4.912-2.837v-38.25l10.034 5.795zm0 0c2.123 1.226 3.969 2.573 5.537 4.048s2.87 3.027 3.9 4.661a19.515 19.515 0 012.294 5.094c.5 1.762.75 3.54.75 5.333 0 1.794-.268 3.286-.806 4.476s-1.331 2.025-2.377 2.503c-1.045.48-2.35.568-3.91.261-1.56-.305-3.356-1.046-5.387-2.218l-5.122-2.957v14.091l-4.912-2.837v-38.25l10.034 5.795zm0 19.684c1.246.72 2.342 1.166 3.287 1.337.947.174 1.738.104 2.378-.21.637-.316 1.118-.858 1.44-1.621.325-.763.487-1.72.487-2.876 0-2.326-.628-4.518-1.882-6.572-1.253-2.055-3.156-3.823-5.71-5.296l-5.121-2.955v15.236l5.122 2.957zm0 0c1.246.72 2.342 1.166 3.287 1.337.947.174 1.738.104 2.378-.21.637-.316 1.118-.858 1.44-1.621.325-.763.487-1.72.487-2.876 0-2.326-.628-4.518-1.882-6.572-1.253-2.055-3.156-3.823-5.71-5.296l-5.121-2.955v15.236l5.122 2.957z"/></g><g><path fill="#0B246E" d="M927.69 391.292l-82.603-46.237v-76.747l82.604 46.24v76.744zm0 0l-82.603-46.237v-76.747l82.604 46.24v76.744z"/><path fill="#FFF" d="M878.303 330.89c0 2.13-.23 3.915-.692 5.354-.46 1.439-1.136 2.493-2.018 3.163-.885.67-1.985.94-3.3.811-1.314-.128-2.825-.684-4.533-1.67-1.538-.887-3.12-2.05-4.75-3.49l.276-3.196c.03-.303.136-.504.311-.606.178-.102.44-.052.795.153.261.15.62.433 1.073.845.452.413 1.05.831 1.787 1.258.985.568 1.86.905 2.62 1.006.76.102 1.404-.056 1.926-.472.522-.419.919-1.108 1.188-2.07.269-.965.404-2.227.404-3.79v-25.064l4.913 2.836v24.931zm0 0c0 2.13-.23 3.915-.692 5.354-.46 1.439-1.136 2.493-2.018 3.163-.885.67-1.985.94-3.3.811-1.314-.128-2.825-.684-4.533-1.67-1.538-.887-3.12-2.05-4.75-3.49l.276-3.196c.03-.303.136-.504.311-.606.178-.102.44-.052.795.153.261.15.62.433 1.073.845.452.413 1.05.831 1.787 1.258.985.568 1.86.905 2.62 1.006.76.102 1.404-.056 1.926-.472.522-.419.919-1.108 1.188-2.07.269-.965.404-2.227.404-3.79v-25.064l4.913 2.836v24.931zM903.286 326.614c-.154.214-.315.343-.484.387-.17.044-.385-.008-.646-.16-.277-.159-.592-.488-.945-.984a44.116 44.116 0 00-1.327-1.752 22.208 22.208 0 00-1.903-2.084c-.738-.72-1.624-1.38-2.655-1.973-.968-.558-1.817-.903-2.547-1.03-.731-.13-1.343-.082-1.835.139-.492.221-.865.6-1.118 1.138-.255.536-.38 1.206-.38 2.005 0 1.03.224 2.013.679 2.95.454.936 1.052 1.859 1.79 2.763a29.454 29.454 0 002.512 2.703c.94.897 1.9 1.821 2.884 2.772.985.95 1.945 1.945 2.884 2.983a23.774 23.774 0 012.513 3.328 17.856 17.856 0 011.79 3.803c.452 1.355.68 2.822.68 4.402 0 1.686-.252 3.123-.75 4.309-.5 1.186-1.228 2.053-2.18 2.603-.953.552-2.125.739-3.518.566-1.393-.174-2.971-.772-4.739-1.792a23.379 23.379 0 01-3.093-2.144c-1-.817-1.945-1.698-2.836-2.649a31.954 31.954 0 01-2.503-3.017 30.253 30.253 0 01-2.089-3.27l1.407-1.904a.906.906 0 01.497-.247c.191-.032.41.022.657.166.323.187.696.6 1.118 1.233.423.636.947 1.367 1.57 2.198.623.83 1.368 1.69 2.237 2.583.869.893 1.927 1.698 3.173 2.417 1.014.586 1.923.955 2.722 1.107.799.149 1.473.093 2.019-.168.544-.263.962-.717 1.255-1.365.291-.648.439-1.469.439-2.463a7.413 7.413 0 00-.668-3.131 13.258 13.258 0 00-1.778-2.81 27.574 27.574 0 00-2.513-2.677 677.22 677.22 0 01-2.885-2.718 58.902 58.902 0 01-2.882-2.93 21.733 21.733 0 01-2.515-3.328c-.738-1.2-1.33-2.509-1.776-3.93-.446-1.42-.67-2.983-.67-4.687 0-1.367.232-2.557.692-3.57.462-1.012 1.134-1.757 2.019-2.231.883-.474 1.97-.636 3.264-.484 1.292.151 2.77.705 4.43 1.664a24.122 24.122 0 015.132 3.987 27.592 27.592 0 014.072 5.296l-1.2 1.996zm0 0c-.154.214-.315.343-.484.387-.17.044-.385-.008-.646-.16-.277-.159-.592-.488-.945-.984a44.116 44.116 0 00-1.327-1.752 22.208 22.208 0 00-1.903-2.084c-.738-.72-1.624-1.38-2.655-1.973-.968-.558-1.817-.903-2.547-1.03-.731-.13-1.343-.082-1.835.139-.492.221-.865.6-1.118 1.138-.255.536-.38 1.206-.38 2.005 0 1.03.224 2.013.679 2.95.454.936 1.052 1.859 1.79 2.763a29.454 29.454 0 002.512 2.703c.94.897 1.9 1.821 2.884 2.772.985.95 1.945 1.945 2.884 2.983a23.774 23.774 0 012.513 3.328 17.856 17.856 0 011.79 3.803c.452 1.355.68 2.822.68 4.402 0 1.686-.252 3.123-.75 4.309-.5 1.186-1.228 2.053-2.18 2.603-.953.552-2.125.739-3.518.566-1.393-.174-2.971-.772-4.739-1.792a23.379 23.379 0 01-3.093-2.144c-1-.817-1.945-1.698-2.836-2.649a31.954 31.954 0 01-2.503-3.017 30.253 30.253 0 01-2.089-3.27l1.407-1.904a.906.906 0 01.497-.247c.191-.032.41.022.657.166.323.187.696.6 1.118 1.233.423.636.947 1.367 1.57 2.198.623.83 1.368 1.69 2.237 2.583.869.893 1.927 1.698 3.173 2.417 1.014.586 1.923.955 2.722 1.107.799.149 1.473.093 2.019-.168.544-.263.962-.717 1.255-1.365.291-.648.439-1.469.439-2.463a7.413 7.413 0 00-.668-3.131 13.258 13.258 0 00-1.778-2.81 27.574 27.574 0 00-2.513-2.677 677.22 677.22 0 01-2.885-2.718 58.902 58.902 0 01-2.882-2.93 21.733 21.733 0 01-2.515-3.328c-.738-1.2-1.33-2.509-1.776-3.93-.446-1.42-.67-2.983-.67-4.687 0-1.367.232-2.557.692-3.57.462-1.012 1.134-1.757 2.019-2.231.883-.474 1.97-.636 3.264-.484 1.292.151 2.77.705 4.43 1.664a24.122 24.122 0 015.132 3.987 27.592 27.592 0 014.072 5.296l-1.2 1.996z"/></g></g><g display="block"><path fill="#0B246E" d="M214.05 954.025c0 4.717-3.31 10.453-7.395 12.812-4.085 2.36-7.398.447-7.398-4.27 0-4.718 3.313-10.453 7.398-12.813 4.086-2.36 7.396-.446 7.396 4.271z"/><path fill="#0B246E" d="M207.976 950.244c1.445 4.49.048 10.965-3.119 14.461-3.166 3.496-6.905 2.69-8.35-1.8-1.445-4.49-.048-10.967 3.12-14.462 3.166-3.496 6.905-2.689 8.35 1.801zM343.346 822.157s.767 24.9 4.215 33.71c3.448 8.81 11.874 8.047 18.387 7.28 6.512-.766 22.984-12.593 31.03-20.28 8.044-7.687 24.9-6.214 38.309-25.146 13.408-18.933 0-26.978-4.215-27.36-4.213-.384-26.35 17.32-43.8 10.332l-43.926 21.464z"/><path fill="#425CA3" d="M176.696 696.626s142.514-46.909 169.592-27.54c25.335 18.124 21.22 72.621 40.984 131.607a6.446 6.446 0 01-.198 4.65c-3.043 6.91-14.2 25.712-44.089 20.822 0 0-16.57-43.149-27.83-88.19 0 0-111.015 71.537-136.319 52.99-25.304-18.545-2.14-94.339-2.14-94.339z"/><path fill="#0B246E" d="M118.51 900.434l93.67-16.5-8.516 69.722 8.515 2.129 16.5-71.85 87.283 35.926 4.79-5.144-83.026-39.296 62.803-28.742-6.92-3.192-69.598 23.757-36.846-23.757-9.413 2.128 33.363 27.676-90.477 20.226-2.129 6.917z"/><path fill="#0B246E" d="M130.373 890.862c0 4.717-3.312 10.453-7.398 12.812-4.085 2.36-7.397.447-7.397-4.27 0-4.718 3.312-10.451 7.397-12.81 4.086-2.36 7.398-.45 7.398 4.268z"/><path fill="#0B246E" d="M133.707 892.787c0 4.717-3.312 10.453-7.398 12.813-4.085 2.36-7.395.446-7.395-4.271s3.31-10.451 7.395-12.81c4.086-2.36 7.398-.449 7.398 4.268zM324.007 912.314c0 4.717-3.31 10.45-7.396 12.81-4.085 2.36-7.397.446-7.397-4.27 0-4.718 3.312-10.452 7.397-12.811 4.086-2.36 7.396-.447 7.396 4.27z"/><path fill="#0B246E" d="M319.886 909.593c0 4.717-3.31 10.453-7.396 12.813-4.085 2.36-7.398.446-7.398-4.271s3.313-10.45 7.398-12.81c4.085-2.36 7.396-.449 7.396 4.268zM231.092 835.547h-16.81v41.12h16.81v-41.12zM412.699 843.467s.765 24.901 4.213 33.712c3.448 8.81 11.876 8.043 18.389 7.278 6.512-.767 22.984-12.591 31.029-20.278 8.045-7.687 24.9-6.214 38.308-25.146 13.408-18.933 0-26.978-4.213-27.36-4.213-.383-25.245 15.506-42.694 8.519l-45.032 23.275z"/><path fill="#4661AD" d="M246.41 713.928S388.921 667.02 416 686.388c25.648 18.347 21.114 73.979 41.73 133.804 0 0-8.599 29.236-45.031 23.275 0 0-16.57-43.148-27.83-88.19 0 0-111.015 71.537-136.32 52.991-25.303-18.546-2.14-94.34-2.14-94.34z"/><path fill="#11CDEF" d="M362.966 774.841c-5.018 27.142-51.26 60.3-131.683 72.359-2.806.432-29.536 5.69-53.077 1.078 14.786-28.355 53.807-75.406 41.584-121.756 28.814 4.478 147.575 24.47 143.176 48.32z"/><path fill="#4661AD" d="M219.63 732.602l17.09 17.575c4.026 24.246 18.667 47.896 41.022 49.68l114.482-39.125v-39.803l-172.593 11.673z"/><path fill="#0B246E" d="M258.28 554.817l-59.361-30.063c-6.109-3.093-12.859-4.783-19.706-4.695-12.533.161-30.735 4.347-37.861 25.73-11.338 34.013 25.375 172.225 25.375 172.225s36.879 45.62 66.033 43.459c29.154-2.16 71.099-26.723 71.099-47.238 0-14.636-11.344-83.52-17.847-121.802a51.9 51.9 0 00-27.733-37.616z"/><path stroke-miterlimit="10" stroke="#0B246E" stroke-width="1.494675" d="M293.162 474.442c.32.037 7.346 2.607 11.06 3.972a2 2 0 011.026 2.907l-3.095 5.212a5.25 5.25 0 01-5.124 2.534l-8.56-1" fill="none"/><path fill="#FF8B91" d="M210.333 517.417l10.687-38.78 81.73-35.411-3.494 29.917c-.2 1.71-.714 3.368-1.518 4.889l-1.92 3.64a12.473 12.473 0 00-1.424 6.491l.182 3.392a13.756 13.756 0 01-1.764 7.507l-8.801 15.561a12.783 12.783 0 01-14.106 6.138l-10.704-2.562-7.395 23.769-41.473-24.55z"/><path fill="#0B246E" d="M216.682 499.82l13.116 4.294a22.388 22.388 0 0019.764-2.906l20.043-13.962-.513 4.395 2.979-.214a7.2 7.2 0 006.087-4.307l9.718-22.33s19.764.63 28.355-22.677c0 0-19.024-23.737-50.156-25.137-31.133-1.401-45.428 22.917-45.428 22.917s-6.521-1.6-10.52 6.315c-3.23 6.397.34 36.573 1.83 47.925a6.93 6.93 0 004.725 5.687z"/><path fill="#FF8B91" d="M267.446 497.097l3.906-12.317s-1.824-6.44-8.039-4.697c-6.215 1.742-5.479 17.5-2.14 18.32 3.34.819 6.273-1.306 6.273-1.306z"/><path fill="#36E7F7" d="M271.352 484.78l32.084 1.827 2.6-4.82-36.664-.306 1.98 3.299z"/><path fill="#11CDEF" d="M241.95 781.655c4.412 45.329-41.519 79.736-83.366 61.764-39.009-16.754-67.607-53.95-76.089-118.21-9.47-71.548 3.319-116.819 12.707-138.834 4.586-10.684 15.836-16.916 27.329-15.324 89.84 12.518 112.286 160.12 112.286 160.12s4.506 23.488 7.132 50.484z"/><path fill="#FF8B91" d="M413.175 619.389s12.119-20.754 15.676-22.458c8.953-4.289 7.362.6 14.384-.469 5.166-.786 9.032-3.054 13.105-3.88 1.412-.286 4.113.309 5.399 1.81 1.003 1.244.456 2.46 2.043 4.536 9.431 1.141 6.936 6.591 6.936 6.591 9.308-.366 8.477 15.454 3.676 13.087-1.054-9.161-8.03-.995-12.406 3.9-4.368 4.883-15.213 8.663-17.717 8.503-2.504-.16-20.239 2.06-20.239 2.06l-10.857-13.68z"/><path fill="#0B246E" d="M270.275 562.9s-25.822-9.952-40.474 9.942c-16.245 22.057.538 42.602.538 42.602l91.315 62.703a33.823 33.823 0 0035.282 1.842l77.716-47.396s-1.95-18.576-15.724-23.964c-2.861-1.118-67.651 16.181-67.651 16.181a12.965 12.965 0 01-12.7-2.487l-68.302-59.424z"/><path fill="#FF8B91" d="M306.575 575.32s8.982-22.18 12.133-24.553c3.15-2.372 30.564-5.592 33.028-6.226 2.463-.635 7.93 4.345 7.93 4.345s8.712-.425 10.414-.152c1.702.272 11.017 4.227 8.37 6.9-1.658 1.674-6.348-.569-12.087.1-5.578.65-14.2 4.367-16.11 7.103-7.658 10.974 17.646.745 18.01 4.362.765 7.58-26.705 14.731-29.204 14.949-2.5.217-19.702 5.069-19.702 5.069l-12.782-11.896z"/><path fill="#0B246E" d="M238.257 582.52l70.873-16.405c14.534 0 16.673 20.764 16.673 20.764l-48.872 34.639-38.674-38.997z"/><g><path fill="#0B246E" d="M303.859 840c0 4.716-3.31 10.45-7.396 12.81-4.085 2.36-7.397.448-7.397-4.27 0-4.716 3.312-10.452 7.397-12.812 4.086-2.36 7.396-.446 7.396 4.271z"/></g><g><path fill="#0B246E" d="M300.459 838.036c0 4.717-3.312 10.451-7.398 12.81-4.085 2.36-7.395.447-7.395-4.27s3.31-10.451 7.395-12.81c4.086-2.36 7.398-.447 7.398 4.27z"/></g><g><path stroke-linecap="round" stroke-miterlimit="10" stroke="#FFF" stroke-width="7.9716" d="M362.966 774.841c-87.496 49.705-113.611 13.48-120.722-3.928-1.891-4.627-2.437-7.927-2.437-7.927s-17.76-92.086-41.542-134.565c-20.059-35.83-46.81-59.661-88.499-60.921" fill="none"/></g><g><path fill="#4661AD" d="M209.577 513.36l-10.658 11.394 59.36 30.063-4.145-21.886-44.557-19.57z"/></g></g></g></svg>