<?xml version="1.0" ?><!DOCTYPE svg  PUBLIC '-//W3C//DTD SVG 1.1//EN'  'http://www.w3.org/Graphics/SVG/1.1/DTD/svg11.dtd'><svg viewBox="0 0 512 512" xmlns="http://www.w3.org/2000/svg" xmlns:xlink="http://www.w3.org/1999/xlink"><style>:root>svg{display:none}:root>svg:target{display:block}</style><svg style="fill-rule:evenodd;clip-rule:evenodd;stroke-linejoin:round;stroke-miterlimit:2" viewBox="0 0 512 512" xml:space="preserve" id="fb" xmlns="http://www.w3.org/2000/svg"><path d="M449.446 0C483.971 0 512 28.03 512 62.554v386.892C512 483.97 483.97 512 449.446 512H342.978V319.085h66.6l12.672-82.621h-79.272v-53.617c0-22.603 11.073-44.636 46.58-44.636H425.6v-70.34s-32.71-5.582-63.982-5.582c-65.288 0-107.96 39.569-107.96 111.204v62.971h-72.573v82.621h72.573V512H62.554C28.03 512 0 483.97 0 449.446V62.554C0 28.03 28.029 0 62.554 0h386.892Z" style="fill:#1777f2"/></svg><svg version="1.0" xml:space="preserve" viewBox="0 0 32 32" id="google" xmlns="http://www.w3.org/2000/svg"><path clip-rule="evenodd" d="M32 30a2 2 0 0 1-2 2H2a2 2 0 0 1-2-2V2a2 2 0 0 1 2-2h28a2 2 0 0 1 2 2v28z" fill="#E02F2F" fill-rule="evenodd"/><g fill="#FFF"><path d="M19 6h-6.164c-2.82 0-5.475 1.979-5.475 4.453 0 2.528 1.922 4.494 4.791 4.494.2 0 .394-.045.584-.059-.188.355-.318.737-.318 1.154 0 .703.377 1.264.854 1.729-.358 0-.709.005-1.09.005C8.689 17.777 6 20 6 22.307c0 2.272 2.948 3.695 6.441 3.695 3.983 0 6.183-2.262 6.183-4.534 0-1.821-.538-2.913-2.199-4.091-.569-.401-1.656-1.38-1.656-1.956 0-.674.192-1.006 1.208-1.8 1.039-.812 1.776-1.781 1.776-3.111 0-1.581-.68-3.51-2.003-3.51H18l1-1zm-2.069 15.074c.048.212.077.429.077.649 0 1.836-1.185 3.271-4.58 3.271-2.415 0-4.158-1.528-4.158-3.364 0-1.799 2.163-3.298 4.579-3.271a5.326 5.326 0 0 1 1.564.249c1.311.913 2.251 1.428 2.518 2.466zm-3.868-6.849c-1.621-.047-3.162-1.813-3.441-3.94-.279-2.13.808-3.759 2.428-3.711 1.62.05 3.162 1.758 3.441 3.886.28 2.128-.807 3.813-2.428 3.765zM24 13.993v-3h-2v3h-3v2h3v3h2v-3h3v-2z"/></g></svg><svg style="fill-rule:evenodd;clip-rule:evenodd;stroke-linejoin:round;stroke-miterlimit:2" viewBox="0 0 512 512" xml:space="preserve" id="linkedin" xmlns="http://www.w3.org/2000/svg"><path d="M512 64c0-35.323-28.677-64-64-64H64C28.677 0 0 28.677 0 64v384c0 35.323 28.677 64 64 64h384c35.323 0 64-28.677 64-64V64Z" style="fill:#2867b2"/><path style="fill:#fff" d="M61.053 178.667h85.76v257.962h-85.76z"/><path d="M104.512 54.28C75.171 54.28 56 73.57 56 98.853c0 24.752 18.588 44.574 47.377 44.574h.554c29.903 0 48.516-19.822 48.516-44.574-.555-25.283-18.611-44.573-47.935-44.573ZM357.278 172.601c-45.49 0-65.866 25.017-77.276 42.589v-36.523h-85.738c1.137 24.197 0 257.961 0 257.961h85.737V292.564c0-7.711.554-15.42 2.827-20.931 6.188-15.4 20.305-31.352 43.993-31.352 31.012 0 43.436 23.664 43.436 58.327v138.02h85.741v-147.93c0-79.237-42.305-116.097-98.72-116.097Z" style="fill:#fff;fill-rule:nonzero"/></svg><svg data-name="Layer 1" viewBox="0 0 120 120" id="news" xmlns="http://www.w3.org/2000/svg"><defs><linearGradient id="da" x1="-715.122" x2="-715.122" y1="-427.889" y2="-425.889" gradientTransform="matrix(38 0 0 -38 27234.639 -16161.768)" gradientUnits="userSpaceOnUse"><stop offset="0" stop-color="#fd355a"/><stop offset="1" stop-color="#fd5163"/></linearGradient></defs><path fill="#fff" d="M26 0h68a25.948 25.948 0 0 1 26 26v68a25.948 25.948 0 0 1-26 26H26A25.948 25.948 0 0 1 0 94V26A26.012 26.012 0 0 1 26 0Z"/><path fill="url(#da)" fill-rule="evenodd" d="M25.7 22h15.4a2.61 2.61 0 0 1 1.7.7l54.5 53.8a2.342 2.342 0 0 1 .7 1.7v16.1a3.691 3.691 0 0 1-3.7 3.7H79a2.61 2.61 0 0 1-1.7-.7L22.8 43.5a2.342 2.342 0 0 1-.7-1.7V25.7a3.548 3.548 0 0 1 3.6-3.7Zm38 0h30.6a3.691 3.691 0 0 1 3.7 3.7v31.8A74.53 74.53 0 0 0 84 37a76.436 76.436 0 0 0-20.3-15Zm-7.4 76H25.7a3.691 3.691 0 0 1-3.7-3.7V62.5A73.844 73.844 0 0 0 36 83a80.406 80.406 0 0 0 20.3 15Z"/></svg><svg viewBox="0 0 64 64" id="twitter" xmlns="http://www.w3.org/2000/svg"><g data-name="6-twitter"><rect height="64" rx="11.2" ry="11.2" transform="rotate(180 32 32)" width="64" style="fill:#00aade"/><path d="M47.2 20.8a8 8 0 0 0 4-4.8c-1.6 1.6-5 2.13-5 2.13a8 8 0 0 0-13.83 7.47H32a23.45 23.45 0 0 1-16.8-8.8s-4.8 6.4 2.4 11.2c0 0-3.2 0-4-.8 0 0-.8 4.8 6.4 8a3.86 3.86 0 0 1-3.2 0c0 3.09 3.22 5.6 7.2 5.6 0 2.21-5.37 4-12 4 10.4 7.2 35.2 5.6 36.8-21.6l4-4Z" style="fill:#fff"/></g></svg></svg>