<svg width="50" height="42" viewBox="0 0 50 42" fill="none" xmlns="http://www.w3.org/2000/svg">
<mask id="mask0_117_15" style="mask-type:luminance" maskUnits="userSpaceOnUse" x="0" y="0" width="50" height="42">
<path d="M0 0H50V42H0V0Z" fill="white"/>
</mask>
<g mask="url(#mask0_117_15)">
<path fill-rule="evenodd" clip-rule="evenodd" d="M43.0142 25.4457C43.0142 17.9431 37.0141 11.8614 29.6117 11.8614C22.1376 11.8614 16.2086 18.0151 16.2086 25.4457C16.2086 32.9475 22.2093 39.0293 29.6117 39.0293C37.0141 39.0293 43.0142 32.9475 43.0142 25.4457ZM10.9199 6.99797C12.9819 4.90837 16.3094 4.88376 18.4006 6.92413C18.4425 6.96413 18.4431 7.03058 18.4018 7.07181L10.9934 14.5811C10.9527 14.6223 10.8871 14.6217 10.847 14.5799C8.83416 12.4601 8.85846 9.08757 10.9199 6.99797ZM40.821 7.07181C40.7803 7.03058 40.7809 6.96413 40.8222 6.92413C42.914 4.88376 46.2415 4.90837 48.3029 6.99797C50.3649 9.08757 50.3892 12.4601 48.3758 14.5799C48.3363 14.6217 48.2707 14.6223 48.23 14.5811L40.821 7.07181ZM23.7355 2.65694C23.7355 3.27902 24.2373 3.78788 24.851 3.78788H34.3724C34.9861 3.78788 35.4879 3.27902 35.4879 2.65694V1.1285C35.4879 0.506422 34.9861 -0.00244141 34.3724 -0.00244141H24.851C24.2373 -0.00244141 23.7355 0.506422 23.7355 1.1285V2.65694ZM5.38389 27.035C4.95982 27.035 4.61656 26.6867 4.61656 26.2573C4.61656 25.8278 4.95982 25.4801 5.38389 25.4801H14.1393C14.5633 25.4801 14.9066 25.8278 14.9066 26.2573C14.9066 26.6867 14.5633 27.035 14.1393 27.035H5.38389ZM44.027 12.4312L41.9364 14.5503C41.8988 14.5885 41.8963 14.65 41.9316 14.6906C47.4858 21.2197 47.131 30.9945 41.1089 37.0978C35.8816 42.3957 27.7532 43.4719 21.3569 39.644C19.0015 38.2337 17.0263 36.2376 15.6278 33.8539C15.6089 33.8213 15.5773 33.8028 15.5403 33.8028H9.84573C9.42166 33.8028 9.07839 33.4546 9.07839 33.0251C9.07839 32.5962 9.42166 32.2479 9.84573 32.2479H16.0421V32.2492C16.3119 32.2492 16.5737 32.395 16.7134 32.6516C19.2791 37.3735 24.196 40.3694 29.6117 40.3694C37.7443 40.3694 44.3368 33.6878 44.3368 25.445C44.3368 17.2029 37.7443 10.5212 29.6117 10.5212C23.6103 10.5212 18.2572 14.202 16.0063 19.7232C16.005 19.7257 16.0044 19.7282 16.0032 19.7306C15.903 20.042 15.6144 20.2672 15.2736 20.2672H0.763488C0.340027 20.2672 -0.00384521 19.9189 -0.00384521 19.4894C-0.00384521 19.0599 0.340027 18.7117 0.763488 18.7117H14.7049C14.7462 18.7117 14.7814 18.6889 14.7985 18.6508C15.4431 17.2091 16.287 15.8775 17.2943 14.6931C17.3289 14.6518 17.3271 14.5909 17.2888 14.5522L15.1958 12.4312C15.1563 12.3906 15.1563 12.3247 15.1958 12.2847L16.1363 11.3316C16.1764 11.291 16.2408 11.291 16.2809 11.3316L18.3478 13.4261C18.3866 13.4661 18.4498 13.4668 18.4899 13.4286C21.2464 10.8068 24.8485 9.19648 28.7472 8.98912C28.8018 8.98604 28.8444 8.94051 28.8444 8.88513V5.2794C28.8444 5.22218 28.8899 5.17603 28.9464 5.17603H30.2764C30.3329 5.17603 30.3784 5.22218 30.3784 5.2794V8.88575C30.3784 8.94051 30.421 8.98604 30.4756 8.98912C34.4368 9.19956 38.0226 10.8467 40.7353 13.4261C40.7754 13.4643 40.8386 13.4637 40.8775 13.4237L42.9419 11.3316C42.982 11.291 43.047 11.291 43.0865 11.3316L44.027 12.2847C44.0671 12.3247 44.0671 12.3906 44.027 12.4312ZM26.4136 24.4698L23.4299 22.7241C23.0642 22.5094 22.9396 22.0344 23.1516 21.6639C23.3637 21.2929 23.8315 21.1668 24.1972 21.3815L27.1797 23.1265C27.2204 23.1505 27.2702 23.1438 27.303 23.1099C28.4057 21.9894 30.1427 21.8172 31.4368 22.7051C31.4781 22.7334 31.5315 22.7284 31.5668 22.6927L36.5371 17.6546C36.8367 17.3512 37.3227 17.3512 37.6222 17.6546C37.9217 17.9585 37.9217 18.4508 37.6222 18.7547L32.565 23.8803C32.5334 23.9123 32.5261 23.9584 32.5455 23.9991C33.5917 26.1686 32.0358 28.7511 29.6117 28.7511C27.4543 28.7511 25.9075 26.6701 26.461 24.5867C26.4731 24.5405 26.4543 24.4932 26.4136 24.4698ZM30.8329 24.2076C31.5072 24.8913 31.5072 26.0001 30.8329 26.6837C29.7484 27.7832 27.8844 27.0005 27.8844 25.4457C27.8844 23.8901 29.7478 23.1075 30.8329 24.2076Z" fill="#FDFDFD"/>
</g>
</svg>
