<svg width="24" height="25" viewBox="0 0 24 25" fill="none" xmlns="http://www.w3.org/2000/svg">
<path fill-rule="evenodd" clip-rule="evenodd" d="M18 4.5H6C3.79086 4.5 2 6.29086 2 8.5V17.5C2 19.7091 3.79086 21.5 6 21.5H18C20.2091 21.5 22 19.7091 22 17.5V8.5C22 6.29086 20.2091 4.5 18 4.5ZM6 6.09H18C19.0657 6.09203 20.0025 6.79663 20.3 7.82L12.76 13.41C12.5534 13.612 12.2732 13.7209 11.9843 13.7115C11.6955 13.7021 11.423 13.5751 11.23 13.36L3.72 7.83C4.01175 6.80973 4.9389 6.10216 6 6.09ZM3.59 17.5C3.59 18.831 4.66899 19.91 6 19.91H18C19.3271 19.9045 20.4 18.8271 20.4 17.5V9.47L13.6 14.47C13.1654 14.8746 12.5938 15.0997 12 15.1C11.3827 15.0902 10.7911 14.8514 10.34 14.43L3.59 9.43V17.5Z" fill="#FDFDFD"/>
</svg>
