<svg width="50" height="46" viewBox="0 0 50 46" fill="none" xmlns="http://www.w3.org/2000/svg">
<mask id="mask0_117_809" style="mask-type:luminance" maskUnits="userSpaceOnUse" x="2" y="16" width="48" height="30">
<path d="M2.34213 16.782H49.9999V46H2.34213V16.782Z" fill="white"/>
</mask>
<g mask="url(#mask0_117_809)">
<path d="M25.8131 17.1333C24.5742 18.237 23.0843 19.0516 21.4381 19.4828V42.387H4.51265C3.52781 42.387 2.73077 43.1952 2.73077 44.1902C2.73077 45.1869 3.52781 45.9951 4.51265 45.9951H48.1648C49.148 45.9951 49.9451 45.1869 49.9451 44.1902V17.1333H25.8131ZM27.6755 28.8585C27.6755 24.3751 31.2645 20.7414 35.6932 20.7414C40.1218 20.7414 43.7108 24.3751 43.7108 28.8585C43.7108 33.3419 40.1218 36.9756 35.6932 36.9756C31.2645 36.9756 27.6755 33.3403 27.6755 28.8585ZM45.9378 41.4862H43.2642C42.5271 41.4862 41.929 40.8792 41.929 40.1333C41.929 39.3858 42.5271 38.7805 43.2642 38.7805H45.9378C46.6764 38.7805 47.273 39.3858 47.273 40.1333C47.273 40.8792 46.6749 41.4862 45.9378 41.4862Z" fill="#FDFDFD"/>
</g>
<mask id="mask1_117_809" style="mask-type:luminance" maskUnits="userSpaceOnUse" x="27" y="6" width="23" height="10">
<path d="M27.3927 6.96875H50V15.5554H27.3927V6.96875Z" fill="white"/>
</mask>
<g mask="url(#mask1_117_809)">
<path d="M27.4306 15.3301H49.9448V9.01629C49.9448 8.01962 49.1477 7.21143 48.1645 7.21143H29.2945C29.3924 7.7992 29.4555 8.39976 29.4555 9.01629C29.4555 11.3722 28.6995 13.5492 27.4306 15.3301ZM43.2639 9.91872C44.0025 9.91872 44.6007 10.5241 44.6007 11.27C44.6007 12.0175 44.0025 12.6228 43.2639 12.6228C42.5268 12.6228 41.9287 12.0175 41.9287 11.27C41.9287 10.5241 42.5268 9.91872 43.2639 9.91872ZM37.9198 9.91872C38.6585 9.91872 39.2551 10.5241 39.2551 11.27C39.2551 12.0175 38.6569 12.6228 37.9198 12.6228C37.1828 12.6228 36.583 12.0175 36.583 11.27C36.583 10.5241 37.1828 9.91872 37.9198 9.91872ZM32.5742 9.91872C33.3128 9.91872 33.911 10.5241 33.911 11.27C33.911 12.0175 33.3128 12.6228 32.5742 12.6228C31.8371 12.6228 31.239 12.0175 31.239 11.27C31.239 10.5241 31.8371 9.91872 32.5742 9.91872Z" fill="#FDFDFD"/>
</g>
<mask id="mask2_117_809" style="mask-type:luminance" maskUnits="userSpaceOnUse" x="5" y="0" width="6" height="12">
<path d="M5.17044 0H10.0189V11.0576H5.17044V0Z" fill="white"/>
</mask>
<g mask="url(#mask2_117_809)">
<path d="M6.73925 10.8213C6.00219 10.8213 5.40402 10.2144 5.40402 9.46847C5.40402 5.83798 5.40402 3.64659 7.41002 0.600688C7.67675 0.194994 8.07605 -0.00146484 8.52113 -0.00146484C9.30553 -0.00146484 9.85635 0.647008 9.85635 1.34979C9.85635 1.60215 9.78849 1.86409 9.63224 2.10048C8.07605 4.46597 8.07605 5.93062 8.07605 9.46847C8.07605 10.2144 7.47631 10.8213 6.73925 10.8213Z" fill="#FDFDFD"/>
</g>
<path d="M38.3648 33.3677C37.8661 33.3677 37.4731 32.9572 37.4747 32.4653C37.4747 32.1985 37.5915 31.9318 37.8172 31.7545C38.5416 31.1811 39.0451 30.4096 39.2881 29.52C39.4112 29.0664 39.779 28.8539 40.1467 28.8587C40.5934 28.8635 41.0384 29.1862 41.0384 29.7612C41.0384 30.4735 40.2035 32.1618 38.9141 33.1776C38.7499 33.3054 38.5574 33.3677 38.3664 33.3677H38.3648Z" fill="#FDFDFD"/>
<mask id="mask3_117_809" style="mask-type:luminance" maskUnits="userSpaceOnUse" x="0" y="16" width="19" height="23">
<path d="M0 16.782H18.0997V38.4531H0V16.782Z" fill="white"/>
</mask>
<g mask="url(#mask3_117_809)">
<path d="M1.3021 29.8232L0.0584106 30.6618V38.1032L8.89679 34.575C15.4072 32.0386 16.9681 26.4164 16.9681 26.4164C16.9681 26.4164 17.8756 23.5781 17.8756 22.0863C17.8756 21.3436 17.2806 20.7414 16.5451 20.7414C16.2516 20.7414 15.9659 20.8389 15.7355 21.0209C10.797 24.8718 10.6155 25.26 9.72538 25.2504C8.72002 25.2392 8.06661 24.348 8.07608 23.4455C8.07766 23.2075 8.12501 23.0542 8.23391 22.8242C9.04988 21.0848 9.85638 19.2975 9.85638 18.5293C9.85638 17.7626 9.28978 17.1333 8.52116 17.1333C8.05714 17.1333 7.57261 17.4112 7.18435 18.0357C5.44666 20.8229 3.89679 23.4998 3.04768 27.2341C2.80778 28.2915 2.19225 29.2227 1.3021 29.8232Z" fill="#FDFDFD"/>
</g>
<mask id="mask4_117_809" style="mask-type:luminance" maskUnits="userSpaceOnUse" x="9" y="0" width="19" height="23">
<path d="M9.61484 0H27.7966V22.9154H9.61484V0Z" fill="white"/>
</mask>
<g mask="url(#mask4_117_809)">
<path d="M18.7657 18.036C23.6852 18.036 27.6735 13.9982 27.6735 9.01645C27.6735 6.38583 26.5545 4.02513 24.779 2.3768L20.6928 9.54034L16.8355 7.28506L20.8443 0.254091C20.1767 0.0927714 19.4823 -0.00146484 18.7641 -0.00146484C13.8431 -0.00146484 9.85632 4.03631 9.85632 9.01645C9.85632 11.679 11.0022 14.0637 12.814 15.7152L10.385 22.4699L10.8096 22.6264C11.0795 22.414 11.3794 22.1744 11.7061 21.9156C12.4384 21.331 13.3885 20.574 14.6464 19.5933C15.1467 19.2035 15.7607 18.9847 16.3904 18.9528L16.8008 17.8108C17.4337 17.9545 18.0886 18.0376 18.7641 18.0376L18.7657 18.036Z" fill="#FDFDFD"/>
</g>
<path d="M31.2374 30.6618C30.7465 30.6618 30.3472 30.2593 30.3472 29.7594C30.3472 25.6369 33.1187 23.8449 34.5849 23.4727C35.06 23.3497 35.5461 23.6452 35.6645 24.1292C35.7844 24.6131 35.494 25.1019 35.0158 25.2233C34.9053 25.2536 32.1275 26.0442 32.1275 29.7594C32.1275 30.2577 31.7298 30.6618 31.2374 30.6618Z" fill="#FDFDFD"/>
</svg>
