<svg width="50" height="50" viewBox="0 0 50 50" fill="none" xmlns="http://www.w3.org/2000/svg">
<path d="M13.6369 15.9448V36.3633H15.0144C16.7619 36.3633 18.1825 35.0145 18.1825 33.355V18.9567C18.1825 17.2972 16.7619 15.9448 15.0144 15.9448H13.6369Z" fill="#FDFDFD"/>
<mask id="mask0_117_1348" style="mask-type:luminance" maskUnits="userSpaceOnUse" x="20" y="0" width="30" height="38">
<path d="M20.3161 0.919434H50V37.7011H20.3161V0.919434Z" fill="white"/>
</mask>
<g mask="url(#mask0_117_1348)">
<path d="M20.4539 34.339C23.9202 37.728 32.4942 37.4334 32.5786 37.4298H44.6565C45.366 37.4298 45.7467 36.812 46.3897 35.3339C47.1925 33.4913 49.9978 20.4614 49.9978 19.127C49.9978 18.2219 49.2614 17.4855 48.3563 17.4855H41.8764C38.9777 17.3688 36.7578 16.0595 36.6662 16.0038C36.2352 15.747 36.0251 15.2387 36.1454 14.752L37.1476 10.7632C37.2966 10.1633 37.4744 9.54907 37.654 8.92766C38.1246 7.29691 38.6095 5.61408 38.6292 4.06415C38.6418 3.03146 38.3652 1.7186 37.7241 1.27679C36.9787 0.761347 35.9568 0.949925 35.4432 1.69526L29.3781 10.8422C26.8781 13.4356 22.1404 16.1493 20.4521 17.0778V34.339H20.4539Z" fill="#FDFDFD"/>
</g>
<mask id="mask1_117_1348" style="mask-type:luminance" maskUnits="userSpaceOnUse" x="0" y="0" width="31" height="50">
<path d="M0 0H30.4311V50.0001H0V0Z" fill="white"/>
</mask>
<g mask="url(#mask1_117_1348)">
<path d="M15.4221 49.2225L17.0456 49.8708L18.6674 49.2225C23.3405 47.3601 27.3402 43.9998 30.097 39.6643C26.9702 39.4973 22.3258 38.8112 19.4181 36.4315C18.4303 37.7624 16.8301 38.6388 15.0144 38.6388H12.5C11.8732 38.6388 11.3632 38.1305 11.3632 37.5019V14.8097C11.3632 14.1811 11.8732 13.6729 12.5 13.6729H15.0144C16.5589 13.6729 17.9472 14.3087 18.9386 15.3162C19.8599 14.8223 25.212 11.9003 27.6204 9.42719L29.0302 7.2792C27.9221 6.88049 26.8894 6.42072 25.8962 5.88911C21.8068 3.69802 18.3854 1.27524 17.0025 0.255127C15.6915 1.1136 12.6275 3.10535 9.23851 5.15276C6.37572 6.88229 3.27047 8.02453 -0.00179863 8.55614V25.9071C-0.00179863 36.1747 6.19613 45.5461 15.4203 49.2243L15.4221 49.2225Z" fill="#FDFDFD"/>
</g>
</svg>
