<svg width="118" height="29" viewBox="0 0 118 29" fill="none" xmlns="http://www.w3.org/2000/svg">
<g clip-path="url(#clip0_116_1308)">
<path d="M51.9234 12.0811H43.6951C43.6562 12.0811 43.6367 12.12 43.6367 12.1394V23.6163C43.6367 23.6552 43.6756 23.6746 43.6951 23.6746H51.048C51.0675 23.6746 51.0869 23.6552 51.1064 23.6357L51.9818 21.9239C52.0012 21.885 51.9817 21.8267 51.9234 21.8267H45.7765V18.7532H48.5776C48.5971 18.7532 48.6165 18.7337 48.636 18.7143L49.5308 16.983C49.5502 16.9441 49.5113 16.8858 49.4724 16.8858H45.7959V13.929H51.048C51.0675 13.929 51.0869 13.9096 51.1064 13.8901L52.0012 12.1783C52.0012 12.1394 51.9817 12.0811 51.9234 12.0811Z" fill="#131111"/>
<path d="M78.1261 19.0645L70.7148 11.906C70.637 11.8282 70.4814 11.8866 70.4814 12.0033V23.6552C70.4814 23.6941 70.5203 23.7136 70.5397 23.7136H72.5628C72.6017 23.7136 72.6211 23.6747 72.6211 23.6552V16.7497L80.0324 23.9275C80.1102 24.0054 80.2659 23.9665 80.2659 23.8303V13.8707C80.2659 13.8513 80.2659 13.8318 80.2464 13.8318L78.2428 11.906C78.2039 11.8671 78.1261 11.906 78.1261 11.9449V19.0645Z" fill="#131111"/>
<path d="M85.9849 23.6557C85.9655 23.6752 85.946 23.6946 85.9266 23.6946H83.4561C83.4172 23.6946 83.3783 23.6363 83.3978 23.5973L89.4669 11.926C89.5058 11.8287 89.6614 11.8287 89.7003 11.926L95.7694 23.5973C95.7889 23.6363 95.75 23.6946 95.7111 23.6946H93.299C93.2795 23.6946 93.2406 23.6752 93.2406 23.6557C93.2406 23.6557 89.6225 16.4194 89.603 16.4194L85.9849 23.6557Z" fill="#131111"/>
<path d="M114.793 23.5968L110.611 19.6674C111.895 18.9477 112.751 17.5861 112.712 16.0104C112.653 13.8123 110.767 12.0811 108.549 12.0811H103.978C103.919 12.0811 103.9 12.1394 103.919 12.1783L106.059 14.2014C106.079 14.2208 106.098 14.2403 106.118 14.2403H108.568C109.58 14.2403 110.455 15.0378 110.514 16.0299C110.572 17.0997 109.716 17.9751 108.666 17.9946H105.942C105.884 17.9946 105.865 18.0529 105.884 18.0918L111.72 23.6552C111.739 23.6746 111.759 23.6746 111.778 23.6746H114.754C114.793 23.6941 114.813 23.6357 114.793 23.5968Z" fill="#131111"/>
<path d="M101.119 11.9252V23.6355C101.119 23.6744 101.08 23.6939 101.06 23.6939H98.9783C98.9394 23.6939 98.9199 23.655 98.9199 23.6355V13.9094C98.9199 13.8899 98.9199 13.8705 98.9394 13.8705L101.021 11.8863C101.06 11.828 101.119 11.8669 101.119 11.9252Z" fill="#131111"/>
<path d="M63.7502 19.0645L56.3389 11.906C56.2611 11.8282 56.1055 11.8866 56.1055 12.0033V23.6552C56.1055 23.6941 56.1444 23.7136 56.1638 23.7136H58.1674C58.2063 23.7136 58.2258 23.6747 58.2258 23.6552V16.7497L65.6371 23.9275C65.7149 24.0054 65.8705 23.9665 65.8705 23.8303V13.8707C65.8705 13.8513 65.8705 13.8318 65.8511 13.8318L63.8475 11.906C63.8086 11.8671 63.7308 11.906 63.7308 11.9449V19.0645H63.7502Z" fill="#131111"/>
<path d="M30.0195 20.816C30.0195 22.3916 31.3228 23.6755 32.9179 23.6949H32.9374H36.1275H36.147C37.7226 23.6755 39.0454 22.4111 39.0454 20.816V11.9263C39.0454 11.8679 38.9481 11.8485 38.9092 11.8874L36.8667 13.8326C36.8473 13.8521 36.8278 13.8715 36.8278 13.8715V20.3491C36.8278 21.1467 36.2053 21.8081 35.4078 21.8081H33.6571C32.8596 21.8081 32.2371 21.1856 32.2371 20.3491V18.8124C32.2371 18.754 32.1398 18.7151 32.1009 18.754L30.0584 20.6993C30.039 20.7187 30.0195 20.7187 30.0195 20.7382V20.816Z" fill="#131111"/>
<path d="M0.394531 20.6797L9.59547 11.9067V23.3835C9.59547 23.6364 10.0818 23.8309 10.6848 23.8309C11.2878 23.8309 11.7741 23.6364 11.7741 23.3835V0.235352L20.9945 9.00833V27.2351C20.9945 27.7408 20.586 28.1493 20.0803 28.1688H1.32824C0.822481 28.1688 0.394531 27.7603 0.394531 27.2351V20.6797Z" fill="#131111"/>
<path d="M117.108 13.2093C117.108 13.8512 116.602 14.3375 115.96 14.3375C115.318 14.3375 114.812 13.8318 114.812 13.2093C114.812 12.5868 115.318 12.0811 115.96 12.0811C116.602 12.0811 117.108 12.5868 117.108 13.2093ZM115.085 13.2093C115.085 13.715 115.454 14.1041 115.96 14.1041C116.446 14.1041 116.816 13.715 116.816 13.2093C116.816 12.7035 116.446 12.3145 115.96 12.3145C115.454 12.3145 115.085 12.7035 115.085 13.2093ZM115.785 13.7929H115.532V12.6646C115.629 12.6452 115.785 12.6257 115.96 12.6257C116.174 12.6257 116.271 12.6646 116.349 12.7035C116.408 12.7424 116.466 12.8397 116.466 12.9564C116.466 13.0731 116.369 13.1704 116.233 13.2093V13.2287C116.349 13.2676 116.408 13.3455 116.446 13.5011C116.485 13.6761 116.505 13.7345 116.524 13.7734H116.252C116.213 13.7345 116.194 13.6372 116.155 13.5011C116.135 13.3844 116.057 13.326 115.921 13.326H115.805V13.7929H115.785ZM115.785 13.1509H115.902C116.038 13.1509 116.155 13.112 116.155 12.9953C116.155 12.8981 116.077 12.8202 115.921 12.8202C115.843 12.8202 115.805 12.8202 115.785 12.8397V13.1509Z" fill="#131111"/>
</g>
<defs>
<clipPath id="clip0_116_1308">
<rect width="118" height="29" fill="white"/>
</clipPath>
</defs>
</svg>
