<svg width="136" height="29" viewBox="0 0 136 29" fill="none" xmlns="http://www.w3.org/2000/svg">
<g clip-path="url(#clip0_116_1296)">
<path fill-rule="evenodd" clip-rule="evenodd" d="M52.806 0.235107C35.138 3.70505 18.495 9.98805 4.81226 19.5309L4.87361 19.6731C37.4818 2.94133 71.6918 1.92641 85.7542 1.92641C97.3969 1.92641 110.19 3.52098 110.19 6.92306C110.19 9.70219 104.379 12.0995 101.055 13.3663L101.088 13.4775C104.417 12.9563 117.02 10.3425 117.02 4.71059C117.02 2.90307 115.453 1.41245 112.736 0.235107L125.758 0.23655C127.622 0.23655 129.234 1.84917 129.234 3.71299V24.5694C129.234 26.4333 127.622 28.0459 125.758 28.0459H3.97058C2.10676 28.0459 0.494141 26.4333 0.494141 24.5694V3.71443C0.494141 1.85061 2.10676 0.237993 3.97058 0.237993L52.806 0.235107ZM30.4048 12.464H25.6478L22.2594 24.8033H27.0157L28.4493 19.5049L32.0982 24.8033H37.6045L32.7826 18.3211L39.983 12.4647H34.9337L29.0369 17.2679L30.4048 12.464ZM45.5471 15.3543C42.4518 15.3543 38.5985 16.4609 37.5677 20.2001C36.5874 23.7603 39.9903 25.0314 42.8899 25.0314C46.5151 25.0314 49.1542 23.4203 49.92 22.1541H45.4077C45.4077 22.1541 44.722 23.5827 43.2884 23.5827C41.3033 23.5827 42.036 20.7884 42.036 20.7884H50.6859C51.825 18.041 50.3914 15.3543 45.5471 15.3543ZM45.2237 16.7735C46.7749 16.7735 46.4696 19.0191 46.4696 19.0191H42.5608C42.5608 19.0191 43.6111 16.7735 45.2237 16.7735ZM121.122 15.3543C118.027 15.3543 114.174 16.4609 113.143 20.2001C112.162 23.7603 115.565 25.0314 118.466 25.0314C122.09 25.0314 124.73 23.4203 125.495 22.1541H120.982C120.982 22.1541 120.297 23.5827 118.863 23.5827C116.878 23.5827 117.611 20.7884 117.611 20.7884H126.26C127.402 18.041 125.968 15.3543 121.122 15.3543ZM120.799 16.7735C122.351 16.7735 122.046 19.0191 122.046 19.0191H118.136C118.136 19.0191 119.187 16.7735 120.799 16.7735ZM58.2755 15.5752H53.8938L51.3529 24.8185H55.9468C55.9468 24.8185 56.9725 21.101 57.2295 20.1633C57.4865 19.2256 58.2921 17.5451 59.9372 17.5451C61.5823 17.5451 60.7153 19.5215 60.5363 20.1633C60.3566 20.805 59.2702 24.8185 59.2702 24.8185H63.8474C63.8474 24.8185 65.1511 20.1221 65.3951 19.209C65.6391 18.2966 66.7146 15.3673 61.9742 15.3673C59.0912 15.3673 57.9918 16.5273 57.9918 16.5273L58.2755 15.5752ZM73.3925 15.5723H68.9935L66.4526 24.8185H71.0631C71.0631 24.8185 72.1177 21.0021 72.3444 20.1633C72.5725 19.3245 73.0496 17.4816 74.4341 17.4816C75.5746 17.4816 75.1192 18.4193 74.6261 20.1633C74.4218 20.8851 73.3434 24.8185 73.3434 24.8185H77.9539C77.9539 24.8185 78.6981 21.9831 79.1088 20.5581C79.6011 18.8466 80.0198 17.4946 81.3264 17.4946C82.5109 17.4946 81.9861 18.4409 81.1668 21.4012C80.9748 22.0935 80.2335 24.8358 80.2335 24.8358H84.8281C84.8281 24.8358 85.7152 21.5283 86.1108 20.1633C86.6356 18.3529 88.0201 15.4532 83.4436 15.3601C80.8369 15.3066 79.5816 16.6089 79.5816 16.6089C79.5816 16.6089 79.2077 15.3601 76.5686 15.3601C74.1411 15.3601 73.1312 16.4609 73.1312 16.4609L73.3925 15.5723ZM96.0031 15.3593C91.9145 15.3593 88.0273 17.3639 87.8736 21.2821C87.7436 24.6055 91.8495 25.0156 93.3632 25.0156C96.8823 25.0156 101.15 23.5675 101.508 19.0437C101.704 16.5764 98.9013 15.3593 96.0031 15.3593ZM96.7516 20.1957C96.2795 22.0062 95.1065 23.5906 93.7191 23.5906C92.2205 23.5906 92.1866 21.9239 92.6262 20.1633C93.0658 18.4034 94.3081 16.8067 95.5952 16.8067C97.2064 16.8059 97.2237 18.3868 96.7516 20.1957ZM104.488 15.5658L101.972 24.7947H106.565C106.565 24.7947 107.445 21.62 107.738 20.5581C108.031 19.4963 108.544 17.6382 110.133 17.6382C111.151 17.6382 111.599 18.625 111.599 18.625H111.941L113.139 15.6885C113.139 15.6885 112.772 15.3427 111.257 15.3427C109.743 15.3427 108.57 16.4537 108.57 16.4537L108.814 15.5658H104.488ZM131.009 25.6753C131.009 24.4951 131.896 23.6072 133.032 23.6072C134.156 23.6072 135.048 24.4951 135.048 25.6753C135.048 26.8722 134.156 27.7564 133.032 27.7564C131.895 27.7564 131.009 26.8729 131.009 25.6753ZM133.031 28.1686C134.386 28.1686 135.543 27.1169 135.543 25.676C135.543 24.2489 134.385 23.1958 133.031 23.1958C131.665 23.1958 130.512 24.2489 130.512 25.676C130.512 27.1169 131.665 28.1686 133.031 28.1686ZM132.507 25.8702H133.004L133.757 27.1169H134.248L133.43 25.8507C133.85 25.7988 134.176 25.5786 134.176 25.0625C134.176 24.4958 133.837 24.2489 133.161 24.2489H132.073V27.1169H132.507V25.8702ZM132.507 25.5064V24.6113H133.096C133.398 24.6113 133.718 24.6777 133.718 25.0358C133.718 25.4797 133.391 25.5064 133.024 25.5064H132.507Z" fill="#131111"/>
</g>
<defs>
<clipPath id="clip0_116_1296">
<rect width="136" height="29" fill="white"/>
</clipPath>
</defs>
</svg>
