<svg width="157" height="20" viewBox="0 0 157 20" fill="none" xmlns="http://www.w3.org/2000/svg">
<mask id="mask0_116_1278" style="mask-type:luminance" maskUnits="userSpaceOnUse" x="0" y="0" width="156" height="20">
<path d="M155.811 0.626953H0.661011V19.5712H155.811V0.626953Z" fill="white"/>
</mask>
<g mask="url(#mask0_116_1278)">
<path d="M13.9371 7.60164L18.1415 1.16309H13.3769L9.97036 7.42386C9.64777 7.96166 9.02302 8.35156 8.54774 8.35156H7.75095V1.16309H1.19812V18.4008H7.72945V13.1125H8.76495C9.23915 13.1125 9.47572 13.2933 9.73485 13.9521L11.5671 18.4008H19.4566L15.792 9.75878C15.4899 9.04172 14.6704 8.4412 13.8091 8.4412C13.5941 8.4412 13.3769 8.47256 13.9371 7.60164Z" fill="#B42C2C"/>
<path d="M21.5682 18.3833H27.7351V8.38184H21.5682V18.3833Z" fill="#B42C2C"/>
<path d="M24.7524 7.53938C26.4579 7.37208 27.7847 6.13964 27.717 4.7862C27.6471 3.43424 26.2096 2.4707 24.5052 2.63802C22.7997 2.80534 21.4729 4.03776 21.5416 5.38822C21.6105 6.74166 23.0481 7.70372 24.7524 7.53938Z" fill="#B42C2C"/>
<path d="M30.1464 8.32005H32.2162V4.96631H38.0358V8.32005H40.4509V11.614H38.1229V13.5904C38.1229 15.5668 39.7605 15.4458 40.4928 14.5509V17.3639C38.2519 18.7412 34.5658 19.1012 33.0787 17.6925C32.3023 16.9456 32.2162 16.3451 32.2162 15.4458V11.6738H30.1464" fill="#B42C2C"/>
<path d="M54.6563 8.89106C51.4658 6.67416 47.1217 7.06406 44.9786 8.68192C41.5399 11.2723 41.5926 15.4999 44.9346 17.9035C47.3486 19.6424 53.082 19.1614 54.6347 17.185V14.4019C52.3508 16.0183 50.7615 15.7837 49.8067 15.3296C48.3196 14.6245 48.284 11.7085 50.1938 11.1961C51.4218 10.8674 52.9755 10.8973 54.6563 12.1253" fill="#B42C2C"/>
<path d="M56.7264 2.60352V18.3847H62.5245V13.5311C62.6105 10.4762 65.3708 11.0453 65.3708 13.2936V18.3847H71.1461V12.1568C71.1461 9.21984 67.3536 5.92586 62.5685 9.2781L62.6535 2.60352" fill="#B42C2C"/>
<path d="M89.8134 8.35194V18.3832H96.0221V12.9934C96.0221 11.135 98.8232 10.2387 98.8232 13.0531V18.3235H104.3V12.2151C104.3 9.34984 101.354 5.65104 96.0221 9.4604V8.35194" fill="#B42C2C"/>
<path d="M126.394 18.373H132.559V8.37305H126.394V18.373Z" fill="#B42C2C"/>
<path d="M129.582 7.52816C131.286 7.36234 132.612 6.13138 132.544 4.77496C132.476 3.42302 131.038 2.46096 129.332 2.62828C127.628 2.7941 126.302 4.02654 126.371 5.37848C126.437 6.73342 127.875 7.69546 129.582 7.52816Z" fill="#B42C2C"/>
<path fill-rule="evenodd" clip-rule="evenodd" d="M152.496 5.5208V4.39294H153.038C153.314 4.39294 153.607 4.47808 153.607 4.92774C153.607 5.48644 153.308 5.5208 152.971 5.5208H152.496ZM152.977 8.90292C154.216 8.90292 155.273 7.5659 155.273 5.7389C155.273 3.92686 154.216 2.58984 152.977 2.58984C151.726 2.58984 150.67 3.92686 150.67 5.7389C150.67 7.5659 151.726 8.90292 152.977 8.90292ZM151.126 5.7389C151.126 4.24356 151.938 3.11568 152.977 3.11568C154.005 3.11568 154.817 4.24356 154.817 5.7389C154.817 7.25816 154.005 8.37708 152.977 8.37708C151.938 8.37708 151.126 7.25816 151.126 5.7389ZM152.496 5.98838H152.952L153.645 7.5659H154.09L153.343 5.96448C153.728 5.89726 154.023 5.61194 154.023 4.9621C154.023 4.24356 153.718 3.92686 153.097 3.92686H152.101V7.5659H152.496" fill="#B42C2C"/>
<path fill-rule="evenodd" clip-rule="evenodd" d="M79.8409 11.9785H82.1485C82.1861 10.9597 81.5634 10.4503 80.9033 10.4503C80.3516 10.4503 79.8409 11.1106 79.8409 11.9785ZM87.7023 14.551C83.7796 14.1312 79.5968 14.4897 79.5968 14.4897C80.8032 17.2444 85.7195 16.8261 87.356 15.029L87.184 17.3639C83.9076 20.0604 73.9063 19.9408 73.7331 13.6517C73.5804 8.09895 79.5107 7.30273 80.8032 7.30273C83.8635 7.30273 88.3475 9.27911 87.7023 14.551Z" fill="#B42C2C"/>
<path fill-rule="evenodd" clip-rule="evenodd" d="M111.499 11.496L113.309 6.82318L114.774 11.496H111.499ZM105.657 18.3394H109.019L110.465 14.4912H115.724L116.975 18.3394H124.949L118.741 1.1958H110.808C111.585 1.61558 111.8 2.33264 111.585 2.93018" fill="#B42C2C"/>
<path fill-rule="evenodd" clip-rule="evenodd" d="M143.609 12.0024C142.571 10.9328 140.579 11.2002 140.579 12.9121C140.579 15.371 142.945 14.9423 143.609 14.1939V12.0024ZM149.438 2.62988V18.3229H143.619V17.2444C140.73 20.359 134.261 18.6814 134.261 13.6516C134.261 7.48046 141.288 6.6439 143.659 8.79954V2.62988" fill="#B42C2C"/>
</g>
</svg>
