<svg width="38" height="29" viewBox="0 0 38 29" fill="none" xmlns="http://www.w3.org/2000/svg">
<path fill-rule="evenodd" clip-rule="evenodd" d="M9.67474 17.8353L12.9155 17.8494C13.1966 17.8506 13.4227 18.0747 13.4215 18.3498L13.3799 27.5594C13.3786 27.8345 13.1505 28.0566 12.8693 28.0554L9.6286 28.0414C9.34835 28.0402 9.12132 27.816 9.12256 27.541L9.1642 18.3313C9.16544 18.0562 9.39449 17.8341 9.67474 17.8353ZM19.3034 10.6277C20.0128 10.5579 20.5205 11.4857 20.5974 12.2318C20.6088 12.386 20.6206 12.5402 20.6324 12.6944L20.6231 12.9642C20.6492 13.3201 20.5662 14.2 20.5508 14.8527C20.5353 15.5058 20.4394 16.3826 20.53 16.8825L20.5604 17.0691L25.708 17.0914C25.708 17.0927 25.708 17.0945 25.708 17.0958L25.774 17.0917C26.9905 17.097 27.9741 17.799 27.9702 18.6596C27.9677 19.1979 27.58 19.6704 26.9928 19.9477L26.6759 20.0677L26.7436 20.0833C27.4451 20.3034 27.9363 20.8142 27.9336 21.4062C27.931 21.9987 27.4351 22.5048 26.7317 22.7192L26.5213 22.7659L26.6318 22.8074C27.1515 23.052 27.4924 23.4639 27.4903 23.9294C27.4877 24.4882 26.9924 24.9655 26.2878 25.1672L26.0479 25.2173L26.1308 25.2486C26.6504 25.4932 26.9918 25.9051 26.9897 26.371C26.9863 27.1159 26.1062 27.7159 25.0245 27.7112L24.7983 27.6945C24.7983 27.6998 24.7983 27.705 24.7982 27.7103L16.6157 27.6748C15.3885 27.6694 14.3981 26.691 14.4036 25.4894L14.4319 19.2182C14.4326 19.068 14.44 19.0091 14.4701 18.8678L14.5279 18.6279L14.5562 18.4796C14.817 17.3655 15.5777 16.303 16.0216 15.6421L16.8374 14.0707C17.126 13.3957 17.3105 12.9721 17.365 12.7514C17.3625 12.7251 17.9162 11.5508 17.9128 11.5237C18.2514 10.9524 18.7457 10.6825 19.3034 10.6277ZM3.69004 7.72712L3.70431 7.7285L3.71949 7.72725L3.74535 7.73304L3.81983 7.74166L3.87329 7.76372L3.89468 7.76905L3.90892 7.77872L3.9401 7.79196L4.0108 7.84902L4.02414 7.85869L4.02769 7.86263L4.04192 7.87448C4.07212 7.90693 4.09694 7.94458 4.11728 7.98659L4.84924 9.54766C4.88106 9.61591 4.92989 9.67376 4.98815 9.71724L5.05403 9.75464L5.08341 9.77092C5.11816 9.78504 5.15426 9.79568 5.19172 9.80108L6.8953 10.0556C7.14326 10.0925 7.31405 10.3198 7.27591 10.5629C7.2612 10.6562 7.21708 10.7429 7.14894 10.8099L6.85219 11.1029L6.85218 11.1046L5.87811 12.0649C5.77501 12.1662 5.72884 12.3097 5.7523 12.4504L6.04467 14.2126C6.05337 14.2628 6.05314 14.3135 6.044 14.3623L6.03857 14.3772L6.03762 14.3894L6.0196 14.4277L5.99159 14.5036L5.97454 14.5227L5.96463 14.5445L5.91623 14.5888L5.87362 14.6371L5.85304 14.6475L5.83781 14.6614L5.78327 14.6817L5.71797 14.7137L5.69074 14.7158L5.66839 14.724L5.59253 14.7232L5.54431 14.7269L5.53094 14.7229L5.51622 14.7229C5.46628 14.7139 5.41726 14.6971 5.37186 14.672L3.8984 13.8579C3.86367 13.839 3.82804 13.8248 3.79059 13.8151L3.67686 13.8006L3.56389 13.8141C3.52637 13.8235 3.48971 13.8373 3.45571 13.856L1.97405 14.6573C1.92931 14.682 1.88015 14.6984 1.83013 14.7069L1.81496 14.7068L1.80155 14.7107L1.75382 14.7066L1.67706 14.7067L1.65568 14.6983L1.62802 14.696L1.56346 14.6634L1.50911 14.6426L1.494 14.6286L1.47263 14.618L1.4309 14.5694L1.38335 14.5246L1.37274 14.5028L1.35587 14.4835L1.32854 14.4074L1.31176 14.3689L1.31092 14.3567L1.30563 14.3418C1.29693 14.2928 1.29716 14.2422 1.30631 14.192L1.61415 12.4324C1.63889 12.2919 1.59357 12.1481 1.49229 12.0459L0.729949 11.2816L0.730847 11.2803L0.232845 10.7799C0.165318 10.7124 0.121085 10.6253 0.108119 10.5318C0.071733 10.2884 0.245013 10.0626 0.493294 10.0278L2.19911 9.7881C2.23618 9.78303 2.27282 9.77271 2.30769 9.75889L2.33632 9.74285L2.40254 9.70603C2.46208 9.66306 2.51143 9.60564 2.54387 9.53766L3.28992 7.983C3.30974 7.94117 3.33579 7.90373 3.36629 7.87155L3.38062 7.85983L3.38331 7.85591L3.39719 7.84636L3.46885 7.78991L3.50015 7.77695L3.51358 7.7674L3.53591 7.76226L3.58912 7.74066L3.66413 7.73269L3.69004 7.72712ZM33.5116 7.85645L33.5268 7.85782L33.5411 7.85658L33.5665 7.86236L33.6414 7.87098L33.6949 7.89305L33.7172 7.89838L33.7305 7.90805L33.7622 7.92128L33.8324 7.97835L33.8466 7.98802L33.8493 7.99196L33.8635 8.00381C33.8937 8.03625 33.9194 8.07391 33.9389 8.11591L34.6708 9.67699C34.7027 9.74524 34.751 9.80308 34.8107 9.84657L34.8765 9.88397L34.905 9.90025C34.9393 9.91437 34.9759 9.925 35.0133 9.93041L36.7165 10.1849C36.9649 10.2218 37.1356 10.4492 37.0971 10.6922C37.0833 10.7856 37.0387 10.8723 36.9705 10.9392L36.6733 11.2322L36.6742 11.234L35.6993 12.1943C35.5975 12.2956 35.5504 12.439 35.5739 12.5797L35.8663 14.3419C35.8745 14.3921 35.8743 14.4428 35.8656 14.4917L35.8602 14.5065L35.8601 14.5187L35.8421 14.557L35.8141 14.6329L35.797 14.652L35.7862 14.6738L35.7378 14.7181L35.6957 14.7664L35.6746 14.7768L35.6594 14.7907L35.6049 14.811L35.5396 14.843L35.5119 14.8451L35.4904 14.8533L35.4141 14.8525L35.3659 14.8563L35.3525 14.8523L35.3374 14.8522C35.2874 14.8433 35.2389 14.8265 35.1944 14.8014L33.72 13.9872C33.6862 13.9683 33.6496 13.9542 33.6122 13.9444L33.4994 13.9299L33.3851 13.9434C33.3475 13.9528 33.3122 13.9667 33.2773 13.9853L31.7961 14.7866C31.7509 14.8113 31.7018 14.8277 31.6517 14.8362L31.6366 14.8362L31.6232 14.84L31.575 14.8359L31.4996 14.836L31.4773 14.8276L31.4496 14.8253L31.3846 14.7927L31.3307 14.772L31.3156 14.7579L31.2951 14.7473L31.2525 14.6987L31.2045 14.654L31.1948 14.6321L31.1779 14.6128L31.151 14.5367L31.1334 14.4982L31.1325 14.486L31.1272 14.4711C31.1185 14.4222 31.1188 14.3715 31.1279 14.3213L31.4358 12.5617C31.4605 12.4213 31.4156 12.2774 31.3139 12.1752L30.5516 11.4109L30.5525 11.4096L30.054 10.9092C29.9869 10.8417 29.9436 10.7546 29.9297 10.6611C29.8933 10.4178 30.0662 10.1919 30.3149 10.1572L32.0203 9.91743C32.0578 9.91235 32.0944 9.90203 32.1293 9.88821L32.1588 9.87218L32.2246 9.83535C32.2837 9.79238 32.333 9.73496 32.3655 9.66699L33.1115 8.11232C33.1322 8.0705 33.1574 8.03306 33.1874 8.00088L33.2018 7.98915L33.2054 7.98524L33.2188 7.97569L33.2905 7.91924L33.3218 7.90627L33.3361 7.89673L33.3571 7.89158L33.4107 7.86998L33.4857 7.86201L33.5116 7.85645ZM26.8079 2.51358L26.823 2.51539L26.8382 2.51371L26.8641 2.51994L26.9386 2.52855L26.9911 2.55061L27.0134 2.55595L27.0277 2.56562L27.0588 2.57841L27.1286 2.63592L27.1429 2.64558L27.1455 2.64953L27.1598 2.66138C27.19 2.69382 27.2157 2.73104 27.2351 2.77304L27.9671 4.33455C27.9989 4.40237 28.0477 4.46065 28.1069 4.50414L28.1728 4.54153L28.2013 4.55781C28.236 4.57194 28.2725 4.58214 28.3105 4.58798L30.0132 4.8425C30.2611 4.87937 30.4319 5.10673 30.3946 5.34977C30.3799 5.44314 30.3349 5.52984 30.2668 5.59678L29.97 5.88979L29.9709 5.89154L28.9968 6.85183C28.8937 6.95312 28.8471 7.09613 28.8701 7.23726L29.1634 8.99947C29.1712 9.04928 29.171 9.09992 29.1618 9.14922L29.1564 9.16405L29.1564 9.17627L29.1383 9.21418L29.1103 9.29047L29.0933 9.30961L29.0834 9.33139L29.0354 9.37572L28.9924 9.424L28.9709 9.43439L28.9557 9.44829L28.902 9.46815L28.8363 9.50017L28.8095 9.50224L28.7871 9.51044L28.7104 9.51011L28.6622 9.51383L28.6488 9.5094L28.6341 9.50934C28.5841 9.50083 28.536 9.48402 28.4906 9.45894L27.0171 8.64478C26.9824 8.62586 26.9459 8.61129 26.9084 8.60196L26.7956 8.58706L26.6817 8.60098C26.6451 8.60999 26.6084 8.62424 26.5736 8.64286L25.0928 9.4442C25.0472 9.4689 24.9989 9.48528 24.948 9.49335L24.9337 9.49329L24.9207 9.4976L24.8717 9.49346L24.7958 9.49313L24.7735 9.48474L24.7468 9.48244L24.6813 9.44984L24.627 9.42952L24.6118 9.41548L24.5914 9.40492L24.5487 9.35627L24.5012 9.31152L24.4915 9.28965L24.4746 9.27037L24.4473 9.19384L24.4296 9.15577L24.4297 9.14355L24.4235 9.12868C24.4157 9.0793 24.415 9.02865 24.4242 8.97891L24.7333 7.21932C24.7576 7.0784 24.7123 6.93498 24.6101 6.83281L23.8487 6.06802L23.8487 6.06715L23.3507 5.56679C23.2832 5.49926 23.2398 5.41218 23.226 5.31868C23.1905 5.07532 23.3638 4.84946 23.612 4.81474L25.317 4.575C25.3549 4.56949 25.3916 4.5596 25.4255 4.54578L25.4551 4.52975L25.5213 4.49292C25.5808 4.44995 25.6293 4.39209 25.6626 4.32456L26.4087 2.76946C26.4285 2.72763 26.4545 2.69063 26.4841 2.65845L26.4994 2.64672L26.5021 2.6428L26.5164 2.63326L26.5867 2.57637L26.618 2.56384L26.6323 2.5543L26.6538 2.54915L26.7074 2.52755L26.782 2.51958L26.8079 2.51358ZM10.4824 2.44278L10.4976 2.44459L10.5119 2.44291L10.5378 2.44913L10.6127 2.45776L10.6657 2.47982L10.6871 2.48515L10.7013 2.49482L10.7325 2.50761L10.8036 2.56512L10.8179 2.57479L10.8205 2.57873L10.8348 2.59058C10.8645 2.62302 10.8902 2.66025 10.9097 2.70225L11.6416 4.26376C11.6735 4.33157 11.7223 4.38986 11.7819 4.43334L11.8473 4.47074L11.8758 4.48702C11.9106 4.50114 11.9471 4.51134 11.9846 4.51718L13.6877 4.7717C13.9361 4.80858 14.1069 5.03593 14.0683 5.27897C14.0545 5.37235 14.0095 5.45904 13.9418 5.52599L13.6446 5.81899L13.6455 5.82074L12.6705 6.78103C12.5688 6.88232 12.5217 7.02533 12.5452 7.16647L12.8371 8.92867C12.8458 8.97848 12.8455 9.02913 12.8364 9.07843L12.831 9.09325L12.83 9.10547L12.8129 9.14338L12.7853 9.21967L12.7683 9.23881L12.7575 9.2606L12.7091 9.30492L12.6669 9.35321L12.6454 9.36359L12.6302 9.3775L12.5761 9.39735L12.5108 9.42938L12.4831 9.43144L12.4608 9.43964L12.3854 9.43931L12.3372 9.44303L12.3238 9.43861L12.3086 9.43854C12.2587 9.43003 12.2097 9.41322 12.1656 9.38814L10.6908 8.57398C10.657 8.55506 10.6209 8.5405 10.5834 8.53116L10.4702 8.51626L10.3563 8.53018C10.3188 8.53919 10.2821 8.55343 10.2481 8.57206L8.76735 9.37341C8.72172 9.3981 8.673 9.41448 8.62298 9.42256L8.60781 9.42249L8.5944 9.4268L8.54623 9.42266L8.47081 9.42234L8.44853 9.41394L8.42088 9.41164L8.35587 9.37905L8.30151 9.35873L8.28641 9.34469L8.26637 9.33412L8.22375 9.28547L8.17576 9.24073L8.16604 9.21885L8.14917 9.19957L8.12184 9.12304L8.10416 9.08498L8.10333 9.07275L8.09804 9.05788C8.08934 9.0085 8.08957 8.95785 8.09872 8.90812L8.40701 7.14852C8.43174 7.0076 8.38687 6.86419 8.28514 6.76201L7.52236 5.99722L7.52325 5.99635L7.02525 5.49599C6.95772 5.42846 6.91483 5.34138 6.90097 5.24789C6.86459 5.00452 7.03742 4.77866 7.28615 4.74394L8.99152 4.5042C9.02903 4.49869 9.06567 4.4888 9.1001 4.47498L9.12962 4.45895L9.19584 4.42213C9.25494 4.37916 9.30384 4.3213 9.33628 4.25376L10.0823 2.69866C10.103 2.65683 10.1282 2.61983 10.1587 2.58765L10.173 2.57592L10.1766 2.57201L10.19 2.56246L10.2617 2.50557L10.2926 2.49304L10.3069 2.4835L10.3283 2.47835L10.382 2.45675L10.457 2.44878L10.4824 2.44278ZM18.6353 0.0801605L18.6504 0.0819728L18.6656 0.0802921L18.6915 0.086517L18.7659 0.095136L18.8194 0.117199L18.8408 0.122532L18.855 0.132199L18.8862 0.144997L18.956 0.202498L18.9702 0.212166L18.9729 0.216107L18.9871 0.227958C19.0173 0.260399 19.043 0.298061 19.0625 0.339625L19.7945 1.90114C19.8272 1.96895 19.8747 2.0268 19.9343 2.07072L20.0001 2.10812L20.0295 2.1244C20.0629 2.13852 20.0995 2.14872 20.1378 2.15456L21.8401 2.40908C22.0885 2.44596 22.2593 2.67331 22.2216 2.91635C22.2073 3.00973 22.1632 3.09599 22.0942 3.16337L21.7974 3.45637L21.7983 3.45812L20.8242 4.41841C20.7211 4.5197 20.6741 4.66271 20.6975 4.80384L20.9908 6.56605C20.9995 6.61586 20.9984 6.66651 20.9892 6.71581L20.9838 6.73063L20.9837 6.74285L20.9657 6.78076L20.9377 6.85705L20.9207 6.87619L20.9107 6.89798L20.8623 6.9423L20.8197 6.99058L20.7983 7.00097L20.783 7.01488L20.7294 7.03473L20.6632 7.06675L20.6364 7.06882L20.6145 7.07746L20.5377 7.07669L20.4895 7.08041L20.4762 7.07642L20.4619 7.07592C20.4115 7.06741 20.3634 7.05017 20.318 7.02552L18.8445 6.21137C18.8098 6.19244 18.7733 6.17787 18.7358 6.16854L18.623 6.15408L18.5096 6.16756C18.4725 6.17657 18.4358 6.19082 18.4009 6.20944L16.9197 7.01079C16.8745 7.03504 16.8263 7.05186 16.7753 7.05993L16.7611 7.06031L16.7477 7.06418L16.6999 7.06004L16.6232 7.06015L16.6009 7.05132L16.5741 7.04902L16.5087 7.01643L16.4552 6.99611L16.4401 6.98207L16.4187 6.9715L16.3761 6.92285L16.3281 6.8781L16.3188 6.85623L16.302 6.83695L16.2747 6.76042L16.257 6.72235L16.257 6.71013L16.2517 6.69526C16.243 6.64588 16.2433 6.59524 16.2515 6.5455L16.5603 4.7859C16.585 4.64498 16.5392 4.50156 16.4375 4.39939L15.6761 3.63504L15.6761 3.63373L15.1785 3.13338C15.1105 3.0654 15.0672 2.97876 15.0533 2.88526C15.0178 2.64191 15.1907 2.41604 15.4394 2.38132L17.1439 2.14158C17.1823 2.13607 17.2189 2.12618 17.2529 2.11236L17.2824 2.09633L17.3482 2.0595C17.4082 2.0161 17.4567 1.95867 17.49 1.89114L18.236 0.336041C18.2558 0.294647 18.2819 0.25721 18.3119 0.22503L18.3263 0.213303L18.329 0.209385L18.3433 0.199841L18.4141 0.142949L18.4454 0.130423L18.4597 0.120879L18.4811 0.115732L18.5343 0.0941317L18.6093 0.0861609L18.6353 0.0801605Z" fill="#EE6022"/>
</svg>
