<svg width="12" height="21" viewBox="0 0 12 21" fill="none" xmlns="http://www.w3.org/2000/svg">
<g clip-path="url(#clip0_116_1240)">
<path d="M4.5 16.5C4.30108 16.5 4.11031 16.5791 3.96968 16.7196C3.82902 16.8603 3.75 17.0511 3.75 17.25C3.75 17.4489 3.82902 17.6397 3.96968 17.7804C4.11031 17.9209 4.30108 18 4.5 18H7.5C7.69892 18 7.88969 17.9209 8.03032 17.7804C8.17098 17.6397 8.25 17.4489 8.25 17.25C8.25 17.0511 8.17098 16.8603 8.03032 16.7196C7.88969 16.5791 7.69892 16.5 7.5 16.5H4.5ZM2.625 0C1.9288 0 1.26113 0.276561 0.768844 0.768844C0.276562 1.26113 0 1.9288 0 2.625V18.375C0 19.824 1.176 21 2.625 21H9.375C10.0712 21 10.7389 20.7234 11.2312 20.2311C11.7234 19.7388 12 19.0711 12 18.375V2.625C12 1.9288 11.7234 1.26113 11.2312 0.768844C10.7389 0.276561 10.0712 0 9.375 0H2.625ZM1.5 2.625C1.5 2.32663 1.61853 2.04048 1.82951 1.82951C2.04048 1.61853 2.32663 1.5 2.625 1.5H9.375C9.67336 1.5 9.95952 1.61853 10.1705 1.82951C10.3815 2.04048 10.5 2.32663 10.5 2.625V18.375C10.5 18.6733 10.3815 18.9596 10.1705 19.1705C9.95952 19.3815 9.67336 19.5 9.375 19.5H2.625C2.32663 19.5 2.04048 19.3815 1.82951 19.1705C1.61853 18.9596 1.5 18.6733 1.5 18.375V2.625Z" fill="white"/>
</g>
<defs>
<clipPath id="clip0_116_1240">
<rect width="12" height="21" fill="white"/>
</clipPath>
</defs>
</svg>
