<svg width="50" height="50" viewBox="0 0 50 50" fill="none" xmlns="http://www.w3.org/2000/svg">
<mask id="mask0_117_1218" style="mask-type:luminance" maskUnits="userSpaceOnUse" x="0" y="0" width="50" height="50">
<path d="M0 0H50V50H0V0Z" fill="white"/>
</mask>
<g mask="url(#mask0_117_1218)">
<path d="M48.7134 32.1922L32.2813 48.5898C32.0876 48.7816 31.8782 48.9522 31.6517 49.1029C31.4252 49.2536 31.1859 49.3801 30.9338 49.4838C30.6817 49.5876 30.4224 49.6658 30.1561 49.7184C29.8883 49.771 29.6191 49.798 29.347 49.798C29.0749 49.798 28.8043 49.771 28.5379 49.7184C28.2701 49.6658 28.0109 49.5876 27.7602 49.4838C27.5081 49.3801 27.2688 49.2536 27.0423 49.1029C26.8158 48.9522 26.605 48.7816 26.4127 48.5898L2.90122 25.1263C2.02378 24.1512 1.33721 23.0567 0.84151 21.8428C0.347237 20.6289 0.070899 19.3681 0.0153465 18.059L0.176306 4.30388C0.182003 4.03097 0.213341 3.7609 0.270318 3.49367C0.328719 3.22644 0.411335 2.96632 0.518167 2.71473C0.624998 2.46314 0.756045 2.22434 0.909882 1.99833C1.06372 1.7709 1.2375 1.56195 1.43122 1.36864C1.62494 1.17533 1.83576 1.00191 2.06224 0.849821C2.29015 0.696307 2.52945 0.566958 2.78157 0.460351C3.03512 0.353744 3.29436 0.272723 3.56215 0.215866C3.83137 0.159009 4.10201 0.127738 4.3755 0.123474L18.1169 -0.0144043C19.4288 0.0452953 20.6937 0.322473 21.9087 0.817129C23.1251 1.31321 24.2219 1.99833 25.2005 2.87251L48.7134 26.3359C48.9043 26.5293 49.0767 26.7382 49.2276 26.9642C49.3772 27.1902 49.5054 27.429 49.6094 27.6806C49.7134 27.9322 49.7917 28.1909 49.8444 28.4567C49.8971 28.7239 49.9228 28.9926 49.9228 29.2641C49.9228 29.5356 49.8971 29.8056 49.8444 30.0714C49.7917 30.3387 49.7134 30.5974 49.6094 30.8475C49.5054 31.0991 49.3772 31.3379 49.2276 31.5639C49.0767 31.7899 48.9043 32.0003 48.7134 32.1922ZM11.2127 8.33646C11.2127 8.14172 11.1942 7.94983 11.1557 7.75936C11.1173 7.56889 11.0617 7.38411 10.9877 7.20358C10.9122 7.02449 10.821 6.85391 10.7127 6.69329C10.6045 6.53125 10.482 6.382 10.3438 6.24412C10.2071 6.10767 10.0575 5.984 9.89513 5.87598C9.73274 5.76795 9.56324 5.67698 9.38233 5.60306C9.20286 5.52915 9.01768 5.47229 8.82681 5.43391C8.63594 5.39696 8.44222 5.37706 8.2485 5.37706C8.05335 5.37706 7.86105 5.39696 7.67018 5.43391C7.47931 5.47229 7.29413 5.52915 7.11323 5.60306C6.93376 5.67698 6.76283 5.76795 6.60044 5.87598C6.43948 5.984 6.28992 6.10625 6.15175 6.24412C6.01358 6.382 5.89108 6.53125 5.78282 6.69187C5.67457 6.85391 5.58341 7.02449 5.50934 7.20358C5.43527 7.38268 5.37829 7.56889 5.33983 7.75936C5.30279 7.94983 5.28428 8.14172 5.28428 8.33646C5.28428 8.52977 5.30279 8.72309 5.34125 8.91356C5.37829 9.10403 5.43527 9.28881 5.50934 9.46791C5.58341 9.64701 5.67457 9.81758 5.78282 9.97963C5.89108 10.1417 6.015 10.2909 6.15175 10.4274C6.28992 10.5653 6.43948 10.6875 6.60187 10.7955C6.76283 10.9036 6.93376 10.9945 7.11466 11.0684C7.29413 11.1438 7.47931 11.1992 7.67018 11.2376C7.86105 11.2745 8.05335 11.2944 8.2485 11.2944C8.44364 11.2944 8.63594 11.2745 8.82681 11.2376C9.01768 11.1992 9.20286 11.1438 9.38233 11.0684C9.56324 10.9945 9.73274 10.9036 9.89513 10.7955C10.0575 10.6875 10.2071 10.5653 10.3438 10.4274C10.482 10.2909 10.6045 10.1417 10.7127 9.97963C10.821 9.81758 10.9122 9.64843 10.9862 9.46791C11.0617 9.28881 11.1173 9.10403 11.1557 8.91356C11.1928 8.72309 11.2127 8.53119 11.2127 8.33646ZM35.9022 35.7884C35.9991 35.6918 36.0845 35.5866 36.16 35.4743C36.2369 35.3606 36.2996 35.2412 36.3523 35.1161C36.405 34.991 36.4435 34.8602 36.4705 34.728C36.4976 34.5944 36.5104 34.4594 36.5104 34.3229C36.5104 34.1879 36.4976 34.0529 36.4705 33.9192C36.4435 33.7856 36.405 33.6563 36.3523 33.5312C36.2996 33.4047 36.2369 33.2853 36.16 33.173C36.0845 33.0593 35.9991 32.9555 35.9022 32.8589L34.3994 31.3593C35.0233 30.4055 35.4592 29.3721 35.7085 28.2606C35.8395 27.7687 35.9065 27.2684 35.9065 26.7595C35.9079 26.2492 35.8438 25.7489 35.7127 25.2571C35.5831 24.7639 35.3908 24.2962 35.1387 23.8541C34.8866 23.4121 34.5803 23.0084 34.2228 22.6459C33.7129 22.1385 33.1303 21.7376 32.475 21.4406C31.8198 21.1449 31.1332 20.9729 30.4153 20.9246C29.461 20.8635 28.5237 20.9687 27.6064 21.243L27.5992 21.2458C26.8172 21.4917 26.0808 21.8357 25.3914 22.2792L25.3843 22.2806C24.7903 22.6673 24.2433 23.1107 23.7433 23.6125C23.4428 23.9153 23.1209 24.1896 22.7747 24.4383C22.3944 24.7084 21.9842 24.9202 21.5426 25.0709L21.5369 25.0723C21.1238 25.2073 20.7008 25.2528 20.2678 25.2116H20.2606C19.8119 25.1746 19.4216 25.0055 19.0883 24.7027C18.9701 24.5691 18.8704 24.4227 18.7906 24.2621C18.7109 24.1015 18.6539 23.9337 18.6183 23.7589C18.5827 23.5841 18.5713 23.4064 18.5841 23.2287C18.5969 23.0496 18.6311 22.8762 18.6909 22.7071C18.9573 21.6822 19.4672 20.7995 20.2236 20.0561C20.4942 19.8258 20.782 19.6197 21.0896 19.4406L21.1979 19.3695C21.5796 19.1364 21.9813 18.9431 22.403 18.7896C22.7961 18.6418 23.2021 18.5664 23.6223 18.565C23.759 18.5636 23.8929 18.5508 24.0268 18.5238C24.1593 18.4968 24.2889 18.457 24.4157 18.4058C24.541 18.3532 24.6607 18.2893 24.7732 18.2139C24.8857 18.1386 24.9911 18.0519 25.0866 17.9567C25.1834 17.86 25.2689 17.7548 25.3444 17.6425C25.4199 17.5288 25.484 17.4094 25.5353 17.2843C25.5865 17.1592 25.6264 17.0299 25.6535 16.8963C25.6791 16.7627 25.6919 16.629 25.6919 16.4926C25.6919 16.3576 25.6791 16.2225 25.6521 16.0889C25.6264 15.9567 25.5865 15.8274 25.5338 15.7009C25.4826 15.5758 25.4185 15.4564 25.343 15.3441C25.2675 15.2304 25.182 15.1266 25.0851 15.0299C24.9883 14.9347 24.8843 14.848 24.7718 14.7727C24.6578 14.6973 24.5382 14.6334 24.4128 14.5822C24.2875 14.5296 24.1578 14.4898 24.024 14.4642C23.8915 14.4372 23.7562 14.4244 23.6194 14.4244H23.6166C22.6921 14.4287 21.7976 14.5921 20.933 14.9177C20.2393 15.1735 19.5798 15.4962 18.953 15.8871L18.9174 15.9112L17.4232 14.4202C17.3278 14.3235 17.2223 14.2382 17.1098 14.1629C16.9959 14.0861 16.8762 14.0222 16.7509 13.971C16.6241 13.9184 16.4945 13.8786 16.3606 13.853C16.2267 13.826 16.0928 13.8132 15.956 13.8132C15.8193 13.8118 15.684 13.826 15.5515 13.8516C15.4176 13.8786 15.288 13.9184 15.1612 13.9696C15.0359 14.0222 14.9162 14.0861 14.8023 14.1615C14.6883 14.2368 14.5843 14.3235 14.4875 14.4187C14.392 14.5154 14.3051 14.6206 14.2296 14.7329C14.1541 14.8466 14.09 14.966 14.0373 15.0911C13.9861 15.2176 13.9462 15.3469 13.9205 15.4805C13.8935 15.6141 13.8807 15.7492 13.8807 15.8842C13.8807 16.0207 13.8935 16.1557 13.9205 16.2893C13.9476 16.4215 13.9875 16.5523 14.0388 16.6774C14.0915 16.8025 14.1556 16.9219 14.2311 17.0356C14.3066 17.1479 14.3934 17.253 14.4903 17.3497L15.9404 18.7967C15.3307 19.7206 14.8991 20.7199 14.6427 21.7959C14.5074 22.3062 14.4376 22.825 14.4362 23.3524C14.4348 23.8797 14.5003 24.4 14.6313 24.9103C14.7638 25.422 14.9589 25.9081 15.2168 26.3686C15.4746 26.8292 15.7865 27.2499 16.154 27.6294C16.6512 28.1156 17.2166 28.505 17.8491 28.7964C18.4801 29.0878 19.1425 29.2669 19.8362 29.3309C20.8646 29.4375 21.8702 29.328 22.8517 29.0011C23.6892 28.7197 24.4669 28.3231 25.1863 27.8085C25.719 27.4276 26.2147 27.0054 26.6762 26.5421C26.9682 26.2492 27.2859 25.9891 27.6334 25.7631C28.0081 25.5243 28.4069 25.3367 28.8314 25.2002C29.2587 25.078 29.6931 25.0297 30.1376 25.0581C30.5848 25.0894 30.9694 25.2614 31.2885 25.5755C31.4737 25.7603 31.9067 26.1924 31.6503 27.3992C31.3896 28.451 30.874 29.3593 30.1048 30.1226C29.7758 30.4211 29.4268 30.694 29.0579 30.9414C28.696 31.1759 28.3129 31.3721 27.9112 31.5298C27.5252 31.6791 27.1263 31.7302 26.7147 31.6862C26.5794 31.6762 26.4426 31.6805 26.3073 31.6976C26.1734 31.7132 26.0409 31.743 25.9113 31.7871C25.7817 31.8297 25.6578 31.8838 25.5395 31.952C25.4213 32.0188 25.3102 32.097 25.2076 32.1865C25.1051 32.2747 25.0111 32.3727 24.927 32.4808C24.8444 32.5874 24.7718 32.7025 24.7105 32.8233C24.6493 32.9456 24.6008 33.0707 24.5652 33.2028C24.5282 33.3336 24.5054 33.4672 24.4954 33.6023C24.4855 33.7387 24.4897 33.8738 24.5068 34.0088C24.5239 34.1424 24.5538 34.2746 24.5966 34.4039C24.6393 34.5333 24.6949 34.657 24.7618 34.7749C24.8287 34.8929 24.9071 35.0038 24.9968 35.1061C25.0851 35.2085 25.1834 35.3023 25.2917 35.3862C25.3985 35.4686 25.5139 35.5411 25.635 35.6022C25.7575 35.6633 25.8842 35.7117 26.0153 35.7472C26.1463 35.7841 26.2802 35.8069 26.4156 35.8168C26.6078 35.8311 26.7973 35.8367 26.9839 35.8367C27.8727 35.8467 28.7274 35.679 29.5464 35.3364C30.2159 35.0678 30.8483 34.7323 31.4452 34.3286L31.4808 34.303L32.9693 35.7884C33.0647 35.8851 33.1702 35.9704 33.2827 36.0457C33.3966 36.121 33.5163 36.185 33.6416 36.2376C33.7684 36.2888 33.898 36.3286 34.0305 36.3541C34.1644 36.3811 34.2997 36.3939 34.435 36.3939C34.5718 36.3939 34.7071 36.3811 34.8396 36.3541C34.9735 36.3286 35.1031 36.2888 35.2299 36.2376C35.3552 36.185 35.4749 36.121 35.5874 36.0457C35.7013 35.9704 35.8068 35.8851 35.9022 35.7884Z" fill="#FDFDFD"/>
</g>
</svg>
