<svg width="27" height="27" viewBox="0 0 27 27" fill="none" xmlns="http://www.w3.org/2000/svg">
<path d="M13.9823 19.4217L17.0151 18.2236L14.5074 15.7192L13.3097 18.7475C13.068 19.3599 13.3716 19.6626 13.9823 19.4217Z" fill="#EE6022"/>
<mask id="mask0_116_1585" style="mask-type:luminance" maskUnits="userSpaceOnUse" x="1" y="0" width="22" height="27">
<path d="M1 0.765137H22.1361V26.561H1V0.765137Z" fill="white"/>
</mask>
<g mask="url(#mask0_116_1585)">
<path d="M14.4246 20.5334C14.1432 20.6423 13.8692 20.6989 13.6086 20.6989C13.0651 20.6989 12.5895 20.4555 12.3007 20.0332C12.116 19.7604 11.8559 19.1735 12.1979 18.3088L12.7063 17.0226H4.72534V15.8285H13.1785L13.4882 15.0486L17.0928 11.449H4.72534V10.2562H18.2893L22.1315 6.4193V2.25066C22.1315 1.45601 21.488 0.811279 20.69 0.811279H2.44092C1.64545 0.811279 0.999901 1.45601 0.999901 2.25066V25.0293C0.999901 25.8235 1.64545 26.4683 2.44092 26.4683H20.69C21.488 26.4683 22.1315 25.8235 22.1315 25.0293V14.8066L17.6868 19.2447L14.4246 20.5334ZM4.72534 4.68049H18.4081V5.87452H4.72534V4.68049ZM11.5663 22.5995H4.72534V21.4054H11.5671V22.5995H11.5663Z" fill="#EE6022"/>
</g>
<path d="M25.9194 7.64335L25.1059 6.82781C24.641 6.36371 23.8779 6.36371 23.415 6.82781L15.3555 14.8763L17.8631 17.3807L25.9206 9.33219C26.3856 8.86768 26.3856 8.10785 25.9194 7.64335Z" fill="#EE6022"/>
</svg>
