<svg width="24" height="25" viewBox="0 0 24 25" fill="none" xmlns="http://www.w3.org/2000/svg">
<path fill-rule="evenodd" clip-rule="evenodd" d="M18.9996 5.49991C19.7695 5.48385 20.514 5.77574 21.0679 6.31081C21.6217 6.84589 21.9391 7.57988 21.9496 8.34991V16.6699C21.9339 17.4364 21.6142 18.1653 21.0609 18.6961C20.5076 19.2268 19.7661 19.516 18.9996 19.4999H10.9996C10.6636 20.3496 9.84331 20.9084 8.92961 20.9099H7.08961C6.17031 20.911 5.34281 20.3527 4.99961 19.4999C3.41288 19.511 2.1161 18.2366 2.09961 16.6499V8.34991C2.1161 6.76323 3.41288 5.4888 4.99961 5.49991C5.34444 4.67049 6.15139 4.12727 7.04961 4.11991H8.92961C9.84402 4.10551 10.6737 4.65333 11.0196 5.49991H18.9996ZM3.59961 8.34991V16.6499C3.62392 17.3219 4.13232 17.8769 4.79961 17.9599V7.03991C4.13232 7.12291 3.62392 7.67792 3.59961 8.34991ZM9.67961 18.6499C9.67961 19.0641 9.34382 19.3999 8.92961 19.3999H7.04961C6.84988 19.4026 6.65753 19.3245 6.51628 19.1832C6.37504 19.042 6.29689 18.8496 6.29961 18.6499V6.36991C6.29689 6.17017 6.37504 5.97782 6.51628 5.83658C6.65753 5.69533 6.84988 5.61719 7.04961 5.61991H8.92961C9.34382 5.61991 9.67961 5.95569 9.67961 6.36991V18.6499ZM18.9996 17.9799C19.7483 17.986 20.3673 17.3979 20.3996 16.6499V8.34991C20.3886 7.58614 19.7634 6.97433 18.9996 6.97991H11.1796V17.9799H18.9996Z" fill="#FDFDFD"/>
<path d="M18.8396 8.62991H12.4896C12.0754 8.62991 11.7396 8.96569 11.7396 9.37991C11.7396 9.79412 12.0754 10.1299 12.4896 10.1299H18.8396C19.2538 10.1299 19.5896 9.79412 19.5896 9.37991C19.5896 8.96569 19.2538 8.62991 18.8396 8.62991Z" fill="#FDFDFD"/>
<path d="M13.6896 12.4999C13.6896 12.881 13.3807 13.1899 12.9996 13.1899C12.6185 13.1899 12.3096 12.881 12.3096 12.4999C12.3096 12.1188 12.6185 11.8099 12.9996 11.8099C13.3807 11.8099 13.6896 12.1188 13.6896 12.4999Z" fill="#FDFDFD"/>
<path d="M13.6896 15.6199C13.6896 16.001 13.3807 16.3099 12.9996 16.3099C12.6185 16.3099 12.3096 16.001 12.3096 15.6199C12.3096 15.2388 12.6185 14.9299 12.9996 14.9299C13.3807 14.9299 13.6896 15.2388 13.6896 15.6199Z" fill="#FDFDFD"/>
<path d="M15.6596 11.8099C15.2799 11.8154 14.976 12.1267 14.9796 12.5065C14.9833 12.8862 15.2931 13.1916 15.6729 13.1898C16.0527 13.188 16.3596 12.8797 16.3596 12.4999C16.3596 12.3152 16.2856 12.1381 16.154 12.0084C16.0224 11.8787 15.8443 11.8072 15.6596 11.8099Z" fill="#FDFDFD"/>
<path d="M15.6596 14.9199C15.3765 14.9199 15.1212 15.0905 15.0129 15.352C14.9045 15.6136 14.9644 15.9147 15.1646 16.1149C15.3648 16.3151 15.6659 16.375 15.9275 16.2666C16.1891 16.1583 16.3596 15.903 16.3596 15.6199C16.3623 15.4334 16.2895 15.2538 16.1576 15.1219C16.0257 14.9901 15.8461 14.9172 15.6596 14.9199Z" fill="#FDFDFD"/>
<path d="M18.3296 11.8099C18.0489 11.8018 17.7912 11.9646 17.6781 12.2217C17.5649 12.4788 17.6189 12.7788 17.8146 12.9803C18.0103 13.1818 18.3085 13.2446 18.5688 13.1391C18.8291 13.0336 18.9995 12.7808 18.9996 12.4999C18.9998 12.1265 18.7029 11.8207 18.3296 11.8099Z" fill="#FDFDFD"/>
<path d="M18.3296 14.9199C18.0456 14.9158 17.7873 15.0838 17.6758 15.345C17.5643 15.6063 17.6217 15.909 17.8211 16.1112C18.0205 16.3135 18.3223 16.3753 18.5851 16.2675C18.8479 16.1598 19.0196 15.9039 19.0196 15.6199C19.0223 15.4352 18.9508 15.2571 18.8211 15.1255C18.6914 14.994 18.5144 14.9199 18.3296 14.9199Z" fill="#FDFDFD"/>
</svg>
