<svg width="50" height="38" viewBox="0 0 50 38" fill="none" xmlns="http://www.w3.org/2000/svg">
<mask id="mask0_117_1242" style="mask-type:luminance" maskUnits="userSpaceOnUse" x="0" y="0" width="50" height="38">
<path d="M0 0.5H50V37.5H0V0.5Z" fill="white"/>
</mask>
<g mask="url(#mask0_117_1242)">
<path d="M31.5402 0.534424C31.0135 0.536937 30.4875 0.569614 29.9624 0.616534C28.8309 0.650049 27.8952 1.54321 27.8089 2.68186L27.4199 6.25954C26.801 6.46733 26.198 6.71869 25.614 7.01529L22.8242 4.76898C21.9631 4.02747 20.6765 4.06266 19.8536 4.8469C19.4496 5.18875 19.0564 5.54149 18.6823 5.91685C18.6632 5.9378 18.6425 5.95707 18.6226 5.97802L18.6201 5.98053C18.6201 5.98137 18.6168 5.98137 18.6151 5.9822C18.596 6.00315 18.5753 6.02242 18.5554 6.04337C18.1846 6.42125 17.8386 6.82091 17.501 7.22894C16.7246 8.06178 16.6889 9.35795 17.428 10.2243L19.6678 13.027C19.3824 13.6034 19.1377 14.2 18.937 14.8133L15.389 15.2046C14.26 15.2917 13.3749 16.236 13.3408 17.3771C13.2927 17.9058 13.2612 18.4362 13.2587 18.9682C13.2587 18.9967 13.2587 19.026 13.2587 19.0554V19.0596C13.2587 19.088 13.2587 19.1182 13.2587 19.1467C13.2612 19.6779 13.2944 20.2083 13.3408 20.7378C13.3732 21.879 14.26 22.8224 15.389 22.9095L18.937 23.3017C19.1427 23.9259 19.3924 24.5342 19.6869 25.1232L17.4587 27.9325C16.7229 28.8014 16.7577 30.1009 17.5359 30.9304C17.8743 31.3376 18.2244 31.7347 18.5968 32.1118C18.6168 32.1319 18.6367 32.152 18.6574 32.1721L18.6599 32.1746L18.6607 32.1788C18.6798 32.1998 18.7014 32.219 18.7213 32.24C19.0962 32.6137 19.4911 32.9631 19.8967 33.3032C20.723 34.0866 22.0088 34.1218 22.8673 33.3761L25.648 31.1164C26.2204 31.4046 26.811 31.651 27.4191 31.8546L27.8073 35.4322C27.8936 36.5709 28.8301 37.4632 29.9616 37.4976C30.4867 37.5445 31.0126 37.578 31.5394 37.5805C31.5676 37.5805 31.595 37.5805 31.6232 37.5805C31.6248 37.5805 31.6273 37.5805 31.6282 37.5805H31.6307C31.6589 37.5805 31.6879 37.5805 31.7169 37.5805C32.2437 37.578 32.7696 37.5445 33.2947 37.4976C34.4262 37.4649 35.3619 36.5709 35.4491 35.4322L35.8373 31.8546C36.4561 31.6476 37.06 31.3954 37.644 31.0988L40.4305 33.3476C41.2915 34.09 42.5807 34.0523 43.4036 33.2672C43.8067 32.9262 44.2008 32.5734 44.5749 32.1972C44.594 32.1771 44.6147 32.157 44.6354 32.1369L44.6371 32.1344C44.6371 32.1336 44.6421 32.1336 44.6421 32.1319C44.6612 32.1118 44.6819 32.0917 44.7018 32.0716C45.0726 31.6937 45.4194 31.294 45.7561 30.886C46.5334 30.0532 46.5683 28.7561 45.8292 27.8906L43.5877 25.0846C43.8739 24.509 44.1178 23.9133 44.3202 23.3017L47.8682 22.9095C48.998 22.8224 49.8823 21.879 49.9163 20.7378C49.9636 20.2083 49.996 19.6779 49.9984 19.1467C49.9984 19.1182 49.9984 19.088 49.9984 19.0596V19.0554C49.9984 19.026 49.9984 18.9967 49.9984 18.9682C49.996 18.4362 49.9636 17.9058 49.9163 17.3771C49.884 16.2351 48.998 15.2909 47.8682 15.2046L44.3202 14.8133C44.1137 14.1891 43.8648 13.5791 43.5703 12.9918L45.8009 10.1799C46.5368 9.31103 46.4994 8.01318 45.7213 7.1837C45.3829 6.77734 45.0328 6.38019 44.6603 6.00315C44.6404 5.9822 44.6205 5.96293 44.5998 5.94199L44.5973 5.94031C44.5973 5.93864 44.5964 5.93696 44.5956 5.93528C44.5757 5.91518 44.5558 5.89507 44.5351 5.87496C44.1601 5.50127 43.7636 5.15188 43.3596 4.81171C42.5334 4.02915 41.2476 3.99312 40.3882 4.73882L37.6059 6.99853C37.0343 6.70947 36.4437 6.46398 35.8373 6.25954L35.4491 2.68186C35.3619 1.54321 34.4262 0.650887 33.2947 0.616534C32.7696 0.568776 32.2437 0.536937 31.7169 0.534424C31.6879 0.534424 31.6589 0.534424 31.6307 0.534424H31.629C31.6282 0.534424 31.6257 0.534424 31.6248 0.534424C31.5966 0.534424 31.5693 0.534424 31.5402 0.534424ZM4.15447 9.82799C3.09182 9.82799 2.23905 10.6868 2.23905 11.7593C2.23905 12.8317 3.09099 13.6905 4.15447 13.6905H11.0082C12.0708 13.6905 12.9236 12.8317 12.9236 11.7593C12.9236 10.6868 12.0716 9.82799 11.0082 9.82799H4.15447ZM31.5029 11.0597C31.5261 11.0597 31.5477 11.0597 31.5701 11.0597C31.5908 11.0597 31.6099 11.0597 31.6307 11.0597C36.0107 11.0597 39.5628 14.6398 39.5628 19.057C39.5628 23.4743 36.0107 27.0553 31.6307 27.0553C27.2498 27.0553 23.6969 23.4743 23.6969 19.057C23.6961 14.6893 27.171 11.1284 31.5029 11.0597ZM32.8252 13.3906C32.5929 13.4023 32.3731 13.5054 32.2155 13.6788L27.2656 19.1291C26.9379 19.4927 26.9645 20.0549 27.3253 20.3851C27.4879 20.5325 27.697 20.6155 27.9168 20.6155H30.3548L29.5468 23.6083C29.4216 24.0825 29.7003 24.5693 30.1707 24.6959C30.4859 24.7805 30.8227 24.6816 31.045 24.4403L35.9932 18.99C36.3201 18.6264 36.2944 18.0642 35.9327 17.7357C35.7717 17.5874 35.5627 17.5053 35.3445 17.5037H32.9065L33.7136 14.5108C33.8414 14.0374 33.5652 13.5498 33.0948 13.4199C33.0069 13.3964 32.9165 13.3856 32.8252 13.3906ZM1.92714 17.1249C0.864491 17.1249 0.0117188 17.9837 0.0117188 19.0554C0.0117188 20.127 0.864491 20.9866 1.92714 20.9866H8.78167C9.84349 20.9866 10.6971 20.127 10.6971 19.0554C10.6971 17.9837 9.84515 17.1241 8.78167 17.1241H1.92714V17.1249ZM4.15447 24.4227C3.09182 24.4227 2.23905 25.2824 2.23905 26.354C2.23905 27.4265 3.09099 28.2853 4.15447 28.2853H11.0082C12.0708 28.2853 12.9236 27.4265 12.9236 26.354C12.9236 25.2824 12.0716 24.4227 11.0082 24.4227H4.15447Z" fill="#FDFDFD"/>
</g>
</svg>
