<svg width="105" height="36" viewBox="0 0 105 36" fill="none" xmlns="http://www.w3.org/2000/svg">
<g clip-path="url(#clip0_116_1341)">
<mask id="mask0_116_1341" style="mask-type:luminance" maskUnits="userSpaceOnUse" x="0" y="0" width="105" height="36">
<path d="M104.958 0.449219H0.207031V35.1149H104.958V0.449219Z" fill="white"/>
</mask>
<g mask="url(#mask0_116_1341)">
<path d="M104.892 8.70243C106.319 16.853 84.0578 27.527 55.164 32.5428C26.2736 37.5587 1.69632 35.0135 0.271652 26.8594C-1.15186 18.7077 21.1158 8.03717 50.0062 3.02248C78.8977 -1.99565 103.47 0.549548 104.892 8.70243Z" fill="#034EA2"/>
<path d="M77.7019 20.8016L77.5534 12.3264H80.2347V23.0084H76.3796L73.704 14.2419H73.6465L73.795 23.0084H71.1309V12.3264H75.1529L77.642 20.8016H77.7019Z" fill="white"/>
<path d="M28.9622 13.3269L27.4788 23.1211H24.5547L26.5628 12.3267H31.38L33.3789 23.1211H30.4663L29.0232 13.3269H28.9622Z" fill="white"/>
<path d="M40.1894 23.1213L38.3781 13.4166H38.3194L38.2515 23.1213H35.5391L35.7784 12.3269H40.1975L41.5347 20.5784H41.5922L42.9306 12.3269H47.3473L47.582 23.1213H44.8754L44.804 13.4166H44.7476L42.9375 23.1213H40.1894Z" fill="white"/>
<path d="M19.9938 20.0759C20.0996 20.3375 20.0674 20.6735 20.0179 20.8765C19.927 21.2356 19.6831 21.6014 18.9627 21.6014C18.2837 21.6014 17.8717 21.2138 17.8717 20.6208V19.5758H14.9672L14.9649 20.412C14.9649 22.8184 16.8659 23.5445 18.9028 23.5445C20.8615 23.5445 22.4749 22.8769 22.7315 21.0784C22.8627 20.1459 22.7649 19.5357 22.72 19.3052C22.2631 17.0456 18.1525 16.3711 17.8464 15.1071C17.7946 14.8903 17.8096 14.6609 17.8349 14.5382C17.9097 14.1941 18.1468 13.8145 18.8246 13.8145C19.4575 13.8145 19.8315 14.2044 19.8315 14.794C19.8315 14.9924 19.8315 15.4604 19.8315 15.4604H22.5324V14.7022C22.5324 12.3509 20.415 11.9838 18.881 11.9838C16.9546 11.9838 15.3803 12.6181 15.0926 14.3753C15.0143 14.8605 15.0028 15.2929 15.1168 15.8343C15.5897 18.04 19.4368 18.6789 19.9938 20.0759Z" fill="white"/>
<path d="M55.2111 20.0567C55.3181 20.3159 55.2836 20.6428 55.2353 20.8458C55.1466 21.2037 54.905 21.5638 54.1892 21.5638C53.5194 21.5638 53.1109 21.1761 53.1109 20.5969L53.1086 19.5612H50.234L50.2305 20.3859C50.2305 22.7682 52.1143 23.4873 54.1305 23.4873C56.0684 23.4873 57.6668 22.829 57.9189 21.0465C58.0501 20.1209 57.9568 19.5187 57.9097 19.2928C57.4551 17.0538 53.3859 16.3863 53.0833 15.1349C53.0315 14.9192 53.0465 14.6921 53.0729 14.5763C53.15 14.2299 53.3825 13.8594 54.0534 13.8594C54.6806 13.8594 55.0465 14.2402 55.0465 14.8252C55.0465 15.0213 55.0465 15.4847 55.0465 15.4847H57.7267V14.7346C57.7267 12.4085 55.6265 12.0437 54.1075 12.0437C52.2029 12.0437 50.6413 12.67 50.3594 14.4146C50.2811 14.8929 50.2731 15.3173 50.3847 15.8563C50.8508 18.0391 54.6599 18.6734 55.2111 20.0567Z" fill="white"/>
<path d="M64.3067 21.506C65.0581 21.506 65.2929 20.9876 65.3447 20.7226C65.3665 20.6056 65.3723 20.4496 65.37 20.3097V12.322H68.1089V20.0654C68.1146 20.2638 68.095 20.6721 68.0858 20.7742C67.8937 22.7895 66.2952 23.4433 64.3055 23.4433C62.3135 23.4433 60.7139 22.7895 60.5241 20.7742C60.5148 20.6721 60.4953 20.2638 60.501 20.0654V12.322H63.2376V20.3097C63.2376 20.4496 63.2422 20.6068 63.2629 20.7226C63.3216 20.9876 63.5495 21.506 64.3067 21.506Z" fill="white"/>
<path d="M86.8985 21.3923C87.6833 21.3923 87.9572 20.898 88.0079 20.6101C88.0274 20.4862 88.0332 20.336 88.032 20.1995V18.6327H86.9203V17.0567H90.7605V19.954C90.7582 20.1559 90.7536 20.305 90.7214 20.6651C90.5407 22.6288 88.8317 23.3296 86.9122 23.3296C84.9892 23.3296 83.2826 22.6288 83.0997 20.6651C83.0686 20.305 83.064 20.1559 83.0605 19.954L83.0629 15.4084C83.0629 15.2169 83.087 14.8774 83.1077 14.6973C83.3482 12.6797 84.9892 12.0305 86.9122 12.0305C88.8329 12.0305 90.5142 12.6763 90.7132 14.6973C90.7489 15.0414 90.7374 15.4084 90.7374 15.4084V15.7686H88.0067V15.1641C88.009 15.1653 88.0031 14.9072 87.9709 14.7535C87.9249 14.5149 87.7166 13.9667 86.8915 13.9667C86.1021 13.9667 85.8707 14.4851 85.8132 14.7535C85.7798 14.8957 85.7673 15.0884 85.7673 15.2628V20.1995C85.765 20.336 85.773 20.4862 85.7949 20.6101C85.8421 20.8991 86.1148 21.3923 86.8985 21.3923Z" fill="white"/>
</g>
</g>
<defs>
<clipPath id="clip0_116_1341">
<rect width="105" height="36" fill="white"/>
</clipPath>
</defs>
</svg>
