<svg width="109" height="18" viewBox="0 0 109 18" fill="none" xmlns="http://www.w3.org/2000/svg">
<g clip-path="url(#clip0_116_1299)">
<path fill-rule="evenodd" clip-rule="evenodd" d="M107.074 1.01573V4.27216C105.409 3.63528 103.926 3.31326 102.627 3.31326C101.859 3.31326 101.246 3.45745 100.786 3.73623C100.326 4.01741 100.091 4.3635 100.091 4.77206C100.091 5.3152 100.61 5.79822 101.657 6.23086L104.68 7.72088C107.124 8.90092 108.337 10.4678 108.337 12.4361C108.337 14.0727 107.694 15.3777 106.396 16.3438C105.107 17.3196 103.373 17.8026 101.213 17.8026C100.216 17.8026 99.3224 17.7594 98.5275 17.668C97.7325 17.5815 96.8189 17.4037 95.8056 17.1489V13.7411C97.6637 14.378 99.3556 14.7 100.879 14.7C102.696 14.7 103.6 14.1664 103.6 13.0898C103.6 12.5538 103.23 12.1213 102.478 11.7824L99.1207 10.3332C97.882 9.76606 96.9613 9.07873 96.3585 8.26402C95.7653 7.44211 95.4639 6.50002 95.4639 5.42335C95.4639 3.91645 96.0904 2.7028 97.329 1.77993C98.5773 0.864277 100.233 0.405273 102.293 0.405273C102.962 0.405273 103.733 0.465331 104.588 0.575892C105.449 0.693659 106.277 0.837851 107.074 1.01573Z" fill="#009999"/>
<path fill-rule="evenodd" clip-rule="evenodd" d="M11.974 1.01573V4.27216C10.3082 3.63528 8.82745 3.31326 7.52942 3.31326C6.75819 3.31326 6.14836 3.45745 5.68797 3.73623C5.22764 4.01741 4.9927 4.3635 4.9927 4.77206C4.9927 5.3152 5.51951 5.79822 6.566 6.23086L9.58919 7.72088C12.0238 8.90092 13.2389 10.4678 13.2389 12.4361C13.2389 14.0727 12.5934 15.3777 11.3049 16.3438C10.0068 17.3196 8.28167 17.8026 6.11515 17.8026C5.11847 17.8026 4.22147 17.7594 3.42652 17.668C2.63157 17.5815 1.72745 17.4037 0.707107 17.1489V13.7411C2.57227 14.378 4.26422 14.7 5.77816 14.7C7.59589 14.7 8.50001 14.1664 8.50001 13.0898C8.50001 12.5538 8.13218 12.1213 7.38704 11.7824L4.02928 10.3332C2.78106 9.76606 1.86034 9.07873 1.26712 8.26402C0.664356 7.44211 0.370117 6.50002 0.370117 5.42335C0.370117 3.91645 0.991857 2.7028 2.23765 1.77993C3.47639 0.864277 5.13508 0.405273 7.19485 0.405273C7.87115 0.405273 8.63289 0.465331 9.49663 0.575892C10.3509 0.693659 11.1791 0.837851 11.974 1.01573Z" fill="#009999"/>
<path fill-rule="evenodd" clip-rule="evenodd" d="M15.4395 0.709961H20.3635V17.497H15.4395V0.709961Z" fill="#009999"/>
<path fill-rule="evenodd" clip-rule="evenodd" d="M36.2267 0.709961V3.81265H28.9107V7.53529H35.2561V10.3328H28.9107V14.2405H36.3762V17.497H24.1719V0.709961H36.2267Z" fill="#009999"/>
<path fill-rule="evenodd" clip-rule="evenodd" d="M59.1158 1V17.787H54.5191V6.71502L49.7496 17.9408H46.9116L42.3246 6.71502V17.787H39V1H45.0108L49.1137 11.2765L53.4064 1H59.1158Z" fill="#009999"/>
<path fill-rule="evenodd" clip-rule="evenodd" d="M75.0695 0.709961V3.81265H67.7934V7.53529H74.1388V10.3328H67.7934V14.2405H75.2188V17.497H63.0146V0.709961H75.0695Z" fill="#009999"/>
<path fill-rule="evenodd" clip-rule="evenodd" d="M92.3467 0.709961V17.497H87.1239L81.2629 6.73019V17.497H77.9404V0.709961H83.3155L89.0248 11.2917V0.709961H92.3467Z" fill="#009999"/>
</g>
<defs>
<clipPath id="clip0_116_1299">
<rect width="109" height="18" fill="white"/>
</clipPath>
</defs>
</svg>
