<svg width="14" height="14" viewBox="0 0 14 14" fill="none" xmlns="http://www.w3.org/2000/svg">
<path d="M6.17014 12.9022C6.28334 13.0081 6.43319 13.067 6.58885 13.0667C6.74393 13.068 6.89264 13.0056 6.99966 12.8943C7.1126 12.7852 7.17629 12.6355 7.17629 12.4792C7.17629 12.3228 7.1126 12.1731 6.99966 12.064L2.49647 7.59895H12.9408C13.2681 7.59895 13.5333 7.33591 13.5333 7.01145C13.5333 6.68698 13.2681 6.42395 12.9408 6.42395H2.49474L7.00756 1.9355C7.1205 1.82639 7.18419 1.67668 7.18419 1.52033C7.18419 1.36399 7.1205 1.21427 7.00756 1.10517C6.77623 0.876078 6.40147 0.876078 6.17014 1.10517L0.639959 6.5885C0.408913 6.81787 0.408913 7.18946 0.639959 7.41883L6.17014 12.9022Z" fill="#FDFDFD"/>
</svg>
